<?xml version="1.0"?>
<VTKFile type="PolyData" version="0.1" byte_order="LittleEndian">
<PolyData>
<Piece NumberOfPoints="500" NumberOfVerts="500" NumberOfLines="0" NumberOfStrips="0" NumberOfPolys="0">
<PointData>
<DataArray type="Int64" Name="id" format="ascii">1 2 3 4 5 6 7 8 9 10 11 12 13 14 15 16 17 18 19 20 21 22 23 24 25 26 27 28 29 30 31 32 33 34 35 36 37 38 39 40 41 42 43 44 45 46 47 48 49 50 51 52 53 54 55 56 57 58 59 60 61 62 63 64 65 66 67 68 69 70 71 72 73 74 75 76 77 78 79 80 81 82 83 84 85 86 87 88 89 90 91 92 93 94 95 96 97 98 99 100 101 102 103 104 105 106 107 108 109 110 111 112 113 114 115 116 117 118 119 120 121 122 123 124 125 126 127 128 129 130 131 132 133 134 135 136 137 138 139 140 141 142 143 144 145 146 147 148 149 150 151 152 153 154 155 156 157 158 159 160 161 162 163 164 165 166 167 168 169 170 171 172 173 174 175 176 177 178 179 180 181 182 183 184 185 186 187 188 189 190 191 192 193 194 195 196 197 198 199 200 201 202 203 204 205 206 207 208 209 210 211 212 213 214 215 216 217 218 219 220 221 222 223 224 225 226 227 228 229 230 231 232 233 234 235 236 237 238 239 240 241 242 243 244 245 246 247 248 249 250 251 252 253 254 255 256 257 258 259 260 261 262 263 264 265 266 267 268 269 270 271 272 273 274 275 276 277 278 279 280 281 282 283 284 285 286 287 288 289 290 291 292 293 294 295 296 297 298 299 300 301 302 303 304 305 306 307 308 309 310 311 312 313 314 315 316 317 318 319 320 321 322 323 324 325 326 327 328 329 330 331 332 333 334 335 336 337 338 339 340 341 342 343 344 345 346 347 348 349 350 351 352 353 354 355 356 357 358 359 360 361 362 363 364 365 366 367 368 369 370 371 372 373 374 375 376 377 378 379 380 381 382 383 384 385 386 387 388 389 390 391 392 393 394 395 396 397 398 399 400 401 402 403 404 405 406 407 408 409 410 411 412 413 414 415 416 417 418 419 420 421 422 423 424 425 426 427 428 429 430 431 432 433 434 435 436 437 438 439 440 441 442 443 444 445 446 447 448 449 450 451 452 453 454 455 456 457 458 459 460 461 462 463 464 465 466 467 468 469 470 471 472 473 474 475 476 477 478 479 480 481 482 483 484 485 486 487 488 489 490 491 492 493 494 495 496 497 498 499 500</DataArray>
<DataArray type="Int32" Name="type" format="ascii">1 1 1 1 1 1 1 1 1 1 1 1 1 1 1 1 1 1 1 1 1 1 1 1 1 1 1 1 1 1 1 1 1 1 1 1 1 1 1 1 1 1 1 1 1 1 1 1 1 1 1 1 1 1 1 1 1 1 1 1 1 1 1 1 1 1 1 1 1 1 1 1 1 1 1 1 1 1 1 1 1 1 1 1 1 1 1 1 1 1 1 1 1 1 1 1 1 1 1 1 2 2 2 2 2 2 2 2 2 2 2 2 2 2 2 2 2 2 2 2 2 2 2 2 2 2 2 2 2 2 2 2 2 2 2 2 2 2 2 2 2 2 2 2 2 2 2 2 2 2 2 2 2 2 2 2 2 2 2 2 2 2 2 2 2 2 2 2 2 2 2 2 2 2 2 2 2 2 2 2 2 2 2 2 2 2 2 2 2 2 2 2 2 2 2 2 2 2 2 2 2 2 2 2 2 2 2 2 2 2 2 2 2 2 2 2 2 2 2 2 2 2 2 2 2 2 2 2 2 2 2 2 2 2 2 2 2 2 2 2 2 2 2 2 2 2 2 2 2 2 2 2 2 2 2 2 2 2 2 2 2 2 2 2 2 2 2 2 2 2 2 2 2 2 2 2 2 2 2 2 2 2 2 2 2 2 2 2 2 2 2 2 2 2 2 2 2 2 2 2 2 2 2 2 2 2 2 2 2 2 2 2 2 2 2 2 2 2 2 2 2 2 2 2 2 2 2 2 2 2 2 2 2 2 2 2 2 2 2 2 2 2 2 2 2 2 2 2 2 2 2 2 2 2 2 2 2 2 2 2 2 2 2 2 2 2 2 2 2 2 2 2 2 2 2 2 2 2 2 2 2 2 2 2 2 2 2 2 2 2 2 2 2 2 2 2 2 2 2 2 3 3 3 3 3 3 3 3 3 3 3 3 3 3 3 3 3 3 3 3 3 3 3 3 3 3 3 3 3 3 3 3 3 3 3 3 3 3 3 3 3 3 3 3 3 3 3 3 3 3 3 3 3 3 3 3 3 3 3 3 3 3 3 3 3 3 3 3 3 3 3 3 3 3 3 3 3 3 3 3 3 3 3 3 3 3 3 3 3 3 3 3 3 3 3 3 3 3 3 3</DataArray>
<DataArray type="Float64" Name="radius" format="ascii">0.00075 0.00075 0.00075 0.00075 0.00075 0.00075 0.00075 0.00075 0.00075 0.00075 0.00075 0.00075 0.00075 0.00075 0.00075 0.00075 0.00075 0.00075 0.00075 0.00075 0.00075 0.00075 0.00075 0.00075 0.00075 0.00075 0.00075 0.00075 0.00075 0.00075 0.00075 0.00075 0.00075 0.00075 0.00075 0.00075 0.00075 0.00075 0.00075 0.00075 0.00075 0.00075 0.00075 0.00075 0.00075 0.00075 0.00075 0.00075 0.00075 0.00075 0.00075 0.00075 0.00075 0.00075 0.00075 0.00075 0.00075 0.00075 0.00075 0.00075 0.00075 0.00075 0.00075 0.00075 0.00075 0.00075 0.00075 0.00075 0.00075 0.00075 0.00075 0.00075 0.00075 0.00075 0.00075 0.00075 0.00075 0.00075 0.00075 0.00075 0.00075 0.00075 0.00075 0.00075 0.00075 0.00075 0.00075 0.00075 0.00075 0.00075 0.00075 0.00075 0.00075 0.00075 0.00075 0.00075 0.00075 0.00075 0.00075 0.00075 0.001 0.001 0.001 0.001 0.001 0.001 0.001 0.001 0.001 0.001 0.001 0.001 0.001 0.001 0.001 0.001 0.001 0.001 0.001 0.001 0.001 0.001 0.001 0.001 0.001 0.001 0.001 0.001 0.001 0.001 0.001 0.001 0.001 0.001 0.001 0.001 0.001 0.001 0.001 0.001 0.001 0.001 0.001 0.001 0.001 0.001 0.001 0.001 0.001 0.001 0.001 0.001 0.001 0.001 0.001 0.001 0.001 0.001 0.001 0.001 0.001 0.001 0.001 0.001 0.001 0.001 0.001 0.001 0.001 0.001 0.001 0.001 0.001 0.001 0.001 0.001 0.001 0.001 0.001 0.001 0.001 0.001 0.001 0.001 0.001 0.001 0.001 0.001 0.001 0.001 0.001 0.001 0.001 0.001 0.001 0.001 0.001 0.001 0.001 0.001 0.001 0.001 0.001 0.001 0.001 0.001 0.001 0.001 0.001 0.001 0.001 0.001 0.001 0.001 0.001 0.001 0.001 0.001 0.001 0.001 0.001 0.001 0.001 0.001 0.001 0.001 0.001 0.001 0.001 0.001 0.001 0.001 0.001 0.001 0.001 0.001 0.001 0.001 0.001 0.001 0.001 0.001 0.001 0.001 0.001 0.001 0.001 0.001 0.001 0.001 0.001 0.001 0.001 0.001 0.001 0.001 0.001 0.001 0.001 0.001 0.001 0.001 0.001 0.001 0.001 0.001 0.001 0.001 0.001 0.001 0.001 0.001 0.001 0.001 0.001 0.001 0.001 0.001 0.001 0.001 0.001 0.001 0.001 0.001 0.001 0.001 0.001 0.001 0.001 0.001 0.001 0.001 0.001 0.001 0.001 0.001 0.001 0.001 0.001 0.001 0.001 0.001 0.001 0.001 0.001 0.001 0.001 0.001 0.001 0.001 0.001 0.001 0.001 0.001 0.001 0.001 0.001 0.001 0.001 0.001 0.001 0.001 0.001 0.001 0.001 0.001 0.001 0.001 0.001 0.001 0.001 0.001 0.001 0.001 0.001 0.001 0.001 0.001 0.001 0.001 0.001 0.001 0.001 0.001 0.001 0.001 0.001 0.001 0.001 0.001 0.001 0.001 0.001 0.001 0.001 0.001 0.001 0.001 0.001 0.001 0.001 0.001 0.001 0.001 0.001 0.001 0.001 0.001 0.001 0.001 0.001 0.001 0.001 0.001 0.001 0.001 0.001 0.001 0.001 0.001 0.001 0.001 0.001 0.001 0.001 0.001 0.001 0.001 0.001 0.001 0.001 0.001 0.001 0.001 0.001 0.001 0.001 0.001 0.001 0.001 0.00125 0.00125 0.00125 0.00125 0.00125 0.00125 0.00125 0.00125 0.00125 0.00125 0.00125 0.00125 0.00125 0.00125 0.00125 0.00125 0.00125 0.00125 0.00125 0.00125 0.00125 0.00125 0.00125 0.00125 0.00125 0.00125 0.00125 0.00125 0.00125 0.00125 0.00125 0.00125 0.00125 0.00125 0.00125 0.00125 0.00125 0.00125 0.00125 0.00125 0.00125 0.00125 0.00125 0.00125 0.00125 0.00125 0.00125 0.00125 0.00125 0.00125 0.00125 0.00125 0.00125 0.00125 0.00125 0.00125 0.00125 0.00125 0.00125 0.00125 0.00125 0.00125 0.00125 0.00125 0.00125 0.00125 0.00125 0.00125 0.00125 0.00125 0.00125 0.00125 0.00125 0.00125 0.00125 0.00125 0.00125 0.00125 0.00125 0.00125 0.00125 0.00125 0.00125 0.00125 0.00125 0.00125 0.00125 0.00125 0.00125 0.00125 0.00125 0.00125 0.00125 0.00125 0.00125 0.00125 0.00125 0.00125 0.00125 0.00125</DataArray>
<DataArray type="Float64" Name="diameter" format="ascii">0.0015 0.0015 0.0015 0.0015 0.0015 0.0015 0.0015 0.0015 0.0015 0.0015 0.0015 0.0015 0.0015 0.0015 0.0015 0.0015 0.0015 0.0015 0.0015 0.0015 0.0015 0.0015 0.0015 0.0015 0.0015 0.0015 0.0015 0.0015 0.0015 0.0015 0.0015 0.0015 0.0015 0.0015 0.0015 0.0015 0.0015 0.0015 0.0015 0.0015 0.0015 0.0015 0.0015 0.0015 0.0015 0.0015 0.0015 0.0015 0.0015 0.0015 0.0015 0.0015 0.0015 0.0015 0.0015 0.0015 0.0015 0.0015 0.0015 0.0015 0.0015 0.0015 0.0015 0.0015 0.0015 0.0015 0.0015 0.0015 0.0015 0.0015 0.0015 0.0015 0.0015 0.0015 0.0015 0.0015 0.0015 0.0015 0.0015 0.0015 0.0015 0.0015 0.0015 0.0015 0.0015 0.0015 0.0015 0.0015 0.0015 0.0015 0.0015 0.0015 0.0015 0.0015 0.0015 0.0015 0.0015 0.0015 0.0015 0.0015 0.002 0.002 0.002 0.002 0.002 0.002 0.002 0.002 0.002 0.002 0.002 0.002 0.002 0.002 0.002 0.002 0.002 0.002 0.002 0.002 0.002 0.002 0.002 0.002 0.002 0.002 0.002 0.002 0.002 0.002 0.002 0.002 0.002 0.002 0.002 0.002 0.002 0.002 0.002 0.002 0.002 0.002 0.002 0.002 0.002 0.002 0.002 0.002 0.002 0.002 0.002 0.002 0.002 0.002 0.002 0.002 0.002 0.002 0.002 0.002 0.002 0.002 0.002 0.002 0.002 0.002 0.002 0.002 0.002 0.002 0.002 0.002 0.002 0.002 0.002 0.002 0.002 0.002 0.002 0.002 0.002 0.002 0.002 0.002 0.002 0.002 0.002 0.002 0.002 0.002 0.002 0.002 0.002 0.002 0.002 0.002 0.002 0.002 0.002 0.002 0.002 0.002 0.002 0.002 0.002 0.002 0.002 0.002 0.002 0.002 0.002 0.002 0.002 0.002 0.002 0.002 0.002 0.002 0.002 0.002 0.002 0.002 0.002 0.002 0.002 0.002 0.002 0.002 0.002 0.002 0.002 0.002 0.002 0.002 0.002 0.002 0.002 0.002 0.002 0.002 0.002 0.002 0.002 0.002 0.002 0.002 0.002 0.002 0.002 0.002 0.002 0.002 0.002 0.002 0.002 0.002 0.002 0.002 0.002 0.002 0.002 0.002 0.002 0.002 0.002 0.002 0.002 0.002 0.002 0.002 0.002 0.002 0.002 0.002 0.002 0.002 0.002 0.002 0.002 0.002 0.002 0.002 0.002 0.002 0.002 0.002 0.002 0.002 0.002 0.002 0.002 0.002 0.002 0.002 0.002 0.002 0.002 0.002 0.002 0.002 0.002 0.002 0.002 0.002 0.002 0.002 0.002 0.002 0.002 0.002 0.002 0.002 0.002 0.002 0.002 0.002 0.002 0.002 0.002 0.002 0.002 0.002 0.002 0.002 0.002 0.002 0.002 0.002 0.002 0.002 0.002 0.002 0.002 0.002 0.002 0.002 0.002 0.002 0.002 0.002 0.002 0.002 0.002 0.002 0.002 0.002 0.002 0.002 0.002 0.002 0.002 0.002 0.002 0.002 0.002 0.002 0.002 0.002 0.002 0.002 0.002 0.002 0.002 0.002 0.002 0.002 0.002 0.002 0.002 0.002 0.002 0.002 0.002 0.002 0.002 0.002 0.002 0.002 0.002 0.002 0.002 0.002 0.002 0.002 0.002 0.002 0.002 0.002 0.002 0.002 0.002 0.002 0.002 0.002 0.002 0.002 0.002 0.002 0.002 0.002 0.0025 0.0025 0.0025 0.0025 0.0025 0.0025 0.0025 0.0025 0.0025 0.0025 0.0025 0.0025 0.0025 0.0025 0.0025 0.0025 0.0025 0.0025 0.0025 0.0025 0.0025 0.0025 0.0025 0.0025 0.0025 0.0025 0.0025 0.0025 0.0025 0.0025 0.0025 0.0025 0.0025 0.0025 0.0025 0.0025 0.0025 0.0025 0.0025 0.0025 0.0025 0.0025 0.0025 0.0025 0.0025 0.0025 0.0025 0.0025 0.0025 0.0025 0.0025 0.0025 0.0025 0.0025 0.0025 0.0025 0.0025 0.0025 0.0025 0.0025 0.0025 0.0025 0.0025 0.0025 0.0025 0.0025 0.0025 0.0025 0.0025 0.0025 0.0025 0.0025 0.0025 0.0025 0.0025 0.0025 0.0025 0.0025 0.0025 0.0025 0.0025 0.0025 0.0025 0.0025 0.0025 0.0025 0.0025 0.0025 0.0025 0.0025 0.0025 0.0025 0.0025 0.0025 0.0025 0.0025 0.0025 0.0025 0.0025 0.0025</DataArray>
<DataArray type="Float64" Name="conductivity" format="ascii">1.0 1.0 1.0 1.0 1.0 1.0 1.0 1.0 1.0 1.0 1.0 1.0 1.0 1.0 1.0 1.0 1.0 1.0 1.0 1.0 1.0 1.0 1.0 1.0 1.0 1.0 1.0 1.0 1.0 1.0 1.0 1.0 1.0 1.0 1.0 1.0 1.0 1.0 1.0 1.0 1.0 1.0 1.0 1.0 1.0 1.0 1.0 1.0 1.0 10.0 1.0 1.0 1.0 10.0 1.0 10.0 1.0 1.0 10.0 1.0 1.0 1.0 1.0 1.0 1.0 1.0 1.0 1.0 1.0 1.0 1.0 1.0 10.0 1.0 1.0 1.0 1.0 1.0 1.0 10.0 1.0 1.0 10.0 1.0 1.0 1.0 1.0 1.0 1.0 1.0 1.0 1.0 1.0 10.0 10.0 1.0 1.0 1.0 10.0 1.0 1.0 1.0 1.0 1.0 1.0 1.0 1.0 10.0 1.0 1.0 1.0 1.0 1.0 1.0 1.0 10.0 1.0 1.0 1.0 1.0 1.0 1.0 1.0 1.0 1.0 1.0 1.0 1.0 1.0 1.0 1.0 1.0 1.0 1.0 1.0 1.0 1.0 1.0 1.0 1.0 1.0 1.0 1.0 1.0 1.0 1.0 1.0 1.0 10.0 1.0 1.0 1.0 1.0 1.0 1.0 1.0 1.0 1.0 1.0 1.0 1.0 10.0 10.0 1.0 1.0 1.0 1.0 1.0 1.0 10.0 1.0 1.0 1.0 1.0 1.0 1.0 1.0 1.0 1.0 1.0 1.0 1.0 1.0 1.0 1.0 1.0 1.0 1.0 1.0 1.0 1.0 1.0 1.0 1.0 1.0 1.0 1.0 1.0 1.0 1.0 1.0 1.0 1.0 1.0 10.0 1.0 1.0 1.0 1.0 1.0 1.0 1.0 1.0 1.0 1.0 1.0 10.0 1.0 1.0 1.0 1.0 1.0 1.0 1.0 1.0 1.0 1.0 1.0 10.0 1.0 1.0 1.0 1.0 1.0 1.0 1.0 1.0 1.0 1.0 1.0 1.0 1.0 1.0 1.0 10.0 1.0 1.0 1.0 1.0 1.0 1.0 1.0 1.0 1.0 1.0 1.0 1.0 1.0 1.0 1.0 1.0 1.0 10.0 1.0 1.0 1.0 1.0 1.0 10.0 1.0 1.0 1.0 1.0 1.0 1.0 1.0 1.0 1.0 1.0 1.0 10.0 1.0 1.0 1.0 1.0 1.0 1.0 1.0 1.0 1.0 1.0 1.0 1.0 1.0 1.0 1.0 1.0 1.0 1.0 1.0 1.0 1.0 1.0 1.0 1.0 10.0 1.0 1.0 1.0 1.0 1.0 1.0 1.0 1.0 1.0 1.0 1.0 1.0 1.0 1.0 1.0 1.0 1.0 1.0 1.0 1.0 10.0 1.0 1.0 1.0 1.0 1.0 1.0 10.0 1.0 1.0 1.0 1.0 1.0 10.0 1.0 1.0 1.0 10.0 1.0 1.0 10.0 10.0 1.0 10.0 1.0 1.0 1.0 10.0 1.0 1.0 1.0 1.0 1.0 1.0 1.0 1.0 10.0 1.0 10.0 1.0 1.0 10.0 1.0 1.0 1.0 10.0 1.0 1.0 1.0 1.0 1.0 1.0 1.0 1.0 1.0 10.0 1.0 1.0 1.0 1.0 10.0 1.0 1.0 10.0 1.0 1.0 1.0 1.0 1.0 1.0 1.0 1.0 10.0 1.0 1.0 1.0 1.0 1.0 1.0 1.0 1.0 1.0 1.0 1.0 1.0 1.0 10.0 1.0 1.0 1.0 1.0 1.0 1.0 1.0 1.0 1.0 1.0 10.0 1.0 1.0 1.0 1.0 1.0 10.0 1.0 1.0 1.0 1.0 1.0 10.0 1.0 1.0 1.0 1.0 1.0 1.0 1.0 1.0 1.0 1.0 1.0 1.0 1.0 1.0 1.0 1.0 1.0 1.0 1.0 1.0 1.0 1.0 1.0 1.0 1.0 10.0 1.0 1.0 1.0 1.0 1.0 1.0 1.0 1.0 10.0 1.0 10.0 1.0 1.0 1.0 1.0 1.0 1.0 1.0 1.0 1.0 1.0 1.0 1.0 1.0 1.0 1.0 1.0 1.0 1.0 1.0 1.0 10.0 1.0 1.0 1.0 10.0 1.0 10.0</DataArray>
<DataArray type="Float64" Name="temperature" format="ascii">300.9446326569134 300.6652959087117 300.56139247510873 300.63649122360937 300.8457395875972 300.8546068584152 300.83519521717466 nan 300.7566492797128 300.78029429226575 300.95979252486404 300.57411861762023 300.65367669488455 300.7569704193697 300.6518517127546 300.8025138756861 300.7961536000401 300.7148798855235 300.85845174713705 300.4792139107404 300.65786965644065 300.67404005000327 300.6967458349896 300.6844049071671 300.688776389158 300.6407720862398 nan 300.7365999712524 300.95022329193404 300.5656114281827 300.60712478374734 300.7661234176045 300.85155681255094 300.5519654441648 300.9155840667747 300.5511456575565 300.8880580410333 300.5102315535432 300.78074148407603 300.74870582800463 300.71124345903877 300.67404005000327 300.6680323427873 300.9666217789937 300.657094905281 300.76801063018655 300.96107186221064 300.78332559637795 300.87470611823045 300.597211431726 300.7279857145878 300.6976899640495 300.49634951230865 300.33790699283526 300.56241905134084 300.1312326199165 300.3275457023396 300.2225349001041 300.23910733158783 300.4476828102465 300.1805305651187 300.58942249364907 300.31803770481207 300.3194505602037 300.527258982954 300.23656100383664 300.14181963294266 300.09283492257987 300.3977891355707 300.3022386839378 300.4499993200465 300.0549618476726 300.1724324558762 300.0490660537893 300.09633798478563 300.4254131706276 300.2893087596907 300.48523668201005 300.55222993784093 300.0351020897479 300.1831335684158 300.1369485311779 300.28624791324137 300.36036198273524 nan 300.38357007129434 300.1914939046695 300.2838335604653 300.2850531205296 300.0762533889057 300.30485303561665 300.16626717036905 300.0819384928244 300.2112223866521 300.35066157315225 300.3625861978097 300.1666287935971 300.511008736638 300.4215965628406 nan 300.16030272918795 300.24948110053725 300.42305277772977 300.1219018153885 300.41222417332955 300.4155767671094 300.6540837690869 300.85689200786874 300.730846872697 nan nan 300.6802267424777 300.6303302604357 300.6686984106334 300.6208481107675 300.77093434107434 300.5636876265821 300.77711243120194 300.56142645773673 300.95877187550457 300.8379148740781 300.6639562285675 300.58415217130533 300.7160977086684 300.59712326205704 300.6308939838664 300.73324673606805 300.7838490504595 300.82878286644865 300.9428830599487 300.87100274575005 300.8524726809488 300.95352945069 300.6893835599235 300.95209442527107 300.89594508757494 300.5663526700066 300.939250087131 300.8431437748877 300.94733360591124 300.6408833029924 300.8788540434551 300.8080837816047 300.48426448160944 300.4354226120838 300.89949066214956 300.72835710230345 300.82480313128883 300.9631466861272 300.6813834262238 300.794991640891 300.7014954436187 300.4836329843136 300.7690350625274 300.5270380945596 300.95596584004596 300.9466004092429 300.94690727206216 300.6844097120463 300.9489691259229 300.6919967194215 300.87934186623886 300.6746471592305 300.7851586224673 300.6993676298681 300.87072232548445 300.8302863081125 300.596272788775 300.88473066859734 300.95688815876827 300.50365028933794 300.7790303377901 300.3949557010594 300.2297170833992 300.18327928369376 300.0494514292991 300.1753087326724 300.4632455967046 300.4009404468119 300.2907059187718 300.160416018341 300.10545682880723 300.18329932570515 300.2297149677657 300.04922987362136 300.367674405978 300.49907744847087 300.22056172512373 300.35743154736014 300.24827284618266 300.27195039692566 300.156178595028 300.3287548021159 300.180866002184 300.45945282403113 300.38060755913705 300.44755728879204 300.1771605977273 300.4568715655836 300.21719098684173 300.30292899171826 300.14947747115076 300.3652183694573 300.1239440960775 300.25020872976324 300.4761454874916 300.24540606895766 300.1914266062476 300.3987655963333 300.06246513484916 300.33972803741165 300.13536744516045 300.4153981165163 300.40098930305294 300.3892921895316 300.2547815551997 300.0189442110075 300.12998868461295 300.43827388751635 300.0652929023621 300.1191319188001 300.27233338078736 300.4024505699848 300.11704014188325 300.0563075440001 300.38379402557916 300.2469289185124 300.0682726845694 300.5058449951593 300.0453901404153 300.39768778919387 300.50306293579524 300.26299605359054 300.56988210424805 300.8764188206654 300.69602264523405 300.8361467161793 300.7126911873813 300.9599945102363 300.9471018223409 300.8025071347157 300.6463065246375 300.6227431130054 300.7038067888558 300.7747745223495 300.7891775928098 300.79444899875756 300.7134941444224 300.62541286883015 300.70687398514286 300.6619833930839 300.83997741656367 300.794419172662 300.9101843284766 300.6884393826549 300.7207524219369 300.94541356394467 300.80666671212623 300.5875565624041 300.80838762567623 300.7016825278191 300.96416993982047 300.6368341253437 300.77937383136555 300.70738874630246 300.5718066942845 300.9474935420808 300.59895763128515 300.8585704692907 300.9377017431166 300.8642753340201 300.82949360735927 300.72485135748536 300.7374517375477 300.9226131219742 300.8169685583251 300.8738806026223 300.57787143653877 300.7636742064227 300.61565405954605 300.7060689725342 300.7985294069809 300.9395575510129 300.8779893809942 300.6637855640971 300.73987320012134 300.8172974950552 300.5915621832319 300.70216543532297 300.77381785948796 300.3246357359702 300.05020775472315 300.58841084801173 300.23031261118524 300.3218021323703 300.3415334853616 300.5295313369413 300.26758052701996 300.5340685424228 300.13577271144743 300.3697895753447 300.38765374407683 300.2102832778703 300.3735286570688 300.4795377500544 300.4104781775085 300.3743440610451 300.14333687684893 300.15015649797795 300.0513501413282 300.0893738366674 300.21510183496554 300.5814082651839 300.51038127218794 300.5089648574271 300.0713455374251 300.18710263827154 300.0587540539463 300.5937480377413 300.49784662722806 300.20166876878045 300.2428661910461 300.34279036385146 300.59393679340934 300.1653300511109 300.24302613979654 300.1994794960244 300.41384708137355 300.50021117680456 300.56983772444966 300.40520758835294 300.0508224895332 300.5959091265356 300.1160690626728 300.47400992815085 300.4704155815633 300.2140948882193 300.337445958766 300.30980733540474 300.1849326739965 300.0869946050219 300.15020176716706 300.4265954297665 300.03396140465213 300.27842438891616 300.22450890918464 300.40534147285774 300.1192215021142 300.2408711873214 300.0349319504006 300.08073071310747 300.0657116996138 300.30466759100034 300.03442368771624 300.0589172466141 300.17429343268265 300.05091616996003 300.0590592444528 300.5650820506219 300.3727964371881 300.1132514934534 300.44617249271994 300.19357917020557 300.18063765202305 300.0551407466074 300.20086395000436 300.05433605533676 300.78451668525776 300.7450514618553 300.7851226181323 300.9513048729172 300.9603162126167 300.7551661594221 300.9406386378672 300.9500508844426 300.7838662135581 300.9440455551972 300.70566277438206 300.6836505941362 300.94052237638806 300.6815386362909 300.8242900213989 300.952167920251 300.794329621864 300.6290626147333 300.58094733265386 300.9403849421469 300.7378252414976 300.83879203529875 300.95172841949164 300.670992001731 300.93131302069395 300.5506289986872 300.6702931690832 300.60276525194456 300.8111463486051 300.75120770876663 300.9220291128029 300.65367477388213 300.7342723486048 300.6783341358714 300.87447340856534 300.92062964629963 300.56846313354566 300.9231211644956 300.63617445799736 300.77153569195053 300.90504254734617 300.77675273797837 300.56731166102537 300.84346347900555 300.6546681544417 300.8500260019171 300.83688681380596 300.71144924605903 300.7760518903259 300.8962020044344 300.6820675624296 300.9473559577587 300.6438205823268 300.8472315575695 300.67473906979035 300.8827688863721 300.8490425971196 300.91979123114936 300.91573418687483 300.76067197426084 300.8622644732474 300.9000849088948 300.7500409992266 300.07535943211553 300.31933050873033 300.08998548871466 300.4239024117283 300.07433277759924 300.5479569265496 300.218471197449 300.5072604746955 300.16203310752076 300.2376560034704 300.1939968417573 300.39448783608 300.48115763629465 300.3194922247764 300.6082290825269 300.33270009584106 300.5036063235028 300.31635341176343 300.4827424966712 300.23403295837323 300.36460980418633 300.2140033696726 300.0804838369691 300.23340437422723 300.16738444704436 300.0745372089928 300.08603094612215 300.0863034784806 300.4243002266475 300.1247675822723 300.24502311263376 300.3184675805376 300.3320634031815 300.53982375968735 300.2968447753305 nan 300.0666967933245 300.31129703271364 300.18120254477896 300.1957792937485 300.2491830839592 300.4574332300066 300.4521824057842 300.4470022055713 300.08218997337866 300.06484601339537 300.3504606259221 300.2929019152459 300.38209419730424 300.23492081641734 300.3343382063823 300.344061191354 300.3825939719687 300.06349430678387 300.14598603682714 300.3446004901867 300.59088510821425 300.4706937182166 300.32460581558576 300.5720194035625 300.56545595244035 300.1226338009738 300.3437518483051 300.4109332064156 300.1966600347475 300.6034484848141 300.27121238024876 300.5089157146871 300.44507493510054 300.3379483575575</DataArray>
<DataArray type="Float64" Name="g_hot" format="ascii">0.0004374997142856212 0.0 0.0 0.0 0.0 0.0 0.0 0.0 0.0 0.0 0.00033980435547532374 0.0 0.0 0.0 0.0 0.0 0.0 0.0 0.0 0.0 0.0 0.0 0.0 0.0 0.0 0.0 0.0 0.0 0.00010053357648069666 0.0 0.0 0.0 0.0 0.0 0.0 0.0 0.0 0.0 0.0 0.0 0.0 0.0 0.0 1.6792855623743285e-05 0.0 0.0 0.0003669741135284613 0.0 0.0 0.0 0.0 0.0 0.0 0.0 0.0 0.0 0.0 0.0 0.0 0.0 0.0 0.0 0.0 0.0 0.0 0.0 0.0 0.0 0.0 0.0 0.0 0.0 0.0 0.0 0.0 0.0 0.0 0.0 0.0 0.0 0.0 0.0 0.0 0.0 0.0 0.0 0.0 0.0 0.0 0.0 0.0 0.0 0.0 0.0 0.0 0.0 0.0 0.0 0.0 0.0 0.0 0.0 0.0 0.0 0.0 0.0 0.0 0.0 0.0 0.0 0.0 0.0 0.0 0.0 0.0 0.0 0.0 0.0 0.0 0.0004648053355976025 0.0 0.0 0.0 0.0 0.0 0.0 0.0 0.0 0.0 0.0005144006220836051 0.0 0.0 0.0006260351427835342 0.0 0.0005652150033394374 0.0 0.0 0.0005039404726750969 0.0 0.0007186876929515353 0.0 0.0 0.0 0.0 0.0 0.0 0.0 0.0 0.005392179522234029 0.0 0.0 0.0 0.0 0.0 0.0 0.0006560274384505575 0.0005793168390440591 0.0004015868523744273 0.0 0.00046972758062519584 0.0 0.0 0.0 0.0 0.0 0.0 0.0 0.0 0.0 0.008235387058299083 0.0 0.0 0.0 0.0 0.0 0.0 0.0 0.0 0.0 0.0 0.0 0.0 0.0 0.0 0.0 0.0 0.0 0.0 0.0 0.0 0.0 0.0 0.0 0.0 0.0 0.0 0.0 0.0 0.0 0.0 0.0 0.0 0.0 0.0 0.0 0.0 0.0 0.0 0.0 0.0 0.0 0.0 0.0 0.0 0.0 0.0 0.0 0.0 0.0 0.0 0.0 0.0 0.0 0.0 0.0 0.0 0.0 0.0 0.0 0.0 0.0 0.0 0.0 0.0 0.0 0.0 0.0 0.0 0.00048412808222618133 0.00049885067906138 0.0 0.0 0.0 0.0 0.0 0.0 0.0 0.0 0.0 0.0 0.0 0.0 0.0 0.0 0.0 0.0 0.0006551335741663682 0.0 0.0 0.0 0.0 0.00025775181861628144 0.0 0.0 0.0 0.0 0.0002227554713132771 0.0 0.0 0.0006921040384219702 0.0 0.0 0.0 0.0 0.0 0.0 0.0 0.0 0.0 0.0 0.0 0.0 0.0005934340738447704 0.0 0.0 0.0 0.0 0.0 0.0 0.0 0.0 0.0 0.0 0.0 0.0 0.0 0.0 0.0 0.0 0.0 0.0 0.0 0.0 0.0 0.0 0.0 0.0 0.0 0.0 0.0 0.0 0.0 0.0 0.0 0.0 0.0 0.0 0.0 0.0 0.0 0.0 0.0 0.0 0.0 0.0 0.0 0.0 0.0 0.0 0.0 0.0 0.0 0.0 0.0 0.0 0.0 0.0 0.0 0.0 0.0 0.0 0.0 0.0 0.0 0.0 0.0 0.0 0.0 0.0 0.0 0.0 0.0 0.0 0.0 0.0 0.0 0.0 0.0 0.0 0.0 0.0 0.0 0.0 0.0 0.0 0.0 0.0 0.0 0.0 0.0 0.0005107523861911954 0.005843492106608856 0.0 0.0009289585566643971 0.000602089694314726 0.0 0.0008010218473924417 0.0 0.0 0.0007842576107376964 0.0 0.0 0.0008986278428804663 0.0 0.0 0.0 0.00833630613641318 0.0 0.0 0.006610718569111834 0.0 0.0006198774072346888 0.0 0.0 0.0 0.0 0.0 0.0 0.0 0.0 0.0 0.0 0.0010340212763768454 0.0 0.0005953570357357008 0.0 0.0 0.0 0.0 0.0 0.0 0.0 0.0 0.0 0.0 0.0 0.0 0.0 0.0006218520724416698 0.0 0.0 0.0 0.0 0.0 0.000617535424085129 0.0008676981041814024 0.0 0.0 0.0 0.0 0.0 0.0 0.0 0.0 0.0 0.0 0.0 0.0 0.0 0.0 0.0 0.0 0.0 0.0 0.0 0.0 0.0 0.0 0.0 0.0 0.0 0.0 0.0 0.0 0.0 0.0 0.0 0.0 0.0 0.0 0.0 0.0 0.0 0.0 0.0 0.0 0.0 0.0 0.0 0.0 0.0 0.0 0.0 0.0 0.0 0.0 0.0 0.0 0.0 0.0 0.0 0.0 0.0 0.0 0.0 0.0 0.0 0.0 0.0 0.0 0.0 0.0 0.0 0.0 0.0 0.0 0.0 0.0 0.0 0.0</DataArray>
<DataArray type="Float64" Name="g_cold" format="ascii">0.0 0.0 0.0 0.0 0.0 0.0 0.0 0.0 0.0 0.0 0.0 0.0 0.0 0.0 0.0 0.0 0.0 0.0 0.0 0.0 0.0 0.0 0.0 0.0 0.0 0.0 0.0 0.0 0.0 0.0 0.0 0.0 0.0 0.0 0.0 0.0 0.0 0.0 0.0 0.0 0.0 0.0 0.0 0.0 0.0 0.0 0.0 0.0 0.0 0.0 0.0 0.0 0.0 0.0 0.0 0.0 0.0 0.0 0.0 0.0 0.0 0.0 0.0 0.0 0.0 0.0 0.0 0.0 0.0 0.0 0.0 0.0003210863412717884 0.0 0.0003414622066222065 0.0 0.0 0.0 0.0 0.0 0.004967861094588932 0.0 0.0 0.0 0.0 0.0 0.0 0.0 0.0 0.0 0.0 0.0 0.0 0.0 0.0 0.0 0.0 0.0 0.0 0.0 0.0 0.0 0.0 0.0 0.0 0.0 0.0 0.0 0.0 0.0 0.0 0.0 0.0 0.0 0.0 0.0 0.0 0.0 0.0 0.0 0.0 0.0 0.0 0.0 0.0 0.0 0.0 0.0 0.0 0.0 0.0 0.0 0.0 0.0 0.0 0.0 0.0 0.0 0.0 0.0 0.0 0.0 0.0 0.0 0.0 0.0 0.0 0.0 0.0 0.0 0.0 0.0 0.0 0.0 0.0 0.0 0.0 0.0 0.0 0.0 0.0 0.0 0.0 0.0 0.0 0.0 0.0 0.0 0.0 0.0 0.0 0.0 0.0 0.0 0.0 0.0 0.0006214997329592386 0.0 0.0 0.0 0.0 0.0 0.0 0.0 0.0 0.0005771151688080999 0.0 0.0 0.0 0.0 0.0 0.0 0.0 0.0 0.0 0.0 0.0 0.0 0.0 0.0 0.0 0.0 0.0 0.0 0.0 0.0 0.0 0.0 0.0 0.0 0.0008320227869886771 0.0 0.0 0.0 0.0 0.0 0.0 0.006996155501905334 0.0 0.0 0.0005022568248101857 0.0 0.0 0.0 0.0 0.0007824716723744119 0.0 0.0 0.00040726148610985703 0.0 0.00040232066572375483 0.0 0.0 0.0 0.0 0.0 0.0 0.0 0.0 0.0 0.0 0.0 0.0 0.0 0.0 0.0 0.0 0.0 0.0 0.0 0.0 0.0 0.0 0.0 0.0 0.0 0.0 0.0 0.0 0.0 0.0 0.0 0.0 0.0 0.0 0.0 0.0 0.0 0.0 0.0 0.0 0.0 0.0 0.0 0.0 0.0 0.0 0.0 0.0 0.0 0.0 0.0 0.0 0.0 0.0 0.0 0.0 0.0 0.0 0.0 0.0 0.0 0.00037611423539717494 0.0 0.0 0.0 0.0 0.0 0.0 0.0 0.0 0.0 0.0 0.0 0.0 0.0 0.0 0.0 0.0 0.0 0.0007501079376119133 0.0 0.0 0.0 0.0 0.0 0.0003647765316853728 0.0 0.0005167803383144574 0.0 0.0 0.0 0.0 0.0 0.0 0.0 0.0 0.0 0.0 0.0 0.0 0.0 0.0005468655392949982 0.0 0.0 0.0 0.0 0.0 0.0 0.0 0.0 0.0 0.0 0.0 0.008844557185458176 0.0 0.0 0.0 0.0 0.0 0.006473499193391502 0.000571193415638171 0.0 0.0 0.007599091511940144 0.0006479675285601893 0.0 0.00029233870436259554 0.0003777061265963372 0.0 0.0 0.0 0.0 0.0 0.0 0.006796042363525994 0.0 0.0007604353477241853 0.0 0.0 0.0 0.0 0.0 0.0 0.0 0.0 0.0 0.0 0.0 0.0 0.0 0.0 0.0 0.0 0.0 0.0 0.0 0.0 0.0 0.0 0.0 0.0 0.0 0.0 0.0 0.0 0.0 0.0 0.0 0.0 0.0 0.0 0.0 0.0 0.0 0.0 0.0 0.0 0.0 0.0 0.0 0.0 0.0 0.0 0.0 0.0 0.0 0.0 0.0 0.0 0.0 0.0 0.0 0.0 0.0 0.0 0.0 0.0 0.0 0.0 0.0 0.0007367682115736921 0.0 0.0006766294388995342 0.0 0.0009264596038605814 0.0 0.0 0.0 0.0 0.0 0.0 0.0 0.0 0.0 0.0 0.0 0.0 0.0 0.0 0.0 0.0 0.0 0.0007680022119665437 0.0 0.0 0.0006448468016401298 0.0007175147368420374 0.0008819452350262444 0.0 0.0 0.0 0.0 0.0 0.0 0.0 0.0 0.0008445871166348081 0.0 0.0 0.0 0.0 0.0 0.0 0.0 0.0008187352426673123 0.000669199071715956 0.0 0.0 0.0 0.0 0.0 0.0 0.0 0.0007394777870805174 0.0 0.0 0.0 0.0 0.0 0.0 0.0 0.0 0.0 0.0 0.0 0.0 0.0 0.0 0.0 0.0</DataArray>
</PointData><Points>
<DataArray type="Float64" Name="Points" format="ascii" NumberOfComponents="3">0.00550689 0.00349668 0.000686198 0.00249395 0.00585537 0.00482392 0.0041066 0.00328575 0.006116 0.00561151 0.00647095 0.00526389 2.42939e-05 0.00156594 0.00236242 0.00179908 0.00665713 0.00211948 0.00133805 0.00105984 0.0024456 0.00214207 0.00261392 0.0015091 0.00554388 0.00605261 0.00382144 0.00313501 0.00307318 0.00298214 0.0038531 0.00235394 0.000711511 0.00170073 0.00522778 0.00593541 0.0071411 0.00473506 0.00571942 0.0033139 0.00564192 0.00358773 0.00581798 0.0017131 0.00532974 0.00258733 0.00540315 0.00230476 0.00371979 0.0044434 0.0024888 0.00139097 0.00506449 0.00438947 0.00363331 0.00202692 0.00210854 0.00547363 0.00431059 0.00734205 0.0069116 0.00247756 0.00517251 0.00376651 0.00341335 0.00466333 0.00566928 0.00385805 0.00452799 0.0028411 0.0022776 0.00479037 0.00395633 0.00598947 0.00485175 0.00577934 0.00503363 0.00534765 0.00222341 0.00433104 0.000865445 0.0042801 0.00180751 0.00403021 0.0049168 0.00559251 0.000746631 0.0043407 0.00081113 0.0069584 0.00323104 0.00112408 0.00606413 0.00208365 0.00638867 0.00353942 0.00613784 0.00589434 0.00243719 0.00437971 0.00468808 0.00654191 0.00408069 0.00382328 0.0010165 0.000648104 0.00614414 0.00638396 0.00350936 0.00520477 0.0011384 0.00128945 0.00263205 0.00705594 0.00468373 0.00488099 0.0035498 0.00299235 0.00426512 0.00377243 0.00124165 0.00689749 0.00467173 0.00459491 0.0032944 0.00341849 0.00492991 0.00269759 0.00492854 0.00221262 0.00585074 0.000749906 0.00446763 0.00140979 0.00544735 0.00634032 0.00202916 0.00382219 0.00705685 0.00356821 0.00070511 0.00613246 0.00335497 0.00326221 0.000859128 0.00331936 0.00101654 0.00196974 0.00662513 0.00595458 0.00312921 0.00100357 0.00417749 0.0044334 0.00463656 0.00494686 0.00285917 0.00463886 0.00717933 0.00224499 0.00602247 0.00984185 0.00217056 0.00153604 0.00689481 0.00267088 0.00498028 0.0133956 0.00231302 0.00208493 0.00995972 0.00409134 0.00455158 0.0115774 0.00079249 0.00557602 0.0107359 0.00347473 0.0035988 0.00789535 0.0061913 0.00576354 0.0126624 0.00318038 0.00514828 0.0058573 0.00243443 0.00355989 0.00995527 0.00374239 0.0042062 0.010179 0.00271112 0.00298466 0.00685241 0.00718322 0.00654246 0.0120025 0.00186262 0.00364748 0.01329 0.00407076 0.00489165 0.0136487 0.00246311 0.00500609 0.00882307 0.00607948 0.00211658 0.0106307 0.00383811 0.00604449 0.00809802 0.00650129 0.000548744 0.014655 0.00288205 0.00509096 0.0120454 0.00375956 0.00679939 0.0146595 0.00615564 0.00296774 0.0139927 0.00469309 0.00303903 0.00816763 0.0033453 0.00146348 0.0107647 0.00320836 0.000655687 0.00785389 0.00523722 0.001872 0.00664445 0.0031499 0.00462909 0.0147029 0.00614279 0.00260323 0.0125672 0.00507859 0.00372488 0.0132502 0.00701172 0.00332778 0.0108136 0.00579781 0.0040555 0.00973329 0.00189002 0.00259356 0.0143588 0.00420675 0.00683232 0.0094255 0.0043409 0.00218392 0.0122015 0.00336505 0.0029206 0.0109103 0.00206618 0.00486939 0.0105402 0.00521997 0.00457387 0.0143828 0.00495642 0.00511542 0.0103778 0.00626942 0.00435055 0.0128169 0.00247239 0.00612882 0.0143322 0.00184576 0.00687912 0.0129793 0.00723671 0.00400854 0.00962651 0.00356587 0.00558509 0.0094607 0.00288105 0.00196297 0.0123841 0.00394098 0.00221464 0.00713954 0.0025793 0.00647648 0.0085953 0.00337431 0.00222301 0.0143338 0.00349438 0.00343213 0.0129404 0.00549768 0.00371292 0.0114357 0.00189414 0.0035208 0.00832031 0.00512582 0.00171795 0.0136687 0.00454722 0.0045732 0.00868955 0.00338694 0.00210725 0.00871892 0.00564376 0.0139408 0.00505524 0.0014785 0.00832182 0.00260598 0.004669 0.00736679 0.00419267 0.00435486 0.00952824 0.00266932 0.00602008 0.0106068 0.00292852 0.0036382 0.0133115 0.00495927 0.00562036 0.000245854 0.00610147 0.00745116 0.00925433 0.00532742 0.00448759 0.00861317 0.00631525 0.00296046 0.00780181 0.00358274 0.00338553 0.0148693 0.00659845 0.00592233 0.000422719 0.00418585 0.00259807 0.00843522 0.00689015 0.00341844 0.00998628 0.000945989 0.00512033 0.00137358 0.00266168 0.00200901 0.0124504 0.00551338 0.00665526 0.00796492 0.00644584 0.00518719 0.0120419 0.00479259 0.00417995 0.00634827 0.00649208 0.00292068 0.0100645 0.00619603 0.00248616 0.014625 0.00425626 0.00408533 0.0141499 0.00320158 0.00550421 0.00771997 0.0025297 0.015198 0.00879237 0.000933848 0.00323857 0.00751304 0.00169857 0.00290152 0.000536442 0.00257866 0.00626471 0.000394324 0.00090202 0.00167457 0.0107169 0.00489772 0.00542765 0.0103481 0.000920133 0.00443025 0.0153537 0.00152027 0.00459132 0.0132962 0.00660491 0.00472339 0.00850045 0.000936511 0.00173921 0.0143355 0.00259254 0.00245518 0.0124237 0.000870872 0.00487193 0.0104525 0.00590612 0.000990653 0.0127461 0.00195513 0.000694662 0.0113931 0.00327687 0.00312294 0.0109931 0.00786704 0.00433211 0.00960194 0.00840004 0.0063825 0.00246836 0.0017547 0.00566444 0.00896825 0.00454793 0.00558199 0.0128664 0.00310081 0.00592708 0.0137259 0.000927311 0.006592 0.0109205 0.00534099 0.0041128 0.0115878 0.0032861 0.00198444 0.00880895 0.005006 0.00158941 0.00975002 0.00781982 0.00723415 0.00911615 0.00348012 0.00197719 0.0124807 0.0075854 0.00396855 0.0135807 0.000892407 0.00262031 0.014977 0.000916098 0.00638669 0.00670426 0.000959682 0.00347765 0.0114149 0.00508477 0.00145657 0.0103353 0.000944839 0.00417452 0.015254 0.00484684 0.00588877 0.0147066 0.00257328 0.00323351 0.00751739 0.00540983 0.00237807 0.00976905 0.00339288 0.0038128 0.00945952 0.00461609 0.00260923 0.0111784 0.00222973 0.00441928 0.00608606 0.00234575 0.0062542 0.0123542 0.0064365 0.00483284 0.0120362 0.00156416 0.0016153 0.00807563 0.000830446 0.00551207 0.00820059 0.00790648 0.00243615 0.0126361 0.00354801 0.00274349 0.0118322 0.00960017 0.00514563 0.0141863 0.0114768 0.00327331 0.00977703 0.0129013 0.00247294 0.0116802 0.0144672 0.000895667 0.0143074 0.0121816 0.00561151 0.0125904 0.00816894 0.00111091 0.0111171 0.00906271 0.00548946 0.0119861 0.0107566 0.00384559 0.000568991 0.0127041 0.00514602 0.0061911 0.0138844 0.0054494 0.0110859 0.0124353 0.00219134 0.00822193 0.0120913 0.00367205 0.0139743 0.0144539 0.00556864 0.0138778 0.00956007 0.00565231 0.0107524 0.00757463 0.00228446 0.000390167 0.0116318 0.00466319 0.00835851 0.0098249 0.00364968 0.00609395 0.0109984 0.00488553 0.000928784 0.0112255 0.00659043 0.0126699 0.012827 0.00286391 0.00756216 0.0100168 0.00734726 0.0109571 0.0124358 0.00371072 0.012813 0.00825338 0.00463099 0.000764512 0.00939229 0.00434558 0.0146718 0.00826079 0.00348534 0.00644053 0.0129185 0.001543 0.00169206 0.00844973 0.00383857 0.0124039 0.0116383 0.00453515 0.0102526 0.0107538 0.00125487 0.00930691 0.0131188 0.00687684 0.0120782 0.00949811 0.00398549 0.0116106 0.013439 0.0018653 0.00661493 0.0113342 0.00244177 0.0142657 0.00829864 0.00330563 0.014246 0.0116456 0.00516824 0.00919381 0.0124956 0.00272771 0.00973349 0.0094295 0.00224975 0.00984401 0.0145437 0.0047209 0.00276063 0.00992216 0.00226809 0.0126573 0.012806 0.00545427 0.00624021 0.00861104 0.00280749 0.000380307 0.00950131 0.0036072 0.0138469 0.00983508 0.006386 0.00995776 0.0111527 0.00185329 0.0134416 0.014493 0.00482232 0.0132905 0.0131115 0.00364877 0.00777059 0.00824814 0.00561309 0.0121207 0.0144337 0.00244963 0.0147904 0.0132769 0.00208788 0.0130251 0.0109315 0.00143792 0.00827659 0.00903511 0.00250377 0.00790481 0.0142206 0.00387311 0.000554317 0.0145237 0.00594262 0.0101888 0.00934363 0.00271519 0.0108187 0.011325 0.00542424 0.0146565 0.0144121 0.00152566 0.00710478 0.00749418 0.00530093 0.00802233 0.0144111 0.00450492 0.011367 0.00920312 0.00598883 0.0142874 0.00739128 0.00374384 0.00866361 0.0113834 0.000616326 0.00399673 0.00635507 0.014642 0.00267487 0.00135665 0.014153 0.00681157 0.00461387 0.00742918 0.00414606 0.00250186 0.0116425 0.00352485 0.00467782 0.0115956 0.00410723 0.000941405 0.0125469 0.00243534 0.000937787 0.0147669 0.00368308 0.00301526 0.013256 0.00476577 0.00535655 0.00231819 0.00375046 0.00540204 0.0135259 0.00309897 0.00445234 0.0101447 0.00626016 0.00431082 0.00159263 0.00397684 0.00245966 0.0111896 0.00239542 0.00306397 0.0118598 0.00599608 0.00505566 0.00986114 0.00124449 0.00591023 0.00975062 0.0028557 0.00438878 0.01485 0.000141972 0.00573865 0.00540987 0.00438292 0.00210051 0.000666639 0.00565416 0.00299115 0.00831154 0.00266515 0.00155708 0.000652224 0.00355145 0.00450193 0.0120396 0.00160581 0.00463893 0.00768304 0.00513206 0.0008927 0.013916 0.00191452 0.0030243 0.011942 0.00257805 0.00630703 0.014065 0.00549547 0.00303463 0.0103998 0.00474591 0.0054587 0.0102022 0.00276631 0.000983391 0.0113428 0.000156712 0.00572291 0.0105171 0.00418446 0.00323314 0.0150858 0.0019423 0.00453804 0.0152214 0.00193525 0.00647175 0.00927088 0.00106333 0.000987595 0.00814283 0.00332684 0.00618653 0.0102956 0.00659398 0.00249306 0.0104218 0.00562223 0.000880248 0.0127819 0.00343304 0.0025316 0.0123781 0.00086897 0.00288935 0.00741908 0.00375601 0.00439731 0.0080184 0.00197629 0.00420482 0.0136595 0.000957123 0.00132237 0.00850193 0.00671286 0.00331727 0.00921254 0.0046225 0.00193656 0.00592328 0.00329795 0.00617406 0.00890834 0.00486732 0.0040678 0.0101005 0.00303272 0.0062614 0.00922973 0.00617795 0.00595745 0.0122887 0.0049298 0.00356385 0.0135454 0.00417609 0.000911959 0.015298 0.00472588 0.00145825 0.00735845 0.00640055 0.00556112 0.00171505 0.00228648 0.00349782 0.0104481 0.000546897 0.00276551 0.0133803 0.00134466 0.00629287 0.0150454 0.00514322 0.00463921 0.00706957 0.00549461 0.00381479 0.00892694 0.00285422 0.0102595 0.0153069 0.0018157 0.014406 0.0119138 0.00443533 0.00667265 0.0135163 0.00118581 0.0118229 0.0119666 0.00459867 0.0103937 0.00859595 0.00494187 0.00947844 0.0145425 0.0045199 0.00752635 0.0102644 0.00445689 0.0112253 0.00596853 0.00587271 0.00680406 0.00754539 0.00157682 0.0138615 0.013359 0.00375319 0.00924678 0.0101689 0.00396273 0.00940609 0.0020758 0.00369375 0.0116541 0.0103622 0.00583162 0.00961346 0.00137916 0.00527051 0.00761013 0.0101179 0.00171272 0.00916193 0.0140311 0.00172703 0.00953916 0.00163051 0.00123065 0.0132459 0.000523567 0.00277245 0.0128203 0.0136303 0.00278126 0.0145113 0.00777266 0.00570661 0.0134156 0.0118224 0.000913144 0.0127025 0.011925 0.00635487 0.00698626 0.00942254 0.00385748 0.00773685 0.0088342 0.00142201 0.00744304 0.0109361 0.000576794 0.0144039 0.014891 0.00584454 0.0119288 0.0115425 0.00597328 0.0144374 0.0137905 0.00322004 0.00635161 0.0130228 0.0023803 0.00794966 0.0091712 0.00323761 0.0121803 5.48773e-05 0.000821465 0.0120065 0.000821959 0.00470507 0.0093237 0.0101807 0.00560533 0.00749669 0.013354 0.00278135 0.0127024 0.0148588 0.00244252 0.0111882 0.000250513 0.00412795 0.0112412 0.0077918 0.00311853 0.00834715 0.0134602 0.00048378 0.00828805 0.00819969 0.00502586 0.00700857 0.00821753 0.0014506 0.0092194 0.00957438 0.0061284 0.0144454 0.0143842 0.00596018 0.00627858 0.00756938 0.00337546 0.0131489 0.0111477 0.00304345 0.00803134 0.0153675 0.00290284 0.00813872 0.0134248 0.00445678 0.011517 0.01301 0.00622487 0.0103682 0.000806314 0.0028681 0.00986283 0.0105445 0.00237956 0.0130966 0.0125912 0.00431798 0.0141866 0.0114696 0.00497232 0.0127713 0.0133343 0.0055653 0.00855316 0.0151011 0.00398761 0.0145662 0.0130644 0.00267668 0.0108079 0.00754495 0.00457587 0.0117344 0.00671874 0.00480399 0.00827677 0.0146333 0.00421624 0.0128649 0.00146955 0.00195753 0.0113603 0.00884136 0.00365499 0.0144754 0.0093784 0.00173494 0.0144522 0.0129685 0.000962183 0.0143384 0.0144777 0.00508248 0.0100249 0.00682491 0.00441587 0.014515 0.00148972 0.00470095 0.0144756 0.00950228 0.00496203 0.0129358 0.0106732 0.00420135 0.014392 0.00729556 0.00732275 0.0144063 0.0071229 0.00180934 0.00663761 0.0114896 0.00278583 0.00991674 0.0139797 0.00561908 0.0141586 0.0116254 0.00486107 0.00853649 0.00124925 0.00524275 0.0125171 0.0130962 0.00609655 0.0124864 0.0117368 0.00248918 0.0144861 0.0116804 0.00331426 0.0119383 0.0103137 0.00792974 0.0145152 0.0132729 0.000112687 0.00460416 0.0106922 0.007991 0.00484918 0.0103604 0.0103756 0.0038368 0.000581356 0.00645643 0.000934783 0.0110253 0.00746543 0.000914634 0.00666804 0.00736595 0.00403058 0.0078398 0.0106795 0.000784259 0.00942579 0.0092672 0.000909372 0.00872273 0.012378 0.00353635 0.0113609 0.00961836 0.000839591 0.00949173 0.000952957 0.00414294 0.0095692 0.00985213 0.00542353 0.014834 0.012815 0.000846235 0.0139221 0.00863387 0.00493677 0.00722783 0.0143659 0.00390681 0.0122199 0.0121278 0.000798117 0.0106086 0.0122913 0.00347158 0.00785634 0.0132441 0.00581836 0.0119612 0.0105134 0.00716012 0.0124554 0.0139978 0.000826265 0.0088783 0.00839685 0.00426246 0.0146309 0.0126337 0.00270099 0.0142575 0.0146048 0.000890746 0.0124734 0.00766453 0.00556783 0.000826753 0.00157863 0.000903938 0.0136613 0.00894955 0.00686641 0.013888 0.0131555 0.00549963 0.000533971 0.010151 0.00629491 0.00906343 0.0143338 0.00330307 0.00699579 0.0125286 0.00433931 0.000708514 0.01507 0.0011872 0.00955336 0.0148107 0.00515429 0.00821013 0.0108382 0.00457133 0.0099272 0.0128128 0.00531978 0.0109517 0.0086338 0.00273717 0.0114223 0.000540981 0.00103616 0.000206758 0.00800877 0.00608716 0.00867428 0.00718723 0.00117911 0.00882915 0.00815255 0.00649621 0.000245622 0.00939612 0.00394187 0.0124261 0.0059906 0.00169436 0.0152092 4.1469e-05 0.00353832 0.0099705 0.011232 0.00696161 0.00868276 0.0103394 0.00260597 0.0140053 0.0107202 0.0055212 0.0132777 0.0142924 0.0027546 0.0148344 0.00747267 0.00264417 0.000428368 0.0132731 0.00439748 0.0129536 0.0121543 0.00390938 0.00732996 0.012393 0.00191011 0.0118051 0.00978982 0.00519802 0.0130901 0.0082705 0.00117266 0.00769143 2.87285e-05 0.00574883 0.0116779 0.0109676 0.00235501 0.00149237 0.00091399 0.00518646 0.014748 0.0107669 0.00158044 0.0107256 0.0138129 0.00197968 0.00847946 0.0143992 0.00117373 0.00985726 0.0117956 0.00109942 0.0133502 0.00978192 0.00333575 0.00752037 0.000754775 0.00258906 0.00691007 0.00881079 0.00131709 0.0114124 0.0142856 0.00415337 0.000414601 0.0109652 0.0142292 2.69741e-05 0.0132678 0.0104445 0.00753677 0.0141543 0.0142122 0.00607424 0.00187391 0.00840978 0.00784831 0.0118059 0.0142923 0.0100177 0.0144228 0.00720706 0.00884276 4.55432e-05 0.0127172 0.0137234 0.0113471 0.00784564 0.0140303 0.0147639 0.012746 0.0130757 0.0106725 0.0118092 0.0146439 0.00905744 0.0126353 0.00676024 0.00822546 0.0097384 0.00753778 0.00676231 0.00798747 0.0108659 0.011259 0.0107344 0.013001 0.014645 0.00662837 0.0128084 0.0127629 0.0103367 0.000141591 0.00027069 0.00783099 0.0132766 0.00828608 0.0108946 0.00819572 0.0126046 0.00780329 0.0112654 0.00669916 0.0115973 0.00802975 0.0102599 0.00967924 0.00913674 0.0129533 0.012307 0.00864166 0.00939466 0.0142386 0.000664174 0.0115122 0.0119648 0.00719365 0.00847032 0.0125301 0.00618894 0.0100052 0.0142038 0.000497835 0.00663433 0.0142236 0.0132421 0.00994916 0.0142762 0.014891 0.00921022 0.00870052 0.0122769 0.012054 0.0135245 0.00537068 0.00720536 0.0115956 0.010175 0.00136039 0.0113075 0.0068 0.00585944 0.0101926 0.00771821 0.0102894 0.00720679 0.00715342 0.0135789 0.0110086 0.0113018 0.0141158 0.0118061 0.0123507 0.0142329 0.0142633 0.00100868 0.00951586 0.0107396 0.00952476 0.00789509 0.0126001 0.0116084 0.00904377 0.0127428 0.00768599 0.00181977 0.0116558 0.014227 0.0136583 0.00840087 0.0078481 0.0149638 0.0081765 0.0125271 0.00757593 0.00873234 0.00999275 0.0139587 0.0142547 0.0144214 0.0129272 0.0142102 0.0125518 0.0102078 0.00950759 3.52536e-05 0.00733108 0.0104712 0.00924117 0.00762647 0.00936513 0.00906052 0.010029 0.0117812 0.0138485 0.0150226 0.0103719 0.00898234 0.0124593 0.0100091 0.00935402 0.0148382 0.0100723 0.000487048 0.0150457 0.01423 0.0101187 0.0111473 0.013615 0.0146414 0.0110982 0.0100804 0.00135964 0.0142485 0.00642244 0.0148551 0.0069214 0.00813757 0.0110015 0.00870647 0.0104428 0.0111456 0.00842479 0.00703801 0.0117725 0.012726 0.00724992 0.0129773 0.00756246 0.0141152 0.000799686 0.000139169 0.0101034 0.0116504 0.000247567 0.00982538 0.00635496 0.000150096 0.0126338 0.000104595 0.0122813 0.00662167 0.00890359 0.00615051 0.0112315 0.0114166 0.000946551 0.00761475 0.0099601 0.00974874 0.00861431 0.00664752 0.000316691 0.0101581</DataArray>
</Points><Verts>
<DataArray type="Int64" Name="connectivity" format="ascii">0 1 2 3 4 5 6 7 8 9 10 11 12 13 14 15 16 17 18 19 20 21 22 23 24 25 26 27 28 29 30 31 32 33 34 35 36 37 38 39 40 41 42 43 44 45 46 47 48 49 50 51 52 53 54 55 56 57 58 59 60 61 62 63 64 65 66 67 68 69 70 71 72 73 74 75 76 77 78 79 80 81 82 83 84 85 86 87 88 89 90 91 92 93 94 95 96 97 98 99 100 101 102 103 104 105 106 107 108 109 110 111 112 113 114 115 116 117 118 119 120 121 122 123 124 125 126 127 128 129 130 131 132 133 134 135 136 137 138 139 140 141 142 143 144 145 146 147 148 149 150 151 152 153 154 155 156 157 158 159 160 161 162 163 164 165 166 167 168 169 170 171 172 173 174 175 176 177 178 179 180 181 182 183 184 185 186 187 188 189 190 191 192 193 194 195 196 197 198 199 200 201 202 203 204 205 206 207 208 209 210 211 212 213 214 215 216 217 218 219 220 221 222 223 224 225 226 227 228 229 230 231 232 233 234 235 236 237 238 239 240 241 242 243 244 245 246 247 248 249 250 251 252 253 254 255 256 257 258 259 260 261 262 263 264 265 266 267 268 269 270 271 272 273 274 275 276 277 278 279 280 281 282 283 284 285 286 287 288 289 290 291 292 293 294 295 296 297 298 299 300 301 302 303 304 305 306 307 308 309 310 311 312 313 314 315 316 317 318 319 320 321 322 323 324 325 326 327 328 329 330 331 332 333 334 335 336 337 338 339 340 341 342 343 344 345 346 347 348 349 350 351 352 353 354 355 356 357 358 359 360 361 362 363 364 365 366 367 368 369 370 371 372 373 374 375 376 377 378 379 380 381 382 383 384 385 386 387 388 389 390 391 392 393 394 395 396 397 398 399 400 401 402 403 404 405 406 407 408 409 410 411 412 413 414 415 416 417 418 419 420 421 422 423 424 425 426 427 428 429 430 431 432 433 434 435 436 437 438 439 440 441 442 443 444 445 446 447 448 449 450 451 452 453 454 455 456 457 458 459 460 461 462 463 464 465 466 467 468 469 470 471 472 473 474 475 476 477 478 479 480 481 482 483 484 485 486 487 488 489 490 491 492 493 494 495 496 497 498 499</DataArray>
<DataArray type="Int64" Name="offsets" format="ascii">1 2 3 4 5 6 7 8 9 10 11 12 13 14 15 16 17 18 19 20 21 22 23 24 25 26 27 28 29 30 31 32 33 34 35 36 37 38 39 40 41 42 43 44 45 46 47 48 49 50 51 52 53 54 55 56 57 58 59 60 61 62 63 64 65 66 67 68 69 70 71 72 73 74 75 76 77 78 79 80 81 82 83 84 85 86 87 88 89 90 91 92 93 94 95 96 97 98 99 100 101 102 103 104 105 106 107 108 109 110 111 112 113 114 115 116 117 118 119 120 121 122 123 124 125 126 127 128 129 130 131 132 133 134 135 136 137 138 139 140 141 142 143 144 145 146 147 148 149 150 151 152 153 154 155 156 157 158 159 160 161 162 163 164 165 166 167 168 169 170 171 172 173 174 175 176 177 178 179 180 181 182 183 184 185 186 187 188 189 190 191 192 193 194 195 196 197 198 199 200 201 202 203 204 205 206 207 208 209 210 211 212 213 214 215 216 217 218 219 220 221 222 223 224 225 226 227 228 229 230 231 232 233 234 235 236 237 238 239 240 241 242 243 244 245 246 247 248 249 250 251 252 253 254 255 256 257 258 259 260 261 262 263 264 265 266 267 268 269 270 271 272 273 274 275 276 277 278 279 280 281 282 283 284 285 286 287 288 289 290 291 292 293 294 295 296 297 298 299 300 301 302 303 304 305 306 307 308 309 310 311 312 313 314 315 316 317 318 319 320 321 322 323 324 325 326 327 328 329 330 331 332 333 334 335 336 337 338 339 340 341 342 343 344 345 346 347 348 349 350 351 352 353 354 355 356 357 358 359 360 361 362 363 364 365 366 367 368 369 370 371 372 373 374 375 376 377 378 379 380 381 382 383 384 385 386 387 388 389 390 391 392 393 394 395 396 397 398 399 400 401 402 403 404 405 406 407 408 409 410 411 412 413 414 415 416 417 418 419 420 421 422 423 424 425 426 427 428 429 430 431 432 433 434 435 436 437 438 439 440 441 442 443 444 445 446 447 448 449 450 451 452 453 454 455 456 457 458 459 460 461 462 463 464 465 466 467 468 469 470 471 472 473 474 475 476 477 478 479 480 481 482 483 484 485 486 487 488 489 490 491 492 493 494 495 496 497 498 499 500</DataArray>
</Verts></Piece></PolyData></VTKFile>