<?xml version="1.0"?>
<VTKFile type="PolyData" version="0.1" byte_order="LittleEndian">
<PolyData>
<Piece NumberOfPoints="500" NumberOfVerts="500" NumberOfLines="0" NumberOfStrips="0" NumberOfPolys="0">
<PointData>
<DataArray type="Int64" Name="atom_id" NumberOfComponents="1" format="ascii">1 2 3 4 5 6 7 8 9 10 11 12 13 14 15 16 17 18 19 20 21 22 23 24 25 26 27 28 29 30 31 32 33 34 35 36 37 38 39 40 41 42 43 44 45 46 47 48 49 50 51 52 53 54 55 56 57 58 59 60 61 62 63 64 65 66 67 68 69 70 71 72 73 74 75 76 77 78 79 80 81 82 83 84 85 86 87 88 89 90 91 92 93 94 95 96 97 98 99 100 101 102 103 104 105 106 107 108 109 110 111 112 113 114 115 116 117 118 119 120 121 122 123 124 125 126 127 128 129 130 131 132 133 134 135 136 137 138 139 140 141 142 143 144 145 146 147 148 149 150 151 152 153 154 155 156 157 158 159 160 161 162 163 164 165 166 167 168 169 170 171 172 173 174 175 176 177 178 179 180 181 182 183 184 185 186 187 188 189 190 191 192 193 194 195 196 197 198 199 200 201 202 203 204 205 206 207 208 209 210 211 212 213 214 215 216 217 218 219 220 221 222 223 224 225 226 227 228 229 230 231 232 233 234 235 236 237 238 239 240 241 242 243 244 245 246 247 248 249 250 251 252 253 254 255 256 257 258 259 260 261 262 263 264 265 266 267 268 269 270 271 272 273 274 275 276 277 278 279 280 281 282 283 284 285 286 287 288 289 290 291 292 293 294 295 296 297 298 299 300 301 302 303 304 305 306 307 308 309 310 311 312 313 314 315 316 317 318 319 320 321 322 323 324 325 326 327 328 329 330 331 332 333 334 335 336 337 338 339 340 341 342 343 344 345 346 347 348 349 350 351 352 353 354 355 356 357 358 359 360 361 362 363 364 365 366 367 368 369 370 371 372 373 374 375 376 377 378 379 380 381 382 383 384 385 386 387 388 389 390 391 392 393 394 395 396 397 398 399 400 401 402 403 404 405 406 407 408 409 410 411 412 413 414 415 416 417 418 419 420 421 422 423 424 425 426 427 428 429 430 431 432 433 434 435 436 437 438 439 440 441 442 443 444 445 446 447 448 449 450 451 452 453 454 455 456 457 458 459 460 461 462 463 464 465 466 467 468 469 470 471 472 473 474 475 476 477 478 479 480 481 482 483 484 485 486 487 488 489 490 491 492 493 494 495 496 497 498 499 500</DataArray>
<DataArray type="Int32" Name="atom_type" NumberOfComponents="1" format="ascii">1 1 1 1 1 1 1 1 1 1 1 1 1 1 1 1 1 1 1 1 1 1 1 1 1 1 1 1 1 1 1 1 1 1 1 1 1 1 1 1 1 1 1 1 1 1 1 1 1 1 1 1 1 1 1 1 1 1 1 1 1 1 1 1 1 1 1 1 1 1 1 1 1 1 1 1 1 1 1 1 1 1 1 1 1 1 1 1 1 1 1 1 1 1 1 1 1 1 1 1 2 2 2 2 2 2 2 2 2 2 2 2 2 2 2 2 2 2 2 2 2 2 2 2 2 2 2 2 2 2 2 2 2 2 2 2 2 2 2 2 2 2 2 2 2 2 2 2 2 2 2 2 2 2 2 2 2 2 2 2 2 2 2 2 2 2 2 2 2 2 2 2 2 2 2 2 2 2 2 2 2 2 2 2 2 2 2 2 2 2 2 2 2 2 2 2 2 2 2 2 2 2 2 2 2 2 2 2 2 2 2 2 2 2 2 2 2 2 2 2 2 2 2 2 2 2 2 2 2 2 2 2 2 2 2 2 2 2 2 2 2 2 2 2 2 2 2 2 2 2 2 2 2 2 2 2 2 2 2 2 2 2 2 2 2 2 2 2 2 2 2 2 2 2 2 2 2 2 2 2 2 2 2 2 2 2 2 2 2 2 2 2 2 2 2 2 2 2 2 2 2 2 2 2 2 2 2 2 2 2 2 2 2 2 2 2 2 2 2 2 2 2 2 2 2 2 2 2 2 2 2 2 2 2 2 2 2 2 2 2 2 2 2 2 2 2 2 2 2 2 2 2 2 2 2 2 2 2 2 2 2 2 2 2 2 2 2 2 2 2 2 2 2 2 2 2 2 2 2 2 2 2 2 2 2 2 2 2 2 2 2 2 2 2 2 2 2 2 2 2 3 3 3 3 3 3 3 3 3 3 3 3 3 3 3 3 3 3 3 3 3 3 3 3 3 3 3 3 3 3 3 3 3 3 3 3 3 3 3 3 3 3 3 3 3 3 3 3 3 3 3 3 3 3 3 3 3 3 3 3 3 3 3 3 3 3 3 3 3 3 3 3 3 3 3 3 3 3 3 3 3 3 3 3 3 3 3 3 3 3 3 3 3 3 3 3 3 3 3 3</DataArray>
<DataArray type="Float64" Name="radius_m" NumberOfComponents="1" format="ascii">0.00075 0.00075 0.00075 0.00075 0.00075 0.00075 0.00075 0.00075 0.00075 0.00075 0.00075 0.00075 0.00075 0.00075 0.00075 0.00075 0.00075 0.00075 0.00075 0.00075 0.00075 0.00075 0.00075 0.00075 0.00075 0.00075 0.00075 0.00075 0.00075 0.00075 0.00075 0.00075 0.00075 0.00075 0.00075 0.00075 0.00075 0.00075 0.00075 0.00075 0.00075 0.00075 0.00075 0.00075 0.00075 0.00075 0.00075 0.00075 0.00075 0.00075 0.00075 0.00075 0.00075 0.00075 0.00075 0.00075 0.00075 0.00075 0.00075 0.00075 0.00075 0.00075 0.00075 0.00075 0.00075 0.00075 0.00075 0.00075 0.00075 0.00075 0.00075 0.00075 0.00075 0.00075 0.00075 0.00075 0.00075 0.00075 0.00075 0.00075 0.00075 0.00075 0.00075 0.00075 0.00075 0.00075 0.00075 0.00075 0.00075 0.00075 0.00075 0.00075 0.00075 0.00075 0.00075 0.00075 0.00075 0.00075 0.00075 0.00075 0.001 0.001 0.001 0.001 0.001 0.001 0.001 0.001 0.001 0.001 0.001 0.001 0.001 0.001 0.001 0.001 0.001 0.001 0.001 0.001 0.001 0.001 0.001 0.001 0.001 0.001 0.001 0.001 0.001 0.001 0.001 0.001 0.001 0.001 0.001 0.001 0.001 0.001 0.001 0.001 0.001 0.001 0.001 0.001 0.001 0.001 0.001 0.001 0.001 0.001 0.001 0.001 0.001 0.001 0.001 0.001 0.001 0.001 0.001 0.001 0.001 0.001 0.001 0.001 0.001 0.001 0.001 0.001 0.001 0.001 0.001 0.001 0.001 0.001 0.001 0.001 0.001 0.001 0.001 0.001 0.001 0.001 0.001 0.001 0.001 0.001 0.001 0.001 0.001 0.001 0.001 0.001 0.001 0.001 0.001 0.001 0.001 0.001 0.001 0.001 0.001 0.001 0.001 0.001 0.001 0.001 0.001 0.001 0.001 0.001 0.001 0.001 0.001 0.001 0.001 0.001 0.001 0.001 0.001 0.001 0.001 0.001 0.001 0.001 0.001 0.001 0.001 0.001 0.001 0.001 0.001 0.001 0.001 0.001 0.001 0.001 0.001 0.001 0.001 0.001 0.001 0.001 0.001 0.001 0.001 0.001 0.001 0.001 0.001 0.001 0.001 0.001 0.001 0.001 0.001 0.001 0.001 0.001 0.001 0.001 0.001 0.001 0.001 0.001 0.001 0.001 0.001 0.001 0.001 0.001 0.001 0.001 0.001 0.001 0.001 0.001 0.001 0.001 0.001 0.001 0.001 0.001 0.001 0.001 0.001 0.001 0.001 0.001 0.001 0.001 0.001 0.001 0.001 0.001 0.001 0.001 0.001 0.001 0.001 0.001 0.001 0.001 0.001 0.001 0.001 0.001 0.001 0.001 0.001 0.001 0.001 0.001 0.001 0.001 0.001 0.001 0.001 0.001 0.001 0.001 0.001 0.001 0.001 0.001 0.001 0.001 0.001 0.001 0.001 0.001 0.001 0.001 0.001 0.001 0.001 0.001 0.001 0.001 0.001 0.001 0.001 0.001 0.001 0.001 0.001 0.001 0.001 0.001 0.001 0.001 0.001 0.001 0.001 0.001 0.001 0.001 0.001 0.001 0.001 0.001 0.001 0.001 0.001 0.001 0.001 0.001 0.001 0.001 0.001 0.001 0.001 0.001 0.001 0.001 0.001 0.001 0.001 0.001 0.001 0.001 0.001 0.001 0.001 0.001 0.001 0.001 0.001 0.001 0.001 0.001 0.001 0.001 0.001 0.001 0.001 0.001 0.001 0.001 0.001 0.001 0.00125 0.00125 0.00125 0.00125 0.00125 0.00125 0.00125 0.00125 0.00125 0.00125 0.00125 0.00125 0.00125 0.00125 0.00125 0.00125 0.00125 0.00125 0.00125 0.00125 0.00125 0.00125 0.00125 0.00125 0.00125 0.00125 0.00125 0.00125 0.00125 0.00125 0.00125 0.00125 0.00125 0.00125 0.00125 0.00125 0.00125 0.00125 0.00125 0.00125 0.00125 0.00125 0.00125 0.00125 0.00125 0.00125 0.00125 0.00125 0.00125 0.00125 0.00125 0.00125 0.00125 0.00125 0.00125 0.00125 0.00125 0.00125 0.00125 0.00125 0.00125 0.00125 0.00125 0.00125 0.00125 0.00125 0.00125 0.00125 0.00125 0.00125 0.00125 0.00125 0.00125 0.00125 0.00125 0.00125 0.00125 0.00125 0.00125 0.00125 0.00125 0.00125 0.00125 0.00125 0.00125 0.00125 0.00125 0.00125 0.00125 0.00125 0.00125 0.00125 0.00125 0.00125 0.00125 0.00125 0.00125 0.00125 0.00125 0.00125</DataArray>
<DataArray type="Int32" Name="high_conductivity" NumberOfComponents="1" format="ascii">0 0 0 0 0 0 0 0 0 0 0 0 0 0 0 0 0 0 0 0 1 1 1 0 0 1 0 0 0 0 0 1 0 0 0 0 0 0 0 0 0 0 0 0 0 0 0 1 0 0 0 0 0 0 0 0 0 0 0 0 0 0 0 0 0 0 0 0 0 0 0 1 0 0 0 0 0 0 0 1 1 0 1 0 0 0 0 0 0 0 0 0 0 0 0 0 0 0 0 0 0 0 0 0 0 0 0 1 1 0 0 0 0 0 0 0 1 0 0 0 0 0 0 0 0 0 0 0 0 0 1 1 0 0 0 0 0 0 1 0 0 0 0 0 0 0 0 0 0 1 0 0 0 1 0 0 0 0 0 1 1 0 0 0 1 0 0 0 0 0 0 0 0 0 0 0 0 0 0 0 0 1 0 0 0 0 0 0 0 0 0 0 1 0 0 0 0 0 0 0 0 0 0 1 0 0 0 0 0 0 0 1 0 0 0 0 0 0 0 0 0 0 0 0 0 0 0 0 0 0 0 0 0 0 0 0 1 0 0 1 0 1 0 0 0 0 0 0 0 0 0 0 0 1 0 0 0 0 0 0 0 0 0 0 0 0 0 0 0 0 0 0 1 0 0 1 1 0 0 0 0 0 0 0 0 0 0 0 0 0 0 0 0 0 0 0 0 0 0 0 0 0 0 0 0 0 0 0 0 0 0 0 0 0 0 0 0 0 0 0 0 0 0 0 1 0 0 0 0 1 0 0 0 0 0 1 0 1 0 0 0 0 0 0 0 0 0 0 0 0 0 0 0 0 0 0 0 0 0 0 0 0 0 0 0 0 0 1 0 0 0 0 0 0 0 0 0 0 0 0 0 0 1 1 0 0 0 0 0 1 0 0 0 0 0 0 0 0 0 0 0 0 0 0 1 0 1 0 0 0 0 0 0 1 0 0 0 0 0 0 0 0 0 0 1 1 0 0 0 1 0 0 1 0 0 0 0 0 1 0 0 0 0 0 1 0 0 0 0 0 0 0 0 0 0 0 0 0 0 0 0 0 0 0 0 0 0 0 0 0 1 0 0 0 0 0 0 0 0 0 0 0 0 0 0 0 0 0 0 0 0 0 0 0 0 0 0 0 0 0</DataArray>
<DataArray type="Float64" Name="conductivity_W_mK" NumberOfComponents="1" format="ascii">1.0 1.0 1.0 1.0 1.0 1.0 1.0 1.0 1.0 1.0 1.0 1.0 1.0 1.0 1.0 1.0 1.0 1.0 1.0 1.0 10.0 10.0 10.0 1.0 1.0 10.0 1.0 1.0 1.0 1.0 1.0 10.0 1.0 1.0 1.0 1.0 1.0 1.0 1.0 1.0 1.0 1.0 1.0 1.0 1.0 1.0 1.0 10.0 1.0 1.0 1.0 1.0 1.0 1.0 1.0 1.0 1.0 1.0 1.0 1.0 1.0 1.0 1.0 1.0 1.0 1.0 1.0 1.0 1.0 1.0 1.0 10.0 1.0 1.0 1.0 1.0 1.0 1.0 1.0 10.0 10.0 1.0 10.0 1.0 1.0 1.0 1.0 1.0 1.0 1.0 1.0 1.0 1.0 1.0 1.0 1.0 1.0 1.0 1.0 1.0 1.0 1.0 1.0 1.0 1.0 1.0 1.0 10.0 10.0 1.0 1.0 1.0 1.0 1.0 1.0 1.0 10.0 1.0 1.0 1.0 1.0 1.0 1.0 1.0 1.0 1.0 1.0 1.0 1.0 1.0 10.0 10.0 1.0 1.0 1.0 1.0 1.0 1.0 10.0 1.0 1.0 1.0 1.0 1.0 1.0 1.0 1.0 1.0 1.0 10.0 1.0 1.0 1.0 10.0 1.0 1.0 1.0 1.0 1.0 10.0 10.0 1.0 1.0 1.0 10.0 1.0 1.0 1.0 1.0 1.0 1.0 1.0 1.0 1.0 1.0 1.0 1.0 1.0 1.0 1.0 1.0 10.0 1.0 1.0 1.0 1.0 1.0 1.0 1.0 1.0 1.0 1.0 10.0 1.0 1.0 1.0 1.0 1.0 1.0 1.0 1.0 1.0 1.0 10.0 1.0 1.0 1.0 1.0 1.0 1.0 1.0 10.0 1.0 1.0 1.0 1.0 1.0 1.0 1.0 1.0 1.0 1.0 1.0 1.0 1.0 1.0 1.0 1.0 1.0 1.0 1.0 1.0 1.0 1.0 1.0 1.0 10.0 1.0 1.0 10.0 1.0 10.0 1.0 1.0 1.0 1.0 1.0 1.0 1.0 1.0 1.0 1.0 1.0 10.0 1.0 1.0 1.0 1.0 1.0 1.0 1.0 1.0 1.0 1.0 1.0 1.0 1.0 1.0 1.0 1.0 1.0 1.0 10.0 1.0 1.0 10.0 10.0 1.0 1.0 1.0 1.0 1.0 1.0 1.0 1.0 1.0 1.0 1.0 1.0 1.0 1.0 1.0 1.0 1.0 1.0 1.0 1.0 1.0 1.0 1.0 1.0 1.0 1.0 1.0 1.0 1.0 1.0 1.0 1.0 1.0 1.0 1.0 1.0 1.0 1.0 1.0 1.0 1.0 1.0 1.0 1.0 1.0 1.0 1.0 10.0 1.0 1.0 1.0 1.0 10.0 1.0 1.0 1.0 1.0 1.0 10.0 1.0 10.0 1.0 1.0 1.0 1.0 1.0 1.0 1.0 1.0 1.0 1.0 1.0 1.0 1.0 1.0 1.0 1.0 1.0 1.0 1.0 1.0 1.0 1.0 1.0 1.0 1.0 1.0 1.0 1.0 1.0 10.0 1.0 1.0 1.0 1.0 1.0 1.0 1.0 1.0 1.0 1.0 1.0 1.0 1.0 1.0 10.0 10.0 1.0 1.0 1.0 1.0 1.0 10.0 1.0 1.0 1.0 1.0 1.0 1.0 1.0 1.0 1.0 1.0 1.0 1.0 1.0 1.0 10.0 1.0 10.0 1.0 1.0 1.0 1.0 1.0 1.0 10.0 1.0 1.0 1.0 1.0 1.0 1.0 1.0 1.0 1.0 1.0 10.0 10.0 1.0 1.0 1.0 10.0 1.0 1.0 10.0 1.0 1.0 1.0 1.0 1.0 10.0 1.0 1.0 1.0 1.0 1.0 10.0 1.0 1.0 1.0 1.0 1.0 1.0 1.0 1.0 1.0 1.0 1.0 1.0 1.0 1.0 1.0 1.0 1.0 1.0 1.0 1.0 1.0 1.0 1.0 1.0 1.0 10.0 1.0 1.0 1.0 1.0 1.0 1.0 1.0 1.0 1.0 1.0 1.0 1.0 1.0 1.0 1.0 1.0 1.0 1.0 1.0 1.0 1.0 1.0 1.0 1.0 1.0 1.0 1.0 1.0 1.0</DataArray>
<DataArray type="Float64" Name="temperature_K" NumberOfComponents="1" format="ascii">300.9412756832292 300.38611110310734 300.6363389784026 300.96555278636913 300.6584383962654 300.39195264255073 300.42368172707603 300.0515816684579 300.22081330932866 300.54026177343485 300.3552410792448 300.0482306342754 300.5993148170896 300.6646179989022 300.54348217614046 300.602826250786 300.28557914998464 300.63143946349095 300.3847228102353 300.4862545032986 300.74773769094566 300.5133856042389 300.50214369422145 300.4494617723609 300.1767200956863 300.4531347157901 300.22514306767386 300.93726719184076 300.1496618140395 300.37267911452943 300.75550257679134 300.86586862602 300.55564769612175 300.41979741591285 300.17672009568616 300.05491698390676 300.06539762588955 300.83076638253414 300.79007795730604 300.8947220389623 300.1767200956863 300.3254969173606 300.7458791991011 nan 300.78518534488325 300.0462565335566 nan 300.27160958037325 300.4842206084791 300.1582835858072 300.94700980210445 300.4890398665331 300.70237202280725 300.9422038029206 300.42595395051654 300.9433613958856 300.77279037270614 300.18664699411613 300.8238561240945 300.96449572795103 300.54685204293435 300.16042361700335 300.9299543214419 300.45700905461933 300.72116151299053 300.8879615212941 300.5777088125429 300.83538541814204 300.27035678448215 300.458412697099 300.7335454873022 300.2970883008028 300.7385149074558 300.89215996020874 300.2943390292622 300.927199920493 300.5772365270259 300.94250638227277 300.1767200956862 300.86334082231394 300.3188289808071 300.2977851571107 300.510401540909 300.94127568322915 300.8473101703603 300.60723570697314 300.9504233551744 300.0517016282553 300.0475734245573 300.9264534799694 300.55195219370376 300.46575171652825 300.4342997061917 300.29047434516156 300.0520518926196 300.0969430797157 300.2630580127883 300.942953154961 300.5122691037547 300.152136259364 300.9127059606762 300.93657531522234 300.28468709588935 300.9612248930848 300.6921925219766 300.2414223654516 300.2823458866533 300.9866699925272 300.8951372277296 300.9388649339283 300.87795811624335 300.16339056252065 300.77459279865445 300.5845405220334 300.06803301134465 300.95620960954375 300.33166905485456 300.6374988399175 300.9599126641655 300.7217490805337 300.74436034155644 300.123550549793 300.3971006332806 300.0619901467935 300.6954204943077 300.1343500535982 300.447862783925 300.9355961463692 300.0442405762152 300.1915123759926 300.76785770298847 300.22874505376797 300.2254373312247 300.1843082591555 300.66057105024447 300.4736797010245 300.052018015625 300.16822531337476 300.23329940042646 300.1839053531926 300.2103765296947 300.9146509823496 300.14464264517255 300.33073782387044 300.92980695699214 300.3535348284914 300.63364063446056 300.88425558873814 300.2709362792381 300.1162331734203 300.428642288417 300.7009491279473 300.4640078898604 300.88192857963764 300.4790212101941 300.50639920406655 300.2453124060912 300.65559343902555 300.8030867850814 300.42077192578785 300.9847593134225 300.4126719964427 300.35905468692204 300.06717372138036 300.5840388601068 300.2880772465155 300.0653376275665 300.7135954118895 300.0662470952249 300.3623003401487 300.06122380607 300.38716873820283 300.2746033342753 nan 300.9615534448752 300.052018015625 300.1247739187228 300.05645555856074 300.0570969015793 300.6839245475737 300.6925479928801 300.786275834043 300.61641501014583 300.512339979874 300.5974254125096 300.17672009568565 300.9386771917592 300.5637932586729 300.40424470234666 300.1389610071152 300.26103574745355 300.3896012739322 300.4465759391296 300.5954394011366 300.43313932652586 300.1752434473222 300.50667113755253 300.77585010649415 300.9338692105184 300.947983562848 300.3053823765789 300.18771314582636 300.633539522655 300.46151365850125 300.8542766712551 300.80529214514553 300.5051282905013 300.3172696342239 300.40704227805924 300.5783394374733 300.68715972090337 300.17004221598984 300.35938462261726 300.7504045115663 300.92850200948715 300.3544390762791 300.5018023247345 300.4022517268487 300.28962237852045 300.29697044741044 300.47884533302795 300.1241057294375 300.93726706305824 300.3836614767381 300.5150582027176 300.6861359336645 300.4712153006039 300.8620049610502 300.419606765185 300.4952650424774 300.8144887314054 300.3165840468711 300.6512117427118 300.3599971307798 300.2631493013847 300.30667985962907 300.12132029069875 300.22730751759536 300.20465500449376 300.48656272005934 300.917381236366 300.57893442072543 300.86331448657796 300.91849435951497 300.0959785150828 300.0641763757555 300.48408637672344 300.2962442176133 300.7155961345206 300.595197904304 300.44940756707746 300.4306237282568 300.787586797273 300.13908199274135 300.26030364498166 300.93733784344096 300.6477219875696 300.7741305870026 300.0984325037798 300.35841882499403 300.91798389018237 300.737789100201 300.6425464983666 300.42644000769627 300.7831597060088 300.5852275542403 300.81573380368695 300.50120678849976 300.0601570683052 300.57622370094157 300.37155677787337 300.5605419940171 300.0358734234951 300.19892639922534 300.66727855267783 300.81725059985126 300.0182954708308 300.35453680128614 300.62804353029156 300.85599994328993 300.9295502856805 300.37919232855194 300.48495981644487 300.0732636142239 300.06988820773245 300.76388840885886 300.93324704505926 300.70473575235224 300.1201533306403 300.5306975885354 300.069571341287 300.5436726495901 300.152885554555 300.0598764757975 300.41074266613697 300.5320330808279 300.2472902231606 300.41998552095714 300.63420696764865 300.4790933375608 300.6751235407688 300.5982793449687 300.61069095303435 300.4249575627424 300.93358418400857 300.2619557942953 300.43302136907676 300.234031984421 300.4581014595319 300.06403103819605 300.4856598665689 300.6040222710797 300.72872795807916 300.31288129216466 300.26615131711765 300.5342535814916 300.86535378185846 300.30832437769936 300.16667684494683 300.07073389554614 300.8818921587598 300.75147662394835 300.18259714408623 300.4871204957101 300.1742058168053 300.85392706564306 300.49722566250273 300.32256441944895 300.7371412744419 300.52489279128656 300.3549277670416 300.5529165566936 300.9352489445397 300.0561829368019 300.8662245466476 300.6677584836356 300.09942608514314 300.48974651932934 300.349527809129 300.6078232915621 300.4279278758362 300.6239889632275 300.7103051140168 300.8919461479087 300.43059822960305 300.53555265327657 300.1906234987695 300.49123973910304 300.4482929089211 300.27914905267966 300.515372619656 300.868120625635 300.0791809477814 300.0656239053801 300.95784865147425 300.8823286976516 300.38908797144114 300.8112994404213 300.25495848883673 300.20312050384643 300.47819139297843 300.53736957761515 300.6847839960804 300.77629283403303 300.65858103152004 300.6781324794397 300.59750474881787 300.9788481267298 300.5543023268146 300.06760171868945 300.8218404716249 300.5645447017358 300.2028757661684 300.59934136282783 300.76273755010584 300.7898490664961 300.276709348486 300.7598950483922 300.23681690197 300.19896531151505 300.9413523361054 300.05767627297257 300.1113181066259 300.5101695462159 300.2670049935892 300.59659596778096 300.3456672895643 300.6906236940116 300.1072464420936 300.2740876166379 300.1505349166055 300.2322109528656 300.760580081068 300.6539854130202 300.18659751043765 300.39996083798997 300.169892341975 300.760089689164 300.9575012770242 300.22049272762064 300.9128377695426 300.22074609106073 300.5639345190367 300.48198350255 300.5183603662052 300.66373738435 300.7660677878646 300.68742349859093 300.787273688229 300.6936138025727 300.8164690362032 300.1004620584205 300.86908985879546 300.4003167309494 300.130636941224 300.14369856553037 300.28845510584887 300.9361677246145 300.3789394959006 300.08222941774187 300.7095260813164 300.23359686703805 300.78155243145386 300.48591419857695 300.3603110279819 300.1357012000438 300.41231976052154 300.6399138280934 300.1869461011289 300.3635493384459 300.6131318158033 300.31258445188087 300.5808989386252 300.49516031526457 300.4627848037544 300.56952548928575 300.6775301690909 300.70173236982816 300.98168051175077 300.50901925583383 300.2671329159498 300.36955442465097 300.33947295253614 300.38333634561803 300.4047494073162 300.30850329680044 300.0848490723017 300.31459201463963 300.87499408713484 300.0768211573807 300.1810358153169 300.51073785628915 300.0913042560629 300.05823409818635 300.16865233563055 300.3503934925472 300.56690481847875 300.2203934903071 300.7710689936631 300.81533824158373 300.58676294591 300.7786985794903 300.826474718431 300.31590508846824 300.8218538675309 300.39296152468165 300.6880986422982 300.8251746305909 300.5707845117239 300.2516977355631 300.27090805033055 300.8217952226109 300.7555025767914 300.0946053962424 300.6901265599423 300.85990449140525 300.61104501813224 300.8367549594941 300.11039795113396 300.8295804957422 300.06515964535356 300.37067375627214 300.4294128354261 300.51354301062594 300.6369463275911 300.2350482434998 300.4719644448751 300.81207270253026 300.56147077201786 300.66649978786097 300.5213438568098 300.95506268953454 300.8190840569945 300.60692932923905 300.9080081372781 300.41852041484805 300.8340349707983 300.50353601855335 300.66000681702457 300.6494618682639</DataArray>
<DataArray type="Int32" Name="contact_degree" NumberOfComponents="1" format="ascii">4 5 4 1 4 5 6 3 3 4 3 3 3 4 6 4 6 4 4 5 6 3 6 5 1 5 4 3 3 5 1 4 4 3 2 3 3 5 5 6 3 4 3 0 5 3 0 6 4 6 2 5 4 2 6 5 4 5 4 2 5 4 3 6 5 4 3 3 4 5 4 3 4 4 3 4 3 2 2 6 4 3 5 1 6 3 2 3 2 3 6 3 5 4 3 3 4 4 4 6 5 7 5 5 7 7 4 2 5 4 5 5 6 6 4 4 6 7 4 3 5 5 6 4 3 6 6 5 3 8 7 5 5 5 9 8 1 3 6 6 5 3 6 4 5 7 5 7 6 6 5 5 3 7 7 6 5 5 6 7 4 5 5 3 6 4 5 6 3 5 4 6 4 0 3 5 4 3 5 7 8 8 3 4 6 6 6 5 5 6 5 8 5 7 4 5 7 6 3 4 5 8 4 7 5 7 6 5 5 5 7 5 7 7 5 6 6 7 5 4 5 5 2 6 3 4 8 6 7 6 7 4 6 3 6 7 6 5 5 6 4 7 4 7 5 3 6 7 6 7 5 5 7 7 5 6 4 7 6 7 6 7 6 6 5 6 4 6 3 8 3 5 6 3 2 3 4 7 5 4 7 6 8 5 2 5 4 5 6 7 2 7 5 4 5 5 6 6 5 6 7 6 7 5 3 7 5 4 5 4 6 4 4 5 6 7 6 6 6 3 5 4 4 8 5 7 5 6 5 4 4 5 4 2 2 7 5 6 6 6 7 5 7 6 4 8 7 5 5 5 7 7 4 3 4 6 6 6 6 5 6 6 6 6 6 6 6 5 6 4 6 4 6 8 6 6 5 3 5 6 4 4 6 5 8 5 6 4 6 6 6 3 5 8 8 6 5 5 4 7 4 8 6 9 11 7 7 6 5 6 6 6 8 7 4 6 6 4 7 5 9 8 7 7 6 7 9 7 8 8 8 7 7 6 10 7 7 10 6 8 7 11 9 4 6 8 7 6 8 6 7 8 5 4 7 5 9 6 4 10 7 9 8 6 8 6 7 9 9 9 7 6 7 6 9 4 11 6 5 5 7 7 8 6 7 8 5 8 9 10 6 7 8 9 5 5 8 7 6 7</DataArray>
<DataArray type="Float64" Name="absolute_heat_throughput_W" NumberOfComponents="1" format="ascii">4.248307198484715e-05 3.970917635332403e-05 2.5671146812567588e-05 1.2283318025688365e-05 2.2496472041865932e-05 4.607510908151178e-05 7.566216951449404e-05 2.5305742967677648e-05 7.94560851023591e-06 3.766438836402874e-05 5.55149736577147e-06 3.019724334186126e-05 1.545343104930928e-05 4.435043484867029e-05 5.0423131137219405e-05 4.853753120687944e-05 5.2810413075822385e-05 4.0078264915947826e-05 7.271891260181098e-05 4.579054915970931e-05 6.9339434216295e-05 1.859464043434067e-05 9.207480465809317e-05 6.019408251878617e-05 0.0 2.891967091716032e-05 6.079811332353915e-05 4.205679504668503e-05 5.4234107965249286e-05 3.1523374077318305e-05 5.503840364735051e-21 8.951068465182742e-05 3.498582997646274e-05 1.858778274798633e-05 1.1665561500354813e-19 3.1036426548429396e-05 2.9124972327400606e-05 5.55842426778973e-05 2.7601791371297014e-05 7.060016680536766e-05 6.281224217038075e-20 3.865509662354828e-05 2.8687254893591915e-05 0.0 2.900080282917677e-05 2.5771010543084117e-05 0.0 8.924655274074518e-05 3.68717333072116e-05 3.971987496801615e-05 3.07301575086216e-05 2.2325935171068497e-05 4.341761795546704e-05 3.1747004402613256e-05 5.464855318365646e-05 3.4010338132821515e-05 3.7350204200010545e-05 6.566811999562145e-05 6.0959733340598937e-05 2.3897732840949876e-05 4.6978662810002436e-05 4.375995825064111e-05 5.622491178859323e-05 7.103595819383144e-05 8.619314589318766e-05 2.880806889392537e-05 6.524962930485013e-05 7.158461489302984e-06 3.834674919228633e-05 5.488900236128237e-05 7.825509872281686e-06 3.4633304679193196e-05 4.800431928558223e-05 2.9623283638814276e-05 1.8897561623625768e-05 1.5176395820662978e-05 2.0401137906061757e-05 1.400426986689607e-05 7.421429773167646e-20 7.317586059049092e-05 1.877835951689839e-05 1.2454297428751068e-05 5.877697621905547e-05 6.963903465771795e-20 6.831760936088753e-05 1.2061874406858388e-05 1.4960979619624198e-05 2.418931491322451e-05 1.6076470020302708e-05 3.8796520014057056e-05 3.9672254763548354e-05 5.3654239332524436e-06 5.820959500354501e-05 5.4735354158514544e-05 3.2364242723742544e-05 1.8237081768637927e-05 3.1735260083150566e-05 3.331853204745869e-05 3.560259966543418e-05 6.979182522530765e-05 4.4573236932770205e-05 4.258502596886754e-05 9.990920411595655e-05 2.652259673012901e-05 9.604322209014871e-05 0.00013038865791366078 5.199612651729538e-05 3.4018429790870115e-05 5.845603801329074e-05 4.161731174689676e-05 6.143413525576544e-05 4.710884567404674e-05 3.845918013847316e-05 5.017815561464829e-05 3.3430588177800014e-05 7.524541437890555e-05 0.00015017264917604754 8.007670575621777e-05 3.17118128651852e-05 4.2650777307419e-05 6.412654707471087e-05 5.3059443795001915e-05 0.00011838815220088874 1.7017102345696655e-05 4.285858242698926e-05 6.697653815676093e-05 6.008420781082339e-05 4.8238142750588e-05 9.008354521452469e-06 0.00010155318473797127 0.00012768437112283676 7.760691008108172e-05 4.28153755267982e-05 8.19927745596712e-05 0.00010233597360170673 8.88679739550524e-05 0.0 1.7841736083238233e-05 0.0001692533110666849 4.382765175080698e-05 6.104057424457371e-05 3.693907061525348e-05 4.66143316465447e-05 2.1437314245891094e-05 4.246421208567503e-05 8.475986033772927e-05 6.322088152598866e-05 8.512474744896242e-05 8.925411862066953e-05 6.929641168873312e-05 9.325030393462678e-05 3.8446583707362085e-05 2.2382983793181593e-05 0.00011350313468129453 8.14837699678994e-05 5.305978266924019e-05 2.8259845964384974e-05 5.8980269039889916e-05 0.00010551864085633859 0.00010224940939117886 7.337848517688852e-05 6.975648380012384e-05 6.369556596843024e-05 5.502391102900773e-05 0.00010790734344257525 5.544591098130522e-05 2.4988563041640098e-05 9.279748877181363e-05 2.3902765457411322e-05 6.653359345870879e-05 5.23586080705537e-05 8.281811713471503e-05 7.060957818852705e-05 0.0 2.1047223525079594e-05 4.2342358232825174e-05 3.773963908771632e-05 3.133892912675802e-05 7.360075697868137e-05 9.148260543349062e-05 5.635846710277103e-05 0.00013525982313522915 2.563632777533133e-05 6.987790983358458e-05 7.976940112553717e-05 4.6546110616186415e-05 3.183361012942007e-05 5.5479362969128836e-05 5.073748297124143e-05 0.00011497244204738659 9.849425317653046e-05 0.00012049225421690217 0.0001545418248911216 8.463419890870772e-05 8.206597541508297e-05 0.00013443581571904016 6.546678877123215e-05 9.609015634934193e-05 5.6941875052423556e-05 1.3472960128861343e-05 3.620489064403599e-05 7.994558355094141e-05 4.544062240075009e-05 0.0001230564351248145 7.607131238963919e-05 8.320191868297216e-05 7.852962808799724e-05 5.236815303536656e-05 3.276834975507777e-05 4.297057177828017e-05 6.92478654282165e-05 0.00019664988006833325 7.097548807357651e-05 8.076568475636752e-05 5.085030165326085e-05 6.847658679293148e-05 4.217555594709142e-05 7.172702174746781e-05 6.317758326983389e-05 4.4579398061520386e-05 2.481494425335993e-05 3.832939678605019e-05 3.5847907840691684e-05 9.385976465670092e-05 3.7764968754559495e-05 2.7381814333690352e-05 0.00011872920156560764 2.8786462964508322e-05 0.00010814282305101167 4.342797706307359e-05 6.664855620646264e-05 3.6635563738814647e-05 5.7949399408128055e-05 3.935678851877299e-05 5.626668127093041e-05 8.892492525535629e-05 0.00029540394866425313 4.1205780757813134e-05 5.753082093426999e-05 0.00011472764082264977 5.465067285798022e-05 0.00016102365707659427 6.260148042859994e-05 5.3313251055567864e-05 6.002734915174001e-05 6.23886113407169e-05 9.082825745598396e-05 0.00010907308177804807 8.861534771929912e-05 9.704535210260744e-05 0.00011638621330622772 0.00010146855282441997 6.70056708555097e-05 0.00014601003400609305 1.6742434450183263e-05 4.4337549228001673e-05 4.084137261060904e-05 5.8281668025844636e-05 8.188430543229673e-05 0.00010622021297746083 7.095206691368577e-05 6.999548383127279e-05 7.214212957764587e-05 5.826756562039541e-05 6.162585917781211e-05 9.859099677494068e-05 3.535843860363472e-05 5.251386880902519e-05 3.9697371700700434e-05 0.0001083046714126347 3.8575487798772935e-05 4.3353397318445874e-05 0.00021036082491330657 2.9525817850889774e-05 4.2469274950546676e-09 3.1336819532302555e-05 9.685580062548963e-05 8.76289023546365e-05 6.141089002250617e-05 0.00012751356011092693 6.234753304448181e-05 6.790127620010172e-05 9.851935589241619e-05 3.746083413740745e-05 1.7099334861979207e-05 8.621643545297204e-05 3.7267148287941314e-05 8.939076922964112e-05 5.6844261305381257e-05 6.160614709843497e-05 2.784824452934238e-05 7.667643570584125e-05 5.806366612111152e-05 3.384350704142849e-05 5.5086916512693525e-05 5.815598659145579e-05 0.0001042322299750937 7.131748291118063e-05 8.506701622551083e-05 5.53975186199122e-05 0.0001056413863587781 6.276350022069521e-05 0.00016039044228241512 6.935854945572045e-05 8.442880234612663e-06 8.511774755394718e-05 5.047185531990751e-05 6.832466364520299e-05 6.886800043641436e-05 5.932083195457089e-05 6.47065697969947e-05 5.88841153999772e-05 4.253222686786853e-05 6.431226664958418e-05 0.00013448052606009075 8.851591719640231e-05 5.14177669642783e-05 6.104583874722202e-05 7.495552995263004e-05 4.563635158287544e-05 0.00010298743831278195 5.086921552198693e-05 4.985540291469902e-05 7.335021938839254e-05 0.00013814750746233195 8.604348807066021e-05 4.122526593551789e-05 5.866268324204587e-05 5.858484784300814e-05 9.017786843943813e-05 4.2580313844652864e-05 8.973402588046925e-05 4.270432710212532e-05 1.932087968995053e-05 3.357585654731636e-05 0.00013306735284636967 6.772960659974078e-05 0.0001770080455169074 0.0001070420123631743 9.104229752049171e-05 7.709886632443229e-05 3.058136757069362e-05 0.00013019139085574893 4.528995907114069e-05 6.506858109186483e-05 9.890949511754042e-05 5.556170201510994e-05 2.680964511803845e-05 4.956489996199926e-05 5.0392537859970126e-05 7.421103863280445e-05 7.30950158289152e-05 4.137120289615246e-05 4.6956906589404353e-05 1.762591790320294e-05 8.741565501225247e-05 4.342940512310531e-05 3.416787220048397e-05 0.00010890058859415828 0.00011954753771718736 7.099573104253751e-05 9.348605978912415e-05 8.767273778106818e-05 9.974118918223245e-05 4.4652494796275355e-05 9.311962699381504e-05 6.0197756188739244e-05 7.923346045353825e-05 9.335600355578569e-05 5.2896476410725705e-05 4.71582202640831e-05 1.9644220308970963e-05 7.925100753053771e-05 9.400544302324348e-05 5.1246229473635586e-05 6.271806615408128e-05 7.492921694093081e-05 3.154699990919892e-05 9.648112250502129e-05 8.84410505328424e-05 5.220691320248253e-05 2.2048435765101886e-05 0.00015905136413878608 7.281892908846448e-05 0.00010187626749804968 8.077731423865353e-05 7.868536047907597e-05 5.568053683416978e-05 7.735194669134437e-05 9.158452509634588e-05 9.381123005386477e-05 1.85036545216677e-05 4.2817399067131046e-05 0.00010424949749088247 0.00013868248648951447 3.880257260834556e-05 4.036715887161471e-05 9.983340457860082e-05 4.125083410921238e-05 7.506762807966441e-05 8.396998003209235e-05 0.00011853882477054621 0.00015864981832935398 9.432264780350231e-05 0.00027887021132726 0.0001475823741055283 0.00011577854703506379 6.157939520714465e-05 3.8064935147986574e-05 0.0001376576675947432 0.00012472464766964791 5.971116890824755e-05 0.00013602248810775538 0.00013899934759330592 4.584651663185795e-05 6.196609357887622e-05 9.511451671351064e-05 5.059377402644412e-05 8.736699945540726e-05 8.940859094652537e-05 0.00017819116511419317 0.00014503913723789771 9.844025440249987e-05 9.666411626017516e-05 0.00021020595671297283 0.00021760044517973317 0.00012783915940858942 0.00013163190381871678 0.0001452114669177881 0.00028261828584235326 0.00012094115465994734 0.0001100021864495581 0.0002175489701568132 0.00011366452728887566 0.00023824382896173375 9.998932028815886e-05 0.0001127592513394558 0.00013108382209498764 0.00016155981510224091 9.997120141572062e-05 0.00011613383065606929 0.00011762109921556272 0.00011501023121914194 3.337582556538606e-05 0.0002715789284062219 0.00014949873040632746 9.57814754787306e-05 5.056179379284554e-05 0.00014971612813746444 2.54923476203138e-05 0.00013359681359087041 0.00011784551249627591 6.185597237663686e-05 4.2207767349264965e-05 7.83544126049762e-05 7.44492252426969e-05 0.00010770662479082615 0.0001068276619538935 2.5265458978150072e-05 0.00018122151954680086 7.7964310384625e-05 0.00016208265167498874 0.00012185692289114981 0.0001161227334354796 0.00012880944097006232 9.39892073632746e-05 9.398907160889625e-05 0.00019209615507977687 9.18593016033774e-05 0.0002052025780821626 0.0001826436814579315 0.0001402667590203752 0.00010714451290023906 9.068551749867514e-05 0.0001565115653040043 7.032126013245306e-05 0.00017866945928916788 0.0001444279239587553 9.953378814206695e-05 0.0001937268909336496 0.00010537857380281644 0.00015324356063563209 0.0001403571419612061 4.391641165629006e-05 7.927517519273867e-05 0.00017423929894704534 4.6282686298668356e-05 0.0001326634085699892 0.00017353837699740618 0.00015320769132296473 9.201804800117095e-05 5.2961552615469074e-05 9.058239590863355e-05 0.00012890846206471172 8.159747947160954e-05 3.256328023692634e-05 0.00011393897920853836 0.00012762420905771286 6.79915634388198e-05 0.00011378357885844274</DataArray>
<DataArray type="Int32" Name="hot_wall_link" NumberOfComponents="1" format="ascii">0 0 0 1 0 0 0 0 0 0 0 0 0 0 0 0 0 0 0 0 0 0 0 0 0 0 0 1 0 0 0 0 0 0 0 0 0 0 0 0 0 0 0 0 0 0 0 0 0 0 1 0 0 1 0 1 0 0 0 1 0 0 1 0 0 0 0 0 0 0 0 0 0 0 0 0 0 1 0 0 0 0 0 0 0 0 1 0 0 0 0 0 0 0 0 0 0 1 0 0 1 1 0 1 0 0 0 1 0 1 0 0 0 0 0 1 0 0 1 0 0 0 0 0 0 0 0 1 0 0 0 0 0 0 0 0 0 0 0 0 0 1 0 0 1 0 0 0 0 0 0 0 0 0 0 0 0 0 0 0 1 0 0 0 0 0 0 0 0 0 0 0 0 0 1 0 0 0 0 0 0 0 0 0 0 0 1 0 0 0 0 0 0 0 0 0 0 0 1 1 0 0 0 0 0 0 0 0 0 0 0 0 0 0 1 0 0 0 0 0 0 0 1 0 0 0 0 0 0 0 0 0 0 0 0 0 0 0 0 0 1 0 0 1 0 0 0 0 0 0 0 0 0 0 0 1 0 0 0 0 1 0 0 0 0 0 0 0 0 0 0 0 0 0 0 0 0 0 0 0 1 0 0 0 0 0 1 0 0 0 0 0 0 0 0 0 0 0 0 0 0 0 0 0 0 0 0 0 0 0 0 0 0 0 0 0 0 0 0 0 0 0 0 0 0 0 0 0 0 0 0 0 1 0 0 0 0 0 0 0 0 0 0 0 0 0 0 0 0 0 0 0 0 0 1 0 0 0 0 0 0 0 0 0 0 0 0 1 0 0 0 0 0 0 0 0 0 0 0 0 1 0 0 0 0 0 0 0 0 0 0 0 0 0 0 0 0 0 1 0 1 0 0 0 0 0 0 0 0 0 0 0 0 0 0 0 0 1 0 0 0 0 0 0 0 0 0 0 0 0 0 0 0 0 0 0 0 0 1 0 0 0 0 0 0 0 0 0 0 0 0 0 0 0 0 0 0 0 0 0 0 0 0 0 0 0 0 0 0 0 0 0 0 0 0 0 0 0 0 0 0 0 0 0 0 0 0 0 0 0 0 0 0 0 1 0 0 0 0 0</DataArray>
<DataArray type="Int32" Name="cold_wall_link" NumberOfComponents="1" format="ascii">0 0 0 0 0 0 0 1 0 0 0 1 0 0 0 0 0 0 0 0 0 0 0 0 0 0 0 0 0 0 0 0 0 0 0 1 1 0 0 0 0 0 0 0 0 1 0 0 0 0 0 0 0 0 0 0 0 0 0 0 0 0 0 0 0 0 0 0 0 0 0 0 0 0 0 0 0 0 0 0 0 0 0 0 0 0 0 1 1 0 0 0 0 0 1 0 0 0 0 0 0 0 0 0 0 0 0 0 0 0 0 0 0 0 1 0 0 0 0 0 0 0 0 1 0 0 0 0 1 0 0 0 0 0 0 0 0 0 0 0 0 0 0 0 0 0 0 0 0 0 0 0 0 0 0 0 0 0 0 0 0 0 0 1 0 0 1 0 1 0 1 0 0 0 0 1 0 1 1 0 0 0 0 0 0 0 0 0 0 0 0 0 0 0 0 0 0 0 0 0 0 0 0 0 0 0 0 0 0 0 0 0 0 0 0 0 0 0 0 0 0 0 0 0 0 0 0 0 0 0 0 0 0 0 0 0 0 0 0 0 0 0 0 0 0 1 0 0 0 0 0 0 0 0 0 0 0 0 0 0 0 0 0 0 0 0 0 0 1 0 0 0 1 0 0 0 1 0 0 0 0 0 0 1 1 0 0 0 0 0 1 0 0 1 0 0 0 0 0 0 0 0 0 0 0 0 0 0 0 1 0 0 0 0 0 0 0 0 0 1 0 0 0 0 0 0 0 0 0 0 0 0 0 1 0 0 1 0 0 0 0 0 0 0 0 0 0 0 0 0 0 0 1 1 0 0 0 0 0 0 0 0 0 0 0 0 0 0 0 1 0 0 0 0 0 0 0 0 0 0 0 1 0 0 0 0 0 0 0 0 0 0 0 0 0 0 0 0 0 0 0 0 0 0 0 0 0 0 0 0 0 0 0 0 0 0 0 0 0 1 0 0 0 0 0 0 0 0 0 0 0 0 0 0 0 0 0 0 0 0 0 0 0 0 0 0 1 0 0 1 0 0 0 1 0 0 0 0 0 0 0 0 0 0 0 0 0 0 0 0 0 0 0 1 0 0 0 0 1 0 1 0 0 0 0 0 0 0 0 0 0 0 0 0 0 0 0 0 0 0</DataArray>
<DataArray type="Int32" Name="on_minimum_resistance_path" NumberOfComponents="1" format="ascii">0 0 0 0 0 0 0 0 0 0 0 0 0 0 0 0 0 0 0 0 0 0 0 0 0 0 0 0 0 0 0 0 0 0 0 0 0 0 0 0 0 0 0 0 0 0 0 0 0 0 0 0 0 0 0 0 0 0 0 0 0 0 0 0 0 0 0 0 0 0 0 0 0 0 0 0 0 0 0 0 0 0 0 0 0 0 0 0 0 0 0 0 0 0 0 0 0 0 0 0 0 0 0 0 0 0 0 0 0 0 0 0 0 0 0 0 0 0 0 0 0 0 0 0 0 0 0 0 0 0 0 0 0 0 0 0 0 0 0 0 0 0 0 0 0 0 0 0 0 0 0 0 0 0 0 0 0 0 0 0 0 0 0 0 0 0 0 0 0 0 0 0 0 0 0 0 0 0 0 0 0 0 0 0 0 0 0 0 0 0 0 1 0 0 0 0 0 0 0 0 0 0 0 0 0 0 0 0 0 0 0 0 0 0 0 0 0 0 0 0 0 0 0 0 0 0 0 0 0 0 0 0 0 0 0 0 1 0 0 1 0 0 0 0 0 0 0 0 0 0 0 0 0 0 0 0 0 0 0 0 0 0 0 0 0 0 0 0 0 0 0 0 1 0 0 0 0 0 0 0 0 0 0 0 0 0 0 0 0 0 0 0 0 0 0 0 0 0 0 0 0 0 1 0 0 0 0 0 0 0 0 0 0 0 0 0 0 0 0 0 0 0 0 0 0 0 0 0 0 0 0 0 0 0 0 0 0 1 0 0 0 0 0 0 0 0 0 0 0 0 0 0 0 0 0 0 0 0 1 0 0 0 0 0 0 0 0 0 0 0 0 0 0 0 0 0 0 0 0 0 0 0 0 0 0 0 0 0 0 0 0 0 0 0 0 0 0 0 0 0 0 0 0 0 1 0 0 0 0 0 0 0 0 0 0 0 0 0 0 0 0 0 0 0 0 1 0 0 0 0 0 0 0 0 0 0 0 0 1 0 0 0 0 0 0 0 0 0 0 0 0 0 0 0 0 0 0 0 0 0 0 0 0 0 0 0 0 0 0 0 0 0 0 0 0 0 0 0 0 1 0 0 0 0 0 0 0 0 0 0 0 0 0 0 0 0 0 0 0 0</DataArray>
</PointData>
<Points>
<DataArray type="Float64" Name="Points" NumberOfComponents="3" format="ascii">0.0151327 0.00115563 0.0017419 0.0143213 0.013037 0.0102118 0.00944696 0.00479737 0.00514464 0.0109111 0.00425955 0.000707616 0.00670849 0.000866951 0.0051779 0.0148072 0.0143992 0.00983163 0.0010147 0.000831218 0.00941065 0.00451682 0.000645025 0.0146578 0.0147206 0.0139046 0.0127193 0.00355315 0.0144407 0.00649175 0.00900278 0.0131608 0.00991587 0.00433361 0.00239023 0.0146814 0.0106765 0.0141214 0.00590043 0.00881584 0.0110499 0.00511223 0.00440735 0.00171469 0.00676586 0.00732712 0.00481976 0.00574086 0.0129534 0.00863682 0.0112829 0.014561 0.00517853 0.00553652 0.00489308 0.00282388 0.00927113 0.00520413 0.0128654 0.00795112 0.0131483 0.0128473 0.00355844 0.0101335 0.00352324 0.00755119 0.00344209 0.0149641 0.00780268 0.0065052 0.0126342 0.00859981 0.0151499 0.0117645 0.0146206 0.00331565 0.0101723 0.00853776 0.00614201 0.00943366 0.0120799 0.00809682 0.0118118 0.00060256 0.00901365 0.00584643 0.0138838 0.00360533 0.00803064 0.00957249 0.00154186 0.012482 0.00257877 0.00803572 0.00260863 0.00192811 0.0117285 0.0120384 0.00640567 0.00589282 0.0104346 0.00926257 0.0014993 0.0125015 0.0126506 0.00455226 0.00648969 0.0147271 0.00519157 0.00363314 0.0146867 0.00935738 0.00719085 0.0025238 0.00904302 0.0137127 0.00310217 0.0135203 0.00288739 0.00207765 0.000439146 0.0110944 0.0134521 0.00988317 0.0135683 0.0110293 0.0141238 0.00807977 0.00377993 0.00200279 0.00132408 0.0126816 0.0102279 0.0128672 0.00336011 0.00295233 0.0096089 0.0147241 0.00518597 0.00873135 0.000823127 0.00133145 0.00697416 0.0113659 0.00446207 0.000609924 0.00765116 0.00831433 0.000220829 0.0128202 0.00464623 0.00358161 0.000637897 0.00751657 0.0133117 0.00783416 0.00837038 0.00561283 0.0045936 0.0131996 0.00924544 0.000649426 0.000778654 0.00867041 0.00876685 0.0111335 0.00654266 0.000629808 0.0117349 0.0129254 0.00322802 0.00100069 0.00971544 0.0128179 0.00213613 0.00532787 0.00279534 0.0120355 0.013347 0.00068661 0.0110029 0.00961298 0.00729321 0.0060172 0.0129855 0.0130881 0.00992413 0.0133021 0.00053523 0.00293915 0.00172612 0.00892091 0.0141194 0.00470703 0.00433182 0.00121268 0.0113235 0.00138436 0.00688462 0.00627852 0.00651933 0.014513 0.00303612 0.00319182 0.00707004 0.0133918 0.0112428 0.0100237 0.00090997 0.00807165 0.00294313 0.00540802 0.00424802 0.00202257 0.0139033 0.0111178 0.00319117 0.000773919 0.00404224 0.00411156 0.0111401 0.00131896 0.00365903 0.00848651 0.0109622 0.0139297 0.00441449 0.000810209 0.0132174 0.0116445 0.00633496 0.0152694 0.0114629 0.000730223 2.10957e-05 0.0124219 0.0128926 0.00812884 0.00672759 0.00191333 0.0139239 0.0132632 0.0116239 0.0143449 0.00874883 0.0113934 0.00970284 0.0148041 0.0072549 0.0141921 0.0016198 0.00281419 0.0124835 0.0087772 0.00175103 0.00855338 0.00550281 0.00613339 0.00574114 0.00670103 0.000719644 0.00946706 0.00689528 0.0146936 0.0108709 0.0145836 0.0146587 0.0119734 0.000960034 0.00193928 0.000840014 0.000597723 0.00628912 0.0127506 0.0149793 0.00864884 0.00327322 0.000392376 0.00893675 0.01105 0.00419438 0.0114617 0.000918659 0.00812926 0.0147495 0.000769681 0.0133036 0.0139116 0.00339048 0.0115744 0.0120943 0.00954842 0.00167467 0.000636293 0.00747248 0.00193563 0.00762142 0.00501008 0.00690803 0.0134989 0.00968778 0.0110666 0.000939472 0.012526 0.00349482 0.000923494 0.0110664 0.00219539 0.0112643 0.000355866 0.00506505 0.00096501 0.00815764 0.00155739 0.00468163 0.00379715 0.00221146 0.0103515 0.00562145 0.0141155 0.0106443 0.0047149 0.001044 0.000983718 0.0144644 0.0100909 0.00140118 0.00650561 0.0124136 0.000884147 0.00785746 0.0103366 0.00103145 0.0120908 0.00355286 0.0127108 0.0137511 0.0112117 0.00349255 0.00508388 0.0139401 0.00632774 0.00638442 0.00655959 0.014431 0.0032663 0.00252057 0.000871886 0.00706742 0.00700147 0.0108788 0.00470819 0.0124864 0.00514439 0.00538559 0.0145562 0.00093035 0.000887498 0.00319027 0.00397745 0.00456288 0.00532131 0.0036275 0.0112451 0.00258122 0.0141094 0.000890145 0.00223572 0.0102524 0.0145371 0.0134171 0.0143886 0.0138481 0.00660686 0.00474022 0.00623783 0.0100748 0.0135859 0.000544785 0.0137134 0.00885746 0.000154724 0.0073296 0.000870085 0.014849 0.00153167 0.014381 0.00435341 0.00823317 0.0126542 0.00985779 0.00815529 0.00388315 0.0100439 0.00330211 0.0124968 0.0065924 0.00527887 0.0125227 0.0138307 0.0113549 0.0128799 0.00964616 0.00644989 0.00520181 0.00827685 0.0147628 0.00814513 0.00983731 0.00711561 0.0129465 0.00450206 0.00480361 0.0119904 0.00846184 0.00490389 0.0126128 0.0134074 0.0094787 0.0127003 0.0120181 0.00811492 0.0125764 0.00772678 0.00808528 0.000953171 0.00608817 0.00820031 0.0133661 0.0012251 0.0115874 0.0109257 0.0109118 0.00251323 0.000948249 0.00088105 0.0150072 0.0105034 0.00358557 0.00806951 0.00525681 0.0109869 0.0080267 0.00127195 0.0124435 0.0146398 0.0116824 0.00854676 0.00257448 0.0136897 0.00672295 0.000346097 0.0087875 0.00717064 0.00382324 0.00437199 0.00606834 0.00901907 0.00820549 0.00893611 0.0127031 0.00164658 0.012581 0.00928693 0.00778731 0.00999947 0.0108406 0.00787277 0.00885009 0.00379943 0.0110525 0.00402451 0.00421498 0.0051619 0.00763007 0.0127637 0.00294432 0.0022856 0.0145082 0.00925216 0.00179259 0.00373121 0.000942048 0.0145569 0.01125 0.00958401 0.0104494 0.0041918 0.00970165 0.0125467 0.000691416 0.0145152 0.00509822 0.0110078 0.00640293 0.0109612 0.0108004 0.01098 0.00688329 0.00340692 0.0143901 0.0120602 0.0118554 0.00443186 0.000538242 0.0152463 0.0143884 1.52415e-05 0.00574302 0.00951558 0.00440958 0.0143626 0.0145282 0.0106653 0.000433149 0.0097738 0.010716 0.000232972 0.0115652 0.00604833 0.00253204 0.00140224 0.000257004 0.0148446 0.000978732 0.0106435 0.00802451 0.0145352 0.00441845 0.0127797 0.0136226 0.0013163 0.00973301 0.0144238 0.00779511 0.0100188 0.0145682 0.00700269 0.00639403 0.00492724 0.00832408 0.00779038 0.00508726 0.0113626 0.00895506 0.00296166 0.000595232 0.00442376 0.00558026 0.00577495 0.00516388 0.00766243 0.00199147 0.00806141 0.0063271 0.00211998 0.0109038 0.0130038 0.0141259 0.00608338 0.000968971 0.00250635 0.00565612 0.0063415 0.00888094 0.000740739 0.0093095 0.00999621 0.0109642 0.0126444 0.00864237 0.0106469 0.0113334 0.000969465 0.00402503 0.00960789 0.0127233 0.00079723 0.00738357 0.0146976 0.0107951 0.00618344 0.0138771 0.00294134 0.00892731 0.000773612 0.00264311 0.0131646 0.00194235 0.00933517 0.00774063 0.0028642 0.00860811 0.00289342 0.0142049 0.0134024 0.000882122 0.00271385 0.0120951 0.000983228 0.000449221 0.0133317 0.0111781 0.00512241 0.0142025 0.0125249 0.0090967 0.0152193 0.0051464 0.0143573 0.0127819 0.00851817 0.0136468 0.0117768 0.00161815 0.0140915 0.00668328 0.00283329 0.00140268 0.00676794 0.00759816 0.0148179 0.00401886 0.0106743 0.0128927 0.0122358 0.00968693 0.0106344 0.00516889 0.00633136 0.0132691 0.00322139 0.00440678 0.00537116 0.00290926 0.0111914 0.0135756 0.00512942 0.00967011 0.00886412 0.00308307 0.00375224 0.00952206 0.00691311 0.000898627 0.000394765 0.00965594 0.0100309 0.0007164 0.000291917 0.00791993 0.00524774 0.0125483 0.00962598 0.0138968 0.00243653 0.0114075 0.0129113 0.0106478 0.0110132 0.0118976 0.0110956 0.00824709 0.00982367 0.0150127 0.0133574 0.00591345 0.0104097 0.000918365 0.00490533 0.00069221 0.00926079 0.0123963 0.00678884 0.00680525 0.00365581 0.0111931 0.00410831 0.0111058 0.015098 0.00812776 0.00737449 0.00408512 0.00181528 0.0018468 0.00559321 0.0090898 0.00106997 0.00493477 0.00746085 0.00702218 0.00933933 0.00230049 0.0142658 0.0148428 0.0112978 0.00841092 0.00959626 0.0058444 0.0125201 0.000435398 0.0101814 0.00509977 0.0104938 0.0114683 0.0147244 0.0118431 0.011367 0.00512251 0.00157736 0.0126485 0.00251217 0.00823778 0.0121972 0.000977121 0.0145399 0.0126192 8.10685e-05 0.00346276 0.00800281 0.0111815 0.00982975 0.000890611 0.01394 0.0142913 0.00637056 0.00707059 0.0141062 0.00170009 0.0126739 0.00729969 0.000948025 0.00599052 0.0152894 0.0138492 0.00999666 0.00133732 0.0146069 0.00470948 0.0111967 0.008307 0.00534896 0.0085551 0.0110848 0.00892562 0.0125508 0.00432971 0.00356341 0.00181973 0.00533926 0.00651834 0.00687967 0.00795518 0.00695671 0.00474392 0.00905735 0.00801103 0.00791742 0.00315793 0.00538342 0.0034238 0.0130372 0.0048199 0.0124239 0.0116554 0.0123629 0.00535672 0.000884611 0.0123128 0.0136301 0.00500719 0.0132691 0.0093747 0.00311564 0.00924009 0.00904139 0.0140747 0.00240283 0.000843443 0.0102687 0.00719036 0.00578893 0.00085116 0.00873277 0.00988291 0.00393572 0.0105733 0.0125735 0.00526755 0.00210729 0.00779943 0.00900949 0.010898 0.0143746 0.00316433 0.000150276 0.00624099 0.00629367 0.0102484 0.00405377 0.00280051 0.0127241 0.0126985 0.00758516 0.0131443 0.012018 0.0144795 0.00921945 0.0119421 0.00641884 0.00757315 0.0141395 0.00982918 0.00857401 0.0138082 0.00644255 0.00581911 0.00172426 0.0144566 0.00878013 0.0126694 0.0120224 0.0151819 0.00983466 0.00397306 0.0121463 0.00672581 0.0027741 0.00930259 0.0112453 0.0144407 0.00785891 0.00232456 0.00962299 0.0127724 0.00169191 0.00554587 0.0144691 0.0152824 0.00250948 0.00458878 0.0127323 0.000889927 0.00357887 0.0134538 0.0101713 0.0112303 0.00798569 0.00783697 0.0082099 0.000870013 0.0144201 0.0143522 0.0101641 0.0143856 0.00714818 0.00220529 0.00322679 0.00915807 0.00328766 0.000934924 0.00413295 0.0147811 0.00445143 0.00521796 0.00515041 0.0138533 0.0145644 0.000729407 0.00675731 0.0149452 0.00631236 0.0144022 0.000518752 0.00218991 0.00672875 0.00239349 0.0136902 0.0136603 0.00258171 0.00802324 0.0144181 0.0103888 0.0118671 0.00947094 0.00383011 0.00460069 0.00716519 0.00337851 0.0136074 0.012037 0.0111879 0.00951807 0.00905958 0.00756921 0.0122723 0.00560177 0.00247022 0.003927 0.0083815 0.00143209 0.00602887 0.00484575 0.00492007 0.000441801 0.00580023 0.00161236 0.00169672 0.00526334 0.00973482 0.00826854 0.00897179 0.000941687 0.0129901 0.00100755 0.00547909 0.00680481 0.011901 0.0126317 0.00700878 0.00871286 0.00781705 0.00683899 0.0126454 0.00872367 0.00391884 0.00886091 0.00140595 0.0016411 0.0145374 0.00386171 0.00270794 0.00802837 0.00501401 0.00925255 0.00568857 0.0124689 0.00812599 0.00436228 0.0119348 0.00572724 0.0104921 0.00697578 0.00371731 0.0106163 0.0066188 0.0145815 0.00723761 0.00562226 0.00477273 0.00132247 0.00596783 0.00536559 0.010693 0.00729414 0.00333063 0.0124551 0.00184032 0.0120793 0.0144747 0.00236701 0.0149398 0.00212329 0.00269748 0.00373721 0.00383797 0.0144285 0.00342394 0.0130015 0.014394 0.0147198 0.00818975 0.0136472 0.006821 0.0130219 0.0108772 0.0129161 0.00181871 0.013759 0.0108389 0.00784852 0.002086 0.00987322 0.0108939 0.0106617 0.0102324 0.00420182 0.00760515 0.0042274 0.00728987 0.00951329 0.0100961 0.00974049 0.0147426 0.012606 0.00667052 0.000772106 0.00917672 0.000891831 0.0128459 0.00868162 0.0144002 0.0127752 0.0139847 0.00230137 0.00206314 0.0089518 0.00458818 0.00863629 0.00430558 0.0144603 0.00139906 0.0022093 0.00850697 0.000519877 0.00761316 0.010058 0.0066216 0.0078737 0.00612172 0.00177003 0.0106641 0.00911158 0.000885436 0.00966532 0.00602013 0.0063218 0.0125101 0.00426012 0.00892088 0.00514356 0.00129141 0.00625872 0.00230596 0.00867378 0.0121634 0.0143626 0.00679055 0.00695371 0.0147786 0.0122093 8.43548e-05 0.00995715 0.00799865 0.00462761 0.014216 0.00872348 0.015169 0.0101144 0.011814 0.00603778 0.00111112 0.00717034 0.0141363 0.00826352 0.00175616 0.0079913 0.00761103 0.0143987 0.00452008 0.00844254 0.0144932 0.0131778 0.00166347 0.000956286 0.0107403 0.0055451 0.00180551 0.00453691 0.00942341 0.00954167 0.00962222 0.0113023 0.00289497 0.0026326 0.00369939 0.0105278 0.0120467 0.0108003 0.0126983 0.00874637 0.0122671 0.00818002 0.00641682 0.0122244 0.00702925 0.00552444 0.0108269 0.00453722 0.0103754 0.006324 0.00347663 0.00576113 0.00496984 0.00514114 0.00996983 0.00162457 0.00463433 0.0106884 0.0107356 0.00604621 0.0116912 0.0149773 0.00096492 0.00953084 0.00657841 0.0070626 0.00291999 0.00322739 0.0144818 0.00616535 0.00772151 0.00208443 0.00790977 0.0005545 0.00657309 0.00253931 0.00484977 0.0121283 0.00708603 0.00226918 0.00604545 0.00723472 0.0109701 0.00343743 0.00859229 0.00485768 0.00319335 0.00109812 0.00349856 0.0116007 0.00572299 0.00380241 0.00301698 0.0151635 0.00648948 0.0120217 0.00368541 0.00648051 0.0125803 0.0034757 0.0142895 0.000851078 0.0131829 0.00249219 0.0143918 0.00318155 0.0014035 0.0139873 0.00906508 0.00223346 0.00795407 0.000803853 0.00855083 0.0115832 0.00248374 0.0151863 0.00540234 0.0097276 0.00238535 0.00987972 0.0115477 0.00659241 0.00495397 0.00703731 0.00147038 0.0130426 0.00098502 0.0053282 0.0111163 0.003511 0.015171 0.0131598 0.00872676 0.0148175 0.0113207 0.00240649 0.00685607 0.00344709 0.0141476 0.0130014 0.00491582 0.0103426 0.00140231 0.0128859 0.00198955 0.0125949 0.00943874 0.0102956 0.00903363 0.0124232 0.00125962 0.014085 0.00337117 0.0136293 0.0151931 0.000883264 0.00349408 0.00984074 0.0121777 0.00286447 0.009734 0.0011025 0.00864119 0.00172406 0.011622 0.0142043 0.00878106 0.00656703 0.0106021 0.0130877 0.00764289 0.00255816 0.00114621 0.00710047 0.0138166 0.0150889 0.00444539 0.000265837 0.00514675 0.0032108 0.000596411 0.0117735 0.00480197 0.00487931 0.00937461 0.00280342 0.011736 0.00066532 0.00405254 0.00389386 0.013466 0.00280387 0.0125126 0.0140022 0.0137814 0.00959524 0.0147618 0.00155384 0.0114087 0.0138141 0.00980987 0.00423907 0.0107346 0.0139761 0.0107363 0.00464063 0.0140857 0.000154844 0.00109198 0.0119181 0.00204686 0.00637336 0.00117652 0.0137165 0.00929045 0.00956968 0.00709482 0.0119501 0.0142682 0.00522698 0.0073251 0.0040587 0.0068171 0.0116391 0.0119993 0.0149669 0.0129066 0.00285924 0.0119203 0.00429212 0.00786969 0.00527292 0.00713916 0.00961492 0.00332749 0.00282902 0.0123916 0.0106172 0.0061586 0.00884653 0.010236 0.00840283 0.00599713 0.00787271 0.0090787 0.0125727 0.012392 0.0035215 0.0102817 0.000478223 0.0143084 0.00535659 0.00300831 0.00642562 0.010603 0.00488582 0.00666235 0.00631211 0.0140576 0.00533103 0.00758861 0.00352808 0.00641109 0.00817625 0.00541196 0.00333014 0.00665278 0.0128722 0.0100815 0.00515816 0.00676824 0.0091283 0.00445074 0.00150798 0.00130126 0.00109445 0.00404456 0.00864856 0.00752236 0.00647566 0.00104766 0.0108102 0.00358582 0.0112819 0.0101736 0.0137968 0.00708503 0.0105313 0.00730094 0.00931706 0.010022 0.0114463 0.00207711 0.00861686 0.009053 0.0079031 0.0109555 0.00308504 0.00529079 0.0142464 0.0113986 0.00787863 0.0104791 0.00358764 0.0043882 0.00196482 0.0078991 0.0141693 0.0141394 0.00151112 0.00661975 0.013202 0.00185793 0.0139856 0.00720806 0.0103195 0.0129423 0.0135931 0.000778643 0.0044607 0.0142257 0.0150834 0.00832007 0.0133538 0.00429788 0.00460278 0.00953474 0.00358932 0.0124559 0.00693932 0.0124797 0.00120012 0.0124975 0.0055355 0.000255031 0.0029715 0.0118559 0.00265954 0.0028569 0.002976 0.010311 0.00605346 0.00794846 0.0153104 0.00326511 0.00940419 0.00919532 0.00201588 0.0120431 0.0125817 0.0117104 0.00966264 0.00154015 0.00253213 0.008276 0.00645263 0.00919447 0.00259572 0.0131113 0.00478786 0.00542242 0.0116958 0.00257056 0.00232622 0.00341988 0.00624313 0.0134051 0.00505072 0.0118767 0.00988032 0.00569896 0.0111818 0.000727052 0.00813109 0.00273617 0.0018216 0.0105733 0.00310661 0.0132164 0.00464896 0.0142442 0.00547061 0.00220868 0.00452783 0.00417548 0.00707696 0.00185079 0.012717 0.00497249 0.00564253 0.00390924 0.00208158 0.00278571 0.0119641 0.0066168 0.0141512 0.00132069 0.000897655 0.00340791 0.0110828 0.010023 0.0142771 0.00760919 0.0117553 0.00983223 0.0147465 0.00741987 0.00833856 0.00126161 0.0116434 0.00723613 0.0148598 0.00183155 0.00485025 0.0041845 0.000270788 0.0112352 0.00757262 0.0105256 0.00773959 0.00670747 0.00583542 0.00290594 0.0108315 0.00063707 0.00626549 0.000256757 0.00786836 0.00497188 0.0137817 0.00307043 0.00676854 0.0151889 0.00300748 0.00131104 0.0118046 0.0110655 0.00245696 0.00899819 0.00313438 0.00595921 0.00776734 0.000944439 0.00111534 0.0145161 0.00101532 0.00961945 0.0132851 0.00466757 0.0026714 0.00817881 0.00822097 0.00753351 0.0112204 0.00325932 0.00515858 0.00687735 0.0143408 0.00513623</DataArray>
</Points>
<Verts>
<DataArray type="Int64" Name="connectivity" NumberOfComponents="1" format="ascii">0 1 2 3 4 5 6 7 8 9 10 11 12 13 14 15 16 17 18 19 20 21 22 23 24 25 26 27 28 29 30 31 32 33 34 35 36 37 38 39 40 41 42 43 44 45 46 47 48 49 50 51 52 53 54 55 56 57 58 59 60 61 62 63 64 65 66 67 68 69 70 71 72 73 74 75 76 77 78 79 80 81 82 83 84 85 86 87 88 89 90 91 92 93 94 95 96 97 98 99 100 101 102 103 104 105 106 107 108 109 110 111 112 113 114 115 116 117 118 119 120 121 122 123 124 125 126 127 128 129 130 131 132 133 134 135 136 137 138 139 140 141 142 143 144 145 146 147 148 149 150 151 152 153 154 155 156 157 158 159 160 161 162 163 164 165 166 167 168 169 170 171 172 173 174 175 176 177 178 179 180 181 182 183 184 185 186 187 188 189 190 191 192 193 194 195 196 197 198 199 200 201 202 203 204 205 206 207 208 209 210 211 212 213 214 215 216 217 218 219 220 221 222 223 224 225 226 227 228 229 230 231 232 233 234 235 236 237 238 239 240 241 242 243 244 245 246 247 248 249 250 251 252 253 254 255 256 257 258 259 260 261 262 263 264 265 266 267 268 269 270 271 272 273 274 275 276 277 278 279 280 281 282 283 284 285 286 287 288 289 290 291 292 293 294 295 296 297 298 299 300 301 302 303 304 305 306 307 308 309 310 311 312 313 314 315 316 317 318 319 320 321 322 323 324 325 326 327 328 329 330 331 332 333 334 335 336 337 338 339 340 341 342 343 344 345 346 347 348 349 350 351 352 353 354 355 356 357 358 359 360 361 362 363 364 365 366 367 368 369 370 371 372 373 374 375 376 377 378 379 380 381 382 383 384 385 386 387 388 389 390 391 392 393 394 395 396 397 398 399 400 401 402 403 404 405 406 407 408 409 410 411 412 413 414 415 416 417 418 419 420 421 422 423 424 425 426 427 428 429 430 431 432 433 434 435 436 437 438 439 440 441 442 443 444 445 446 447 448 449 450 451 452 453 454 455 456 457 458 459 460 461 462 463 464 465 466 467 468 469 470 471 472 473 474 475 476 477 478 479 480 481 482 483 484 485 486 487 488 489 490 491 492 493 494 495 496 497 498 499</DataArray>
<DataArray type="Int64" Name="offsets" NumberOfComponents="1" format="ascii">1 2 3 4 5 6 7 8 9 10 11 12 13 14 15 16 17 18 19 20 21 22 23 24 25 26 27 28 29 30 31 32 33 34 35 36 37 38 39 40 41 42 43 44 45 46 47 48 49 50 51 52 53 54 55 56 57 58 59 60 61 62 63 64 65 66 67 68 69 70 71 72 73 74 75 76 77 78 79 80 81 82 83 84 85 86 87 88 89 90 91 92 93 94 95 96 97 98 99 100 101 102 103 104 105 106 107 108 109 110 111 112 113 114 115 116 117 118 119 120 121 122 123 124 125 126 127 128 129 130 131 132 133 134 135 136 137 138 139 140 141 142 143 144 145 146 147 148 149 150 151 152 153 154 155 156 157 158 159 160 161 162 163 164 165 166 167 168 169 170 171 172 173 174 175 176 177 178 179 180 181 182 183 184 185 186 187 188 189 190 191 192 193 194 195 196 197 198 199 200 201 202 203 204 205 206 207 208 209 210 211 212 213 214 215 216 217 218 219 220 221 222 223 224 225 226 227 228 229 230 231 232 233 234 235 236 237 238 239 240 241 242 243 244 245 246 247 248 249 250 251 252 253 254 255 256 257 258 259 260 261 262 263 264 265 266 267 268 269 270 271 272 273 274 275 276 277 278 279 280 281 282 283 284 285 286 287 288 289 290 291 292 293 294 295 296 297 298 299 300 301 302 303 304 305 306 307 308 309 310 311 312 313 314 315 316 317 318 319 320 321 322 323 324 325 326 327 328 329 330 331 332 333 334 335 336 337 338 339 340 341 342 343 344 345 346 347 348 349 350 351 352 353 354 355 356 357 358 359 360 361 362 363 364 365 366 367 368 369 370 371 372 373 374 375 376 377 378 379 380 381 382 383 384 385 386 387 388 389 390 391 392 393 394 395 396 397 398 399 400 401 402 403 404 405 406 407 408 409 410 411 412 413 414 415 416 417 418 419 420 421 422 423 424 425 426 427 428 429 430 431 432 433 434 435 436 437 438 439 440 441 442 443 444 445 446 447 448 449 450 451 452 453 454 455 456 457 458 459 460 461 462 463 464 465 466 467 468 469 470 471 472 473 474 475 476 477 478 479 480 481 482 483 484 485 486 487 488 489 490 491 492 493 494 495 496 497 498 499 500</DataArray>
</Verts>
</Piece>
</PolyData>
</VTKFile>
