<?xml version="1.0"?>
<VTKFile type="PolyData" version="0.1" byte_order="LittleEndian">
<PolyData>
<Piece NumberOfPoints="500" NumberOfVerts="500" NumberOfLines="0" NumberOfStrips="0" NumberOfPolys="0">
<PointData>
<DataArray type="Int64" Name="atom_id" NumberOfComponents="1" format="ascii">1 2 3 4 5 6 7 8 9 10 11 12 13 14 15 16 17 18 19 20 21 22 23 24 25 26 27 28 29 30 31 32 33 34 35 36 37 38 39 40 41 42 43 44 45 46 47 48 49 50 51 52 53 54 55 56 57 58 59 60 61 62 63 64 65 66 67 68 69 70 71 72 73 74 75 76 77 78 79 80 81 82 83 84 85 86 87 88 89 90 91 92 93 94 95 96 97 98 99 100 101 102 103 104 105 106 107 108 109 110 111 112 113 114 115 116 117 118 119 120 121 122 123 124 125 126 127 128 129 130 131 132 133 134 135 136 137 138 139 140 141 142 143 144 145 146 147 148 149 150 151 152 153 154 155 156 157 158 159 160 161 162 163 164 165 166 167 168 169 170 171 172 173 174 175 176 177 178 179 180 181 182 183 184 185 186 187 188 189 190 191 192 193 194 195 196 197 198 199 200 201 202 203 204 205 206 207 208 209 210 211 212 213 214 215 216 217 218 219 220 221 222 223 224 225 226 227 228 229 230 231 232 233 234 235 236 237 238 239 240 241 242 243 244 245 246 247 248 249 250 251 252 253 254 255 256 257 258 259 260 261 262 263 264 265 266 267 268 269 270 271 272 273 274 275 276 277 278 279 280 281 282 283 284 285 286 287 288 289 290 291 292 293 294 295 296 297 298 299 300 301 302 303 304 305 306 307 308 309 310 311 312 313 314 315 316 317 318 319 320 321 322 323 324 325 326 327 328 329 330 331 332 333 334 335 336 337 338 339 340 341 342 343 344 345 346 347 348 349 350 351 352 353 354 355 356 357 358 359 360 361 362 363 364 365 366 367 368 369 370 371 372 373 374 375 376 377 378 379 380 381 382 383 384 385 386 387 388 389 390 391 392 393 394 395 396 397 398 399 400 401 402 403 404 405 406 407 408 409 410 411 412 413 414 415 416 417 418 419 420 421 422 423 424 425 426 427 428 429 430 431 432 433 434 435 436 437 438 439 440 441 442 443 444 445 446 447 448 449 450 451 452 453 454 455 456 457 458 459 460 461 462 463 464 465 466 467 468 469 470 471 472 473 474 475 476 477 478 479 480 481 482 483 484 485 486 487 488 489 490 491 492 493 494 495 496 497 498 499 500</DataArray>
<DataArray type="Int32" Name="atom_type" NumberOfComponents="1" format="ascii">1 1 1 1 1 1 1 1 1 1 1 1 1 1 1 1 1 1 1 1 1 1 1 1 1 1 1 1 1 1 1 1 1 1 1 1 1 1 1 1 1 1 1 1 1 1 1 1 1 1 1 1 1 1 1 1 1 1 1 1 1 1 1 1 1 1 1 1 1 1 1 1 1 1 1 1 1 1 1 1 1 1 1 1 1 1 1 1 1 1 1 1 1 1 1 1 1 1 1 1 2 2 2 2 2 2 2 2 2 2 2 2 2 2 2 2 2 2 2 2 2 2 2 2 2 2 2 2 2 2 2 2 2 2 2 2 2 2 2 2 2 2 2 2 2 2 2 2 2 2 2 2 2 2 2 2 2 2 2 2 2 2 2 2 2 2 2 2 2 2 2 2 2 2 2 2 2 2 2 2 2 2 2 2 2 2 2 2 2 2 2 2 2 2 2 2 2 2 2 2 2 2 2 2 2 2 2 2 2 2 2 2 2 2 2 2 2 2 2 2 2 2 2 2 2 2 2 2 2 2 2 2 2 2 2 2 2 2 2 2 2 2 2 2 2 2 2 2 2 2 2 2 2 2 2 2 2 2 2 2 2 2 2 2 2 2 2 2 2 2 2 2 2 2 2 2 2 2 2 2 2 2 2 2 2 2 2 2 2 2 2 2 2 2 2 2 2 2 2 2 2 2 2 2 2 2 2 2 2 2 2 2 2 2 2 2 2 2 2 2 2 2 2 2 2 2 2 2 2 2 2 2 2 2 2 2 2 2 2 2 2 2 2 2 2 2 2 2 2 2 2 2 2 2 2 2 2 2 2 2 2 2 2 2 2 2 2 2 2 2 2 2 2 2 2 2 2 2 2 2 2 2 2 2 2 2 2 2 2 2 2 2 2 2 2 2 2 2 2 2 3 3 3 3 3 3 3 3 3 3 3 3 3 3 3 3 3 3 3 3 3 3 3 3 3 3 3 3 3 3 3 3 3 3 3 3 3 3 3 3 3 3 3 3 3 3 3 3 3 3 3 3 3 3 3 3 3 3 3 3 3 3 3 3 3 3 3 3 3 3 3 3 3 3 3 3 3 3 3 3 3 3 3 3 3 3 3 3 3 3 3 3 3 3 3 3 3 3 3 3</DataArray>
<DataArray type="Float64" Name="radius_m" NumberOfComponents="1" format="ascii">0.00075 0.00075 0.00075 0.00075 0.00075 0.00075 0.00075 0.00075 0.00075 0.00075 0.00075 0.00075 0.00075 0.00075 0.00075 0.00075 0.00075 0.00075 0.00075 0.00075 0.00075 0.00075 0.00075 0.00075 0.00075 0.00075 0.00075 0.00075 0.00075 0.00075 0.00075 0.00075 0.00075 0.00075 0.00075 0.00075 0.00075 0.00075 0.00075 0.00075 0.00075 0.00075 0.00075 0.00075 0.00075 0.00075 0.00075 0.00075 0.00075 0.00075 0.00075 0.00075 0.00075 0.00075 0.00075 0.00075 0.00075 0.00075 0.00075 0.00075 0.00075 0.00075 0.00075 0.00075 0.00075 0.00075 0.00075 0.00075 0.00075 0.00075 0.00075 0.00075 0.00075 0.00075 0.00075 0.00075 0.00075 0.00075 0.00075 0.00075 0.00075 0.00075 0.00075 0.00075 0.00075 0.00075 0.00075 0.00075 0.00075 0.00075 0.00075 0.00075 0.00075 0.00075 0.00075 0.00075 0.00075 0.00075 0.00075 0.00075 0.001 0.001 0.001 0.001 0.001 0.001 0.001 0.001 0.001 0.001 0.001 0.001 0.001 0.001 0.001 0.001 0.001 0.001 0.001 0.001 0.001 0.001 0.001 0.001 0.001 0.001 0.001 0.001 0.001 0.001 0.001 0.001 0.001 0.001 0.001 0.001 0.001 0.001 0.001 0.001 0.001 0.001 0.001 0.001 0.001 0.001 0.001 0.001 0.001 0.001 0.001 0.001 0.001 0.001 0.001 0.001 0.001 0.001 0.001 0.001 0.001 0.001 0.001 0.001 0.001 0.001 0.001 0.001 0.001 0.001 0.001 0.001 0.001 0.001 0.001 0.001 0.001 0.001 0.001 0.001 0.001 0.001 0.001 0.001 0.001 0.001 0.001 0.001 0.001 0.001 0.001 0.001 0.001 0.001 0.001 0.001 0.001 0.001 0.001 0.001 0.001 0.001 0.001 0.001 0.001 0.001 0.001 0.001 0.001 0.001 0.001 0.001 0.001 0.001 0.001 0.001 0.001 0.001 0.001 0.001 0.001 0.001 0.001 0.001 0.001 0.001 0.001 0.001 0.001 0.001 0.001 0.001 0.001 0.001 0.001 0.001 0.001 0.001 0.001 0.001 0.001 0.001 0.001 0.001 0.001 0.001 0.001 0.001 0.001 0.001 0.001 0.001 0.001 0.001 0.001 0.001 0.001 0.001 0.001 0.001 0.001 0.001 0.001 0.001 0.001 0.001 0.001 0.001 0.001 0.001 0.001 0.001 0.001 0.001 0.001 0.001 0.001 0.001 0.001 0.001 0.001 0.001 0.001 0.001 0.001 0.001 0.001 0.001 0.001 0.001 0.001 0.001 0.001 0.001 0.001 0.001 0.001 0.001 0.001 0.001 0.001 0.001 0.001 0.001 0.001 0.001 0.001 0.001 0.001 0.001 0.001 0.001 0.001 0.001 0.001 0.001 0.001 0.001 0.001 0.001 0.001 0.001 0.001 0.001 0.001 0.001 0.001 0.001 0.001 0.001 0.001 0.001 0.001 0.001 0.001 0.001 0.001 0.001 0.001 0.001 0.001 0.001 0.001 0.001 0.001 0.001 0.001 0.001 0.001 0.001 0.001 0.001 0.001 0.001 0.001 0.001 0.001 0.001 0.001 0.001 0.001 0.001 0.001 0.001 0.001 0.001 0.001 0.001 0.001 0.001 0.001 0.001 0.001 0.001 0.001 0.001 0.001 0.001 0.001 0.001 0.001 0.001 0.001 0.001 0.001 0.001 0.001 0.001 0.001 0.001 0.001 0.001 0.001 0.001 0.001 0.001 0.001 0.001 0.001 0.001 0.00125 0.00125 0.00125 0.00125 0.00125 0.00125 0.00125 0.00125 0.00125 0.00125 0.00125 0.00125 0.00125 0.00125 0.00125 0.00125 0.00125 0.00125 0.00125 0.00125 0.00125 0.00125 0.00125 0.00125 0.00125 0.00125 0.00125 0.00125 0.00125 0.00125 0.00125 0.00125 0.00125 0.00125 0.00125 0.00125 0.00125 0.00125 0.00125 0.00125 0.00125 0.00125 0.00125 0.00125 0.00125 0.00125 0.00125 0.00125 0.00125 0.00125 0.00125 0.00125 0.00125 0.00125 0.00125 0.00125 0.00125 0.00125 0.00125 0.00125 0.00125 0.00125 0.00125 0.00125 0.00125 0.00125 0.00125 0.00125 0.00125 0.00125 0.00125 0.00125 0.00125 0.00125 0.00125 0.00125 0.00125 0.00125 0.00125 0.00125 0.00125 0.00125 0.00125 0.00125 0.00125 0.00125 0.00125 0.00125 0.00125 0.00125 0.00125 0.00125 0.00125 0.00125 0.00125 0.00125 0.00125 0.00125 0.00125 0.00125</DataArray>
<DataArray type="Int32" Name="high_conductivity" NumberOfComponents="1" format="ascii">0 0 0 0 0 0 1 0 0 0 0 0 0 0 0 0 0 0 1 0 0 0 0 1 0 0 0 0 0 0 0 0 0 0 0 0 0 0 0 1 0 0 0 0 0 0 0 1 0 0 0 0 0 0 0 0 0 1 0 0 0 0 0 1 1 0 1 0 0 0 0 0 0 0 0 0 0 0 0 0 0 0 0 0 0 0 0 0 0 0 0 0 0 0 0 0 0 0 0 1 0 0 0 0 0 0 0 0 0 0 0 0 0 0 0 0 0 0 0 0 0 0 1 0 0 0 0 0 0 1 0 0 0 0 1 0 0 0 0 0 0 0 0 0 0 0 0 0 0 0 0 0 0 0 0 0 0 0 0 0 0 0 0 0 0 0 0 0 0 0 0 1 0 0 0 0 0 0 0 0 0 0 0 0 0 0 0 0 0 1 1 1 0 0 0 1 0 0 0 0 0 0 0 0 0 0 0 0 0 0 0 0 0 0 0 0 0 0 0 0 0 0 0 0 0 0 1 0 1 0 0 0 0 0 0 0 0 0 0 0 0 1 0 0 0 0 0 1 0 0 1 0 0 0 0 0 0 0 0 0 0 0 0 0 0 1 0 0 0 1 0 0 0 0 0 0 0 0 0 1 0 0 1 0 0 0 0 0 0 0 0 0 0 0 0 0 0 0 0 0 1 0 1 0 0 0 0 0 0 0 0 0 0 0 1 0 0 0 0 0 0 0 0 0 0 0 0 0 0 0 0 0 0 0 0 0 0 0 1 0 0 0 1 0 0 0 0 0 0 0 0 0 0 0 0 1 0 0 0 1 0 0 0 1 0 0 0 0 0 0 0 0 0 1 0 0 0 0 0 1 0 0 0 0 1 0 0 0 0 0 1 0 0 0 1 0 0 0 0 0 0 0 1 0 0 0 0 0 0 0 0 0 0 0 0 0 0 0 0 0 0 0 0 0 0 0 0 0 0 0 0 0 0 0 1 0 0 0 0 0 0 0 0 0 0 0 0 0 0 0 0 0 0 0 0 0 0 0 0 1 0 1 0 0 0 0 0 1 0 1 0 0 0 0 0 0 1 0 0 0 0 1 0 0 0 1 0 0 0 1 0 0 0 0 0 0 0 0 0 0</DataArray>
<DataArray type="Float64" Name="conductivity_W_mK" NumberOfComponents="1" format="ascii">1.0 1.0 1.0 1.0 1.0 1.0 10.0 1.0 1.0 1.0 1.0 1.0 1.0 1.0 1.0 1.0 1.0 1.0 10.0 1.0 1.0 1.0 1.0 10.0 1.0 1.0 1.0 1.0 1.0 1.0 1.0 1.0 1.0 1.0 1.0 1.0 1.0 1.0 1.0 10.0 1.0 1.0 1.0 1.0 1.0 1.0 1.0 10.0 1.0 1.0 1.0 1.0 1.0 1.0 1.0 1.0 1.0 10.0 1.0 1.0 1.0 1.0 1.0 10.0 10.0 1.0 10.0 1.0 1.0 1.0 1.0 1.0 1.0 1.0 1.0 1.0 1.0 1.0 1.0 1.0 1.0 1.0 1.0 1.0 1.0 1.0 1.0 1.0 1.0 1.0 1.0 1.0 1.0 1.0 1.0 1.0 1.0 1.0 1.0 10.0 1.0 1.0 1.0 1.0 1.0 1.0 1.0 1.0 1.0 1.0 1.0 1.0 1.0 1.0 1.0 1.0 1.0 1.0 1.0 1.0 1.0 1.0 10.0 1.0 1.0 1.0 1.0 1.0 1.0 10.0 1.0 1.0 1.0 1.0 10.0 1.0 1.0 1.0 1.0 1.0 1.0 1.0 1.0 1.0 1.0 1.0 1.0 1.0 1.0 1.0 1.0 1.0 1.0 1.0 1.0 1.0 1.0 1.0 1.0 1.0 1.0 1.0 1.0 1.0 1.0 1.0 1.0 1.0 1.0 1.0 1.0 10.0 1.0 1.0 1.0 1.0 1.0 1.0 1.0 1.0 1.0 1.0 1.0 1.0 1.0 1.0 1.0 1.0 1.0 10.0 10.0 10.0 1.0 1.0 1.0 10.0 1.0 1.0 1.0 1.0 1.0 1.0 1.0 1.0 1.0 1.0 1.0 1.0 1.0 1.0 1.0 1.0 1.0 1.0 1.0 1.0 1.0 1.0 1.0 1.0 1.0 1.0 1.0 1.0 1.0 1.0 10.0 1.0 10.0 1.0 1.0 1.0 1.0 1.0 1.0 1.0 1.0 1.0 1.0 1.0 1.0 10.0 1.0 1.0 1.0 1.0 1.0 10.0 1.0 1.0 10.0 1.0 1.0 1.0 1.0 1.0 1.0 1.0 1.0 1.0 1.0 1.0 1.0 1.0 1.0 10.0 1.0 1.0 1.0 10.0 1.0 1.0 1.0 1.0 1.0 1.0 1.0 1.0 1.0 10.0 1.0 1.0 10.0 1.0 1.0 1.0 1.0 1.0 1.0 1.0 1.0 1.0 1.0 1.0 1.0 1.0 1.0 1.0 1.0 1.0 10.0 1.0 10.0 1.0 1.0 1.0 1.0 1.0 1.0 1.0 1.0 1.0 1.0 1.0 10.0 1.0 1.0 1.0 1.0 1.0 1.0 1.0 1.0 1.0 1.0 1.0 1.0 1.0 1.0 1.0 1.0 1.0 1.0 1.0 1.0 1.0 1.0 1.0 10.0 1.0 1.0 1.0 10.0 1.0 1.0 1.0 1.0 1.0 1.0 1.0 1.0 1.0 1.0 1.0 1.0 10.0 1.0 1.0 1.0 10.0 1.0 1.0 1.0 10.0 1.0 1.0 1.0 1.0 1.0 1.0 1.0 1.0 1.0 10.0 1.0 1.0 1.0 1.0 1.0 10.0 1.0 1.0 1.0 1.0 10.0 1.0 1.0 1.0 1.0 1.0 10.0 1.0 1.0 1.0 10.0 1.0 1.0 1.0 1.0 1.0 1.0 1.0 10.0 1.0 1.0 1.0 1.0 1.0 1.0 1.0 1.0 1.0 1.0 1.0 1.0 1.0 1.0 1.0 1.0 1.0 1.0 1.0 1.0 1.0 1.0 1.0 1.0 1.0 1.0 1.0 1.0 1.0 1.0 1.0 10.0 1.0 1.0 1.0 1.0 1.0 1.0 1.0 1.0 1.0 1.0 1.0 1.0 1.0 1.0 1.0 1.0 1.0 1.0 1.0 1.0 1.0 1.0 1.0 1.0 10.0 1.0 10.0 1.0 1.0 1.0 1.0 1.0 10.0 1.0 10.0 1.0 1.0 1.0 1.0 1.0 1.0 10.0 1.0 1.0 1.0 1.0 10.0 1.0 1.0 1.0 10.0 1.0 1.0 1.0 10.0 1.0 1.0 1.0 1.0 1.0 1.0 1.0 1.0 1.0 1.0</DataArray>
<DataArray type="Float64" Name="temperature_K" NumberOfComponents="1" format="ascii">300.8630355870358 300.37844371789043 300.68206890479536 300.91996041003483 300.6608088546644 300.3939220239321 300.4001238439123 300.06613292733095 300.19563664604715 300.55598399721634 300.35022248859514 300.05696950494996 300.5997880602034 300.640461234792 300.5490298598132 300.6340096201133 300.3024447516072 300.6327184410972 300.41016391974586 300.44357005521624 300.73792569858966 300.5613281870217 300.48629185400983 300.38148149567587 300.2118259264456 300.4302737231056 300.23586705826904 300.9402895720748 300.1108844661742 300.3630332175064 300.76157677030466 300.84837148574576 300.55779645453185 300.39435093134296 300.21182592644544 300.0892634351018 300.0649085372667 300.80823713729023 300.7745540981573 300.8317987285474 300.2118259264456 300.32328680300645 300.687736543165 nan 300.7752118810882 300.0597747979975 nan 300.3000147207951 300.4772679031636 300.185410626192 300.9339555497095 300.46052370780046 300.71085474653165 300.9479684673606 300.40828389808274 300.9125338593436 300.76756888714914 300.24720853688683 300.79350862007124 300.94823734059486 300.5494830395046 300.18699654826116 300.9275542474054 300.43736212094234 300.6735373856903 300.8827067587365 300.52766587899583 300.8037435869303 300.28929687668744 300.4750474091584 300.6798365708065 300.30259525682766 300.7112757455089 300.8540210748538 300.27930608989004 300.8841780825178 300.5801309385266 300.9473113635485 300.2118259264455 300.85252423955444 300.3177068702705 300.31068659659 300.5131433762176 300.86303558703577 300.8536383033862 300.6656986866502 300.94738084034503 300.0479527829293 300.0615797374268 300.86379387151453 300.5731075187535 300.489887365767 300.41745849173975 300.29567509193475 300.0688830292579 300.1152912512299 300.2748524227378 300.9353471697697 300.54499480374477 300.1997396964322 300.9140364333044 300.8988445692284 300.26655389628826 300.9350518389984 300.6935563217789 300.32156539868646 300.28389901179946 300.94150599379043 300.88265190127925 300.90757273722204 300.8733960480649 300.1957348948083 300.76225082620226 300.6023024637152 300.09316928056717 300.9211358937238 300.31899854729267 300.6713552976416 300.94223085950307 300.6874284893318 300.7242520231877 300.1493207516036 300.38929347420145 300.07155887441564 300.6597827355079 300.15815827146236 300.4500361660743 300.91804038169903 300.0533770790447 300.2208200975974 300.747974657677 300.2311497356156 300.21669030846846 300.1970243416948 300.7121059087498 300.4780770762361 300.06472061279436 300.214914953189 300.2059190378821 300.2064971096417 300.2331238406135 300.9172597533631 300.1848630403764 300.329651470974 300.90675695919685 300.3544800974169 300.6141226668323 300.8858913495352 300.275626351889 300.13339262362155 300.44071405737577 300.6997515341615 300.4371042349462 300.8714056286954 300.5084413037114 300.51265690784385 300.27185266671574 300.64666512630845 300.7805399644156 300.41501693432946 300.9298798554129 300.4059570651972 300.3847706828767 300.07151090731946 300.5757191658887 300.303544700062 300.07184916826714 300.7024421981463 300.0735684356167 300.39748331006984 300.10086985088344 300.4344344090294 300.3070067362523 nan 300.92050877388544 300.06472061279436 300.1548647801269 300.10007342061715 300.0783885214909 300.653663659897 300.68973690133106 300.7901024758767 300.60833624132124 300.50241095920506 300.5706720672641 300.211825926445 300.91884997975745 300.5429003634197 300.4253992449108 300.25290754630004 300.3016167211527 300.4021756595936 300.5241061495996 300.5972101862883 300.44095945226616 300.1910568289975 300.48741656765947 300.7632604918657 300.9232997329216 300.93373167716896 300.3093942717268 300.2194642852652 300.6733358020055 300.46575636717193 300.83694501463424 300.7689782725024 300.49980571201604 300.3291292278676 300.3979912282276 300.63942077530737 300.7011624885124 300.28167246191396 300.36594461077107 300.7462662996456 300.9212722387508 300.34957323318076 300.4926067316776 300.3744667946814 300.2746962415449 300.284060401904 300.49585005362053 300.1723211724054 300.90549917263695 300.3648572492091 300.5606729880923 300.7027650628404 300.47049190356165 300.8445333476684 300.4227997745009 300.4899521777781 300.80785256284304 300.31723803634975 300.644349950207 300.3888679783023 300.27133879910355 300.308792337054 300.20275367286644 300.2504775811284 300.2140597545966 300.4821843893689 300.91721155311603 300.59426302946764 300.8327348938123 300.91252377888657 300.14291491915696 300.0909135669975 300.455803325958 300.2586562257685 300.7029562227707 300.6093697959406 300.49680027417895 300.41474731079387 300.7742275041113 300.1853269868701 300.2735769240756 300.9027911870121 300.6529192712953 300.7563248702931 300.12687105481365 300.3564226870444 300.9119156065145 300.73002981198005 300.6264289961186 300.4041925013361 300.779208641541 300.5986701485533 300.7979077258216 300.51679255429343 300.0668940750312 300.57211614297046 300.3800215832472 300.5839558864769 300.0784479363582 300.24336284909106 300.614685829735 300.7877163204107 300.10732677614357 300.3678288320116 300.6525500729602 300.8295455548725 300.90063915997206 300.36128995841364 300.5103123947674 300.08646786787193 300.081263404781 300.73250636882256 300.93068422041057 300.6990213696767 300.13779228773666 300.5653735529234 300.06266110117855 300.5697547332447 300.18371997619624 300.0728732760618 300.42477498171854 300.5086564069067 300.2575944782689 300.4488608025385 300.64022201215585 300.4611725578311 300.6167822752123 300.60678889254194 300.61433034108694 300.4571282317339 300.9121810440181 300.24552784937094 300.46801230581985 300.2052325685068 300.4494979416179 300.08337710407517 300.46847361937745 300.59243070221976 300.7162291490921 300.33348246747187 300.3126184506448 300.54679517546697 300.8467511294916 300.3116678199311 300.21281139830205 300.0847923305187 300.818714386234 300.71980753965806 300.19972193122936 300.4965526747448 300.20340450656465 300.8436045148095 300.5065343421754 300.3211488143167 300.7203266682805 300.53463984487166 300.3659853920805 300.57217142403573 300.9218945713742 300.07213233724195 300.8332220684508 300.6393873111897 300.0815163691065 300.44520085836945 300.3227234361198 300.58677495959273 300.41556129896344 300.5967038998521 300.7501388933067 300.8673250688841 300.4452762988633 300.54520445415 300.219403327021 300.4970284776307 300.4133491634241 300.29192802761156 300.538147405418 300.8417978107798 300.0829026925584 300.09997968580257 300.9188649367752 300.8136042877615 300.3502953007717 300.80017593376306 300.3265136377218 300.21399974965016 300.46440133641613 300.4866762439101 300.7188517020164 300.76215510062497 300.6543657117909 300.69040693182757 300.59069213605375 300.9238027347959 300.6121196869824 300.0756410029317 300.8138612703125 300.5878148636822 300.2508811104062 300.6122617736379 300.757807044221 300.7797790025298 300.29694300666847 300.74712076256276 300.2673856464437 300.2165554217654 300.92140223332467 300.068265420903 300.14220083479483 300.53097148616496 300.2928639471091 300.6196889126194 300.35501190905813 300.7025190380856 300.15441844243975 300.3098872366172 300.22098037939554 300.24887870310704 300.701446153741 300.654706206094 300.2053892825735 300.3893668413732 300.2236856129212 300.72930843812935 300.9244668745506 300.2370369732584 300.90543725031966 300.2460686477817 300.58499725024615 300.4966081211895 300.53993407263556 300.6874007134977 300.7072658127782 300.6869763142129 300.7761070077657 300.7179181787478 300.7938671439552 300.1220721765892 300.8396667138325 300.41557010477 300.1521091079112 300.14256276580085 300.2867743838555 300.92453914658734 300.3842450604009 300.09688551057616 300.7069603438244 300.2637344162003 300.7707337981185 300.55316486926904 300.3764066825883 300.21384925915675 300.4590411529704 300.62621090208603 300.22114742770964 300.34196837216916 300.6221182384672 300.3321004507598 300.54464399484266 300.54445758057113 300.4401608789568 300.56863980605164 300.66064140797374 300.6979492946117 300.90776577811107 300.47700405477207 300.3038994755813 300.3551745241568 300.34741489734415 300.37155793345954 300.44397359956236 300.33646165805726 300.1089772687128 300.3394231309645 300.8339939070579 300.0939309486045 300.20686128755887 300.51964919308034 300.17690339897234 300.08310910836457 300.2104741421891 300.3850660488597 300.5619637270686 300.22069538108843 300.75962492778444 300.81009092683314 300.56053794328284 300.77541445238467 300.83129801952026 300.2908921492024 300.8098135198579 300.4268094656666 300.6846866469383 300.7911699951589 300.57765876029066 300.2657740783838 300.31291103112403 300.76048041840534 300.7615767703047 300.11661639975864 300.67602597476315 300.85230207259974 300.6419609741544 300.79919429331494 300.11467359457373 300.73218911091124 300.11559244424853 300.35081318316634 300.448204249623 300.5135166413467 300.6438210486607 300.25713026024727 300.4399810218499 300.7957731706056 300.5774464037408 300.61314879372696 300.56039477903425 300.8818608349337 300.8131532990256 300.63887937336 300.89075268938643 300.41649929084974 300.7881657832546 300.5154589780888 300.68379031327476 300.68780721891136</DataArray>
<DataArray type="Int32" Name="contact_degree" NumberOfComponents="1" format="ascii">4 5 4 1 4 5 6 3 3 4 3 3 3 4 6 4 6 4 4 5 6 3 6 5 1 5 4 3 3 5 1 4 4 3 2 3 3 5 5 6 3 4 3 0 5 3 0 6 4 6 2 5 4 2 6 5 4 5 4 2 5 4 3 6 5 4 3 3 4 5 4 3 4 4 3 4 3 2 2 6 4 3 5 1 6 3 2 3 2 3 6 3 5 4 3 3 4 4 4 6 5 7 5 5 7 7 4 2 5 4 5 5 6 6 4 4 6 7 4 3 5 5 6 4 3 6 6 5 3 8 7 5 5 5 9 8 1 3 6 6 5 3 6 4 5 7 5 7 6 6 5 5 3 7 7 6 5 5 6 7 4 5 5 3 6 4 5 6 3 5 4 6 4 0 3 5 4 3 5 7 8 8 3 4 6 6 6 5 5 6 5 8 5 7 4 5 7 6 3 4 5 8 4 7 5 7 6 5 5 5 7 5 7 7 5 6 6 7 5 4 5 5 2 6 3 4 8 6 7 6 7 4 6 3 6 7 6 5 5 6 4 7 4 7 5 3 6 7 6 7 5 5 7 7 5 6 4 7 6 7 6 7 6 6 5 6 4 6 3 8 3 5 6 3 2 3 4 7 5 4 7 6 8 5 2 5 4 5 6 7 2 7 5 4 5 5 6 6 5 6 7 6 7 5 3 7 5 4 5 4 6 4 4 5 6 7 6 6 6 3 5 4 4 8 5 7 5 6 5 4 4 5 4 2 2 7 5 6 6 6 7 5 7 6 4 8 7 5 5 5 7 7 4 3 4 6 6 6 6 5 6 6 6 6 6 6 6 5 6 4 6 4 6 8 6 6 5 3 5 6 4 4 6 5 8 5 6 4 6 6 6 3 5 8 8 6 5 5 4 7 4 8 6 9 11 7 7 6 5 6 6 6 8 7 4 6 6 4 7 5 9 8 7 7 6 7 9 7 8 8 8 7 7 6 10 7 7 10 6 8 7 11 9 4 6 8 7 6 8 6 7 8 5 4 7 5 9 6 4 10 7 9 8 6 8 6 7 9 9 9 7 6 7 6 9 4 11 6 5 5 7 7 8 6 7 8 5 8 9 10 6 7 8 9 5 5 8 7 6 7</DataArray>
<DataArray type="Float64" Name="absolute_heat_throughput_W" NumberOfComponents="1" format="ascii">3.0334950600582575e-05 2.7677108460190766e-05 2.7959565227114307e-05 2.8540820419436493e-05 2.7934557083697796e-05 4.7769463649496166e-05 0.00012079470100253106 2.208250027515613e-05 5.896402723155342e-06 4.081243273269481e-05 5.027318912949418e-06 2.4323806374266613e-05 9.522966817246943e-06 5.5690918851616996e-05 5.2130134276292915e-05 3.403852438718884e-05 4.9263334899497964e-05 4.1807692854154097e-05 8.488091264833507e-05 5.417781709673122e-05 3.517476919985785e-05 8.478602213773493e-06 5.528695889901199e-05 0.0001552390389791102 0.0 1.3268125087299504e-05 4.20145712926479e-05 3.971169937173664e-05 3.389341437023586e-05 2.569120116265747e-05 5.503840364735051e-21 5.567514447015685e-05 2.7586684609606706e-05 1.776765009177918e-05 1.1139293703143552e-19 5.0447381664311876e-05 2.8896799553547993e-05 5.7521301271515825e-05 2.212450465746439e-05 0.00015139809751528587 6.773502664752269e-20 2.7483939843678927e-05 4.90101388128149e-05 0.0 2.9410155405254374e-05 3.330247277435668e-05 0.0 0.00011337862305930567 4.121729754162485e-05 3.810398473124594e-05 3.8300599744856136e-05 4.3795697829315176e-05 3.518528960230974e-05 2.858051877539656e-05 7.697164902363419e-05 5.5651149396381415e-05 3.569263917073923e-05 0.00016044834181987836 6.36116111537198e-05 2.257291177599093e-05 3.8583091465190185e-05 4.7762902510603545e-05 5.8151425368870206e-05 9.062617855787746e-05 0.00014096726704912043 2.6344170753957747e-05 0.00015697191911624549 4.9540859394484155e-06 3.221425311584331e-05 3.1737693981551246e-05 1.5356371486483824e-05 1.721329741284122e-05 3.0934555518428606e-05 5.053631271833252e-05 1.957614393214727e-05 1.632457920392285e-05 1.6995653760464034e-05 1.2833874662153024e-05 7.913708220881839e-20 4.5719264573918106e-05 9.323369668577052e-06 1.0972640241006833e-05 4.270137072814088e-05 6.963903465771795e-20 5.988301606323572e-05 1.9081942844305023e-05 1.5879133772974324e-05 2.2435366281213714e-05 2.080961822303451e-05 3.409216329113865e-05 4.071798964352199e-05 6.619641400757028e-06 4.266343490442406e-05 2.5482727645014295e-05 4.282931832552266e-05 2.230756247590132e-05 2.3935480401376293e-05 3.7760850657347735e-05 4.894229472473994e-05 0.0001540041568944138 4.33986700764901e-05 6.838745250721712e-05 7.28248007286766e-05 2.4297904763613423e-05 0.00010601490924912081 0.00010827738336062845 4.036032334764231e-05 1.508501224491073e-05 4.094623642698537e-05 6.977898309981234e-05 5.84818640706205e-05 6.290341902699095e-05 3.9577242381247564e-05 6.158331296809359e-05 4.987392983856951e-05 6.0196108520701314e-05 7.827277747989608e-05 0.00010775535712032336 3.0492038685894984e-05 2.1931967730689356e-05 5.387098142897941e-05 6.0387583634161e-05 0.00017694264046489659 2.0199122693047648e-05 4.2594844868972396e-05 7.335742831118774e-05 6.1047864606197e-05 6.391425554013609e-05 1.0868747482299156e-05 0.00023044856200958965 6.441313877708644e-05 4.5268730073712735e-05 3.8521461906325545e-05 8.517397239743397e-05 0.00024803254991712586 8.29649073280213e-05 0.0 9.962673132525252e-06 7.331724395721613e-05 4.166430209736108e-05 5.969135851478323e-05 3.5809994038371786e-05 5.926131613530405e-05 1.8492941644341628e-05 6.509035314075952e-05 6.987127022899178e-05 5.278819600852732e-05 6.070254828140452e-05 8.589256946705963e-05 5.576134075284363e-05 9.502284703406588e-05 2.9704288031975057e-05 1.8186360725567077e-05 7.744540201201011e-05 9.75938883087081e-05 5.4838184435997466e-05 4.635232466176814e-05 5.003681422248171e-05 7.269929379659953e-05 6.0384969849493545e-05 3.521276486188466e-05 6.0229977415624615e-05 5.7418651995123186e-05 5.572670783861984e-05 8.290542482341402e-05 4.383793864485644e-05 2.1255637473883582e-05 9.109683216954448e-05 2.4865133369720937e-05 4.8488870017291785e-05 9.360244935934174e-05 0.00020908174313875576 0.0001453314963471398 0.0 2.3185289194738438e-05 5.984508698907266e-05 3.374313156044256e-05 7.174252423753007e-05 6.96847907507936e-05 0.00013920036236574778 5.808246399523197e-05 7.242195616909322e-05 1.7235357627483942e-05 4.8412675532677184e-05 6.721366052510496e-05 5.5789525430388005e-05 3.5939752222323516e-05 6.953263252395948e-05 4.9562670047524325e-05 0.000239628336834192 0.00030397071929676633 0.0002007246996285584 3.48735651878278e-05 6.745128734056658e-05 7.052504532597887e-05 0.000231141670221394 6.150709341701737e-05 8.35642952384531e-05 5.3237110497188675e-05 1.7164391107675845e-05 3.190848228063642e-05 7.048064416470694e-05 5.8099495799270455e-05 8.138986685384596e-05 6.588697204529958e-05 8.727616592030409e-05 0.00011735585308081041 8.278251174679714e-05 3.129854368949084e-05 4.187474636698725e-05 8.773099941696538e-05 5.0763744045198535e-05 9.858717275795166e-05 6.802716501046427e-05 5.0132463575946395e-05 6.568374045029212e-05 8.146112318833717e-05 5.082067569839623e-05 4.618544094310493e-05 5.694106438554404e-05 1.981038683419115e-05 3.352946758320366e-05 5.40012490300244e-05 0.00010650922475163028 5.814886214980992e-05 2.8205727917100065e-05 0.0002510723700131656 2.75249654618659e-05 0.0002280334960412742 6.129319391895424e-05 6.938166576241628e-05 3.5740081424793564e-05 5.5073917184806815e-05 5.00424896586661e-05 4.1655337025550324e-05 7.590437251220124e-05 6.35275410419401e-05 5.143508753062456e-05 5.200030338757722e-05 9.471539238486626e-05 5.476291496126964e-05 0.00015707569855903387 6.798680524959389e-05 4.279605192365556e-05 4.947329644540942e-05 9.076446194021147e-05 8.159032551712206e-05 0.00021355203684162233 8.45713980512056e-05 6.760135386215355e-05 0.00017547478344186692 9.587269511580042e-05 5.921569078656007e-05 6.290968228649251e-05 1.1719792230831934e-05 7.726740526282677e-05 3.921946234622522e-05 6.926404498022368e-05 9.307069544538444e-05 0.00011304390706919079 7.634962947548438e-05 7.637475662572591e-05 7.644109549471421e-05 8.196407472474654e-05 4.537160350534994e-05 0.00017292100022860295 2.6656288112333213e-05 4.2151219280973964e-05 4.4143091342422904e-05 0.0001826064468060892 3.703907366418731e-05 4.720320358969594e-05 5.9500602034945526e-05 1.823295430672545e-05 1.5240172273767902e-08 2.1246621505837087e-05 6.618877443083769e-05 8.608216512748191e-05 5.5809965221383974e-05 0.00017140759703367878 8.870669410314695e-05 5.277212549855236e-05 0.00014525203473860344 3.8462353729630235e-05 1.988246966773884e-05 5.479624321774718e-05 3.690693709497955e-05 7.274402752207749e-05 5.146166762192074e-05 3.85731192829573e-05 2.2265590321879376e-05 7.053953920653475e-05 6.914531735703109e-05 3.8165213566383136e-05 5.2549716988436004e-05 8.874366159252915e-05 7.445372502441872e-05 8.097706776613744e-05 0.00015109286827479603 6.576788987774256e-05 0.00014429760777360363 5.378942607407596e-05 0.00016899342479749748 7.49869761621412e-05 5.4544791080972555e-06 6.41994587050817e-05 6.431707614632022e-05 4.779937219347102e-05 5.33340944101928e-05 8.103360454810654e-05 8.084318023439364e-05 5.9087078885618475e-05 3.287270642632791e-05 7.240829426811716e-05 0.00013470278780977754 0.00010640911961166644 5.39367509929958e-05 5.678409711074611e-05 7.876753730390228e-05 5.470662370854538e-05 9.603970476480738e-05 4.7026313389901994e-05 5.117904601333284e-05 7.533260679027638e-05 9.992044365447213e-05 8.078616150232655e-05 3.866805519446147e-05 4.979807855349483e-05 5.438848690744372e-05 6.313913096016621e-05 5.307524773268582e-05 6.916955100334115e-05 5.137627621098946e-05 2.480575578528037e-05 1.48523772847347e-05 9.034899570061162e-05 5.1140016820129784e-05 9.24771703138168e-05 0.0002685863035757255 9.99999297726605e-05 7.230002773424331e-05 1.952062764071663e-05 0.00028344545204160825 7.066395155483689e-05 7.555600971647816e-05 0.0001056222550310729 5.2796407938508874e-05 3.853770436440998e-05 3.7690707165431546e-05 3.891971773488519e-05 8.732320455435242e-05 8.308345326417967e-05 4.100214926483691e-05 7.475799429783569e-05 3.647024156745908e-05 0.00026773732999365576 5.374100411291596e-05 3.427523656382021e-05 8.117544431254641e-05 0.00015312669405250084 0.00014397026880468133 0.00012791276456559512 8.872863028796358e-05 0.0003037815484765657 2.9735065094450618e-05 8.083273196195786e-05 5.566819474337071e-05 3.662855328351174e-05 0.000117313697174462 5.797497640483499e-05 5.028443702447758e-05 2.4649392392440532e-05 5.209347701390898e-05 0.0001610298912901125 4.247710760067534e-05 5.0607242599059255e-05 0.00011809112944349237 2.9803498232421546e-05 7.169444840723958e-05 0.00016355725251107316 6.845298410918416e-05 2.569893919708387e-05 0.00011720828716167377 5.170742215086582e-05 0.00025430304358188766 5.479372369118887e-05 8.130755455230626e-05 6.0713065716214235e-05 7.043323289038251e-05 5.491447666044538e-05 0.00023878850497238832 1.4759152479234099e-05 7.351638535469456e-05 8.325403698096782e-05 0.00021257507685324683 3.9522164575980934e-05 3.9876106583622044e-05 6.96455196651158e-05 5.161427782656823e-05 6.564665327359276e-05 8.790333279660789e-05 0.00011466188336474785 0.000287407615535995 0.00010058237429212702 0.0001618009221010188 0.00019190701999419142 8.656225398167239e-05 6.109469949849547e-05 3.50697744457063e-05 0.00014943797411116975 0.00010897977228398594 7.447246230361004e-05 0.00011767279675238009 0.00010563710665256271 4.626167937171848e-05 5.071764465039523e-05 0.00013358425949560346 5.073327747553607e-05 9.850203765050796e-05 9.644219633015317e-05 0.0001564723917810389 0.00015341509974459505 9.525271607948945e-05 8.551854312611563e-05 0.00019462962317234634 0.00010289347521884459 0.00014257612958112531 0.00013823903503507512 0.00015691713292715178 0.0001460558707774791 0.00010656593854693687 0.00015759163103339194 0.00015840096685171406 0.00014966495910122946 0.0002958021705560479 0.0001224873807017427 0.00011959814780263548 0.00013586330020512374 9.102844192928685e-05 9.71709853475637e-05 8.901427701061777e-05 9.170205612786654e-05 0.0001271974761420967 2.5058342738742453e-05 0.00010019858375209818 0.00012075997514680306 0.00012147033542488096 5.4105896135573724e-05 0.0001263792179309229 3.2886181020720186e-05 0.00013825028115173414 0.00011048949841084246 5.5354576384241495e-05 6.58773299990478e-05 0.00010361875193921553 7.304990187049086e-05 0.00011974620794245563 0.00010203346090061847 2.3649126054345358e-05 0.0002855976271381234 6.077940695614148e-05 0.00022796431161964257 0.00011271696773946395 0.00010647392787851528 0.00011689927263467117 0.00010032345508198426 7.437173683758994e-05 0.0003579186594112181 9.369404447699747e-05 0.00027404729288417647 7.047692810712768e-05 0.00020341411552457424 9.486413560432094e-05 0.0001142855673756166 0.00013317411779720738 6.890461284988613e-05 0.0002620314700593735 0.00011759453175295211 8.437229747277868e-05 0.0001512447288680575 0.0001501123738264071 0.0003601537114527893 0.0002476386978368284 4.5581364632110404e-05 7.329583192364869e-05 0.00029504645707921165 7.017266302419034e-05 0.00013018047628514102 0.0001771001218669114 0.0003057777578443407 0.00010364244292623171 6.167181913209584e-05 8.662644080732339e-05 0.00010490801157062477 9.744460164377485e-05 3.885373786937037e-05 0.0001407349366996783 0.00012203636488387367 8.102540251425996e-05 0.00015738745608280625</DataArray>
<DataArray type="Int32" Name="hot_wall_link" NumberOfComponents="1" format="ascii">0 0 0 1 0 0 0 0 0 0 0 0 0 0 0 0 0 0 0 0 0 0 0 0 0 0 0 1 0 0 0 0 0 0 0 0 0 0 0 0 0 0 0 0 0 0 0 0 0 0 1 0 0 1 0 1 0 0 0 1 0 0 1 0 0 0 0 0 0 0 0 0 0 0 0 0 0 1 0 0 0 0 0 0 0 0 1 0 0 0 0 0 0 0 0 0 0 1 0 0 1 1 0 1 0 0 0 1 0 1 0 0 0 0 0 1 0 0 1 0 0 0 0 0 0 0 0 1 0 0 0 0 0 0 0 0 0 0 0 0 0 1 0 0 1 0 0 0 0 0 0 0 0 0 0 0 0 0 0 0 1 0 0 0 0 0 0 0 0 0 0 0 0 0 1 0 0 0 0 0 0 0 0 0 0 0 1 0 0 0 0 0 0 0 0 0 0 0 1 1 0 0 0 0 0 0 0 0 0 0 0 0 0 0 1 0 0 0 0 0 0 0 1 0 0 0 0 0 0 0 0 0 0 0 0 0 0 0 0 0 1 0 0 1 0 0 0 0 0 0 0 0 0 0 0 1 0 0 0 0 1 0 0 0 0 0 0 0 0 0 0 0 0 0 0 0 0 0 0 0 1 0 0 0 0 0 1 0 0 0 0 0 0 0 0 0 0 0 0 0 0 0 0 0 0 0 0 0 0 0 0 0 0 0 0 0 0 0 0 0 0 0 0 0 0 0 0 0 0 0 0 0 1 0 0 0 0 0 0 0 0 0 0 0 0 0 0 0 0 0 0 0 0 0 1 0 0 0 0 0 0 0 0 0 0 0 0 1 0 0 0 0 0 0 0 0 0 0 0 0 1 0 0 0 0 0 0 0 0 0 0 0 0 0 0 0 0 0 1 0 1 0 0 0 0 0 0 0 0 0 0 0 0 0 0 0 0 1 0 0 0 0 0 0 0 0 0 0 0 0 0 0 0 0 0 0 0 0 1 0 0 0 0 0 0 0 0 0 0 0 0 0 0 0 0 0 0 0 0 0 0 0 0 0 0 0 0 0 0 0 0 0 0 0 0 0 0 0 0 0 0 0 0 0 0 0 0 0 0 0 0 0 0 0 1 0 0 0 0 0</DataArray>
<DataArray type="Int32" Name="cold_wall_link" NumberOfComponents="1" format="ascii">0 0 0 0 0 0 0 1 0 0 0 1 0 0 0 0 0 0 0 0 0 0 0 0 0 0 0 0 0 0 0 0 0 0 0 1 1 0 0 0 0 0 0 0 0 1 0 0 0 0 0 0 0 0 0 0 0 0 0 0 0 0 0 0 0 0 0 0 0 0 0 0 0 0 0 0 0 0 0 0 0 0 0 0 0 0 0 1 1 0 0 0 0 0 1 0 0 0 0 0 0 0 0 0 0 0 0 0 0 0 0 0 0 0 1 0 0 0 0 0 0 0 0 1 0 0 0 0 1 0 0 0 0 0 0 0 0 0 0 0 0 0 0 0 0 0 0 0 0 0 0 0 0 0 0 0 0 0 0 0 0 0 0 1 0 0 1 0 1 0 1 0 0 0 0 1 0 1 1 0 0 0 0 0 0 0 0 0 0 0 0 0 0 0 0 0 0 0 0 0 0 0 0 0 0 0 0 0 0 0 0 0 0 0 0 0 0 0 0 0 0 0 0 0 0 0 0 0 0 0 0 0 0 0 0 0 0 0 0 0 0 0 0 0 0 1 0 0 0 0 0 0 0 0 0 0 0 0 0 0 0 0 0 0 0 0 0 0 1 0 0 0 1 0 0 0 1 0 0 0 0 0 0 1 1 0 0 0 0 0 1 0 0 1 0 0 0 0 0 0 0 0 0 0 0 0 0 0 0 1 0 0 0 0 0 0 0 0 0 1 0 0 0 0 0 0 0 0 0 0 0 0 0 1 0 0 1 0 0 0 0 0 0 0 0 0 0 0 0 0 0 0 1 1 0 0 0 0 0 0 0 0 0 0 0 0 0 0 0 1 0 0 0 0 0 0 0 0 0 0 0 1 0 0 0 0 0 0 0 0 0 0 0 0 0 0 0 0 0 0 0 0 0 0 0 0 0 0 0 0 0 0 0 0 0 0 0 0 0 1 0 0 0 0 0 0 0 0 0 0 0 0 0 0 0 0 0 0 0 0 0 0 0 0 0 0 1 0 0 1 0 0 0 1 0 0 0 0 0 0 0 0 0 0 0 0 0 0 0 0 0 0 0 1 0 0 0 0 1 0 1 0 0 0 0 0 0 0 0 0 0 0 0 0 0 0 0 0 0 0</DataArray>
<DataArray type="Int32" Name="on_minimum_resistance_path" NumberOfComponents="1" format="ascii">0 0 0 0 0 0 0 0 0 0 0 0 0 0 0 0 0 0 0 0 0 0 0 0 0 0 0 0 0 0 0 0 0 0 0 0 0 0 0 0 0 0 0 0 0 0 0 0 0 0 0 0 0 0 0 0 0 1 0 0 0 0 0 0 0 0 0 0 0 0 0 0 0 0 0 0 0 0 0 0 0 0 0 0 0 0 0 0 0 0 0 0 0 0 0 0 0 0 0 0 0 0 0 0 0 0 0 0 0 0 0 0 0 0 0 0 0 0 0 0 0 0 0 0 0 0 0 1 0 0 0 0 0 0 0 0 0 0 0 0 0 0 0 0 0 0 0 0 0 0 0 0 0 0 0 0 0 0 0 0 0 0 0 0 0 0 0 0 0 0 0 0 0 0 0 0 0 1 0 0 0 0 0 0 0 0 0 0 0 0 0 0 0 0 0 0 0 0 0 0 0 0 0 0 0 0 0 0 0 0 0 0 0 0 0 0 0 0 0 0 0 0 0 0 0 0 0 0 0 0 0 0 0 0 0 0 0 0 0 0 0 0 0 0 0 0 0 0 0 0 0 0 0 0 0 0 0 0 0 0 0 0 0 0 0 0 0 0 0 0 0 0 0 0 0 0 0 0 0 0 0 0 0 0 0 0 0 0 0 0 0 0 0 0 0 0 0 0 0 0 0 0 0 0 0 0 0 0 0 0 0 0 0 0 0 0 0 0 0 0 0 0 0 0 0 0 0 0 0 0 0 0 0 0 0 0 0 0 1 0 0 0 0 0 0 0 0 0 0 0 0 0 0 0 0 0 0 0 0 0 0 0 0 0 0 0 0 0 0 0 0 0 0 0 0 0 0 0 0 0 0 0 0 0 1 0 0 0 0 0 0 0 0 0 0 0 0 0 0 0 0 0 1 0 0 0 0 0 0 0 0 0 0 0 0 0 0 0 0 0 0 0 0 0 0 0 0 0 0 0 0 0 0 0 0 0 0 0 0 0 0 0 0 0 0 0 0 0 0 0 0 0 0 0 0 0 0 0 0 0 0 0 0 0 0 0 0 0 0 0 0 1 0 0 0 0 0 0 0 0 0 0 1 0 0 0 0 0 0 1 0 0 0 0 0 0 0 0 0 0</DataArray>
</PointData>
<Points>
<DataArray type="Float64" Name="Points" NumberOfComponents="3" format="ascii">0.0151327 0.00115563 0.0017419 0.0143213 0.013037 0.0102118 0.00944696 0.00479737 0.00514464 0.0109111 0.00425955 0.000707616 0.00670849 0.000866951 0.0051779 0.0148072 0.0143992 0.00983163 0.0010147 0.000831218 0.00941065 0.00451682 0.000645025 0.0146578 0.0147206 0.0139046 0.0127193 0.00355315 0.0144407 0.00649175 0.00900278 0.0131608 0.00991587 0.00433361 0.00239023 0.0146814 0.0106765 0.0141214 0.00590043 0.00881584 0.0110499 0.00511223 0.00440735 0.00171469 0.00676586 0.00732712 0.00481976 0.00574086 0.0129534 0.00863682 0.0112829 0.014561 0.00517853 0.00553652 0.00489308 0.00282388 0.00927113 0.00520413 0.0128654 0.00795112 0.0131483 0.0128473 0.00355844 0.0101335 0.00352324 0.00755119 0.00344209 0.0149641 0.00780268 0.0065052 0.0126342 0.00859981 0.0151499 0.0117645 0.0146206 0.00331565 0.0101723 0.00853776 0.00614201 0.00943366 0.0120799 0.00809682 0.0118118 0.00060256 0.00901365 0.00584643 0.0138838 0.00360533 0.00803064 0.00957249 0.00154186 0.012482 0.00257877 0.00803572 0.00260863 0.00192811 0.0117285 0.0120384 0.00640567 0.00589282 0.0104346 0.00926257 0.0014993 0.0125015 0.0126506 0.00455226 0.00648969 0.0147271 0.00519157 0.00363314 0.0146867 0.00935738 0.00719085 0.0025238 0.00904302 0.0137127 0.00310217 0.0135203 0.00288739 0.00207765 0.000439146 0.0110944 0.0134521 0.00988317 0.0135683 0.0110293 0.0141238 0.00807977 0.00377993 0.00200279 0.00132408 0.0126816 0.0102279 0.0128672 0.00336011 0.00295233 0.0096089 0.0147241 0.00518597 0.00873135 0.000823127 0.00133145 0.00697416 0.0113659 0.00446207 0.000609924 0.00765116 0.00831433 0.000220829 0.0128202 0.00464623 0.00358161 0.000637897 0.00751657 0.0133117 0.00783416 0.00837038 0.00561283 0.0045936 0.0131996 0.00924544 0.000649426 0.000778654 0.00867041 0.00876685 0.0111335 0.00654266 0.000629808 0.0117349 0.0129254 0.00322802 0.00100069 0.00971544 0.0128179 0.00213613 0.00532787 0.00279534 0.0120355 0.013347 0.00068661 0.0110029 0.00961298 0.00729321 0.0060172 0.0129855 0.0130881 0.00992413 0.0133021 0.00053523 0.00293915 0.00172612 0.00892091 0.0141194 0.00470703 0.00433182 0.00121268 0.0113235 0.00138436 0.00688462 0.00627852 0.00651933 0.014513 0.00303612 0.00319182 0.00707004 0.0133918 0.0112428 0.0100237 0.00090997 0.00807165 0.00294313 0.00540802 0.00424802 0.00202257 0.0139033 0.0111178 0.00319117 0.000773919 0.00404224 0.00411156 0.0111401 0.00131896 0.00365903 0.00848651 0.0109622 0.0139297 0.00441449 0.000810209 0.0132174 0.0116445 0.00633496 0.0152694 0.0114629 0.000730223 2.10957e-05 0.0124219 0.0128926 0.00812884 0.00672759 0.00191333 0.0139239 0.0132632 0.0116239 0.0143449 0.00874883 0.0113934 0.00970284 0.0148041 0.0072549 0.0141921 0.0016198 0.00281419 0.0124835 0.0087772 0.00175103 0.00855338 0.00550281 0.00613339 0.00574114 0.00670103 0.000719644 0.00946706 0.00689528 0.0146936 0.0108709 0.0145836 0.0146587 0.0119734 0.000960034 0.00193928 0.000840014 0.000597723 0.00628912 0.0127506 0.0149793 0.00864884 0.00327322 0.000392376 0.00893675 0.01105 0.00419438 0.0114617 0.000918659 0.00812926 0.0147495 0.000769681 0.0133036 0.0139116 0.00339048 0.0115744 0.0120943 0.00954842 0.00167467 0.000636293 0.00747248 0.00193563 0.00762142 0.00501008 0.00690803 0.0134989 0.00968778 0.0110666 0.000939472 0.012526 0.00349482 0.000923494 0.0110664 0.00219539 0.0112643 0.000355866 0.00506505 0.00096501 0.00815764 0.00155739 0.00468163 0.00379715 0.00221146 0.0103515 0.00562145 0.0141155 0.0106443 0.0047149 0.001044 0.000983718 0.0144644 0.0100909 0.00140118 0.00650561 0.0124136 0.000884147 0.00785746 0.0103366 0.00103145 0.0120908 0.00355286 0.0127108 0.0137511 0.0112117 0.00349255 0.00508388 0.0139401 0.00632774 0.00638442 0.00655959 0.014431 0.0032663 0.00252057 0.000871886 0.00706742 0.00700147 0.0108788 0.00470819 0.0124864 0.00514439 0.00538559 0.0145562 0.00093035 0.000887498 0.00319027 0.00397745 0.00456288 0.00532131 0.0036275 0.0112451 0.00258122 0.0141094 0.000890145 0.00223572 0.0102524 0.0145371 0.0134171 0.0143886 0.0138481 0.00660686 0.00474022 0.00623783 0.0100748 0.0135859 0.000544785 0.0137134 0.00885746 0.000154724 0.0073296 0.000870085 0.014849 0.00153167 0.014381 0.00435341 0.00823317 0.0126542 0.00985779 0.00815529 0.00388315 0.0100439 0.00330211 0.0124968 0.0065924 0.00527887 0.0125227 0.0138307 0.0113549 0.0128799 0.00964616 0.00644989 0.00520181 0.00827685 0.0147628 0.00814513 0.00983731 0.00711561 0.0129465 0.00450206 0.00480361 0.0119904 0.00846184 0.00490389 0.0126128 0.0134074 0.0094787 0.0127003 0.0120181 0.00811492 0.0125764 0.00772678 0.00808528 0.000953171 0.00608817 0.00820031 0.0133661 0.0012251 0.0115874 0.0109257 0.0109118 0.00251323 0.000948249 0.00088105 0.0150072 0.0105034 0.00358557 0.00806951 0.00525681 0.0109869 0.0080267 0.00127195 0.0124435 0.0146398 0.0116824 0.00854676 0.00257448 0.0136897 0.00672295 0.000346097 0.0087875 0.00717064 0.00382324 0.00437199 0.00606834 0.00901907 0.00820549 0.00893611 0.0127031 0.00164658 0.012581 0.00928693 0.00778731 0.00999947 0.0108406 0.00787277 0.00885009 0.00379943 0.0110525 0.00402451 0.00421498 0.0051619 0.00763007 0.0127637 0.00294432 0.0022856 0.0145082 0.00925216 0.00179259 0.00373121 0.000942048 0.0145569 0.01125 0.00958401 0.0104494 0.0041918 0.00970165 0.0125467 0.000691416 0.0145152 0.00509822 0.0110078 0.00640293 0.0109612 0.0108004 0.01098 0.00688329 0.00340692 0.0143901 0.0120602 0.0118554 0.00443186 0.000538242 0.0152463 0.0143884 1.52415e-05 0.00574302 0.00951558 0.00440958 0.0143626 0.0145282 0.0106653 0.000433149 0.0097738 0.010716 0.000232972 0.0115652 0.00604833 0.00253204 0.00140224 0.000257004 0.0148446 0.000978732 0.0106435 0.00802451 0.0145352 0.00441845 0.0127797 0.0136226 0.0013163 0.00973301 0.0144238 0.00779511 0.0100188 0.0145682 0.00700269 0.00639403 0.00492724 0.00832408 0.00779038 0.00508726 0.0113626 0.00895506 0.00296166 0.000595232 0.00442376 0.00558026 0.00577495 0.00516388 0.00766243 0.00199147 0.00806141 0.0063271 0.00211998 0.0109038 0.0130038 0.0141259 0.00608338 0.000968971 0.00250635 0.00565612 0.0063415 0.00888094 0.000740739 0.0093095 0.00999621 0.0109642 0.0126444 0.00864237 0.0106469 0.0113334 0.000969465 0.00402503 0.00960789 0.0127233 0.00079723 0.00738357 0.0146976 0.0107951 0.00618344 0.0138771 0.00294134 0.00892731 0.000773612 0.00264311 0.0131646 0.00194235 0.00933517 0.00774063 0.0028642 0.00860811 0.00289342 0.0142049 0.0134024 0.000882122 0.00271385 0.0120951 0.000983228 0.000449221 0.0133317 0.0111781 0.00512241 0.0142025 0.0125249 0.0090967 0.0152193 0.0051464 0.0143573 0.0127819 0.00851817 0.0136468 0.0117768 0.00161815 0.0140915 0.00668328 0.00283329 0.00140268 0.00676794 0.00759816 0.0148179 0.00401886 0.0106743 0.0128927 0.0122358 0.00968693 0.0106344 0.00516889 0.00633136 0.0132691 0.00322139 0.00440678 0.00537116 0.00290926 0.0111914 0.0135756 0.00512942 0.00967011 0.00886412 0.00308307 0.00375224 0.00952206 0.00691311 0.000898627 0.000394765 0.00965594 0.0100309 0.0007164 0.000291917 0.00791993 0.00524774 0.0125483 0.00962598 0.0138968 0.00243653 0.0114075 0.0129113 0.0106478 0.0110132 0.0118976 0.0110956 0.00824709 0.00982367 0.0150127 0.0133574 0.00591345 0.0104097 0.000918365 0.00490533 0.00069221 0.00926079 0.0123963 0.00678884 0.00680525 0.00365581 0.0111931 0.00410831 0.0111058 0.015098 0.00812776 0.00737449 0.00408512 0.00181528 0.0018468 0.00559321 0.0090898 0.00106997 0.00493477 0.00746085 0.00702218 0.00933933 0.00230049 0.0142658 0.0148428 0.0112978 0.00841092 0.00959626 0.0058444 0.0125201 0.000435398 0.0101814 0.00509977 0.0104938 0.0114683 0.0147244 0.0118431 0.011367 0.00512251 0.00157736 0.0126485 0.00251217 0.00823778 0.0121972 0.000977121 0.0145399 0.0126192 8.10685e-05 0.00346276 0.00800281 0.0111815 0.00982975 0.000890611 0.01394 0.0142913 0.00637056 0.00707059 0.0141062 0.00170009 0.0126739 0.00729969 0.000948025 0.00599052 0.0152894 0.0138492 0.00999666 0.00133732 0.0146069 0.00470948 0.0111967 0.008307 0.00534896 0.0085551 0.0110848 0.00892562 0.0125508 0.00432971 0.00356341 0.00181973 0.00533926 0.00651834 0.00687967 0.00795518 0.00695671 0.00474392 0.00905735 0.00801103 0.00791742 0.00315793 0.00538342 0.0034238 0.0130372 0.0048199 0.0124239 0.0116554 0.0123629 0.00535672 0.000884611 0.0123128 0.0136301 0.00500719 0.0132691 0.0093747 0.00311564 0.00924009 0.00904139 0.0140747 0.00240283 0.000843443 0.0102687 0.00719036 0.00578893 0.00085116 0.00873277 0.00988291 0.00393572 0.0105733 0.0125735 0.00526755 0.00210729 0.00779943 0.00900949 0.010898 0.0143746 0.00316433 0.000150276 0.00624099 0.00629367 0.0102484 0.00405377 0.00280051 0.0127241 0.0126985 0.00758516 0.0131443 0.012018 0.0144795 0.00921945 0.0119421 0.00641884 0.00757315 0.0141395 0.00982918 0.00857401 0.0138082 0.00644255 0.00581911 0.00172426 0.0144566 0.00878013 0.0126694 0.0120224 0.0151819 0.00983466 0.00397306 0.0121463 0.00672581 0.0027741 0.00930259 0.0112453 0.0144407 0.00785891 0.00232456 0.00962299 0.0127724 0.00169191 0.00554587 0.0144691 0.0152824 0.00250948 0.00458878 0.0127323 0.000889927 0.00357887 0.0134538 0.0101713 0.0112303 0.00798569 0.00783697 0.0082099 0.000870013 0.0144201 0.0143522 0.0101641 0.0143856 0.00714818 0.00220529 0.00322679 0.00915807 0.00328766 0.000934924 0.00413295 0.0147811 0.00445143 0.00521796 0.00515041 0.0138533 0.0145644 0.000729407 0.00675731 0.0149452 0.00631236 0.0144022 0.000518752 0.00218991 0.00672875 0.00239349 0.0136902 0.0136603 0.00258171 0.00802324 0.0144181 0.0103888 0.0118671 0.00947094 0.00383011 0.00460069 0.00716519 0.00337851 0.0136074 0.012037 0.0111879 0.00951807 0.00905958 0.00756921 0.0122723 0.00560177 0.00247022 0.003927 0.0083815 0.00143209 0.00602887 0.00484575 0.00492007 0.000441801 0.00580023 0.00161236 0.00169672 0.00526334 0.00973482 0.00826854 0.00897179 0.000941687 0.0129901 0.00100755 0.00547909 0.00680481 0.011901 0.0126317 0.00700878 0.00871286 0.00781705 0.00683899 0.0126454 0.00872367 0.00391884 0.00886091 0.00140595 0.0016411 0.0145374 0.00386171 0.00270794 0.00802837 0.00501401 0.00925255 0.00568857 0.0124689 0.00812599 0.00436228 0.0119348 0.00572724 0.0104921 0.00697578 0.00371731 0.0106163 0.0066188 0.0145815 0.00723761 0.00562226 0.00477273 0.00132247 0.00596783 0.00536559 0.010693 0.00729414 0.00333063 0.0124551 0.00184032 0.0120793 0.0144747 0.00236701 0.0149398 0.00212329 0.00269748 0.00373721 0.00383797 0.0144285 0.00342394 0.0130015 0.014394 0.0147198 0.00818975 0.0136472 0.006821 0.0130219 0.0108772 0.0129161 0.00181871 0.013759 0.0108389 0.00784852 0.002086 0.00987322 0.0108939 0.0106617 0.0102324 0.00420182 0.00760515 0.0042274 0.00728987 0.00951329 0.0100961 0.00974049 0.0147426 0.012606 0.00667052 0.000772106 0.00917672 0.000891831 0.0128459 0.00868162 0.0144002 0.0127752 0.0139847 0.00230137 0.00206314 0.0089518 0.00458818 0.00863629 0.00430558 0.0144603 0.00139906 0.0022093 0.00850697 0.000519877 0.00761316 0.010058 0.0066216 0.0078737 0.00612172 0.00177003 0.0106641 0.00911158 0.000885436 0.00966532 0.00602013 0.0063218 0.0125101 0.00426012 0.00892088 0.00514356 0.00129141 0.00625872 0.00230596 0.00867378 0.0121634 0.0143626 0.00679055 0.00695371 0.0147786 0.0122093 8.43548e-05 0.00995715 0.00799865 0.00462761 0.014216 0.00872348 0.015169 0.0101144 0.011814 0.00603778 0.00111112 0.00717034 0.0141363 0.00826352 0.00175616 0.0079913 0.00761103 0.0143987 0.00452008 0.00844254 0.0144932 0.0131778 0.00166347 0.000956286 0.0107403 0.0055451 0.00180551 0.00453691 0.00942341 0.00954167 0.00962222 0.0113023 0.00289497 0.0026326 0.00369939 0.0105278 0.0120467 0.0108003 0.0126983 0.00874637 0.0122671 0.00818002 0.00641682 0.0122244 0.00702925 0.00552444 0.0108269 0.00453722 0.0103754 0.006324 0.00347663 0.00576113 0.00496984 0.00514114 0.00996983 0.00162457 0.00463433 0.0106884 0.0107356 0.00604621 0.0116912 0.0149773 0.00096492 0.00953084 0.00657841 0.0070626 0.00291999 0.00322739 0.0144818 0.00616535 0.00772151 0.00208443 0.00790977 0.0005545 0.00657309 0.00253931 0.00484977 0.0121283 0.00708603 0.00226918 0.00604545 0.00723472 0.0109701 0.00343743 0.00859229 0.00485768 0.00319335 0.00109812 0.00349856 0.0116007 0.00572299 0.00380241 0.00301698 0.0151635 0.00648948 0.0120217 0.00368541 0.00648051 0.0125803 0.0034757 0.0142895 0.000851078 0.0131829 0.00249219 0.0143918 0.00318155 0.0014035 0.0139873 0.00906508 0.00223346 0.00795407 0.000803853 0.00855083 0.0115832 0.00248374 0.0151863 0.00540234 0.0097276 0.00238535 0.00987972 0.0115477 0.00659241 0.00495397 0.00703731 0.00147038 0.0130426 0.00098502 0.0053282 0.0111163 0.003511 0.015171 0.0131598 0.00872676 0.0148175 0.0113207 0.00240649 0.00685607 0.00344709 0.0141476 0.0130014 0.00491582 0.0103426 0.00140231 0.0128859 0.00198955 0.0125949 0.00943874 0.0102956 0.00903363 0.0124232 0.00125962 0.014085 0.00337117 0.0136293 0.0151931 0.000883264 0.00349408 0.00984074 0.0121777 0.00286447 0.009734 0.0011025 0.00864119 0.00172406 0.011622 0.0142043 0.00878106 0.00656703 0.0106021 0.0130877 0.00764289 0.00255816 0.00114621 0.00710047 0.0138166 0.0150889 0.00444539 0.000265837 0.00514675 0.0032108 0.000596411 0.0117735 0.00480197 0.00487931 0.00937461 0.00280342 0.011736 0.00066532 0.00405254 0.00389386 0.013466 0.00280387 0.0125126 0.0140022 0.0137814 0.00959524 0.0147618 0.00155384 0.0114087 0.0138141 0.00980987 0.00423907 0.0107346 0.0139761 0.0107363 0.00464063 0.0140857 0.000154844 0.00109198 0.0119181 0.00204686 0.00637336 0.00117652 0.0137165 0.00929045 0.00956968 0.00709482 0.0119501 0.0142682 0.00522698 0.0073251 0.0040587 0.0068171 0.0116391 0.0119993 0.0149669 0.0129066 0.00285924 0.0119203 0.00429212 0.00786969 0.00527292 0.00713916 0.00961492 0.00332749 0.00282902 0.0123916 0.0106172 0.0061586 0.00884653 0.010236 0.00840283 0.00599713 0.00787271 0.0090787 0.0125727 0.012392 0.0035215 0.0102817 0.000478223 0.0143084 0.00535659 0.00300831 0.00642562 0.010603 0.00488582 0.00666235 0.00631211 0.0140576 0.00533103 0.00758861 0.00352808 0.00641109 0.00817625 0.00541196 0.00333014 0.00665278 0.0128722 0.0100815 0.00515816 0.00676824 0.0091283 0.00445074 0.00150798 0.00130126 0.00109445 0.00404456 0.00864856 0.00752236 0.00647566 0.00104766 0.0108102 0.00358582 0.0112819 0.0101736 0.0137968 0.00708503 0.0105313 0.00730094 0.00931706 0.010022 0.0114463 0.00207711 0.00861686 0.009053 0.0079031 0.0109555 0.00308504 0.00529079 0.0142464 0.0113986 0.00787863 0.0104791 0.00358764 0.0043882 0.00196482 0.0078991 0.0141693 0.0141394 0.00151112 0.00661975 0.013202 0.00185793 0.0139856 0.00720806 0.0103195 0.0129423 0.0135931 0.000778643 0.0044607 0.0142257 0.0150834 0.00832007 0.0133538 0.00429788 0.00460278 0.00953474 0.00358932 0.0124559 0.00693932 0.0124797 0.00120012 0.0124975 0.0055355 0.000255031 0.0029715 0.0118559 0.00265954 0.0028569 0.002976 0.010311 0.00605346 0.00794846 0.0153104 0.00326511 0.00940419 0.00919532 0.00201588 0.0120431 0.0125817 0.0117104 0.00966264 0.00154015 0.00253213 0.008276 0.00645263 0.00919447 0.00259572 0.0131113 0.00478786 0.00542242 0.0116958 0.00257056 0.00232622 0.00341988 0.00624313 0.0134051 0.00505072 0.0118767 0.00988032 0.00569896 0.0111818 0.000727052 0.00813109 0.00273617 0.0018216 0.0105733 0.00310661 0.0132164 0.00464896 0.0142442 0.00547061 0.00220868 0.00452783 0.00417548 0.00707696 0.00185079 0.012717 0.00497249 0.00564253 0.00390924 0.00208158 0.00278571 0.0119641 0.0066168 0.0141512 0.00132069 0.000897655 0.00340791 0.0110828 0.010023 0.0142771 0.00760919 0.0117553 0.00983223 0.0147465 0.00741987 0.00833856 0.00126161 0.0116434 0.00723613 0.0148598 0.00183155 0.00485025 0.0041845 0.000270788 0.0112352 0.00757262 0.0105256 0.00773959 0.00670747 0.00583542 0.00290594 0.0108315 0.00063707 0.00626549 0.000256757 0.00786836 0.00497188 0.0137817 0.00307043 0.00676854 0.0151889 0.00300748 0.00131104 0.0118046 0.0110655 0.00245696 0.00899819 0.00313438 0.00595921 0.00776734 0.000944439 0.00111534 0.0145161 0.00101532 0.00961945 0.0132851 0.00466757 0.0026714 0.00817881 0.00822097 0.00753351 0.0112204 0.00325932 0.00515858 0.00687735 0.0143408 0.00513623</DataArray>
</Points>
<Verts>
<DataArray type="Int64" Name="connectivity" NumberOfComponents="1" format="ascii">0 1 2 3 4 5 6 7 8 9 10 11 12 13 14 15 16 17 18 19 20 21 22 23 24 25 26 27 28 29 30 31 32 33 34 35 36 37 38 39 40 41 42 43 44 45 46 47 48 49 50 51 52 53 54 55 56 57 58 59 60 61 62 63 64 65 66 67 68 69 70 71 72 73 74 75 76 77 78 79 80 81 82 83 84 85 86 87 88 89 90 91 92 93 94 95 96 97 98 99 100 101 102 103 104 105 106 107 108 109 110 111 112 113 114 115 116 117 118 119 120 121 122 123 124 125 126 127 128 129 130 131 132 133 134 135 136 137 138 139 140 141 142 143 144 145 146 147 148 149 150 151 152 153 154 155 156 157 158 159 160 161 162 163 164 165 166 167 168 169 170 171 172 173 174 175 176 177 178 179 180 181 182 183 184 185 186 187 188 189 190 191 192 193 194 195 196 197 198 199 200 201 202 203 204 205 206 207 208 209 210 211 212 213 214 215 216 217 218 219 220 221 222 223 224 225 226 227 228 229 230 231 232 233 234 235 236 237 238 239 240 241 242 243 244 245 246 247 248 249 250 251 252 253 254 255 256 257 258 259 260 261 262 263 264 265 266 267 268 269 270 271 272 273 274 275 276 277 278 279 280 281 282 283 284 285 286 287 288 289 290 291 292 293 294 295 296 297 298 299 300 301 302 303 304 305 306 307 308 309 310 311 312 313 314 315 316 317 318 319 320 321 322 323 324 325 326 327 328 329 330 331 332 333 334 335 336 337 338 339 340 341 342 343 344 345 346 347 348 349 350 351 352 353 354 355 356 357 358 359 360 361 362 363 364 365 366 367 368 369 370 371 372 373 374 375 376 377 378 379 380 381 382 383 384 385 386 387 388 389 390 391 392 393 394 395 396 397 398 399 400 401 402 403 404 405 406 407 408 409 410 411 412 413 414 415 416 417 418 419 420 421 422 423 424 425 426 427 428 429 430 431 432 433 434 435 436 437 438 439 440 441 442 443 444 445 446 447 448 449 450 451 452 453 454 455 456 457 458 459 460 461 462 463 464 465 466 467 468 469 470 471 472 473 474 475 476 477 478 479 480 481 482 483 484 485 486 487 488 489 490 491 492 493 494 495 496 497 498 499</DataArray>
<DataArray type="Int64" Name="offsets" NumberOfComponents="1" format="ascii">1 2 3 4 5 6 7 8 9 10 11 12 13 14 15 16 17 18 19 20 21 22 23 24 25 26 27 28 29 30 31 32 33 34 35 36 37 38 39 40 41 42 43 44 45 46 47 48 49 50 51 52 53 54 55 56 57 58 59 60 61 62 63 64 65 66 67 68 69 70 71 72 73 74 75 76 77 78 79 80 81 82 83 84 85 86 87 88 89 90 91 92 93 94 95 96 97 98 99 100 101 102 103 104 105 106 107 108 109 110 111 112 113 114 115 116 117 118 119 120 121 122 123 124 125 126 127 128 129 130 131 132 133 134 135 136 137 138 139 140 141 142 143 144 145 146 147 148 149 150 151 152 153 154 155 156 157 158 159 160 161 162 163 164 165 166 167 168 169 170 171 172 173 174 175 176 177 178 179 180 181 182 183 184 185 186 187 188 189 190 191 192 193 194 195 196 197 198 199 200 201 202 203 204 205 206 207 208 209 210 211 212 213 214 215 216 217 218 219 220 221 222 223 224 225 226 227 228 229 230 231 232 233 234 235 236 237 238 239 240 241 242 243 244 245 246 247 248 249 250 251 252 253 254 255 256 257 258 259 260 261 262 263 264 265 266 267 268 269 270 271 272 273 274 275 276 277 278 279 280 281 282 283 284 285 286 287 288 289 290 291 292 293 294 295 296 297 298 299 300 301 302 303 304 305 306 307 308 309 310 311 312 313 314 315 316 317 318 319 320 321 322 323 324 325 326 327 328 329 330 331 332 333 334 335 336 337 338 339 340 341 342 343 344 345 346 347 348 349 350 351 352 353 354 355 356 357 358 359 360 361 362 363 364 365 366 367 368 369 370 371 372 373 374 375 376 377 378 379 380 381 382 383 384 385 386 387 388 389 390 391 392 393 394 395 396 397 398 399 400 401 402 403 404 405 406 407 408 409 410 411 412 413 414 415 416 417 418 419 420 421 422 423 424 425 426 427 428 429 430 431 432 433 434 435 436 437 438 439 440 441 442 443 444 445 446 447 448 449 450 451 452 453 454 455 456 457 458 459 460 461 462 463 464 465 466 467 468 469 470 471 472 473 474 475 476 477 478 479 480 481 482 483 484 485 486 487 488 489 490 491 492 493 494 495 496 497 498 499 500</DataArray>
</Verts>
</Piece>
</PolyData>
</VTKFile>
