<?xml version="1.0"?>
<VTKFile type="PolyData" version="0.1" byte_order="LittleEndian">
<PolyData>
<Piece NumberOfPoints="500" NumberOfVerts="500" NumberOfLines="0" NumberOfStrips="0" NumberOfPolys="0">
<PointData>
<DataArray type="Int64" Name="id" format="ascii">1 2 3 4 5 6 7 8 9 10 11 12 13 14 15 16 17 18 19 20 21 22 23 24 25 26 27 28 29 30 31 32 33 34 35 36 37 38 39 40 41 42 43 44 45 46 47 48 49 50 51 52 53 54 55 56 57 58 59 60 61 62 63 64 65 66 67 68 69 70 71 72 73 74 75 76 77 78 79 80 81 82 83 84 85 86 87 88 89 90 91 92 93 94 95 96 97 98 99 100 101 102 103 104 105 106 107 108 109 110 111 112 113 114 115 116 117 118 119 120 121 122 123 124 125 126 127 128 129 130 131 132 133 134 135 136 137 138 139 140 141 142 143 144 145 146 147 148 149 150 151 152 153 154 155 156 157 158 159 160 161 162 163 164 165 166 167 168 169 170 171 172 173 174 175 176 177 178 179 180 181 182 183 184 185 186 187 188 189 190 191 192 193 194 195 196 197 198 199 200 201 202 203 204 205 206 207 208 209 210 211 212 213 214 215 216 217 218 219 220 221 222 223 224 225 226 227 228 229 230 231 232 233 234 235 236 237 238 239 240 241 242 243 244 245 246 247 248 249 250 251 252 253 254 255 256 257 258 259 260 261 262 263 264 265 266 267 268 269 270 271 272 273 274 275 276 277 278 279 280 281 282 283 284 285 286 287 288 289 290 291 292 293 294 295 296 297 298 299 300 301 302 303 304 305 306 307 308 309 310 311 312 313 314 315 316 317 318 319 320 321 322 323 324 325 326 327 328 329 330 331 332 333 334 335 336 337 338 339 340 341 342 343 344 345 346 347 348 349 350 351 352 353 354 355 356 357 358 359 360 361 362 363 364 365 366 367 368 369 370 371 372 373 374 375 376 377 378 379 380 381 382 383 384 385 386 387 388 389 390 391 392 393 394 395 396 397 398 399 400 401 402 403 404 405 406 407 408 409 410 411 412 413 414 415 416 417 418 419 420 421 422 423 424 425 426 427 428 429 430 431 432 433 434 435 436 437 438 439 440 441 442 443 444 445 446 447 448 449 450 451 452 453 454 455 456 457 458 459 460 461 462 463 464 465 466 467 468 469 470 471 472 473 474 475 476 477 478 479 480 481 482 483 484 485 486 487 488 489 490 491 492 493 494 495 496 497 498 499 500</DataArray>
<DataArray type="Int32" Name="type" format="ascii">1 1 1 1 1 1 1 1 1 1 1 1 1 1 1 1 1 1 1 1 1 1 1 1 1 1 1 1 1 1 1 1 1 1 1 1 1 1 1 1 1 1 1 1 1 1 1 1 1 1 1 1 1 1 1 1 1 1 1 1 1 1 1 1 1 1 1 1 1 1 1 1 1 1 1 1 1 1 1 1 1 1 1 1 1 1 1 1 1 1 1 1 1 1 1 1 1 1 1 1 2 2 2 2 2 2 2 2 2 2 2 2 2 2 2 2 2 2 2 2 2 2 2 2 2 2 2 2 2 2 2 2 2 2 2 2 2 2 2 2 2 2 2 2 2 2 2 2 2 2 2 2 2 2 2 2 2 2 2 2 2 2 2 2 2 2 2 2 2 2 2 2 2 2 2 2 2 2 2 2 2 2 2 2 2 2 2 2 2 2 2 2 2 2 2 2 2 2 2 2 2 2 2 2 2 2 2 2 2 2 2 2 2 2 2 2 2 2 2 2 2 2 2 2 2 2 2 2 2 2 2 2 2 2 2 2 2 2 2 2 2 2 2 2 2 2 2 2 2 2 2 2 2 2 2 2 2 2 2 2 2 2 2 2 2 2 2 2 2 2 2 2 2 2 2 2 2 2 2 2 2 2 2 2 2 2 2 2 2 2 2 2 2 2 2 2 2 2 2 2 2 2 2 2 2 2 2 2 2 2 2 2 2 2 2 2 2 2 2 2 2 2 2 2 2 2 2 2 2 2 2 2 2 2 2 2 2 2 2 2 2 2 2 2 2 2 2 2 2 2 2 2 2 2 2 2 2 2 2 2 2 2 2 2 2 2 2 2 2 2 2 2 2 2 2 2 2 2 2 2 2 2 2 2 2 2 2 2 2 2 2 2 2 2 2 2 2 2 2 2 3 3 3 3 3 3 3 3 3 3 3 3 3 3 3 3 3 3 3 3 3 3 3 3 3 3 3 3 3 3 3 3 3 3 3 3 3 3 3 3 3 3 3 3 3 3 3 3 3 3 3 3 3 3 3 3 3 3 3 3 3 3 3 3 3 3 3 3 3 3 3 3 3 3 3 3 3 3 3 3 3 3 3 3 3 3 3 3 3 3 3 3 3 3 3 3 3 3 3 3</DataArray>
<DataArray type="Float64" Name="radius" format="ascii">0.00075 0.00075 0.00075 0.00075 0.00075 0.00075 0.00075 0.00075 0.00075 0.00075 0.00075 0.00075 0.00075 0.00075 0.00075 0.00075 0.00075 0.00075 0.00075 0.00075 0.00075 0.00075 0.00075 0.00075 0.00075 0.00075 0.00075 0.00075 0.00075 0.00075 0.00075 0.00075 0.00075 0.00075 0.00075 0.00075 0.00075 0.00075 0.00075 0.00075 0.00075 0.00075 0.00075 0.00075 0.00075 0.00075 0.00075 0.00075 0.00075 0.00075 0.00075 0.00075 0.00075 0.00075 0.00075 0.00075 0.00075 0.00075 0.00075 0.00075 0.00075 0.00075 0.00075 0.00075 0.00075 0.00075 0.00075 0.00075 0.00075 0.00075 0.00075 0.00075 0.00075 0.00075 0.00075 0.00075 0.00075 0.00075 0.00075 0.00075 0.00075 0.00075 0.00075 0.00075 0.00075 0.00075 0.00075 0.00075 0.00075 0.00075 0.00075 0.00075 0.00075 0.00075 0.00075 0.00075 0.00075 0.00075 0.00075 0.00075 0.001 0.001 0.001 0.001 0.001 0.001 0.001 0.001 0.001 0.001 0.001 0.001 0.001 0.001 0.001 0.001 0.001 0.001 0.001 0.001 0.001 0.001 0.001 0.001 0.001 0.001 0.001 0.001 0.001 0.001 0.001 0.001 0.001 0.001 0.001 0.001 0.001 0.001 0.001 0.001 0.001 0.001 0.001 0.001 0.001 0.001 0.001 0.001 0.001 0.001 0.001 0.001 0.001 0.001 0.001 0.001 0.001 0.001 0.001 0.001 0.001 0.001 0.001 0.001 0.001 0.001 0.001 0.001 0.001 0.001 0.001 0.001 0.001 0.001 0.001 0.001 0.001 0.001 0.001 0.001 0.001 0.001 0.001 0.001 0.001 0.001 0.001 0.001 0.001 0.001 0.001 0.001 0.001 0.001 0.001 0.001 0.001 0.001 0.001 0.001 0.001 0.001 0.001 0.001 0.001 0.001 0.001 0.001 0.001 0.001 0.001 0.001 0.001 0.001 0.001 0.001 0.001 0.001 0.001 0.001 0.001 0.001 0.001 0.001 0.001 0.001 0.001 0.001 0.001 0.001 0.001 0.001 0.001 0.001 0.001 0.001 0.001 0.001 0.001 0.001 0.001 0.001 0.001 0.001 0.001 0.001 0.001 0.001 0.001 0.001 0.001 0.001 0.001 0.001 0.001 0.001 0.001 0.001 0.001 0.001 0.001 0.001 0.001 0.001 0.001 0.001 0.001 0.001 0.001 0.001 0.001 0.001 0.001 0.001 0.001 0.001 0.001 0.001 0.001 0.001 0.001 0.001 0.001 0.001 0.001 0.001 0.001 0.001 0.001 0.001 0.001 0.001 0.001 0.001 0.001 0.001 0.001 0.001 0.001 0.001 0.001 0.001 0.001 0.001 0.001 0.001 0.001 0.001 0.001 0.001 0.001 0.001 0.001 0.001 0.001 0.001 0.001 0.001 0.001 0.001 0.001 0.001 0.001 0.001 0.001 0.001 0.001 0.001 0.001 0.001 0.001 0.001 0.001 0.001 0.001 0.001 0.001 0.001 0.001 0.001 0.001 0.001 0.001 0.001 0.001 0.001 0.001 0.001 0.001 0.001 0.001 0.001 0.001 0.001 0.001 0.001 0.001 0.001 0.001 0.001 0.001 0.001 0.001 0.001 0.001 0.001 0.001 0.001 0.001 0.001 0.001 0.001 0.001 0.001 0.001 0.001 0.001 0.001 0.001 0.001 0.001 0.001 0.001 0.001 0.001 0.001 0.001 0.001 0.001 0.001 0.001 0.001 0.001 0.001 0.001 0.001 0.001 0.001 0.001 0.001 0.00125 0.00125 0.00125 0.00125 0.00125 0.00125 0.00125 0.00125 0.00125 0.00125 0.00125 0.00125 0.00125 0.00125 0.00125 0.00125 0.00125 0.00125 0.00125 0.00125 0.00125 0.00125 0.00125 0.00125 0.00125 0.00125 0.00125 0.00125 0.00125 0.00125 0.00125 0.00125 0.00125 0.00125 0.00125 0.00125 0.00125 0.00125 0.00125 0.00125 0.00125 0.00125 0.00125 0.00125 0.00125 0.00125 0.00125 0.00125 0.00125 0.00125 0.00125 0.00125 0.00125 0.00125 0.00125 0.00125 0.00125 0.00125 0.00125 0.00125 0.00125 0.00125 0.00125 0.00125 0.00125 0.00125 0.00125 0.00125 0.00125 0.00125 0.00125 0.00125 0.00125 0.00125 0.00125 0.00125 0.00125 0.00125 0.00125 0.00125 0.00125 0.00125 0.00125 0.00125 0.00125 0.00125 0.00125 0.00125 0.00125 0.00125 0.00125 0.00125 0.00125 0.00125 0.00125 0.00125 0.00125 0.00125 0.00125 0.00125</DataArray>
<DataArray type="Float64" Name="diameter" format="ascii">0.0015 0.0015 0.0015 0.0015 0.0015 0.0015 0.0015 0.0015 0.0015 0.0015 0.0015 0.0015 0.0015 0.0015 0.0015 0.0015 0.0015 0.0015 0.0015 0.0015 0.0015 0.0015 0.0015 0.0015 0.0015 0.0015 0.0015 0.0015 0.0015 0.0015 0.0015 0.0015 0.0015 0.0015 0.0015 0.0015 0.0015 0.0015 0.0015 0.0015 0.0015 0.0015 0.0015 0.0015 0.0015 0.0015 0.0015 0.0015 0.0015 0.0015 0.0015 0.0015 0.0015 0.0015 0.0015 0.0015 0.0015 0.0015 0.0015 0.0015 0.0015 0.0015 0.0015 0.0015 0.0015 0.0015 0.0015 0.0015 0.0015 0.0015 0.0015 0.0015 0.0015 0.0015 0.0015 0.0015 0.0015 0.0015 0.0015 0.0015 0.0015 0.0015 0.0015 0.0015 0.0015 0.0015 0.0015 0.0015 0.0015 0.0015 0.0015 0.0015 0.0015 0.0015 0.0015 0.0015 0.0015 0.0015 0.0015 0.0015 0.002 0.002 0.002 0.002 0.002 0.002 0.002 0.002 0.002 0.002 0.002 0.002 0.002 0.002 0.002 0.002 0.002 0.002 0.002 0.002 0.002 0.002 0.002 0.002 0.002 0.002 0.002 0.002 0.002 0.002 0.002 0.002 0.002 0.002 0.002 0.002 0.002 0.002 0.002 0.002 0.002 0.002 0.002 0.002 0.002 0.002 0.002 0.002 0.002 0.002 0.002 0.002 0.002 0.002 0.002 0.002 0.002 0.002 0.002 0.002 0.002 0.002 0.002 0.002 0.002 0.002 0.002 0.002 0.002 0.002 0.002 0.002 0.002 0.002 0.002 0.002 0.002 0.002 0.002 0.002 0.002 0.002 0.002 0.002 0.002 0.002 0.002 0.002 0.002 0.002 0.002 0.002 0.002 0.002 0.002 0.002 0.002 0.002 0.002 0.002 0.002 0.002 0.002 0.002 0.002 0.002 0.002 0.002 0.002 0.002 0.002 0.002 0.002 0.002 0.002 0.002 0.002 0.002 0.002 0.002 0.002 0.002 0.002 0.002 0.002 0.002 0.002 0.002 0.002 0.002 0.002 0.002 0.002 0.002 0.002 0.002 0.002 0.002 0.002 0.002 0.002 0.002 0.002 0.002 0.002 0.002 0.002 0.002 0.002 0.002 0.002 0.002 0.002 0.002 0.002 0.002 0.002 0.002 0.002 0.002 0.002 0.002 0.002 0.002 0.002 0.002 0.002 0.002 0.002 0.002 0.002 0.002 0.002 0.002 0.002 0.002 0.002 0.002 0.002 0.002 0.002 0.002 0.002 0.002 0.002 0.002 0.002 0.002 0.002 0.002 0.002 0.002 0.002 0.002 0.002 0.002 0.002 0.002 0.002 0.002 0.002 0.002 0.002 0.002 0.002 0.002 0.002 0.002 0.002 0.002 0.002 0.002 0.002 0.002 0.002 0.002 0.002 0.002 0.002 0.002 0.002 0.002 0.002 0.002 0.002 0.002 0.002 0.002 0.002 0.002 0.002 0.002 0.002 0.002 0.002 0.002 0.002 0.002 0.002 0.002 0.002 0.002 0.002 0.002 0.002 0.002 0.002 0.002 0.002 0.002 0.002 0.002 0.002 0.002 0.002 0.002 0.002 0.002 0.002 0.002 0.002 0.002 0.002 0.002 0.002 0.002 0.002 0.002 0.002 0.002 0.002 0.002 0.002 0.002 0.002 0.002 0.002 0.002 0.002 0.002 0.002 0.002 0.002 0.002 0.002 0.002 0.002 0.002 0.002 0.002 0.002 0.002 0.002 0.002 0.002 0.002 0.002 0.002 0.002 0.002 0.0025 0.0025 0.0025 0.0025 0.0025 0.0025 0.0025 0.0025 0.0025 0.0025 0.0025 0.0025 0.0025 0.0025 0.0025 0.0025 0.0025 0.0025 0.0025 0.0025 0.0025 0.0025 0.0025 0.0025 0.0025 0.0025 0.0025 0.0025 0.0025 0.0025 0.0025 0.0025 0.0025 0.0025 0.0025 0.0025 0.0025 0.0025 0.0025 0.0025 0.0025 0.0025 0.0025 0.0025 0.0025 0.0025 0.0025 0.0025 0.0025 0.0025 0.0025 0.0025 0.0025 0.0025 0.0025 0.0025 0.0025 0.0025 0.0025 0.0025 0.0025 0.0025 0.0025 0.0025 0.0025 0.0025 0.0025 0.0025 0.0025 0.0025 0.0025 0.0025 0.0025 0.0025 0.0025 0.0025 0.0025 0.0025 0.0025 0.0025 0.0025 0.0025 0.0025 0.0025 0.0025 0.0025 0.0025 0.0025 0.0025 0.0025 0.0025 0.0025 0.0025 0.0025 0.0025 0.0025 0.0025 0.0025 0.0025 0.0025</DataArray>
<DataArray type="Float64" Name="conductivity" format="ascii">1.0 1.0 1.0 1.0 1.0 1.0 1.0 1.0 1.0 1.0 1.0 1.0 1.0 1.0 1.0 1.0 1.0 1.0 1.0 1.0 1.0 1.0 1.0 1.0 1.0 1.0 1.0 1.0 1.0 1.0 1.0 1.0 1.0 1.0 1.0 1.0 1.0 1.0 1.0 1.0 1.0 1.0 1.0 1.0 1.0 1.0 1.0 1.0 1.0 1.0 1.0 1.0 1.0 1.0 1.0 1.0 1.0 1.0 1.0 1.0 1.0 1.0 1.0 1.0 1.0 1.0 1.0 1.0 1.0 1.0 1.0 1.0 1.0 1.0 1.0 1.0 1.0 1.0 1.0 1.0 1.0 1.0 1.0 1.0 1.0 1.0 1.0 1.0 1.0 1.0 1.0 1.0 1.0 1.0 1.0 1.0 1.0 1.0 1.0 1.0 1.0 1.0 1.0 1.0 1.0 1.0 1.0 1.0 1.0 1.0 1.0 1.0 1.0 1.0 1.0 1.0 1.0 1.0 1.0 1.0 1.0 1.0 1.0 1.0 1.0 1.0 1.0 1.0 1.0 1.0 1.0 1.0 1.0 1.0 1.0 1.0 1.0 1.0 1.0 1.0 1.0 1.0 1.0 1.0 1.0 1.0 1.0 1.0 1.0 1.0 1.0 1.0 1.0 1.0 1.0 1.0 1.0 1.0 1.0 1.0 1.0 1.0 1.0 1.0 1.0 1.0 1.0 1.0 1.0 1.0 1.0 1.0 1.0 1.0 1.0 1.0 1.0 1.0 1.0 1.0 1.0 1.0 1.0 1.0 1.0 1.0 1.0 1.0 1.0 1.0 1.0 1.0 1.0 1.0 1.0 1.0 1.0 1.0 1.0 1.0 1.0 1.0 1.0 1.0 1.0 1.0 1.0 1.0 1.0 1.0 1.0 1.0 1.0 1.0 1.0 1.0 1.0 1.0 1.0 1.0 1.0 1.0 1.0 1.0 1.0 1.0 1.0 1.0 1.0 1.0 1.0 1.0 1.0 1.0 1.0 1.0 1.0 1.0 1.0 1.0 1.0 1.0 1.0 1.0 1.0 1.0 1.0 1.0 1.0 1.0 1.0 1.0 1.0 1.0 1.0 1.0 1.0 1.0 1.0 1.0 1.0 1.0 1.0 1.0 1.0 1.0 1.0 1.0 1.0 1.0 1.0 1.0 1.0 1.0 1.0 1.0 1.0 1.0 1.0 1.0 1.0 1.0 1.0 1.0 1.0 1.0 1.0 1.0 1.0 1.0 1.0 1.0 1.0 1.0 1.0 1.0 1.0 1.0 1.0 1.0 1.0 1.0 1.0 1.0 1.0 1.0 1.0 1.0 1.0 1.0 1.0 1.0 1.0 1.0 1.0 1.0 1.0 1.0 1.0 1.0 1.0 1.0 1.0 1.0 1.0 1.0 1.0 1.0 1.0 1.0 1.0 1.0 1.0 1.0 1.0 1.0 1.0 1.0 1.0 1.0 1.0 1.0 1.0 1.0 1.0 1.0 1.0 1.0 1.0 1.0 1.0 1.0 1.0 1.0 1.0 1.0 1.0 1.0 1.0 1.0 1.0 1.0 1.0 1.0 1.0 1.0 1.0 1.0 1.0 1.0 1.0 1.0 1.0 1.0 1.0 1.0 1.0 1.0 1.0 1.0 1.0 1.0 1.0 1.0 1.0 1.0 1.0 1.0 1.0 1.0 1.0 1.0 1.0 1.0 1.0 1.0 1.0 1.0 1.0 1.0 1.0 1.0 1.0 1.0 1.0 1.0 1.0 1.0 1.0 1.0 1.0 1.0 1.0 1.0 1.0 1.0 1.0 1.0 1.0 1.0 1.0 1.0 1.0 1.0 1.0 1.0 1.0 1.0 1.0 1.0 1.0 1.0 1.0 1.0 1.0 1.0 1.0 1.0 1.0 1.0 1.0 1.0 1.0 1.0 1.0 1.0 1.0 1.0 1.0 1.0 1.0 1.0 1.0 1.0 1.0 1.0 1.0 1.0 1.0 1.0 1.0 1.0 1.0 1.0 1.0 1.0 1.0 1.0 1.0 1.0 1.0 1.0 1.0 1.0 1.0 1.0 1.0 1.0 1.0 1.0 1.0 1.0 1.0 1.0 1.0 1.0 1.0 1.0 1.0 1.0 1.0 1.0 1.0 1.0 1.0 1.0 1.0 1.0 1.0 1.0</DataArray>
<DataArray type="Float64" Name="temperature" format="ascii">300.9560431919866 300.05440631059173 300.28507029505687 300.48470046103085 300.24673168388426 300.25632177094815 300.04665753143917 300.34108506676813 300.9469130889213 300.6054954408676 300.5559343365135 300.5734827749949 300.9435845385063 300.7405838992092 300.71888398936676 300.54508592286174 nan 300.5472584001913 300.7774118836447 300.04331284272195 300.2583736878642 300.8522531341615 300.1796325681818 300.71080196583375 300.40908968065787 300.9406823093677 300.95062005027637 300.87746589625635 300.27245804822655 300.0399138459962 300.04699769572767 nan 300.91123261604474 300.94581394917543 300.8687187085584 300.66686810336313 300.5539568621274 300.7668480490288 300.08815000761547 300.2084194342596 nan 300.0657579171201 300.52359422226095 300.4586818374967 300.40137098967347 300.9518459653466 nan 300.2286002108915 300.9091271159125 300.37470993399927 nan 300.7745512832349 300.1804042443875 nan 300.3786217845303 300.41332862266336 300.943738849149 300.4658904020057 300.35582108452303 300.94665446988665 300.95377837349207 300.1537823626779 300.4511836902817 300.7396998144751 300.6150017452827 300.3369689859398 300.5623685305085 300.13441892444865 300.07231425974686 300.895201197813 300.21768120380045 300.29232801350844 300.6654239699793 300.7153193376171 300.30956161648646 nan 300.5925938915301 nan 300.2097840970577 300.28534309781935 300.6627632416893 300.0560613068935 300.33852898801797 300.0578756829357 300.3093039143408 300.9430398062018 300.0500355789423 300.73946313154426 300.0557838335002 300.6565088483673 300.91621775255317 300.24126995776334 300.95060923757796 300.87227405811814 300.8697699010602 nan 300.81738001054663 300.14135908388823 300.3574909507485 300.0449907216868 300.639863711932 300.82578431029856 300.5911389510246 300.1641963928785 300.05891285335997 300.92538735092785 300.70938331481193 300.7989858424438 300.5798425837421 300.455120364152 300.7172585069827 300.8908553026451 300.28545820576767 300.2761932941375 300.6870003828976 300.0719863562869 300.6668921298917 300.38816618321414 300.8032343800314 300.83085597457216 300.4242971955603 300.4267119968769 300.11618179613686 300.1619202698495 300.8610067967803 300.72429134303815 300.9417508481491 300.4197153501934 300.2416048630383 300.60951226788245 300.4361995375917 300.2698353594969 300.4809914380228 300.5164899961488 300.2435030036493 300.4167123113975 300.3536833767608 300.4781566891413 300.0514556889589 300.64965833561934 300.68753478553515 300.26008504104016 300.0561796262462 300.24340227368964 300.6081404606697 300.7065812986055 300.0978989926716 300.83323707173173 300.66447000222706 300.79948158286294 300.47264123996746 300.8955392379613 300.9427433468092 300.2825544734575 300.2194029724355 300.3069299236838 300.9332113164128 300.45019562043 300.4870144554881 300.1947693086312 300.122751765071 300.32324063155477 300.2008287356777 300.49164451786464 300.70768454347126 300.51921797873325 300.52715381014116 300.424654118796 300.30811476988697 300.47155847653613 300.3092336429812 300.51814290001744 300.44427039169676 300.9390274331688 300.42715739301354 300.65102791923107 300.9271993618753 300.85664657006384 300.5954447272539 300.93925011627067 300.91621775255317 300.71805304848283 300.6994084313173 300.82708927811944 300.0489702191849 300.51653745088555 300.4033575426755 300.4546896385294 300.6205334034776 300.3350678669153 300.6185533555936 300.88048210127545 300.55999025985784 300.04822601338986 300.0753009029489 300.3029813905676 300.0648981520104 300.5828158151016 300.63103461616015 300.05341794735546 300.389053298403 300.6161247311451 300.2329422504454 300.390298544741 300.6220437905211 300.8559841189044 nan 300.67918861218334 300.60897577605664 300.1189783583696 300.1288031662665 300.0883643639226 300.3046738561384 300.512263265242 300.30946990979965 300.81241845823087 300.3938484490131 300.54749040772435 300.1544865857537 300.7232714088626 300.0755958551012 300.4926876107554 300.9475280448562 300.73571431393424 300.7004606816486 300.61322767725824 300.9010367471839 300.4431880599329 300.8528588123198 300.9342875178621 300.7996507068786 300.7791421082014 300.13488537021175 300.8952146236661 300.73751772610217 300.07231425974686 300.9349711615157 300.7715729254403 300.32980945510036 300.1688539869641 300.3753589289954 300.84107821951113 300.27738555958206 300.06310113929646 300.0631578077273 300.4906741191422 300.078151226409 300.6990044626941 300.89277579954194 300.5265696140493 300.2000832986567 300.3857114895671 300.6299715949869 300.75229683844714 300.2332130573325 300.34306842358274 300.18211979336695 300.2615234807063 300.78153551051906 300.82193885386386 300.94776725796993 300.5321070132777 300.7770778664868 300.1195692714963 300.06311314044063 300.16206131632254 300.3333983247057 300.21751469994626 300.8936077935887 300.21811455552364 300.30034367885975 300.04804046874676 300.53842922120236 300.6362619957334 300.23662477771086 300.4046295267903 300.58991837755354 300.767895330815 300.8667548793181 300.85866412682515 300.5428412097926 300.42554402730855 300.06546625210444 300.2942415216009 300.78101168387536 300.23973526629567 300.477959930509 300.3237192501 300.3129771587424 300.92620470600525 300.1954894641992 300.9084000314187 300.7229405974674 300.5501180470037 300.7795918978221 300.24250885959685 300.3735030363779 300.7539832169948 300.22834731688005 300.12876933573386 300.1630733142573 300.04166272203645 300.92994324475626 300.5318837465909 300.5961260062313 300.8313352381552 300.25857416418535 300.60463240186704 300.5483033964595 300.05491032600145 300.76765887980196 300.4534148845351 300.0644493079592 300.11103550533664 300.605777530872 300.05421303350374 300.6543821574561 300.27939845478073 300.9282348900019 300.5669696641546 300.20527960088907 300.2155354784509 300.5362940472856 300.7944555483032 300.1902306803073 300.08469302548446 300.5639625945325 300.5067310596314 300.6022447206269 300.75399488787264 300.07221521066646 300.7035323415125 300.4471699929639 300.30105917945394 300.84083361899366 300.4128928431941 300.7386616210555 300.4804081417726 300.207271249215 300.169067618148 300.28604064889186 300.7353744082858 300.45268897717955 300.7874304466539 300.0746073372941 300.89544958049635 300.92660128028876 300.485855607164 300.3804744003268 300.92967140975924 300.31055109076675 300.84657764365454 300.0560392210928 300.53033555305024 300.93295583681 300.5628095857495 300.5798373949406 300.3177717787583 300.5967135431605 300.9361748023868 300.43251819743415 300.28248219018974 300.81795254057823 300.87542908143564 300.35546291802876 300.9185594100139 300.36278617280266 300.4552373315535 300.53733523904475 300.8980973719249 300.64097388785297 300.56242059720523 300.80202424785176 300.2584953134223 300.3917229905234 300.0615585958248 300.88569603949844 300.0704131884599 300.5490288408123 300.7111740342292 300.1760416155842 300.11571693056777 300.6142160103773 300.9356344134602 300.8315965085117 300.2202136782413 300.7216040317276 300.60130342077247 300.5509144007191 300.32887215830897 300.60838595734384 300.60897577605664 300.39781454044487 300.93763299543923 300.752204122213 300.8592464929477 300.33895907060537 300.64514066288586 300.51303922363843 300.1928063199843 300.4824279166627 300.6444861578309 300.8056910532749 300.4189125511094 300.06878082889307 300.5306613508734 300.7008005309421 nan 300.3730318387759 300.75984732234275 300.48934260944657 300.3381809495643 300.64059368599686 300.7125473990084 300.1713063321376 300.1169130861367 300.1696991771149 300.4270206477422 300.51931773922865 300.14041401079277 300.3310957983075 300.48470046103085 300.14025819469174 300.8510194389514 300.7088484820972 300.60993892769386 300.89276304742236 300.28590316563003 300.13357111492127 300.2471781905067 300.1294117525471 300.37392013721956 300.14484938442547 300.2307748347089 300.4886358808851 300.92689442881823 300.92993882421865 300.239814013116 300.9393317659654 300.9232378312184 300.3971453032664 300.5185210975184 300.5700510010015 300.16383631725057 300.7201453514102 300.6563455608583 300.85070071722686 300.65601796838376 300.92519439419095 300.1770802207738 300.9376674429916 300.6223766829467 300.83016336423333 300.29401237620624 300.1470740494713 300.5057997198683 300.84570053882175 300.71247115922375 300.1601847662956 300.27213005910176 300.0765217344081 300.7548443591269 300.4903378539377 300.33146806894183 300.7704036810523 300.6481877520074 300.39611106093275 300.4163856979778 300.16408863921225 300.58235083362877 300.46269088265444 300.7176327688487 300.65989757714937 300.34514096140276 300.2782933580583 300.78314098360624 300.4041383164857 300.4042684246385 300.1413590838882 300.9322217283395 300.2078949302581 300.5891042965277 300.25000997926816 300.7483727801904 300.37022416471183 300.6503967554489 300.3733722053673 300.7391940983974 300.1823259278526 300.3596204718473 300.6409954266478 300.4431092481776 300.1165104415118 300.8307808779082 300.77021002844333 300.8357378744492 300.4247894561971 300.73582797938025 300.74853896355205 300.6689328754047</DataArray>
<DataArray type="Float64" Name="g_hot" format="ascii">0.0002657611709787568 0.0 0.0 0.0 0.0 0.0 0.0 0.0 0.000575160847068018 0.0 0.0 0.0 0.0006718861510702539 0.0 0.0 0.0 0.0 0.0 0.0 0.0 0.0 0.0 0.0 0.0 0.0 0.0005080787340560516 0.0004442195403176228 0.0 0.0 0.0 0.0 0.0 0.0 0.00038160974830315873 0.0 0.0 0.0 0.0 0.0 0.0 0.0 0.0 0.0 0.0 0.0 0.00046914922998977617 0.0 0.0 0.0 0.0 0.0 0.0 0.0 0.0 0.0 0.0 0.0002652809831103615 0.0 0.0 0.00046049104225815297 0.00043463778022624763 0.0 0.0 0.0 0.0 0.0 0.0 0.0 0.0 0.0 0.0 0.0 0.0 0.0 0.0 0.0 0.0 0.0 0.0 0.0 0.0 0.0 0.0 0.0 0.0 0.0003201296612311955 0.0 0.0 0.0 0.0 0.0 0.0 0.00029319788539483046 0.0 0.0 0.0 0.0 0.0 0.0 0.0 0.0 0.0 0.0 0.0 0.0 0.0007453643404402978 0.0 0.0 0.0 0.0 0.0 0.0 0.0 0.0 0.0 0.0 0.0 0.0 0.0 0.0 0.0 0.0 0.0 0.0 0.0 0.0 0.00048634555616351656 0.0 0.0 0.0 0.0 0.0 0.0 0.0 0.0 0.0 0.0 0.0 0.0 0.0 0.0 0.0 0.0 0.0 0.0 0.0 0.0 0.0 0.0 0.0 0.0 0.0 0.0006033837916285124 0.0 0.0 0.0 0.0007217257096709249 0.0 0.0 0.0 0.0 0.0 0.0 0.0 0.0 0.0 0.0 0.0 0.0 0.0 0.0 0.0 0.0 0.0003907121702737197 0.0 0.0 0.0007980325807885289 0.0 0.0 0.0007687288208464673 0.0 0.0 0.0 0.0 0.0 0.0 0.0 0.0 0.0 0.0 0.0 0.0 0.0 0.0 0.0 0.0 0.0 0.0 0.0 0.0 0.0 0.0 0.0 0.0 0.0 0.0 0.0 0.0 0.0 0.0 0.0 0.0 0.0 0.0 0.0 0.0 0.0 0.0 0.0 0.0 0.0 0.0 0.0004289195728805112 0.0 0.0 0.0 0.0 0.0 0.0 0.00043358966777357625 0.0 0.0 0.0 0.0 0.0 0.0 0.00045118510613715955 0.0 0.0 0.0 0.0 0.0 0.0 0.0 0.0 0.0 0.0 0.0 0.0 0.0 0.0 0.0 0.0 0.0 0.0 0.0 0.0 0.0 0.0 0.0 0.0007478261830131384 0.0 0.0 0.0 0.0 0.0 0.0 0.0 0.0 0.0 0.0 0.0 0.0 0.0 0.0 0.0 0.0 0.0 0.0 0.0 0.0 0.0 0.0 0.0 0.0 0.0 0.0 0.0 0.0 0.0006488882800605971 0.0 0.0 0.0 0.0 0.0 0.0 0.0 0.0 0.0 0.0 0.0 0.0 0.0006896085846333411 0.0 0.0 0.0 0.0 0.0 0.0 0.0 0.0 0.0 0.0 0.0 0.0 0.0 0.0 0.0 0.000676863354008769 0.0 0.0 0.0 0.0 0.0 0.0 0.0 0.0 0.0 0.0 0.0 0.0 0.0 0.0 0.0 0.0 0.0 0.0 0.0 0.0 0.0 0.0 0.0 0.0 0.0 0.0 0.0 0.0006163635290962631 0.0 0.0 0.0008488344950577822 0.0 0.0 0.0 0.0 0.00021349473061412999 0.0 0.0 0.0 0.0 0.0007940705258350796 0.0 0.0 0.0 0.0 0.0 0.0 0.0 0.0 0.0 0.0 0.0 0.0 0.0 0.0 0.0 0.0 0.0 0.0 0.0 0.0 0.0 0.0 0.0 0.0006056335525711896 0.0 0.0 0.0 0.0 0.0 0.0 0.0 0.0 0.0 0.0003341676226087741 0.0 0.0 0.0 0.0 0.0 0.0 0.0 0.0 0.0 0.0 0.0 0.0 0.0 0.0 0.0 0.0 0.0 0.0 0.0 0.0 0.0 0.0 0.0 0.0 0.0 0.0 0.0 0.0 0.0 0.0 0.0 0.0 0.0 0.0 0.0 0.0 0.0 0.0 0.0 0.0 0.0 0.0009037698822156003 0.0006935055875766256 0.0 0.0005952310475773254 0.0004980461825975582 0.0 0.0 0.0 0.0 0.0 0.0 0.0 0.0 0.0006621178142898736 0.0 0.0008068457101577724 0.0 0.0 0.0 0.0 0.0 0.0 0.0 0.0 0.0 0.0 0.0 0.0 0.0 0.0 0.0 0.0 0.0 0.0 0.0 0.0 0.0 0.0 0.0 0.0 0.0 0.0 0.0 0.0 0.00040736961104137357 0.0 0.0 0.0 0.0 0.0 0.0 0.0 0.0 0.0 0.0 0.0 0.0 0.0 0.0 0.0 0.0 0.0 0.0 0.0 0.0</DataArray>
<DataArray type="Float64" Name="g_cold" format="ascii">0.0 0.0005946397552731436 0.0 0.0 0.0 0.0 0.00023600092913228927 0.0 0.0 0.0 0.0 0.0 0.0 0.0 0.0 0.0 0.0 0.0 0.0 0.00041121337350736404 0.0 0.0 0.0 0.0 0.0 0.0 0.0 0.0 0.0 0.00034365162381589694 0.0003182710143121796 0.0 0.0 0.0 0.0 0.0 0.0 0.0 0.0 0.0 0.0 0.0005547039197187145 0.0 0.0 0.0 0.0 0.0 0.0 0.0 0.0 0.0 0.0 0.0 0.0 0.0 0.0 0.0 0.0 0.0 0.0 0.0 0.0 0.0 0.0 0.0 0.0 0.0 0.0 0.0 0.0 0.0 0.0 0.0 0.0 0.0 0.0 0.0 0.0 0.0 0.0 0.0 0.0 0.0 0.0005704353061928276 0.0 0.0 0.0004495513747630002 0.0 0.0005538920820442428 0.0 0.0 0.0 0.0 0.0 0.0 0.0 0.0 0.0 0.0 0.000578010759892327 0.0 0.0 0.0 0.0 0.0007567442884280054 0.0 0.0 0.0 0.0 0.0 0.0 0.0 0.0 0.0 0.0 0.0006012170307537866 0.0 0.0 0.0 0.0 0.0 0.0 0.0 0.0 0.0 0.0 0.0 0.0 0.0 0.0 0.0 0.0 0.0 0.0 0.0 0.0 0.0 0.0 0.0005598766989868457 0.0 0.0 0.0 0.000577807855665183 0.0 0.0 0.0 0.0 0.0 0.0 0.0 0.0 0.0 0.0 0.0 0.0 0.0 0.0 0.0 0.0 0.0 0.0 0.0 0.0 0.0 0.0 0.0 0.0 0.0 0.0 0.0 0.0 0.0 0.0 0.0 0.0 0.0 0.0 0.0 0.0 0.0 0.0 0.0 0.0 0.0 0.0006417646905746728 0.0 0.0 0.0 0.0 0.0 0.0 0.0 0.0 0.0005623716903155815 0.0007382830880281665 0.0 0.0007659385863555957 0.0 0.0 0.0005771151688080999 0.0 0.0 0.0 0.0 0.0 0.0 0.0 0.0 0.0 0.0 0.0 0.0006192430202016068 0.0 0.0 0.0 0.0 0.0 0.0 0.0 0.0 0.0006710155870532364 0.0 0.0 0.0 0.0 0.0 0.0 0.0 0.0 0.0 0.0 0.0 0.0 0.0 0.0 0.0005666232593782252 0.0 0.0 0.0 0.0 0.0 0.0 0.0 0.0005237002177471419 0.0005860562413867881 0.0 0.000697037960277925 0.0 0.0 0.0 0.0 0.0 0.0 0.0 0.0 0.0 0.0 0.0 0.0 0.0 0.0 0.0 0.0 0.0 0.000730932225359096 0.0 0.0 0.0 0.0 0.0 0.0 0.0006310799617072333 0.0 0.0 0.0 0.0 0.0 0.0 0.0 0.0 0.0 0.0 0.0005680333776006546 0.0 0.0 0.0 0.0 0.0 0.0 0.0 0.0 0.0 0.0 0.0 0.0 0.0 0.0 0.0 0.0 0.0 0.0 0.0006205335752950022 0.0 0.0 0.0 0.0 0.0 0.0 0.0 0.00045854325648558966 0.0 0.0 0.00028750985734128106 0.0 0.0 0.00045854325648558966 0.0 0.0 0.0 0.0 0.0 0.0 0.0 0.0 0.0 8.63823944354768e-05 0.0 0.0 0.0 0.0 0.000711801881191949 0.0 0.0 0.0 0.0 0.0 0.0 0.0 0.0 0.0 0.0 0.0 0.0 0.0 0.0008517405227347133 0.0 0.0 0.0 0.0 0.0 0.0 0.0 0.0006417646905746728 0.0 0.0 0.0 0.0 0.0 0.0 0.0 0.0 0.0 0.0 0.0 0.0 0.0 0.0 0.0 0.0 0.0 0.0 0.0 0.0 0.0 0.0 0.0004273896560147504 0.0 0.0006941627460966241 0.0 0.0 0.0 0.0 0.0 0.0 0.0 0.0 0.0 0.0 0.0 0.0 0.0 0.0 0.0 0.0 0.0 0.0 0.0 0.0 0.0 0.0 0.0 0.0 0.0 0.0 0.00039790375417366825 0.0 0.0 0.0 0.0 0.0 0.0 0.0 0.0 0.0 0.0 0.0 0.0 0.0 0.0 0.0 0.0 0.0 0.0 0.0 0.0 0.0 0.0 0.0 0.0 0.0 0.0 0.0 0.0 0.0 0.0 0.0 0.0 0.0 0.0 0.0 0.0 0.0 0.0 0.0 0.0 0.0 0.0 0.0 0.0 0.0 0.0 0.0 0.0 0.0 0.0 0.0 0.0 0.0 0.0 0.0 0.000667703075914362 0.0 0.0 0.0 0.0 0.0 0.0 0.0 0.0 0.0 0.0 0.0 0.0 0.0 0.0 0.0 0.0 0.0 0.0 0.0 0.0 0.0 0.0 0.0 0.0 0.0 0.0 0.0 0.0 0.0 0.0 0.0 0.0 0.0 0.0 0.0 0.0 0.0 0.0 0.0</DataArray>
</PointData><Points>
<DataArray type="Float64" Name="Points" format="ascii" NumberOfComponents="3">0.00610135 0.00588391 0.000726457 0.0117176 0.00471581 0.0147385 0.0131593 0.00653798 0.0111459 0.00564264 0.00496125 0.00781939 0.0128613 0.0104839 0.0118079 0.0107325 0.0109337 0.0120231 0.015305 0.00018287 0.0146392 0.000408094 0.0135494 0.0105787 0.00321948 0.00530743 0.00063973 0.0151601 0.0113209 0.00665277 0.0133263 0.0106422 0.00707602 0.00350727 0.00257492 0.00679885 0.00929778 0.00416015 0.000599523 0.0122971 0.0117598 0.00403535 0.00324935 0.00513299 0.00402231 0.0141789 0.0152014 0.00722503 0.013219 0.012258 0.0145919 0.00420246 0.00130552 0.00695997 0.00672953 0.00154997 0.00292604 0.0134272 0.00509974 0.014677 0.0102559 0.0122012 0.0118239 0.000906484 0.00876343 0.00203325 0.0118628 0.0103961 0.0128577 0.00902999 0.000306356 0.00366445 0.00788632 0.00726696 0.00880959 0.0110799 0.00823283 0.000663952 0.0059405 0.00306427 0.000684223 0.00746832 0.000537919 0.00200279 0.000128037 0.0123656 0.011289 0.000594973 0.010543 0.01466 0.0103333 0.0153605 0.0146544 0.00672603 0.0109501 0.00283634 0.0062957 0.00446283 0.00106237 0.00474988 0.0135997 0.000701458 0.00452433 0.000908892 0.00177293 0.00080875 0.00797313 0.0051201 0.00281459 0.0128358 0.00575629 0.00174726 0.00828256 0.00362045 0.0069253 0.0121949 0.0140525 0.00496708 0.00232708 0.0121734 0.0148507 0.00255031 0.0102542 0.00608516 0.00257268 0.0147232 0.00987886 0.0124054 0.00710925 0.0093316 0.0115426 0.00824901 0.000498389 0.00925524 0.00931856 0.0073139 0.00927887 0.000676633 0.00763379 0.0018985 0.00582374 0.00828365 0.00668188 0.0121186 0.00600109 0.0135858 0.00150731 0.0113682 0.00191826 0.00963399 0.0141013 0.0103253 0.00832272 0.00522192 0.0137534 0.00359735 0.00340968 0.00929335 0.013039 0.00444588 0.00989183 0.00761027 0.00648051 0.00585378 0.0100765 0.00852074 0.00341972 0.00860685 0.00476171 0.00195092 0.000726542 0.00314155 0.0052685 0.00818987 0.00605247 0.00440487 0.00969835 0.00284525 0.00665236 0.000679316 0.0013122 0.00824075 0.00068703 0.0151343 0.0153013 0.0129065 0.00602605 0.0100457 0.00836521 0.00344849 0.0126531 0.0037613 0.0103372 0.00931924 0.00575066 0.0053855 0.00627592 0.0110007 0.0101746 0.00693124 0.00660717 0.0122815 0.00271734 0.0141222 0.0135943 0.00696544 0.0146199 0.00643395 0.0101107 0.00150461 0.00940344 0.0130956 0.0124166 0.00988807 0.000111227 0.0113742 0.000140901 0.00620329 0.00511977 0.00302956 0.00824819 0.00418697 0.000465028 0.0150056 0.0106486 0.00180533 0.00139059 0.00245823 0.0148524 0.012653 0.00609264 0.00876513 0.00960276 0.0146131 0.00586817 0.00880348 0.0125141 0.00546388 0.00112024 0.0114318 0.00842757 0.00333149 0.00503815 0.00187675 0.013273 0.0142171 0.0104623 0.0124337 0.0103773 0.0147163 0.0117339 0.0147291 0.0107916 0.00115696 0.0109376 0.000293479 0.0107405 0.000715839 0.0045566 0.00528538 0.014688 0.00471309 0.0109888 0.00386656 0.00925327 0.0142087 0.0147229 0.00374636 0.010294 0.00460437 0.00139747 0.00121062 0.00088894 0.0131265 0.00325584 0.0119463 0.00810545 0.000111695 0.000721345 0.000968955 0.0101625 0.00186428 0.0142173 0.0126167 0.00213554 0.00216485 0.00366868 0.00660541 0.014288 0.00652945 0.00244207 0.00492239 0.0139001 0.0115477 0.00803512 0.0144171 0.00998421 0.001757 0.00536204 0.014732 0.0152049 0.00971958 0.00598617 0.0068535 0.0144281 0.00269821 0.00519731 0.00999398 0.00601404 0.00177143 0.0121713 0.0127257 0.00554147 0.0129799 0.0145138 0.0106244 0.00207117 0.000861108 0.00757862 0.0112868 0.00434556 0.00589441 0.0040254 0.00279359 0.0150142 0.00124446 0.00632415 0.0113087 0.0120931 0.00813124 0.0106274 0.00304266 0.00410813 0.00794335 0.00458866 0.00136535 0.0103379 0.00625973 0.0114528 0.013877 0.0114885 0.011014 0.0136623 0.00963111 0.00480633 0.0132265 0.00139494 0.014461 0.0126107 0.00626454 0.00526051 0.0130859 0.0153409 0.00921098 0.00518822 0.00223584 0.00256459 0.0072999 0.00295929 0.00221396 0.0128072 0.00774 0.00908349 0.0146217 0.00851366 0.00851481 0.0050132 0.00480384 0.0131207 0.0152731 0.0122759 0.0132571 0.0113347 0.0137982 0.00177578 0.00609824 0.010032 0.00419152 0.00561965 0.0151263 0.000940867 0.00694184 0.00867743 0.00889435 0.0147473 0.00668341 0.0113261 0.00841359 0.0084257 0.00547276 0.00892358 0.0152892 0.00883999 0.00147678 0.00643161 0.0107234 0.0041813 0.00662463 0.00807353 0.00598505 0.0118139 0.00746799 0.0127017 0.000110922 0.012105 0.0126912 0.00292425 0.00917499 0.0122507 0.00458231 0.00986678 0.000400974 2.4822e-05 0.0076785 0.00339026 0.000812728 0.014449 0.0017011 0.00204408 0.00491553 0.00694745 0.0141291 0.00472719 0.00605994 0.00440103 0.0114215 0.00568092 0.011088 0.0144541 0.0130463 0.00490796 0.0115728 0.00657905 0.000412945 0.00576939 0.00750013 0.000570754 0.00409625 0.00842112 0.0128424 0.014358 0.00374168 0.011515 0.00260825 0.00186534 0.00927531 0.00504287 0.00861557 0.0116393 0.00278658 0.00268976 0.0113526 0.00839514 0.00952857 0.0104559 0.00103388 0.00609628 0.00765367 0.000908982 0.015247 0.00490539 0.0109523 0.00641148 0.0152112 0.0121345 0.00935541 0.0138906 0.0109285 0.0121092 0.0095476 0.000869778 0.00791563 0.0122754 0.00874058 0.0101884 0.00826467 0.00755535 0.0025465 0.00796451 0.0125732 0.00453828 0.00655686 0.0135834 0.0124617 0.001157 0.0105201 0.00086573 0.00705345 0.0124533 0.0010305 0.00795787 0.00810562 0.00730451 0.00456579 0.00429267 0.00171034 0.00539966 0.0073222 0.00199694 0.00197999 0.00727846 0.0017111 0.000746206 0.00885008 0.0119308 0.0116916 0.0108667 0.00712809 0.0146305 0.00842869 0.00154253 0.00863755 0.0107422 0.0080434 0.0134299 0.00725817 0.0111433 0.00694793 0.00854193 0.0152498 0.00729416 0.000961836 0.0128353 0.0113142 0.00908673 0.0141283 0.00273951 0.00560883 0.0121822 0.0125047 0.000840786 0.00594983 0.00600315 0.0024658 0.0046906 6.85557e-05 0.00597007 0.00151079 0.00546937 0.000852264 0.0152712 0.00034132 0.00114595 0.00190065 0.0131454 0.00428428 0.0153437 0.0129269 0.00451838 0.00511703 0.0101176 0.0025782 0.00195329 0.0115643 0.0144736 0.000190646 0.0134963 0.00737844 0.0141025 0.00513138 0.00947694 0.00345844 0.0013449 0.00842434 0.00116394 0.000317307 0.00572811 0.00658093 0.0153419 0.0101982 0.00713619 0.0100705 0.00575846 0.0151211 0.0054567 0.00154519 0.000278818 0.00483135 0.00618947 0.00229801 0.00965966 0.0144497 0.00829289 0.00433326 0.0145069 0.0108581 0.00443733 0.0113705 0.0117275 0.0145051 0.0145173 0.0139952 0.00577683 0.00651482 0.00364667 0.00892887 0.00557959 0.00877499 0.000477601 0.0144539 0.00218062 0.00496916 0.00954555 0.00268003 0.00510171 0.00574284 0.0144521 0.00979825 0.0118808 0.0152118 0.000698226 0.00943239 0.00620654 0.00832739 0.00523734 0.000251373 0.0135367 0.00222076 0.0151872 0.00619755 0.00813797 0.00432417 0.00184756 0.00495445 0.00754202 0.00647267 0.00484806 0.00472794 0.00312661 0.0139351 0.00750461 0.0106427 0.0139331 0.00797952 0.00679151 0.0144665 0.00425777 0.0021485 0.0106735 0.00835291 0.00891797 0.0073962 0.0141607 0.0152159 0.010789 0.0145543 0.00355354 0.00270893 0.00516449 0.00727366 0.00964166 0.00176425 0.0123739 0.00710227 0.0102073 0.0141663 0.0133971 0.000115054 0.00323268 0.00436539 0.0122921 0.010764 0.0144832 0.00988712 0.0100631 0.00785927 0.00227013 0.00371971 0.000954007 0.0083976 0.009551 0.00390556 0.0120699 0.0147357 0.00487253 0.00561507 0.00410671 0.00629114 0.00335431 0.0126207 0.00105695 0.00995957 0.00142228 0.0087712 0.00480507 0.00823777 0.00200027 0.00884382 0.0086451 0.000953 0.0135897 0.0087249 0.00292243 0.00926036 0.0133802 0.00330743 0.00508361 0.0143228 0.0132382 0.0134331 0.00816312 0.00104772 0.0110565 0.0129142 0.00375025 0.0149699 0.00803392 0.0144509 0.0098843 0.00569706 0.000949108 0.00352221 0.00144007 0.00328906 0.0153184 0.0104658 0.010282 0.00775995 0.000976374 0.0129544 0.00668748 0.0134064 0.0101069 0.00283745 0.0051993 0.00229915 0.00618783 0.0025258 0.0106964 0.0112908 0.0013845 0.0144392 0.00155904 0.0149562 0.0144565 0.00347126 0.00841221 0.00821453 0.00625966 0.00416675 0.0144921 0.00231846 0.00373622 0.00434161 0.00333269 0.00227702 0.00161919 0.00645393 0.00899285 0.00710708 0.00845796 0.00383956 0.0126755 0.0112198 0.00840147 0.00987613 0.0138114 0.0114078 0.00558436 0.00460004 0.00877497 0.00384889 0.00657515 0.0102778 0.0122978 0.00686308 0.00974815 0.0104563 0.0129252 0.0117915 0.0129213 9.55589e-06 0.00123007 0.0112874 0.012917 0.000126746 0.00325698 0.0141559 0.0141547 0.00320179 0.0153638 0.0123609 0.000860189 0.0107394 0.00232397 0.00733828 0.0098926 0.00929801 0.00263399 0.00925751 0.00240258 0.0142056 0.0141596 0.00335176 0.0145042 0.0016423 0.00543989 0.0130417 0.000192264 0.00763644 0.00988613 0.0110781 0.00889696 0.012636 0.0141213 0.0019768 0.00109104 0.00245445 0.0104931 0.0123796 0.011493 0.00984042 0.0110711 0.00164417 0.00788354 0.0144702 0.00892212 0.00180469 0.00718658 0.0087802 0.0148512 0.00509543 0.00606978 0.00716785 0.0122636 0.00935618 0.00664764 0.0090234 0.0029514 0.000977679 0.00587933 0.0130448 0.00694203 0.00348486 0.00797139 0.00997282 0.00207478 0.00869291 0.0147868 0.0021781 0.0094671 0.00364807 0.00708157 0.0145856 0.0142989 0.0087989 0.00250638 0.00251356 0.0144513 0.0082053 0.000245139 0.0112101 0.0135355 0.00197941 0.00298636 0.0136844 0.00174911 0.0118123 0.00206068 0.00955044 0.00880916 0.0118933 0.0029406 0.0109044 0.00291447 0.00082531 0.0103307 0.0135644 0.0062868 0.000894736 0.00300635 0.00412115 0.0126468 0.0116253 0.00662971 0.00100196 0.00406094 0.00343099 0.00356093 0.012031 0.00511796 0.00692809 0.0111561 0.00668828 0.00310923 0.00165236 0.00040577 0.0115658 0.0104442 0.00531781 0.00971621 0.00652012 0.0126529 0.00346458 0.000596073 0.0109432 0.0120274 0.00175772 0.00109608 0.0134069 0.0129104 0.00408412 0.0133379 0.0029436 0.00645581 0.0144669 0.00352002 0.0107148 0.00088111 0.0084519 0.0152841 0.00695295 0.010453 0.0142266 0.00592079 0.0133673 0.00507231 0.00238011 0.0128742 0.00880729 0.0119687 0.00899395 0.0102211 0.00605196 0.00480573 0.0080748 0.00688147 0.003325 0.0143225 0.0144232 0.00902144 0.00737443 0.00347096 0.00227587 0.00664207 0.00864786 0.00386816 0.00824252 0.0143913 0.0114805 0.0126982 0.0139477 0.00137091 0.0138096 0.00592945 0.000530747 0.00637393 0.0144232 0.00446454 0.00735028 0.00513411 0.0117088 0.00747845 0.0116189 0.0122306 0.0048128 0.000885464 0.0117829 0.00696799 0.00680975 0.00835588 0.0143255 0.0125809 0.0149062 0.00337483 0.0120389 0.0123696 0.00325544 0.00735387 0.00204442 0.0108927 0.00330101 0.014401 0.00800786 0.0126545 0.00612744 0.00723658 0.0143725 0.0103474 0.000471771 0.0069295 0.011839 0.0102578 0.00790487 0.0127943 0.00026438 0.00640004 0.000706841 0.0145357 0.00368238 0.00647114 0.00915142 0.0144973 0.0135796 0.00112303 0.00471039 0.000468658 0.00222515 0.00842297 0.00552384 0.0085144 0.0109798 0.00198555 0.0126486 0.00249904 0.0107972 0.0107695 0.00949678 0.0082373 0.0022954 0.0037132 0.0109188 0.00426286 0.00820171 0.00442288 0.00802972 0.0124874 0.00346998 0.00229533 0.0128675 0.00785592 0.011269 0.0111828 0.0153282 0.00711132 0.00356177 0.000929073 0.00409095 0.00841085 0.013318 0.010695 0.00323788 0.0112531 0.00911038 0.014552 0.00451755 0.00646184 0.00105769 0.00822373 0.00194359 0.000905024 0.0130113 0.00607976 0.00821247 0.00659911 0.0115298 0.0098275 0.00500844 0.00961584 0.00081987 0.00964017 0.00810693 0.0115189 0.0118825 0.0082028 0.00217858 0.00310882 0.00440618 0.0144736 0.0134671 0.00774582 0.00731047 0.00763904 0.0136286 0.000988605 0.00413718 0.00502779 0.00692196 0.0107688 0.0108787 0.00640708 0.00955435 0.0102671 0.0109883 0.00544794 0.0022627 0.00650547 0.0145597 0.00387892 0.000842363 0.00680914 0.0032933 0.008622 0.0042629 0.00391804 0.011316 0.0126683 0.0127559 0.00269418 0.0101001 0.0075216 0.00177355 0.0119113 0.00638915 0.0101489 0.00763803 0.011646 0.00104104 0.00472568 0.000455694 0.0100011 0.0117384 0.000963079 0.00825171 0.00584758 0.0138834 0.00653193 0.00177242 0.0114231 0.00105547 0.0128822 0.00413753 0.00570748 0.00153257 0.00935515 0.00691444 0.0101301 0.00519092 0.00277241 0.00172261 0.00461265 0.0113195 0.00484566 0.00912546 0.00926259 0.00377298 0.0108092 0.0144163 0.00635389 0.00151574 0.00123427 5.35942e-05 0.0137889 0.0144911 0.0101128 0.00539865 0.00695459 0.00208631 0.000364545 0.00403015 0.00863114 0.0116843 0.0128227 0.00494855 0.00964249 0.013519 0.000616427 0.00293212 0.00623972 0.00310216 0.000601794 0.000908302 0.00823655 0.0055953 0.00300341 0.0119248 0.00199644 0.0126038 0.0134439 0.0129899 0.00445896 0.00685716 0.01238 0.00582047 0.00778111 0.0112587 0.00713781 0.0030558 0.00745159 0.0101217 0.000695039 0.00692591 0.00646992 0.00585087 0.00644631 0.00591544 0.00796172 0.0104475 0.00906554 0.0150396 0.00923067 0.000972083 0.0117204 0.00154573 0.00361404 0.00952712 0.00113039 0.00212589 0.00868841 0.00584054 0.0106477 0.00388026 0.00363276 0.00552311 0.000840812 0.0108388 0.00792202 0.010712 0.000511695 0.0128052 0.00510821 0.0153282 0.00801478 0.0118278 0.0125662 0.00573439 0.0153655 0.011464 0.00295158 0.00460212 0.0135841 0.00950264 0.000838549 0.00378602 0.0141523 0.00838557 0.00678246 0.00691085 0.00516709 0.00510728 0.00444245 0.0118508 0.00646728 0.013759 0.00429391 0.00529992 0.00971744 0.00541924 0.000355925 0.00375051 0.00277645 0.0148528 0.00735932 0.00184993 0.0114558 0.0103433 0.014303 0.00766937 0.00539193 0.0100473 0.0110032 0.00428757 0.00706197 0.00546606 0.013003 0.00547107 0.00101032 0.0138642 0.00943291 0.00563095 0.0133002 0.0151634 0.0122635 0.00919075 0.00405248 0.0128019 0.00732678 0.0136467 0.0147456 0.0138656 0.00740889 0.00753514 0.0106287 0.00626991 0.00685862 0.00790011 0.0150813 0.00173109 0.0134322 0.00172507 0.00708167 0.00216925 0.00626679 0.00262626 0.00449877 0.0121512 0.00900841 0.0062369 0.00441068 0.0040851 0.00130074 0.00355596 0.00930857 0.0110189 0.0102538 0.0109147 0.0139134 0.0140258 0.0134363 0.0119348 0.00380782 0.0126268 0.0133527 0.00230327 0.00280122 0.00955862 0.0145022 0.00547435 0.0131131 0.00159002 0.00257608 0.0118737 0.0117313 0.0142079 0.00769934 0.00192528 0.0142345 0.00108664 0.0137172 0.0109837 0.00115381 0.00340192 0.0060966 0.0118143 0.00793311 0.00672138 0.00117914 0.0054251 0.0117839 0.00120039 0.00805291 0.00172928 0.00971092 0.0135048 0.012595 0.00745951 0.00280207 0.00716806 0.0065841 0.00666004 0.00283875 0.0128572 0.0142541 0.00506974 0.00436986 0.00483438 0.0123782 0.00510901 0.00396555 0.0144595 0.00225751 0.00946042 0.00518139 0.00486491 0.00963367 0.0126271 0.00116232 0.00103157 0.0140464 0.0125384 0.0137201 0.0140822 0.0011198 0.00893072 0.012727 0.00542107 0.0118802 0.00312691 0.00218472 0.00296119 0.0137777 0.0111752 0.00977266 0.00788281 0.013861 0.0069451 0.00132918 0.00768603 0.00944267 0.00325923 0.00223748 0.00192392 0.00655049 0.00445349 0.000820398 0.00911987 0.0129553 0.0115897 0.0136015 0.011833 0.00701097 0.0145405 0.0142098 0.000153796 0.00926513 0.00374912 0.0143209 0.00391868 0.00769893 0.00795508 0.00387068 0.0106491 0.00396086 0.00677349 0.0031821 0.0145478 0.014689 0.0053889 0.00166517 0.0137483 0.00914031 0.00468502 0.0112376 0.00910221 0.00768332 0.00836238 0.0129653 0.00313805 0.010802 0.00638341 0.0138083 0.00154906 0.00801792 0.0036266 0.0143722 0.00459364 0.01069 0.00753715 0.0049716 0.0134127 0.00952022 0.0100291 0.00403312 0.0115968 0.0113211 0.0107233 0.0150992 0.00321297 0.00464868 0.00312059 0.00870708 0.00914681 0.00874213 0.00944346 0.00624945 0.0125239 0.0121352 0.0122995 0.000709191 0.00121681 0.00379222 0.000323684 0.0122498 0.00765752 0.00446909 0.00641417 0.00962816 0.00221139 0.0119869 0.0118793 0.00476597 0.00391628 0.0100375 0.0032072 0.00981489 0.00958156 0.00149809 0.00515553 0.0110583 0.0149783 0.00988326 9.61791e-05 0.00120907 0.0035721 0.0108501 0.00376661 0.0133897 0.0129507 0.0132919 0.00979129 0.011978 0.00217816 0.00560597 0.00778648 0.00523067 0.00870393 0.0142124 0.0100765 0.0139645 0.00294316 0.00920676 0.00239347 0.000918997 0.00482947 0.00315684 0.0113171 0.011057 0.00220569 0.00968696 0.0133506 0.00881869 0.0117118 0.00939076 0.00392036 0.00687357 0.00794686 0.00312245 0.00115116 0.0113184 0.00522118</DataArray>
</Points><Verts>
<DataArray type="Int64" Name="connectivity" format="ascii">0 1 2 3 4 5 6 7 8 9 10 11 12 13 14 15 16 17 18 19 20 21 22 23 24 25 26 27 28 29 30 31 32 33 34 35 36 37 38 39 40 41 42 43 44 45 46 47 48 49 50 51 52 53 54 55 56 57 58 59 60 61 62 63 64 65 66 67 68 69 70 71 72 73 74 75 76 77 78 79 80 81 82 83 84 85 86 87 88 89 90 91 92 93 94 95 96 97 98 99 100 101 102 103 104 105 106 107 108 109 110 111 112 113 114 115 116 117 118 119 120 121 122 123 124 125 126 127 128 129 130 131 132 133 134 135 136 137 138 139 140 141 142 143 144 145 146 147 148 149 150 151 152 153 154 155 156 157 158 159 160 161 162 163 164 165 166 167 168 169 170 171 172 173 174 175 176 177 178 179 180 181 182 183 184 185 186 187 188 189 190 191 192 193 194 195 196 197 198 199 200 201 202 203 204 205 206 207 208 209 210 211 212 213 214 215 216 217 218 219 220 221 222 223 224 225 226 227 228 229 230 231 232 233 234 235 236 237 238 239 240 241 242 243 244 245 246 247 248 249 250 251 252 253 254 255 256 257 258 259 260 261 262 263 264 265 266 267 268 269 270 271 272 273 274 275 276 277 278 279 280 281 282 283 284 285 286 287 288 289 290 291 292 293 294 295 296 297 298 299 300 301 302 303 304 305 306 307 308 309 310 311 312 313 314 315 316 317 318 319 320 321 322 323 324 325 326 327 328 329 330 331 332 333 334 335 336 337 338 339 340 341 342 343 344 345 346 347 348 349 350 351 352 353 354 355 356 357 358 359 360 361 362 363 364 365 366 367 368 369 370 371 372 373 374 375 376 377 378 379 380 381 382 383 384 385 386 387 388 389 390 391 392 393 394 395 396 397 398 399 400 401 402 403 404 405 406 407 408 409 410 411 412 413 414 415 416 417 418 419 420 421 422 423 424 425 426 427 428 429 430 431 432 433 434 435 436 437 438 439 440 441 442 443 444 445 446 447 448 449 450 451 452 453 454 455 456 457 458 459 460 461 462 463 464 465 466 467 468 469 470 471 472 473 474 475 476 477 478 479 480 481 482 483 484 485 486 487 488 489 490 491 492 493 494 495 496 497 498 499</DataArray>
<DataArray type="Int64" Name="offsets" format="ascii">1 2 3 4 5 6 7 8 9 10 11 12 13 14 15 16 17 18 19 20 21 22 23 24 25 26 27 28 29 30 31 32 33 34 35 36 37 38 39 40 41 42 43 44 45 46 47 48 49 50 51 52 53 54 55 56 57 58 59 60 61 62 63 64 65 66 67 68 69 70 71 72 73 74 75 76 77 78 79 80 81 82 83 84 85 86 87 88 89 90 91 92 93 94 95 96 97 98 99 100 101 102 103 104 105 106 107 108 109 110 111 112 113 114 115 116 117 118 119 120 121 122 123 124 125 126 127 128 129 130 131 132 133 134 135 136 137 138 139 140 141 142 143 144 145 146 147 148 149 150 151 152 153 154 155 156 157 158 159 160 161 162 163 164 165 166 167 168 169 170 171 172 173 174 175 176 177 178 179 180 181 182 183 184 185 186 187 188 189 190 191 192 193 194 195 196 197 198 199 200 201 202 203 204 205 206 207 208 209 210 211 212 213 214 215 216 217 218 219 220 221 222 223 224 225 226 227 228 229 230 231 232 233 234 235 236 237 238 239 240 241 242 243 244 245 246 247 248 249 250 251 252 253 254 255 256 257 258 259 260 261 262 263 264 265 266 267 268 269 270 271 272 273 274 275 276 277 278 279 280 281 282 283 284 285 286 287 288 289 290 291 292 293 294 295 296 297 298 299 300 301 302 303 304 305 306 307 308 309 310 311 312 313 314 315 316 317 318 319 320 321 322 323 324 325 326 327 328 329 330 331 332 333 334 335 336 337 338 339 340 341 342 343 344 345 346 347 348 349 350 351 352 353 354 355 356 357 358 359 360 361 362 363 364 365 366 367 368 369 370 371 372 373 374 375 376 377 378 379 380 381 382 383 384 385 386 387 388 389 390 391 392 393 394 395 396 397 398 399 400 401 402 403 404 405 406 407 408 409 410 411 412 413 414 415 416 417 418 419 420 421 422 423 424 425 426 427 428 429 430 431 432 433 434 435 436 437 438 439 440 441 442 443 444 445 446 447 448 449 450 451 452 453 454 455 456 457 458 459 460 461 462 463 464 465 466 467 468 469 470 471 472 473 474 475 476 477 478 479 480 481 482 483 484 485 486 487 488 489 490 491 492 493 494 495 496 497 498 499 500</DataArray>
</Verts></Piece></PolyData></VTKFile>