<?xml version="1.0"?>
<VTKFile type="PolyData" version="0.1" byte_order="LittleEndian">
<PolyData>
<Piece NumberOfPoints="500" NumberOfVerts="500" NumberOfLines="0" NumberOfStrips="0" NumberOfPolys="0">
<PointData>
<DataArray type="Int64" Name="id" format="ascii">1 2 3 4 5 6 7 8 9 10 11 12 13 14 15 16 17 18 19 20 21 22 23 24 25 26 27 28 29 30 31 32 33 34 35 36 37 38 39 40 41 42 43 44 45 46 47 48 49 50 51 52 53 54 55 56 57 58 59 60 61 62 63 64 65 66 67 68 69 70 71 72 73 74 75 76 77 78 79 80 81 82 83 84 85 86 87 88 89 90 91 92 93 94 95 96 97 98 99 100 101 102 103 104 105 106 107 108 109 110 111 112 113 114 115 116 117 118 119 120 121 122 123 124 125 126 127 128 129 130 131 132 133 134 135 136 137 138 139 140 141 142 143 144 145 146 147 148 149 150 151 152 153 154 155 156 157 158 159 160 161 162 163 164 165 166 167 168 169 170 171 172 173 174 175 176 177 178 179 180 181 182 183 184 185 186 187 188 189 190 191 192 193 194 195 196 197 198 199 200 201 202 203 204 205 206 207 208 209 210 211 212 213 214 215 216 217 218 219 220 221 222 223 224 225 226 227 228 229 230 231 232 233 234 235 236 237 238 239 240 241 242 243 244 245 246 247 248 249 250 251 252 253 254 255 256 257 258 259 260 261 262 263 264 265 266 267 268 269 270 271 272 273 274 275 276 277 278 279 280 281 282 283 284 285 286 287 288 289 290 291 292 293 294 295 296 297 298 299 300 301 302 303 304 305 306 307 308 309 310 311 312 313 314 315 316 317 318 319 320 321 322 323 324 325 326 327 328 329 330 331 332 333 334 335 336 337 338 339 340 341 342 343 344 345 346 347 348 349 350 351 352 353 354 355 356 357 358 359 360 361 362 363 364 365 366 367 368 369 370 371 372 373 374 375 376 377 378 379 380 381 382 383 384 385 386 387 388 389 390 391 392 393 394 395 396 397 398 399 400 401 402 403 404 405 406 407 408 409 410 411 412 413 414 415 416 417 418 419 420 421 422 423 424 425 426 427 428 429 430 431 432 433 434 435 436 437 438 439 440 441 442 443 444 445 446 447 448 449 450 451 452 453 454 455 456 457 458 459 460 461 462 463 464 465 466 467 468 469 470 471 472 473 474 475 476 477 478 479 480 481 482 483 484 485 486 487 488 489 490 491 492 493 494 495 496 497 498 499 500</DataArray>
<DataArray type="Int32" Name="type" format="ascii">1 1 1 1 1 1 1 1 1 1 1 1 1 1 1 1 1 1 1 1 1 1 1 1 1 1 1 1 1 1 1 1 1 1 1 1 1 1 1 1 1 1 1 1 1 1 1 1 1 1 1 1 1 1 1 1 1 1 1 1 1 1 1 1 1 1 1 1 1 1 1 1 1 1 1 1 1 1 1 1 1 1 1 1 1 1 1 1 1 1 1 1 1 1 1 1 1 1 1 1 2 2 2 2 2 2 2 2 2 2 2 2 2 2 2 2 2 2 2 2 2 2 2 2 2 2 2 2 2 2 2 2 2 2 2 2 2 2 2 2 2 2 2 2 2 2 2 2 2 2 2 2 2 2 2 2 2 2 2 2 2 2 2 2 2 2 2 2 2 2 2 2 2 2 2 2 2 2 2 2 2 2 2 2 2 2 2 2 2 2 2 2 2 2 2 2 2 2 2 2 2 2 2 2 2 2 2 2 2 2 2 2 2 2 2 2 2 2 2 2 2 2 2 2 2 2 2 2 2 2 2 2 2 2 2 2 2 2 2 2 2 2 2 2 2 2 2 2 2 2 2 2 2 2 2 2 2 2 2 2 2 2 2 2 2 2 2 2 2 2 2 2 2 2 2 2 2 2 2 2 2 2 2 2 2 2 2 2 2 2 2 2 2 2 2 2 2 2 2 2 2 2 2 2 2 2 2 2 2 2 2 2 2 2 2 2 2 2 2 2 2 2 2 2 2 2 2 2 2 2 2 2 2 2 2 2 2 2 2 2 2 2 2 2 2 2 2 2 2 2 2 2 2 2 2 2 2 2 2 2 2 2 2 2 2 2 2 2 2 2 2 2 2 2 2 2 2 2 2 2 2 2 2 2 2 2 2 2 2 2 2 2 2 2 2 2 2 2 2 2 3 3 3 3 3 3 3 3 3 3 3 3 3 3 3 3 3 3 3 3 3 3 3 3 3 3 3 3 3 3 3 3 3 3 3 3 3 3 3 3 3 3 3 3 3 3 3 3 3 3 3 3 3 3 3 3 3 3 3 3 3 3 3 3 3 3 3 3 3 3 3 3 3 3 3 3 3 3 3 3 3 3 3 3 3 3 3 3 3 3 3 3 3 3 3 3 3 3 3 3</DataArray>
<DataArray type="Float64" Name="radius" format="ascii">0.00075 0.00075 0.00075 0.00075 0.00075 0.00075 0.00075 0.00075 0.00075 0.00075 0.00075 0.00075 0.00075 0.00075 0.00075 0.00075 0.00075 0.00075 0.00075 0.00075 0.00075 0.00075 0.00075 0.00075 0.00075 0.00075 0.00075 0.00075 0.00075 0.00075 0.00075 0.00075 0.00075 0.00075 0.00075 0.00075 0.00075 0.00075 0.00075 0.00075 0.00075 0.00075 0.00075 0.00075 0.00075 0.00075 0.00075 0.00075 0.00075 0.00075 0.00075 0.00075 0.00075 0.00075 0.00075 0.00075 0.00075 0.00075 0.00075 0.00075 0.00075 0.00075 0.00075 0.00075 0.00075 0.00075 0.00075 0.00075 0.00075 0.00075 0.00075 0.00075 0.00075 0.00075 0.00075 0.00075 0.00075 0.00075 0.00075 0.00075 0.00075 0.00075 0.00075 0.00075 0.00075 0.00075 0.00075 0.00075 0.00075 0.00075 0.00075 0.00075 0.00075 0.00075 0.00075 0.00075 0.00075 0.00075 0.00075 0.00075 0.001 0.001 0.001 0.001 0.001 0.001 0.001 0.001 0.001 0.001 0.001 0.001 0.001 0.001 0.001 0.001 0.001 0.001 0.001 0.001 0.001 0.001 0.001 0.001 0.001 0.001 0.001 0.001 0.001 0.001 0.001 0.001 0.001 0.001 0.001 0.001 0.001 0.001 0.001 0.001 0.001 0.001 0.001 0.001 0.001 0.001 0.001 0.001 0.001 0.001 0.001 0.001 0.001 0.001 0.001 0.001 0.001 0.001 0.001 0.001 0.001 0.001 0.001 0.001 0.001 0.001 0.001 0.001 0.001 0.001 0.001 0.001 0.001 0.001 0.001 0.001 0.001 0.001 0.001 0.001 0.001 0.001 0.001 0.001 0.001 0.001 0.001 0.001 0.001 0.001 0.001 0.001 0.001 0.001 0.001 0.001 0.001 0.001 0.001 0.001 0.001 0.001 0.001 0.001 0.001 0.001 0.001 0.001 0.001 0.001 0.001 0.001 0.001 0.001 0.001 0.001 0.001 0.001 0.001 0.001 0.001 0.001 0.001 0.001 0.001 0.001 0.001 0.001 0.001 0.001 0.001 0.001 0.001 0.001 0.001 0.001 0.001 0.001 0.001 0.001 0.001 0.001 0.001 0.001 0.001 0.001 0.001 0.001 0.001 0.001 0.001 0.001 0.001 0.001 0.001 0.001 0.001 0.001 0.001 0.001 0.001 0.001 0.001 0.001 0.001 0.001 0.001 0.001 0.001 0.001 0.001 0.001 0.001 0.001 0.001 0.001 0.001 0.001 0.001 0.001 0.001 0.001 0.001 0.001 0.001 0.001 0.001 0.001 0.001 0.001 0.001 0.001 0.001 0.001 0.001 0.001 0.001 0.001 0.001 0.001 0.001 0.001 0.001 0.001 0.001 0.001 0.001 0.001 0.001 0.001 0.001 0.001 0.001 0.001 0.001 0.001 0.001 0.001 0.001 0.001 0.001 0.001 0.001 0.001 0.001 0.001 0.001 0.001 0.001 0.001 0.001 0.001 0.001 0.001 0.001 0.001 0.001 0.001 0.001 0.001 0.001 0.001 0.001 0.001 0.001 0.001 0.001 0.001 0.001 0.001 0.001 0.001 0.001 0.001 0.001 0.001 0.001 0.001 0.001 0.001 0.001 0.001 0.001 0.001 0.001 0.001 0.001 0.001 0.001 0.001 0.001 0.001 0.001 0.001 0.001 0.001 0.001 0.001 0.001 0.001 0.001 0.001 0.001 0.001 0.001 0.001 0.001 0.001 0.001 0.001 0.001 0.001 0.001 0.001 0.001 0.001 0.001 0.001 0.001 0.001 0.00125 0.00125 0.00125 0.00125 0.00125 0.00125 0.00125 0.00125 0.00125 0.00125 0.00125 0.00125 0.00125 0.00125 0.00125 0.00125 0.00125 0.00125 0.00125 0.00125 0.00125 0.00125 0.00125 0.00125 0.00125 0.00125 0.00125 0.00125 0.00125 0.00125 0.00125 0.00125 0.00125 0.00125 0.00125 0.00125 0.00125 0.00125 0.00125 0.00125 0.00125 0.00125 0.00125 0.00125 0.00125 0.00125 0.00125 0.00125 0.00125 0.00125 0.00125 0.00125 0.00125 0.00125 0.00125 0.00125 0.00125 0.00125 0.00125 0.00125 0.00125 0.00125 0.00125 0.00125 0.00125 0.00125 0.00125 0.00125 0.00125 0.00125 0.00125 0.00125 0.00125 0.00125 0.00125 0.00125 0.00125 0.00125 0.00125 0.00125 0.00125 0.00125 0.00125 0.00125 0.00125 0.00125 0.00125 0.00125 0.00125 0.00125 0.00125 0.00125 0.00125 0.00125 0.00125 0.00125 0.00125 0.00125 0.00125 0.00125</DataArray>
<DataArray type="Float64" Name="diameter" format="ascii">0.0015 0.0015 0.0015 0.0015 0.0015 0.0015 0.0015 0.0015 0.0015 0.0015 0.0015 0.0015 0.0015 0.0015 0.0015 0.0015 0.0015 0.0015 0.0015 0.0015 0.0015 0.0015 0.0015 0.0015 0.0015 0.0015 0.0015 0.0015 0.0015 0.0015 0.0015 0.0015 0.0015 0.0015 0.0015 0.0015 0.0015 0.0015 0.0015 0.0015 0.0015 0.0015 0.0015 0.0015 0.0015 0.0015 0.0015 0.0015 0.0015 0.0015 0.0015 0.0015 0.0015 0.0015 0.0015 0.0015 0.0015 0.0015 0.0015 0.0015 0.0015 0.0015 0.0015 0.0015 0.0015 0.0015 0.0015 0.0015 0.0015 0.0015 0.0015 0.0015 0.0015 0.0015 0.0015 0.0015 0.0015 0.0015 0.0015 0.0015 0.0015 0.0015 0.0015 0.0015 0.0015 0.0015 0.0015 0.0015 0.0015 0.0015 0.0015 0.0015 0.0015 0.0015 0.0015 0.0015 0.0015 0.0015 0.0015 0.0015 0.002 0.002 0.002 0.002 0.002 0.002 0.002 0.002 0.002 0.002 0.002 0.002 0.002 0.002 0.002 0.002 0.002 0.002 0.002 0.002 0.002 0.002 0.002 0.002 0.002 0.002 0.002 0.002 0.002 0.002 0.002 0.002 0.002 0.002 0.002 0.002 0.002 0.002 0.002 0.002 0.002 0.002 0.002 0.002 0.002 0.002 0.002 0.002 0.002 0.002 0.002 0.002 0.002 0.002 0.002 0.002 0.002 0.002 0.002 0.002 0.002 0.002 0.002 0.002 0.002 0.002 0.002 0.002 0.002 0.002 0.002 0.002 0.002 0.002 0.002 0.002 0.002 0.002 0.002 0.002 0.002 0.002 0.002 0.002 0.002 0.002 0.002 0.002 0.002 0.002 0.002 0.002 0.002 0.002 0.002 0.002 0.002 0.002 0.002 0.002 0.002 0.002 0.002 0.002 0.002 0.002 0.002 0.002 0.002 0.002 0.002 0.002 0.002 0.002 0.002 0.002 0.002 0.002 0.002 0.002 0.002 0.002 0.002 0.002 0.002 0.002 0.002 0.002 0.002 0.002 0.002 0.002 0.002 0.002 0.002 0.002 0.002 0.002 0.002 0.002 0.002 0.002 0.002 0.002 0.002 0.002 0.002 0.002 0.002 0.002 0.002 0.002 0.002 0.002 0.002 0.002 0.002 0.002 0.002 0.002 0.002 0.002 0.002 0.002 0.002 0.002 0.002 0.002 0.002 0.002 0.002 0.002 0.002 0.002 0.002 0.002 0.002 0.002 0.002 0.002 0.002 0.002 0.002 0.002 0.002 0.002 0.002 0.002 0.002 0.002 0.002 0.002 0.002 0.002 0.002 0.002 0.002 0.002 0.002 0.002 0.002 0.002 0.002 0.002 0.002 0.002 0.002 0.002 0.002 0.002 0.002 0.002 0.002 0.002 0.002 0.002 0.002 0.002 0.002 0.002 0.002 0.002 0.002 0.002 0.002 0.002 0.002 0.002 0.002 0.002 0.002 0.002 0.002 0.002 0.002 0.002 0.002 0.002 0.002 0.002 0.002 0.002 0.002 0.002 0.002 0.002 0.002 0.002 0.002 0.002 0.002 0.002 0.002 0.002 0.002 0.002 0.002 0.002 0.002 0.002 0.002 0.002 0.002 0.002 0.002 0.002 0.002 0.002 0.002 0.002 0.002 0.002 0.002 0.002 0.002 0.002 0.002 0.002 0.002 0.002 0.002 0.002 0.002 0.002 0.002 0.002 0.002 0.002 0.002 0.002 0.002 0.002 0.002 0.002 0.002 0.002 0.002 0.002 0.002 0.002 0.0025 0.0025 0.0025 0.0025 0.0025 0.0025 0.0025 0.0025 0.0025 0.0025 0.0025 0.0025 0.0025 0.0025 0.0025 0.0025 0.0025 0.0025 0.0025 0.0025 0.0025 0.0025 0.0025 0.0025 0.0025 0.0025 0.0025 0.0025 0.0025 0.0025 0.0025 0.0025 0.0025 0.0025 0.0025 0.0025 0.0025 0.0025 0.0025 0.0025 0.0025 0.0025 0.0025 0.0025 0.0025 0.0025 0.0025 0.0025 0.0025 0.0025 0.0025 0.0025 0.0025 0.0025 0.0025 0.0025 0.0025 0.0025 0.0025 0.0025 0.0025 0.0025 0.0025 0.0025 0.0025 0.0025 0.0025 0.0025 0.0025 0.0025 0.0025 0.0025 0.0025 0.0025 0.0025 0.0025 0.0025 0.0025 0.0025 0.0025 0.0025 0.0025 0.0025 0.0025 0.0025 0.0025 0.0025 0.0025 0.0025 0.0025 0.0025 0.0025 0.0025 0.0025 0.0025 0.0025 0.0025 0.0025 0.0025 0.0025</DataArray>
<DataArray type="Float64" Name="conductivity" format="ascii">1.0 1.0 1.0 1.0 1.0 1.0 1.0 1.0 1.0 1.0 1.0 1.0 1.0 1.0 1.0 1.0 1.0 1.0 1.0 1.0 1.0 1.0 1.0 1.0 1.0 1.0 1.0 1.0 1.0 1.0 1.0 1.0 1.0 1.0 1.0 1.0 1.0 1.0 1.0 1.0 1.0 1.0 1.0 1.0 1.0 1.0 1.0 1.0 1.0 1.0 1.0 1.0 1.0 1.0 1.0 1.0 1.0 1.0 1.0 1.0 1.0 1.0 1.0 1.0 1.0 1.0 1.0 1.0 1.0 1.0 1.0 1.0 1.0 1.0 1.0 1.0 1.0 1.0 1.0 1.0 1.0 1.0 1.0 1.0 1.0 1.0 1.0 1.0 1.0 1.0 1.0 1.0 1.0 1.0 1.0 1.0 1.0 1.0 1.0 1.0 1.0 1.0 1.0 1.0 1.0 1.0 1.0 1.0 1.0 1.0 1.0 1.0 1.0 1.0 1.0 1.0 1.0 1.0 1.0 1.0 1.0 1.0 1.0 1.0 1.0 1.0 1.0 1.0 1.0 1.0 1.0 1.0 1.0 1.0 1.0 1.0 1.0 1.0 1.0 1.0 1.0 1.0 1.0 1.0 1.0 1.0 1.0 1.0 1.0 1.0 1.0 1.0 1.0 1.0 1.0 1.0 1.0 1.0 1.0 1.0 1.0 1.0 1.0 1.0 1.0 1.0 1.0 1.0 1.0 1.0 1.0 1.0 1.0 1.0 1.0 1.0 1.0 1.0 1.0 1.0 1.0 1.0 1.0 1.0 1.0 1.0 1.0 1.0 1.0 1.0 1.0 1.0 1.0 1.0 1.0 1.0 1.0 1.0 1.0 1.0 1.0 1.0 1.0 1.0 1.0 1.0 1.0 1.0 1.0 1.0 1.0 1.0 1.0 1.0 1.0 1.0 1.0 1.0 1.0 1.0 1.0 1.0 1.0 1.0 1.0 1.0 1.0 1.0 1.0 1.0 1.0 1.0 1.0 1.0 1.0 1.0 1.0 1.0 1.0 1.0 1.0 1.0 1.0 1.0 1.0 1.0 1.0 1.0 1.0 1.0 1.0 1.0 1.0 1.0 1.0 1.0 1.0 1.0 1.0 1.0 1.0 1.0 1.0 1.0 1.0 1.0 1.0 1.0 1.0 1.0 1.0 1.0 1.0 1.0 1.0 1.0 1.0 1.0 1.0 1.0 1.0 1.0 1.0 1.0 1.0 1.0 1.0 1.0 1.0 1.0 1.0 1.0 1.0 1.0 1.0 1.0 1.0 1.0 1.0 1.0 1.0 1.0 1.0 1.0 1.0 1.0 1.0 1.0 1.0 1.0 1.0 1.0 1.0 1.0 1.0 1.0 1.0 1.0 1.0 1.0 1.0 1.0 1.0 1.0 1.0 1.0 1.0 1.0 1.0 1.0 1.0 1.0 1.0 1.0 1.0 1.0 1.0 1.0 1.0 1.0 1.0 1.0 1.0 1.0 1.0 1.0 1.0 1.0 1.0 1.0 1.0 1.0 1.0 1.0 1.0 1.0 1.0 1.0 1.0 1.0 1.0 1.0 1.0 1.0 1.0 1.0 1.0 1.0 1.0 1.0 1.0 1.0 1.0 1.0 1.0 1.0 1.0 1.0 1.0 1.0 1.0 1.0 1.0 1.0 1.0 1.0 1.0 1.0 1.0 1.0 1.0 1.0 1.0 1.0 1.0 1.0 1.0 1.0 1.0 1.0 1.0 1.0 1.0 1.0 1.0 1.0 1.0 1.0 1.0 1.0 1.0 1.0 1.0 1.0 1.0 1.0 1.0 1.0 1.0 1.0 1.0 1.0 1.0 1.0 1.0 1.0 1.0 1.0 1.0 1.0 1.0 1.0 1.0 1.0 1.0 1.0 1.0 1.0 1.0 1.0 1.0 1.0 1.0 1.0 1.0 1.0 1.0 1.0 1.0 1.0 1.0 1.0 1.0 1.0 1.0 1.0 1.0 1.0 1.0 1.0 1.0 1.0 1.0 1.0 1.0 1.0 1.0 1.0 1.0 1.0 1.0 1.0 1.0 1.0 1.0 1.0 1.0 1.0 1.0 1.0 1.0 1.0 1.0 1.0 1.0 1.0 1.0 1.0 1.0 1.0 1.0 1.0 1.0 1.0 1.0 1.0 1.0 1.0 1.0 1.0</DataArray>
<DataArray type="Float64" Name="temperature" format="ascii">300.20499501452616 300.9478674179588 300.79301542315085 300.5614139870778 300.2438805148401 300.05860907674 300.1441733313736 300.9505976271526 300.16221405773445 300.0416776282718 300.568350236324 300.1355423501384 300.2668717963308 300.7338296144509 300.83508644371534 300.41686464193725 300.2480884518871 300.3258728322482 300.0511457279045 300.2946492050733 300.96276641826654 300.0589081085681 300.94324574661573 300.5001229329621 300.4693875184446 300.04405453976835 300.69247959622237 300.5924192232016 300.2869557447697 300.3383187460633 300.1537421979805 300.863633446212 300.50795364741157 nan 300.0652544376478 300.33368203951403 300.85485791379284 300.1776800380572 300.6183537442868 300.0520423474739 300.6092005734805 300.6116025562925 300.30159318306465 300.69073964852106 300.3846900868558 300.04793469497974 300.1679637683065 300.9555620232884 300.7046541413755 300.04966903162324 300.94779411411577 300.0594487935492 300.3605705891625 300.9089631542699 300.06290839520915 300.28059326209376 300.7607453560053 300.29185462249217 300.1076504279452 300.9524909128978 300.94365618337736 300.50409815031765 300.0756483991238 300.7348239308783 300.15278600537994 300.2854160832597 300.9454679213987 300.1395057012799 300.64463178447755 300.9490234368338 300.8158169351198 300.4002188962695 300.75824401604405 300.12754358062705 nan 300.4315248394607 300.72573318159505 301.0 300.3421570343754 300.9269786636619 300.5717102675922 300.03917250588273 300.6449121936665 300.36109175535546 300.4087816243904 300.4988343064784 300.2207768210859 300.5931333728207 300.05479005061835 300.5768712307545 300.7287634441808 300.5814098231041 300.537019867917 300.62139737412247 300.9449966087469 300.11251016799304 300.2636160996112 300.70629140486085 300.82133360258547 300.61710789027916 300.3348871583165 300.148989678247 300.91903270475854 300.7729968416679 300.08454289220396 300.07220424830507 300.7349012014986 300.05951629011076 300.321529741758 300.36633089167873 300.2171930807862 300.55755858693954 300.7230133220599 300.21263856915516 300.1778532114342 300.5568202987606 300.8360278785292 300.50185353368823 300.1037600184983 300.30548071004506 300.61600246300804 300.5496228015678 300.5709956739467 300.739058110355 300.46754175082515 300.0620353816797 300.4519999993712 300.9363523854187 300.83962642394533 300.15781038298206 300.6805994680964 300.81585740044096 300.4212525607713 300.73801700541037 300.92605027707225 300.67705585694347 300.4367971521167 300.6968724772652 300.2366337865327 300.83170212152316 300.12555556267677 300.051046356049 300.14198155226734 300.64718160224976 300.8734479855274 300.2196422503496 300.8647210085314 300.8191859976236 300.71403638977824 300.80284805798095 300.45887374109066 300.5853939505608 300.0780461056508 300.27749997408745 300.4059220093267 300.34195007826804 300.7130543407675 300.55140242999784 300.7706582933547 300.36386220921094 300.46711997535533 300.50725118232276 300.40258182905825 300.40358309233466 300.523880304389 300.7916575889074 300.4745755818405 300.930421626066 300.81483321865903 300.39541303273245 300.61503747192614 300.1595926493683 300.9343896841143 300.07459472348694 300.3875334144233 300.78035968738465 300.64472824100324 300.32847946895174 300.2375986438232 300.34605243500994 300.1736335076563 300.9424591047196 300.8202997740644 300.4359703512623 300.0644257269932 300.92619739062116 300.46878678249686 300.4261466964431 300.58499969564303 300.72463236592006 300.2784718364901 300.94007634967727 300.570829431374 300.7265392123194 300.1516472431309 300.93058387904784 300.5926692694535 300.06487777449826 300.6714362466923 300.0674751917884 300.25020361618135 300.1724705140515 300.9428854674878 300.6999364422242 300.152280742966 300.1926169402756 300.141279229215 300.1050716856023 300.393805586969 300.2683597234762 300.3421013492587 300.37346009859283 300.59557611804905 300.4421923994618 300.5131435024325 300.1802665413566 300.35219260125865 300.8215310588379 300.0709660560635 300.3178833655413 300.66567334263715 300.6047712525274 300.8906602803163 300.07767219222944 300.48183413569797 300.5571235737294 300.8851707974235 300.43179682497515 300.4671234304468 300.4513224069999 300.3115375108233 300.84356017130415 300.7425938825977 300.1801737921697 300.3090233003338 nan 300.49792710167617 300.93560907352133 300.07124154992187 300.4890525132588 300.7125701054502 300.24780661797257 300.9425509290051 300.3274600047563 300.1659330399404 300.82175036648135 300.7905890140119 300.8003418847454 300.258234836002 300.0537485679034 300.13934124350294 300.62023380224286 300.5005034309807 300.0675316721875 300.93269687479494 300.0821867340432 300.1740383967126 300.1050134371657 300.2685327973093 300.71560272071025 300.23090486147873 300.87200024690276 300.30493297769317 300.0534697050173 300.65743983759523 300.5122665001071 300.2845893735394 300.40450882277935 300.41660057187016 300.04343720373237 300.9366969646763 300.3829453211584 300.28682919292345 300.2083370931832 300.9202363116749 300.3118535097094 300.6757138459255 300.4101004105818 300.9459600110542 300.8302473489126 300.27976024069744 300.64400897256337 300.945989884914 300.1391112413513 300.0741193898354 300.7052917156815 300.518997237202 300.6209388682758 300.64463178447755 300.4366613601864 300.40413233150747 300.79964860806956 300.34917009334526 300.78919272573825 300.8397450254666 300.3420813135582 300.2568325634977 300.94229738608374 300.8248851335174 300.527751122931 300.5775087303863 300.6804775403812 300.7542867461886 300.8231196751755 300.85550218100366 300.6698805776478 300.2802395698272 300.8497151361782 300.60760964919575 300.8471720562553 300.09882427515726 300.39827539250575 300.4894605445142 300.8417239910564 300.38508153699354 300.33306549374953 300.68945234479986 300.6089007364263 300.6058738122269 300.8920958564081 300.0665684840968 300.7490515011341 300.76839539757026 300.44641166443404 300.49651413872755 300.0557847821195 300.7221067261693 300.08082135002434 300.70363249972036 300.06679919980695 300.8521285367616 300.3209944481444 300.8402652407243 300.46147515005015 300.82645271520664 300.0525411302654 300.3182967758536 300.62031680434274 300.0527529434957 300.29617903153644 300.46104403501613 300.39824816421157 300.94043255423605 300.5663144352218 300.7224793203523 300.47984505466917 300.61616821713335 300.6085752021189 300.379113485892 300.5056768166784 300.89403681448863 300.45296458496136 300.93986103580437 300.2290121722497 300.64399960589105 300.4597110383914 300.1035458227524 300.55388913634675 300.77204703648835 300.37655192816874 300.8908107605229 300.9315840388907 300.7790099247512 300.06736600221535 300.9390937694741 300.84235713277707 300.32928458938943 300.6979449682647 300.43137182150576 300.7415365217292 300.0631186117554 300.3995205217094 300.5558210515511 300.334716300485 300.0641200578097 300.39168950338154 300.93814791723105 300.7518154979696 300.93901537107405 300.80908291715474 300.46878687248466 300.07141681561365 300.68120707342337 300.9212901482488 300.7406552130377 300.77015501346534 300.52209278507496 300.3253992659863 300.2446426135101 300.34293427295347 300.66268877576186 300.4919451952133 300.77701529199646 300.88975318672135 300.2427515441371 300.8198239912234 300.36817626502966 300.6697199079617 300.4463081917016 300.2039498458292 300.15374219798053 300.32204985064556 300.4256279469939 300.72583653728964 300.35516317146306 300.9193253680511 300.0848533766247 300.68534892660205 300.78062330023715 300.3684010686193 300.6316042795703 300.6167413447412 300.9223839558372 300.1809764195333 300.2959394530658 300.62689291863535 300.2433644833071 300.46169867221323 300.7580139793637 300.1960770635742 300.6049001198905 300.7047994735719 300.20685278672806 300.7311746850901 300.5041609169577 300.4953397926773 300.21282943045287 300.9084317481629 300.917767959637 300.2060231093304 300.5594807556612 300.17844587087274 300.7048719538609 300.2973944172724 300.5810566322789 300.4405234279522 300.57886727781 300.5379875841079 300.6560009931799 300.0755586548529 300.35630118091797 300.47662885058463 300.33310849075156 300.82272316598164 300.4160724100212 300.86596310223456 300.85684205996336 300.8974893233461 300.8079732849761 300.41825627540965 300.1725728556558 300.4849867239523 300.8109416874592 300.3530387559311 300.7930482058573 300.2638379099953 300.64946194555284 300.2059859210692 300.53197061934236 300.49753325603086 300.4313405048153 300.38856076834134 300.58275389219256 300.16205304516455 300.5582194795987 300.8143690463608 300.4062351291905 300.60738654989797 300.204869642791 300.22014843648066 300.3138555592117 300.20524104313245 300.7636681801347 300.5366028569523 300.57946397878123 300.4119711939571 300.1911669077003 300.29879548008404 300.1478249044411 300.50267029054305 300.82046276732046 300.9164462271999 300.61164202298795 300.7412085140477 300.64281383802347 300.9221956653931 300.30463755393305 300.17889463955015 300.08125957975057 300.2081841400135 300.6040111776606 300.8415326272538 300.1396039429003 300.51866032343133 300.33765466514313 300.42746383732464 300.9182552951648 300.17589546394004 300.07211397057665 300.5783417365363</DataArray>
<DataArray type="Float64" Name="g_hot" format="ascii">0.0 0.00016614150595200487 0.0 0.0 0.0 0.0 0.0 0.00040125303737168145 0.0 0.0 0.0 0.0 0.0 0.0 0.0 0.0 0.0 0.0 0.0 0.0 0.00037340862336052166 0.0 0.0002456888275848131 0.0 0.0 0.0 0.0 0.0 0.0 0.0 0.0 0.0 0.0 0.0 0.0 0.0 0.0 0.0 0.0 0.0 0.0 0.0 0.0 0.0 0.0 0.0 0.0 0.0005143840977324242 0.0 0.0 0.0008161452076683414 0.0 0.0 0.0 0.0 0.0 0.0 0.0 0.0 0.0005603900427380915 0.0004697243872740694 0.0 0.0 0.0 0.0 0.0 4.724404724407103e-05 0.0 0.0 0.0004005234075556636 0.0 0.0 0.0 0.0 0.0 0.0 0.0 2.4494897427831784e-07 0.0 0.0 0.0 0.0 0.0 0.0 0.0 0.0 0.0 0.0 0.0 0.0 0.0 0.0 0.0 0.0 0.00044879505344867614 0.0 0.0 0.0 0.0 0.0 0.0 0.0 0.0006041522986797285 0.0 0.0 0.0 0.0 0.0 0.0 0.0 0.0 0.0 0.0 0.0 0.0 0.0 0.0 0.0 0.0 0.0 0.0 0.0 0.0 0.0 0.0 0.0 0.0 0.0007935111845462547 0.0 0.0 0.0 0.0 0.0 0.0 0.0007135040294209978 0.0 0.0 0.0 0.0 0.0 0.0 0.0 0.0 0.0 0.0 0.0 0.0 0.0 0.0 0.0 0.0 0.0 0.0 0.0 0.0 0.0 0.0 0.0 0.0 0.0 0.0 0.0 0.0 0.0 0.0 0.0 0.0 0.0005137236611253177 0.0 0.0 0.0 0.0 0.0008712060605849802 0.0 0.0 0.0 0.0 0.0 0.0 0.0 0.0 0.0008669209883259258 0.0 0.0 0.0 0.0004310684400417179 0.0 0.0 0.0 0.0 0.0 0.0005587486017879596 0.0 0.0 0.0 0.0 0.0 0.0 0.0 0.0 0.0 0.0 0.00046722585544894696 0.0 0.0 0.0 0.0 0.0 0.0 0.0 0.0 0.0 0.0 0.0 0.0 0.0 0.0 0.0 0.0 0.0 0.0 0.0 0.0 0.0 0.0 0.0 0.00016264070831129495 0.0 0.0 0.0 0.0 0.0 0.0 0.0 0.0 0.0 0.0 0.00031189741903388674 0.0 0.0 0.0 0.0 0.000635326687618268 0.0 0.0 0.0 0.0 0.0 0.0 0.0 0.0 0.0 0.0 0.0 0.0005180077219501656 0.0 0.0 0.0 0.0 0.0 0.0 0.0 0.0 0.0 0.0 0.0 0.0 0.0 0.0 0.0 0.00047615963709663617 0.0 0.0 0.0 0.0 0.0 0.0 0.0 0.0006009159675029447 0.0 0.0 0.0 0.0007445025184645112 0.0 0.0 0.0 0.0 0.0 0.0 0.0 0.0 0.0 0.0 0.0 0.0 0.0 0.0 0.0007550390718366833 0.0 0.0 0.0 0.0 0.0 0.0 0.0 0.0 0.0 0.0 0.0 0.0 0.0 0.0 0.0 0.0 0.0 0.0 0.0 0.0 0.0 0.0 0.0 0.0 0.0 0.0 0.0 0.0 0.0 0.0 0.0 0.0 0.0 0.0 0.0 0.0 0.0 0.0 0.0 0.0 0.0 0.0 0.0 0.0 0.0007282938967202732 0.0 0.0 0.0 0.0 0.0 0.0 0.0 0.0 0.0 0.0007780719761050389 0.0 0.0 0.0 0.0 0.0 0.0 0.0 0.0 0.0005946393865192587 0.0 0.0 0.00045484942563446215 0.0 0.0 0.0 0.0 0.0 0.0 0.0 0.0 0.0 0.0 0.0 0.0004682691533722887 0.0 0.0006162174940716955 0.0 0.0 0.0 0.0 0.0 0.0 0.0 0.0 0.0 0.0 0.0 0.0 0.0 0.0 0.0 0.0 0.0 0.0 0.0 0.0 0.0 0.0 0.0 0.0 0.0 0.0 0.0007010349492001095 0.0 0.0 0.0 0.0 0.0 0.0 0.0007475292636412304 0.0 0.0 0.0 0.0 0.0 0.0 0.0 0.0 0.0 0.0 0.0 0.0 0.0 0.0 0.0006217716622683928 0.0006194755846681934 0.0 0.0 0.0 0.0 0.0 0.0 0.0 0.0 0.0 0.0 0.0 0.0 0.0 0.0 0.0 0.0 0.0 0.0 0.0 0.0 0.0 0.0 0.0 0.0 0.0 0.0 0.0 0.0 0.0 0.0 0.0 0.0 0.0 0.0 0.0 0.0 0.0 0.0 0.0 0.0 0.0 0.0 0.0 0.0 0.0 0.0 0.0 0.0 0.0 0.0 0.0 0.0 0.0004506106967216821 0.0 0.0 0.0 0.0008118189453320241 0.0 0.0 0.0 0.0 0.0 0.0 0.0 0.0 0.0 0.0 0.0006683935966180405 0.0 0.0 0.0</DataArray>
<DataArray type="Float64" Name="g_cold" format="ascii">0.0 0.0 0.0 0.0 0.0 0.0005326316161769811 0.0 0.0 0.0 0.00047042155408878104 0.0 0.0 0.0 0.0 0.0 0.0 0.0 0.0 0.00028389511892828816 0.0 0.0 0.0 0.0 0.0 0.0 0.0004387441607033685 0.0 0.0 0.0 0.0 0.0 0.0 0.0 0.0 0.0006011625724804436 0.0 0.0 0.0 0.0 0.0002747661524848101 0.0 0.0 0.0 0.0 0.0 0.00038522258312734595 0.0 0.0 0.0 0.0005473540340139114 0.0 0.00038638897312333434 0.0 0.0 0.0006095871049745938 0.0 0.0 0.0 0.0 0.0 0.0 0.0 0.0 0.0 0.0 0.0 0.0 0.0 0.0 0.0 0.0 0.0 0.0 0.0 0.0 0.0 0.0 0.0 0.0 0.0 0.0 0.00026419015604542 0.0 0.0 0.0 0.0 0.0 0.0 0.00048610332086018845 0.0 0.0 0.0 0.0 0.0 0.0 0.0 0.0 0.0 0.0 0.0 0.0 0.0 0.0 0.0 0.0001395059786116868 0.000949664108023679 0.0 0.0006377004924479898 0.0 0.0 0.0 0.0 0.0 0.0 0.0 0.0 0.0 0.0 0.0 0.0 0.0 0.0 0.0 0.0 0.0 0.0006320299977599242 0.0 0.0 0.0 0.0 0.0 0.0 0.0 0.0 0.0 0.0 0.0 0.0 0.0 0.0 0.0 0.00030308731096567645 0.0 0.0 0.0 0.0 0.0 0.0 0.0 0.0 0.0 0.0 0.00034851387069729275 0.0 0.0 0.0 0.0 0.0 0.0 0.0 0.0 0.0 0.0 0.0 0.0 0.0 0.0 0.0 0.0 0.0 0.0 0.0 0.0 0.0008526792586127606 0.0 0.0 0.0 0.0 0.0 0.0 0.0 0.0 0.0 0.0 0.0005324114180484908 0.0 0.0 0.0 0.0 0.0 0.0 0.0 0.0 0.0 0.0 0.0 0.0 0.0005409823639162423 0.0 0.0004930131013151768 0.0 0.0 0.0 0.0 0.0 0.0 0.0 0.0 0.0 0.0 0.0 0.0 0.0 0.0 0.0 0.0 0.0 0.0 0.000644252992285174 0.0 0.0 0.0 0.0 0.0002937037930780094 0.0 0.0 0.0 0.0 0.0 0.0 0.0 0.0 0.0 0.0 0.0 0.0 0.0 0.0 0.0007336633547264061 0.0 0.0 0.0 0.0 0.0 0.0 0.0 0.0 0.0 0.0 0.000745293175916967 0.0 0.0 0.0 0.0006574662866401662 0.0 0.0002371959486762114 0.0 0.0 0.0 0.0 0.0 0.0 0.0 0.0007757976012262484 0.0 0.0 0.0 0.0 0.0 0.0003096157587533436 0.0 0.0 0.0 0.0 0.0 0.0 0.0 0.0 0.0 0.0 0.0 0.0 0.0 0.0 0.0007115208486533617 0.0 0.0 0.0 0.0 0.0 0.0 0.0 0.0 0.0 0.0 0.0 0.0 0.0 0.0 0.0 0.0 0.0 0.0 0.0 0.0 0.0 0.0 0.0 0.0 0.0 0.0 0.0 0.0 0.0 0.0 0.0 0.0 0.0 0.0 0.0 0.00037344600422068987 0.0 0.0 0.0 0.0 0.0003866030497401819 0.0 0.0 0.0 0.0006647269500091054 0.0 0.0 0.0 0.0 0.0 0.0006272654287208915 0.0 0.0 0.0006045344639211262 0.0 0.0 0.0 0.0 0.0 0.0 0.0 0.0 0.0 0.0 0.0 0.0 0.0 0.0 0.0 0.0 0.0 0.0 0.0 0.0 0.0 0.0 0.0 0.0 0.0 0.0 0.0 0.0 0.0 0.0 0.0 0.00047144662271396897 0.0 0.0 0.0 0.00042972307137086394 0.0 0.0 0.0 0.0 0.0 0.0 0.0007132053828094679 0.0 0.0 0.0 0.0 0.0 0.0 0.0 0.0 0.0 0.0 0.0 0.0 0.0 0.0 0.0 0.0 0.0 0.0 0.0 0.0 0.0 0.0 0.0 0.0 0.000877398083873849 0.0 0.0 0.0 0.0 0.0 0.0 0.0 0.0 0.0 0.0 0.0 0.0 0.0 0.0 0.0 0.0 0.0 0.0 0.0 0.0 0.0 0.0 0.0 0.0 0.0 0.0 0.0 0.0 0.0 0.0 0.0 0.0 0.0009559431978865194 0.0 0.0 0.0 0.0 0.0 0.0 0.0 0.0 0.0 0.0 0.0 0.0 0.0 0.0 0.0 0.0 0.0 0.0 0.0 0.0 0.0 0.0 0.0 0.0 0.0 0.0 0.0 0.0 0.0 0.0 0.0 0.0 0.0 0.0 0.0 0.0 0.0 0.0 0.0 0.0 0.0 0.0 0.0 0.0 0.0 0.0 0.0 0.0 0.00030956000643735814 0.0 0.0 0.0 0.0 0.0 0.0 0.0 0.0 0.0 0.0007244497205365597 0.0</DataArray>
</PointData><Points>
<DataArray type="Float64" Name="Points" format="ascii" NumberOfComponents="3">0.000493011 0.00730151 0.0125597 0.0135478 0.00342678 0.000740799 0.00376869 0.00909656 0.00300411 0.0038664 0.00827232 0.00700555 0.00230018 0.00269463 0.011849 0.00250852 0.0046369 0.0147152 0.00352043 0.0126699 0.0132191 0.0077017 0.00398387 0.000696332 0.00157739 0.00651634 0.012952 0.0138936 0.0146457 0.0146944 0.0140013 0.00789444 0.0062738 0.0110874 0.00744728 0.0130319 0.00942109 0.00128455 0.0111734 0.0126999 0.0125566 0.0047824 0.00266581 0.00417859 0.00262968 0.00115188 0.00258527 0.00886343 0.0112002 0.0099038 0.0116316 0.000900048 0.00866203 0.010335 0.00698412 0.00499405 0.0146475 0.00956501 0.0111155 0.0108431 0.0122983 0.00579287 0.000703522 0.00875367 0.0150136 0.0145929 0.00429881 0.010674 0.000729879 0.00701894 0.00261386 0.00770187 0.00452038 0.00857292 0.0082228 0.0125801 0.013952 0.0146848 0.00860374 0.00631692 0.0043737 0.000721987 0.00255625 0.00632914 0.0135987 0.011317 0.0111106 0.000531493 0.0020985 0.010141 0.00594714 0.0108745 0.0114376 0.00393298 0.0101207 0.00203533 0.00669475 0.0151517 0.00744451 0.0136472 0.00622977 0.0146206 0.00484974 0.00775334 0.0147411 0.00715504 0.0137532 0.0105645 0.0104369 0.00105105 0.00184008 0.00804842 0.00546986 0.012735 0.0135219 0.0110357 0.00552027 0.0100914 0.00687521 0.0146458 0.0152702 0.00816926 0.00573405 0.00169788 0.00536853 0.00575944 0.0112858 0.00811019 0.0109342 0.000333692 0.00901691 0.00469854 0.0128825 0.00500401 0.00932155 0.0012836 0.0107145 0.0146701 0.0142516 0.0113193 0.0134961 0.00338456 0.00449497 0.000661803 0.00821117 0.01167 0.00428938 0.0030141 0.014989 0.0147205 0.0112734 0.000523822 0.000527969 0.0153071 0.00223141 0.0146704 0.00525526 0.00481874 0.00973848 0.012368 0.00432018 0.000800857 0.0060712 0.011504 0.0147445 0.0116191 0.00681143 0.0114663 0.0016964 0.00617965 0.00395767 0.00346805 0.0141827 0.0113675 0.00352184 0.00538269 0.0141516 0.00714996 0.0120684 0.000645321 0.0107051 0.00183494 0.000676453 0.00589846 0.00895415 0.00741713 0.00825892 0.0128874 0.0146034 0.00385337 0.00639291 0.00437389 0.000730921 0.010478 0.0133475 0.00774637 0.00339433 0.0111926 0.00945216 0.013076 0.000749256 0.00203052 0.00233768 0.0132393 0.000418812 0.00670399 0.00525533 0.0130047 0.00963998 0.000696527 0.0136999 0.00650829 0.00259982 0.00640045 0.0062688 0.00926918 0.00779927 0.00602207 0.00322564 0.00434473 0.00658616 0.0141112 0.0117638 0.0116081 0.00779019 0.00988525 0.00264787 0.00903162 0.0149673 0.0100163 0.00393141 0.00872153 0.0116626 0.00075 0.000279323 0.00377106 0.00982998 0.0138058 0.0085099 0.000757212 0.00362028 0.00584406 0.00643751 0.0153189 0.0138761 0.0146439 0.0133296 0.00300237 0.00468012 0.0128291 0.0126087 0.00962027 0.0111652 0.0125905 0.00915726 0.000219644 0.00698282 0.00708926 0.00115998 0.0111961 0.0122206 0.0138595 0.000445606 0.00614881 0.00865836 0.00682836 0.0146994 0.00182087 0.00147073 0.00613927 0.00682169 0.0150128 0.00453348 0.0100439 0.00179684 0.00635142 0.0130472 0.00114517 0.00705028 0.0116062 0.00416555 0.00584918 0.00368363 0.00187894 0.000682861 0.00762959 0.00615388 0.0139975 0.0102308 0.00756525 0.0118334 0.0122882 0.00209429 0.00420944 0.00481886 0.00660089 0.00275253 0.0130448 0.00451368 0.00541289 0.00350828 0.0127195 0.0104588 0.0109905 0.0137068 0.0128953 0.00908099 0.000591219 0.00090875 0.0111686 0.0118173 0.00361142 0.00123954 0.0149498 0.0143755 0.00440482 0.0125974 0.0145961 0.00550766 0.00530918 0.00409605 0.0136129 0.00329776 0.0144723 0.00174234 0.0012819 0.0110781 0.0146835 0.0119231 0.0099499 0.00666198 0.00939862 0.0122092 0.00462615 0.00437676 0.00686314 0.00754832 0.00921449 0.00399679 0.0100221 0.0018406 0.0126659 1.41151e-05 0.0123435 0.0127924 0.0129554 0.0122705 0.00655939 0.00797148 0.0111237 0.0025548 0.00311471 0.00975202 0.00774437 0.00117642 0.00793708 0.0140674 0.014792 0.0013073 0.0111542 0.01112 0.00748176 0.00576106 0.00738445 0.00732661 0.00705661 0.00156199 0.0132862 0.00615405 0.0136592 0.00888639 0.00371737 0.00691938 0.0011383 0.00851543 0.00807732 0.00121977 0.0144705 0.00124551 0.0094352 0.00812577 0.0138093 0.0111395 0.000842585 0.00525033 0.0085159 0.00245228 0.00931069 0.00658155 0.0131528 0.00973035 0.0109857 0.00467346 0.00920325 0.0126127 0.00241739 0.00750258 0.00771037 0.00893498 0.0129168 0.0110224 0.003969 0.0103892 0.0111451 0.000872728 0.00838932 0.00463135 0.0045899 0.0100848 0.00599716 0.00858566 0.00716977 0.00323586 0.0041996 0.00803417 0.00688241 0.0117179 0.00673104 0.00475392 0.00269162 0.000271921 0.00631312 0.0141524 0.011615 0.0125889 0.0143936 0.000114288 0.0031526 0.0132468 0.00343174 0.0073073 0.00572037 0.0120432 0.0105601 0.00170202 0.00228892 0.0126539 0.0120717 0.00370761 0.00741853 0.00200219 0.0138898 0.0102581 0.00247586 0.00198444 0.0150523 0.00423767 0.0107821 0.00228088 0.00286013 0.00526061 0.00552815 0.00821719 0.00196482 0.00663834 0.00679314 0.0111311 0.0107118 0.014401 0.000694271 0.0121836 0.0111114 0.0134118 0.0108371 0.00923842 0.00197995 0.00737236 0.010667 0.0118248 0.00396197 0.00420098 0.00737368 0.0119328 0.00651784 0.00781716 0.013515 0.00333392 0.0143423 0.00262287 0.00976003 0.00631987 0.0123775 0.00811547 0.0113112 0.00564228 0.00711587 0.00396106 0.0139045 0.00902363 0.0150693 0.00978469 0.00925657 0.00188371 0.00298924 0.00740235 0.00631321 0.00667648 0.00301519 0.00672493 0.00423506 0.00809138 0.0122979 0.00162615 0.000934022 0.009391 0.00891311 0.00265586 0.00779686 0.0102046 0.00977872 0.00320432 0.0126268 0.00541845 0.00194 0.00463585 0.0131448 0.000127327 0.000652341 0.00081025 0.00236877 0.00927747 0.0145524 0.00837952 0.0135913 0.00945576 0.0135682 0.00479646 0.00272295 0.001676 0.0037193 0.00553534 0.00856388 0.00234458 0.0101714 0.0137293 0.00476471 0.0122949 0.0114414 0.00519698 0.0102356 0.00305499 0.0081446 0.0132436 0.0146526 0.0128168 0.000812112 0.00662779 0.000975816 0.00301158 0.00398195 0.000356092 0.00854828 0.00236553 0.00647102 0.0144415 0.00582947 0.0134685 0.000953545 0.00915555 0.00791194 0.00788389 0.000108268 0.0134798 0.00900648 0.00543686 0.00777583 0.00638584 0.00210087 0.0131059 0.00395751 0.0102145 0.0151745 0.0111019 0.0149802 0.00967256 0.00092195 0.000274145 0.0101765 0.00644295 0.0140949 0.0134937 0.00356982 0.00507358 0.0139015 0.0136251 0.00897267 0.00503523 0.00100521 0.00788846 0.00887733 0.00606273 0.00937883 0.0115674 0.0144438 0.0138889 0.00556811 0.00439314 0.00233364 0.00115674 0.0144314 0.0038254 0.0112208 0.0114789 0.000742283 0.00123893 0.012809 0.00420244 0.0123923 0.000945425 0.00750462 0.00131208 0.00461104 0.0107299 0.00935113 0.0130333 0.00359514 0.00354825 0.0130733 0.0145428 0.000870548 0.0139869 0.00648123 0.00748177 0.0143631 0.00546523 0.000901014 0.00968179 0.0019184 0.0147492 0.0117507 0.00816377 0.0119129 0.0102295 0.0111737 0.0069816 0.00983003 0.00638109 0.0033675 0.00628393 0.00376593 0.00431927 0.00859833 0.000802221 0.0144417 0.00749869 0.0143296 0.00662442 0.0127683 0.0102251 0.00965833 0.0102533 0.000677405 0.0129721 0.00265266 0.00154121 0.00327924 0.0144744 0.0148966 0.0136151 0.0107997 0.000366681 0.0136859 0.00458094 0.0145758 0.00192475 0.00599867 0.00119267 0.0089962 0.00157527 0.0126322 0.00153175 0.0143922 0.0032797 0.00614054 0.00805145 0.000427849 0.00537416 0.00678088 0.0129838 0.0142876 0.000993387 0.00209716 0.0135358 0.00854677 0.00277466 0.00796192 0.00831361 0.0145373 0.00605815 0.00819299 0.00738198 0.00862596 0.0106645 0.00489462 0.00429023 0.00253832 0.00669364 0.0109304 0.00401177 0.0124766 0.00611337 0.0127355 0.00551452 0.00630993 0.0107041 0.00912598 0.00741006 0.00100034 0.0131211 0.00502758 0.00737449 0.0112291 0.00767641 0.00097568 0.0152828 0.00450269 0.0145052 0.00818736 0.00559069 0.0080488 0.0148516 0.0152396 0.00384295 0.00467751 0.015034 0.0122886 0.0100698 0.00928149 0.00089909 0.000483949 0.0152247 0.0106187 0.00493958 0.00790137 0.0131154 0.00981432 0.0108335 0.00263337 0.002013 0.00146872 0.003316 0.000630687 0.00846458 0.00325454 0.00719035 0.00522911 0.011251 0.000600302 0.0122622 0.0145095 0.00273193 0.014136 0.0133522 0.00312247 0.0144776 0.00553698 0.00818538 0.0146816 0.00794779 0.0125162 0.00940704 0.0144787 0.00603632 0.00427764 0.000932917 0.00449298 0.000373966 0.0143847 0.000167381 0.00506648 0.012683 0.00752286 0.0114145 0.0141445 0.0149406 0.00769932 0.0112192 0.00271372 0.00503436 0.00453551 0.00455708 0.0129767 0.0120055 0.00779104 0.0133708 0.00134064 0.00193247 0.0106993 0.0108775 0.0109384 0.00833353 0.0145211 0.00496459 0.00376277 0.00510328 0.000473892 0.0014626 0.00753746 0.00624167 0.000307722 0.011403 0.00127014 0.000924353 0.00918518 0.00474007 0.0121636 0.00914225 0.010527 0.00523387 0.0143946 0.00538299 0.00731263 0.000943318 0.0148221 0.000782182 0.00928872 0.014985 0.00500982 0.0108113 0.0149419 0.0105633 0.0120957 0.0046239 0.00555865 0.00103919 0.00673436 0.00205639 0.0107665 0.0102698 0.00635547 0.00444891 0.00613421 0.0109146 0.00937458 0.00506621 0.000975279 0.000909725 0.00132877 0.00327188 0.00303618 0.0153332 0.00315787 0.0113593 0.0143258 0.00951495 0.00536918 0.0106705 0.005782 0.000861429 0.0085952 0.00271005 0.0134731 0.00654894 0.0130523 0.0144972 0.00955945 0.00310406 0.00410763 0.00275906 0.014727 0.00729698 0.0122821 0.00597883 0.00548947 0.0142802 0.0073774 0.00467984 0.0124009 0.00640074 0.00853939 0.0102002 0.0141239 0.00927605 0.000877017 0.010352 0.00295445 0.0125681 0.00171993 0.00961878 0.0119361 0.000800803 0.00285056 0.0144779 0.00793718 0.00223498 0.0118762 0.00891947 0.00955628 0.00281738 0.00427557 0.0115091 0.00592848 0.00912468 0.000857479 0.0089067 0.0145772 0.00221369 0.00258773 0.0046858 0.00703065 0.014146 0.00619846 0.00623703 0.00570806 0.00214826 0.00456099 0.0122247 0.0133903 0.00330461 0.0125824 0.00853851 0.00210868 0.0152443 0.00432943 0.00238109 0.011023 0.00246347 0.00520603 0.00342645 0.0083408 0.0113643 0.0110418 0.0125714 0.00182869 0.00513331 0.0059524 0.00584849 0.00766538 0.00788841 0.00253833 0.00862063 0.00471638 0.0141882 0.0118655 0.0150784 0.00904179 0.0024444 0.00118667 0.00772203 0.00291418 0.0136045 0.00199471 0.00795137 0.00609129 0.00982887 0.00175532 0.0134383 0.0103344 0.0121766 0.0149779 0.00429437 0.00338444 0.00316305 0.00612888 0.0103824 0.00039714 0.005487 0.00275963 0.00601713 0.00126728 0.0118049 0.00667472 0.0144055 0.000506478 0.00508536 0.00398479 0.0102597 0.00716305 0.00264407 0.0138313 0.012481 0.00826821 0.0047519 0.0143786 0.00730544 0.00976996 0.0136383 0.014408 0.00843132 0.0150034 0.00437379 0.00423021 0.00936856 0.0142987 0.000832271 0.00219935 0.00471153 0.00247101 0.0125194 0.0144811 0.0129426 0.0122428 0.00204217 0.0039516 0.00048718 0.010745 0.0146403 0.0141409 0.00194087 0.00574902 0.00734879 0.00817203 0.0136538 0.000374593 0.00219446 0.00952998 0.00961702 0.014469 0.00500201 0.0142154 0.0106521 0.012204 0.000757626 0.00575173 0.0100384 0.00336847 0.014462 0.00559617 0.00815197 0.0111301 0.0140113 0.00188055 0.00803914 0.00297707 0.0016557 0.00955558 0.0152697 0.00320767 0.000867397 0.0110136 0.0114765 0.00608454 0.0121339 0.00783684 0.00404783 0.0106999 0.0148352 0.00751989 0.00390124 0.00965242 0.00602318 0.00874118 0.0152175 0.00623155 0.00256071 0.0150564 0.00972878 0.0151636 0.0085856 0.00729237 0.000333995 0.0114064 0.00149309 0.00812326 0.0120229 0.00833976 0.00215499 0.00764296 0.000848651 0.0121685 0.00856582 0.0121654 0.010202 0.00460568 0.00517186 0.0110042 0.0076238 0.0080279 0.0116941 0.00299934 0.0134647 0.00571704 0.0104302 0.00618031 0.0037209 0.014374 0.00356214 0.00454627 0.0076352 0.00961946 0.00359661 0.00315342 0.00170258 0.00156782 0.0127756 0.000911601 0.0148137 0.0116747 0.00345297 0.01248 0.0048604 0.0142924 0.0146939 0.00548128 0.000948278 0.00652451 0.0122959 0.00232233 0.0014423 0.00555585 0.0110196 0.00534557 0.00034666 0.00461598 0.00617458 0.00900985 0.00910026 0.00531841 0.0122943 0.00373913 0.0140496 0.0127511 0.0144262 0.00998115 0.0112669 0.00916069 0.00663557 0.013685 0.00668341 0.00601238 0.0124503 0.0106169 0.00811496 0.00842274 0.0144168 0.00239179 0.00936221 0.00961564 0.0134629 0.00692764 0.000945181 0.00934228 0.00541221 0.00303254 0.00405369 0.00890055 0.000905069 0.0035409 0.00559318 0.00292577 0.00495186 0.0102011 0.00798641 0.000178803 0.00944293 0.0144978 0.00689042 0.0126815 0.00478848 0.0059551 0.011008 0.00100096 0.00377824 0.000928609 0.00378107 0.00504164 0.0102898 0.0032917 0.0125735 0.00755284 0.00698267 0.00182832 0.0032197 0.0102603 0.0104091 0.005693 0.0118173 0.00663346 0.00384969 0.0100079 0.0136145 0.00113654 0.00452018 0.0120945 0.0133996 0.00795507 0.00831539 0.00377949 0.00281739 0.014096 0.00180356 0.00100368 0.00473177 0.00950777 0.0121215 0.00512013 0.00233496 0.00268759 0.0105068 0.00108987 0.00971668 0.00437937 0.0111413 0.00493094 0.00909936 0.00956569 0.00872481 0.00951466 0.0041205 0.0125165 0.00506009 0.0112293 0.0131947 0.0134189 0.0151459 0.0105555 0.00149082 0.00508158 0.00887165 0.0102464 0.0139664 0.0038129 0.00927042 0.00776417 0.0101156 0.00156126 0.0044024 0.00115171 0.00510995 0.00450016 0.0142746 0.00942914 0.00832962 0.0046986 0.00583973 0.0142939 0.0030166 0.00804365 0.000234175 0.0101561 0.0122659 0.00927611 0.00561146 0.00886773 0.0131138 0.00551859 0.00235872 0.0107021 0.00113824 0.00610878 0.00612001 0.0128248 0.0092903 0.0132914 0.011426 0.00170972 0.00862476 0.0060503 0.0117872 0.00115571 0.0116475 0.0139021 0.0146717 0.00796517 0.00257912 0.00777336 0.00376394 0.0136339 0.00234321 0.0125785 0.000414558 0.000192635 0.00574279 0.00255323 0.0100887 0.00430299 0.010464 0.0115221 0.0125348 0.00336036 0.00307316 0.00394694 0.00896454 0.00131934 0.00792336 0.00999035 0.012727 0.00759293 0.00130146 0.00904122 0.0121695 0.00926506 0.00287477 0.00117268 0.00796422 0.00949811 0.00117325 0.00694999 0.0133332 0.0124193 0.0135872 0.0102575 0.00728074 0.0133893 0.0128789 0.0123459 0.00483642 0.00844116 0.00449357 0.0136215 0.00937917 0.01081 0.00644529 0.00122516 0.00637692 0.0149025 0.00387729 0.00806378 0.0113872 0.0136318 0.00587027 0.0128448 0.00301368 0.00661025 0.00698909 0.00728632 0.00489334 0.00634946 0.00962625 0.0143034 0.00443206 0.00977363 0.0100386 0.000436529 0.0115043 0.00812507 0.0117085 0.0112083 0.0104334 0.0109652 0.00422473 0.00219587 0.00621795 0.0143269 0.00898024 0.000809496 0.00649696 0.0022332 0.00329161 0.000302357 0.00179682 0.00691515 0.00235016 0.00136909 0.0088953 0.00124312 0.00298981 0.0137537 0.00805144 0.00878234 0.0141085 0.00875695 0.0131222 0.0113194 0.00151832 0.00776026 0.0034508 0.0117956 0.00291391 0.00346664 0.00581893 0.0101212 0.015097 0.00180298 0.00292672 0.0049796 0.00443226 0.01163 0.00505115 0.0137365 0.00523636 0.00870539 9.46005e-05 0.0126002 0.00451373 0.0121109 0.0069794 0.00734525 0.0101427 0.00763727 0.0116995 0.00369503 0.00863181 0.00464792 0.00289813 0.00995802 0.00213374 0.0111315 0.00640642 0.00265641 0.0108205 0.0132162 0.00928022 0.00643706 0.00634863 0.00105095 0.0151171 0.00239109 0.00911798 0.00436004 0.0096004 0.008418 0.00269916 0.00595766 0.00875803 0.00885407 0.0123405 0.00811391 0.0112196 0.0121829 0.0127896 0.00366125 0.0107786 0.0126608 0.0106238 0.0126686 0.011242 0.00963596 0.00352259 0.0106131 0.00967901 0.0072566 0.00715322 0.00533106 0.00622825 0.00266446 0.011467 0.00896511 0.00359403 0.00144697 0.0126623 0.0116419 0.0135771 0.0108081 0.00651407 4.27207e-05 0.0135665 0.00475882 0.00219162 0.00773205 0.0129111 0.00282115 0.00255538 0.00177583 0.00204182 0.00120939 0.0137533 0.0140677 0.00556156 0.0119922 0.00596005 0.00330881 0.0148733 0.00393738 0.00545689 0.00693098 0.0153382 0.00111819 0.0105144 0.0029798 0.0108948 0.0152058 0.0145241 0.0127469 0.0106571 0.000294109 0.0141398 0.00341924 0.00616293 0.0124575 0.00371273 0.00108794 0.00591958 0.0109584 0.0146306 0.0016838 0.0128507 0.0150641 0.0131425 0.00970292 0.0042138 0.00727617 0.013321 0.00639678 0.0105679 0.000731434 0.00741224 0.00889609 0.0072244 0.00620828 0.00116065 0.0069292 0.00384271 0.0128863 0.00582125 0.00219221 0.0142256 0.0150626 0.0121426 0.00595212</DataArray>
</Points><Verts>
<DataArray type="Int64" Name="connectivity" format="ascii">0 1 2 3 4 5 6 7 8 9 10 11 12 13 14 15 16 17 18 19 20 21 22 23 24 25 26 27 28 29 30 31 32 33 34 35 36 37 38 39 40 41 42 43 44 45 46 47 48 49 50 51 52 53 54 55 56 57 58 59 60 61 62 63 64 65 66 67 68 69 70 71 72 73 74 75 76 77 78 79 80 81 82 83 84 85 86 87 88 89 90 91 92 93 94 95 96 97 98 99 100 101 102 103 104 105 106 107 108 109 110 111 112 113 114 115 116 117 118 119 120 121 122 123 124 125 126 127 128 129 130 131 132 133 134 135 136 137 138 139 140 141 142 143 144 145 146 147 148 149 150 151 152 153 154 155 156 157 158 159 160 161 162 163 164 165 166 167 168 169 170 171 172 173 174 175 176 177 178 179 180 181 182 183 184 185 186 187 188 189 190 191 192 193 194 195 196 197 198 199 200 201 202 203 204 205 206 207 208 209 210 211 212 213 214 215 216 217 218 219 220 221 222 223 224 225 226 227 228 229 230 231 232 233 234 235 236 237 238 239 240 241 242 243 244 245 246 247 248 249 250 251 252 253 254 255 256 257 258 259 260 261 262 263 264 265 266 267 268 269 270 271 272 273 274 275 276 277 278 279 280 281 282 283 284 285 286 287 288 289 290 291 292 293 294 295 296 297 298 299 300 301 302 303 304 305 306 307 308 309 310 311 312 313 314 315 316 317 318 319 320 321 322 323 324 325 326 327 328 329 330 331 332 333 334 335 336 337 338 339 340 341 342 343 344 345 346 347 348 349 350 351 352 353 354 355 356 357 358 359 360 361 362 363 364 365 366 367 368 369 370 371 372 373 374 375 376 377 378 379 380 381 382 383 384 385 386 387 388 389 390 391 392 393 394 395 396 397 398 399 400 401 402 403 404 405 406 407 408 409 410 411 412 413 414 415 416 417 418 419 420 421 422 423 424 425 426 427 428 429 430 431 432 433 434 435 436 437 438 439 440 441 442 443 444 445 446 447 448 449 450 451 452 453 454 455 456 457 458 459 460 461 462 463 464 465 466 467 468 469 470 471 472 473 474 475 476 477 478 479 480 481 482 483 484 485 486 487 488 489 490 491 492 493 494 495 496 497 498 499</DataArray>
<DataArray type="Int64" Name="offsets" format="ascii">1 2 3 4 5 6 7 8 9 10 11 12 13 14 15 16 17 18 19 20 21 22 23 24 25 26 27 28 29 30 31 32 33 34 35 36 37 38 39 40 41 42 43 44 45 46 47 48 49 50 51 52 53 54 55 56 57 58 59 60 61 62 63 64 65 66 67 68 69 70 71 72 73 74 75 76 77 78 79 80 81 82 83 84 85 86 87 88 89 90 91 92 93 94 95 96 97 98 99 100 101 102 103 104 105 106 107 108 109 110 111 112 113 114 115 116 117 118 119 120 121 122 123 124 125 126 127 128 129 130 131 132 133 134 135 136 137 138 139 140 141 142 143 144 145 146 147 148 149 150 151 152 153 154 155 156 157 158 159 160 161 162 163 164 165 166 167 168 169 170 171 172 173 174 175 176 177 178 179 180 181 182 183 184 185 186 187 188 189 190 191 192 193 194 195 196 197 198 199 200 201 202 203 204 205 206 207 208 209 210 211 212 213 214 215 216 217 218 219 220 221 222 223 224 225 226 227 228 229 230 231 232 233 234 235 236 237 238 239 240 241 242 243 244 245 246 247 248 249 250 251 252 253 254 255 256 257 258 259 260 261 262 263 264 265 266 267 268 269 270 271 272 273 274 275 276 277 278 279 280 281 282 283 284 285 286 287 288 289 290 291 292 293 294 295 296 297 298 299 300 301 302 303 304 305 306 307 308 309 310 311 312 313 314 315 316 317 318 319 320 321 322 323 324 325 326 327 328 329 330 331 332 333 334 335 336 337 338 339 340 341 342 343 344 345 346 347 348 349 350 351 352 353 354 355 356 357 358 359 360 361 362 363 364 365 366 367 368 369 370 371 372 373 374 375 376 377 378 379 380 381 382 383 384 385 386 387 388 389 390 391 392 393 394 395 396 397 398 399 400 401 402 403 404 405 406 407 408 409 410 411 412 413 414 415 416 417 418 419 420 421 422 423 424 425 426 427 428 429 430 431 432 433 434 435 436 437 438 439 440 441 442 443 444 445 446 447 448 449 450 451 452 453 454 455 456 457 458 459 460 461 462 463 464 465 466 467 468 469 470 471 472 473 474 475 476 477 478 479 480 481 482 483 484 485 486 487 488 489 490 491 492 493 494 495 496 497 498 499 500</DataArray>
</Verts></Piece></PolyData></VTKFile>