<?xml version="1.0"?>
<VTKFile type="PolyData" version="0.1" byte_order="LittleEndian">
<PolyData>
<Piece NumberOfPoints="500" NumberOfVerts="500" NumberOfLines="0" NumberOfStrips="0" NumberOfPolys="0">
<PointData>
<DataArray type="Int64" Name="id" format="ascii">1 2 3 4 5 6 7 8 9 10 11 12 13 14 15 16 17 18 19 20 21 22 23 24 25 26 27 28 29 30 31 32 33 34 35 36 37 38 39 40 41 42 43 44 45 46 47 48 49 50 51 52 53 54 55 56 57 58 59 60 61 62 63 64 65 66 67 68 69 70 71 72 73 74 75 76 77 78 79 80 81 82 83 84 85 86 87 88 89 90 91 92 93 94 95 96 97 98 99 100 101 102 103 104 105 106 107 108 109 110 111 112 113 114 115 116 117 118 119 120 121 122 123 124 125 126 127 128 129 130 131 132 133 134 135 136 137 138 139 140 141 142 143 144 145 146 147 148 149 150 151 152 153 154 155 156 157 158 159 160 161 162 163 164 165 166 167 168 169 170 171 172 173 174 175 176 177 178 179 180 181 182 183 184 185 186 187 188 189 190 191 192 193 194 195 196 197 198 199 200 201 202 203 204 205 206 207 208 209 210 211 212 213 214 215 216 217 218 219 220 221 222 223 224 225 226 227 228 229 230 231 232 233 234 235 236 237 238 239 240 241 242 243 244 245 246 247 248 249 250 251 252 253 254 255 256 257 258 259 260 261 262 263 264 265 266 267 268 269 270 271 272 273 274 275 276 277 278 279 280 281 282 283 284 285 286 287 288 289 290 291 292 293 294 295 296 297 298 299 300 301 302 303 304 305 306 307 308 309 310 311 312 313 314 315 316 317 318 319 320 321 322 323 324 325 326 327 328 329 330 331 332 333 334 335 336 337 338 339 340 341 342 343 344 345 346 347 348 349 350 351 352 353 354 355 356 357 358 359 360 361 362 363 364 365 366 367 368 369 370 371 372 373 374 375 376 377 378 379 380 381 382 383 384 385 386 387 388 389 390 391 392 393 394 395 396 397 398 399 400 401 402 403 404 405 406 407 408 409 410 411 412 413 414 415 416 417 418 419 420 421 422 423 424 425 426 427 428 429 430 431 432 433 434 435 436 437 438 439 440 441 442 443 444 445 446 447 448 449 450 451 452 453 454 455 456 457 458 459 460 461 462 463 464 465 466 467 468 469 470 471 472 473 474 475 476 477 478 479 480 481 482 483 484 485 486 487 488 489 490 491 492 493 494 495 496 497 498 499 500</DataArray>
<DataArray type="Int32" Name="type" format="ascii">1 1 1 1 1 1 1 1 1 1 1 1 1 1 1 1 1 1 1 1 1 1 1 1 1 1 1 1 1 1 1 1 1 1 1 1 1 1 1 1 1 1 1 1 1 1 1 1 1 1 1 1 1 1 1 1 1 1 1 1 1 1 1 1 1 1 1 1 1 1 1 1 1 1 1 1 1 1 1 1 1 1 1 1 1 1 1 1 1 1 1 1 1 1 1 1 1 1 1 1 2 2 2 2 2 2 2 2 2 2 2 2 2 2 2 2 2 2 2 2 2 2 2 2 2 2 2 2 2 2 2 2 2 2 2 2 2 2 2 2 2 2 2 2 2 2 2 2 2 2 2 2 2 2 2 2 2 2 2 2 2 2 2 2 2 2 2 2 2 2 2 2 2 2 2 2 2 2 2 2 2 2 2 2 2 2 2 2 2 2 2 2 2 2 2 2 2 2 2 2 2 2 2 2 2 2 2 2 2 2 2 2 2 2 2 2 2 2 2 2 2 2 2 2 2 2 2 2 2 2 2 2 2 2 2 2 2 2 2 2 2 2 2 2 2 2 2 2 2 2 2 2 2 2 2 2 2 2 2 2 2 2 2 2 2 2 2 2 2 2 2 2 2 2 2 2 2 2 2 2 2 2 2 2 2 2 2 2 2 2 2 2 2 2 2 2 2 2 2 2 2 2 2 2 2 2 2 2 2 2 2 2 2 2 2 2 2 2 2 2 2 2 2 2 2 2 2 2 2 2 2 2 2 2 2 2 2 2 2 2 2 2 2 2 2 2 2 2 2 2 2 2 2 2 2 2 2 2 2 2 2 2 2 2 2 2 2 2 2 2 2 2 2 2 2 2 2 2 2 2 2 2 2 2 2 2 2 2 2 2 2 2 2 2 2 2 2 2 2 2 3 3 3 3 3 3 3 3 3 3 3 3 3 3 3 3 3 3 3 3 3 3 3 3 3 3 3 3 3 3 3 3 3 3 3 3 3 3 3 3 3 3 3 3 3 3 3 3 3 3 3 3 3 3 3 3 3 3 3 3 3 3 3 3 3 3 3 3 3 3 3 3 3 3 3 3 3 3 3 3 3 3 3 3 3 3 3 3 3 3 3 3 3 3 3 3 3 3 3 3</DataArray>
<DataArray type="Float64" Name="radius" format="ascii">0.00075 0.00075 0.00075 0.00075 0.00075 0.00075 0.00075 0.00075 0.00075 0.00075 0.00075 0.00075 0.00075 0.00075 0.00075 0.00075 0.00075 0.00075 0.00075 0.00075 0.00075 0.00075 0.00075 0.00075 0.00075 0.00075 0.00075 0.00075 0.00075 0.00075 0.00075 0.00075 0.00075 0.00075 0.00075 0.00075 0.00075 0.00075 0.00075 0.00075 0.00075 0.00075 0.00075 0.00075 0.00075 0.00075 0.00075 0.00075 0.00075 0.00075 0.00075 0.00075 0.00075 0.00075 0.00075 0.00075 0.00075 0.00075 0.00075 0.00075 0.00075 0.00075 0.00075 0.00075 0.00075 0.00075 0.00075 0.00075 0.00075 0.00075 0.00075 0.00075 0.00075 0.00075 0.00075 0.00075 0.00075 0.00075 0.00075 0.00075 0.00075 0.00075 0.00075 0.00075 0.00075 0.00075 0.00075 0.00075 0.00075 0.00075 0.00075 0.00075 0.00075 0.00075 0.00075 0.00075 0.00075 0.00075 0.00075 0.00075 0.001 0.001 0.001 0.001 0.001 0.001 0.001 0.001 0.001 0.001 0.001 0.001 0.001 0.001 0.001 0.001 0.001 0.001 0.001 0.001 0.001 0.001 0.001 0.001 0.001 0.001 0.001 0.001 0.001 0.001 0.001 0.001 0.001 0.001 0.001 0.001 0.001 0.001 0.001 0.001 0.001 0.001 0.001 0.001 0.001 0.001 0.001 0.001 0.001 0.001 0.001 0.001 0.001 0.001 0.001 0.001 0.001 0.001 0.001 0.001 0.001 0.001 0.001 0.001 0.001 0.001 0.001 0.001 0.001 0.001 0.001 0.001 0.001 0.001 0.001 0.001 0.001 0.001 0.001 0.001 0.001 0.001 0.001 0.001 0.001 0.001 0.001 0.001 0.001 0.001 0.001 0.001 0.001 0.001 0.001 0.001 0.001 0.001 0.001 0.001 0.001 0.001 0.001 0.001 0.001 0.001 0.001 0.001 0.001 0.001 0.001 0.001 0.001 0.001 0.001 0.001 0.001 0.001 0.001 0.001 0.001 0.001 0.001 0.001 0.001 0.001 0.001 0.001 0.001 0.001 0.001 0.001 0.001 0.001 0.001 0.001 0.001 0.001 0.001 0.001 0.001 0.001 0.001 0.001 0.001 0.001 0.001 0.001 0.001 0.001 0.001 0.001 0.001 0.001 0.001 0.001 0.001 0.001 0.001 0.001 0.001 0.001 0.001 0.001 0.001 0.001 0.001 0.001 0.001 0.001 0.001 0.001 0.001 0.001 0.001 0.001 0.001 0.001 0.001 0.001 0.001 0.001 0.001 0.001 0.001 0.001 0.001 0.001 0.001 0.001 0.001 0.001 0.001 0.001 0.001 0.001 0.001 0.001 0.001 0.001 0.001 0.001 0.001 0.001 0.001 0.001 0.001 0.001 0.001 0.001 0.001 0.001 0.001 0.001 0.001 0.001 0.001 0.001 0.001 0.001 0.001 0.001 0.001 0.001 0.001 0.001 0.001 0.001 0.001 0.001 0.001 0.001 0.001 0.001 0.001 0.001 0.001 0.001 0.001 0.001 0.001 0.001 0.001 0.001 0.001 0.001 0.001 0.001 0.001 0.001 0.001 0.001 0.001 0.001 0.001 0.001 0.001 0.001 0.001 0.001 0.001 0.001 0.001 0.001 0.001 0.001 0.001 0.001 0.001 0.001 0.001 0.001 0.001 0.001 0.001 0.001 0.001 0.001 0.001 0.001 0.001 0.001 0.001 0.001 0.001 0.001 0.001 0.001 0.001 0.001 0.001 0.001 0.001 0.001 0.001 0.001 0.001 0.001 0.001 0.001 0.00125 0.00125 0.00125 0.00125 0.00125 0.00125 0.00125 0.00125 0.00125 0.00125 0.00125 0.00125 0.00125 0.00125 0.00125 0.00125 0.00125 0.00125 0.00125 0.00125 0.00125 0.00125 0.00125 0.00125 0.00125 0.00125 0.00125 0.00125 0.00125 0.00125 0.00125 0.00125 0.00125 0.00125 0.00125 0.00125 0.00125 0.00125 0.00125 0.00125 0.00125 0.00125 0.00125 0.00125 0.00125 0.00125 0.00125 0.00125 0.00125 0.00125 0.00125 0.00125 0.00125 0.00125 0.00125 0.00125 0.00125 0.00125 0.00125 0.00125 0.00125 0.00125 0.00125 0.00125 0.00125 0.00125 0.00125 0.00125 0.00125 0.00125 0.00125 0.00125 0.00125 0.00125 0.00125 0.00125 0.00125 0.00125 0.00125 0.00125 0.00125 0.00125 0.00125 0.00125 0.00125 0.00125 0.00125 0.00125 0.00125 0.00125 0.00125 0.00125 0.00125 0.00125 0.00125 0.00125 0.00125 0.00125 0.00125 0.00125</DataArray>
<DataArray type="Float64" Name="diameter" format="ascii">0.0015 0.0015 0.0015 0.0015 0.0015 0.0015 0.0015 0.0015 0.0015 0.0015 0.0015 0.0015 0.0015 0.0015 0.0015 0.0015 0.0015 0.0015 0.0015 0.0015 0.0015 0.0015 0.0015 0.0015 0.0015 0.0015 0.0015 0.0015 0.0015 0.0015 0.0015 0.0015 0.0015 0.0015 0.0015 0.0015 0.0015 0.0015 0.0015 0.0015 0.0015 0.0015 0.0015 0.0015 0.0015 0.0015 0.0015 0.0015 0.0015 0.0015 0.0015 0.0015 0.0015 0.0015 0.0015 0.0015 0.0015 0.0015 0.0015 0.0015 0.0015 0.0015 0.0015 0.0015 0.0015 0.0015 0.0015 0.0015 0.0015 0.0015 0.0015 0.0015 0.0015 0.0015 0.0015 0.0015 0.0015 0.0015 0.0015 0.0015 0.0015 0.0015 0.0015 0.0015 0.0015 0.0015 0.0015 0.0015 0.0015 0.0015 0.0015 0.0015 0.0015 0.0015 0.0015 0.0015 0.0015 0.0015 0.0015 0.0015 0.002 0.002 0.002 0.002 0.002 0.002 0.002 0.002 0.002 0.002 0.002 0.002 0.002 0.002 0.002 0.002 0.002 0.002 0.002 0.002 0.002 0.002 0.002 0.002 0.002 0.002 0.002 0.002 0.002 0.002 0.002 0.002 0.002 0.002 0.002 0.002 0.002 0.002 0.002 0.002 0.002 0.002 0.002 0.002 0.002 0.002 0.002 0.002 0.002 0.002 0.002 0.002 0.002 0.002 0.002 0.002 0.002 0.002 0.002 0.002 0.002 0.002 0.002 0.002 0.002 0.002 0.002 0.002 0.002 0.002 0.002 0.002 0.002 0.002 0.002 0.002 0.002 0.002 0.002 0.002 0.002 0.002 0.002 0.002 0.002 0.002 0.002 0.002 0.002 0.002 0.002 0.002 0.002 0.002 0.002 0.002 0.002 0.002 0.002 0.002 0.002 0.002 0.002 0.002 0.002 0.002 0.002 0.002 0.002 0.002 0.002 0.002 0.002 0.002 0.002 0.002 0.002 0.002 0.002 0.002 0.002 0.002 0.002 0.002 0.002 0.002 0.002 0.002 0.002 0.002 0.002 0.002 0.002 0.002 0.002 0.002 0.002 0.002 0.002 0.002 0.002 0.002 0.002 0.002 0.002 0.002 0.002 0.002 0.002 0.002 0.002 0.002 0.002 0.002 0.002 0.002 0.002 0.002 0.002 0.002 0.002 0.002 0.002 0.002 0.002 0.002 0.002 0.002 0.002 0.002 0.002 0.002 0.002 0.002 0.002 0.002 0.002 0.002 0.002 0.002 0.002 0.002 0.002 0.002 0.002 0.002 0.002 0.002 0.002 0.002 0.002 0.002 0.002 0.002 0.002 0.002 0.002 0.002 0.002 0.002 0.002 0.002 0.002 0.002 0.002 0.002 0.002 0.002 0.002 0.002 0.002 0.002 0.002 0.002 0.002 0.002 0.002 0.002 0.002 0.002 0.002 0.002 0.002 0.002 0.002 0.002 0.002 0.002 0.002 0.002 0.002 0.002 0.002 0.002 0.002 0.002 0.002 0.002 0.002 0.002 0.002 0.002 0.002 0.002 0.002 0.002 0.002 0.002 0.002 0.002 0.002 0.002 0.002 0.002 0.002 0.002 0.002 0.002 0.002 0.002 0.002 0.002 0.002 0.002 0.002 0.002 0.002 0.002 0.002 0.002 0.002 0.002 0.002 0.002 0.002 0.002 0.002 0.002 0.002 0.002 0.002 0.002 0.002 0.002 0.002 0.002 0.002 0.002 0.002 0.002 0.002 0.002 0.002 0.002 0.002 0.002 0.002 0.002 0.002 0.002 0.0025 0.0025 0.0025 0.0025 0.0025 0.0025 0.0025 0.0025 0.0025 0.0025 0.0025 0.0025 0.0025 0.0025 0.0025 0.0025 0.0025 0.0025 0.0025 0.0025 0.0025 0.0025 0.0025 0.0025 0.0025 0.0025 0.0025 0.0025 0.0025 0.0025 0.0025 0.0025 0.0025 0.0025 0.0025 0.0025 0.0025 0.0025 0.0025 0.0025 0.0025 0.0025 0.0025 0.0025 0.0025 0.0025 0.0025 0.0025 0.0025 0.0025 0.0025 0.0025 0.0025 0.0025 0.0025 0.0025 0.0025 0.0025 0.0025 0.0025 0.0025 0.0025 0.0025 0.0025 0.0025 0.0025 0.0025 0.0025 0.0025 0.0025 0.0025 0.0025 0.0025 0.0025 0.0025 0.0025 0.0025 0.0025 0.0025 0.0025 0.0025 0.0025 0.0025 0.0025 0.0025 0.0025 0.0025 0.0025 0.0025 0.0025 0.0025 0.0025 0.0025 0.0025 0.0025 0.0025 0.0025 0.0025 0.0025 0.0025</DataArray>
<DataArray type="Float64" Name="conductivity" format="ascii">1.0 1.0 10.0 1.0 1.0 10.0 10.0 1.0 1.0 1.0 1.0 1.0 1.0 1.0 1.0 1.0 10.0 1.0 1.0 1.0 1.0 1.0 10.0 1.0 1.0 1.0 1.0 1.0 1.0 1.0 1.0 10.0 1.0 1.0 1.0 1.0 1.0 1.0 1.0 1.0 1.0 1.0 1.0 1.0 1.0 1.0 1.0 1.0 1.0 1.0 1.0 1.0 1.0 1.0 10.0 1.0 1.0 1.0 10.0 1.0 1.0 10.0 1.0 1.0 1.0 1.0 1.0 1.0 1.0 1.0 1.0 1.0 1.0 1.0 1.0 1.0 1.0 1.0 1.0 1.0 10.0 1.0 1.0 1.0 1.0 1.0 1.0 1.0 1.0 1.0 1.0 1.0 1.0 1.0 1.0 1.0 1.0 1.0 1.0 1.0 10.0 1.0 1.0 1.0 1.0 1.0 1.0 1.0 1.0 1.0 1.0 1.0 1.0 1.0 1.0 1.0 1.0 1.0 1.0 1.0 1.0 1.0 1.0 1.0 1.0 1.0 1.0 1.0 10.0 1.0 1.0 1.0 1.0 1.0 1.0 1.0 1.0 1.0 1.0 1.0 1.0 1.0 10.0 10.0 1.0 1.0 1.0 1.0 1.0 1.0 1.0 10.0 1.0 1.0 1.0 1.0 1.0 1.0 1.0 1.0 10.0 1.0 10.0 1.0 1.0 1.0 1.0 1.0 1.0 1.0 1.0 10.0 1.0 1.0 1.0 1.0 1.0 1.0 1.0 1.0 1.0 1.0 1.0 1.0 1.0 10.0 1.0 1.0 10.0 1.0 1.0 1.0 1.0 1.0 1.0 1.0 1.0 1.0 1.0 1.0 10.0 1.0 1.0 1.0 10.0 1.0 1.0 1.0 1.0 1.0 1.0 1.0 1.0 1.0 1.0 1.0 10.0 1.0 10.0 1.0 1.0 1.0 1.0 1.0 10.0 1.0 1.0 1.0 1.0 1.0 1.0 1.0 1.0 1.0 1.0 1.0 1.0 1.0 1.0 1.0 1.0 1.0 1.0 1.0 1.0 1.0 1.0 1.0 1.0 1.0 1.0 1.0 1.0 1.0 1.0 1.0 1.0 1.0 1.0 1.0 10.0 1.0 1.0 10.0 1.0 1.0 1.0 1.0 10.0 1.0 1.0 1.0 1.0 1.0 1.0 1.0 1.0 1.0 1.0 1.0 1.0 1.0 1.0 1.0 1.0 1.0 1.0 1.0 1.0 1.0 1.0 1.0 1.0 1.0 1.0 1.0 10.0 10.0 1.0 1.0 1.0 1.0 1.0 1.0 1.0 1.0 1.0 1.0 1.0 1.0 1.0 1.0 1.0 1.0 1.0 1.0 1.0 1.0 1.0 1.0 1.0 1.0 1.0 1.0 10.0 1.0 1.0 1.0 1.0 10.0 1.0 1.0 1.0 10.0 1.0 1.0 10.0 1.0 1.0 1.0 1.0 1.0 1.0 1.0 1.0 1.0 1.0 1.0 1.0 1.0 1.0 1.0 1.0 1.0 1.0 1.0 1.0 1.0 1.0 10.0 1.0 1.0 1.0 1.0 1.0 10.0 1.0 1.0 1.0 10.0 1.0 1.0 1.0 1.0 1.0 1.0 1.0 1.0 1.0 1.0 10.0 1.0 1.0 1.0 1.0 1.0 1.0 1.0 1.0 1.0 1.0 1.0 1.0 1.0 10.0 1.0 1.0 10.0 1.0 1.0 10.0 1.0 1.0 1.0 1.0 1.0 1.0 1.0 10.0 1.0 1.0 1.0 1.0 1.0 1.0 1.0 1.0 1.0 1.0 1.0 1.0 1.0 1.0 1.0 1.0 1.0 1.0 1.0 1.0 1.0 1.0 1.0 10.0 1.0 1.0 1.0 1.0 1.0 1.0 10.0 10.0 1.0 1.0 1.0 1.0 1.0 1.0 1.0 1.0 1.0 1.0 1.0 1.0 10.0 1.0 1.0 10.0 1.0 10.0 1.0 1.0 1.0 1.0 1.0 1.0 1.0 1.0 1.0 1.0 1.0 1.0 1.0 1.0 1.0 1.0 1.0 1.0 1.0 1.0 1.0 1.0 1.0 1.0 1.0 1.0 10.0 1.0 1.0 1.0 10.0 1.0 1.0 1.0 1.0 1.0 1.0 1.0 1.0 1.0 1.0</DataArray>
<DataArray type="Float64" Name="temperature" format="ascii">300.18451162106385 300.94366730123704 300.7679256312491 300.52313570862697 300.20547760383187 300.0519066866987 300.1348569106297 300.95137919748083 300.1663592733775 300.0353663863456 300.52633772791603 300.08827932742906 300.239117311909 300.71137071524305 300.8171347990966 300.3695974646763 300.154601706748 300.2891802262739 300.0470288359774 300.2299627266061 300.95950182055196 300.0516521226655 300.94528646872106 300.47320780460507 300.419728957985 300.0371513078098 300.66528639208394 300.557599740464 300.2422107057785 300.2866793978557 300.1510128370026 300.842410315104 300.4874244565317 nan 300.06438407178905 300.31027356943196 300.8481396786689 300.1560298924451 300.58536489168546 300.03877137722196 300.5641118561478 300.5467977667634 300.2441920761185 300.65165049349235 300.3433142343104 300.0407892568453 300.1376378827732 300.9502350190604 300.6879449717682 300.04326910486697 300.94484809535777 300.04449643561406 300.3332249440539 300.90200506960923 300.0456851378064 300.23837165474254 300.72302573857894 300.2744523163789 300.1252745085144 300.95055604311864 300.9408698537826 300.47745584335496 300.05845021412773 300.6501424242996 300.1334915042381 300.26199651785305 300.94345400156465 300.0998303057292 300.60876849523163 300.94446486777747 300.7982147792229 300.38800111501627 300.73572685289304 300.14380693403336 nan 300.40130821459894 300.6962566857662 301.0 300.2822051995197 300.9191117098923 300.4997983280016 300.03290195785803 300.6152645140906 300.3067624372275 300.3542710733508 300.45075386189507 300.19412377553994 300.5632474978144 300.045493761782 300.5516411066218 300.74218384832193 300.5563351981169 300.5045174433882 300.5935341231245 300.94191386478116 300.10041200401406 300.20786598110374 300.6845481290903 300.79253378817407 300.58424570541547 300.30728935547916 300.1262795826368 300.91775725177393 300.7559752556718 300.07229415394994 300.0802771381899 300.7056459772189 300.04496283831503 300.2826423224232 300.3259245908141 300.1631359249843 300.5193253416991 300.70029175298254 300.18875713256966 300.1522060255486 300.5213483064083 300.823178585462 300.45931552224727 300.0927640380943 300.25746005409445 300.5829895055009 300.51051737307534 300.5416696342982 300.713256339259 300.44283280619356 300.0564664289388 300.4060835045702 300.9308575020099 300.79890149183535 300.1335812776616 300.6565379548183 300.80905684482207 300.3849651242912 300.7157962864469 300.9210339438704 300.6531480893173 300.3963845863488 300.67914861777496 300.1974593730496 300.8160115501498 300.10282935936436 300.04190558291856 300.0734637353692 300.5626577098094 300.8634610986663 300.18706098855824 300.83319620313944 300.8026206448755 300.7002738689069 300.79099034122896 300.4312138045703 300.4920551572883 300.0604825710539 300.2456877598852 300.35516298587464 300.2995600566269 300.69158109371773 300.51959276393524 300.77352488364784 300.31501012434705 300.4374781328089 300.46982772711425 300.3761327499061 300.3572281676344 300.481512373687 300.7683305356611 300.4449637047852 300.92544254546436 300.80058490646115 300.346001717051 300.5916516702959 300.1264456304769 300.92978863483506 300.06674540482254 300.3551714086484 300.7607027630494 300.6053699988885 300.3005932813892 300.19821574701996 300.30470678033726 300.16937726474305 300.9376421067137 300.84364817087203 300.4111230115557 300.0755517584165 300.9264042605322 300.4163693863132 300.39011437343515 300.54063011011516 300.70515601305243 300.24520495164 300.93323713922877 300.5289169541452 300.70631513783667 300.15468075931074 300.9259092332063 300.5581687975734 300.0487654524937 300.64078209861964 300.05655823589814 300.24605320539814 300.1384984680794 300.9380728994845 300.692908996611 300.0944402940188 300.1725267025961 300.1147475139942 300.07988279624215 300.36875200715536 300.2420235283167 300.3009483082866 300.3245001667951 300.56929095851996 300.3867332839817 300.4829186231209 300.15015737527824 300.2368999433974 300.80789800084614 300.0412154726175 300.2826539660881 300.6409453046891 300.5737053987029 300.87492630351665 300.06125973810845 300.4172610442576 300.5054879696341 300.87809625718035 300.39993966532813 300.41703684844134 300.40510401645565 300.2630985905658 300.82660104138176 300.7286954814393 300.1485666271796 300.28911380817124 nan 300.4565218715274 300.93006183824804 300.0527282622907 300.45500490006395 300.69185832990337 300.23960414216015 300.9388013529737 300.28995659409236 300.1658449658499 300.80896558494993 300.77481826915925 300.7710925394087 300.2323294012352 300.043083930329 300.120681324524 300.60972485837124 300.4757056313716 300.0487576128033 300.92968691981554 300.07456048405675 300.13648024139735 300.0727864411837 300.2313452495376 300.67572010954194 300.22442305676896 300.874409278627 300.2693695341596 300.029377104652 300.63071355376815 300.477882196049 300.2668954310632 300.3682718801878 300.3941420381415 300.0341360300649 300.91661994321476 300.34244726774614 300.23485347539213 300.17651353241524 300.90794067018 300.2881732719079 300.64904483638475 300.37601614436926 300.947956941117 300.8145901360979 300.201214534002 300.60779477168904 300.9419805114383 300.12422623214866 300.0630607357767 300.6857863632006 300.49521361239476 300.58934861526643 300.60876849523163 300.3924441872018 300.3655689671584 300.7769531584904 300.31068141355985 300.77554967958923 300.8213230981672 300.2666909916359 300.2119817932025 300.940363793282 300.82082652139235 300.46857262322095 300.5362087951481 300.6660344758633 300.7375778885664 300.80621123303115 300.8407368737888 300.647744942592 300.25308014827954 300.84084599984254 300.552338224822 300.83333439161555 300.08645133740583 300.36014153692474 300.4596000780703 300.8306133580702 300.35090860501884 300.3040415081971 300.66803480052045 300.5740186519809 300.58284654693654 300.87347244161333 300.04704379822255 300.71974410125915 300.7494462520587 300.4033493577326 300.51142400490124 300.04684389211485 300.7171420488317 300.057361645371 300.67666089603017 300.04072687248606 300.84170084517086 300.29777866258826 300.8288598814643 300.44390653609923 300.8137639193155 300.04023745551757 300.2902312475471 300.59453689543625 300.04515211384427 300.2685102263161 300.4212770093233 300.36839341002 300.93473666390673 300.52768860275773 300.69737342799783 300.4441736194142 300.61507212582745 300.58988073759684 300.35308726816606 300.46019549450796 300.88235960601247 300.4197459052653 300.92938279918496 300.16396040697896 300.6180153456656 300.41334841050855 300.08110254448155 300.53205389381856 300.76247830990735 300.3501697560692 300.8808872879057 300.9253306893886 300.7600960767513 300.0505928361248 300.9320303542329 300.81905531376503 300.2725431676602 300.69588214679936 300.39374607161466 300.73453816921807 300.05225442517616 300.3141462008456 300.5460874493799 300.32606782647684 300.04631450203317 300.3404677394918 300.9315297772125 300.73212119803964 300.9184447604259 300.7759017604985 300.4176464043873 300.06030583838907 300.67248663926546 300.9096007400551 300.727846130863 300.75271779362487 300.48055254773743 300.26398482877494 300.21199165834054 300.3161790070082 300.6380706243205 300.45131845745107 300.7617208982949 300.8811770862261 300.2202514852688 300.8130090125543 300.335719804426 300.6938455223475 300.368396929739 300.18008995356377 300.1510128370026 300.28213858683694 300.3663839719345 300.71047677448456 300.292810251435 300.90999594355003 300.08485231945264 300.65921315132465 300.79728151166813 300.3422809028728 300.5967899284127 300.5928661225273 300.90878206939584 300.1645210477219 300.2565064134742 300.5593761137203 300.2105310517318 300.4229528832859 300.70634023755656 300.1483271679523 300.5779106697442 300.67755367057487 300.16103175162635 300.7066222036487 300.47728211467955 300.45287470631234 300.18984068651275 300.9051401125678 300.9148036589186 300.1872323558811 300.51973983819204 300.1489314776781 300.6658372583971 300.2490678071933 300.5621204211765 300.3901001521542 300.5469196295439 300.50403491827376 300.62028104193627 300.0448987597267 300.3081061020705 300.4365759868016 300.24919967167415 300.8097677418383 300.39046490038464 300.8468176047499 300.84924890051326 300.9109038471774 300.8020646727956 300.3699438617684 300.13726816245014 300.4528537100692 300.792004067151 300.30219045523165 300.7762636385424 300.23632271957183 300.646577708251 300.184573100773 300.4810632624349 300.4599025083934 300.3944788840437 300.35762510568736 300.5486499952607 300.1449707331358 300.52180937392757 300.8024487797535 300.3731706687953 300.58517712444825 300.1502727866483 300.18042496906673 300.27290246325583 300.15955705429826 300.7435571646221 300.4857182163552 300.54429049964097 300.3696154734213 300.1705717020362 300.2545502787053 300.1382301696983 300.4787185873528 300.80655802129183 300.90990343444736 300.5822330513654 300.7192760897216 300.6078771170643 300.94546963291504 300.2730461544856 300.1539669870016 300.07107156533175 300.2038193838146 300.5835025363825 300.83328188809674 300.11855007746414 300.48656231255484 300.29357377917734 300.38074828226587 300.90856658916385 300.16014127668416 300.06754196037537 300.544415534783</DataArray>
<DataArray type="Float64" Name="g_hot" format="ascii">0.0 0.00016614150595200487 0.0 0.0 0.0 0.0 0.0 0.00040125303737168145 0.0 0.0 0.0 0.0 0.0 0.0 0.0 0.0 0.0 0.0 0.0 0.0 0.00037340862336052166 0.0 0.002456888275848131 0.0 0.0 0.0 0.0 0.0 0.0 0.0 0.0 0.0 0.0 0.0 0.0 0.0 0.0 0.0 0.0 0.0 0.0 0.0 0.0 0.0 0.0 0.0 0.0 0.0005143840977324242 0.0 0.0 0.0008161452076683414 0.0 0.0 0.0 0.0 0.0 0.0 0.0 0.0 0.0005603900427380915 0.0004697243872740694 0.0 0.0 0.0 0.0 0.0 4.724404724407103e-05 0.0 0.0 0.0004005234075556636 0.0 0.0 0.0 0.0 0.0 0.0 0.0 2.4494897427831784e-07 0.0 0.0 0.0 0.0 0.0 0.0 0.0 0.0 0.0 0.0 0.0 0.0 0.0 0.0 0.0 0.0 0.00044879505344867614 0.0 0.0 0.0 0.0 0.0 0.0 0.0 0.0006041522986797285 0.0 0.0 0.0 0.0 0.0 0.0 0.0 0.0 0.0 0.0 0.0 0.0 0.0 0.0 0.0 0.0 0.0 0.0 0.0 0.0 0.0 0.0 0.0 0.0 0.0007935111845462547 0.0 0.0 0.0 0.0 0.0 0.0 0.0007135040294209978 0.0 0.0 0.0 0.0 0.0 0.0 0.0 0.0 0.0 0.0 0.0 0.0 0.0 0.0 0.0 0.0 0.0 0.0 0.0 0.0 0.0 0.0 0.0 0.0 0.0 0.0 0.0 0.0 0.0 0.0 0.0 0.0 0.0005137236611253177 0.0 0.0 0.0 0.0 0.0008712060605849802 0.0 0.0 0.0 0.0 0.0 0.0 0.0 0.0 0.0008669209883259258 0.0 0.0 0.0 0.004310684400417179 0.0 0.0 0.0 0.0 0.0 0.0005587486017879596 0.0 0.0 0.0 0.0 0.0 0.0 0.0 0.0 0.0 0.0 0.00046722585544894696 0.0 0.0 0.0 0.0 0.0 0.0 0.0 0.0 0.0 0.0 0.0 0.0 0.0 0.0 0.0 0.0 0.0 0.0 0.0 0.0 0.0 0.0 0.0 0.00016264070831129495 0.0 0.0 0.0 0.0 0.0 0.0 0.0 0.0 0.0 0.0 0.00031189741903388674 0.0 0.0 0.0 0.0 0.000635326687618268 0.0 0.0 0.0 0.0 0.0 0.0 0.0 0.0 0.0 0.0 0.0 0.0005180077219501656 0.0 0.0 0.0 0.0 0.0 0.0 0.0 0.0 0.0 0.0 0.0 0.0 0.0 0.0 0.0 0.00047615963709663617 0.0 0.0 0.0 0.0 0.0 0.0 0.0 0.0006009159675029447 0.0 0.0 0.0 0.0007445025184645112 0.0 0.0 0.0 0.0 0.0 0.0 0.0 0.0 0.0 0.0 0.0 0.0 0.0 0.0 0.007550390718366833 0.0 0.0 0.0 0.0 0.0 0.0 0.0 0.0 0.0 0.0 0.0 0.0 0.0 0.0 0.0 0.0 0.0 0.0 0.0 0.0 0.0 0.0 0.0 0.0 0.0 0.0 0.0 0.0 0.0 0.0 0.0 0.0 0.0 0.0 0.0 0.0 0.0 0.0 0.0 0.0 0.0 0.0 0.0 0.0 0.0007282938967202732 0.0 0.0 0.0 0.0 0.0 0.0 0.0 0.0 0.0 0.0007780719761050389 0.0 0.0 0.0 0.0 0.0 0.0 0.0 0.0 0.0005946393865192587 0.0 0.0 0.00045484942563446215 0.0 0.0 0.0 0.0 0.0 0.0 0.0 0.0 0.0 0.0 0.0 0.0004682691533722887 0.0 0.0006162174940716955 0.0 0.0 0.0 0.0 0.0 0.0 0.0 0.0 0.0 0.0 0.0 0.0 0.0 0.0 0.0 0.0 0.0 0.0 0.0 0.0 0.0 0.0 0.0 0.0 0.0 0.0 0.0007010349492001095 0.0 0.0 0.0 0.0 0.0 0.0 0.0007475292636412304 0.0 0.0 0.0 0.0 0.0 0.0 0.0 0.0 0.0 0.0 0.0 0.0 0.0 0.0 0.0006217716622683928 0.0006194755846681934 0.0 0.0 0.0 0.0 0.0 0.0 0.0 0.0 0.0 0.0 0.0 0.0 0.0 0.0 0.0 0.0 0.0 0.0 0.0 0.0 0.0 0.0 0.0 0.0 0.0 0.0 0.0 0.0 0.0 0.0 0.0 0.0 0.0 0.0 0.0 0.0 0.0 0.0 0.0 0.0 0.0 0.0 0.0 0.0 0.0 0.0 0.0 0.0 0.0 0.0 0.0 0.0 0.0004506106967216821 0.0 0.0 0.0 0.00811818945332024 0.0 0.0 0.0 0.0 0.0 0.0 0.0 0.0 0.0 0.0 0.0006683935966180405 0.0 0.0 0.0</DataArray>
<DataArray type="Float64" Name="g_cold" format="ascii">0.0 0.0 0.0 0.0 0.0 0.00532631616176981 0.0 0.0 0.0 0.00047042155408878104 0.0 0.0 0.0 0.0 0.0 0.0 0.0 0.0 0.00028389511892828816 0.0 0.0 0.0 0.0 0.0 0.0 0.0004387441607033685 0.0 0.0 0.0 0.0 0.0 0.0 0.0 0.0 0.0006011625724804436 0.0 0.0 0.0 0.0 0.0002747661524848101 0.0 0.0 0.0 0.0 0.0 0.00038522258312734595 0.0 0.0 0.0 0.0005473540340139114 0.0 0.00038638897312333434 0.0 0.0 0.0060958710497459375 0.0 0.0 0.0 0.0 0.0 0.0 0.0 0.0 0.0 0.0 0.0 0.0 0.0 0.0 0.0 0.0 0.0 0.0 0.0 0.0 0.0 0.0 0.0 0.0 0.0 0.0 0.00026419015604542 0.0 0.0 0.0 0.0 0.0 0.0 0.00048610332086018845 0.0 0.0 0.0 0.0 0.0 0.0 0.0 0.0 0.0 0.0 0.0 0.0 0.0 0.0 0.0 0.0001395059786116868 0.000949664108023679 0.0 0.0006377004924479898 0.0 0.0 0.0 0.0 0.0 0.0 0.0 0.0 0.0 0.0 0.0 0.0 0.0 0.0 0.0 0.0 0.0 0.0006320299977599242 0.0 0.0 0.0 0.0 0.0 0.0 0.0 0.0 0.0 0.0 0.0 0.0 0.0 0.0 0.0 0.00030308731096567645 0.0 0.0 0.0 0.0 0.0 0.0 0.0 0.0 0.0 0.0 0.00034851387069729275 0.0 0.0 0.0 0.0 0.0 0.0 0.0 0.0 0.0 0.0 0.0 0.0 0.0 0.0 0.0 0.0 0.0 0.0 0.0 0.0 0.0008526792586127606 0.0 0.0 0.0 0.0 0.0 0.0 0.0 0.0 0.0 0.0 0.0005324114180484908 0.0 0.0 0.0 0.0 0.0 0.0 0.0 0.0 0.0 0.0 0.0 0.0 0.0005409823639162423 0.0 0.0004930131013151768 0.0 0.0 0.0 0.0 0.0 0.0 0.0 0.0 0.0 0.0 0.0 0.0 0.0 0.0 0.0 0.0 0.0 0.0 0.006442529922851739 0.0 0.0 0.0 0.0 0.0002937037930780094 0.0 0.0 0.0 0.0 0.0 0.0 0.0 0.0 0.0 0.0 0.0 0.0 0.0 0.0 0.0007336633547264061 0.0 0.0 0.0 0.0 0.0 0.0 0.0 0.0 0.0 0.0 0.000745293175916967 0.0 0.0 0.0 0.0006574662866401662 0.0 0.0002371959486762114 0.0 0.0 0.0 0.0 0.0 0.0 0.0 0.007757976012262484 0.0 0.0 0.0 0.0 0.0 0.0003096157587533436 0.0 0.0 0.0 0.0 0.0 0.0 0.0 0.0 0.0 0.0 0.0 0.0 0.0 0.0 0.0007115208486533617 0.0 0.0 0.0 0.0 0.0 0.0 0.0 0.0 0.0 0.0 0.0 0.0 0.0 0.0 0.0 0.0 0.0 0.0 0.0 0.0 0.0 0.0 0.0 0.0 0.0 0.0 0.0 0.0 0.0 0.0 0.0 0.0 0.0 0.0 0.0 0.00037344600422068987 0.0 0.0 0.0 0.0 0.0003866030497401819 0.0 0.0 0.0 0.0066472695000910536 0.0 0.0 0.0 0.0 0.0 0.0006272654287208915 0.0 0.0 0.0006045344639211262 0.0 0.0 0.0 0.0 0.0 0.0 0.0 0.0 0.0 0.0 0.0 0.0 0.0 0.0 0.0 0.0 0.0 0.0 0.0 0.0 0.0 0.0 0.0 0.0 0.0 0.0 0.0 0.0 0.0 0.0 0.0 0.00047144662271396897 0.0 0.0 0.0 0.00042972307137086394 0.0 0.0 0.0 0.0 0.0 0.0 0.0007132053828094679 0.0 0.0 0.0 0.0 0.0 0.0 0.0 0.0 0.0 0.0 0.0 0.0 0.0 0.0 0.0 0.0 0.0 0.0 0.0 0.0 0.0 0.0 0.0 0.0 0.000877398083873849 0.0 0.0 0.0 0.0 0.0 0.0 0.0 0.0 0.0 0.0 0.0 0.0 0.0 0.0 0.0 0.0 0.0 0.0 0.0 0.0 0.0 0.0 0.0 0.0 0.0 0.0 0.0 0.0 0.0 0.0 0.0 0.0 0.009559431978865194 0.0 0.0 0.0 0.0 0.0 0.0 0.0 0.0 0.0 0.0 0.0 0.0 0.0 0.0 0.0 0.0 0.0 0.0 0.0 0.0 0.0 0.0 0.0 0.0 0.0 0.0 0.0 0.0 0.0 0.0 0.0 0.0 0.0 0.0 0.0 0.0 0.0 0.0 0.0 0.0 0.0 0.0 0.0 0.0 0.0 0.0 0.0 0.0 0.00030956000643735814 0.0 0.0 0.0 0.0 0.0 0.0 0.0 0.0 0.0 0.0007244497205365597 0.0</DataArray>
</PointData><Points>
<DataArray type="Float64" Name="Points" format="ascii" NumberOfComponents="3">0.000493011 0.00730151 0.0125597 0.0135478 0.00342678 0.000740799 0.00376869 0.00909656 0.00300411 0.0038664 0.00827232 0.00700555 0.00230018 0.00269463 0.011849 0.00250852 0.0046369 0.0147152 0.00352043 0.0126699 0.0132191 0.0077017 0.00398387 0.000696332 0.00157739 0.00651634 0.012952 0.0138936 0.0146457 0.0146944 0.0140013 0.00789444 0.0062738 0.0110874 0.00744728 0.0130319 0.00942109 0.00128455 0.0111734 0.0126999 0.0125566 0.0047824 0.00266581 0.00417859 0.00262968 0.00115188 0.00258527 0.00886343 0.0112002 0.0099038 0.0116316 0.000900048 0.00866203 0.010335 0.00698412 0.00499405 0.0146475 0.00956501 0.0111155 0.0108431 0.0122983 0.00579287 0.000703522 0.00875367 0.0150136 0.0145929 0.00429881 0.010674 0.000729879 0.00701894 0.00261386 0.00770187 0.00452038 0.00857292 0.0082228 0.0125801 0.013952 0.0146848 0.00860374 0.00631692 0.0043737 0.000721987 0.00255625 0.00632914 0.0135987 0.011317 0.0111106 0.000531493 0.0020985 0.010141 0.00594714 0.0108745 0.0114376 0.00393298 0.0101207 0.00203533 0.00669475 0.0151517 0.00744451 0.0136472 0.00622977 0.0146206 0.00484974 0.00775334 0.0147411 0.00715504 0.0137532 0.0105645 0.0104369 0.00105105 0.00184008 0.00804842 0.00546986 0.012735 0.0135219 0.0110357 0.00552027 0.0100914 0.00687521 0.0146458 0.0152702 0.00816926 0.00573405 0.00169788 0.00536853 0.00575944 0.0112858 0.00811019 0.0109342 0.000333692 0.00901691 0.00469854 0.0128825 0.00500401 0.00932155 0.0012836 0.0107145 0.0146701 0.0142516 0.0113193 0.0134961 0.00338456 0.00449497 0.000661803 0.00821117 0.01167 0.00428938 0.0030141 0.014989 0.0147205 0.0112734 0.000523822 0.000527969 0.0153071 0.00223141 0.0146704 0.00525526 0.00481874 0.00973848 0.012368 0.00432018 0.000800857 0.0060712 0.011504 0.0147445 0.0116191 0.00681143 0.0114663 0.0016964 0.00617965 0.00395767 0.00346805 0.0141827 0.0113675 0.00352184 0.00538269 0.0141516 0.00714996 0.0120684 0.000645321 0.0107051 0.00183494 0.000676453 0.00589846 0.00895415 0.00741713 0.00825892 0.0128874 0.0146034 0.00385337 0.00639291 0.00437389 0.000730921 0.010478 0.0133475 0.00774637 0.00339433 0.0111926 0.00945216 0.013076 0.000749256 0.00203052 0.00233768 0.0132393 0.000418812 0.00670399 0.00525533 0.0130047 0.00963998 0.000696527 0.0136999 0.00650829 0.00259982 0.00640045 0.0062688 0.00926918 0.00779927 0.00602207 0.00322564 0.00434473 0.00658616 0.0141112 0.0117638 0.0116081 0.00779019 0.00988525 0.00264787 0.00903162 0.0149673 0.0100163 0.00393141 0.00872153 0.0116626 0.00075 0.000279323 0.00377106 0.00982998 0.0138058 0.0085099 0.000757212 0.00362028 0.00584406 0.00643751 0.0153189 0.0138761 0.0146439 0.0133296 0.00300237 0.00468012 0.0128291 0.0126087 0.00962027 0.0111652 0.0125905 0.00915726 0.000219644 0.00698282 0.00708926 0.00115998 0.0111961 0.0122206 0.0138595 0.000445606 0.00614881 0.00865836 0.00682836 0.0146994 0.00182087 0.00147073 0.00613927 0.00682169 0.0150128 0.00453348 0.0100439 0.00179684 0.00635142 0.0130472 0.00114517 0.00705028 0.0116062 0.00416555 0.00584918 0.00368363 0.00187894 0.000682861 0.00762959 0.00615388 0.0139975 0.0102308 0.00756525 0.0118334 0.0122882 0.00209429 0.00420944 0.00481886 0.00660089 0.00275253 0.0130448 0.00451368 0.00541289 0.00350828 0.0127195 0.0104588 0.0109905 0.0137068 0.0128953 0.00908099 0.000591219 0.00090875 0.0111686 0.0118173 0.00361142 0.00123954 0.0149498 0.0143755 0.00440482 0.0125974 0.0145961 0.00550766 0.00530918 0.00409605 0.0136129 0.00329776 0.0144723 0.00174234 0.0012819 0.0110781 0.0146835 0.0119231 0.0099499 0.00666198 0.00939862 0.0122092 0.00462615 0.00437676 0.00686314 0.00754832 0.00921449 0.00399679 0.0100221 0.0018406 0.0126659 1.41151e-05 0.0123435 0.0127924 0.0129554 0.0122705 0.00655939 0.00797148 0.0111237 0.0025548 0.00311471 0.00975202 0.00774437 0.00117642 0.00793708 0.0140674 0.014792 0.0013073 0.0111542 0.01112 0.00748176 0.00576106 0.00738445 0.00732661 0.00705661 0.00156199 0.0132862 0.00615405 0.0136592 0.00888639 0.00371737 0.00691938 0.0011383 0.00851543 0.00807732 0.00121977 0.0144705 0.00124551 0.0094352 0.00812577 0.0138093 0.0111395 0.000842585 0.00525033 0.0085159 0.00245228 0.00931069 0.00658155 0.0131528 0.00973035 0.0109857 0.00467346 0.00920325 0.0126127 0.00241739 0.00750258 0.00771037 0.00893498 0.0129168 0.0110224 0.003969 0.0103892 0.0111451 0.000872728 0.00838932 0.00463135 0.0045899 0.0100848 0.00599716 0.00858566 0.00716977 0.00323586 0.0041996 0.00803417 0.00688241 0.0117179 0.00673104 0.00475392 0.00269162 0.000271921 0.00631312 0.0141524 0.011615 0.0125889 0.0143936 0.000114288 0.0031526 0.0132468 0.00343174 0.0073073 0.00572037 0.0120432 0.0105601 0.00170202 0.00228892 0.0126539 0.0120717 0.00370761 0.00741853 0.00200219 0.0138898 0.0102581 0.00247586 0.00198444 0.0150523 0.00423767 0.0107821 0.00228088 0.00286013 0.00526061 0.00552815 0.00821719 0.00196482 0.00663834 0.00679314 0.0111311 0.0107118 0.014401 0.000694271 0.0121836 0.0111114 0.0134118 0.0108371 0.00923842 0.00197995 0.00737236 0.010667 0.0118248 0.00396197 0.00420098 0.00737368 0.0119328 0.00651784 0.00781716 0.013515 0.00333392 0.0143423 0.00262287 0.00976003 0.00631987 0.0123775 0.00811547 0.0113112 0.00564228 0.00711587 0.00396106 0.0139045 0.00902363 0.0150693 0.00978469 0.00925657 0.00188371 0.00298924 0.00740235 0.00631321 0.00667648 0.00301519 0.00672493 0.00423506 0.00809138 0.0122979 0.00162615 0.000934022 0.009391 0.00891311 0.00265586 0.00779686 0.0102046 0.00977872 0.00320432 0.0126268 0.00541845 0.00194 0.00463585 0.0131448 0.000127327 0.000652341 0.00081025 0.00236877 0.00927747 0.0145524 0.00837952 0.0135913 0.00945576 0.0135682 0.00479646 0.00272295 0.001676 0.0037193 0.00553534 0.00856388 0.00234458 0.0101714 0.0137293 0.00476471 0.0122949 0.0114414 0.00519698 0.0102356 0.00305499 0.0081446 0.0132436 0.0146526 0.0128168 0.000812112 0.00662779 0.000975816 0.00301158 0.00398195 0.000356092 0.00854828 0.00236553 0.00647102 0.0144415 0.00582947 0.0134685 0.000953545 0.00915555 0.00791194 0.00788389 0.000108268 0.0134798 0.00900648 0.00543686 0.00777583 0.00638584 0.00210087 0.0131059 0.00395751 0.0102145 0.0151745 0.0111019 0.0149802 0.00967256 0.00092195 0.000274145 0.0101765 0.00644295 0.0140949 0.0134937 0.00356982 0.00507358 0.0139015 0.0136251 0.00897267 0.00503523 0.00100521 0.00788846 0.00887733 0.00606273 0.00937883 0.0115674 0.0144438 0.0138889 0.00556811 0.00439314 0.00233364 0.00115674 0.0144314 0.0038254 0.0112208 0.0114789 0.000742283 0.00123893 0.012809 0.00420244 0.0123923 0.000945425 0.00750462 0.00131208 0.00461104 0.0107299 0.00935113 0.0130333 0.00359514 0.00354825 0.0130733 0.0145428 0.000870548 0.0139869 0.00648123 0.00748177 0.0143631 0.00546523 0.000901014 0.00968179 0.0019184 0.0147492 0.0117507 0.00816377 0.0119129 0.0102295 0.0111737 0.0069816 0.00983003 0.00638109 0.0033675 0.00628393 0.00376593 0.00431927 0.00859833 0.000802221 0.0144417 0.00749869 0.0143296 0.00662442 0.0127683 0.0102251 0.00965833 0.0102533 0.000677405 0.0129721 0.00265266 0.00154121 0.00327924 0.0144744 0.0148966 0.0136151 0.0107997 0.000366681 0.0136859 0.00458094 0.0145758 0.00192475 0.00599867 0.00119267 0.0089962 0.00157527 0.0126322 0.00153175 0.0143922 0.0032797 0.00614054 0.00805145 0.000427849 0.00537416 0.00678088 0.0129838 0.0142876 0.000993387 0.00209716 0.0135358 0.00854677 0.00277466 0.00796192 0.00831361 0.0145373 0.00605815 0.00819299 0.00738198 0.00862596 0.0106645 0.00489462 0.00429023 0.00253832 0.00669364 0.0109304 0.00401177 0.0124766 0.00611337 0.0127355 0.00551452 0.00630993 0.0107041 0.00912598 0.00741006 0.00100034 0.0131211 0.00502758 0.00737449 0.0112291 0.00767641 0.00097568 0.0152828 0.00450269 0.0145052 0.00818736 0.00559069 0.0080488 0.0148516 0.0152396 0.00384295 0.00467751 0.015034 0.0122886 0.0100698 0.00928149 0.00089909 0.000483949 0.0152247 0.0106187 0.00493958 0.00790137 0.0131154 0.00981432 0.0108335 0.00263337 0.002013 0.00146872 0.003316 0.000630687 0.00846458 0.00325454 0.00719035 0.00522911 0.011251 0.000600302 0.0122622 0.0145095 0.00273193 0.014136 0.0133522 0.00312247 0.0144776 0.00553698 0.00818538 0.0146816 0.00794779 0.0125162 0.00940704 0.0144787 0.00603632 0.00427764 0.000932917 0.00449298 0.000373966 0.0143847 0.000167381 0.00506648 0.012683 0.00752286 0.0114145 0.0141445 0.0149406 0.00769932 0.0112192 0.00271372 0.00503436 0.00453551 0.00455708 0.0129767 0.0120055 0.00779104 0.0133708 0.00134064 0.00193247 0.0106993 0.0108775 0.0109384 0.00833353 0.0145211 0.00496459 0.00376277 0.00510328 0.000473892 0.0014626 0.00753746 0.00624167 0.000307722 0.011403 0.00127014 0.000924353 0.00918518 0.00474007 0.0121636 0.00914225 0.010527 0.00523387 0.0143946 0.00538299 0.00731263 0.000943318 0.0148221 0.000782182 0.00928872 0.014985 0.00500982 0.0108113 0.0149419 0.0105633 0.0120957 0.0046239 0.00555865 0.00103919 0.00673436 0.00205639 0.0107665 0.0102698 0.00635547 0.00444891 0.00613421 0.0109146 0.00937458 0.00506621 0.000975279 0.000909725 0.00132877 0.00327188 0.00303618 0.0153332 0.00315787 0.0113593 0.0143258 0.00951495 0.00536918 0.0106705 0.005782 0.000861429 0.0085952 0.00271005 0.0134731 0.00654894 0.0130523 0.0144972 0.00955945 0.00310406 0.00410763 0.00275906 0.014727 0.00729698 0.0122821 0.00597883 0.00548947 0.0142802 0.0073774 0.00467984 0.0124009 0.00640074 0.00853939 0.0102002 0.0141239 0.00927605 0.000877017 0.010352 0.00295445 0.0125681 0.00171993 0.00961878 0.0119361 0.000800803 0.00285056 0.0144779 0.00793718 0.00223498 0.0118762 0.00891947 0.00955628 0.00281738 0.00427557 0.0115091 0.00592848 0.00912468 0.000857479 0.0089067 0.0145772 0.00221369 0.00258773 0.0046858 0.00703065 0.014146 0.00619846 0.00623703 0.00570806 0.00214826 0.00456099 0.0122247 0.0133903 0.00330461 0.0125824 0.00853851 0.00210868 0.0152443 0.00432943 0.00238109 0.011023 0.00246347 0.00520603 0.00342645 0.0083408 0.0113643 0.0110418 0.0125714 0.00182869 0.00513331 0.0059524 0.00584849 0.00766538 0.00788841 0.00253833 0.00862063 0.00471638 0.0141882 0.0118655 0.0150784 0.00904179 0.0024444 0.00118667 0.00772203 0.00291418 0.0136045 0.00199471 0.00795137 0.00609129 0.00982887 0.00175532 0.0134383 0.0103344 0.0121766 0.0149779 0.00429437 0.00338444 0.00316305 0.00612888 0.0103824 0.00039714 0.005487 0.00275963 0.00601713 0.00126728 0.0118049 0.00667472 0.0144055 0.000506478 0.00508536 0.00398479 0.0102597 0.00716305 0.00264407 0.0138313 0.012481 0.00826821 0.0047519 0.0143786 0.00730544 0.00976996 0.0136383 0.014408 0.00843132 0.0150034 0.00437379 0.00423021 0.00936856 0.0142987 0.000832271 0.00219935 0.00471153 0.00247101 0.0125194 0.0144811 0.0129426 0.0122428 0.00204217 0.0039516 0.00048718 0.010745 0.0146403 0.0141409 0.00194087 0.00574902 0.00734879 0.00817203 0.0136538 0.000374593 0.00219446 0.00952998 0.00961702 0.014469 0.00500201 0.0142154 0.0106521 0.012204 0.000757626 0.00575173 0.0100384 0.00336847 0.014462 0.00559617 0.00815197 0.0111301 0.0140113 0.00188055 0.00803914 0.00297707 0.0016557 0.00955558 0.0152697 0.00320767 0.000867397 0.0110136 0.0114765 0.00608454 0.0121339 0.00783684 0.00404783 0.0106999 0.0148352 0.00751989 0.00390124 0.00965242 0.00602318 0.00874118 0.0152175 0.00623155 0.00256071 0.0150564 0.00972878 0.0151636 0.0085856 0.00729237 0.000333995 0.0114064 0.00149309 0.00812326 0.0120229 0.00833976 0.00215499 0.00764296 0.000848651 0.0121685 0.00856582 0.0121654 0.010202 0.00460568 0.00517186 0.0110042 0.0076238 0.0080279 0.0116941 0.00299934 0.0134647 0.00571704 0.0104302 0.00618031 0.0037209 0.014374 0.00356214 0.00454627 0.0076352 0.00961946 0.00359661 0.00315342 0.00170258 0.00156782 0.0127756 0.000911601 0.0148137 0.0116747 0.00345297 0.01248 0.0048604 0.0142924 0.0146939 0.00548128 0.000948278 0.00652451 0.0122959 0.00232233 0.0014423 0.00555585 0.0110196 0.00534557 0.00034666 0.00461598 0.00617458 0.00900985 0.00910026 0.00531841 0.0122943 0.00373913 0.0140496 0.0127511 0.0144262 0.00998115 0.0112669 0.00916069 0.00663557 0.013685 0.00668341 0.00601238 0.0124503 0.0106169 0.00811496 0.00842274 0.0144168 0.00239179 0.00936221 0.00961564 0.0134629 0.00692764 0.000945181 0.00934228 0.00541221 0.00303254 0.00405369 0.00890055 0.000905069 0.0035409 0.00559318 0.00292577 0.00495186 0.0102011 0.00798641 0.000178803 0.00944293 0.0144978 0.00689042 0.0126815 0.00478848 0.0059551 0.011008 0.00100096 0.00377824 0.000928609 0.00378107 0.00504164 0.0102898 0.0032917 0.0125735 0.00755284 0.00698267 0.00182832 0.0032197 0.0102603 0.0104091 0.005693 0.0118173 0.00663346 0.00384969 0.0100079 0.0136145 0.00113654 0.00452018 0.0120945 0.0133996 0.00795507 0.00831539 0.00377949 0.00281739 0.014096 0.00180356 0.00100368 0.00473177 0.00950777 0.0121215 0.00512013 0.00233496 0.00268759 0.0105068 0.00108987 0.00971668 0.00437937 0.0111413 0.00493094 0.00909936 0.00956569 0.00872481 0.00951466 0.0041205 0.0125165 0.00506009 0.0112293 0.0131947 0.0134189 0.0151459 0.0105555 0.00149082 0.00508158 0.00887165 0.0102464 0.0139664 0.0038129 0.00927042 0.00776417 0.0101156 0.00156126 0.0044024 0.00115171 0.00510995 0.00450016 0.0142746 0.00942914 0.00832962 0.0046986 0.00583973 0.0142939 0.0030166 0.00804365 0.000234175 0.0101561 0.0122659 0.00927611 0.00561146 0.00886773 0.0131138 0.00551859 0.00235872 0.0107021 0.00113824 0.00610878 0.00612001 0.0128248 0.0092903 0.0132914 0.011426 0.00170972 0.00862476 0.0060503 0.0117872 0.00115571 0.0116475 0.0139021 0.0146717 0.00796517 0.00257912 0.00777336 0.00376394 0.0136339 0.00234321 0.0125785 0.000414558 0.000192635 0.00574279 0.00255323 0.0100887 0.00430299 0.010464 0.0115221 0.0125348 0.00336036 0.00307316 0.00394694 0.00896454 0.00131934 0.00792336 0.00999035 0.012727 0.00759293 0.00130146 0.00904122 0.0121695 0.00926506 0.00287477 0.00117268 0.00796422 0.00949811 0.00117325 0.00694999 0.0133332 0.0124193 0.0135872 0.0102575 0.00728074 0.0133893 0.0128789 0.0123459 0.00483642 0.00844116 0.00449357 0.0136215 0.00937917 0.01081 0.00644529 0.00122516 0.00637692 0.0149025 0.00387729 0.00806378 0.0113872 0.0136318 0.00587027 0.0128448 0.00301368 0.00661025 0.00698909 0.00728632 0.00489334 0.00634946 0.00962625 0.0143034 0.00443206 0.00977363 0.0100386 0.000436529 0.0115043 0.00812507 0.0117085 0.0112083 0.0104334 0.0109652 0.00422473 0.00219587 0.00621795 0.0143269 0.00898024 0.000809496 0.00649696 0.0022332 0.00329161 0.000302357 0.00179682 0.00691515 0.00235016 0.00136909 0.0088953 0.00124312 0.00298981 0.0137537 0.00805144 0.00878234 0.0141085 0.00875695 0.0131222 0.0113194 0.00151832 0.00776026 0.0034508 0.0117956 0.00291391 0.00346664 0.00581893 0.0101212 0.015097 0.00180298 0.00292672 0.0049796 0.00443226 0.01163 0.00505115 0.0137365 0.00523636 0.00870539 9.46005e-05 0.0126002 0.00451373 0.0121109 0.0069794 0.00734525 0.0101427 0.00763727 0.0116995 0.00369503 0.00863181 0.00464792 0.00289813 0.00995802 0.00213374 0.0111315 0.00640642 0.00265641 0.0108205 0.0132162 0.00928022 0.00643706 0.00634863 0.00105095 0.0151171 0.00239109 0.00911798 0.00436004 0.0096004 0.008418 0.00269916 0.00595766 0.00875803 0.00885407 0.0123405 0.00811391 0.0112196 0.0121829 0.0127896 0.00366125 0.0107786 0.0126608 0.0106238 0.0126686 0.011242 0.00963596 0.00352259 0.0106131 0.00967901 0.0072566 0.00715322 0.00533106 0.00622825 0.00266446 0.011467 0.00896511 0.00359403 0.00144697 0.0126623 0.0116419 0.0135771 0.0108081 0.00651407 4.27207e-05 0.0135665 0.00475882 0.00219162 0.00773205 0.0129111 0.00282115 0.00255538 0.00177583 0.00204182 0.00120939 0.0137533 0.0140677 0.00556156 0.0119922 0.00596005 0.00330881 0.0148733 0.00393738 0.00545689 0.00693098 0.0153382 0.00111819 0.0105144 0.0029798 0.0108948 0.0152058 0.0145241 0.0127469 0.0106571 0.000294109 0.0141398 0.00341924 0.00616293 0.0124575 0.00371273 0.00108794 0.00591958 0.0109584 0.0146306 0.0016838 0.0128507 0.0150641 0.0131425 0.00970292 0.0042138 0.00727617 0.013321 0.00639678 0.0105679 0.000731434 0.00741224 0.00889609 0.0072244 0.00620828 0.00116065 0.0069292 0.00384271 0.0128863 0.00582125 0.00219221 0.0142256 0.0150626 0.0121426 0.00595212</DataArray>
</Points><Verts>
<DataArray type="Int64" Name="connectivity" format="ascii">0 1 2 3 4 5 6 7 8 9 10 11 12 13 14 15 16 17 18 19 20 21 22 23 24 25 26 27 28 29 30 31 32 33 34 35 36 37 38 39 40 41 42 43 44 45 46 47 48 49 50 51 52 53 54 55 56 57 58 59 60 61 62 63 64 65 66 67 68 69 70 71 72 73 74 75 76 77 78 79 80 81 82 83 84 85 86 87 88 89 90 91 92 93 94 95 96 97 98 99 100 101 102 103 104 105 106 107 108 109 110 111 112 113 114 115 116 117 118 119 120 121 122 123 124 125 126 127 128 129 130 131 132 133 134 135 136 137 138 139 140 141 142 143 144 145 146 147 148 149 150 151 152 153 154 155 156 157 158 159 160 161 162 163 164 165 166 167 168 169 170 171 172 173 174 175 176 177 178 179 180 181 182 183 184 185 186 187 188 189 190 191 192 193 194 195 196 197 198 199 200 201 202 203 204 205 206 207 208 209 210 211 212 213 214 215 216 217 218 219 220 221 222 223 224 225 226 227 228 229 230 231 232 233 234 235 236 237 238 239 240 241 242 243 244 245 246 247 248 249 250 251 252 253 254 255 256 257 258 259 260 261 262 263 264 265 266 267 268 269 270 271 272 273 274 275 276 277 278 279 280 281 282 283 284 285 286 287 288 289 290 291 292 293 294 295 296 297 298 299 300 301 302 303 304 305 306 307 308 309 310 311 312 313 314 315 316 317 318 319 320 321 322 323 324 325 326 327 328 329 330 331 332 333 334 335 336 337 338 339 340 341 342 343 344 345 346 347 348 349 350 351 352 353 354 355 356 357 358 359 360 361 362 363 364 365 366 367 368 369 370 371 372 373 374 375 376 377 378 379 380 381 382 383 384 385 386 387 388 389 390 391 392 393 394 395 396 397 398 399 400 401 402 403 404 405 406 407 408 409 410 411 412 413 414 415 416 417 418 419 420 421 422 423 424 425 426 427 428 429 430 431 432 433 434 435 436 437 438 439 440 441 442 443 444 445 446 447 448 449 450 451 452 453 454 455 456 457 458 459 460 461 462 463 464 465 466 467 468 469 470 471 472 473 474 475 476 477 478 479 480 481 482 483 484 485 486 487 488 489 490 491 492 493 494 495 496 497 498 499</DataArray>
<DataArray type="Int64" Name="offsets" format="ascii">1 2 3 4 5 6 7 8 9 10 11 12 13 14 15 16 17 18 19 20 21 22 23 24 25 26 27 28 29 30 31 32 33 34 35 36 37 38 39 40 41 42 43 44 45 46 47 48 49 50 51 52 53 54 55 56 57 58 59 60 61 62 63 64 65 66 67 68 69 70 71 72 73 74 75 76 77 78 79 80 81 82 83 84 85 86 87 88 89 90 91 92 93 94 95 96 97 98 99 100 101 102 103 104 105 106 107 108 109 110 111 112 113 114 115 116 117 118 119 120 121 122 123 124 125 126 127 128 129 130 131 132 133 134 135 136 137 138 139 140 141 142 143 144 145 146 147 148 149 150 151 152 153 154 155 156 157 158 159 160 161 162 163 164 165 166 167 168 169 170 171 172 173 174 175 176 177 178 179 180 181 182 183 184 185 186 187 188 189 190 191 192 193 194 195 196 197 198 199 200 201 202 203 204 205 206 207 208 209 210 211 212 213 214 215 216 217 218 219 220 221 222 223 224 225 226 227 228 229 230 231 232 233 234 235 236 237 238 239 240 241 242 243 244 245 246 247 248 249 250 251 252 253 254 255 256 257 258 259 260 261 262 263 264 265 266 267 268 269 270 271 272 273 274 275 276 277 278 279 280 281 282 283 284 285 286 287 288 289 290 291 292 293 294 295 296 297 298 299 300 301 302 303 304 305 306 307 308 309 310 311 312 313 314 315 316 317 318 319 320 321 322 323 324 325 326 327 328 329 330 331 332 333 334 335 336 337 338 339 340 341 342 343 344 345 346 347 348 349 350 351 352 353 354 355 356 357 358 359 360 361 362 363 364 365 366 367 368 369 370 371 372 373 374 375 376 377 378 379 380 381 382 383 384 385 386 387 388 389 390 391 392 393 394 395 396 397 398 399 400 401 402 403 404 405 406 407 408 409 410 411 412 413 414 415 416 417 418 419 420 421 422 423 424 425 426 427 428 429 430 431 432 433 434 435 436 437 438 439 440 441 442 443 444 445 446 447 448 449 450 451 452 453 454 455 456 457 458 459 460 461 462 463 464 465 466 467 468 469 470 471 472 473 474 475 476 477 478 479 480 481 482 483 484 485 486 487 488 489 490 491 492 493 494 495 496 497 498 499 500</DataArray>
</Verts></Piece></PolyData></VTKFile>