<?xml version="1.0"?>
<VTKFile type="PolyData" version="0.1" byte_order="LittleEndian">
<PolyData>
<Piece NumberOfPoints="500" NumberOfVerts="500" NumberOfLines="0" NumberOfStrips="0" NumberOfPolys="0">
<PointData>
<DataArray type="Int64" Name="id" format="ascii">1 2 3 4 5 6 7 8 9 10 11 12 13 14 15 16 17 18 19 20 21 22 23 24 25 26 27 28 29 30 31 32 33 34 35 36 37 38 39 40 41 42 43 44 45 46 47 48 49 50 51 52 53 54 55 56 57 58 59 60 61 62 63 64 65 66 67 68 69 70 71 72 73 74 75 76 77 78 79 80 81 82 83 84 85 86 87 88 89 90 91 92 93 94 95 96 97 98 99 100 101 102 103 104 105 106 107 108 109 110 111 112 113 114 115 116 117 118 119 120 121 122 123 124 125 126 127 128 129 130 131 132 133 134 135 136 137 138 139 140 141 142 143 144 145 146 147 148 149 150 151 152 153 154 155 156 157 158 159 160 161 162 163 164 165 166 167 168 169 170 171 172 173 174 175 176 177 178 179 180 181 182 183 184 185 186 187 188 189 190 191 192 193 194 195 196 197 198 199 200 201 202 203 204 205 206 207 208 209 210 211 212 213 214 215 216 217 218 219 220 221 222 223 224 225 226 227 228 229 230 231 232 233 234 235 236 237 238 239 240 241 242 243 244 245 246 247 248 249 250 251 252 253 254 255 256 257 258 259 260 261 262 263 264 265 266 267 268 269 270 271 272 273 274 275 276 277 278 279 280 281 282 283 284 285 286 287 288 289 290 291 292 293 294 295 296 297 298 299 300 301 302 303 304 305 306 307 308 309 310 311 312 313 314 315 316 317 318 319 320 321 322 323 324 325 326 327 328 329 330 331 332 333 334 335 336 337 338 339 340 341 342 343 344 345 346 347 348 349 350 351 352 353 354 355 356 357 358 359 360 361 362 363 364 365 366 367 368 369 370 371 372 373 374 375 376 377 378 379 380 381 382 383 384 385 386 387 388 389 390 391 392 393 394 395 396 397 398 399 400 401 402 403 404 405 406 407 408 409 410 411 412 413 414 415 416 417 418 419 420 421 422 423 424 425 426 427 428 429 430 431 432 433 434 435 436 437 438 439 440 441 442 443 444 445 446 447 448 449 450 451 452 453 454 455 456 457 458 459 460 461 462 463 464 465 466 467 468 469 470 471 472 473 474 475 476 477 478 479 480 481 482 483 484 485 486 487 488 489 490 491 492 493 494 495 496 497 498 499 500</DataArray>
<DataArray type="Int32" Name="type" format="ascii">1 1 1 1 1 1 1 1 1 1 1 1 1 1 1 1 1 1 1 1 1 1 1 1 1 1 1 1 1 1 1 1 1 1 1 1 1 1 1 1 1 1 1 1 1 1 1 1 1 1 1 1 1 1 1 1 1 1 1 1 1 1 1 1 1 1 1 1 1 1 1 1 1 1 1 1 1 1 1 1 1 1 1 1 1 1 1 1 1 1 1 1 1 1 1 1 1 1 1 1 2 2 2 2 2 2 2 2 2 2 2 2 2 2 2 2 2 2 2 2 2 2 2 2 2 2 2 2 2 2 2 2 2 2 2 2 2 2 2 2 2 2 2 2 2 2 2 2 2 2 2 2 2 2 2 2 2 2 2 2 2 2 2 2 2 2 2 2 2 2 2 2 2 2 2 2 2 2 2 2 2 2 2 2 2 2 2 2 2 2 2 2 2 2 2 2 2 2 2 2 2 2 2 2 2 2 2 2 2 2 2 2 2 2 2 2 2 2 2 2 2 2 2 2 2 2 2 2 2 2 2 2 2 2 2 2 2 2 2 2 2 2 2 2 2 2 2 2 2 2 2 2 2 2 2 2 2 2 2 2 2 2 2 2 2 2 2 2 2 2 2 2 2 2 2 2 2 2 2 2 2 2 2 2 2 2 2 2 2 2 2 2 2 2 2 2 2 2 2 2 2 2 2 2 2 2 2 2 2 2 2 2 2 2 2 2 2 2 2 2 2 2 2 2 2 2 2 2 2 2 2 2 2 2 2 2 2 2 2 2 2 2 2 2 2 2 2 2 2 2 2 2 2 2 2 2 2 2 2 2 2 2 2 2 2 2 2 2 2 2 2 2 2 2 2 2 2 2 2 2 2 2 2 2 2 2 2 2 2 2 2 2 2 2 2 2 2 2 2 2 3 3 3 3 3 3 3 3 3 3 3 3 3 3 3 3 3 3 3 3 3 3 3 3 3 3 3 3 3 3 3 3 3 3 3 3 3 3 3 3 3 3 3 3 3 3 3 3 3 3 3 3 3 3 3 3 3 3 3 3 3 3 3 3 3 3 3 3 3 3 3 3 3 3 3 3 3 3 3 3 3 3 3 3 3 3 3 3 3 3 3 3 3 3 3 3 3 3 3 3</DataArray>
<DataArray type="Float64" Name="radius" format="ascii">0.00075 0.00075 0.00075 0.00075 0.00075 0.00075 0.00075 0.00075 0.00075 0.00075 0.00075 0.00075 0.00075 0.00075 0.00075 0.00075 0.00075 0.00075 0.00075 0.00075 0.00075 0.00075 0.00075 0.00075 0.00075 0.00075 0.00075 0.00075 0.00075 0.00075 0.00075 0.00075 0.00075 0.00075 0.00075 0.00075 0.00075 0.00075 0.00075 0.00075 0.00075 0.00075 0.00075 0.00075 0.00075 0.00075 0.00075 0.00075 0.00075 0.00075 0.00075 0.00075 0.00075 0.00075 0.00075 0.00075 0.00075 0.00075 0.00075 0.00075 0.00075 0.00075 0.00075 0.00075 0.00075 0.00075 0.00075 0.00075 0.00075 0.00075 0.00075 0.00075 0.00075 0.00075 0.00075 0.00075 0.00075 0.00075 0.00075 0.00075 0.00075 0.00075 0.00075 0.00075 0.00075 0.00075 0.00075 0.00075 0.00075 0.00075 0.00075 0.00075 0.00075 0.00075 0.00075 0.00075 0.00075 0.00075 0.00075 0.00075 0.001 0.001 0.001 0.001 0.001 0.001 0.001 0.001 0.001 0.001 0.001 0.001 0.001 0.001 0.001 0.001 0.001 0.001 0.001 0.001 0.001 0.001 0.001 0.001 0.001 0.001 0.001 0.001 0.001 0.001 0.001 0.001 0.001 0.001 0.001 0.001 0.001 0.001 0.001 0.001 0.001 0.001 0.001 0.001 0.001 0.001 0.001 0.001 0.001 0.001 0.001 0.001 0.001 0.001 0.001 0.001 0.001 0.001 0.001 0.001 0.001 0.001 0.001 0.001 0.001 0.001 0.001 0.001 0.001 0.001 0.001 0.001 0.001 0.001 0.001 0.001 0.001 0.001 0.001 0.001 0.001 0.001 0.001 0.001 0.001 0.001 0.001 0.001 0.001 0.001 0.001 0.001 0.001 0.001 0.001 0.001 0.001 0.001 0.001 0.001 0.001 0.001 0.001 0.001 0.001 0.001 0.001 0.001 0.001 0.001 0.001 0.001 0.001 0.001 0.001 0.001 0.001 0.001 0.001 0.001 0.001 0.001 0.001 0.001 0.001 0.001 0.001 0.001 0.001 0.001 0.001 0.001 0.001 0.001 0.001 0.001 0.001 0.001 0.001 0.001 0.001 0.001 0.001 0.001 0.001 0.001 0.001 0.001 0.001 0.001 0.001 0.001 0.001 0.001 0.001 0.001 0.001 0.001 0.001 0.001 0.001 0.001 0.001 0.001 0.001 0.001 0.001 0.001 0.001 0.001 0.001 0.001 0.001 0.001 0.001 0.001 0.001 0.001 0.001 0.001 0.001 0.001 0.001 0.001 0.001 0.001 0.001 0.001 0.001 0.001 0.001 0.001 0.001 0.001 0.001 0.001 0.001 0.001 0.001 0.001 0.001 0.001 0.001 0.001 0.001 0.001 0.001 0.001 0.001 0.001 0.001 0.001 0.001 0.001 0.001 0.001 0.001 0.001 0.001 0.001 0.001 0.001 0.001 0.001 0.001 0.001 0.001 0.001 0.001 0.001 0.001 0.001 0.001 0.001 0.001 0.001 0.001 0.001 0.001 0.001 0.001 0.001 0.001 0.001 0.001 0.001 0.001 0.001 0.001 0.001 0.001 0.001 0.001 0.001 0.001 0.001 0.001 0.001 0.001 0.001 0.001 0.001 0.001 0.001 0.001 0.001 0.001 0.001 0.001 0.001 0.001 0.001 0.001 0.001 0.001 0.001 0.001 0.001 0.001 0.001 0.001 0.001 0.001 0.001 0.001 0.001 0.001 0.001 0.001 0.001 0.001 0.001 0.001 0.001 0.001 0.001 0.001 0.001 0.001 0.001 0.00125 0.00125 0.00125 0.00125 0.00125 0.00125 0.00125 0.00125 0.00125 0.00125 0.00125 0.00125 0.00125 0.00125 0.00125 0.00125 0.00125 0.00125 0.00125 0.00125 0.00125 0.00125 0.00125 0.00125 0.00125 0.00125 0.00125 0.00125 0.00125 0.00125 0.00125 0.00125 0.00125 0.00125 0.00125 0.00125 0.00125 0.00125 0.00125 0.00125 0.00125 0.00125 0.00125 0.00125 0.00125 0.00125 0.00125 0.00125 0.00125 0.00125 0.00125 0.00125 0.00125 0.00125 0.00125 0.00125 0.00125 0.00125 0.00125 0.00125 0.00125 0.00125 0.00125 0.00125 0.00125 0.00125 0.00125 0.00125 0.00125 0.00125 0.00125 0.00125 0.00125 0.00125 0.00125 0.00125 0.00125 0.00125 0.00125 0.00125 0.00125 0.00125 0.00125 0.00125 0.00125 0.00125 0.00125 0.00125 0.00125 0.00125 0.00125 0.00125 0.00125 0.00125 0.00125 0.00125 0.00125 0.00125 0.00125 0.00125</DataArray>
<DataArray type="Float64" Name="diameter" format="ascii">0.0015 0.0015 0.0015 0.0015 0.0015 0.0015 0.0015 0.0015 0.0015 0.0015 0.0015 0.0015 0.0015 0.0015 0.0015 0.0015 0.0015 0.0015 0.0015 0.0015 0.0015 0.0015 0.0015 0.0015 0.0015 0.0015 0.0015 0.0015 0.0015 0.0015 0.0015 0.0015 0.0015 0.0015 0.0015 0.0015 0.0015 0.0015 0.0015 0.0015 0.0015 0.0015 0.0015 0.0015 0.0015 0.0015 0.0015 0.0015 0.0015 0.0015 0.0015 0.0015 0.0015 0.0015 0.0015 0.0015 0.0015 0.0015 0.0015 0.0015 0.0015 0.0015 0.0015 0.0015 0.0015 0.0015 0.0015 0.0015 0.0015 0.0015 0.0015 0.0015 0.0015 0.0015 0.0015 0.0015 0.0015 0.0015 0.0015 0.0015 0.0015 0.0015 0.0015 0.0015 0.0015 0.0015 0.0015 0.0015 0.0015 0.0015 0.0015 0.0015 0.0015 0.0015 0.0015 0.0015 0.0015 0.0015 0.0015 0.0015 0.002 0.002 0.002 0.002 0.002 0.002 0.002 0.002 0.002 0.002 0.002 0.002 0.002 0.002 0.002 0.002 0.002 0.002 0.002 0.002 0.002 0.002 0.002 0.002 0.002 0.002 0.002 0.002 0.002 0.002 0.002 0.002 0.002 0.002 0.002 0.002 0.002 0.002 0.002 0.002 0.002 0.002 0.002 0.002 0.002 0.002 0.002 0.002 0.002 0.002 0.002 0.002 0.002 0.002 0.002 0.002 0.002 0.002 0.002 0.002 0.002 0.002 0.002 0.002 0.002 0.002 0.002 0.002 0.002 0.002 0.002 0.002 0.002 0.002 0.002 0.002 0.002 0.002 0.002 0.002 0.002 0.002 0.002 0.002 0.002 0.002 0.002 0.002 0.002 0.002 0.002 0.002 0.002 0.002 0.002 0.002 0.002 0.002 0.002 0.002 0.002 0.002 0.002 0.002 0.002 0.002 0.002 0.002 0.002 0.002 0.002 0.002 0.002 0.002 0.002 0.002 0.002 0.002 0.002 0.002 0.002 0.002 0.002 0.002 0.002 0.002 0.002 0.002 0.002 0.002 0.002 0.002 0.002 0.002 0.002 0.002 0.002 0.002 0.002 0.002 0.002 0.002 0.002 0.002 0.002 0.002 0.002 0.002 0.002 0.002 0.002 0.002 0.002 0.002 0.002 0.002 0.002 0.002 0.002 0.002 0.002 0.002 0.002 0.002 0.002 0.002 0.002 0.002 0.002 0.002 0.002 0.002 0.002 0.002 0.002 0.002 0.002 0.002 0.002 0.002 0.002 0.002 0.002 0.002 0.002 0.002 0.002 0.002 0.002 0.002 0.002 0.002 0.002 0.002 0.002 0.002 0.002 0.002 0.002 0.002 0.002 0.002 0.002 0.002 0.002 0.002 0.002 0.002 0.002 0.002 0.002 0.002 0.002 0.002 0.002 0.002 0.002 0.002 0.002 0.002 0.002 0.002 0.002 0.002 0.002 0.002 0.002 0.002 0.002 0.002 0.002 0.002 0.002 0.002 0.002 0.002 0.002 0.002 0.002 0.002 0.002 0.002 0.002 0.002 0.002 0.002 0.002 0.002 0.002 0.002 0.002 0.002 0.002 0.002 0.002 0.002 0.002 0.002 0.002 0.002 0.002 0.002 0.002 0.002 0.002 0.002 0.002 0.002 0.002 0.002 0.002 0.002 0.002 0.002 0.002 0.002 0.002 0.002 0.002 0.002 0.002 0.002 0.002 0.002 0.002 0.002 0.002 0.002 0.002 0.002 0.002 0.002 0.002 0.002 0.002 0.002 0.002 0.002 0.002 0.002 0.0025 0.0025 0.0025 0.0025 0.0025 0.0025 0.0025 0.0025 0.0025 0.0025 0.0025 0.0025 0.0025 0.0025 0.0025 0.0025 0.0025 0.0025 0.0025 0.0025 0.0025 0.0025 0.0025 0.0025 0.0025 0.0025 0.0025 0.0025 0.0025 0.0025 0.0025 0.0025 0.0025 0.0025 0.0025 0.0025 0.0025 0.0025 0.0025 0.0025 0.0025 0.0025 0.0025 0.0025 0.0025 0.0025 0.0025 0.0025 0.0025 0.0025 0.0025 0.0025 0.0025 0.0025 0.0025 0.0025 0.0025 0.0025 0.0025 0.0025 0.0025 0.0025 0.0025 0.0025 0.0025 0.0025 0.0025 0.0025 0.0025 0.0025 0.0025 0.0025 0.0025 0.0025 0.0025 0.0025 0.0025 0.0025 0.0025 0.0025 0.0025 0.0025 0.0025 0.0025 0.0025 0.0025 0.0025 0.0025 0.0025 0.0025 0.0025 0.0025 0.0025 0.0025 0.0025 0.0025 0.0025 0.0025 0.0025 0.0025</DataArray>
<DataArray type="Float64" Name="conductivity" format="ascii">1.0 1.0 1.0 10.0 1.0 1.0 1.0 1.0 1.0 1.0 1.0 1.0 1.0 1.0 1.0 1.0 1.0 1.0 1.0 1.0 1.0 1.0 1.0 10.0 1.0 1.0 1.0 10.0 1.0 1.0 1.0 1.0 1.0 1.0 1.0 1.0 10.0 1.0 1.0 1.0 1.0 1.0 1.0 1.0 1.0 1.0 1.0 10.0 1.0 1.0 1.0 1.0 1.0 1.0 1.0 10.0 1.0 1.0 1.0 1.0 1.0 1.0 10.0 1.0 1.0 1.0 10.0 1.0 1.0 1.0 1.0 1.0 1.0 1.0 1.0 1.0 1.0 1.0 1.0 1.0 1.0 1.0 10.0 1.0 1.0 1.0 1.0 1.0 1.0 1.0 1.0 1.0 1.0 1.0 1.0 1.0 1.0 10.0 1.0 1.0 1.0 1.0 1.0 1.0 1.0 1.0 1.0 1.0 1.0 1.0 1.0 1.0 1.0 1.0 1.0 1.0 1.0 1.0 1.0 1.0 1.0 1.0 10.0 1.0 1.0 1.0 1.0 1.0 1.0 1.0 1.0 1.0 1.0 1.0 10.0 1.0 1.0 1.0 1.0 1.0 1.0 1.0 1.0 1.0 1.0 1.0 1.0 1.0 1.0 1.0 1.0 1.0 1.0 1.0 1.0 1.0 1.0 1.0 1.0 1.0 1.0 1.0 1.0 1.0 1.0 1.0 1.0 1.0 1.0 1.0 1.0 10.0 1.0 1.0 1.0 1.0 1.0 1.0 1.0 10.0 1.0 1.0 1.0 1.0 1.0 1.0 1.0 1.0 1.0 1.0 10.0 10.0 1.0 1.0 1.0 10.0 1.0 1.0 1.0 1.0 1.0 1.0 10.0 1.0 1.0 1.0 1.0 1.0 1.0 1.0 1.0 1.0 1.0 1.0 1.0 1.0 1.0 1.0 1.0 1.0 1.0 1.0 1.0 1.0 1.0 1.0 10.0 1.0 1.0 1.0 1.0 1.0 1.0 1.0 1.0 1.0 1.0 1.0 1.0 1.0 1.0 10.0 1.0 1.0 1.0 10.0 1.0 1.0 1.0 1.0 10.0 1.0 1.0 1.0 1.0 1.0 1.0 1.0 1.0 1.0 10.0 1.0 1.0 1.0 1.0 10.0 1.0 1.0 1.0 10.0 1.0 1.0 1.0 1.0 1.0 1.0 1.0 1.0 1.0 10.0 1.0 1.0 10.0 1.0 1.0 1.0 1.0 1.0 1.0 1.0 1.0 1.0 1.0 1.0 1.0 1.0 1.0 1.0 1.0 1.0 10.0 1.0 1.0 1.0 1.0 1.0 1.0 1.0 1.0 10.0 1.0 1.0 1.0 1.0 10.0 1.0 1.0 1.0 10.0 1.0 1.0 1.0 1.0 1.0 1.0 1.0 1.0 1.0 1.0 1.0 1.0 1.0 1.0 1.0 1.0 1.0 10.0 10.0 10.0 1.0 1.0 1.0 1.0 1.0 1.0 1.0 1.0 1.0 1.0 1.0 1.0 1.0 1.0 1.0 1.0 10.0 1.0 1.0 1.0 1.0 10.0 1.0 1.0 10.0 1.0 10.0 1.0 1.0 1.0 1.0 1.0 1.0 1.0 1.0 1.0 1.0 10.0 1.0 1.0 1.0 1.0 1.0 1.0 1.0 1.0 1.0 1.0 1.0 1.0 1.0 1.0 1.0 1.0 1.0 10.0 1.0 1.0 1.0 1.0 1.0 1.0 1.0 1.0 1.0 1.0 1.0 1.0 1.0 1.0 1.0 1.0 1.0 1.0 1.0 1.0 1.0 1.0 1.0 1.0 10.0 1.0 10.0 1.0 1.0 1.0 1.0 1.0 10.0 1.0 1.0 1.0 1.0 1.0 1.0 1.0 1.0 1.0 1.0 1.0 1.0 1.0 1.0 1.0 1.0 1.0 1.0 1.0 1.0 1.0 1.0 1.0 1.0 1.0 1.0 1.0 1.0 1.0 1.0 1.0 1.0 1.0 10.0 1.0 1.0 1.0 10.0 1.0 1.0 1.0 1.0 1.0 10.0 1.0 1.0 1.0 1.0 1.0 1.0 1.0 1.0 1.0 10.0 1.0 1.0 1.0 1.0 1.0 1.0 10.0 10.0 1.0 1.0 1.0 1.0 10.0 1.0 1.0 1.0 1.0 1.0</DataArray>
<DataArray type="Float64" Name="temperature" format="ascii">300.8760097587922 300.3698849808199 300.6848891651161 300.9727770412942 300.67966613332834 300.37162538507414 300.3561932101934 300.04030175953034 300.1739968605933 300.5408163177759 300.3079809265868 300.0375314868762 300.5999996204474 300.5859510157929 300.5392559120779 300.6423687364319 300.297747268765 300.66023864044274 300.3868195424735 300.4078896258151 300.74806067824755 300.56130753313965 300.4637190716753 300.32766779769815 300.16730101372326 300.43091872312147 300.2137845254887 300.98911922039156 300.0606982477611 300.38423277735177 300.76866387480135 300.9064702774333 300.52983942026935 300.38676182146594 300.1673010137231 300.0507151222309 300.01276415085965 300.841040327706 300.808593145248 300.88479522944164 300.16730101372326 300.30096560123985 300.7366726825323 nan 300.78891849732446 300.04459067620303 nan 300.30605862229527 300.4673529243335 300.1384645805058 300.9466921461799 300.416762822387 300.70635671537525 300.9496019559559 300.41603395252434 300.96759726488983 300.78694678271444 300.18642562494733 300.8172157872401 300.96185600624847 300.56428328213656 300.13510016099815 300.9860882629695 300.39331941409876 300.7258355415408 300.8892550435725 300.5858661512835 300.81938856136145 300.2357552780755 300.513534395109 300.71240973328355 300.26460705514364 300.7226731522929 300.8903485610698 300.2946104732931 300.913605806864 300.59103004472684 300.94788715993366 300.16730101372315 300.89809114271367 300.2971605204397 300.3050109275757 300.5656659855846 300.8760097587921 300.86395963690586 300.6719069896558 300.9666523124573 300.0331460988867 300.04202842706445 300.8990781856819 300.5498661555554 300.5285005150585 300.3895718780613 300.2621716483336 300.052528373574 300.0881773703842 300.2381707735691 300.98332216426866 300.5263345661369 300.14540319872384 300.93114835970624 300.93639260500447 300.2085009047322 300.9452716630764 300.71566799662565 300.2754184695504 300.2581955950508 300.94778511720233 300.8787939002411 300.9462684611674 300.91854278876247 300.1255430707413 300.7772570840203 300.58765112934947 300.06039865308554 300.9294419718039 300.35391011940874 300.63433859989954 300.9536659919053 300.70263343081535 300.7384067118456 300.0660585195984 300.30400515755525 300.05766269057415 300.7049932501746 300.12096361349455 300.4366041782836 300.8943955893876 300.0316729049339 300.1857359502556 300.751700587644 300.1615363625113 300.18660243026653 300.180940111474 300.71519654373395 300.48370010528225 300.0476288102368 300.1724981722084 300.15877618287544 300.1867293310479 300.21670209008386 300.9307562315655 300.14035381142855 300.31050098863886 300.9474517708473 300.31195638955523 300.6408327309166 300.91504114136166 300.25714689481936 300.1030484578577 300.43207704005124 300.71998623149096 300.4230549434229 300.928527289134 300.522479991513 300.4584020009443 300.22235783960963 300.6526090179433 300.7945263581944 300.39133083712665 300.94124804192927 300.404555444896 300.3785353262848 300.05365013954406 300.5537815970298 300.29778100497083 300.05745513757626 300.7073647991257 300.050814612294 300.36248599756937 300.05846860080004 300.4724001526673 300.26844303532033 nan 300.925330123369 300.0476288102368 300.11476441261124 300.0561845712335 300.0590608721112 300.6455650833252 300.6861795932356 300.801587290409 300.63412013080824 300.51778825467835 300.6105797283245 300.16730101372264 300.92951524751925 300.58719854008524 300.43818612241597 300.1793474938709 300.24582861151094 300.33165338344145 300.5530940031666 300.61300858520855 300.40836499840066 300.1337624539521 300.5009291370281 300.77302002294556 300.9270519761781 300.9457082024849 300.2791646980118 300.1772787341033 300.71615440646013 300.462508876288 300.84364945330816 300.800590677973 300.5386122930815 300.2845002691002 300.4052409189168 300.6400086227434 300.6956734987376 300.23105407560735 300.35730662254036 300.7761293152707 300.9492402941701 300.3517328803937 300.4850491189423 300.34036130158336 300.2304735728816 300.301755891807 300.4912482313824 300.0961246907134 300.94408546309 300.3693726797245 300.57354330772745 300.6903159494383 300.53940398358844 300.9035796169929 300.4035615887415 300.50456048654337 300.8293892442754 300.28780470275774 300.6388420051577 300.3937717172526 300.2306748754426 300.2928686317 300.1584360570388 300.2289139628134 300.1755025329322 300.4293559254963 300.9285320910444 300.59863622257893 300.8710208941618 300.9264637542545 300.1093028900504 300.02645304796204 300.4375777930979 300.2866307320241 300.68046837186404 300.6017225487902 300.5227138727362 300.4106808361088 300.7920151533733 300.1244994591749 300.2204264054863 300.9394910019053 300.660944627787 300.7753376266194 300.10225649286554 300.3278282019951 300.97835127360594 300.72459573013765 300.5815970356617 300.42118965243685 300.7965421905712 300.65340225306016 300.8483598183093 300.5132267920536 300.05867506290866 300.4606692862635 300.35350306170596 300.5781790754022 300.0605966600274 300.1877632778432 300.68577520892234 300.8228713245907 300.0628709862897 300.3426365398972 300.63172626180915 300.8351844821753 300.9279630954388 300.3343291030206 300.5783145084264 300.0548666535683 300.0695478888807 300.76280218388126 300.96494316789955 300.7076531399972 300.09283935701234 300.56140628801836 300.0491475128451 300.5253544487969 300.13711847249164 300.06186979537716 300.40777260687383 300.5334672671149 300.2157124547633 300.46466505708753 300.56088860076625 300.4487166489233 300.672255103254 300.60061620556377 300.6041531569881 300.4870632997554 300.919703405741 300.24629272636133 300.49384181721064 300.205194063618 300.44480819965105 300.038154670289 300.46304020035 300.5989881033004 300.7398414235021 300.3406543845392 300.25293038562523 300.53772990115306 300.89505343913186 300.2922858218793 300.2075588843252 300.0651465967742 300.8354162655945 300.7354984539894 300.14607808192306 300.4915416412199 300.1647696534228 300.88556638647526 300.5107336199559 300.30915520424816 300.7092057881308 300.5365636027508 300.3406079509813 300.57638811445173 300.8914869285895 300.059248674481 300.847977766854 300.67616226214517 300.0196798898264 300.3533104841236 300.3432653953196 300.6133456585585 300.41142102075736 300.6391956287622 300.7036835393525 300.9307397109863 300.43190058688594 300.5712649746936 300.1807810102441 300.49434859447445 300.39164798175057 300.27935662503984 300.520002067726 300.8336694359497 300.0702410538873 300.0639280249646 300.9477461951941 300.9070066729048 300.37247148528263 300.8084977811486 300.2653853764905 300.20475369005266 300.3848405859226 300.4373148347869 300.6919199783877 300.8053729596578 300.66060348446644 300.6591270941012 300.54031236376795 300.9429504974881 300.62190070912624 300.05328125116426 300.83255693869484 300.61110088825626 300.20886299660833 300.61780363977056 300.75809228136933 300.8123255088848 300.2221023913219 300.7768710768021 300.2478686494535 300.1960962551366 300.9312627813739 300.04120192895556 300.0797935534036 300.5369861545368 300.2796627058884 300.6080803166873 300.3346188984788 300.7318756401412 300.1305010332022 300.26811015419963 300.1450553202985 300.2140401554527 300.73132397313515 300.65913144218996 300.0902064044808 300.37105532844913 300.1902621223682 300.7398108511407 300.93177219026643 300.2082395652177 300.90896487625764 300.193168184464 300.59641379479024 300.4789090649226 300.49820763492556 300.6863820291555 300.75050333135175 300.69435805300446 300.7927739772471 300.691941712107 300.8108381158251 300.0979745710152 300.9002478260909 300.44050343224967 300.1213046236663 300.0759682368805 300.23158201659237 300.92753297668474 300.38882967481277 300.0598987384326 300.71935963842446 300.1925159114953 300.7792050235416 300.54379593945566 300.4083021657233 300.1660244036812 300.4809217665487 300.6416506361408 300.194033515567 300.32371477024793 300.6192605083488 300.31815205168726 300.5844996429866 300.5362072560765 300.463941871063 300.57079973691594 300.6883405632253 300.70236092684155 300.9195241044015 300.4950618755935 300.2806121348568 300.3350870053184 300.35005443793506 300.34975254140926 300.4548420917239 300.35100326905757 300.08197069678965 300.34446690348955 300.8528747160337 300.06394695118223 300.19185850454005 300.50749463568235 300.1135524781571 300.0599447193978 300.16988560713503 300.3510369330147 300.5469492295639 300.16845979451847 300.79712238513514 300.82110816864383 300.57310278682655 300.84039823066473 300.8483159824556 300.307939327638 300.8473721858569 300.4684428463964 300.6842400709591 300.8255546366593 300.572555392079 300.23534210667435 300.29773309848866 300.73954783030393 300.7686638748014 300.0763570928432 300.6929708427004 300.8643278313905 300.6408613116989 300.8153669274959 300.0853458443366 300.7660333861572 300.07649110312394 300.29030016479817 300.43595720700165 300.51033647119976 300.6384636222379 300.2459034481237 300.39674445581727 300.82555209060337 300.61082773602243 300.6855927209988 300.5274501797799 300.911759468405 300.8267490417462 300.64679647467017 300.9550727034797 300.3854543723289 300.8373058925293 300.5231859288138 300.67246685312404 300.6857723179174</DataArray>
<DataArray type="Float64" Name="g_hot" format="ascii">0.0 0.0 0.0 0.003565837909944871 0.0 0.0 0.0 0.0 0.0 0.0 0.0 0.0 0.0 0.0 0.0 0.0 0.0 0.0 0.0 0.0 0.0 0.0 0.0 0.0 0.0 0.0 0.0 0.006650714247357196 0.0 0.0 0.0 0.0 0.0 0.0 0.0 0.0 0.0 0.0 0.0 0.0 0.0 0.0 0.0 0.0 0.0 0.0 0.0 0.0 0.0 0.0 0.0005799215464181341 0.0 0.0 0.0005492922719281603 0.0 0.006004798081534465 0.0 0.0 0.0 0.00043608485412818446 0.0 0.0 0.008026892300261665 0.0 0.0 0.0 0.0 0.0 0.0 0.0 0.0 0.0 0.0 0.0 0.0 0.0 0.0 0.00024357955579235304 0.0 0.0 0.0 0.0 0.0 0.0 0.0 0.0 0.0003017747504348237 0.0 0.0 0.0 0.0 0.0 0.0 0.0 0.0 0.0 0.0 0.005840556480336441 0.0 0.0 0.000492048778069817 0.0005531943600580181 0.0 0.0003741122826104486 0.0 0.0 0.0 0.0002552018808708122 0.0 0.000680743710951486 0.0 0.0 0.0 0.0 0.0 0.0007158603215711848 0.0 0.0 0.0005278257288158658 0.0 0.0 0.0 0.0 0.0 0.0 0.0 0.0 0.000720874468961136 0.0 0.0 0.0 0.0 0.0 0.0 0.0 0.0 0.0 0.0 0.0 0.0 0.0 0.00043280018484284394 0.0 0.0 0.00045497692249168005 0.0 0.0 0.0 0.0 0.0 0.0 0.0 0.0 0.0 0.0 0.0 0.0 0.0 0.0 0.0 0.0004814644327465945 0.0 0.0 0.0 0.0 0.0 0.0 0.0 0.0 0.0 0.0 0.0 0.0 0.0 0.00029167104758614674 0.0 0.0 0.0 0.0 0.0 0.0 0.0 0.0 0.0 0.0 0.0 0.00035230100766248183 0.0 0.0 0.0 0.0 0.0 0.0 0.0 0.0 0.0 0.0 0.0 0.0006866673139155525 0.00025901351316099297 0.0 0.0 0.0 0.0 0.0 0.0 0.0 0.0 0.0 0.0 0.0 0.0 0.0 0.0 0.0006367825374490101 0.0 0.0 0.0 0.0 0.0 0.0 0.0 0.0005714367856552465 0.0 0.0 0.0 0.0 0.0 0.0 0.0 0.0 0.0 0.0 0.0 0.0 0.0 0.0 0.0 0.0 0.0 0.0006614801584325867 0.0 0.0 0.00045596052460711994 0.0 0.0 0.0 0.0 0.0 0.0 0.0 0.0 0.0 0.0 0.0 0.0006793791283223235 0.0 0.0 0.0 0.0 0.007715957490810846 0.0 0.0 0.0 0.0 0.0 0.0 0.0 0.0 0.0 0.0 0.0 0.0 0.0 0.0 0.0 0.0 0.0 0.0 0.0 0.0006635450248475986 0.0 0.0 0.0 0.0 0.0 0.0005101999607996852 0.0 0.0 0.0 0.0 0.0 0.0 0.0 0.0 0.0 0.0 0.0 0.0 0.0 0.0 0.0 0.0 0.0 0.0 0.0 0.0 0.0 0.0 0.0 0.0 0.0 0.0 0.0 0.0 0.0 0.0 0.0 0.0 0.0 0.0 0.0 0.0 0.0 0.0 0.0 0.0 0.0 0.0 0.0 0.0 0.0 0.0006577811186101346 0.0 0.0 0.0 0.0 0.0 0.0 0.0 0.0 0.0 0.0 0.0 0.0 0.0 0.0 0.0 0.0 0.0 0.0 0.0 0.0 0.0 0.00041815786492663287 0.0 0.0 0.0 0.0 0.0 0.0 0.0 0.0 0.0 0.0 0.0 0.0 0.00037459311259018126 0.0 0.0 0.0 0.0 0.0 0.0 0.0 0.0 0.0 0.0 0.0 0.0 0.0007718082663459884 0.0 0.0 0.0 0.0 0.0 0.0 0.0 0.0 0.0 0.0 0.0 0.0 0.0 0.0 0.0 0.0 0.0 0.0006833330081300039 0.0 0.0008587782018658836 0.0 0.0 0.0 0.0 0.0 0.0 0.0 0.0 0.0 0.0 0.0 0.0 0.0 0.0 0.0 0.0 0.00060613529842767 0.0 0.0 0.0 0.0 0.0 0.0 0.0 0.0 0.0 0.0 0.0 0.0 0.0 0.0 0.0 0.0 0.0 0.0 0.0 0.0 0.0008819013550278737 0.0 0.0 0.0 0.0 0.0 0.0 0.0 0.0 0.0 0.0 0.0 0.0 0.0 0.0 0.0 0.0 0.0 0.0 0.0 0.0 0.0 0.0 0.0 0.0 0.0 0.0 0.0 0.0 0.0 0.0 0.0 0.0 0.0 0.0 0.0 0.0 0.0 0.0 0.0 0.0 0.0 0.0 0.0 0.0 0.0 0.0 0.0 0.0 0.0 0.0 0.0 0.0 0.0 0.0 0.0 0.008205485969764375 0.0 0.0 0.0 0.0 0.0</DataArray>
<DataArray type="Float64" Name="g_cold" format="ascii">0.0 0.0 0.0 0.0 0.0 0.0 0.0 0.0003339108242499867 0.0 0.0 0.0 0.00042696187013749435 0.0 0.0 0.0 0.0 0.0 0.0 0.0 0.0 0.0 0.0 0.0 0.0 0.0 0.0 0.0 0.0 0.0 0.0 0.0 0.0 0.0 0.0 0.0 0.0005651516951680356 0.004451925859123284 0.0 0.0 0.0 0.0 0.0 0.0 0.0 0.0 0.0005571323348642633 0.0 0.0 0.0 0.0 0.0 0.0 0.0 0.0 0.0 0.0 0.0 0.0 0.0 0.0 0.0 0.0 0.0 0.0 0.0 0.0 0.0 0.0 0.0 0.0 0.0 0.0 0.0 0.0 0.0 0.0 0.0 0.0 0.0 0.0 0.0 0.0 0.0 0.0 0.0 0.0 0.0 0.0004678636965520007 0.0003379296355031696 0.0 0.0 0.0 0.0 0.0 0.0006217687983095532 0.0 0.0 0.0 0.0 0.0 0.0 0.0 0.0 0.0 0.0 0.0 0.0 0.0 0.0 0.0 0.0 0.0 0.0 0.0 0.0004913877471695895 0.0 0.0 0.0 0.0 0.0 0.0 0.0 0.0 0.0002680707333305867 0.0 0.0 0.0 0.0 0.00020362199799726615 0.0 0.0 0.0 0.0 0.0 0.0 0.0 0.0 0.0 0.0 0.0 0.0 0.0 0.0 0.0 0.0 0.0 0.0 0.0 0.0 0.0 0.0 0.0 0.0 0.0 0.0 0.0 0.0 0.0 0.0 0.0 0.0 0.0 0.0 0.0007604353477241853 0.0 0.0 0.0002790374850596323 0.0 0.00026657441375421475 0.0 0.0007938903690487744 0.0 0.0 0.0 0.0 0.0008113334197901621 0.0 0.00046115281422583654 0.0008889667699461024 0.0 0.0 0.0 0.0 0.0 0.0 0.0 0.0 0.0 0.0 0.0 0.0 0.0 0.0 0.0 0.0 0.0 0.0 0.0 0.0 0.0 0.0 0.0 0.0 0.0 0.0 0.0 0.0 0.0 0.0 0.0 0.0 0.0 0.0 0.0 0.0 0.0 0.0 0.0 0.0 0.0 0.0 0.0 0.0 0.0 0.0 0.0 0.0 0.0 0.0 0.0 0.0 0.0 0.0 0.0 0.0 0.0 0.0 0.0 0.0 0.0 0.0 0.0 0.0 0.0 0.0 0.009721429514574505 0.0 0.0 0.0 0.0 0.0 0.0 0.0 0.0 0.0 0.0 0.0 0.0 0.0 0.0 0.0 0.0 0.0 0.0 0.0 0.0 0.0 0.0 0.0006598953841847995 0.0 0.0 0.0 0.0005863974062599585 0.0 0.0 0.0 0.0005293976936750007 0.0 0.0 0.0 0.0 0.0 0.0 0.00044481672413298454 0.0002446669533639564 0.0 0.0 0.0 0.0 0.0 0.0003553335307403574 0.0 0.0 0.0004357314747277336 0.0 0.0 0.0 0.0 0.0 0.0 0.0 0.0 0.0 0.0 0.0 0.0 0.0 0.0 0.0 0.00816738586126799 0.0 0.0 0.0 0.0 0.0 0.0 0.0 0.0 0.0 0.0006451836312774892 0.0 0.0 0.0 0.0 0.0 0.0 0.0 0.0 0.0 0.0 0.0 0.0 0.0 0.00034389230591625705 0.0 0.0 0.005988838936458404 0.0 0.0 0.0 0.0 0.0 0.0 0.0 0.0 0.0 0.0 0.0 0.0 0.0 0.0 0.0 0.00033505509706376415 0.0007001870593408578 0.0 0.0 0.0 0.0 0.0 0.0 0.0 0.0 0.0 0.0 0.0 0.0 0.0 0.0 0.0 0.000666829751937033 0.0 0.0 0.0 0.0 0.0 0.0 0.0 0.0 0.0 0.0 0.0 0.0002909672113287093 0.0 0.0 0.0 0.0 0.0 0.0 0.0 0.0 0.0 0.0 0.0 0.0 0.0 0.0 0.0 0.0 0.0 0.0 0.0 0.0 0.0 0.0 0.0 0.0 0.0 0.0 0.0 0.0 0.0 0.0 0.0 0.0 0.0 0.0 0.0 0.0 0.0 0.008589687989592526 0.0 0.0 0.0 0.0 0.0 0.0 0.0 0.0 0.0 0.0 0.0 0.0 0.0 0.0 0.0 0.0 0.0 0.0 0.0 0.0 0.0 0.0 0.0 0.0 0.0 0.0 0.0007929863791929202 0.0 0.0 0.0003063125815005 0.0 0.0 0.0 0.0007247947278957713 0.0 0.0 0.0 0.0 0.0 0.0 0.0 0.0 0.0 0.0 0.0 0.0 0.0 0.0 0.0 0.0 0.0 0.0 0.0 0.000786019972765007 0.0 0.0 0.0 0.0 0.000390931448703602 0.0 0.0008844927346143081 0.0 0.0 0.0 0.0 0.0 0.0 0.0 0.0 0.0 0.0 0.0 0.0 0.0 0.0 0.0 0.0 0.0 0.0 0.0</DataArray>
</PointData><Points>
<DataArray type="Float64" Name="Points" format="ascii" NumberOfComponents="3">0.0151327 0.00115563 0.0017419 0.0143213 0.013037 0.0102118 0.00944696 0.00479737 0.00514464 0.0109111 0.00425955 0.000707616 0.00670849 0.000866951 0.0051779 0.0148072 0.0143992 0.00983163 0.0010147 0.000831218 0.00941065 0.00451682 0.000645025 0.0146578 0.0147206 0.0139046 0.0127193 0.00355315 0.0144407 0.00649175 0.00900278 0.0131608 0.00991587 0.00433361 0.00239023 0.0146814 0.0106765 0.0141214 0.00590043 0.00881584 0.0110499 0.00511223 0.00440735 0.00171469 0.00676586 0.00732712 0.00481976 0.00574086 0.0129534 0.00863682 0.0112829 0.014561 0.00517853 0.00553652 0.00489308 0.00282388 0.00927113 0.00520413 0.0128654 0.00795112 0.0131483 0.0128473 0.00355844 0.0101335 0.00352324 0.00755119 0.00344209 0.0149641 0.00780268 0.0065052 0.0126342 0.00859981 0.0151499 0.0117645 0.0146206 0.00331565 0.0101723 0.00853776 0.00614201 0.00943366 0.0120799 0.00809682 0.0118118 0.00060256 0.00901365 0.00584643 0.0138838 0.00360533 0.00803064 0.00957249 0.00154186 0.012482 0.00257877 0.00803572 0.00260863 0.00192811 0.0117285 0.0120384 0.00640567 0.00589282 0.0104346 0.00926257 0.0014993 0.0125015 0.0126506 0.00455226 0.00648969 0.0147271 0.00519157 0.00363314 0.0146867 0.00935738 0.00719085 0.0025238 0.00904302 0.0137127 0.00310217 0.0135203 0.00288739 0.00207765 0.000439146 0.0110944 0.0134521 0.00988317 0.0135683 0.0110293 0.0141238 0.00807977 0.00377993 0.00200279 0.00132408 0.0126816 0.0102279 0.0128672 0.00336011 0.00295233 0.0096089 0.0147241 0.00518597 0.00873135 0.000823127 0.00133145 0.00697416 0.0113659 0.00446207 0.000609924 0.00765116 0.00831433 0.000220829 0.0128202 0.00464623 0.00358161 0.000637897 0.00751657 0.0133117 0.00783416 0.00837038 0.00561283 0.0045936 0.0131996 0.00924544 0.000649426 0.000778654 0.00867041 0.00876685 0.0111335 0.00654266 0.000629808 0.0117349 0.0129254 0.00322802 0.00100069 0.00971544 0.0128179 0.00213613 0.00532787 0.00279534 0.0120355 0.013347 0.00068661 0.0110029 0.00961298 0.00729321 0.0060172 0.0129855 0.0130881 0.00992413 0.0133021 0.00053523 0.00293915 0.00172612 0.00892091 0.0141194 0.00470703 0.00433182 0.00121268 0.0113235 0.00138436 0.00688462 0.00627852 0.00651933 0.014513 0.00303612 0.00319182 0.00707004 0.0133918 0.0112428 0.0100237 0.00090997 0.00807165 0.00294313 0.00540802 0.00424802 0.00202257 0.0139033 0.0111178 0.00319117 0.000773919 0.00404224 0.00411156 0.0111401 0.00131896 0.00365903 0.00848651 0.0109622 0.0139297 0.00441449 0.000810209 0.0132174 0.0116445 0.00633496 0.0152694 0.0114629 0.000730223 2.10957e-05 0.0124219 0.0128926 0.00812884 0.00672759 0.00191333 0.0139239 0.0132632 0.0116239 0.0143449 0.00874883 0.0113934 0.00970284 0.0148041 0.0072549 0.0141921 0.0016198 0.00281419 0.0124835 0.0087772 0.00175103 0.00855338 0.00550281 0.00613339 0.00574114 0.00670103 0.000719644 0.00946706 0.00689528 0.0146936 0.0108709 0.0145836 0.0146587 0.0119734 0.000960034 0.00193928 0.000840014 0.000597723 0.00628912 0.0127506 0.0149793 0.00864884 0.00327322 0.000392376 0.00893675 0.01105 0.00419438 0.0114617 0.000918659 0.00812926 0.0147495 0.000769681 0.0133036 0.0139116 0.00339048 0.0115744 0.0120943 0.00954842 0.00167467 0.000636293 0.00747248 0.00193563 0.00762142 0.00501008 0.00690803 0.0134989 0.00968778 0.0110666 0.000939472 0.012526 0.00349482 0.000923494 0.0110664 0.00219539 0.0112643 0.000355866 0.00506505 0.00096501 0.00815764 0.00155739 0.00468163 0.00379715 0.00221146 0.0103515 0.00562145 0.0141155 0.0106443 0.0047149 0.001044 0.000983718 0.0144644 0.0100909 0.00140118 0.00650561 0.0124136 0.000884147 0.00785746 0.0103366 0.00103145 0.0120908 0.00355286 0.0127108 0.0137511 0.0112117 0.00349255 0.00508388 0.0139401 0.00632774 0.00638442 0.00655959 0.014431 0.0032663 0.00252057 0.000871886 0.00706742 0.00700147 0.0108788 0.00470819 0.0124864 0.00514439 0.00538559 0.0145562 0.00093035 0.000887498 0.00319027 0.00397745 0.00456288 0.00532131 0.0036275 0.0112451 0.00258122 0.0141094 0.000890145 0.00223572 0.0102524 0.0145371 0.0134171 0.0143886 0.0138481 0.00660686 0.00474022 0.00623783 0.0100748 0.0135859 0.000544785 0.0137134 0.00885746 0.000154724 0.0073296 0.000870085 0.014849 0.00153167 0.014381 0.00435341 0.00823317 0.0126542 0.00985779 0.00815529 0.00388315 0.0100439 0.00330211 0.0124968 0.0065924 0.00527887 0.0125227 0.0138307 0.0113549 0.0128799 0.00964616 0.00644989 0.00520181 0.00827685 0.0147628 0.00814513 0.00983731 0.00711561 0.0129465 0.00450206 0.00480361 0.0119904 0.00846184 0.00490389 0.0126128 0.0134074 0.0094787 0.0127003 0.0120181 0.00811492 0.0125764 0.00772678 0.00808528 0.000953171 0.00608817 0.00820031 0.0133661 0.0012251 0.0115874 0.0109257 0.0109118 0.00251323 0.000948249 0.00088105 0.0150072 0.0105034 0.00358557 0.00806951 0.00525681 0.0109869 0.0080267 0.00127195 0.0124435 0.0146398 0.0116824 0.00854676 0.00257448 0.0136897 0.00672295 0.000346097 0.0087875 0.00717064 0.00382324 0.00437199 0.00606834 0.00901907 0.00820549 0.00893611 0.0127031 0.00164658 0.012581 0.00928693 0.00778731 0.00999947 0.0108406 0.00787277 0.00885009 0.00379943 0.0110525 0.00402451 0.00421498 0.0051619 0.00763007 0.0127637 0.00294432 0.0022856 0.0145082 0.00925216 0.00179259 0.00373121 0.000942048 0.0145569 0.01125 0.00958401 0.0104494 0.0041918 0.00970165 0.0125467 0.000691416 0.0145152 0.00509822 0.0110078 0.00640293 0.0109612 0.0108004 0.01098 0.00688329 0.00340692 0.0143901 0.0120602 0.0118554 0.00443186 0.000538242 0.0152463 0.0143884 1.52415e-05 0.00574302 0.00951558 0.00440958 0.0143626 0.0145282 0.0106653 0.000433149 0.0097738 0.010716 0.000232972 0.0115652 0.00604833 0.00253204 0.00140224 0.000257004 0.0148446 0.000978732 0.0106435 0.00802451 0.0145352 0.00441845 0.0127797 0.0136226 0.0013163 0.00973301 0.0144238 0.00779511 0.0100188 0.0145682 0.00700269 0.00639403 0.00492724 0.00832408 0.00779038 0.00508726 0.0113626 0.00895506 0.00296166 0.000595232 0.00442376 0.00558026 0.00577495 0.00516388 0.00766243 0.00199147 0.00806141 0.0063271 0.00211998 0.0109038 0.0130038 0.0141259 0.00608338 0.000968971 0.00250635 0.00565612 0.0063415 0.00888094 0.000740739 0.0093095 0.00999621 0.0109642 0.0126444 0.00864237 0.0106469 0.0113334 0.000969465 0.00402503 0.00960789 0.0127233 0.00079723 0.00738357 0.0146976 0.0107951 0.00618344 0.0138771 0.00294134 0.00892731 0.000773612 0.00264311 0.0131646 0.00194235 0.00933517 0.00774063 0.0028642 0.00860811 0.00289342 0.0142049 0.0134024 0.000882122 0.00271385 0.0120951 0.000983228 0.000449221 0.0133317 0.0111781 0.00512241 0.0142025 0.0125249 0.0090967 0.0152193 0.0051464 0.0143573 0.0127819 0.00851817 0.0136468 0.0117768 0.00161815 0.0140915 0.00668328 0.00283329 0.00140268 0.00676794 0.00759816 0.0148179 0.00401886 0.0106743 0.0128927 0.0122358 0.00968693 0.0106344 0.00516889 0.00633136 0.0132691 0.00322139 0.00440678 0.00537116 0.00290926 0.0111914 0.0135756 0.00512942 0.00967011 0.00886412 0.00308307 0.00375224 0.00952206 0.00691311 0.000898627 0.000394765 0.00965594 0.0100309 0.0007164 0.000291917 0.00791993 0.00524774 0.0125483 0.00962598 0.0138968 0.00243653 0.0114075 0.0129113 0.0106478 0.0110132 0.0118976 0.0110956 0.00824709 0.00982367 0.0150127 0.0133574 0.00591345 0.0104097 0.000918365 0.00490533 0.00069221 0.00926079 0.0123963 0.00678884 0.00680525 0.00365581 0.0111931 0.00410831 0.0111058 0.015098 0.00812776 0.00737449 0.00408512 0.00181528 0.0018468 0.00559321 0.0090898 0.00106997 0.00493477 0.00746085 0.00702218 0.00933933 0.00230049 0.0142658 0.0148428 0.0112978 0.00841092 0.00959626 0.0058444 0.0125201 0.000435398 0.0101814 0.00509977 0.0104938 0.0114683 0.0147244 0.0118431 0.011367 0.00512251 0.00157736 0.0126485 0.00251217 0.00823778 0.0121972 0.000977121 0.0145399 0.0126192 8.10685e-05 0.00346276 0.00800281 0.0111815 0.00982975 0.000890611 0.01394 0.0142913 0.00637056 0.00707059 0.0141062 0.00170009 0.0126739 0.00729969 0.000948025 0.00599052 0.0152894 0.0138492 0.00999666 0.00133732 0.0146069 0.00470948 0.0111967 0.008307 0.00534896 0.0085551 0.0110848 0.00892562 0.0125508 0.00432971 0.00356341 0.00181973 0.00533926 0.00651834 0.00687967 0.00795518 0.00695671 0.00474392 0.00905735 0.00801103 0.00791742 0.00315793 0.00538342 0.0034238 0.0130372 0.0048199 0.0124239 0.0116554 0.0123629 0.00535672 0.000884611 0.0123128 0.0136301 0.00500719 0.0132691 0.0093747 0.00311564 0.00924009 0.00904139 0.0140747 0.00240283 0.000843443 0.0102687 0.00719036 0.00578893 0.00085116 0.00873277 0.00988291 0.00393572 0.0105733 0.0125735 0.00526755 0.00210729 0.00779943 0.00900949 0.010898 0.0143746 0.00316433 0.000150276 0.00624099 0.00629367 0.0102484 0.00405377 0.00280051 0.0127241 0.0126985 0.00758516 0.0131443 0.012018 0.0144795 0.00921945 0.0119421 0.00641884 0.00757315 0.0141395 0.00982918 0.00857401 0.0138082 0.00644255 0.00581911 0.00172426 0.0144566 0.00878013 0.0126694 0.0120224 0.0151819 0.00983466 0.00397306 0.0121463 0.00672581 0.0027741 0.00930259 0.0112453 0.0144407 0.00785891 0.00232456 0.00962299 0.0127724 0.00169191 0.00554587 0.0144691 0.0152824 0.00250948 0.00458878 0.0127323 0.000889927 0.00357887 0.0134538 0.0101713 0.0112303 0.00798569 0.00783697 0.0082099 0.000870013 0.0144201 0.0143522 0.0101641 0.0143856 0.00714818 0.00220529 0.00322679 0.00915807 0.00328766 0.000934924 0.00413295 0.0147811 0.00445143 0.00521796 0.00515041 0.0138533 0.0145644 0.000729407 0.00675731 0.0149452 0.00631236 0.0144022 0.000518752 0.00218991 0.00672875 0.00239349 0.0136902 0.0136603 0.00258171 0.00802324 0.0144181 0.0103888 0.0118671 0.00947094 0.00383011 0.00460069 0.00716519 0.00337851 0.0136074 0.012037 0.0111879 0.00951807 0.00905958 0.00756921 0.0122723 0.00560177 0.00247022 0.003927 0.0083815 0.00143209 0.00602887 0.00484575 0.00492007 0.000441801 0.00580023 0.00161236 0.00169672 0.00526334 0.00973482 0.00826854 0.00897179 0.000941687 0.0129901 0.00100755 0.00547909 0.00680481 0.011901 0.0126317 0.00700878 0.00871286 0.00781705 0.00683899 0.0126454 0.00872367 0.00391884 0.00886091 0.00140595 0.0016411 0.0145374 0.00386171 0.00270794 0.00802837 0.00501401 0.00925255 0.00568857 0.0124689 0.00812599 0.00436228 0.0119348 0.00572724 0.0104921 0.00697578 0.00371731 0.0106163 0.0066188 0.0145815 0.00723761 0.00562226 0.00477273 0.00132247 0.00596783 0.00536559 0.010693 0.00729414 0.00333063 0.0124551 0.00184032 0.0120793 0.0144747 0.00236701 0.0149398 0.00212329 0.00269748 0.00373721 0.00383797 0.0144285 0.00342394 0.0130015 0.014394 0.0147198 0.00818975 0.0136472 0.006821 0.0130219 0.0108772 0.0129161 0.00181871 0.013759 0.0108389 0.00784852 0.002086 0.00987322 0.0108939 0.0106617 0.0102324 0.00420182 0.00760515 0.0042274 0.00728987 0.00951329 0.0100961 0.00974049 0.0147426 0.012606 0.00667052 0.000772106 0.00917672 0.000891831 0.0128459 0.00868162 0.0144002 0.0127752 0.0139847 0.00230137 0.00206314 0.0089518 0.00458818 0.00863629 0.00430558 0.0144603 0.00139906 0.0022093 0.00850697 0.000519877 0.00761316 0.010058 0.0066216 0.0078737 0.00612172 0.00177003 0.0106641 0.00911158 0.000885436 0.00966532 0.00602013 0.0063218 0.0125101 0.00426012 0.00892088 0.00514356 0.00129141 0.00625872 0.00230596 0.00867378 0.0121634 0.0143626 0.00679055 0.00695371 0.0147786 0.0122093 8.43548e-05 0.00995715 0.00799865 0.00462761 0.014216 0.00872348 0.015169 0.0101144 0.011814 0.00603778 0.00111112 0.00717034 0.0141363 0.00826352 0.00175616 0.0079913 0.00761103 0.0143987 0.00452008 0.00844254 0.0144932 0.0131778 0.00166347 0.000956286 0.0107403 0.0055451 0.00180551 0.00453691 0.00942341 0.00954167 0.00962222 0.0113023 0.00289497 0.0026326 0.00369939 0.0105278 0.0120467 0.0108003 0.0126983 0.00874637 0.0122671 0.00818002 0.00641682 0.0122244 0.00702925 0.00552444 0.0108269 0.00453722 0.0103754 0.006324 0.00347663 0.00576113 0.00496984 0.00514114 0.00996983 0.00162457 0.00463433 0.0106884 0.0107356 0.00604621 0.0116912 0.0149773 0.00096492 0.00953084 0.00657841 0.0070626 0.00291999 0.00322739 0.0144818 0.00616535 0.00772151 0.00208443 0.00790977 0.0005545 0.00657309 0.00253931 0.00484977 0.0121283 0.00708603 0.00226918 0.00604545 0.00723472 0.0109701 0.00343743 0.00859229 0.00485768 0.00319335 0.00109812 0.00349856 0.0116007 0.00572299 0.00380241 0.00301698 0.0151635 0.00648948 0.0120217 0.00368541 0.00648051 0.0125803 0.0034757 0.0142895 0.000851078 0.0131829 0.00249219 0.0143918 0.00318155 0.0014035 0.0139873 0.00906508 0.00223346 0.00795407 0.000803853 0.00855083 0.0115832 0.00248374 0.0151863 0.00540234 0.0097276 0.00238535 0.00987972 0.0115477 0.00659241 0.00495397 0.00703731 0.00147038 0.0130426 0.00098502 0.0053282 0.0111163 0.003511 0.015171 0.0131598 0.00872676 0.0148175 0.0113207 0.00240649 0.00685607 0.00344709 0.0141476 0.0130014 0.00491582 0.0103426 0.00140231 0.0128859 0.00198955 0.0125949 0.00943874 0.0102956 0.00903363 0.0124232 0.00125962 0.014085 0.00337117 0.0136293 0.0151931 0.000883264 0.00349408 0.00984074 0.0121777 0.00286447 0.009734 0.0011025 0.00864119 0.00172406 0.011622 0.0142043 0.00878106 0.00656703 0.0106021 0.0130877 0.00764289 0.00255816 0.00114621 0.00710047 0.0138166 0.0150889 0.00444539 0.000265837 0.00514675 0.0032108 0.000596411 0.0117735 0.00480197 0.00487931 0.00937461 0.00280342 0.011736 0.00066532 0.00405254 0.00389386 0.013466 0.00280387 0.0125126 0.0140022 0.0137814 0.00959524 0.0147618 0.00155384 0.0114087 0.0138141 0.00980987 0.00423907 0.0107346 0.0139761 0.0107363 0.00464063 0.0140857 0.000154844 0.00109198 0.0119181 0.00204686 0.00637336 0.00117652 0.0137165 0.00929045 0.00956968 0.00709482 0.0119501 0.0142682 0.00522698 0.0073251 0.0040587 0.0068171 0.0116391 0.0119993 0.0149669 0.0129066 0.00285924 0.0119203 0.00429212 0.00786969 0.00527292 0.00713916 0.00961492 0.00332749 0.00282902 0.0123916 0.0106172 0.0061586 0.00884653 0.010236 0.00840283 0.00599713 0.00787271 0.0090787 0.0125727 0.012392 0.0035215 0.0102817 0.000478223 0.0143084 0.00535659 0.00300831 0.00642562 0.010603 0.00488582 0.00666235 0.00631211 0.0140576 0.00533103 0.00758861 0.00352808 0.00641109 0.00817625 0.00541196 0.00333014 0.00665278 0.0128722 0.0100815 0.00515816 0.00676824 0.0091283 0.00445074 0.00150798 0.00130126 0.00109445 0.00404456 0.00864856 0.00752236 0.00647566 0.00104766 0.0108102 0.00358582 0.0112819 0.0101736 0.0137968 0.00708503 0.0105313 0.00730094 0.00931706 0.010022 0.0114463 0.00207711 0.00861686 0.009053 0.0079031 0.0109555 0.00308504 0.00529079 0.0142464 0.0113986 0.00787863 0.0104791 0.00358764 0.0043882 0.00196482 0.0078991 0.0141693 0.0141394 0.00151112 0.00661975 0.013202 0.00185793 0.0139856 0.00720806 0.0103195 0.0129423 0.0135931 0.000778643 0.0044607 0.0142257 0.0150834 0.00832007 0.0133538 0.00429788 0.00460278 0.00953474 0.00358932 0.0124559 0.00693932 0.0124797 0.00120012 0.0124975 0.0055355 0.000255031 0.0029715 0.0118559 0.00265954 0.0028569 0.002976 0.010311 0.00605346 0.00794846 0.0153104 0.00326511 0.00940419 0.00919532 0.00201588 0.0120431 0.0125817 0.0117104 0.00966264 0.00154015 0.00253213 0.008276 0.00645263 0.00919447 0.00259572 0.0131113 0.00478786 0.00542242 0.0116958 0.00257056 0.00232622 0.00341988 0.00624313 0.0134051 0.00505072 0.0118767 0.00988032 0.00569896 0.0111818 0.000727052 0.00813109 0.00273617 0.0018216 0.0105733 0.00310661 0.0132164 0.00464896 0.0142442 0.00547061 0.00220868 0.00452783 0.00417548 0.00707696 0.00185079 0.012717 0.00497249 0.00564253 0.00390924 0.00208158 0.00278571 0.0119641 0.0066168 0.0141512 0.00132069 0.000897655 0.00340791 0.0110828 0.010023 0.0142771 0.00760919 0.0117553 0.00983223 0.0147465 0.00741987 0.00833856 0.00126161 0.0116434 0.00723613 0.0148598 0.00183155 0.00485025 0.0041845 0.000270788 0.0112352 0.00757262 0.0105256 0.00773959 0.00670747 0.00583542 0.00290594 0.0108315 0.00063707 0.00626549 0.000256757 0.00786836 0.00497188 0.0137817 0.00307043 0.00676854 0.0151889 0.00300748 0.00131104 0.0118046 0.0110655 0.00245696 0.00899819 0.00313438 0.00595921 0.00776734 0.000944439 0.00111534 0.0145161 0.00101532 0.00961945 0.0132851 0.00466757 0.0026714 0.00817881 0.00822097 0.00753351 0.0112204 0.00325932 0.00515858 0.00687735 0.0143408 0.00513623</DataArray>
</Points><Verts>
<DataArray type="Int64" Name="connectivity" format="ascii">0 1 2 3 4 5 6 7 8 9 10 11 12 13 14 15 16 17 18 19 20 21 22 23 24 25 26 27 28 29 30 31 32 33 34 35 36 37 38 39 40 41 42 43 44 45 46 47 48 49 50 51 52 53 54 55 56 57 58 59 60 61 62 63 64 65 66 67 68 69 70 71 72 73 74 75 76 77 78 79 80 81 82 83 84 85 86 87 88 89 90 91 92 93 94 95 96 97 98 99 100 101 102 103 104 105 106 107 108 109 110 111 112 113 114 115 116 117 118 119 120 121 122 123 124 125 126 127 128 129 130 131 132 133 134 135 136 137 138 139 140 141 142 143 144 145 146 147 148 149 150 151 152 153 154 155 156 157 158 159 160 161 162 163 164 165 166 167 168 169 170 171 172 173 174 175 176 177 178 179 180 181 182 183 184 185 186 187 188 189 190 191 192 193 194 195 196 197 198 199 200 201 202 203 204 205 206 207 208 209 210 211 212 213 214 215 216 217 218 219 220 221 222 223 224 225 226 227 228 229 230 231 232 233 234 235 236 237 238 239 240 241 242 243 244 245 246 247 248 249 250 251 252 253 254 255 256 257 258 259 260 261 262 263 264 265 266 267 268 269 270 271 272 273 274 275 276 277 278 279 280 281 282 283 284 285 286 287 288 289 290 291 292 293 294 295 296 297 298 299 300 301 302 303 304 305 306 307 308 309 310 311 312 313 314 315 316 317 318 319 320 321 322 323 324 325 326 327 328 329 330 331 332 333 334 335 336 337 338 339 340 341 342 343 344 345 346 347 348 349 350 351 352 353 354 355 356 357 358 359 360 361 362 363 364 365 366 367 368 369 370 371 372 373 374 375 376 377 378 379 380 381 382 383 384 385 386 387 388 389 390 391 392 393 394 395 396 397 398 399 400 401 402 403 404 405 406 407 408 409 410 411 412 413 414 415 416 417 418 419 420 421 422 423 424 425 426 427 428 429 430 431 432 433 434 435 436 437 438 439 440 441 442 443 444 445 446 447 448 449 450 451 452 453 454 455 456 457 458 459 460 461 462 463 464 465 466 467 468 469 470 471 472 473 474 475 476 477 478 479 480 481 482 483 484 485 486 487 488 489 490 491 492 493 494 495 496 497 498 499</DataArray>
<DataArray type="Int64" Name="offsets" format="ascii">1 2 3 4 5 6 7 8 9 10 11 12 13 14 15 16 17 18 19 20 21 22 23 24 25 26 27 28 29 30 31 32 33 34 35 36 37 38 39 40 41 42 43 44 45 46 47 48 49 50 51 52 53 54 55 56 57 58 59 60 61 62 63 64 65 66 67 68 69 70 71 72 73 74 75 76 77 78 79 80 81 82 83 84 85 86 87 88 89 90 91 92 93 94 95 96 97 98 99 100 101 102 103 104 105 106 107 108 109 110 111 112 113 114 115 116 117 118 119 120 121 122 123 124 125 126 127 128 129 130 131 132 133 134 135 136 137 138 139 140 141 142 143 144 145 146 147 148 149 150 151 152 153 154 155 156 157 158 159 160 161 162 163 164 165 166 167 168 169 170 171 172 173 174 175 176 177 178 179 180 181 182 183 184 185 186 187 188 189 190 191 192 193 194 195 196 197 198 199 200 201 202 203 204 205 206 207 208 209 210 211 212 213 214 215 216 217 218 219 220 221 222 223 224 225 226 227 228 229 230 231 232 233 234 235 236 237 238 239 240 241 242 243 244 245 246 247 248 249 250 251 252 253 254 255 256 257 258 259 260 261 262 263 264 265 266 267 268 269 270 271 272 273 274 275 276 277 278 279 280 281 282 283 284 285 286 287 288 289 290 291 292 293 294 295 296 297 298 299 300 301 302 303 304 305 306 307 308 309 310 311 312 313 314 315 316 317 318 319 320 321 322 323 324 325 326 327 328 329 330 331 332 333 334 335 336 337 338 339 340 341 342 343 344 345 346 347 348 349 350 351 352 353 354 355 356 357 358 359 360 361 362 363 364 365 366 367 368 369 370 371 372 373 374 375 376 377 378 379 380 381 382 383 384 385 386 387 388 389 390 391 392 393 394 395 396 397 398 399 400 401 402 403 404 405 406 407 408 409 410 411 412 413 414 415 416 417 418 419 420 421 422 423 424 425 426 427 428 429 430 431 432 433 434 435 436 437 438 439 440 441 442 443 444 445 446 447 448 449 450 451 452 453 454 455 456 457 458 459 460 461 462 463 464 465 466 467 468 469 470 471 472 473 474 475 476 477 478 479 480 481 482 483 484 485 486 487 488 489 490 491 492 493 494 495 496 497 498 499 500</DataArray>
</Verts></Piece></PolyData></VTKFile>