<?xml version="1.0"?>
<VTKFile type="PolyData" version="0.1" byte_order="LittleEndian">
<PolyData>
<Piece NumberOfPoints="500" NumberOfVerts="500" NumberOfLines="0" NumberOfStrips="0" NumberOfPolys="0">
<PointData>
<DataArray type="Int64" Name="id" format="ascii">1 2 3 4 5 6 7 8 9 10 11 12 13 14 15 16 17 18 19 20 21 22 23 24 25 26 27 28 29 30 31 32 33 34 35 36 37 38 39 40 41 42 43 44 45 46 47 48 49 50 51 52 53 54 55 56 57 58 59 60 61 62 63 64 65 66 67 68 69 70 71 72 73 74 75 76 77 78 79 80 81 82 83 84 85 86 87 88 89 90 91 92 93 94 95 96 97 98 99 100 101 102 103 104 105 106 107 108 109 110 111 112 113 114 115 116 117 118 119 120 121 122 123 124 125 126 127 128 129 130 131 132 133 134 135 136 137 138 139 140 141 142 143 144 145 146 147 148 149 150 151 152 153 154 155 156 157 158 159 160 161 162 163 164 165 166 167 168 169 170 171 172 173 174 175 176 177 178 179 180 181 182 183 184 185 186 187 188 189 190 191 192 193 194 195 196 197 198 199 200 201 202 203 204 205 206 207 208 209 210 211 212 213 214 215 216 217 218 219 220 221 222 223 224 225 226 227 228 229 230 231 232 233 234 235 236 237 238 239 240 241 242 243 244 245 246 247 248 249 250 251 252 253 254 255 256 257 258 259 260 261 262 263 264 265 266 267 268 269 270 271 272 273 274 275 276 277 278 279 280 281 282 283 284 285 286 287 288 289 290 291 292 293 294 295 296 297 298 299 300 301 302 303 304 305 306 307 308 309 310 311 312 313 314 315 316 317 318 319 320 321 322 323 324 325 326 327 328 329 330 331 332 333 334 335 336 337 338 339 340 341 342 343 344 345 346 347 348 349 350 351 352 353 354 355 356 357 358 359 360 361 362 363 364 365 366 367 368 369 370 371 372 373 374 375 376 377 378 379 380 381 382 383 384 385 386 387 388 389 390 391 392 393 394 395 396 397 398 399 400 401 402 403 404 405 406 407 408 409 410 411 412 413 414 415 416 417 418 419 420 421 422 423 424 425 426 427 428 429 430 431 432 433 434 435 436 437 438 439 440 441 442 443 444 445 446 447 448 449 450 451 452 453 454 455 456 457 458 459 460 461 462 463 464 465 466 467 468 469 470 471 472 473 474 475 476 477 478 479 480 481 482 483 484 485 486 487 488 489 490 491 492 493 494 495 496 497 498 499 500</DataArray>
<DataArray type="Int32" Name="type" format="ascii">1 1 1 1 1 1 1 1 1 1 1 1 1 1 1 1 1 1 1 1 1 1 1 1 1 1 1 1 1 1 1 1 1 1 1 1 1 1 1 1 1 1 1 1 1 1 1 1 1 1 1 1 1 1 1 1 1 1 1 1 1 1 1 1 1 1 1 1 1 1 1 1 1 1 1 1 1 1 1 1 1 1 1 1 1 1 1 1 1 1 1 1 1 1 1 1 1 1 1 1 2 2 2 2 2 2 2 2 2 2 2 2 2 2 2 2 2 2 2 2 2 2 2 2 2 2 2 2 2 2 2 2 2 2 2 2 2 2 2 2 2 2 2 2 2 2 2 2 2 2 2 2 2 2 2 2 2 2 2 2 2 2 2 2 2 2 2 2 2 2 2 2 2 2 2 2 2 2 2 2 2 2 2 2 2 2 2 2 2 2 2 2 2 2 2 2 2 2 2 2 2 2 2 2 2 2 2 2 2 2 2 2 2 2 2 2 2 2 2 2 2 2 2 2 2 2 2 2 2 2 2 2 2 2 2 2 2 2 2 2 2 2 2 2 2 2 2 2 2 2 2 2 2 2 2 2 2 2 2 2 2 2 2 2 2 2 2 2 2 2 2 2 2 2 2 2 2 2 2 2 2 2 2 2 2 2 2 2 2 2 2 2 2 2 2 2 2 2 2 2 2 2 2 2 2 2 2 2 2 2 2 2 2 2 2 2 2 2 2 2 2 2 2 2 2 2 2 2 2 2 2 2 2 2 2 2 2 2 2 2 2 2 2 2 2 2 2 2 2 2 2 2 2 2 2 2 2 2 2 2 2 2 2 2 2 2 2 2 2 2 2 2 2 2 2 2 2 2 2 2 2 2 2 2 2 2 2 2 2 2 2 2 2 2 2 2 2 2 2 2 3 3 3 3 3 3 3 3 3 3 3 3 3 3 3 3 3 3 3 3 3 3 3 3 3 3 3 3 3 3 3 3 3 3 3 3 3 3 3 3 3 3 3 3 3 3 3 3 3 3 3 3 3 3 3 3 3 3 3 3 3 3 3 3 3 3 3 3 3 3 3 3 3 3 3 3 3 3 3 3 3 3 3 3 3 3 3 3 3 3 3 3 3 3 3 3 3 3 3 3</DataArray>
<DataArray type="Float64" Name="radius" format="ascii">0.00075 0.00075 0.00075 0.00075 0.00075 0.00075 0.00075 0.00075 0.00075 0.00075 0.00075 0.00075 0.00075 0.00075 0.00075 0.00075 0.00075 0.00075 0.00075 0.00075 0.00075 0.00075 0.00075 0.00075 0.00075 0.00075 0.00075 0.00075 0.00075 0.00075 0.00075 0.00075 0.00075 0.00075 0.00075 0.00075 0.00075 0.00075 0.00075 0.00075 0.00075 0.00075 0.00075 0.00075 0.00075 0.00075 0.00075 0.00075 0.00075 0.00075 0.00075 0.00075 0.00075 0.00075 0.00075 0.00075 0.00075 0.00075 0.00075 0.00075 0.00075 0.00075 0.00075 0.00075 0.00075 0.00075 0.00075 0.00075 0.00075 0.00075 0.00075 0.00075 0.00075 0.00075 0.00075 0.00075 0.00075 0.00075 0.00075 0.00075 0.00075 0.00075 0.00075 0.00075 0.00075 0.00075 0.00075 0.00075 0.00075 0.00075 0.00075 0.00075 0.00075 0.00075 0.00075 0.00075 0.00075 0.00075 0.00075 0.00075 0.001 0.001 0.001 0.001 0.001 0.001 0.001 0.001 0.001 0.001 0.001 0.001 0.001 0.001 0.001 0.001 0.001 0.001 0.001 0.001 0.001 0.001 0.001 0.001 0.001 0.001 0.001 0.001 0.001 0.001 0.001 0.001 0.001 0.001 0.001 0.001 0.001 0.001 0.001 0.001 0.001 0.001 0.001 0.001 0.001 0.001 0.001 0.001 0.001 0.001 0.001 0.001 0.001 0.001 0.001 0.001 0.001 0.001 0.001 0.001 0.001 0.001 0.001 0.001 0.001 0.001 0.001 0.001 0.001 0.001 0.001 0.001 0.001 0.001 0.001 0.001 0.001 0.001 0.001 0.001 0.001 0.001 0.001 0.001 0.001 0.001 0.001 0.001 0.001 0.001 0.001 0.001 0.001 0.001 0.001 0.001 0.001 0.001 0.001 0.001 0.001 0.001 0.001 0.001 0.001 0.001 0.001 0.001 0.001 0.001 0.001 0.001 0.001 0.001 0.001 0.001 0.001 0.001 0.001 0.001 0.001 0.001 0.001 0.001 0.001 0.001 0.001 0.001 0.001 0.001 0.001 0.001 0.001 0.001 0.001 0.001 0.001 0.001 0.001 0.001 0.001 0.001 0.001 0.001 0.001 0.001 0.001 0.001 0.001 0.001 0.001 0.001 0.001 0.001 0.001 0.001 0.001 0.001 0.001 0.001 0.001 0.001 0.001 0.001 0.001 0.001 0.001 0.001 0.001 0.001 0.001 0.001 0.001 0.001 0.001 0.001 0.001 0.001 0.001 0.001 0.001 0.001 0.001 0.001 0.001 0.001 0.001 0.001 0.001 0.001 0.001 0.001 0.001 0.001 0.001 0.001 0.001 0.001 0.001 0.001 0.001 0.001 0.001 0.001 0.001 0.001 0.001 0.001 0.001 0.001 0.001 0.001 0.001 0.001 0.001 0.001 0.001 0.001 0.001 0.001 0.001 0.001 0.001 0.001 0.001 0.001 0.001 0.001 0.001 0.001 0.001 0.001 0.001 0.001 0.001 0.001 0.001 0.001 0.001 0.001 0.001 0.001 0.001 0.001 0.001 0.001 0.001 0.001 0.001 0.001 0.001 0.001 0.001 0.001 0.001 0.001 0.001 0.001 0.001 0.001 0.001 0.001 0.001 0.001 0.001 0.001 0.001 0.001 0.001 0.001 0.001 0.001 0.001 0.001 0.001 0.001 0.001 0.001 0.001 0.001 0.001 0.001 0.001 0.001 0.001 0.001 0.001 0.001 0.001 0.001 0.001 0.001 0.001 0.001 0.001 0.001 0.001 0.001 0.001 0.001 0.00125 0.00125 0.00125 0.00125 0.00125 0.00125 0.00125 0.00125 0.00125 0.00125 0.00125 0.00125 0.00125 0.00125 0.00125 0.00125 0.00125 0.00125 0.00125 0.00125 0.00125 0.00125 0.00125 0.00125 0.00125 0.00125 0.00125 0.00125 0.00125 0.00125 0.00125 0.00125 0.00125 0.00125 0.00125 0.00125 0.00125 0.00125 0.00125 0.00125 0.00125 0.00125 0.00125 0.00125 0.00125 0.00125 0.00125 0.00125 0.00125 0.00125 0.00125 0.00125 0.00125 0.00125 0.00125 0.00125 0.00125 0.00125 0.00125 0.00125 0.00125 0.00125 0.00125 0.00125 0.00125 0.00125 0.00125 0.00125 0.00125 0.00125 0.00125 0.00125 0.00125 0.00125 0.00125 0.00125 0.00125 0.00125 0.00125 0.00125 0.00125 0.00125 0.00125 0.00125 0.00125 0.00125 0.00125 0.00125 0.00125 0.00125 0.00125 0.00125 0.00125 0.00125 0.00125 0.00125 0.00125 0.00125 0.00125 0.00125</DataArray>
<DataArray type="Float64" Name="diameter" format="ascii">0.0015 0.0015 0.0015 0.0015 0.0015 0.0015 0.0015 0.0015 0.0015 0.0015 0.0015 0.0015 0.0015 0.0015 0.0015 0.0015 0.0015 0.0015 0.0015 0.0015 0.0015 0.0015 0.0015 0.0015 0.0015 0.0015 0.0015 0.0015 0.0015 0.0015 0.0015 0.0015 0.0015 0.0015 0.0015 0.0015 0.0015 0.0015 0.0015 0.0015 0.0015 0.0015 0.0015 0.0015 0.0015 0.0015 0.0015 0.0015 0.0015 0.0015 0.0015 0.0015 0.0015 0.0015 0.0015 0.0015 0.0015 0.0015 0.0015 0.0015 0.0015 0.0015 0.0015 0.0015 0.0015 0.0015 0.0015 0.0015 0.0015 0.0015 0.0015 0.0015 0.0015 0.0015 0.0015 0.0015 0.0015 0.0015 0.0015 0.0015 0.0015 0.0015 0.0015 0.0015 0.0015 0.0015 0.0015 0.0015 0.0015 0.0015 0.0015 0.0015 0.0015 0.0015 0.0015 0.0015 0.0015 0.0015 0.0015 0.0015 0.002 0.002 0.002 0.002 0.002 0.002 0.002 0.002 0.002 0.002 0.002 0.002 0.002 0.002 0.002 0.002 0.002 0.002 0.002 0.002 0.002 0.002 0.002 0.002 0.002 0.002 0.002 0.002 0.002 0.002 0.002 0.002 0.002 0.002 0.002 0.002 0.002 0.002 0.002 0.002 0.002 0.002 0.002 0.002 0.002 0.002 0.002 0.002 0.002 0.002 0.002 0.002 0.002 0.002 0.002 0.002 0.002 0.002 0.002 0.002 0.002 0.002 0.002 0.002 0.002 0.002 0.002 0.002 0.002 0.002 0.002 0.002 0.002 0.002 0.002 0.002 0.002 0.002 0.002 0.002 0.002 0.002 0.002 0.002 0.002 0.002 0.002 0.002 0.002 0.002 0.002 0.002 0.002 0.002 0.002 0.002 0.002 0.002 0.002 0.002 0.002 0.002 0.002 0.002 0.002 0.002 0.002 0.002 0.002 0.002 0.002 0.002 0.002 0.002 0.002 0.002 0.002 0.002 0.002 0.002 0.002 0.002 0.002 0.002 0.002 0.002 0.002 0.002 0.002 0.002 0.002 0.002 0.002 0.002 0.002 0.002 0.002 0.002 0.002 0.002 0.002 0.002 0.002 0.002 0.002 0.002 0.002 0.002 0.002 0.002 0.002 0.002 0.002 0.002 0.002 0.002 0.002 0.002 0.002 0.002 0.002 0.002 0.002 0.002 0.002 0.002 0.002 0.002 0.002 0.002 0.002 0.002 0.002 0.002 0.002 0.002 0.002 0.002 0.002 0.002 0.002 0.002 0.002 0.002 0.002 0.002 0.002 0.002 0.002 0.002 0.002 0.002 0.002 0.002 0.002 0.002 0.002 0.002 0.002 0.002 0.002 0.002 0.002 0.002 0.002 0.002 0.002 0.002 0.002 0.002 0.002 0.002 0.002 0.002 0.002 0.002 0.002 0.002 0.002 0.002 0.002 0.002 0.002 0.002 0.002 0.002 0.002 0.002 0.002 0.002 0.002 0.002 0.002 0.002 0.002 0.002 0.002 0.002 0.002 0.002 0.002 0.002 0.002 0.002 0.002 0.002 0.002 0.002 0.002 0.002 0.002 0.002 0.002 0.002 0.002 0.002 0.002 0.002 0.002 0.002 0.002 0.002 0.002 0.002 0.002 0.002 0.002 0.002 0.002 0.002 0.002 0.002 0.002 0.002 0.002 0.002 0.002 0.002 0.002 0.002 0.002 0.002 0.002 0.002 0.002 0.002 0.002 0.002 0.002 0.002 0.002 0.002 0.002 0.002 0.002 0.002 0.002 0.002 0.002 0.002 0.0025 0.0025 0.0025 0.0025 0.0025 0.0025 0.0025 0.0025 0.0025 0.0025 0.0025 0.0025 0.0025 0.0025 0.0025 0.0025 0.0025 0.0025 0.0025 0.0025 0.0025 0.0025 0.0025 0.0025 0.0025 0.0025 0.0025 0.0025 0.0025 0.0025 0.0025 0.0025 0.0025 0.0025 0.0025 0.0025 0.0025 0.0025 0.0025 0.0025 0.0025 0.0025 0.0025 0.0025 0.0025 0.0025 0.0025 0.0025 0.0025 0.0025 0.0025 0.0025 0.0025 0.0025 0.0025 0.0025 0.0025 0.0025 0.0025 0.0025 0.0025 0.0025 0.0025 0.0025 0.0025 0.0025 0.0025 0.0025 0.0025 0.0025 0.0025 0.0025 0.0025 0.0025 0.0025 0.0025 0.0025 0.0025 0.0025 0.0025 0.0025 0.0025 0.0025 0.0025 0.0025 0.0025 0.0025 0.0025 0.0025 0.0025 0.0025 0.0025 0.0025 0.0025 0.0025 0.0025 0.0025 0.0025 0.0025 0.0025</DataArray>
<DataArray type="Float64" Name="conductivity" format="ascii">1.0 1.0 1.0 1.0 10.0 1.0 1.0 10.0 1.0 1.0 10.0 1.0 1.0 1.0 1.0 10.0 1.0 1.0 1.0 1.0 1.0 1.0 1.0 10.0 1.0 1.0 1.0 1.0 1.0 1.0 1.0 1.0 10.0 1.0 1.0 1.0 1.0 1.0 1.0 1.0 1.0 1.0 1.0 1.0 1.0 1.0 1.0 1.0 10.0 1.0 1.0 1.0 1.0 1.0 10.0 1.0 1.0 1.0 1.0 1.0 1.0 1.0 1.0 1.0 1.0 1.0 1.0 1.0 1.0 1.0 1.0 1.0 1.0 1.0 1.0 1.0 1.0 1.0 1.0 1.0 1.0 10.0 1.0 1.0 1.0 1.0 1.0 1.0 1.0 1.0 1.0 1.0 1.0 10.0 1.0 1.0 1.0 1.0 1.0 1.0 1.0 10.0 1.0 1.0 1.0 1.0 1.0 1.0 1.0 1.0 1.0 1.0 1.0 1.0 1.0 1.0 1.0 1.0 1.0 1.0 1.0 1.0 1.0 10.0 1.0 1.0 10.0 1.0 1.0 10.0 1.0 1.0 10.0 1.0 1.0 1.0 1.0 1.0 10.0 1.0 10.0 1.0 1.0 1.0 1.0 1.0 1.0 1.0 1.0 10.0 1.0 1.0 1.0 1.0 10.0 1.0 1.0 1.0 1.0 1.0 10.0 1.0 1.0 1.0 1.0 1.0 1.0 1.0 1.0 1.0 1.0 1.0 1.0 1.0 1.0 1.0 1.0 1.0 1.0 1.0 1.0 1.0 1.0 1.0 1.0 1.0 10.0 1.0 1.0 1.0 1.0 1.0 1.0 1.0 1.0 1.0 1.0 1.0 1.0 1.0 1.0 1.0 1.0 1.0 1.0 1.0 1.0 1.0 1.0 1.0 1.0 1.0 1.0 1.0 1.0 1.0 1.0 1.0 10.0 1.0 1.0 1.0 10.0 1.0 1.0 1.0 1.0 1.0 1.0 1.0 1.0 1.0 10.0 1.0 10.0 1.0 1.0 1.0 1.0 1.0 1.0 1.0 1.0 1.0 1.0 1.0 1.0 1.0 1.0 10.0 1.0 1.0 10.0 1.0 1.0 1.0 10.0 1.0 1.0 1.0 1.0 1.0 1.0 1.0 1.0 10.0 1.0 1.0 1.0 10.0 1.0 1.0 1.0 1.0 1.0 1.0 1.0 1.0 1.0 1.0 1.0 1.0 1.0 1.0 1.0 1.0 1.0 1.0 1.0 10.0 1.0 1.0 1.0 1.0 1.0 1.0 1.0 1.0 1.0 1.0 1.0 1.0 1.0 1.0 1.0 1.0 1.0 1.0 1.0 1.0 1.0 1.0 1.0 1.0 1.0 1.0 1.0 1.0 1.0 1.0 1.0 10.0 1.0 10.0 10.0 1.0 1.0 1.0 1.0 1.0 1.0 1.0 1.0 1.0 1.0 1.0 1.0 1.0 1.0 10.0 1.0 1.0 1.0 1.0 1.0 1.0 1.0 1.0 1.0 1.0 1.0 1.0 1.0 1.0 1.0 1.0 1.0 1.0 1.0 1.0 1.0 1.0 1.0 1.0 1.0 10.0 1.0 1.0 1.0 1.0 10.0 1.0 1.0 1.0 1.0 1.0 1.0 1.0 10.0 1.0 1.0 1.0 1.0 1.0 1.0 1.0 1.0 1.0 1.0 1.0 1.0 1.0 10.0 1.0 1.0 1.0 1.0 1.0 10.0 1.0 1.0 1.0 1.0 1.0 1.0 1.0 1.0 1.0 1.0 1.0 1.0 1.0 1.0 1.0 1.0 1.0 1.0 1.0 10.0 1.0 1.0 1.0 1.0 1.0 1.0 1.0 1.0 1.0 1.0 1.0 1.0 1.0 1.0 10.0 1.0 1.0 1.0 1.0 1.0 1.0 1.0 1.0 1.0 1.0 1.0 1.0 1.0 1.0 10.0 1.0 1.0 1.0 1.0 1.0 1.0 1.0 10.0 1.0 1.0 1.0 1.0 1.0 10.0 1.0 1.0 1.0 1.0 1.0 10.0 1.0 10.0 1.0 1.0 1.0 1.0 1.0 1.0 1.0 1.0 1.0 1.0 1.0 1.0 10.0 1.0 1.0 1.0 1.0 1.0 1.0 1.0 1.0 1.0 1.0 10.0 1.0 10.0 1.0 1.0 1.0</DataArray>
<DataArray type="Float64" Name="temperature" format="ascii">300.9136450703382 nan 300.0522113522842 300.17082639878083 300.0422994201494 300.31367303350845 300.8073538821341 300.2188725309848 300.1975368405353 300.28984707931636 300.251631347558 300.825429894851 300.5771451341518 300.5707723780267 300.04641222048866 300.51226076212834 300.96472989673475 300.3704868788699 300.0496727969492 300.9044616345644 300.72977401146045 300.9465462927798 300.42219893947265 300.1233477135065 nan 300.8558468701601 nan 300.6588692274156 300.3254911270801 300.3225856501207 300.6903885502117 300.2068678008384 300.967656472192 300.275735684958 300.49366570005543 300.49739406809584 300.88960085915556 300.33606402873727 300.3500105547982 300.0477757773176 300.2729984606314 300.7649887628157 300.3850420826757 300.9489400426959 300.85550399839616 300.12844945918687 nan 300.9487078362113 300.04535535249954 300.4877619291337 300.90837226954613 300.1627760632578 300.2605929151916 300.8583504332143 300.62855376852906 300.5016952189287 nan nan 300.51066447901627 300.1738738705491 300.3483934088289 300.6502069320357 300.97149247850643 300.1437638880844 300.05974924915733 300.9637657896832 nan 300.8669488374563 300.95288552881004 300.4349934086411 300.9643414720671 300.71985954567776 300.0457223526297 300.16369252997805 300.1037969220845 300.79316562933894 300.05004720165414 300.96500884051153 300.0749582354733 300.3251381336143 300.96095872734116 300.98504866382814 nan 300.5173907092048 300.6505497788054 300.5254502587671 300.94404236965113 300.1341922530628 300.72321918657315 300.57266021556336 300.5990914279223 nan 300.8666261876806 300.26836673494626 300.63153494327986 300.0446696506041 300.2278634792739 300.3891259111467 300.14548966739176 300.7801812265676 300.2650234834766 300.7735238522362 300.7292512125941 300.2370682709264 300.7684041435082 300.3307776526988 300.0583162313981 300.9279665583309 300.0786699915042 300.82179295690423 300.05383239317945 300.454785117657 300.2462804730595 300.4144227337126 300.0549728825676 300.20416925430555 300.1884011651263 300.8389048828402 300.39605111243793 300.1995100190955 300.43197109506065 300.45681814355527 300.3932352242386 300.06299720176344 300.5437907049223 300.9191368485414 300.7152677325073 300.7561178994397 300.75331799828245 300.28887314577656 300.4732013086995 300.05078465732333 300.0403811418595 300.9515570391003 300.21637270619453 300.07281159562496 300.6010845239822 300.30203276546484 300.8460621648562 300.1471268757894 300.32769557131854 300.21448561700436 300.6553126921713 300.16693212699437 300.3111475017497 300.42066149219215 300.53430625750684 300.88630246821856 300.2569487044384 300.2490275078765 300.65966407048614 300.66416068719303 300.860049337802 300.45731811570965 300.37619603353994 300.4861064138828 300.3613407349191 300.31542052605505 300.2511765618619 300.05321398385615 300.38641034039637 300.0569811038107 300.2426138300431 300.7800066309068 300.88428799483904 300.4978931813332 300.49679240438377 300.13067849039294 300.956905212022 300.57888501165195 300.17417545821525 300.1524213741825 300.65389567763685 300.494308059403 300.6464337785651 300.58267189199455 300.64250189174544 300.1545770432914 300.2701721074769 300.39490600621264 300.0548173640017 300.62218239096603 300.375976638693 300.58409119469155 300.6085181761623 300.5307782854335 300.3528608957162 300.1695498194548 300.09384742982803 300.1071602627606 300.23534900108376 300.78397282499986 300.4814845204611 300.6983483604005 300.88102021767224 300.1838986828002 300.74462814916217 300.36772243160544 300.5208603991254 300.04974693821634 300.1597547490776 300.48590605033934 300.2689209950003 300.08067916930924 300.4556455960918 300.09709241202506 300.3770225175591 300.2954463727399 300.7939693634462 300.5620442481618 300.1390263667861 300.49568109379817 300.4757639308839 300.4636927148857 300.51330193024995 300.9370609359179 300.11128553440705 300.07103065808053 300.94875461086855 300.22425025239136 300.90093603289216 300.66191144652095 300.93264151345136 300.6909301348618 300.2742682965509 300.91905305709986 300.208156836547 300.9460994659393 300.058421053962 300.27683614809183 300.0535289272206 300.3554941941755 300.4047059737893 300.37687570645926 300.1093436475604 300.65954863704883 300.2192830545406 300.2313329439885 300.5514706129921 300.8657911732827 300.2246832432736 300.3514596452339 300.940989886914 300.16834130414185 300.42278385827245 300.702703981261 300.9435775230275 300.2760352280213 300.1558967623546 300.7929250449826 300.794508473209 300.6075880232578 300.0305442796208 300.6230443667487 300.1577766178268 300.8042856464731 300.83156522793115 300.94337850612675 300.4629035379156 300.06193941707045 300.325525089587 300.07529643179964 300.53107502194257 300.3990685269144 300.42485475876094 300.8229553575321 300.95487841487835 300.27572794848356 300.94856809665885 300.156609441037 300.54831859182354 300.5114069222542 300.709827810844 300.06495132132267 300.7548644960672 300.1144743584387 300.7290484456788 300.1421839426013 300.57700743820084 300.27417406545277 300.3468942651797 300.71870463151515 300.1480890321378 300.334872890036 300.0572341172556 300.8567320247789 300.4760692501874 300.13143098268006 300.0482835053281 300.89685802672915 300.21594361879926 300.9420152436142 300.3530211647359 300.7379777719591 300.2910553565748 300.1756745472669 300.2851160572782 300.920412502984 300.54576442723476 300.3217618758553 300.6429554291876 300.313455657922 300.76722000760236 300.67366798130644 300.85816717435705 300.9335881054408 300.6428418552259 300.5607066956963 300.40445838217374 300.810262934273 300.6612410131561 300.42477550864373 300.8444390169606 300.831148145389 300.34469553086427 300.20038248028527 300.9403234254413 300.92388593718516 300.683918044633 300.1197765289307 300.115319997035 300.517252686933 300.23396312939167 300.0354633575106 300.19708792999506 300.8704172689947 300.0436180178543 300.1660580741271 300.11997322773 300.2267657448567 300.59989478390014 300.06344539907326 300.17470146269466 300.93231176736526 300.93968593033475 300.50142040761835 300.1054700928737 300.16246849612855 300.73794134080214 300.7583622584785 300.82851844950613 300.3082925593454 300.3690064412478 300.76462376576535 300.7928324217727 300.8080595584348 300.07452194493743 300.36827242749143 300.668948289048 300.7504297009009 300.490264387868 300.48227428740694 300.36291358205165 300.6647208307889 300.4320859385365 300.7219291811462 300.54150379980024 300.33659446024336 300.939150030758 300.4534498567145 300.08013701103874 300.9328625805869 300.72080569498746 300.57600141046026 300.81146253296464 300.81668590453455 300.9440206089354 300.6767692900023 300.6140069137669 300.3312184777231 300.6108934386031 300.8907679619523 300.479918973399 300.35355107141964 300.52606942602256 300.0603890076764 300.63746084650523 300.2054213806494 300.709335115794 300.91437006549023 300.6331012359592 300.8721796137911 300.8102837590942 300.717090525777 300.8394929782124 300.1907962486569 300.04693523143646 300.43283139046224 300.8245142469808 300.1161667629645 300.4895563081501 300.0572292864331 300.5966507924094 300.82758867366834 300.4364169694094 300.5959105381819 300.8210800908248 300.72197500349404 300.94685687990545 300.5426463811839 300.28929133447974 300.18342146961845 300.78266811258845 300.88246609444695 300.45893043328107 300.2736968580722 300.36052386032253 300.78054205474183 300.91745249816137 300.35866205591117 300.8283800381446 300.9346025910646 300.7003868080834 300.3935745624392 300.1261903769264 300.7853391881939 300.7880864980946 300.06492075516053 300.62467808823504 300.0977185642888 300.23578752396224 300.7094294640894 300.8157650005128 300.3007318608919 300.15410632702543 300.44684289152605 300.3891565413486 300.6832766828101 300.6230152371834 300.22328362077553 300.7842886381207 300.18406892235816 300.6237481904411 300.7035868080385 300.83506666653983 300.5789887350568 300.60562192040817 300.42964803780535 300.5270390397724 300.28030879463125 300.4604026939127 300.264205604343 300.92311906266167 300.54353717732846 300.84512552906034 300.8554248904519 300.8377459408029 300.5947199016242 300.4930889567216 300.711391100489 300.804220160009 300.5778739625532 300.94561973994223 300.61686387202514 300.9298150995104 300.48481720751903 300.1370234503897 300.38772643786604 300.8937480420325 300.2950491895585 300.1058566742768 300.80097120721285 300.6894739710574 300.06163616810096 300.6011219623346 300.38966657790553 300.6041314692145 300.8835235144796 300.4129319836629 300.6198784168535 300.5639734129944 300.7205203641554 300.5778637309288 300.76160621529874 300.6457681163181 300.2271861948579 300.9367388756802 300.7400769233004 300.8116236348853 300.76201794504 300.07888517254446 300.3667382151539 300.4731056492211 300.8587467352539 300.59842928428594 300.3931248389286 300.63732714364545 300.5766401885008 300.13155234570706 300.72868238008186 300.93662474078616 300.7032070032452 300.0739752516781 300.6595906945019 300.9577997794888 300.07971837975094 300.3318568425821 300.56686868358264 300.7971235949983 300.86978403491275</DataArray>
<DataArray type="Float64" Name="g_hot" format="ascii">0.0 0.0 0.0 0.0 0.0 0.0 0.0 0.0 0.0 0.0 0.0 0.0 0.0 0.0 0.0 0.0 0.0005536144868046719 0.0 0.0 0.0 0.0 0.0004629892007379869 0.0 0.0 0.0 0.0 0.0 0.0 0.0 0.0 0.0 0.0 0.00596700930114911 0.0 0.0 0.0 0.0 0.0 0.0 0.0 0.0 0.0 0.0 0.00046920997431853487 0.0 0.0 0.0 0.000115464280190889 0.0 0.0 0.0 0.0 0.0 0.0 0.0 0.0 0.0 0.0 0.0 0.0 0.0 0.0 0.00011751170154499573 0.0 0.0 0.0004897632080914207 0.0 0.0 0.00039205994439626187 0.0 0.00039782910904055294 0.0 0.0 0.0 0.0 0.0 0.0 0.00019153850787765884 0.0 0.0 0.0003922397226187066 0.003785036327434653 0.0 0.0 0.0 0.0 0.0006884221088837865 0.0 0.0 0.0 0.0 0.0 0.0 0.0 0.0 0.0 0.0 0.0 0.0 0.0 0.0 0.0 0.0 0.0 0.0 0.0 0.0 0.000722382170322607 0.0 0.0 0.0 0.0 0.0 0.0 0.0 0.0 0.0 0.0 0.0 0.0 0.0 0.0 0.0 0.0 0.0 0.00021019038988498125 0.0 0.0 0.0 0.0 0.0 0.0 0.0 0.0005725661533831704 0.0 0.0 0.0 0.0 0.0 0.0 0.0 0.0 0.0 0.0 0.0 0.0 0.0 0.0 0.0 0.0 0.0 0.0 0.0 0.0 0.0 0.0 0.0 0.0 0.0 0.0 0.0 0.0 0.0 0.0 0.0 0.0 0.0 0.0 0.0006448689789406838 0.0 0.0 0.0 0.0 0.0 0.0 0.0 0.0 0.0 0.0 0.0 0.0 0.0 0.0 0.0 0.0 0.0 0.0 0.0 0.0 0.0 0.0 0.0 0.0 0.0 0.0 0.0 0.0 0.0 0.0 0.0 0.0 0.0 0.0 0.0 0.0 0.0 0.0 0.0 0.0 0.0 0.0 0.0 0.0 0.0 0.0 0.00041606249530569314 0.0 0.0 0.0048706878364354255 0.0 0.0 0.0 0.004219668233404141 0.0 0.0 0.0 0.0 0.0007464717007362035 0.0 0.0 0.0 0.0 0.0 0.0 0.0 0.0 0.0 0.0 0.0 0.0 0.0 0.0 0.0003945275655768555 0.0 0.0 0.0 0.0005886289153617924 0.0 0.0 0.0 0.0 0.0 0.0 0.0 0.0 0.0 0.0 0.0009195672895443815 0.0 0.0 0.0 0.0 0.0 0.0 0.0 0.0 0.0007193413654170045 0.0 0.0004665318852983149 0.0 0.0 0.0 0.0 0.0 0.0 0.0 0.0 0.0 0.0 0.0 0.0 0.0 0.0 0.0 0.0 0.0 0.0 0.0 0.0 0.0 0.0 0.0002175683800555592 0.0 0.0 0.0 0.0 0.0 0.0 0.0 0.0 0.0 0.0 0.0 0.0 0.0 0.0006144428370483295 0.0 0.0 0.0 0.0 0.0 0.0 0.0 0.0 0.0 0.0 0.0008027104085534211 0.0 0.0 0.0 0.0 0.0 0.0 0.0 0.0 0.0 0.0 0.0 0.0 0.0 0.0 0.0 0.0 0.0002698073386696514 0.0004851391552946433 0.0 0.0 0.0 0.0 0.0 0.0 0.0 0.0 0.0 0.0 0.0 0.0 0.0 0.0 0.0 0.0 0.0 0.0 0.0 0.0 0.0 0.0 0.0 0.0005224212859369342 0.0 0.0 0.00037795237795256706 0.0 0.0 0.0 0.0 0.0006604665018000535 0.0 0.0 0.0 0.0 0.0 0.0 0.0 0.0 0.0 0.0 0.0 0.0 0.0 0.0 0.0 0.0 0.0 0.0 0.0 0.0 0.0 0.0 0.0 0.0 0.0 0.0 0.0 0.0 0.0 0.0 0.0 0.007857073246444888 0.0 0.0 0.0 0.0 0.0 0.0 0.0 0.0 0.0 0.0008044563381563976 0.0 0.0 0.0006135959582656976 0.0 0.0 0.0 0.0 0.0 0.0 0.0 0.0 0.0 0.0 0.0 0.0 0.0 0.0 0.0 0.0 0.0 0.0 0.0 0.0 0.0 0.0 0.0 0.0 0.0 0.0 0.0 0.0 0.0 0.0 0.0007231873892705819 0.0 0.0 0.0 0.0 0.0 0.0 0.0 0.0 0.0 0.000723049099301009 0.0 0.0005913121003328105 0.0 0.0 0.0 0.0 0.0 0.0 0.0 0.0 0.0 0.0 0.0 0.0 0.0 0.0 0.0 0.0 0.0 0.0 0.0 0.0 0.0 0.0005581666417836168 0.0 0.0 0.0 0.0 0.0 0.0 0.0 0.0 0.0 0.0 0.0 0.0 0.0 0.0007569015788066503 0.0 0.0 0.0 0.00903686892679096 0.0 0.0 0.0 0.0 0.0</DataArray>
<DataArray type="Float64" Name="g_cold" format="ascii">0.0 0.0 0.0005946397552731436 0.0 0.005519931508191954 0.0 0.0 0.0 0.0 0.0 0.0 0.0 0.0 0.0 0.000453868305294946 0.0 0.0 0.0 0.0004321995355750696 0.0 0.0 0.0 0.0 0.0 0.0 0.0 0.0 0.0 0.0 0.0 0.0 0.0 0.0 0.0 0.0 0.0 0.0 0.0 0.0 0.00041916159002382855 0.0 0.0 0.0 0.0 0.0 0.0 0.0 0.0 0.0044620223951847855 0.0 0.0 0.0 0.0 0.0 0.0 0.0 0.0 0.0 0.0 0.0 0.0 0.0 0.0 0.0 0.0005614235821118518 0.0 0.0 0.0 0.0 0.0 0.0 0.0 0.0003986181613415337 0.0 0.0 0.0 0.0004130332172492949 0.0 0.0 0.0 0.0 0.0 0.0 0.0 0.0 0.0 0.0 0.0 0.0 0.0 0.0 0.0 0.0 0.0 0.0 0.0005263995047027548 0.0 0.0 0.0 0.0 0.0 0.0 0.0 0.0 0.0 0.0 0.0005198672119574381 0.0 0.000248720562214712 0.0 0.00026050320164713604 0.0 0.0 0.0 0.0005085881615495974 0.0 0.0 0.0 0.0 0.0 0.0 0.0 0.0 0.0060717536022832684 0.0 0.0 0.0 0.0 0.0 0.0 0.0 0.000666829751937033 0.005457672746403934 0.0 0.0 0.0008006634237108652 0.0 0.0 0.0 0.0 0.0 0.0 0.0 0.0 0.0 0.0 0.0 0.0 0.0 0.0 0.0 0.0 0.0 0.0 0.0 0.0 0.0 0.0 0.0 0.000577807855665183 0.0 1.6183882982999428e-05 0.0 0.0 0.0 0.0 0.0 0.0 0.0 0.0 0.0 0.0 0.0 0.0 0.0 0.0 0.0 0.0 0.0 0.0 0.0007179567661554565 0.0 0.0 0.0 0.0 0.0 0.0 0.0 0.0 0.0 0.0 0.0 0.0 0.0 0.0 0.0 0.0 0.0 0.0 0.0006285395119389139 0.0 0.0 0.0 0.0 0.0 0.0 0.0 0.0 0.0 0.0 0.0 0.0 0.0 0.0 0.0 0.0 0.0 0.0007788850480452173 0.0 0.0 0.0 0.0 0.0 0.0 0.0 0.0 0.0 0.0 0.0005202517833399492 0.0 0.0005867383727594476 0.0 0.0 0.0 0.0 0.0 0.0 0.0 0.0 0.0 0.0 0.0 0.0 0.0 0.0 0.0 0.0 0.0 0.0 0.0 0.0 0.0 0.008517405227347133 0.0 0.0 0.0 0.0 0.0 0.0 0.00041696752639552566 0.0 0.0004278573571511939 0.0 0.0 0.0 0.0 0.0 0.0 0.0 0.0 0.0 0.0 0.0 0.0006420762556491271 0.0 0.0 0.0 0.0 0.0 0.0 0.0 0.0 0.0 0.0 0.0005202517833399492 0.0 0.0 0.0 0.00033265886140069085 0.0 0.0 0.0 0.0 0.0 0.0 0.0 0.0 0.0 0.0 0.0 0.0 0.0 0.0 0.0 0.0 0.0 0.0 0.0 0.0 0.0 0.0 0.0 0.0 0.0 0.0 0.0 0.0 0.0 0.0 0.0 0.0 0.0 0.0 0.006778362029785665 0.0 0.0 0.0008039041721924332 0.0 0.0 0.0 0.0 0.0005637924423654583 0.0 0.0 0.0 0.0 0.0 0.0 0.0 0.0 0.0 0.0 0.0 0.0 0.0 0.0 0.0 0.0 0.0 0.0 0.0 0.0 0.0 0.0 0.0 0.0 0.0 0.0 0.0 0.0 0.0 0.0 0.0 0.0 0.0 0.0 0.0 0.0 0.0 0.0 0.0 0.0 0.0 0.0 0.0 0.0006793098836822576 0.0 0.0 0.0 0.0 0.0 0.0 0.0 0.0 0.0 0.0 0.0007265410642684945 0.0 0.0 0.0 0.0 0.0006051957683827595 0.0 0.0 0.0 0.0 0.0 0.0 0.0 0.0 0.0 0.0 0.0 0.0 0.0 0.0 0.0 0.0 0.0 0.0 0.0 0.0 0.0 0.0 0.0 0.0 0.0 0.0006563744339822376 0.0 0.0 0.0 0.0 0.0 0.0 0.0 0.0 0.0 0.0 0.0 0.0 0.0 0.0 0.0 0.0 0.0 0.0 0.0 0.0 0.0 0.0 0.0 0.0 0.0 0.0 0.0 0.0 0.0 0.0 0.0 0.0 0.0 0.0 0.0 0.0 0.0 0.0 0.0 0.0 0.0 0.0 0.0 0.0 0.0 0.0006487121068590452 0.0 0.0 0.0 0.0 0.0 0.0 0.0 0.0 0.0 0.0 0.0 0.0 0.0 0.0 0.0 0.0 0.000604423194116094 0.0 0.0 0.0 0.0 0.0 0.0 0.0 0.0 0.0 0.0 0.0 0.000818429836690658 0.0 0.0 0.0005855146433570256 0.0 0.0 0.0 0.0</DataArray>
</PointData><Points>
<DataArray type="Float64" Name="Points" format="ascii" NumberOfComponents="3">0.00591179 0.00123945 0.00149207 0.00558455 0.00402875 0.0146157 0.0147083 0.0134642 0.0147385 0.0151338 0.000920537 0.0132812 0.00157012 0.00715574 0.0147222 0.00469772 0.0105231 0.0109454 0.00828372 0.0116994 0.00299937 0.00190232 0.00654969 0.0115956 0.0062023 0.00721302 0.0121365 0.00163661 0.00747783 0.010509 0.000606162 0.00598328 0.0114308 0.0030808 0.00604266 0.00260927 0.00960633 0.00692541 0.00668247 0.00365344 0.00918338 0.00697451 0.00407534 0.0117884 0.0146893 0.014471 0.00519684 0.00651377 0.00381416 0.00286625 0.000647837 0.0060671 0.00163167 0.00962229 0.00853824 0.00673657 0.0146829 0.00986709 0.0150657 0.0015093 0.0111018 0.00145433 0.00470879 0.00558971 0.009336 0.000678547 0.0125775 0.0063983 0.00860763 0.0026933 0.0150776 0.0131512 0.00261832 0.0150373 0.00403652 0.00875444 0.0105211 0.00230812 0.00389741 0.0150056 0.00991301 0.00495259 0.00889732 0.00479831 0.00595787 0.00790682 0.0108539 0.00786449 0.00234386 0.00978581 0.0139166 0.00813982 0.00540148 0.00126214 0.003391 0.0117454 0.000356092 0.0112117 0.000631316 0.00475467 0.00562422 0.0109719 0.00561789 0.00372473 0.0077025 0.0140453 0.00151107 0.00841355 0.0141196 0.00559748 0.00199345 0.00854774 0.0124605 0.0105383 0.00328644 0.0130014 0.0100685 0.00948864 0.010529 0.0146792 0.00737634 0.00690632 0.0112183 0.00694509 0.0143102 0.00377043 0.00226214 0.00457705 0.00917229 0.0132374 0.00167365 0.000676614 0.00864476 0.00910376 0.00197607 0.00208627 0.00770578 0.0133147 0.0148654 0.00323748 0.00935801 0.0089542 0.014055 0.000745556 2.20123e-05 0.00525158 0.014687 0.0116405 0.0073069 0.00799764 0.0144815 0.00634087 0.000755866 0.0100002 0.0104861 0.0127621 0.0150247 0.0134322 0.0118205 0.00266618 0.0153244 0.00255251 0.013883 0.0141904 0.00783554 0.00399395 0.00227173 0.00755563 0.00745581 0.00887885 0.0144029 0.0113394 0.00456603 0.013977 0.014566 0.0100214 0.00783029 0.00805801 0.00456962 0.0124184 0.00527887 0.00620694 0.00986166 0.00376549 0.00463311 0.00537431 0.0104131 0.0137251 0.000745397 0.0144793 0.00665646 0.0132566 0.0136454 0.0125241 0.0147257 0.00176157 0.00957105 0.000670044 0.0121652 0.0010368 0.00887662 0.00316469 0.0111554 0.00237591 0.00877657 0.000157821 0.000698763 0.00383261 0.0087651 0.00837618 0.007901 0.0108358 0.000697244 0.0130899 0.0100732 0.00440644 0.0148273 0.00652979 0.0146736 0.00722449 0.00598397 0.012395 0.00838864 0.00365626 0.0135737 0.0100885 0.00221432 0.00398822 0.00804944 0.0102287 0.0146775 0.0141336 0.00778566 0.000737771 0.0063896 0.014092 0.0146002 0.0107468 0.00109724 0.0103036 0.00307001 0.000634417 0.000698716 0.00433529 0.00134501 0.000702245 0.00449665 0.0143799 0.00342161 0.008504 0.0153522 0.00800166 0.0145029 0.00487297 0.0048997 0.00218579 0.00812747 0.00715035 0.000769806 0.00702446 0.000592025 0.00809272 0.00664632 0.0133342 0.00745532 0.0111079 0.00431103 0.00613432 0.00639621 0.00653245 0.006641 0.00175326 0.00633218 0.00548783 0.0128522 0.0113469 0.00728721 0.0143493 0.00228103 0.0135963 0.00496016 0.0118678 0.0100766 0.0134364 0.00676902 0.0056298 0.0121606 0.014713 0.00858599 0.00671082 0.0119932 0.00163593 0.0106163 0.0095053 0.00490294 0.0140514 0.0128572 0.0122819 0.000809626 0.00426577 0.00643769 0.00556477 0.0108947 0.0152253 0.00859248 0.00445763 0.0131904 0.00371952 0.00411445 0.0101008 0.0048294 0.0115718 0.0115182 0.0111059 0.00410497 0.000186369 0.00728391 0.00970351 0.00474462 0.00555372 0.0144382 0.00930046 0.00735831 0.000869541 0.00288104 0.00610016 0.0143861 0.00438686 0.00686665 0.00279751 0.00547574 0.000152017 0.0143876 0.00912092 0.00228755 0.00857478 0.00412198 0.013954 0.0113874 0.0113505 0.00441635 0.0088114 0.00886442 0.00242358 0.0144353 0.00300691 0.0123478 0.0116118 0.0136378 0.000556361 0.0126048 0.0147242 0.000342607 0.0027357 0.0141057 0.00986899 0.00943843 0.0033096 0.00236033 0.0118109 0.00238431 8.09231e-05 0.00903248 0.000357114 0.00920176 0.00879548 0.00973871 0.00877041 0.00936979 0.0136511 0.00528691 0.0144628 0.00245533 0.00645946 0.00673992 0.00415898 0.00761053 0.000988955 0.00175485 0.00198075 0.0044617 0.00315192 0.00806511 0.00368288 0.0107552 0.00758112 0.00400571 0.0128691 0.00625232 0.0110347 0.00909459 0.0140261 0.00886382 0.0134554 0.00746958 0.0144818 0.00200005 0.0142539 0.0144451 0.000811382 0.00190231 0.000918042 0.00210896 0.00484708 0.0118527 0.0120315 0.00622593 0.0145309 0.0105724 0.00904404 0.00690549 0.00422373 0.00723744 0.0106895 0.0137026 0.0131694 0.00233572 0.00397929 0.000396568 0.0124489 0.00153539 0.0058894 0.0100237 0.000797717 0.00189917 0.0123836 0.00775277 0.00969466 0.00515117 0.00940528 0.0077341 0.0130089 0.00252679 0.00351943 0.0104891 0.00135079 0.00315587 0.00902838 0.00440033 0.00622538 0.00695605 0.00474171 0.00240041 0.00193848 0.0110236 0.0138513 0.0119887 0.0020478 0.000484154 0.011956 0.00524596 0.00550364 0.00539707 0.0145278 0.0107073 0.00564752 0.00296965 0.0015815 0.00211661 0.00453302 0.000234118 0.00836158 0.000935694 0.000276647 0.0104819 0.01238 0.00528542 0.00733189 0.00316913 0.0108149 0.0102548 0.0152977 0.00987678 0.0109744 0.00941245 0.00182522 0.0109868 0.0114356 0.013604 0.0144541 0.0132981 0.00453473 0.00888389 0.000102955 0.0107083 0.0143707 0.00923907 0.0130476 0.0119916 0.000758336 0.0124053 0.00391401 0.0133132 0.00357377 0.00227491 0.00618999 0.0145874 0.00823451 0.0100959 0.0105531 0.00859956 0.0124344 0.0121709 0.0136932 0.012203 0.00294638 0.000896036 0.00795209 0.00849578 0.00672208 0.00747092 0.00298987 0.0122435 0.00846117 0.00976741 0.0131137 0.0012589 0.0127233 0.00577631 0.00917929 0.00727589 0.00828475 0.00814712 0.00689363 0.00575642 0.0144748 0.00208056 0.00683127 0.0107749 0.00278272 0.00562089 0.00837796 0.00135228 0.0128374 0.0072332 0.00987843 0.0116796 0.0094552 0.000547202 0.00937686 0.00256788 0.0124659 0.0144995 0.00213385 0.00963151 0.0062697 0.00949277 0.00401967 0.00920875 0.00139902 0.000253454 0.00694161 0.00920883 0.00321762 0.00655306 0.009835 0.0124099 0.00811595 0.0136194 0.00719592 0.00970224 0.0121248 0.0018376 0.0126539 0.00615247 0.0106137 0.0143181 0.0148254 0.00407053 0.0137143 0.000207393 0.0119507 0.0122776 0.011914 0.00939085 0.00337375 0.0115532 0.00884355 0.0085027 0.0112024 0.00897595 0.00508958 0.000384797 0.00812202 0.00167602 0.0141991 0.0128951 0.0131655 0.0078371 0.00422425 0.00342092 0.0050376 0.0134928 0.00977238 0.0135281 0.0152654 0.00901007 0.00467879 0.013729 0.0144694 0.0129624 0.00404799 0.01314 0.0107135 0.0149828 0.00832928 0.00151877 0.0110012 0.0111843 0.00702798 0.00290421 0.0141471 0.000856327 0.00739977 0.00790637 0.00373612 0.00197869 0.0136357 0.0128572 0.0110007 0.0102016 0.0123757 0.00224469 0.0107872 0.0011117 0.00107387 0.00288313 0.00317303 0.000484193 0.00719514 0.0093758 0.00506436 0.013356 0.00749263 0.0095413 0.00827077 0.00611542 0.00112194 0.00799462 0.00518629 0.00966056 0.00819069 0.00791281 0.00147439 0.00738381 0.00636073 0.00310831 0.000956723 0.0101952 0.00652312 0.0142791 0.00538406 0.00886235 0.0145223 0.0125674 0.0140202 0.000940691 0.00429522 0.00907273 0.0117717 0.00424022 7.08209e-05 0.00184701 0.0114699 0.0047914 0.00537081 0.00201211 0.00332461 0.000955486 0.00945325 0.00371811 0.00467875 0.00860633 0.0035426 0.0108194 0.013712 0.000177214 0.00110976 0.0111977 0.00351114 0.0125803 0.00350958 0.00447664 0.000860695 0.0140785 0.00148499 0.0144383 0.00765374 0.0117479 0.0117369 0.00804797 0.0136992 0.0144567 0.0113553 0.0088956 0.0103548 0.000608107 0.00485302 0.00871949 0.000717539 0.00222936 0.010531 0.00564961 0.00276824 0.0128419 0.00294505 0.000812793 0.00532489 0.0027274 0.00801273 0.0116485 0.00581091 0.0112185 0.0119941 0.00429433 0.00372922 0.0067755 0.0144196 0.00197495 0.00169172 0.0124695 0.0104004 0.0122722 0.0102104 0.0123625 0.0104977 0.0069538 0.0153657 0.000961087 0.00338696 0.0106218 0.0123903 0.00794971 0.0118904 0.00901193 0.00562976 0.0149135 0.00464384 0.00197985 0.0147262 0.000913379 0.00565954 0.0152915 0.0102548 0.00867568 0.0147488 0.0130276 0.0144117 0.0141102 0.00385105 0.00391241 0.00974572 0.00325401 0.00949221 4.3946e-06 0.00662878 0.00541076 0.00205572 0.014552 0.00320809 0.00802219 0.00580835 0.00181676 0.0116185 0.0129834 0.00941314 0.00322618 0.00279442 0.0150599 0.0101984 0.00341847 0.0092132 0.00984722 0.000788599 0.00665438 0.00281587 0.00858466 0.0124881 0.00261445 0.0144141 0.00139681 0.0127936 0.0104838 0.00236449 0.0106068 0.0144164 0.013628 0.00657823 0.00604303 0.0127349 0.0137726 0.0099051 0.00754114 0.000726696 0.00918317 5.44704e-06 0.00351769 0.00210963 0.00405975 0.0116965 0.000870637 0.000172101 0.0151488 0.0121246 0.000791541 0.0128573 0.000945587 0.00508158 0.00161784 0.0115467 0.00893184 0.00550811 0.00726342 0.0138259 0.0128659 0.00873261 0.0125736 0.00773273 0.00449174 0.00947011 0.00888714 0.0144737 0.00770291 0.00916449 0.00328085 0.000704382 0.0128889 0.0139551 0.0138446 0.000358494 0.00484459 0.0044512 0.0120634 0.013054 0.0029143 0.012158 0.00686304 0.00990811 0.00917515 0.011632 0.00744579 0.00443936 0.00956547 0.0114864 1.68976e-05 0.00549965 0.0133336 0.00861662 0.0130255 0.0110616 0.0107054 0.0109393 0.0117061 0.00822313 0.0144383 0.00878786 0.0135288 0.0023923 0.0106632 0.00600215 0.00795997 0.0021008 0.00300737 0.0132289 0.00728994 0.000886665 0.0143983 4.16897e-05 0.00993837 0.00159344 0.00765294 0.00813705 0.0123622 0.000252113 9.55946e-05 0.000988166 0.014231 0.0145067 0.0108638 0.0086151 0.00761119 0.00400059 0.0043655 0.00132045 0.00985945 0.00585321 0.00945247 0.0128251 0.00837267 0.00543371 0.0109384 0.0115174 0.0124608 0.00122077 0.00699838 0.011511 0.00745564 0.00953841 0.00740716 0.0107448 0.00350604 0.0026421 0.00545945 0.0113766 0.00699471 0.00997059 0.00457022 0.00521808 0.00363048 0.00691094 0.00100069 0.00484605 0.0106381 0.0141371 0.00268959 0.0131708 0.00921762 0.000905615 0.00638183 0.0114723 0.00549042 0.0108641 0.00407079 0.00703743 0.0109557 0.00254844 0.00938566 0.00648329 0.000270749 0.00294967 0.00956775 0.00815997 0.00552489 0.00232404 0.0120693 0.00895903 0.00242551 0.00458769 0.0023628 0.0084316 3.67201e-05 0.0026624 0.00752129 0.00641127 0.00950419 0.00743731 0.0135884 0.0121698 0.0145298 0.0138865 0.000838914 0.0018939 0.0111631 0.00116497 0.0045709 0.00720064 0.00473236 0.006107 0.0129612 0.0133429 0.000281846 0.0148294 0.013994 0.00131406 0.00490568 0.00704652 0.00135171 0.0135739 0.0122601 0.00358853 0.0153143 0.0144855 0.0129227 0.0060395 0.0129016 0.0126435 0.0112162 0.00217906 0.0134372 0.00959229 0.0145322 0.00509703 0.00594084 0.0125249 0.00326961 0.0135723 0.0131057 0.00693201 0.00157657 0.0110465 0.0132535 0.00425997 0.00594174 0.00141063 0.00431651 0.0144501 0.011409 0.00878822 0.0126594 0.00281183 0.00620945 0.000981801 0.00216867 0.0079918 0.00094116 0.0119368 0.0106424 0.00866723 0.000315523 0.00252498 0.014145 0.00632357 0.00455393 0.0125094 0.00893849 0.011602 0.00447723 0.0123659 0.0139089 0.00458079 0.00184676 0.00705112 0.00259006 0.00330738 0.00526057 0.0103617 0.0108258 0.0141082 0.0100376 0.0138209 0.001813 0.00355097 0.00850924 0.00171015 0.00367724 0.0119219 0.0127336 0.0031407 0.0076253 0.0118442 0.014333 0.00445083 0.0091869 0.00989112 0.00929169 0.00157045 0.00546177 0.00829817 0.0133861 0.00417363 0.00264601 0.00374624 0.00771585 0.0115377 0.0124815 0.0091071 0.00986001 0.0058142 0.00969845 0.00356453 0.0097538 0.00507178 0.00496977 0.0117703 0.00894412 0.000933119 0.0103741 0.00492578 0.00147794 0.013279 0.00760551 0.00248659 0.00150683 0.0103276 0.0140731 0.0111726 0.000931769 0.00351666 0.0106179 0.00838933 0.00416322 0.0101884 0.0141569 0.0101873 0.00560489 0.000964288 0.0060884 0.00418303 0.00432384 0.00653273 0.00989849 0.00664684 0.00971019 0.00806088 0.00254387 0.00166564 0.00288956 0.00276327 0.00732062 0.0134592 0.000890946 0.00666357 0.0133519 0.00510623 0.00607573 0.00344696 0.0061058 0.00242087 0.014422 0.010649 0.014985 0.0152605 0.00713385 0.00721139 0.00929621 0.00121466 0.00265784 0.00188163 0.0084328 0.00168017 0.00916966 0.010395 0.00536849 0.0129771 0.00754038 0.00274639 0.00878504 0.014486 0.0151234 0.0122909 0.00656322 0.0144216 0.0103622 0.0127054 0.0124602 0.0123175 0.00557562 0.0103239 0.00333838 0.00103588 0.00773119 0.00262932 0.00558849 0.0153153 0.011762 0.00230072 0.00160644 0.0108221 0.00306188 0.00158337 0.00792297 0.00477888 0.0111439 0.00659056 0.00240915 0.00940148 0.0029987 0.0125156 0.00977462 0.0146313 0.0145026 0.00355658 0.0052915 0.00838119 0.00144904 0.00891623 0.0030637 0.0137917 0.0145534 0.0139788 0.00795004 0.00395888 0.00779214 0.0101439 0.00116855 0.0144622 0.0151797 0.00380923 0.00616903 0.00569671 0.00416421 0.00244644 0.00219578 0.00920315 0.0084846 0.00524034 0.0146138 0.00652534 0.0100751 0.000953253 0.00273221 0.00104198 0.00501638 0.00356731 0.0142913 0.00429492 0.000845666 0.00744526 0.00680892 0.00753432 0.0120714 0.00433377 0.0108016 0.0103729 0.000502322 0.0124425 0.0137643 0.0118121 0.00396091 0.0111626 0.00982771 0.00145504 0.00348983 0.0137501 0.00827848 0.00830699 0.0153395 0.0110878 0.0147553 0.011936 0.0103554 0.0152275 0.00674113 0.00323557 0.00519266 0.0057472 0.00112057 0.00889915 0.0105544 0.0103827 0.00102851 0.0142924 0.00283863 0.00361415 0.0096591 0.0011747 0.00659317 0.00791887 0.00462736 0.00426652 0.00339785 0.00907624 0.00395039 0.00414175 0.0129698 0.00442029 0.00110454 0.00374096 0.0111543 0.00451615 0.0032168 0.00178195 0.00105212 0.0142068 0.00189486 0.0040135 0.00524059 0.0063342 0.0070789 0.0141061 0.0110594 0.0067007 0.0121413 0.00268823 0.0116887 0.00470952 0.00594301 0.0105089 0.00347532 0.0122041 0.000118693 0.0110307 0.00155715 0.00948266 0.0127442 0.00598739 0.00543957 0.00826888 0.00719416 0.013658 0.00988841 0.0127793 0.00216628 0.00545954 0.0119283 0.0135616 0.00727503 6.71044e-05 0.00784465 0.0117907 0.00363414 0.00335626 0.00354189 0.00624899 0.0153564 0.0123765 0.00272931 0.0141818 0.00593489 0.015314 0.00321517 0.0041542 0.00870162 0.00608125 0.00249101 0.00488262 0.00127621 0.00622528 0.0110929 0.0111959 0.00674745 0.00581061 0.00774643 0.00888537 0.000999922 0.010941 0.00766506 0.0145217 0.003246 0.0117452 0.0136444 0.00833144 0.00796406 0.0126905 0.0125192 0.0116509 0.00830447 0.0041529 0.0011454 0.0107548 0.00153932 0.00738435 0.00671242 0.0126925 0.00283251 0.00562975 0.00844931 0.00239322 0.0117758 0.00221322 0.00300223 0.0134011 0.0114463 0.00736109 0.000530926 0.0011517 0.00865478 0.00960463 0.0150277 0.00450741 0.0137572 0.00853907 0.00284369 0.00884252 0.0104411 0.00685552 0.00943698 0.0119622 0.00114544 0.012886 0.000449339 0.00708418 0.0123344 0.00524221 0.00118007 9.32338e-05 0.0141939 0.00905145 0.00100977 0.0060973 0.0132674 0.0142238 0.00127158 0.0104061 0.00275848 0.0130116 0.0018307 0.0133376 0.00875517 0.011039 0.00976876 0.0122904 0.0139651 0.0064751 0.00236292 0.00321008 0.0139167 0.0138776 0.0059747 6.98268e-05 0.00830105 0.0142048 0.00738485 0.0149289 0.00641985 0.00631309 0.0104336 0.00986055 0.000438551 0.00622823 0.00555057 0.0080945 0.00180874 0.00148089 0.014458 0.00614742 0.008072 0.0127861 0.00951696 0.00620365 0.00126415 0.0023969 0.00681879 0.0105176 0.0128407 0.00496564 0.00461531 0.010816 0.00654664 0.0131185 0.00582086 0.00369956 0.00464984 0.0128554 0.00552019 0.00590881 0.00343809 0.0107434 0.00510018 0.0135748 0.00118769 0.000575002 0.0151118 0.00503998 0.00644054 0.00611998 0.0030945 0.00977715 0.0097966 0.00382032 0.0120721 0.00032229 0.0141937 0.00773114 0.0084715 0.0101293 0.0126684 0.00275445 0.00796893 0.0126429 0.0150336 0.00289099 0.00013985 0.00894094 0.00655536 0.00287912 0.00722056 0.00891266 0.00834925 0.0127266 0.00627713 0.00528231 0.00816326 0.00658789 0.00407704 0.007589 0.0133247 0.0097018 0.00582547 0.00462714 0.00612746 0.0111889 0.00113542 0.00274916 0.00607663 0.00448663 0.00740041 0.00501941 0.0142546 0.00772903 0.00478735 0.00558748 0.0116171 0.000739655 0.00108667 0.0113649 0.0103853 0.0141892 0.0146829 0.00519847 0.0103494 0.0114508 0.00691104 0.00611402 0.00444131 0.0123869 0.00326339 0.000740161 0.00538415 0.00137568</DataArray>
</Points><Verts>
<DataArray type="Int64" Name="connectivity" format="ascii">0 1 2 3 4 5 6 7 8 9 10 11 12 13 14 15 16 17 18 19 20 21 22 23 24 25 26 27 28 29 30 31 32 33 34 35 36 37 38 39 40 41 42 43 44 45 46 47 48 49 50 51 52 53 54 55 56 57 58 59 60 61 62 63 64 65 66 67 68 69 70 71 72 73 74 75 76 77 78 79 80 81 82 83 84 85 86 87 88 89 90 91 92 93 94 95 96 97 98 99 100 101 102 103 104 105 106 107 108 109 110 111 112 113 114 115 116 117 118 119 120 121 122 123 124 125 126 127 128 129 130 131 132 133 134 135 136 137 138 139 140 141 142 143 144 145 146 147 148 149 150 151 152 153 154 155 156 157 158 159 160 161 162 163 164 165 166 167 168 169 170 171 172 173 174 175 176 177 178 179 180 181 182 183 184 185 186 187 188 189 190 191 192 193 194 195 196 197 198 199 200 201 202 203 204 205 206 207 208 209 210 211 212 213 214 215 216 217 218 219 220 221 222 223 224 225 226 227 228 229 230 231 232 233 234 235 236 237 238 239 240 241 242 243 244 245 246 247 248 249 250 251 252 253 254 255 256 257 258 259 260 261 262 263 264 265 266 267 268 269 270 271 272 273 274 275 276 277 278 279 280 281 282 283 284 285 286 287 288 289 290 291 292 293 294 295 296 297 298 299 300 301 302 303 304 305 306 307 308 309 310 311 312 313 314 315 316 317 318 319 320 321 322 323 324 325 326 327 328 329 330 331 332 333 334 335 336 337 338 339 340 341 342 343 344 345 346 347 348 349 350 351 352 353 354 355 356 357 358 359 360 361 362 363 364 365 366 367 368 369 370 371 372 373 374 375 376 377 378 379 380 381 382 383 384 385 386 387 388 389 390 391 392 393 394 395 396 397 398 399 400 401 402 403 404 405 406 407 408 409 410 411 412 413 414 415 416 417 418 419 420 421 422 423 424 425 426 427 428 429 430 431 432 433 434 435 436 437 438 439 440 441 442 443 444 445 446 447 448 449 450 451 452 453 454 455 456 457 458 459 460 461 462 463 464 465 466 467 468 469 470 471 472 473 474 475 476 477 478 479 480 481 482 483 484 485 486 487 488 489 490 491 492 493 494 495 496 497 498 499</DataArray>
<DataArray type="Int64" Name="offsets" format="ascii">1 2 3 4 5 6 7 8 9 10 11 12 13 14 15 16 17 18 19 20 21 22 23 24 25 26 27 28 29 30 31 32 33 34 35 36 37 38 39 40 41 42 43 44 45 46 47 48 49 50 51 52 53 54 55 56 57 58 59 60 61 62 63 64 65 66 67 68 69 70 71 72 73 74 75 76 77 78 79 80 81 82 83 84 85 86 87 88 89 90 91 92 93 94 95 96 97 98 99 100 101 102 103 104 105 106 107 108 109 110 111 112 113 114 115 116 117 118 119 120 121 122 123 124 125 126 127 128 129 130 131 132 133 134 135 136 137 138 139 140 141 142 143 144 145 146 147 148 149 150 151 152 153 154 155 156 157 158 159 160 161 162 163 164 165 166 167 168 169 170 171 172 173 174 175 176 177 178 179 180 181 182 183 184 185 186 187 188 189 190 191 192 193 194 195 196 197 198 199 200 201 202 203 204 205 206 207 208 209 210 211 212 213 214 215 216 217 218 219 220 221 222 223 224 225 226 227 228 229 230 231 232 233 234 235 236 237 238 239 240 241 242 243 244 245 246 247 248 249 250 251 252 253 254 255 256 257 258 259 260 261 262 263 264 265 266 267 268 269 270 271 272 273 274 275 276 277 278 279 280 281 282 283 284 285 286 287 288 289 290 291 292 293 294 295 296 297 298 299 300 301 302 303 304 305 306 307 308 309 310 311 312 313 314 315 316 317 318 319 320 321 322 323 324 325 326 327 328 329 330 331 332 333 334 335 336 337 338 339 340 341 342 343 344 345 346 347 348 349 350 351 352 353 354 355 356 357 358 359 360 361 362 363 364 365 366 367 368 369 370 371 372 373 374 375 376 377 378 379 380 381 382 383 384 385 386 387 388 389 390 391 392 393 394 395 396 397 398 399 400 401 402 403 404 405 406 407 408 409 410 411 412 413 414 415 416 417 418 419 420 421 422 423 424 425 426 427 428 429 430 431 432 433 434 435 436 437 438 439 440 441 442 443 444 445 446 447 448 449 450 451 452 453 454 455 456 457 458 459 460 461 462 463 464 465 466 467 468 469 470 471 472 473 474 475 476 477 478 479 480 481 482 483 484 485 486 487 488 489 490 491 492 493 494 495 496 497 498 499 500</DataArray>
</Verts></Piece></PolyData></VTKFile>