<?xml version="1.0"?>
<VTKFile type="PolyData" version="0.1" byte_order="LittleEndian">
<PolyData>
<Piece NumberOfPoints="500" NumberOfVerts="500" NumberOfLines="0" NumberOfStrips="0" NumberOfPolys="0">
<PointData>
<DataArray type="Int64" Name="id" format="ascii">1 2 3 4 5 6 7 8 9 10 11 12 13 14 15 16 17 18 19 20 21 22 23 24 25 26 27 28 29 30 31 32 33 34 35 36 37 38 39 40 41 42 43 44 45 46 47 48 49 50 51 52 53 54 55 56 57 58 59 60 61 62 63 64 65 66 67 68 69 70 71 72 73 74 75 76 77 78 79 80 81 82 83 84 85 86 87 88 89 90 91 92 93 94 95 96 97 98 99 100 101 102 103 104 105 106 107 108 109 110 111 112 113 114 115 116 117 118 119 120 121 122 123 124 125 126 127 128 129 130 131 132 133 134 135 136 137 138 139 140 141 142 143 144 145 146 147 148 149 150 151 152 153 154 155 156 157 158 159 160 161 162 163 164 165 166 167 168 169 170 171 172 173 174 175 176 177 178 179 180 181 182 183 184 185 186 187 188 189 190 191 192 193 194 195 196 197 198 199 200 201 202 203 204 205 206 207 208 209 210 211 212 213 214 215 216 217 218 219 220 221 222 223 224 225 226 227 228 229 230 231 232 233 234 235 236 237 238 239 240 241 242 243 244 245 246 247 248 249 250 251 252 253 254 255 256 257 258 259 260 261 262 263 264 265 266 267 268 269 270 271 272 273 274 275 276 277 278 279 280 281 282 283 284 285 286 287 288 289 290 291 292 293 294 295 296 297 298 299 300 301 302 303 304 305 306 307 308 309 310 311 312 313 314 315 316 317 318 319 320 321 322 323 324 325 326 327 328 329 330 331 332 333 334 335 336 337 338 339 340 341 342 343 344 345 346 347 348 349 350 351 352 353 354 355 356 357 358 359 360 361 362 363 364 365 366 367 368 369 370 371 372 373 374 375 376 377 378 379 380 381 382 383 384 385 386 387 388 389 390 391 392 393 394 395 396 397 398 399 400 401 402 403 404 405 406 407 408 409 410 411 412 413 414 415 416 417 418 419 420 421 422 423 424 425 426 427 428 429 430 431 432 433 434 435 436 437 438 439 440 441 442 443 444 445 446 447 448 449 450 451 452 453 454 455 456 457 458 459 460 461 462 463 464 465 466 467 468 469 470 471 472 473 474 475 476 477 478 479 480 481 482 483 484 485 486 487 488 489 490 491 492 493 494 495 496 497 498 499 500</DataArray>
<DataArray type="Int32" Name="type" format="ascii">1 1 1 1 1 1 1 1 1 1 1 1 1 1 1 1 1 1 1 1 1 1 1 1 1 1 1 1 1 1 1 1 1 1 1 1 1 1 1 1 1 1 1 1 1 1 1 1 1 1 1 1 1 1 1 1 1 1 1 1 1 1 1 1 1 1 1 1 1 1 1 1 1 1 1 1 1 1 1 1 1 1 1 1 1 1 1 1 1 1 1 1 1 1 1 1 1 1 1 1 2 2 2 2 2 2 2 2 2 2 2 2 2 2 2 2 2 2 2 2 2 2 2 2 2 2 2 2 2 2 2 2 2 2 2 2 2 2 2 2 2 2 2 2 2 2 2 2 2 2 2 2 2 2 2 2 2 2 2 2 2 2 2 2 2 2 2 2 2 2 2 2 2 2 2 2 2 2 2 2 2 2 2 2 2 2 2 2 2 2 2 2 2 2 2 2 2 2 2 2 2 2 2 2 2 2 2 2 2 2 2 2 2 2 2 2 2 2 2 2 2 2 2 2 2 2 2 2 2 2 2 2 2 2 2 2 2 2 2 2 2 2 2 2 2 2 2 2 2 2 2 2 2 2 2 2 2 2 2 2 2 2 2 2 2 2 2 2 2 2 2 2 2 2 2 2 2 2 2 2 2 2 2 2 2 2 2 2 2 2 2 2 2 2 2 2 2 2 2 2 2 2 2 2 2 2 2 2 2 2 2 2 2 2 2 2 2 2 2 2 2 2 2 2 2 2 2 2 2 2 2 2 2 2 2 2 2 2 2 2 2 2 2 2 2 2 2 2 2 2 2 2 2 2 2 2 2 2 2 2 2 2 2 2 2 2 2 2 2 2 2 2 2 2 2 2 2 2 2 2 2 2 2 2 2 2 2 2 2 2 2 2 2 2 2 2 2 2 2 2 3 3 3 3 3 3 3 3 3 3 3 3 3 3 3 3 3 3 3 3 3 3 3 3 3 3 3 3 3 3 3 3 3 3 3 3 3 3 3 3 3 3 3 3 3 3 3 3 3 3 3 3 3 3 3 3 3 3 3 3 3 3 3 3 3 3 3 3 3 3 3 3 3 3 3 3 3 3 3 3 3 3 3 3 3 3 3 3 3 3 3 3 3 3 3 3 3 3 3 3</DataArray>
<DataArray type="Float64" Name="radius" format="ascii">0.00075 0.00075 0.00075 0.00075 0.00075 0.00075 0.00075 0.00075 0.00075 0.00075 0.00075 0.00075 0.00075 0.00075 0.00075 0.00075 0.00075 0.00075 0.00075 0.00075 0.00075 0.00075 0.00075 0.00075 0.00075 0.00075 0.00075 0.00075 0.00075 0.00075 0.00075 0.00075 0.00075 0.00075 0.00075 0.00075 0.00075 0.00075 0.00075 0.00075 0.00075 0.00075 0.00075 0.00075 0.00075 0.00075 0.00075 0.00075 0.00075 0.00075 0.00075 0.00075 0.00075 0.00075 0.00075 0.00075 0.00075 0.00075 0.00075 0.00075 0.00075 0.00075 0.00075 0.00075 0.00075 0.00075 0.00075 0.00075 0.00075 0.00075 0.00075 0.00075 0.00075 0.00075 0.00075 0.00075 0.00075 0.00075 0.00075 0.00075 0.00075 0.00075 0.00075 0.00075 0.00075 0.00075 0.00075 0.00075 0.00075 0.00075 0.00075 0.00075 0.00075 0.00075 0.00075 0.00075 0.00075 0.00075 0.00075 0.00075 0.001 0.001 0.001 0.001 0.001 0.001 0.001 0.001 0.001 0.001 0.001 0.001 0.001 0.001 0.001 0.001 0.001 0.001 0.001 0.001 0.001 0.001 0.001 0.001 0.001 0.001 0.001 0.001 0.001 0.001 0.001 0.001 0.001 0.001 0.001 0.001 0.001 0.001 0.001 0.001 0.001 0.001 0.001 0.001 0.001 0.001 0.001 0.001 0.001 0.001 0.001 0.001 0.001 0.001 0.001 0.001 0.001 0.001 0.001 0.001 0.001 0.001 0.001 0.001 0.001 0.001 0.001 0.001 0.001 0.001 0.001 0.001 0.001 0.001 0.001 0.001 0.001 0.001 0.001 0.001 0.001 0.001 0.001 0.001 0.001 0.001 0.001 0.001 0.001 0.001 0.001 0.001 0.001 0.001 0.001 0.001 0.001 0.001 0.001 0.001 0.001 0.001 0.001 0.001 0.001 0.001 0.001 0.001 0.001 0.001 0.001 0.001 0.001 0.001 0.001 0.001 0.001 0.001 0.001 0.001 0.001 0.001 0.001 0.001 0.001 0.001 0.001 0.001 0.001 0.001 0.001 0.001 0.001 0.001 0.001 0.001 0.001 0.001 0.001 0.001 0.001 0.001 0.001 0.001 0.001 0.001 0.001 0.001 0.001 0.001 0.001 0.001 0.001 0.001 0.001 0.001 0.001 0.001 0.001 0.001 0.001 0.001 0.001 0.001 0.001 0.001 0.001 0.001 0.001 0.001 0.001 0.001 0.001 0.001 0.001 0.001 0.001 0.001 0.001 0.001 0.001 0.001 0.001 0.001 0.001 0.001 0.001 0.001 0.001 0.001 0.001 0.001 0.001 0.001 0.001 0.001 0.001 0.001 0.001 0.001 0.001 0.001 0.001 0.001 0.001 0.001 0.001 0.001 0.001 0.001 0.001 0.001 0.001 0.001 0.001 0.001 0.001 0.001 0.001 0.001 0.001 0.001 0.001 0.001 0.001 0.001 0.001 0.001 0.001 0.001 0.001 0.001 0.001 0.001 0.001 0.001 0.001 0.001 0.001 0.001 0.001 0.001 0.001 0.001 0.001 0.001 0.001 0.001 0.001 0.001 0.001 0.001 0.001 0.001 0.001 0.001 0.001 0.001 0.001 0.001 0.001 0.001 0.001 0.001 0.001 0.001 0.001 0.001 0.001 0.001 0.001 0.001 0.001 0.001 0.001 0.001 0.001 0.001 0.001 0.001 0.001 0.001 0.001 0.001 0.001 0.001 0.001 0.001 0.001 0.001 0.001 0.001 0.001 0.001 0.001 0.001 0.001 0.001 0.001 0.001 0.00125 0.00125 0.00125 0.00125 0.00125 0.00125 0.00125 0.00125 0.00125 0.00125 0.00125 0.00125 0.00125 0.00125 0.00125 0.00125 0.00125 0.00125 0.00125 0.00125 0.00125 0.00125 0.00125 0.00125 0.00125 0.00125 0.00125 0.00125 0.00125 0.00125 0.00125 0.00125 0.00125 0.00125 0.00125 0.00125 0.00125 0.00125 0.00125 0.00125 0.00125 0.00125 0.00125 0.00125 0.00125 0.00125 0.00125 0.00125 0.00125 0.00125 0.00125 0.00125 0.00125 0.00125 0.00125 0.00125 0.00125 0.00125 0.00125 0.00125 0.00125 0.00125 0.00125 0.00125 0.00125 0.00125 0.00125 0.00125 0.00125 0.00125 0.00125 0.00125 0.00125 0.00125 0.00125 0.00125 0.00125 0.00125 0.00125 0.00125 0.00125 0.00125 0.00125 0.00125 0.00125 0.00125 0.00125 0.00125 0.00125 0.00125 0.00125 0.00125 0.00125 0.00125 0.00125 0.00125 0.00125 0.00125 0.00125 0.00125</DataArray>
<DataArray type="Float64" Name="diameter" format="ascii">0.0015 0.0015 0.0015 0.0015 0.0015 0.0015 0.0015 0.0015 0.0015 0.0015 0.0015 0.0015 0.0015 0.0015 0.0015 0.0015 0.0015 0.0015 0.0015 0.0015 0.0015 0.0015 0.0015 0.0015 0.0015 0.0015 0.0015 0.0015 0.0015 0.0015 0.0015 0.0015 0.0015 0.0015 0.0015 0.0015 0.0015 0.0015 0.0015 0.0015 0.0015 0.0015 0.0015 0.0015 0.0015 0.0015 0.0015 0.0015 0.0015 0.0015 0.0015 0.0015 0.0015 0.0015 0.0015 0.0015 0.0015 0.0015 0.0015 0.0015 0.0015 0.0015 0.0015 0.0015 0.0015 0.0015 0.0015 0.0015 0.0015 0.0015 0.0015 0.0015 0.0015 0.0015 0.0015 0.0015 0.0015 0.0015 0.0015 0.0015 0.0015 0.0015 0.0015 0.0015 0.0015 0.0015 0.0015 0.0015 0.0015 0.0015 0.0015 0.0015 0.0015 0.0015 0.0015 0.0015 0.0015 0.0015 0.0015 0.0015 0.002 0.002 0.002 0.002 0.002 0.002 0.002 0.002 0.002 0.002 0.002 0.002 0.002 0.002 0.002 0.002 0.002 0.002 0.002 0.002 0.002 0.002 0.002 0.002 0.002 0.002 0.002 0.002 0.002 0.002 0.002 0.002 0.002 0.002 0.002 0.002 0.002 0.002 0.002 0.002 0.002 0.002 0.002 0.002 0.002 0.002 0.002 0.002 0.002 0.002 0.002 0.002 0.002 0.002 0.002 0.002 0.002 0.002 0.002 0.002 0.002 0.002 0.002 0.002 0.002 0.002 0.002 0.002 0.002 0.002 0.002 0.002 0.002 0.002 0.002 0.002 0.002 0.002 0.002 0.002 0.002 0.002 0.002 0.002 0.002 0.002 0.002 0.002 0.002 0.002 0.002 0.002 0.002 0.002 0.002 0.002 0.002 0.002 0.002 0.002 0.002 0.002 0.002 0.002 0.002 0.002 0.002 0.002 0.002 0.002 0.002 0.002 0.002 0.002 0.002 0.002 0.002 0.002 0.002 0.002 0.002 0.002 0.002 0.002 0.002 0.002 0.002 0.002 0.002 0.002 0.002 0.002 0.002 0.002 0.002 0.002 0.002 0.002 0.002 0.002 0.002 0.002 0.002 0.002 0.002 0.002 0.002 0.002 0.002 0.002 0.002 0.002 0.002 0.002 0.002 0.002 0.002 0.002 0.002 0.002 0.002 0.002 0.002 0.002 0.002 0.002 0.002 0.002 0.002 0.002 0.002 0.002 0.002 0.002 0.002 0.002 0.002 0.002 0.002 0.002 0.002 0.002 0.002 0.002 0.002 0.002 0.002 0.002 0.002 0.002 0.002 0.002 0.002 0.002 0.002 0.002 0.002 0.002 0.002 0.002 0.002 0.002 0.002 0.002 0.002 0.002 0.002 0.002 0.002 0.002 0.002 0.002 0.002 0.002 0.002 0.002 0.002 0.002 0.002 0.002 0.002 0.002 0.002 0.002 0.002 0.002 0.002 0.002 0.002 0.002 0.002 0.002 0.002 0.002 0.002 0.002 0.002 0.002 0.002 0.002 0.002 0.002 0.002 0.002 0.002 0.002 0.002 0.002 0.002 0.002 0.002 0.002 0.002 0.002 0.002 0.002 0.002 0.002 0.002 0.002 0.002 0.002 0.002 0.002 0.002 0.002 0.002 0.002 0.002 0.002 0.002 0.002 0.002 0.002 0.002 0.002 0.002 0.002 0.002 0.002 0.002 0.002 0.002 0.002 0.002 0.002 0.002 0.002 0.002 0.002 0.002 0.002 0.002 0.002 0.002 0.002 0.002 0.002 0.002 0.002 0.0025 0.0025 0.0025 0.0025 0.0025 0.0025 0.0025 0.0025 0.0025 0.0025 0.0025 0.0025 0.0025 0.0025 0.0025 0.0025 0.0025 0.0025 0.0025 0.0025 0.0025 0.0025 0.0025 0.0025 0.0025 0.0025 0.0025 0.0025 0.0025 0.0025 0.0025 0.0025 0.0025 0.0025 0.0025 0.0025 0.0025 0.0025 0.0025 0.0025 0.0025 0.0025 0.0025 0.0025 0.0025 0.0025 0.0025 0.0025 0.0025 0.0025 0.0025 0.0025 0.0025 0.0025 0.0025 0.0025 0.0025 0.0025 0.0025 0.0025 0.0025 0.0025 0.0025 0.0025 0.0025 0.0025 0.0025 0.0025 0.0025 0.0025 0.0025 0.0025 0.0025 0.0025 0.0025 0.0025 0.0025 0.0025 0.0025 0.0025 0.0025 0.0025 0.0025 0.0025 0.0025 0.0025 0.0025 0.0025 0.0025 0.0025 0.0025 0.0025 0.0025 0.0025 0.0025 0.0025 0.0025 0.0025 0.0025 0.0025</DataArray>
<DataArray type="Float64" Name="conductivity" format="ascii">1.0 1.0 1.0 1.0 1.0 1.0 1.0 1.0 1.0 1.0 1.0 1.0 1.0 1.0 1.0 1.0 1.0 1.0 1.0 1.0 1.0 1.0 1.0 1.0 1.0 1.0 1.0 1.0 1.0 1.0 1.0 1.0 1.0 1.0 1.0 1.0 1.0 1.0 1.0 1.0 1.0 1.0 1.0 1.0 1.0 1.0 1.0 1.0 1.0 1.0 1.0 1.0 1.0 1.0 1.0 1.0 1.0 1.0 1.0 1.0 1.0 1.0 1.0 1.0 1.0 1.0 1.0 1.0 1.0 1.0 1.0 1.0 1.0 1.0 1.0 1.0 1.0 1.0 1.0 1.0 1.0 1.0 1.0 1.0 1.0 1.0 1.0 1.0 1.0 1.0 1.0 1.0 1.0 1.0 1.0 1.0 1.0 1.0 1.0 1.0 1.0 1.0 1.0 1.0 1.0 1.0 1.0 1.0 1.0 1.0 1.0 1.0 1.0 1.0 1.0 1.0 1.0 1.0 1.0 1.0 1.0 1.0 1.0 1.0 1.0 1.0 1.0 1.0 1.0 1.0 1.0 1.0 1.0 1.0 1.0 1.0 1.0 1.0 1.0 1.0 1.0 1.0 1.0 1.0 1.0 1.0 1.0 1.0 1.0 1.0 1.0 1.0 1.0 1.0 1.0 1.0 1.0 1.0 1.0 1.0 1.0 1.0 1.0 1.0 1.0 1.0 1.0 1.0 1.0 1.0 1.0 1.0 1.0 1.0 1.0 1.0 1.0 1.0 1.0 1.0 1.0 1.0 1.0 1.0 1.0 1.0 1.0 1.0 1.0 1.0 1.0 1.0 1.0 1.0 1.0 1.0 1.0 1.0 1.0 1.0 1.0 1.0 1.0 1.0 1.0 1.0 1.0 1.0 1.0 1.0 1.0 1.0 1.0 1.0 1.0 1.0 1.0 1.0 1.0 1.0 1.0 1.0 1.0 1.0 1.0 1.0 1.0 1.0 1.0 1.0 1.0 1.0 1.0 1.0 1.0 1.0 1.0 1.0 1.0 1.0 1.0 1.0 1.0 1.0 1.0 1.0 1.0 1.0 1.0 1.0 1.0 1.0 1.0 1.0 1.0 1.0 1.0 1.0 1.0 1.0 1.0 1.0 1.0 1.0 1.0 1.0 1.0 1.0 1.0 1.0 1.0 1.0 1.0 1.0 1.0 1.0 1.0 1.0 1.0 1.0 1.0 1.0 1.0 1.0 1.0 1.0 1.0 1.0 1.0 1.0 1.0 1.0 1.0 1.0 1.0 1.0 1.0 1.0 1.0 1.0 1.0 1.0 1.0 1.0 1.0 1.0 1.0 1.0 1.0 1.0 1.0 1.0 1.0 1.0 1.0 1.0 1.0 1.0 1.0 1.0 1.0 1.0 1.0 1.0 1.0 1.0 1.0 1.0 1.0 1.0 1.0 1.0 1.0 1.0 1.0 1.0 1.0 1.0 1.0 1.0 1.0 1.0 1.0 1.0 1.0 1.0 1.0 1.0 1.0 1.0 1.0 1.0 1.0 1.0 1.0 1.0 1.0 1.0 1.0 1.0 1.0 1.0 1.0 1.0 1.0 1.0 1.0 1.0 1.0 1.0 1.0 1.0 1.0 1.0 1.0 1.0 1.0 1.0 1.0 1.0 1.0 1.0 1.0 1.0 1.0 1.0 1.0 1.0 1.0 1.0 1.0 1.0 1.0 1.0 1.0 1.0 1.0 1.0 1.0 1.0 1.0 1.0 1.0 1.0 1.0 1.0 1.0 1.0 1.0 1.0 1.0 1.0 1.0 1.0 1.0 1.0 1.0 1.0 1.0 1.0 1.0 1.0 1.0 1.0 1.0 1.0 1.0 1.0 1.0 1.0 1.0 1.0 1.0 1.0 1.0 1.0 1.0 1.0 1.0 1.0 1.0 1.0 1.0 1.0 1.0 1.0 1.0 1.0 1.0 1.0 1.0 1.0 1.0 1.0 1.0 1.0 1.0 1.0 1.0 1.0 1.0 1.0 1.0 1.0 1.0 1.0 1.0 1.0 1.0 1.0 1.0 1.0 1.0 1.0 1.0 1.0 1.0 1.0 1.0 1.0 1.0 1.0 1.0 1.0 1.0 1.0 1.0 1.0 1.0 1.0 1.0 1.0 1.0 1.0 1.0 1.0 1.0 1.0 1.0 1.0</DataArray>
<DataArray type="Float64" Name="temperature" format="ascii">300.87411957873576 300.3312783990683 300.6256148273487 300.93707745055326 300.6347702553682 300.3517092202109 300.3887590255174 300.0920957101923 300.29146646587697 300.57182231882837 300.37649372122814 300.0687506460988 300.5646724239258 300.6352626905163 300.5537675182634 300.6192517371088 300.300684894182 300.6225886376302 300.4162708382932 300.4749298642828 300.75442291584693 300.4694779987983 300.4970830226034 300.4386096335901 300.00595971595817 300.4783282843862 300.2283423925749 300.9486703928283 300.16714818120465 300.3990591347483 300.90207966044966 300.8373997006043 300.55472438512106 300.4233614646468 300.1933253787728 300.0709954866597 300.07123458851214 300.8227238383648 300.82373356063806 300.86622317129326 300.1543177467838 300.3315620539058 300.7230141675858 300.2169068073578 300.80462537039944 300.06097872524634 300.90565444164446 300.28914494661456 300.5067100284102 300.1958851286191 300.9224723253922 300.5052560874319 300.66533196505355 300.9025355768303 300.4316665198546 300.94186195403165 300.8227460669335 300.1877260714848 300.7976673883533 300.9381761779908 300.4764551401775 300.1919872939751 300.9338808573281 300.45121716191034 300.7023759053491 300.8944255449285 300.5737172988422 300.7873888331957 300.2786533962135 300.4431841635212 300.70894228316354 300.3060161526773 300.66311378620196 300.8828379698522 300.29194739105225 300.9417304178684 300.5354321263075 300.9383659028978 300.2372719611356 300.8516466904797 300.2644430066551 300.3152272534495 300.5220955625818 300.793683561531 300.8659810066888 300.6202477580243 300.86392883017186 300.09842893030947 300.10771643362864 300.858478645408 300.5735590369213 300.3797159836916 300.4430900822188 300.29565054619974 300.0757130370836 300.17385714881925 300.2324347782869 300.93920217883567 300.515017900822 300.1708050602028 300.92170451547 300.9292464571801 300.268177360762 300.9389087451419 300.6794483808793 300.33897077983926 300.3031999078803 300.8746213260616 300.88784268468805 300.9273333269576 300.9407433835495 300.181948629901 300.764396883494 300.5896882318343 300.0996515661576 300.9179591775783 300.31567695497984 300.6450535532748 300.9114108793862 300.66499286082876 300.76119359917095 300.1216344803349 300.35963089945284 300.07031825047835 300.681178824226 300.1657219478135 300.43086965338574 300.9280310407057 300.09736888967814 300.2179386133186 300.7248825268823 300.2103684215243 300.2334210002222 300.21110613045903 300.63724517177025 300.4719304036345 300.2309411703957 300.2469275854199 300.2208798223718 300.2372472983897 300.20414631154443 300.89055795537246 300.1900130145555 300.31665287986317 300.92891957090677 300.33803629600123 300.62023813556897 300.90059608792916 300.283374520084 300.1612938715032 300.4331050805423 300.6936051876904 300.4418650003864 300.8658327928736 300.4549543106553 300.46596118931427 300.30050418295605 300.622291152708 300.7897708454927 300.4222085214016 300.937289600213 300.3691031838384 300.3629625269779 300.0786211286526 300.5917233075978 300.2934624823956 300.1297653022289 300.7223164892587 300.088035709076 300.38499321188914 300.1009349716659 300.3801782202303 300.26881468392924 300.8434077177165 300.9279311235665 300.06892430921584 300.18800228387045 300.1143508993641 300.07403960354713 300.6497577397196 300.6522195112133 300.80094549614614 300.5730111337813 300.5024695933923 300.57352574356315 300.14101381432835 300.921097291179 300.5151260460154 300.4080432619038 300.20165958665956 300.2887741639637 300.3857138382959 300.53850425266387 300.5635957950615 300.4239862101245 300.17314556711676 300.5137921459557 300.8015459258527 300.9297798403972 300.92951464184404 300.2987057285013 300.2337112242324 300.67416510891576 300.43914563250075 300.867136617301 300.7932106376662 300.48985010658816 300.3290317055345 300.37055393007813 300.5901401636955 300.74656113830633 300.2813977100366 300.373211384791 300.7290642196806 300.9157133566087 300.3635134190854 300.4878382066554 300.3674095408282 300.27232331344504 300.2941082955019 300.4504799318889 300.17317748276537 300.9107322684954 300.39894629360884 300.55328058330105 300.70895872883216 300.47849763092063 300.8329270857829 300.42325053507756 300.54129360536894 300.8452350209795 300.3032329916225 300.56765630971717 300.3586942665769 300.26460310456605 300.2686761890808 300.21561891501784 300.24612621522124 300.220475223069 300.50175674934474 300.91577415430453 300.5908395451243 300.85150672818907 300.9258817183141 300.1588328392845 300.08130208279056 300.4660123264752 300.30088577339546 300.7309486193644 300.60839568645815 300.4951797259031 300.3729181038437 300.79151188018614 300.1726129754959 300.24134445563817 300.9267793205489 300.6638144879364 300.7854042614582 300.11597369715355 300.3697941760513 300.90541510936566 300.7254100096139 300.6442078765097 300.4146497131858 300.80666464884615 300.57396391105385 300.8082361559262 300.49498636949903 300.07362352278705 300.57424994567407 300.32884579823633 300.5767595087076 300.0947566929608 300.25340316065746 300.7645633177238 300.80756392072186 300.08188781877504 300.37961378867203 300.6277942389981 300.80840716913366 300.91901336916897 300.3424851480605 300.46198903746694 300.09834329586914 300.1111902137686 300.7592762802552 300.9160736694097 300.6841647511882 300.1781810536186 300.5760851535251 300.14850051050905 300.56736691892985 300.1800142489924 300.0849148431979 300.4174428311292 300.5267941627605 300.24690902731743 300.4235012432617 300.61259576657125 300.4462727132907 300.6425690440853 300.5994402807917 300.611431983088 300.39415867552333 300.9571814802175 300.27369156299324 300.4248711545617 300.2218583276709 300.399746001084 300.0781719687943 300.48815147036726 300.64564074417996 300.7204369728309 300.3399569700339 300.3194437668612 300.54122116222874 300.8574165454884 300.337181652268 300.2458685057452 300.0852234926943 300.82514843858326 300.7222115719864 300.1496921279572 300.45011361045783 300.1914799937706 300.8618944826338 300.46663029822247 300.3064275548987 300.70816237714865 300.5212126151224 300.3531405347167 300.56596371119923 300.93074101396303 300.1059289272586 300.83016293886226 300.67222871209947 300.08773472376726 300.4531890054228 300.3745678339117 300.59924259221816 300.4243537381044 300.5738817257656 300.7025630087961 300.8789820328297 300.44350772364237 300.54634619230166 300.2337436251143 300.4673785554196 300.41852287700834 300.2577935483149 300.5435808005472 300.892341803166 300.1151371397307 300.08869952424436 300.92551288816384 300.8711780614901 300.3917561930791 300.7887147619157 300.3347870055949 300.22649414784667 300.4756315003265 300.5276127901608 300.6939806241549 300.7520863575596 300.6096902718799 300.69323165819026 300.5869024347825 300.922637497941 300.5312644460311 300.0805222656489 300.84086313459306 300.57263135876536 300.2493436779492 300.6030650213205 300.7396430929304 300.75520349827406 300.29322437168724 300.77557178207206 300.23622201944744 300.2206678057894 300.9229405114992 300.09712442539785 300.1639297226279 300.42978609369953 300.27688097456274 300.5882347587268 300.358703248956 300.64591322262635 300.1851827294584 300.307604782525 300.1916212110158 300.3125658879205 300.7796216562017 300.6673906781053 300.19183716681493 300.39729329948494 300.21045616578067 300.77268050657375 300.9207917546249 300.2330897402548 300.9086048769357 300.2548643730962 300.55606689160373 300.5070228795718 300.53439153603244 300.6818201201285 300.73457352745453 300.6346029354471 300.77889272968036 300.7188883173229 300.80398327048346 300.1516697662362 300.8644971282999 300.3637206797557 300.13050973978335 300.0732499785705 300.27917592162436 300.89542225688655 300.34718024265 300.092343707759 300.7065395931319 300.231062545358 300.8531764082894 300.4631522006821 300.3788280932657 300.2302059172759 300.40963248906615 300.5742673258739 300.2055328005369 300.3449652608934 300.6323757305985 300.3492962576758 300.56383296979743 300.51002815263587 300.46174366005 300.5820233320514 300.67151815130626 300.72056399806496 300.9121461004069 300.51136119204347 300.2973973578428 300.34734119079786 300.34612412486024 300.34510229400746 300.4252317819797 300.2901647256002 300.10130352240236 300.3489041996353 300.83938912111256 300.1023076225277 300.1994228753596 300.5595045220974 300.1600450143153 300.07778021027156 300.1960441073206 300.41546173595054 300.5748851802108 300.2100300243609 300.81901077057637 300.8150201971384 300.59158736181166 300.7824364256501 300.8465633597857 300.2593397621708 300.81870256902215 300.3904938300593 300.6762151720657 300.80809317834746 300.56357256911065 300.2528606204037 300.27880758080806 300.8024077113175 300.7646542694029 300.0976326628056 300.6815206285577 300.8160607048794 300.61451026504494 300.77773662595223 300.10304893131104 300.70933054400683 300.0905629282655 300.3648191680783 300.469506829051 300.56146408633094 300.6681588470165 300.28851061340055 300.4904761529925 300.7792788532311 300.593109464529 300.6484758867897 300.58413838503964 300.92488792966475 300.8225075314926 300.6130613618048 300.8957292112742 300.3311048535488 300.7922591851946 300.50075795353473 300.65878330353763 300.6471989382976</DataArray>
<DataArray type="Float64" Name="g_hot" format="ascii">0.0 0.0 0.0 0.0003565837909944871 0.0 0.0 0.0 0.0 0.0 0.0 0.0 0.0 0.0 0.0 0.0 0.0 0.0 0.0 0.0 0.0 0.0 0.0 0.0 0.0 0.0 0.0 0.0 0.0006650714247357196 0.0 0.0 0.0 0.0 0.0 0.0 0.0 0.0 0.0 0.0 0.0 0.0 0.0 0.0 0.0 0.0 0.0 0.0 0.0003261733158252079 0.0 0.0 0.0 0.0005799215464181341 0.0 0.0 0.0005492922719281603 0.0 0.0006004798081534465 0.0 0.0 0.0 0.00043608485412818446 0.0 0.0 0.0008026892300261665 0.0 0.0 0.0 0.0 0.0 0.0 0.0 0.0 0.0 0.0 0.0 0.0 0.0003939047838415727 0.0 0.00024357955579235304 0.0 0.0 0.0 0.0 0.0 0.0 0.0 0.0 0.0003017747504348237 0.0 0.0 0.0 0.0 0.0 0.0 0.0 0.0 0.0 0.0 0.0005840556480336441 0.0 0.0 0.000492048778069817 0.0005531943600580181 0.0 0.0003741122826104486 0.0 0.0 0.0 0.0002552018808708122 0.0 0.000680743710951486 0.0009767582540309095 0.0 0.0 0.0 0.0 0.0007158603215711848 0.0 0.0 0.0005278257288158658 0.0 0.0 0.0 0.0 0.0 0.0 0.0 0.0 0.000720874468961136 0.0 0.0 0.0 0.0 0.0 0.0 0.0 0.0 0.0 0.0 0.0 0.0 0.0 0.00043280018484284394 0.0 0.0 0.00045497692249168005 0.0 0.0 0.00011926469646772715 0.0 0.0 0.0 0.0 0.0 0.0 0.0 0.0 0.0 0.0 0.0 0.0 0.0004814644327465945 0.0 0.0 0.0 0.0 0.0 0.0 0.0 0.0 0.0 0.0 0.0 0.0 0.0 0.00029167104758614674 0.0 0.0 0.0 0.0 0.0 0.0 0.0 0.0 0.0 0.0 0.0 0.00035230100766248183 0.0 0.0 0.0 0.0 0.0 0.0 0.0 0.0 0.0 0.0 0.0 0.0006866673139155525 0.00025901351316099297 0.0 0.0 0.0 0.0 0.0 0.0 0.0 0.0 0.0 0.0 0.0 0.0 0.0 0.0 0.0006367825374490101 0.0 0.0 0.0 0.0 0.0 0.0 0.0 0.0005714367856552465 0.0 0.0 0.0 0.0 0.0 0.0 0.0 0.0 0.0 0.0 0.0 0.0 0.0 0.0 0.0 0.0 0.0 0.0006614801584325867 0.0 0.0 0.00045596052460711994 0.0 0.0 0.0 0.0 0.0 0.0 0.0 0.0 0.0 0.0 0.0 0.0006793791283223235 0.0 0.0 0.0 0.0 0.0007715957490810846 0.0 0.0 0.0 0.0 0.0 0.0 0.0 0.0 0.0 0.0 0.0 0.0 0.0 0.0 0.0 0.0 0.0 0.0 0.0 0.0006635450248475986 0.0 0.0 0.0 0.0 0.0 0.0005101999607996852 0.0 0.0 0.0 0.0 0.0 0.0 0.0 0.0 0.0 0.0 0.0 0.0 0.0 0.0 0.0 0.0 0.0 0.0034212108478883442 0.0 0.0 0.0 0.0 0.0 0.0 0.0 0.0 0.0 0.0 0.0 0.00010069517550877999 0.0 0.0 0.0 0.0 0.0 0.0 0.0 0.0 0.0 0.0 0.0 0.0 0.0 0.0 0.0 0.0006577811186101346 0.0 0.0 0.0 0.0 0.0 0.0 0.0 0.0 0.0 0.0 0.00011135463548390938 0.0 0.0 0.0 0.0 0.0 0.0 0.0 0.0 0.0 0.0 0.00041815786492663287 0.0 0.0 0.0 0.0 0.0 0.0 0.0 0.0 0.0 0.0 0.0 0.0 0.00037459311259018126 0.0 0.0 0.0 0.0 0.0 0.0 0.0 0.0 0.0 0.0 0.0 0.0 0.0007718082663459884 0.0 0.0 0.0 0.0 0.0 0.0 0.0 0.0 0.0 0.0 0.0 0.0 0.0 0.0 0.0 0.0 0.0 0.0006833330081300039 0.0 0.0008587782018658836 0.0 0.0 0.0 0.0 0.0 0.0 0.0 0.0 0.0 0.0 0.0 0.00013353617740212965 0.0 0.0 0.0 0.0 0.00060613529842767 0.0 0.0 0.0 0.0 0.0 0.0 0.0 0.0 0.0 0.0 0.0 0.0 0.0 0.0 0.0 0.0 0.0 0.0 0.0 0.0 0.0008819013550278737 0.0 0.0 0.0 0.0 0.0 0.0 0.0 0.0 0.0 0.0 0.0 0.0 0.0 0.0 0.0 0.0 0.0 0.0 0.0 0.0 0.0 0.0 0.0 0.0 0.0 0.0 0.0 0.0 0.0 0.0 0.0 0.0 0.0 0.0 0.0 0.0 0.0 0.0 0.0 0.0 0.0 0.0 0.0 0.0 0.0 0.0 0.0 0.0 0.0 0.0 0.0 0.0 0.0006478538149852044 0.0 0.0 0.0008205485969764374 0.0 0.0 0.0 0.0 0.0</DataArray>
<DataArray type="Float64" Name="g_cold" format="ascii">0.0 0.0 0.0 0.0 0.0 0.0 0.0 0.0003339108242499867 0.0 0.0 0.0 0.00042696187013749435 0.0 0.0 0.0 0.0 0.0 0.0 0.0 0.0 0.0 0.0 0.0 0.0 0.012044323418695912 0.0 0.0 0.0 0.0 0.0 0.0 0.0 0.0 0.0 0.0 0.0005651516951680356 0.00044519258591232833 0.0 0.0 0.0 0.0 0.0 0.0 0.0 0.0 0.0005571323348642633 0.0 0.0 0.0 0.0 0.0 0.0 0.0 0.0 0.0 0.0 0.0 0.0 0.0 0.0 0.0 0.0 0.0 0.0 0.0 0.0 0.0 0.0 0.0 0.0 0.0 0.0 0.0 0.0 0.0 0.0 0.0 0.0 0.0 0.0 0.0 0.0 0.0 0.0 0.0 0.0 0.0 0.0004678636965520007 0.0003379296355031696 0.0 0.0 0.0 0.0 0.0 0.0006217687983095532 0.0 0.0 0.0 0.0 0.0 0.0 0.0 0.0 0.0 0.0 0.0 0.0 0.0 0.0 0.0 0.0 0.0 0.0 0.0 0.0004913877471695895 0.0 0.0 0.0 0.0 0.0 0.0 0.0001241196007932258 0.0 0.0002680707333305867 0.0 0.0 0.0 0.0 0.00020362199799726615 0.0 0.0 0.0 0.0 0.0 0.0 0.0 0.0 0.0 0.0 0.0 0.0 0.0 0.0 0.0 0.0 0.0 0.0 0.0 0.0 0.0 0.0 0.0 0.0 0.0 0.0 0.0 0.0 0.0 0.0 0.0 0.0 0.0 0.0 0.0007604353477241853 0.0 0.0 0.0002790374850596323 0.0 0.00026657441375421475 0.0 0.0007938903690487744 0.0 0.0 0.0 0.0 0.0008113334197901621 0.0 0.00046115281422583654 0.0008889667699461024 0.0 0.0 0.0 0.0 0.0 0.0 0.0 0.0 0.0 0.0 0.0 0.0 0.0 0.0 0.0 0.0 0.0 0.0 0.0 0.0 0.0 0.0 0.0 0.0 0.0 0.0 0.0 0.0 0.0 0.0 0.0 0.0 0.0 0.0 0.0 0.0 0.0 0.0 0.0 0.0 0.0 0.0 0.0 0.0 0.0 0.0 0.0 0.0 0.0 0.0 0.0 0.0 0.0 0.0 0.0 0.0 0.0 0.0 0.0 0.0 0.0 0.0 0.0 0.0 0.0 0.0 0.0009721429514574505 0.0 0.0 0.0 0.0 0.0 0.0 0.0 0.0 0.0 0.0 0.0 0.0 0.00010966357152698315 0.0 0.0 0.0 0.0 0.0 0.0 0.0 0.0 0.0 0.0006598953841847995 0.0 0.0 0.0 0.0005863974062599585 0.0 0.0 0.0 0.0005293976936750007 0.0 0.0 0.0 0.0 0.0 0.0 0.00044481672413298454 0.0002446669533639564 0.0 0.0 0.0 0.0 0.0 0.0003553335307403574 0.0 0.0 0.0004357314747277336 0.0 0.0 0.0 0.0 0.0 0.0 0.0 0.0 0.0 0.0 0.0 0.0 0.0 0.0 0.0 0.000816738586126799 0.0 0.0 0.0 0.0 0.0 0.0 0.0 0.0 0.0 0.0006451836312774892 0.0 0.0 0.0 0.0 0.0 0.0 0.0 0.0 0.0 0.0 0.0 0.0 0.0 0.00034389230591625705 0.0 0.0 0.0005988838936458404 0.0 0.0 0.0 0.0 0.0 0.0 0.0 0.0 0.0 0.0 0.0 0.0 0.0 0.0 0.0 0.00033505509706376415 0.0007001870593408578 0.0 0.0 0.0 0.0 0.0 0.0 0.0 0.0 0.0 0.0 0.0 0.0 0.0 0.0 0.0 0.000666829751937033 0.0 0.0 0.0 0.0 0.0 0.0 0.0 0.0 0.0 0.0 0.0 0.0002909672113287093 8.479012873383013e-05 0.0 0.0 0.0 0.0 0.0 0.0 0.0 0.0 0.0 0.0 0.0 0.0 0.0 0.0 0.0 0.0 0.0 0.0 0.0 0.0 0.0 0.0 0.0 0.0 0.0 0.0 0.0 0.0 0.00011968514920140931 0.0 0.0 0.0002787104660531736 0.001105759705627574 0.0 0.0 0.0 0.0008589687989592526 0.0 0.0 0.0 0.0 0.0 0.0 0.0 0.0 0.0 0.0 0.0 0.0 0.0 0.0 0.0 0.0 0.0 0.0 0.0 0.0 0.0 0.0 0.0 0.0 0.0 0.0 0.0007929863791929202 0.0 0.0 0.0003063125815005 0.0 0.0 0.0 0.0007247947278957713 0.0 0.0 0.0 0.0 0.0 0.0 0.0 0.0 0.0 0.0 0.0 0.0 0.0 0.0 0.0 0.0 0.0 0.0 0.0 0.000786019972765007 0.0 0.0 0.0 0.0 0.000390931448703602 0.0 0.0008844927346143081 0.0 0.0 0.0 0.0 0.0 0.0 0.0 0.0 0.0 0.0 0.0 0.0 0.0 0.0 0.0 0.0 0.0 0.0 0.0</DataArray>
</PointData><Points>
<DataArray type="Float64" Name="Points" format="ascii" NumberOfComponents="3">0.0151327 0.00115563 0.0017419 0.0143213 0.013037 0.0102118 0.00944696 0.00479737 0.00514464 0.0109111 0.00425955 0.000707616 0.00670849 0.000866951 0.0051779 0.0148072 0.0143992 0.00983163 0.0010147 0.000831218 0.00941065 0.00451682 0.000645025 0.0146578 0.0147206 0.0139046 0.0127193 0.00355315 0.0144407 0.00649175 0.00900278 0.0131608 0.00991587 0.00433361 0.00239023 0.0146814 0.0106765 0.0141214 0.00590043 0.00881584 0.0110499 0.00511223 0.00440735 0.00171469 0.00676586 0.00732712 0.00481976 0.00574086 0.0129534 0.00863682 0.0112829 0.014561 0.00517853 0.00553652 0.00489308 0.00282388 0.00927113 0.00520413 0.0128654 0.00795112 0.0131483 0.0128473 0.00355844 0.0101335 0.00352324 0.00755119 0.00344209 0.0149641 0.00780268 0.0065052 0.0126342 0.00859981 0.0151499 0.0117645 0.0146206 0.00331565 0.0101723 0.00853776 0.00614201 0.00943366 0.0120799 0.00809682 0.0118118 0.00060256 0.00901365 0.00584643 0.0138838 0.00360533 0.00803064 0.00957249 0.00154186 0.012482 0.00257877 0.00803572 0.00260863 0.00192811 0.0117285 0.0120384 0.00640567 0.00589282 0.0104346 0.00926257 0.0014993 0.0125015 0.0126506 0.00455226 0.00648969 0.0147271 0.00519157 0.00363314 0.0146867 0.00935738 0.00719085 0.0025238 0.00904302 0.0137127 0.00310217 0.0135203 0.00288739 0.00207765 0.000439146 0.0110944 0.0134521 0.00988317 0.0135683 0.0110293 0.0141238 0.00807977 0.00377993 0.00200279 0.00132408 0.0126816 0.0102279 0.0128672 0.00336011 0.00295233 0.0096089 0.0147241 0.00518597 0.00873135 0.000823127 0.00133145 0.00697416 0.0113659 0.00446207 0.000609924 0.00765116 0.00831433 0.000220829 0.0128202 0.00464623 0.00358161 0.000637897 0.00751657 0.0133117 0.00783416 0.00837038 0.00561283 0.0045936 0.0131996 0.00924544 0.000649426 0.000778654 0.00867041 0.00876685 0.0111335 0.00654266 0.000629808 0.0117349 0.0129254 0.00322802 0.00100069 0.00971544 0.0128179 0.00213613 0.00532787 0.00279534 0.0120355 0.013347 0.00068661 0.0110029 0.00961298 0.00729321 0.0060172 0.0129855 0.0130881 0.00992413 0.0133021 0.00053523 0.00293915 0.00172612 0.00892091 0.0141194 0.00470703 0.00433182 0.00121268 0.0113235 0.00138436 0.00688462 0.00627852 0.00651933 0.014513 0.00303612 0.00319182 0.00707004 0.0133918 0.0112428 0.0100237 0.00090997 0.00807165 0.00294313 0.00540802 0.00424802 0.00202257 0.0139033 0.0111178 0.00319117 0.000773919 0.00404224 0.00411156 0.0111401 0.00131896 0.00365903 0.00848651 0.0109622 0.0139297 0.00441449 0.000810209 0.0132174 0.0116445 0.00633496 0.0152694 0.0114629 0.000730223 2.10957e-05 0.0124219 0.0128926 0.00812884 0.00672759 0.00191333 0.0139239 0.0132632 0.0116239 0.0143449 0.00874883 0.0113934 0.00970284 0.0148041 0.0072549 0.0141921 0.0016198 0.00281419 0.0124835 0.0087772 0.00175103 0.00855338 0.00550281 0.00613339 0.00574114 0.00670103 0.000719644 0.00946706 0.00689528 0.0146936 0.0108709 0.0145836 0.0146587 0.0119734 0.000960034 0.00193928 0.000840014 0.000597723 0.00628912 0.0127506 0.0149793 0.00864884 0.00327322 0.000392376 0.00893675 0.01105 0.00419438 0.0114617 0.000918659 0.00812926 0.0147495 0.000769681 0.0133036 0.0139116 0.00339048 0.0115744 0.0120943 0.00954842 0.00167467 0.000636293 0.00747248 0.00193563 0.00762142 0.00501008 0.00690803 0.0134989 0.00968778 0.0110666 0.000939472 0.012526 0.00349482 0.000923494 0.0110664 0.00219539 0.0112643 0.000355866 0.00506505 0.00096501 0.00815764 0.00155739 0.00468163 0.00379715 0.00221146 0.0103515 0.00562145 0.0141155 0.0106443 0.0047149 0.001044 0.000983718 0.0144644 0.0100909 0.00140118 0.00650561 0.0124136 0.000884147 0.00785746 0.0103366 0.00103145 0.0120908 0.00355286 0.0127108 0.0137511 0.0112117 0.00349255 0.00508388 0.0139401 0.00632774 0.00638442 0.00655959 0.014431 0.0032663 0.00252057 0.000871886 0.00706742 0.00700147 0.0108788 0.00470819 0.0124864 0.00514439 0.00538559 0.0145562 0.00093035 0.000887498 0.00319027 0.00397745 0.00456288 0.00532131 0.0036275 0.0112451 0.00258122 0.0141094 0.000890145 0.00223572 0.0102524 0.0145371 0.0134171 0.0143886 0.0138481 0.00660686 0.00474022 0.00623783 0.0100748 0.0135859 0.000544785 0.0137134 0.00885746 0.000154724 0.0073296 0.000870085 0.014849 0.00153167 0.014381 0.00435341 0.00823317 0.0126542 0.00985779 0.00815529 0.00388315 0.0100439 0.00330211 0.0124968 0.0065924 0.00527887 0.0125227 0.0138307 0.0113549 0.0128799 0.00964616 0.00644989 0.00520181 0.00827685 0.0147628 0.00814513 0.00983731 0.00711561 0.0129465 0.00450206 0.00480361 0.0119904 0.00846184 0.00490389 0.0126128 0.0134074 0.0094787 0.0127003 0.0120181 0.00811492 0.0125764 0.00772678 0.00808528 0.000953171 0.00608817 0.00820031 0.0133661 0.0012251 0.0115874 0.0109257 0.0109118 0.00251323 0.000948249 0.00088105 0.0150072 0.0105034 0.00358557 0.00806951 0.00525681 0.0109869 0.0080267 0.00127195 0.0124435 0.0146398 0.0116824 0.00854676 0.00257448 0.0136897 0.00672295 0.000346097 0.0087875 0.00717064 0.00382324 0.00437199 0.00606834 0.00901907 0.00820549 0.00893611 0.0127031 0.00164658 0.012581 0.00928693 0.00778731 0.00999947 0.0108406 0.00787277 0.00885009 0.00379943 0.0110525 0.00402451 0.00421498 0.0051619 0.00763007 0.0127637 0.00294432 0.0022856 0.0145082 0.00925216 0.00179259 0.00373121 0.000942048 0.0145569 0.01125 0.00958401 0.0104494 0.0041918 0.00970165 0.0125467 0.000691416 0.0145152 0.00509822 0.0110078 0.00640293 0.0109612 0.0108004 0.01098 0.00688329 0.00340692 0.0143901 0.0120602 0.0118554 0.00443186 0.000538242 0.0152463 0.0143884 1.52415e-05 0.00574302 0.00951558 0.00440958 0.0143626 0.0145282 0.0106653 0.000433149 0.0097738 0.010716 0.000232972 0.0115652 0.00604833 0.00253204 0.00140224 0.000257004 0.0148446 0.000978732 0.0106435 0.00802451 0.0145352 0.00441845 0.0127797 0.0136226 0.0013163 0.00973301 0.0144238 0.00779511 0.0100188 0.0145682 0.00700269 0.00639403 0.00492724 0.00832408 0.00779038 0.00508726 0.0113626 0.00895506 0.00296166 0.000595232 0.00442376 0.00558026 0.00577495 0.00516388 0.00766243 0.00199147 0.00806141 0.0063271 0.00211998 0.0109038 0.0130038 0.0141259 0.00608338 0.000968971 0.00250635 0.00565612 0.0063415 0.00888094 0.000740739 0.0093095 0.00999621 0.0109642 0.0126444 0.00864237 0.0106469 0.0113334 0.000969465 0.00402503 0.00960789 0.0127233 0.00079723 0.00738357 0.0146976 0.0107951 0.00618344 0.0138771 0.00294134 0.00892731 0.000773612 0.00264311 0.0131646 0.00194235 0.00933517 0.00774063 0.0028642 0.00860811 0.00289342 0.0142049 0.0134024 0.000882122 0.00271385 0.0120951 0.000983228 0.000449221 0.0133317 0.0111781 0.00512241 0.0142025 0.0125249 0.0090967 0.0152193 0.0051464 0.0143573 0.0127819 0.00851817 0.0136468 0.0117768 0.00161815 0.0140915 0.00668328 0.00283329 0.00140268 0.00676794 0.00759816 0.0148179 0.00401886 0.0106743 0.0128927 0.0122358 0.00968693 0.0106344 0.00516889 0.00633136 0.0132691 0.00322139 0.00440678 0.00537116 0.00290926 0.0111914 0.0135756 0.00512942 0.00967011 0.00886412 0.00308307 0.00375224 0.00952206 0.00691311 0.000898627 0.000394765 0.00965594 0.0100309 0.0007164 0.000291917 0.00791993 0.00524774 0.0125483 0.00962598 0.0138968 0.00243653 0.0114075 0.0129113 0.0106478 0.0110132 0.0118976 0.0110956 0.00824709 0.00982367 0.0150127 0.0133574 0.00591345 0.0104097 0.000918365 0.00490533 0.00069221 0.00926079 0.0123963 0.00678884 0.00680525 0.00365581 0.0111931 0.00410831 0.0111058 0.015098 0.00812776 0.00737449 0.00408512 0.00181528 0.0018468 0.00559321 0.0090898 0.00106997 0.00493477 0.00746085 0.00702218 0.00933933 0.00230049 0.0142658 0.0148428 0.0112978 0.00841092 0.00959626 0.0058444 0.0125201 0.000435398 0.0101814 0.00509977 0.0104938 0.0114683 0.0147244 0.0118431 0.011367 0.00512251 0.00157736 0.0126485 0.00251217 0.00823778 0.0121972 0.000977121 0.0145399 0.0126192 8.10685e-05 0.00346276 0.00800281 0.0111815 0.00982975 0.000890611 0.01394 0.0142913 0.00637056 0.00707059 0.0141062 0.00170009 0.0126739 0.00729969 0.000948025 0.00599052 0.0152894 0.0138492 0.00999666 0.00133732 0.0146069 0.00470948 0.0111967 0.008307 0.00534896 0.0085551 0.0110848 0.00892562 0.0125508 0.00432971 0.00356341 0.00181973 0.00533926 0.00651834 0.00687967 0.00795518 0.00695671 0.00474392 0.00905735 0.00801103 0.00791742 0.00315793 0.00538342 0.0034238 0.0130372 0.0048199 0.0124239 0.0116554 0.0123629 0.00535672 0.000884611 0.0123128 0.0136301 0.00500719 0.0132691 0.0093747 0.00311564 0.00924009 0.00904139 0.0140747 0.00240283 0.000843443 0.0102687 0.00719036 0.00578893 0.00085116 0.00873277 0.00988291 0.00393572 0.0105733 0.0125735 0.00526755 0.00210729 0.00779943 0.00900949 0.010898 0.0143746 0.00316433 0.000150276 0.00624099 0.00629367 0.0102484 0.00405377 0.00280051 0.0127241 0.0126985 0.00758516 0.0131443 0.012018 0.0144795 0.00921945 0.0119421 0.00641884 0.00757315 0.0141395 0.00982918 0.00857401 0.0138082 0.00644255 0.00581911 0.00172426 0.0144566 0.00878013 0.0126694 0.0120224 0.0151819 0.00983466 0.00397306 0.0121463 0.00672581 0.0027741 0.00930259 0.0112453 0.0144407 0.00785891 0.00232456 0.00962299 0.0127724 0.00169191 0.00554587 0.0144691 0.0152824 0.00250948 0.00458878 0.0127323 0.000889927 0.00357887 0.0134538 0.0101713 0.0112303 0.00798569 0.00783697 0.0082099 0.000870013 0.0144201 0.0143522 0.0101641 0.0143856 0.00714818 0.00220529 0.00322679 0.00915807 0.00328766 0.000934924 0.00413295 0.0147811 0.00445143 0.00521796 0.00515041 0.0138533 0.0145644 0.000729407 0.00675731 0.0149452 0.00631236 0.0144022 0.000518752 0.00218991 0.00672875 0.00239349 0.0136902 0.0136603 0.00258171 0.00802324 0.0144181 0.0103888 0.0118671 0.00947094 0.00383011 0.00460069 0.00716519 0.00337851 0.0136074 0.012037 0.0111879 0.00951807 0.00905958 0.00756921 0.0122723 0.00560177 0.00247022 0.003927 0.0083815 0.00143209 0.00602887 0.00484575 0.00492007 0.000441801 0.00580023 0.00161236 0.00169672 0.00526334 0.00973482 0.00826854 0.00897179 0.000941687 0.0129901 0.00100755 0.00547909 0.00680481 0.011901 0.0126317 0.00700878 0.00871286 0.00781705 0.00683899 0.0126454 0.00872367 0.00391884 0.00886091 0.00140595 0.0016411 0.0145374 0.00386171 0.00270794 0.00802837 0.00501401 0.00925255 0.00568857 0.0124689 0.00812599 0.00436228 0.0119348 0.00572724 0.0104921 0.00697578 0.00371731 0.0106163 0.0066188 0.0145815 0.00723761 0.00562226 0.00477273 0.00132247 0.00596783 0.00536559 0.010693 0.00729414 0.00333063 0.0124551 0.00184032 0.0120793 0.0144747 0.00236701 0.0149398 0.00212329 0.00269748 0.00373721 0.00383797 0.0144285 0.00342394 0.0130015 0.014394 0.0147198 0.00818975 0.0136472 0.006821 0.0130219 0.0108772 0.0129161 0.00181871 0.013759 0.0108389 0.00784852 0.002086 0.00987322 0.0108939 0.0106617 0.0102324 0.00420182 0.00760515 0.0042274 0.00728987 0.00951329 0.0100961 0.00974049 0.0147426 0.012606 0.00667052 0.000772106 0.00917672 0.000891831 0.0128459 0.00868162 0.0144002 0.0127752 0.0139847 0.00230137 0.00206314 0.0089518 0.00458818 0.00863629 0.00430558 0.0144603 0.00139906 0.0022093 0.00850697 0.000519877 0.00761316 0.010058 0.0066216 0.0078737 0.00612172 0.00177003 0.0106641 0.00911158 0.000885436 0.00966532 0.00602013 0.0063218 0.0125101 0.00426012 0.00892088 0.00514356 0.00129141 0.00625872 0.00230596 0.00867378 0.0121634 0.0143626 0.00679055 0.00695371 0.0147786 0.0122093 8.43548e-05 0.00995715 0.00799865 0.00462761 0.014216 0.00872348 0.015169 0.0101144 0.011814 0.00603778 0.00111112 0.00717034 0.0141363 0.00826352 0.00175616 0.0079913 0.00761103 0.0143987 0.00452008 0.00844254 0.0144932 0.0131778 0.00166347 0.000956286 0.0107403 0.0055451 0.00180551 0.00453691 0.00942341 0.00954167 0.00962222 0.0113023 0.00289497 0.0026326 0.00369939 0.0105278 0.0120467 0.0108003 0.0126983 0.00874637 0.0122671 0.00818002 0.00641682 0.0122244 0.00702925 0.00552444 0.0108269 0.00453722 0.0103754 0.006324 0.00347663 0.00576113 0.00496984 0.00514114 0.00996983 0.00162457 0.00463433 0.0106884 0.0107356 0.00604621 0.0116912 0.0149773 0.00096492 0.00953084 0.00657841 0.0070626 0.00291999 0.00322739 0.0144818 0.00616535 0.00772151 0.00208443 0.00790977 0.0005545 0.00657309 0.00253931 0.00484977 0.0121283 0.00708603 0.00226918 0.00604545 0.00723472 0.0109701 0.00343743 0.00859229 0.00485768 0.00319335 0.00109812 0.00349856 0.0116007 0.00572299 0.00380241 0.00301698 0.0151635 0.00648948 0.0120217 0.00368541 0.00648051 0.0125803 0.0034757 0.0142895 0.000851078 0.0131829 0.00249219 0.0143918 0.00318155 0.0014035 0.0139873 0.00906508 0.00223346 0.00795407 0.000803853 0.00855083 0.0115832 0.00248374 0.0151863 0.00540234 0.0097276 0.00238535 0.00987972 0.0115477 0.00659241 0.00495397 0.00703731 0.00147038 0.0130426 0.00098502 0.0053282 0.0111163 0.003511 0.015171 0.0131598 0.00872676 0.0148175 0.0113207 0.00240649 0.00685607 0.00344709 0.0141476 0.0130014 0.00491582 0.0103426 0.00140231 0.0128859 0.00198955 0.0125949 0.00943874 0.0102956 0.00903363 0.0124232 0.00125962 0.014085 0.00337117 0.0136293 0.0151931 0.000883264 0.00349408 0.00984074 0.0121777 0.00286447 0.009734 0.0011025 0.00864119 0.00172406 0.011622 0.0142043 0.00878106 0.00656703 0.0106021 0.0130877 0.00764289 0.00255816 0.00114621 0.00710047 0.0138166 0.0150889 0.00444539 0.000265837 0.00514675 0.0032108 0.000596411 0.0117735 0.00480197 0.00487931 0.00937461 0.00280342 0.011736 0.00066532 0.00405254 0.00389386 0.013466 0.00280387 0.0125126 0.0140022 0.0137814 0.00959524 0.0147618 0.00155384 0.0114087 0.0138141 0.00980987 0.00423907 0.0107346 0.0139761 0.0107363 0.00464063 0.0140857 0.000154844 0.00109198 0.0119181 0.00204686 0.00637336 0.00117652 0.0137165 0.00929045 0.00956968 0.00709482 0.0119501 0.0142682 0.00522698 0.0073251 0.0040587 0.0068171 0.0116391 0.0119993 0.0149669 0.0129066 0.00285924 0.0119203 0.00429212 0.00786969 0.00527292 0.00713916 0.00961492 0.00332749 0.00282902 0.0123916 0.0106172 0.0061586 0.00884653 0.010236 0.00840283 0.00599713 0.00787271 0.0090787 0.0125727 0.012392 0.0035215 0.0102817 0.000478223 0.0143084 0.00535659 0.00300831 0.00642562 0.010603 0.00488582 0.00666235 0.00631211 0.0140576 0.00533103 0.00758861 0.00352808 0.00641109 0.00817625 0.00541196 0.00333014 0.00665278 0.0128722 0.0100815 0.00515816 0.00676824 0.0091283 0.00445074 0.00150798 0.00130126 0.00109445 0.00404456 0.00864856 0.00752236 0.00647566 0.00104766 0.0108102 0.00358582 0.0112819 0.0101736 0.0137968 0.00708503 0.0105313 0.00730094 0.00931706 0.010022 0.0114463 0.00207711 0.00861686 0.009053 0.0079031 0.0109555 0.00308504 0.00529079 0.0142464 0.0113986 0.00787863 0.0104791 0.00358764 0.0043882 0.00196482 0.0078991 0.0141693 0.0141394 0.00151112 0.00661975 0.013202 0.00185793 0.0139856 0.00720806 0.0103195 0.0129423 0.0135931 0.000778643 0.0044607 0.0142257 0.0150834 0.00832007 0.0133538 0.00429788 0.00460278 0.00953474 0.00358932 0.0124559 0.00693932 0.0124797 0.00120012 0.0124975 0.0055355 0.000255031 0.0029715 0.0118559 0.00265954 0.0028569 0.002976 0.010311 0.00605346 0.00794846 0.0153104 0.00326511 0.00940419 0.00919532 0.00201588 0.0120431 0.0125817 0.0117104 0.00966264 0.00154015 0.00253213 0.008276 0.00645263 0.00919447 0.00259572 0.0131113 0.00478786 0.00542242 0.0116958 0.00257056 0.00232622 0.00341988 0.00624313 0.0134051 0.00505072 0.0118767 0.00988032 0.00569896 0.0111818 0.000727052 0.00813109 0.00273617 0.0018216 0.0105733 0.00310661 0.0132164 0.00464896 0.0142442 0.00547061 0.00220868 0.00452783 0.00417548 0.00707696 0.00185079 0.012717 0.00497249 0.00564253 0.00390924 0.00208158 0.00278571 0.0119641 0.0066168 0.0141512 0.00132069 0.000897655 0.00340791 0.0110828 0.010023 0.0142771 0.00760919 0.0117553 0.00983223 0.0147465 0.00741987 0.00833856 0.00126161 0.0116434 0.00723613 0.0148598 0.00183155 0.00485025 0.0041845 0.000270788 0.0112352 0.00757262 0.0105256 0.00773959 0.00670747 0.00583542 0.00290594 0.0108315 0.00063707 0.00626549 0.000256757 0.00786836 0.00497188 0.0137817 0.00307043 0.00676854 0.0151889 0.00300748 0.00131104 0.0118046 0.0110655 0.00245696 0.00899819 0.00313438 0.00595921 0.00776734 0.000944439 0.00111534 0.0145161 0.00101532 0.00961945 0.0132851 0.00466757 0.0026714 0.00817881 0.00822097 0.00753351 0.0112204 0.00325932 0.00515858 0.00687735 0.0143408 0.00513623</DataArray>
</Points><Verts>
<DataArray type="Int64" Name="connectivity" format="ascii">0 1 2 3 4 5 6 7 8 9 10 11 12 13 14 15 16 17 18 19 20 21 22 23 24 25 26 27 28 29 30 31 32 33 34 35 36 37 38 39 40 41 42 43 44 45 46 47 48 49 50 51 52 53 54 55 56 57 58 59 60 61 62 63 64 65 66 67 68 69 70 71 72 73 74 75 76 77 78 79 80 81 82 83 84 85 86 87 88 89 90 91 92 93 94 95 96 97 98 99 100 101 102 103 104 105 106 107 108 109 110 111 112 113 114 115 116 117 118 119 120 121 122 123 124 125 126 127 128 129 130 131 132 133 134 135 136 137 138 139 140 141 142 143 144 145 146 147 148 149 150 151 152 153 154 155 156 157 158 159 160 161 162 163 164 165 166 167 168 169 170 171 172 173 174 175 176 177 178 179 180 181 182 183 184 185 186 187 188 189 190 191 192 193 194 195 196 197 198 199 200 201 202 203 204 205 206 207 208 209 210 211 212 213 214 215 216 217 218 219 220 221 222 223 224 225 226 227 228 229 230 231 232 233 234 235 236 237 238 239 240 241 242 243 244 245 246 247 248 249 250 251 252 253 254 255 256 257 258 259 260 261 262 263 264 265 266 267 268 269 270 271 272 273 274 275 276 277 278 279 280 281 282 283 284 285 286 287 288 289 290 291 292 293 294 295 296 297 298 299 300 301 302 303 304 305 306 307 308 309 310 311 312 313 314 315 316 317 318 319 320 321 322 323 324 325 326 327 328 329 330 331 332 333 334 335 336 337 338 339 340 341 342 343 344 345 346 347 348 349 350 351 352 353 354 355 356 357 358 359 360 361 362 363 364 365 366 367 368 369 370 371 372 373 374 375 376 377 378 379 380 381 382 383 384 385 386 387 388 389 390 391 392 393 394 395 396 397 398 399 400 401 402 403 404 405 406 407 408 409 410 411 412 413 414 415 416 417 418 419 420 421 422 423 424 425 426 427 428 429 430 431 432 433 434 435 436 437 438 439 440 441 442 443 444 445 446 447 448 449 450 451 452 453 454 455 456 457 458 459 460 461 462 463 464 465 466 467 468 469 470 471 472 473 474 475 476 477 478 479 480 481 482 483 484 485 486 487 488 489 490 491 492 493 494 495 496 497 498 499</DataArray>
<DataArray type="Int64" Name="offsets" format="ascii">1 2 3 4 5 6 7 8 9 10 11 12 13 14 15 16 17 18 19 20 21 22 23 24 25 26 27 28 29 30 31 32 33 34 35 36 37 38 39 40 41 42 43 44 45 46 47 48 49 50 51 52 53 54 55 56 57 58 59 60 61 62 63 64 65 66 67 68 69 70 71 72 73 74 75 76 77 78 79 80 81 82 83 84 85 86 87 88 89 90 91 92 93 94 95 96 97 98 99 100 101 102 103 104 105 106 107 108 109 110 111 112 113 114 115 116 117 118 119 120 121 122 123 124 125 126 127 128 129 130 131 132 133 134 135 136 137 138 139 140 141 142 143 144 145 146 147 148 149 150 151 152 153 154 155 156 157 158 159 160 161 162 163 164 165 166 167 168 169 170 171 172 173 174 175 176 177 178 179 180 181 182 183 184 185 186 187 188 189 190 191 192 193 194 195 196 197 198 199 200 201 202 203 204 205 206 207 208 209 210 211 212 213 214 215 216 217 218 219 220 221 222 223 224 225 226 227 228 229 230 231 232 233 234 235 236 237 238 239 240 241 242 243 244 245 246 247 248 249 250 251 252 253 254 255 256 257 258 259 260 261 262 263 264 265 266 267 268 269 270 271 272 273 274 275 276 277 278 279 280 281 282 283 284 285 286 287 288 289 290 291 292 293 294 295 296 297 298 299 300 301 302 303 304 305 306 307 308 309 310 311 312 313 314 315 316 317 318 319 320 321 322 323 324 325 326 327 328 329 330 331 332 333 334 335 336 337 338 339 340 341 342 343 344 345 346 347 348 349 350 351 352 353 354 355 356 357 358 359 360 361 362 363 364 365 366 367 368 369 370 371 372 373 374 375 376 377 378 379 380 381 382 383 384 385 386 387 388 389 390 391 392 393 394 395 396 397 398 399 400 401 402 403 404 405 406 407 408 409 410 411 412 413 414 415 416 417 418 419 420 421 422 423 424 425 426 427 428 429 430 431 432 433 434 435 436 437 438 439 440 441 442 443 444 445 446 447 448 449 450 451 452 453 454 455 456 457 458 459 460 461 462 463 464 465 466 467 468 469 470 471 472 473 474 475 476 477 478 479 480 481 482 483 484 485 486 487 488 489 490 491 492 493 494 495 496 497 498 499 500</DataArray>
</Verts></Piece></PolyData></VTKFile>