<?xml version="1.0"?>
<VTKFile type="PolyData" version="0.1" byte_order="LittleEndian">
<PolyData>
<Piece NumberOfPoints="500" NumberOfVerts="500" NumberOfLines="0" NumberOfStrips="0" NumberOfPolys="0">
<PointData>
<DataArray type="Int64" Name="id" format="ascii">1 2 3 4 5 6 7 8 9 10 11 12 13 14 15 16 17 18 19 20 21 22 23 24 25 26 27 28 29 30 31 32 33 34 35 36 37 38 39 40 41 42 43 44 45 46 47 48 49 50 51 52 53 54 55 56 57 58 59 60 61 62 63 64 65 66 67 68 69 70 71 72 73 74 75 76 77 78 79 80 81 82 83 84 85 86 87 88 89 90 91 92 93 94 95 96 97 98 99 100 101 102 103 104 105 106 107 108 109 110 111 112 113 114 115 116 117 118 119 120 121 122 123 124 125 126 127 128 129 130 131 132 133 134 135 136 137 138 139 140 141 142 143 144 145 146 147 148 149 150 151 152 153 154 155 156 157 158 159 160 161 162 163 164 165 166 167 168 169 170 171 172 173 174 175 176 177 178 179 180 181 182 183 184 185 186 187 188 189 190 191 192 193 194 195 196 197 198 199 200 201 202 203 204 205 206 207 208 209 210 211 212 213 214 215 216 217 218 219 220 221 222 223 224 225 226 227 228 229 230 231 232 233 234 235 236 237 238 239 240 241 242 243 244 245 246 247 248 249 250 251 252 253 254 255 256 257 258 259 260 261 262 263 264 265 266 267 268 269 270 271 272 273 274 275 276 277 278 279 280 281 282 283 284 285 286 287 288 289 290 291 292 293 294 295 296 297 298 299 300 301 302 303 304 305 306 307 308 309 310 311 312 313 314 315 316 317 318 319 320 321 322 323 324 325 326 327 328 329 330 331 332 333 334 335 336 337 338 339 340 341 342 343 344 345 346 347 348 349 350 351 352 353 354 355 356 357 358 359 360 361 362 363 364 365 366 367 368 369 370 371 372 373 374 375 376 377 378 379 380 381 382 383 384 385 386 387 388 389 390 391 392 393 394 395 396 397 398 399 400 401 402 403 404 405 406 407 408 409 410 411 412 413 414 415 416 417 418 419 420 421 422 423 424 425 426 427 428 429 430 431 432 433 434 435 436 437 438 439 440 441 442 443 444 445 446 447 448 449 450 451 452 453 454 455 456 457 458 459 460 461 462 463 464 465 466 467 468 469 470 471 472 473 474 475 476 477 478 479 480 481 482 483 484 485 486 487 488 489 490 491 492 493 494 495 496 497 498 499 500</DataArray>
<DataArray type="Int32" Name="type" format="ascii">1 1 1 1 1 1 1 1 1 1 1 1 1 1 1 1 1 1 1 1 1 1 1 1 1 1 1 1 1 1 1 1 1 1 1 1 1 1 1 1 1 1 1 1 1 1 1 1 1 1 1 1 1 1 1 1 1 1 1 1 1 1 1 1 1 1 1 1 1 1 1 1 1 1 1 1 1 1 1 1 1 1 1 1 1 1 1 1 1 1 1 1 1 1 1 1 1 1 1 1 2 2 2 2 2 2 2 2 2 2 2 2 2 2 2 2 2 2 2 2 2 2 2 2 2 2 2 2 2 2 2 2 2 2 2 2 2 2 2 2 2 2 2 2 2 2 2 2 2 2 2 2 2 2 2 2 2 2 2 2 2 2 2 2 2 2 2 2 2 2 2 2 2 2 2 2 2 2 2 2 2 2 2 2 2 2 2 2 2 2 2 2 2 2 2 2 2 2 2 2 2 2 2 2 2 2 2 2 2 2 2 2 2 2 2 2 2 2 2 2 2 2 2 2 2 2 2 2 2 2 2 2 2 2 2 2 2 2 2 2 2 2 2 2 2 2 2 2 2 2 2 2 2 2 2 2 2 2 2 2 2 2 2 2 2 2 2 2 2 2 2 2 2 2 2 2 2 2 2 2 2 2 2 2 2 2 2 2 2 2 2 2 2 2 2 2 2 2 2 2 2 2 2 2 2 2 2 2 2 2 2 2 2 2 2 2 2 2 2 2 2 2 2 2 2 2 2 2 2 2 2 2 2 2 2 2 2 2 2 2 2 2 2 2 2 2 2 2 2 2 2 2 2 2 2 2 2 2 2 2 2 2 2 2 2 2 2 2 2 2 2 2 2 2 2 2 2 2 2 2 2 2 2 2 2 2 2 2 2 2 2 2 2 2 2 2 2 2 2 2 3 3 3 3 3 3 3 3 3 3 3 3 3 3 3 3 3 3 3 3 3 3 3 3 3 3 3 3 3 3 3 3 3 3 3 3 3 3 3 3 3 3 3 3 3 3 3 3 3 3 3 3 3 3 3 3 3 3 3 3 3 3 3 3 3 3 3 3 3 3 3 3 3 3 3 3 3 3 3 3 3 3 3 3 3 3 3 3 3 3 3 3 3 3 3 3 3 3 3 3</DataArray>
<DataArray type="Float64" Name="radius" format="ascii">0.00075 0.00075 0.00075 0.00075 0.00075 0.00075 0.00075 0.00075 0.00075 0.00075 0.00075 0.00075 0.00075 0.00075 0.00075 0.00075 0.00075 0.00075 0.00075 0.00075 0.00075 0.00075 0.00075 0.00075 0.00075 0.00075 0.00075 0.00075 0.00075 0.00075 0.00075 0.00075 0.00075 0.00075 0.00075 0.00075 0.00075 0.00075 0.00075 0.00075 0.00075 0.00075 0.00075 0.00075 0.00075 0.00075 0.00075 0.00075 0.00075 0.00075 0.00075 0.00075 0.00075 0.00075 0.00075 0.00075 0.00075 0.00075 0.00075 0.00075 0.00075 0.00075 0.00075 0.00075 0.00075 0.00075 0.00075 0.00075 0.00075 0.00075 0.00075 0.00075 0.00075 0.00075 0.00075 0.00075 0.00075 0.00075 0.00075 0.00075 0.00075 0.00075 0.00075 0.00075 0.00075 0.00075 0.00075 0.00075 0.00075 0.00075 0.00075 0.00075 0.00075 0.00075 0.00075 0.00075 0.00075 0.00075 0.00075 0.00075 0.001 0.001 0.001 0.001 0.001 0.001 0.001 0.001 0.001 0.001 0.001 0.001 0.001 0.001 0.001 0.001 0.001 0.001 0.001 0.001 0.001 0.001 0.001 0.001 0.001 0.001 0.001 0.001 0.001 0.001 0.001 0.001 0.001 0.001 0.001 0.001 0.001 0.001 0.001 0.001 0.001 0.001 0.001 0.001 0.001 0.001 0.001 0.001 0.001 0.001 0.001 0.001 0.001 0.001 0.001 0.001 0.001 0.001 0.001 0.001 0.001 0.001 0.001 0.001 0.001 0.001 0.001 0.001 0.001 0.001 0.001 0.001 0.001 0.001 0.001 0.001 0.001 0.001 0.001 0.001 0.001 0.001 0.001 0.001 0.001 0.001 0.001 0.001 0.001 0.001 0.001 0.001 0.001 0.001 0.001 0.001 0.001 0.001 0.001 0.001 0.001 0.001 0.001 0.001 0.001 0.001 0.001 0.001 0.001 0.001 0.001 0.001 0.001 0.001 0.001 0.001 0.001 0.001 0.001 0.001 0.001 0.001 0.001 0.001 0.001 0.001 0.001 0.001 0.001 0.001 0.001 0.001 0.001 0.001 0.001 0.001 0.001 0.001 0.001 0.001 0.001 0.001 0.001 0.001 0.001 0.001 0.001 0.001 0.001 0.001 0.001 0.001 0.001 0.001 0.001 0.001 0.001 0.001 0.001 0.001 0.001 0.001 0.001 0.001 0.001 0.001 0.001 0.001 0.001 0.001 0.001 0.001 0.001 0.001 0.001 0.001 0.001 0.001 0.001 0.001 0.001 0.001 0.001 0.001 0.001 0.001 0.001 0.001 0.001 0.001 0.001 0.001 0.001 0.001 0.001 0.001 0.001 0.001 0.001 0.001 0.001 0.001 0.001 0.001 0.001 0.001 0.001 0.001 0.001 0.001 0.001 0.001 0.001 0.001 0.001 0.001 0.001 0.001 0.001 0.001 0.001 0.001 0.001 0.001 0.001 0.001 0.001 0.001 0.001 0.001 0.001 0.001 0.001 0.001 0.001 0.001 0.001 0.001 0.001 0.001 0.001 0.001 0.001 0.001 0.001 0.001 0.001 0.001 0.001 0.001 0.001 0.001 0.001 0.001 0.001 0.001 0.001 0.001 0.001 0.001 0.001 0.001 0.001 0.001 0.001 0.001 0.001 0.001 0.001 0.001 0.001 0.001 0.001 0.001 0.001 0.001 0.001 0.001 0.001 0.001 0.001 0.001 0.001 0.001 0.001 0.001 0.001 0.001 0.001 0.001 0.001 0.001 0.001 0.001 0.001 0.001 0.001 0.001 0.001 0.001 0.00125 0.00125 0.00125 0.00125 0.00125 0.00125 0.00125 0.00125 0.00125 0.00125 0.00125 0.00125 0.00125 0.00125 0.00125 0.00125 0.00125 0.00125 0.00125 0.00125 0.00125 0.00125 0.00125 0.00125 0.00125 0.00125 0.00125 0.00125 0.00125 0.00125 0.00125 0.00125 0.00125 0.00125 0.00125 0.00125 0.00125 0.00125 0.00125 0.00125 0.00125 0.00125 0.00125 0.00125 0.00125 0.00125 0.00125 0.00125 0.00125 0.00125 0.00125 0.00125 0.00125 0.00125 0.00125 0.00125 0.00125 0.00125 0.00125 0.00125 0.00125 0.00125 0.00125 0.00125 0.00125 0.00125 0.00125 0.00125 0.00125 0.00125 0.00125 0.00125 0.00125 0.00125 0.00125 0.00125 0.00125 0.00125 0.00125 0.00125 0.00125 0.00125 0.00125 0.00125 0.00125 0.00125 0.00125 0.00125 0.00125 0.00125 0.00125 0.00125 0.00125 0.00125 0.00125 0.00125 0.00125 0.00125 0.00125 0.00125</DataArray>
<DataArray type="Float64" Name="diameter" format="ascii">0.0015 0.0015 0.0015 0.0015 0.0015 0.0015 0.0015 0.0015 0.0015 0.0015 0.0015 0.0015 0.0015 0.0015 0.0015 0.0015 0.0015 0.0015 0.0015 0.0015 0.0015 0.0015 0.0015 0.0015 0.0015 0.0015 0.0015 0.0015 0.0015 0.0015 0.0015 0.0015 0.0015 0.0015 0.0015 0.0015 0.0015 0.0015 0.0015 0.0015 0.0015 0.0015 0.0015 0.0015 0.0015 0.0015 0.0015 0.0015 0.0015 0.0015 0.0015 0.0015 0.0015 0.0015 0.0015 0.0015 0.0015 0.0015 0.0015 0.0015 0.0015 0.0015 0.0015 0.0015 0.0015 0.0015 0.0015 0.0015 0.0015 0.0015 0.0015 0.0015 0.0015 0.0015 0.0015 0.0015 0.0015 0.0015 0.0015 0.0015 0.0015 0.0015 0.0015 0.0015 0.0015 0.0015 0.0015 0.0015 0.0015 0.0015 0.0015 0.0015 0.0015 0.0015 0.0015 0.0015 0.0015 0.0015 0.0015 0.0015 0.002 0.002 0.002 0.002 0.002 0.002 0.002 0.002 0.002 0.002 0.002 0.002 0.002 0.002 0.002 0.002 0.002 0.002 0.002 0.002 0.002 0.002 0.002 0.002 0.002 0.002 0.002 0.002 0.002 0.002 0.002 0.002 0.002 0.002 0.002 0.002 0.002 0.002 0.002 0.002 0.002 0.002 0.002 0.002 0.002 0.002 0.002 0.002 0.002 0.002 0.002 0.002 0.002 0.002 0.002 0.002 0.002 0.002 0.002 0.002 0.002 0.002 0.002 0.002 0.002 0.002 0.002 0.002 0.002 0.002 0.002 0.002 0.002 0.002 0.002 0.002 0.002 0.002 0.002 0.002 0.002 0.002 0.002 0.002 0.002 0.002 0.002 0.002 0.002 0.002 0.002 0.002 0.002 0.002 0.002 0.002 0.002 0.002 0.002 0.002 0.002 0.002 0.002 0.002 0.002 0.002 0.002 0.002 0.002 0.002 0.002 0.002 0.002 0.002 0.002 0.002 0.002 0.002 0.002 0.002 0.002 0.002 0.002 0.002 0.002 0.002 0.002 0.002 0.002 0.002 0.002 0.002 0.002 0.002 0.002 0.002 0.002 0.002 0.002 0.002 0.002 0.002 0.002 0.002 0.002 0.002 0.002 0.002 0.002 0.002 0.002 0.002 0.002 0.002 0.002 0.002 0.002 0.002 0.002 0.002 0.002 0.002 0.002 0.002 0.002 0.002 0.002 0.002 0.002 0.002 0.002 0.002 0.002 0.002 0.002 0.002 0.002 0.002 0.002 0.002 0.002 0.002 0.002 0.002 0.002 0.002 0.002 0.002 0.002 0.002 0.002 0.002 0.002 0.002 0.002 0.002 0.002 0.002 0.002 0.002 0.002 0.002 0.002 0.002 0.002 0.002 0.002 0.002 0.002 0.002 0.002 0.002 0.002 0.002 0.002 0.002 0.002 0.002 0.002 0.002 0.002 0.002 0.002 0.002 0.002 0.002 0.002 0.002 0.002 0.002 0.002 0.002 0.002 0.002 0.002 0.002 0.002 0.002 0.002 0.002 0.002 0.002 0.002 0.002 0.002 0.002 0.002 0.002 0.002 0.002 0.002 0.002 0.002 0.002 0.002 0.002 0.002 0.002 0.002 0.002 0.002 0.002 0.002 0.002 0.002 0.002 0.002 0.002 0.002 0.002 0.002 0.002 0.002 0.002 0.002 0.002 0.002 0.002 0.002 0.002 0.002 0.002 0.002 0.002 0.002 0.002 0.002 0.002 0.002 0.002 0.002 0.002 0.002 0.002 0.002 0.002 0.002 0.002 0.002 0.002 0.0025 0.0025 0.0025 0.0025 0.0025 0.0025 0.0025 0.0025 0.0025 0.0025 0.0025 0.0025 0.0025 0.0025 0.0025 0.0025 0.0025 0.0025 0.0025 0.0025 0.0025 0.0025 0.0025 0.0025 0.0025 0.0025 0.0025 0.0025 0.0025 0.0025 0.0025 0.0025 0.0025 0.0025 0.0025 0.0025 0.0025 0.0025 0.0025 0.0025 0.0025 0.0025 0.0025 0.0025 0.0025 0.0025 0.0025 0.0025 0.0025 0.0025 0.0025 0.0025 0.0025 0.0025 0.0025 0.0025 0.0025 0.0025 0.0025 0.0025 0.0025 0.0025 0.0025 0.0025 0.0025 0.0025 0.0025 0.0025 0.0025 0.0025 0.0025 0.0025 0.0025 0.0025 0.0025 0.0025 0.0025 0.0025 0.0025 0.0025 0.0025 0.0025 0.0025 0.0025 0.0025 0.0025 0.0025 0.0025 0.0025 0.0025 0.0025 0.0025 0.0025 0.0025 0.0025 0.0025 0.0025 0.0025 0.0025 0.0025</DataArray>
<DataArray type="Float64" Name="conductivity" format="ascii">1.0 1.0 1.0 1.0 1.0 1.0 1.0 1.0 10.0 1.0 1.0 1.0 10.0 1.0 1.0 1.0 1.0 1.0 1.0 1.0 1.0 1.0 1.0 1.0 1.0 10.0 1.0 1.0 1.0 1.0 1.0 1.0 1.0 1.0 1.0 1.0 1.0 10.0 1.0 1.0 1.0 1.0 1.0 1.0 1.0 1.0 1.0 1.0 1.0 1.0 1.0 1.0 1.0 1.0 1.0 1.0 1.0 10.0 1.0 10.0 10.0 1.0 1.0 1.0 1.0 1.0 1.0 1.0 1.0 1.0 1.0 1.0 1.0 10.0 1.0 1.0 1.0 1.0 10.0 1.0 1.0 1.0 1.0 1.0 1.0 1.0 10.0 1.0 1.0 1.0 1.0 1.0 1.0 1.0 1.0 1.0 1.0 1.0 1.0 1.0 1.0 1.0 1.0 1.0 1.0 1.0 1.0 1.0 1.0 1.0 1.0 1.0 1.0 1.0 1.0 1.0 1.0 1.0 1.0 1.0 1.0 1.0 1.0 1.0 1.0 1.0 1.0 1.0 1.0 1.0 1.0 1.0 10.0 1.0 1.0 1.0 1.0 1.0 1.0 1.0 1.0 10.0 1.0 1.0 1.0 1.0 1.0 1.0 1.0 1.0 1.0 1.0 1.0 1.0 1.0 1.0 1.0 1.0 1.0 1.0 10.0 1.0 1.0 1.0 1.0 1.0 1.0 1.0 1.0 1.0 1.0 1.0 1.0 10.0 1.0 1.0 1.0 1.0 1.0 10.0 1.0 1.0 1.0 1.0 1.0 1.0 1.0 1.0 1.0 1.0 1.0 10.0 1.0 1.0 10.0 1.0 1.0 1.0 10.0 1.0 1.0 10.0 1.0 1.0 1.0 1.0 1.0 1.0 1.0 1.0 1.0 1.0 1.0 1.0 1.0 1.0 10.0 1.0 1.0 1.0 1.0 1.0 1.0 1.0 1.0 1.0 1.0 1.0 1.0 1.0 1.0 1.0 1.0 1.0 1.0 1.0 1.0 1.0 1.0 1.0 1.0 10.0 1.0 1.0 1.0 1.0 10.0 1.0 1.0 1.0 10.0 1.0 1.0 1.0 1.0 1.0 1.0 1.0 1.0 1.0 1.0 1.0 1.0 1.0 1.0 1.0 1.0 10.0 1.0 1.0 1.0 1.0 1.0 1.0 1.0 1.0 1.0 1.0 1.0 1.0 1.0 1.0 1.0 1.0 1.0 1.0 1.0 1.0 1.0 1.0 10.0 1.0 1.0 10.0 1.0 1.0 1.0 1.0 1.0 1.0 1.0 10.0 1.0 1.0 1.0 1.0 1.0 1.0 10.0 1.0 1.0 10.0 10.0 1.0 1.0 1.0 1.0 1.0 1.0 1.0 1.0 1.0 1.0 1.0 1.0 1.0 1.0 1.0 1.0 1.0 1.0 1.0 1.0 10.0 1.0 1.0 1.0 10.0 10.0 1.0 1.0 1.0 1.0 1.0 10.0 1.0 1.0 1.0 1.0 1.0 1.0 1.0 10.0 1.0 1.0 10.0 1.0 1.0 1.0 1.0 1.0 10.0 1.0 1.0 1.0 1.0 1.0 1.0 1.0 1.0 10.0 1.0 1.0 1.0 1.0 1.0 1.0 1.0 1.0 1.0 1.0 1.0 1.0 1.0 1.0 1.0 1.0 1.0 1.0 10.0 1.0 10.0 1.0 1.0 1.0 1.0 1.0 1.0 1.0 1.0 1.0 1.0 1.0 1.0 1.0 1.0 1.0 1.0 10.0 1.0 1.0 1.0 1.0 1.0 10.0 1.0 1.0 1.0 1.0 1.0 1.0 10.0 1.0 10.0 1.0 1.0 1.0 1.0 1.0 1.0 1.0 1.0 1.0 1.0 1.0 1.0 1.0 10.0 1.0 1.0 1.0 1.0 10.0 1.0 1.0 1.0 1.0 1.0 1.0 1.0 1.0 1.0 1.0 1.0 1.0 1.0 1.0 10.0 1.0 1.0 1.0 1.0 1.0 10.0 1.0 1.0 1.0 1.0 1.0 1.0 1.0 1.0 1.0 1.0 1.0 1.0 1.0 1.0 1.0 1.0 1.0 1.0 1.0 1.0 10.0 1.0 1.0 1.0 1.0 1.0 1.0 1.0 1.0 1.0 10.0 1.0 1.0 1.0 1.0 1.0</DataArray>
<DataArray type="Float64" Name="temperature" format="ascii">300.96129060709 300.0446290818404 300.2443877899685 300.44241413919957 300.1868020532292 300.19740495040145 300.04149590332617 300.31179301907036 300.9656360490452 300.579487634252 300.5223216710633 300.5400474824372 300.9849259297163 300.72131239008775 300.70118203202105 300.5083308011171 nan 300.51216817489967 300.7600016785807 300.0376452828675 300.21454390804666 300.8555737535968 300.1093450466638 300.6834135374527 300.3776257687685 300.98348717534117 300.95221787193327 300.8694570913639 300.2442551392027 300.033651025918 300.03961891941265 nan 300.923562164079 300.9417368724014 300.8586471945618 300.66078680268424 300.5256671487572 300.75857663880794 300.07819463355787 300.1745496204785 nan 300.0467875718779 300.48598174635055 300.41518525310903 300.36915883266016 300.94987724952716 nan 300.1732518635914 300.9020870100121 300.31892326300937 nan 300.75709718548393 300.1735805513322 nan 300.3338314953303 300.3380947550248 300.9411454615818 300.4365450215423 300.2962425115779 300.95880053172664 300.957616205168 300.13683188322244 300.41887176549994 300.7201487881117 300.5815314724119 300.32141226593694 300.50652552520756 300.1137055086385 300.06079476897906 300.88645409909225 300.1844157256427 300.2530622119799 300.6527046132512 300.67459547830293 300.280295376354 nan 300.56454605043587 nan 300.2142692575369 300.2454753219941 300.6226255277239 300.05043205212905 300.2920945158644 300.0496271337856 300.26844760270774 300.94130223806 300.0374071116293 300.7144899443566 300.0474508639172 300.6147553286688 300.90883493439856 300.20935425174815 300.9473594611295 300.8687930236872 300.86127368393807 nan 300.82731638551365 300.1247652162517 300.31310180436213 300.0417020024028 300.61590934041936 300.81248788731284 300.5605983303649 300.1483127062484 300.0528196359217 300.92194607216135 300.6860171737014 300.7771902375816 300.5409273538831 300.4105579800823 300.6773868579727 300.9128824229771 300.2151388963884 300.2327739498488 300.66638451432664 300.06257521665077 300.62923569663724 300.3484684141327 300.78632780111906 300.82412057066057 300.37300933355004 300.390867063439 300.09093055531366 300.1436323376841 300.8493520731249 300.69781753132884 300.9376443396802 300.3885624051233 300.21402458966617 300.56971172059605 300.37942114001874 300.2643614147723 300.44765936368157 300.48562590020754 300.21350621251696 300.366647459589 300.3060849070209 300.44373966744223 300.0447406409467 300.63229272989224 300.66035656909446 300.2038240675736 300.0538924203275 300.2100851125212 300.57236178085316 300.6809506230745 300.0831444958932 300.8193530628329 300.63868778366043 300.78449550400677 300.44422536356853 300.89093451631425 300.9412456485103 300.2532005268177 300.1900235091862 300.26821206798917 300.9416127754264 300.40961452229783 300.4358001068276 300.187536614696 300.1195984255186 300.2832185649858 300.18713439557473 300.45785209273436 300.6676404201013 300.50141194949276 300.4951788418841 300.39143490729765 300.25749053991746 300.42677321052446 300.28708387798025 300.4774858006559 300.38907256942025 300.9448484199133 300.38511933089467 300.58987584251327 300.9222986728928 300.84770168947347 300.56456923136165 300.94468425992926 300.90883493439856 300.69812430114433 300.6770353912191 300.8082581395989 300.0443042789158 300.48572041155734 300.36354698091554 300.419387992388 300.59260797350646 300.2956865816853 300.588385110848 300.88759125362435 300.5312423130724 300.04361753836963 300.03907202533526 300.2586136130529 300.05415839575653 300.5484744419767 300.583562144905 300.04467193652175 300.37266959843134 300.60859500703765 300.193672672118 300.3568615606216 300.5718066283796 300.8457783358462 nan 300.6518378206333 300.482595519031 300.0865218240848 300.1148260073684 300.07274074712484 300.2617000014943 300.46598272395687 300.2775197977678 300.8102125607404 300.36644519177037 300.5195756478414 300.13186243685925 300.7216569819133 300.0495536950539 300.4473852386551 300.94913711246204 300.7148489101721 300.67108052979114 300.5543273451242 300.89361787843694 300.37047775125006 300.8409201049235 300.93713800426815 300.79662167528585 300.7626001178386 300.1186307351712 300.89943298251063 300.71754748670526 300.06079476897906 300.9454740136263 300.7553062122843 300.2940857881301 300.13972859955527 300.337520594002 300.8689546508301 300.2221935855445 300.05377964648244 300.05656450310187 300.47267552156825 300.0410358597484 300.70688667422996 300.89063431941224 300.4927200713135 300.1455161283876 300.32393249188283 300.6041667928838 300.70731006780693 300.21450108543104 300.3038332067382 300.14495913843507 300.2343809143125 300.7575808736057 300.8063440954362 300.9447386285705 300.4683424485639 300.771258123325 300.0984973233019 300.055352249309 300.15456964847203 300.3080633922685 300.09959239949484 300.8835927636992 300.20060740486923 300.21733102752887 300.04243569429553 300.4812491173674 300.6018208902759 300.202686751056 300.3485171121705 300.56170672768 300.7578137479038 300.85828502059746 300.84934158755834 300.4646679590377 300.3903388802817 300.0577026889622 300.2476051035633 300.76117049508974 300.21056822642856 300.4515815432526 300.28112463650467 300.28181984909827 300.9256948606781 300.1727255599935 300.9271980035293 300.6964596795298 300.4717628165907 300.7673446885286 300.218030532248 300.3193924415497 300.7342727917465 300.20373225207385 300.1147761113723 300.13927888038455 300.03880473195613 300.9246660888651 300.48446146953813 300.55984838702875 300.8210017533888 300.18254063164227 300.57155687250236 300.50477528072645 300.0494376966772 300.7478179122259 300.4318776379316 300.05038621423887 300.0802958765046 300.5794407393596 300.0473508377646 300.57662856242104 300.18324601691717 300.92622362272124 300.5124019430806 300.1746329869431 300.1925350953217 300.46919554869476 300.78049663374674 300.1550791571979 300.08655674413603 300.516064197388 300.46539596514674 300.56326810437446 300.73666227537 300.0678340080027 300.66565778710697 300.4142983688137 300.26736488593775 300.82991580557996 300.35486707373315 300.7181650661371 300.3921667062314 300.18479194594573 300.14835811970784 300.25096469087754 300.72791504915847 300.4250288219064 300.7741060571259 300.0240093176577 300.9066805717847 300.9244807644111 300.44034360078166 300.3430940394233 300.92327410904556 300.20824465539476 300.859453636098 300.04951673351945 300.4912834917609 300.92818626235635 300.5153168988804 300.544551869646 300.2610606149096 300.55380062132645 300.9293149704823 300.37325412467885 300.24133423383967 300.80462730527364 300.899351955982 300.2969283366016 300.91247890033713 300.325031557676 300.40403296197786 300.5044876243819 300.89228029873794 300.5262607555494 300.53417597561383 300.78495306133016 300.23263360267924 300.35658108101745 300.0591485874155 300.8786610281309 300.06251812161725 300.46736869340623 300.69148358285076 300.14538612252875 300.12289739788935 300.5854982140355 300.93198875696527 300.8216945639915 300.18892659786184 300.69964341053407 300.5718631483817 300.5176933533205 300.3440202986375 300.5808904053251 300.482595519031 300.354394835078 300.93945224587037 300.7198121675767 300.8536329229315 300.2644386672806 300.61159112852533 300.4843972941944 300.1641959732168 300.4449346189206 300.6162962388586 300.79432746978233 300.38720357108093 300.0627491906912 300.4710820763268 300.63225335772677 nan 300.343671572496 300.7406417290679 300.458727299688 300.31030752494485 300.6174879053379 300.69114819265866 300.1266698541226 300.0968335072815 300.1174553758279 300.39486802955145 300.4897226104348 300.12285571552684 300.28502811875785 300.44241413919957 300.1245070871286 300.8631129294289 300.6807080727191 300.57581941607236 300.9029386724954 300.2668286108709 300.0853990243206 300.2163726794596 300.11803501491477 300.3466601255728 300.12589559371315 300.206161369725 300.4477405207342 300.9217547962962 300.9273780431548 300.238339193312 300.9421639632956 300.9164964148075 300.31611845578436 300.48467356226695 300.54733340767734 300.1253474960457 300.6874437244693 300.6310044468688 300.83953904603356 300.6046191594188 300.91984839274437 300.1596790319653 300.9327817601468 300.5913672365508 300.8115382427453 300.26941924026266 300.08401313812584 300.4542660736905 300.8545710093514 300.71443451897574 300.1417896795631 300.23537868217244 300.0654724849749 300.7454488124231 300.4483870156497 300.23471592094717 300.76172506954106 300.6159103142677 300.36679208864706 300.38559343155555 300.1424915477129 300.554289819083 300.42175130033087 300.6966560443918 300.6276533703078 300.29466883945634 300.25673009874936 300.7621905201224 300.35918405290465 300.3499815438967 300.12476521625166 300.9261557305232 300.1854942158129 300.5299049495046 300.2082325909399 300.6941026468452 300.30564965029544 300.6119823123408 300.33206559430295 300.7209490591325 300.1495605687514 300.3206901689025 300.5780532010243 300.37136197416777 300.09580130243677 300.81997995771394 300.8074570475946 300.82744411733074 300.38057245978825 300.72000671022147 300.7226917809662 300.6458703445709</DataArray>
<DataArray type="Float64" Name="g_hot" format="ascii">0.0002657611709787568 0.0 0.0 0.0 0.0 0.0 0.0 0.0 0.00575160847068018 0.0 0.0 0.0 0.006718861510702539 0.0 0.0 0.0 0.0 0.0 0.0 0.0 0.0 0.0 0.0 0.0 0.0 0.005080787340560516 0.0004442195403176228 0.0 0.0 0.0 0.0 0.0 0.0 0.00038160974830315873 0.0 0.0 0.0 0.0 0.0 0.0 0.0 0.0 0.0 0.0 0.0 0.00046914922998977617 0.0 0.0 0.0 0.0 0.0 0.0 0.0 0.0 0.0 0.0 0.0002652809831103615 0.0 0.0 0.00460491042258153 0.004346377802262476 0.0 0.0 0.0 0.0 0.0 0.0 0.0 0.0 0.0 0.0 0.0 0.0 0.0 0.0 0.0 0.0 0.0 0.0 0.0 0.0 0.0 0.0 0.0 0.0 0.0003201296612311955 0.0 0.0 0.0 0.0 0.0 0.0 0.00029319788539483046 0.0 0.0 0.0 0.0 0.0 0.0 0.0 0.0 0.0 0.0 0.0 0.0 0.0007453643404402978 0.0 0.0 0.0 0.0 0.0 0.0 0.0 0.0 0.0 0.0 0.0 0.0 0.0 0.0 0.0 0.0 0.0 0.0 0.0 0.0 0.00048634555616351656 0.0 0.0 0.0 0.0 0.0 0.0 0.0 0.0 0.0 0.0 0.0 0.0 0.0 0.0 0.0 0.0 0.0 0.0 0.0 0.0 0.0 0.0 0.0 0.0 0.0 0.0006033837916285124 0.0 0.0 0.0 0.0007217257096709249 0.0 0.0 0.0 0.0 0.0 0.0 0.0 0.0 0.0 0.0 0.0 0.0 0.0 0.0 0.0 0.0 0.003907121702737197 0.0 0.0 0.0007980325807885289 0.0 0.0 0.007687288208464673 0.0 0.0 0.0 0.0 0.0 0.0 0.0 0.0 0.0 0.0 0.0 0.0 0.0 0.0 0.0 0.0 0.0 0.0 0.0 0.0 0.0 0.0 0.0 0.0 0.0 0.0 0.0 0.0 0.0 0.0 0.0 0.0 0.0 0.0 0.0 0.0 0.0 0.0 0.0 0.0 0.0 0.0 0.0004289195728805112 0.0 0.0 0.0 0.0 0.0 0.0 0.00043358966777357625 0.0 0.0 0.0 0.0 0.0 0.0 0.00045118510613715955 0.0 0.0 0.0 0.0 0.0 0.0 0.0 0.0 0.0 0.0 0.0 0.0 0.0 0.0 0.0 0.0 0.0 0.0 0.0 0.0 0.0 0.0 0.0 0.0007478261830131384 0.0 0.0 0.0 0.0 0.0 0.0 0.0 0.0 0.0 0.0 0.0 0.0 0.0 0.0 0.0 0.0 0.0 0.0 0.0 0.0 0.0 0.0 0.0 0.0 0.0 0.0 0.0 0.0 0.0006488882800605971 0.0 0.0 0.0 0.0 0.0 0.0 0.0 0.0 0.0 0.0 0.0 0.0 0.0006896085846333411 0.0 0.0 0.0 0.0 0.0 0.0 0.0 0.0 0.0 0.0 0.0 0.0 0.0 0.0 0.0 0.000676863354008769 0.0 0.0 0.0 0.0 0.0 0.0 0.0 0.0 0.0 0.0 0.0 0.0 0.0 0.0 0.0 0.0 0.0 0.0 0.0 0.0 0.0 0.0 0.0 0.0 0.0 0.0 0.0 0.0006163635290962631 0.0 0.0 0.0008488344950577822 0.0 0.0 0.0 0.0 0.00021349473061412999 0.0 0.0 0.0 0.0 0.0007940705258350796 0.0 0.0 0.0 0.0 0.0 0.0 0.0 0.0 0.0 0.0 0.0 0.0 0.0 0.0 0.0 0.0 0.0 0.0 0.0 0.0 0.0 0.0 0.0 0.0006056335525711896 0.0 0.0 0.0 0.0 0.0 0.0 0.0 0.0 0.0 0.0003341676226087741 0.0 0.0 0.0 0.0 0.0 0.0 0.0 0.0 0.0 0.0 0.0 0.0 0.0 0.0 0.0 0.0 0.0 0.0 0.0 0.0 0.0 0.0 0.0 0.0 0.0 0.0 0.0 0.0 0.0 0.0 0.0 0.0 0.0 0.0 0.0 0.0 0.0 0.0 0.0 0.0 0.0 0.0009037698822156003 0.0006935055875766256 0.0 0.0005952310475773254 0.0004980461825975582 0.0 0.0 0.0 0.0 0.0 0.0 0.0 0.0 0.0006621178142898736 0.0 0.0008068457101577724 0.0 0.0 0.0 0.0 0.0 0.0 0.0 0.0 0.0 0.0 0.0 0.0 0.0 0.0 0.0 0.0 0.0 0.0 0.0 0.0 0.0 0.0 0.0 0.0 0.0 0.0 0.0 0.0 0.00040736961104137357 0.0 0.0 0.0 0.0 0.0 0.0 0.0 0.0 0.0 0.0 0.0 0.0 0.0 0.0 0.0 0.0 0.0 0.0 0.0 0.0</DataArray>
<DataArray type="Float64" Name="g_cold" format="ascii">0.0 0.0005946397552731436 0.0 0.0 0.0 0.0 0.00023600092913228927 0.0 0.0 0.0 0.0 0.0 0.0 0.0 0.0 0.0 0.0 0.0 0.0 0.00041121337350736404 0.0 0.0 0.0 0.0 0.0 0.0 0.0 0.0 0.0 0.00034365162381589694 0.0003182710143121796 0.0 0.0 0.0 0.0 0.0 0.0 0.0 0.0 0.0 0.0 0.0005547039197187145 0.0 0.0 0.0 0.0 0.0 0.0 0.0 0.0 0.0 0.0 0.0 0.0 0.0 0.0 0.0 0.0 0.0 0.0 0.0 0.0 0.0 0.0 0.0 0.0 0.0 0.0 0.0 0.0 0.0 0.0 0.0 0.0 0.0 0.0 0.0 0.0 0.0 0.0 0.0 0.0 0.0 0.0005704353061928276 0.0 0.0 0.004495513747630003 0.0 0.0005538920820442428 0.0 0.0 0.0 0.0 0.0 0.0 0.0 0.0 0.0 0.0 0.000578010759892327 0.0 0.0 0.0 0.0 0.0007567442884280054 0.0 0.0 0.0 0.0 0.0 0.0 0.0 0.0 0.0 0.0 0.0006012170307537866 0.0 0.0 0.0 0.0 0.0 0.0 0.0 0.0 0.0 0.0 0.0 0.0 0.0 0.0 0.0 0.0 0.0 0.0 0.0 0.0 0.0 0.0 0.0005598766989868457 0.0 0.0 0.0 0.000577807855665183 0.0 0.0 0.0 0.0 0.0 0.0 0.0 0.0 0.0 0.0 0.0 0.0 0.0 0.0 0.0 0.0 0.0 0.0 0.0 0.0 0.0 0.0 0.0 0.0 0.0 0.0 0.0 0.0 0.0 0.0 0.0 0.0 0.0 0.0 0.0 0.0 0.0 0.0 0.0 0.0 0.0 0.0006417646905746728 0.0 0.0 0.0 0.0 0.0 0.0 0.0 0.0 0.0005623716903155815 0.007382830880281665 0.0 0.0007659385863555957 0.0 0.0 0.0005771151688080999 0.0 0.0 0.0 0.0 0.0 0.0 0.0 0.0 0.0 0.0 0.0 0.0006192430202016068 0.0 0.0 0.0 0.0 0.0 0.0 0.0 0.0 0.0006710155870532364 0.0 0.0 0.0 0.0 0.0 0.0 0.0 0.0 0.0 0.0 0.0 0.0 0.0 0.0 0.0005666232593782252 0.0 0.0 0.0 0.0 0.0 0.0 0.0 0.0005237002177471419 0.0005860562413867881 0.0 0.00697037960277925 0.0 0.0 0.0 0.0 0.0 0.0 0.0 0.0 0.0 0.0 0.0 0.0 0.0 0.0 0.0 0.0 0.0 0.000730932225359096 0.0 0.0 0.0 0.0 0.0 0.0 0.0006310799617072333 0.0 0.0 0.0 0.0 0.0 0.0 0.0 0.0 0.0 0.0 0.0005680333776006546 0.0 0.0 0.0 0.0 0.0 0.0 0.0 0.0 0.0 0.0 0.0 0.0 0.0 0.0 0.0 0.0 0.0 0.0 0.006205335752950022 0.0 0.0 0.0 0.0 0.0 0.0 0.0 0.00045854325648558966 0.0 0.0 0.0028750985734128107 0.0 0.0 0.00045854325648558966 0.0 0.0 0.0 0.0 0.0 0.0 0.0 0.0 0.0 8.63823944354768e-05 0.0 0.0 0.0 0.0 0.000711801881191949 0.0 0.0 0.0 0.0 0.0 0.0 0.0 0.0 0.0 0.0 0.0 0.0 0.0 0.008517405227347133 0.0 0.0 0.0 0.0 0.0 0.0 0.0 0.006417646905746728 0.0 0.0 0.0 0.0 0.0 0.0 0.0 0.0 0.0 0.0 0.0 0.0 0.0 0.0 0.0 0.0 0.0 0.0 0.0 0.0 0.0 0.0 0.0004273896560147504 0.0 0.0006941627460966241 0.0 0.0 0.0 0.0 0.0 0.0 0.0 0.0 0.0 0.0 0.0 0.0 0.0 0.0 0.0 0.0 0.0 0.0 0.0 0.0 0.0 0.0 0.0 0.0 0.0 0.0 0.00039790375417366825 0.0 0.0 0.0 0.0 0.0 0.0 0.0 0.0 0.0 0.0 0.0 0.0 0.0 0.0 0.0 0.0 0.0 0.0 0.0 0.0 0.0 0.0 0.0 0.0 0.0 0.0 0.0 0.0 0.0 0.0 0.0 0.0 0.0 0.0 0.0 0.0 0.0 0.0 0.0 0.0 0.0 0.0 0.0 0.0 0.0 0.0 0.0 0.0 0.0 0.0 0.0 0.0 0.0 0.0 0.0 0.000667703075914362 0.0 0.0 0.0 0.0 0.0 0.0 0.0 0.0 0.0 0.0 0.0 0.0 0.0 0.0 0.0 0.0 0.0 0.0 0.0 0.0 0.0 0.0 0.0 0.0 0.0 0.0 0.0 0.0 0.0 0.0 0.0 0.0 0.0 0.0 0.0 0.0 0.0 0.0 0.0</DataArray>
</PointData><Points>
<DataArray type="Float64" Name="Points" format="ascii" NumberOfComponents="3">0.00610135 0.00588391 0.000726457 0.0117176 0.00471581 0.0147385 0.0131593 0.00653798 0.0111459 0.00564264 0.00496125 0.00781939 0.0128613 0.0104839 0.0118079 0.0107325 0.0109337 0.0120231 0.015305 0.00018287 0.0146392 0.000408094 0.0135494 0.0105787 0.00321948 0.00530743 0.00063973 0.0151601 0.0113209 0.00665277 0.0133263 0.0106422 0.00707602 0.00350727 0.00257492 0.00679885 0.00929778 0.00416015 0.000599523 0.0122971 0.0117598 0.00403535 0.00324935 0.00513299 0.00402231 0.0141789 0.0152014 0.00722503 0.013219 0.012258 0.0145919 0.00420246 0.00130552 0.00695997 0.00672953 0.00154997 0.00292604 0.0134272 0.00509974 0.014677 0.0102559 0.0122012 0.0118239 0.000906484 0.00876343 0.00203325 0.0118628 0.0103961 0.0128577 0.00902999 0.000306356 0.00366445 0.00788632 0.00726696 0.00880959 0.0110799 0.00823283 0.000663952 0.0059405 0.00306427 0.000684223 0.00746832 0.000537919 0.00200279 0.000128037 0.0123656 0.011289 0.000594973 0.010543 0.01466 0.0103333 0.0153605 0.0146544 0.00672603 0.0109501 0.00283634 0.0062957 0.00446283 0.00106237 0.00474988 0.0135997 0.000701458 0.00452433 0.000908892 0.00177293 0.00080875 0.00797313 0.0051201 0.00281459 0.0128358 0.00575629 0.00174726 0.00828256 0.00362045 0.0069253 0.0121949 0.0140525 0.00496708 0.00232708 0.0121734 0.0148507 0.00255031 0.0102542 0.00608516 0.00257268 0.0147232 0.00987886 0.0124054 0.00710925 0.0093316 0.0115426 0.00824901 0.000498389 0.00925524 0.00931856 0.0073139 0.00927887 0.000676633 0.00763379 0.0018985 0.00582374 0.00828365 0.00668188 0.0121186 0.00600109 0.0135858 0.00150731 0.0113682 0.00191826 0.00963399 0.0141013 0.0103253 0.00832272 0.00522192 0.0137534 0.00359735 0.00340968 0.00929335 0.013039 0.00444588 0.00989183 0.00761027 0.00648051 0.00585378 0.0100765 0.00852074 0.00341972 0.00860685 0.00476171 0.00195092 0.000726542 0.00314155 0.0052685 0.00818987 0.00605247 0.00440487 0.00969835 0.00284525 0.00665236 0.000679316 0.0013122 0.00824075 0.00068703 0.0151343 0.0153013 0.0129065 0.00602605 0.0100457 0.00836521 0.00344849 0.0126531 0.0037613 0.0103372 0.00931924 0.00575066 0.0053855 0.00627592 0.0110007 0.0101746 0.00693124 0.00660717 0.0122815 0.00271734 0.0141222 0.0135943 0.00696544 0.0146199 0.00643395 0.0101107 0.00150461 0.00940344 0.0130956 0.0124166 0.00988807 0.000111227 0.0113742 0.000140901 0.00620329 0.00511977 0.00302956 0.00824819 0.00418697 0.000465028 0.0150056 0.0106486 0.00180533 0.00139059 0.00245823 0.0148524 0.012653 0.00609264 0.00876513 0.00960276 0.0146131 0.00586817 0.00880348 0.0125141 0.00546388 0.00112024 0.0114318 0.00842757 0.00333149 0.00503815 0.00187675 0.013273 0.0142171 0.0104623 0.0124337 0.0103773 0.0147163 0.0117339 0.0147291 0.0107916 0.00115696 0.0109376 0.000293479 0.0107405 0.000715839 0.0045566 0.00528538 0.014688 0.00471309 0.0109888 0.00386656 0.00925327 0.0142087 0.0147229 0.00374636 0.010294 0.00460437 0.00139747 0.00121062 0.00088894 0.0131265 0.00325584 0.0119463 0.00810545 0.000111695 0.000721345 0.000968955 0.0101625 0.00186428 0.0142173 0.0126167 0.00213554 0.00216485 0.00366868 0.00660541 0.014288 0.00652945 0.00244207 0.00492239 0.0139001 0.0115477 0.00803512 0.0144171 0.00998421 0.001757 0.00536204 0.014732 0.0152049 0.00971958 0.00598617 0.0068535 0.0144281 0.00269821 0.00519731 0.00999398 0.00601404 0.00177143 0.0121713 0.0127257 0.00554147 0.0129799 0.0145138 0.0106244 0.00207117 0.000861108 0.00757862 0.0112868 0.00434556 0.00589441 0.0040254 0.00279359 0.0150142 0.00124446 0.00632415 0.0113087 0.0120931 0.00813124 0.0106274 0.00304266 0.00410813 0.00794335 0.00458866 0.00136535 0.0103379 0.00625973 0.0114528 0.013877 0.0114885 0.011014 0.0136623 0.00963111 0.00480633 0.0132265 0.00139494 0.014461 0.0126107 0.00626454 0.00526051 0.0130859 0.0153409 0.00921098 0.00518822 0.00223584 0.00256459 0.0072999 0.00295929 0.00221396 0.0128072 0.00774 0.00908349 0.0146217 0.00851366 0.00851481 0.0050132 0.00480384 0.0131207 0.0152731 0.0122759 0.0132571 0.0113347 0.0137982 0.00177578 0.00609824 0.010032 0.00419152 0.00561965 0.0151263 0.000940867 0.00694184 0.00867743 0.00889435 0.0147473 0.00668341 0.0113261 0.00841359 0.0084257 0.00547276 0.00892358 0.0152892 0.00883999 0.00147678 0.00643161 0.0107234 0.0041813 0.00662463 0.00807353 0.00598505 0.0118139 0.00746799 0.0127017 0.000110922 0.012105 0.0126912 0.00292425 0.00917499 0.0122507 0.00458231 0.00986678 0.000400974 2.4822e-05 0.0076785 0.00339026 0.000812728 0.014449 0.0017011 0.00204408 0.00491553 0.00694745 0.0141291 0.00472719 0.00605994 0.00440103 0.0114215 0.00568092 0.011088 0.0144541 0.0130463 0.00490796 0.0115728 0.00657905 0.000412945 0.00576939 0.00750013 0.000570754 0.00409625 0.00842112 0.0128424 0.014358 0.00374168 0.011515 0.00260825 0.00186534 0.00927531 0.00504287 0.00861557 0.0116393 0.00278658 0.00268976 0.0113526 0.00839514 0.00952857 0.0104559 0.00103388 0.00609628 0.00765367 0.000908982 0.015247 0.00490539 0.0109523 0.00641148 0.0152112 0.0121345 0.00935541 0.0138906 0.0109285 0.0121092 0.0095476 0.000869778 0.00791563 0.0122754 0.00874058 0.0101884 0.00826467 0.00755535 0.0025465 0.00796451 0.0125732 0.00453828 0.00655686 0.0135834 0.0124617 0.001157 0.0105201 0.00086573 0.00705345 0.0124533 0.0010305 0.00795787 0.00810562 0.00730451 0.00456579 0.00429267 0.00171034 0.00539966 0.0073222 0.00199694 0.00197999 0.00727846 0.0017111 0.000746206 0.00885008 0.0119308 0.0116916 0.0108667 0.00712809 0.0146305 0.00842869 0.00154253 0.00863755 0.0107422 0.0080434 0.0134299 0.00725817 0.0111433 0.00694793 0.00854193 0.0152498 0.00729416 0.000961836 0.0128353 0.0113142 0.00908673 0.0141283 0.00273951 0.00560883 0.0121822 0.0125047 0.000840786 0.00594983 0.00600315 0.0024658 0.0046906 6.85557e-05 0.00597007 0.00151079 0.00546937 0.000852264 0.0152712 0.00034132 0.00114595 0.00190065 0.0131454 0.00428428 0.0153437 0.0129269 0.00451838 0.00511703 0.0101176 0.0025782 0.00195329 0.0115643 0.0144736 0.000190646 0.0134963 0.00737844 0.0141025 0.00513138 0.00947694 0.00345844 0.0013449 0.00842434 0.00116394 0.000317307 0.00572811 0.00658093 0.0153419 0.0101982 0.00713619 0.0100705 0.00575846 0.0151211 0.0054567 0.00154519 0.000278818 0.00483135 0.00618947 0.00229801 0.00965966 0.0144497 0.00829289 0.00433326 0.0145069 0.0108581 0.00443733 0.0113705 0.0117275 0.0145051 0.0145173 0.0139952 0.00577683 0.00651482 0.00364667 0.00892887 0.00557959 0.00877499 0.000477601 0.0144539 0.00218062 0.00496916 0.00954555 0.00268003 0.00510171 0.00574284 0.0144521 0.00979825 0.0118808 0.0152118 0.000698226 0.00943239 0.00620654 0.00832739 0.00523734 0.000251373 0.0135367 0.00222076 0.0151872 0.00619755 0.00813797 0.00432417 0.00184756 0.00495445 0.00754202 0.00647267 0.00484806 0.00472794 0.00312661 0.0139351 0.00750461 0.0106427 0.0139331 0.00797952 0.00679151 0.0144665 0.00425777 0.0021485 0.0106735 0.00835291 0.00891797 0.0073962 0.0141607 0.0152159 0.010789 0.0145543 0.00355354 0.00270893 0.00516449 0.00727366 0.00964166 0.00176425 0.0123739 0.00710227 0.0102073 0.0141663 0.0133971 0.000115054 0.00323268 0.00436539 0.0122921 0.010764 0.0144832 0.00988712 0.0100631 0.00785927 0.00227013 0.00371971 0.000954007 0.0083976 0.009551 0.00390556 0.0120699 0.0147357 0.00487253 0.00561507 0.00410671 0.00629114 0.00335431 0.0126207 0.00105695 0.00995957 0.00142228 0.0087712 0.00480507 0.00823777 0.00200027 0.00884382 0.0086451 0.000953 0.0135897 0.0087249 0.00292243 0.00926036 0.0133802 0.00330743 0.00508361 0.0143228 0.0132382 0.0134331 0.00816312 0.00104772 0.0110565 0.0129142 0.00375025 0.0149699 0.00803392 0.0144509 0.0098843 0.00569706 0.000949108 0.00352221 0.00144007 0.00328906 0.0153184 0.0104658 0.010282 0.00775995 0.000976374 0.0129544 0.00668748 0.0134064 0.0101069 0.00283745 0.0051993 0.00229915 0.00618783 0.0025258 0.0106964 0.0112908 0.0013845 0.0144392 0.00155904 0.0149562 0.0144565 0.00347126 0.00841221 0.00821453 0.00625966 0.00416675 0.0144921 0.00231846 0.00373622 0.00434161 0.00333269 0.00227702 0.00161919 0.00645393 0.00899285 0.00710708 0.00845796 0.00383956 0.0126755 0.0112198 0.00840147 0.00987613 0.0138114 0.0114078 0.00558436 0.00460004 0.00877497 0.00384889 0.00657515 0.0102778 0.0122978 0.00686308 0.00974815 0.0104563 0.0129252 0.0117915 0.0129213 9.55589e-06 0.00123007 0.0112874 0.012917 0.000126746 0.00325698 0.0141559 0.0141547 0.00320179 0.0153638 0.0123609 0.000860189 0.0107394 0.00232397 0.00733828 0.0098926 0.00929801 0.00263399 0.00925751 0.00240258 0.0142056 0.0141596 0.00335176 0.0145042 0.0016423 0.00543989 0.0130417 0.000192264 0.00763644 0.00988613 0.0110781 0.00889696 0.012636 0.0141213 0.0019768 0.00109104 0.00245445 0.0104931 0.0123796 0.011493 0.00984042 0.0110711 0.00164417 0.00788354 0.0144702 0.00892212 0.00180469 0.00718658 0.0087802 0.0148512 0.00509543 0.00606978 0.00716785 0.0122636 0.00935618 0.00664764 0.0090234 0.0029514 0.000977679 0.00587933 0.0130448 0.00694203 0.00348486 0.00797139 0.00997282 0.00207478 0.00869291 0.0147868 0.0021781 0.0094671 0.00364807 0.00708157 0.0145856 0.0142989 0.0087989 0.00250638 0.00251356 0.0144513 0.0082053 0.000245139 0.0112101 0.0135355 0.00197941 0.00298636 0.0136844 0.00174911 0.0118123 0.00206068 0.00955044 0.00880916 0.0118933 0.0029406 0.0109044 0.00291447 0.00082531 0.0103307 0.0135644 0.0062868 0.000894736 0.00300635 0.00412115 0.0126468 0.0116253 0.00662971 0.00100196 0.00406094 0.00343099 0.00356093 0.012031 0.00511796 0.00692809 0.0111561 0.00668828 0.00310923 0.00165236 0.00040577 0.0115658 0.0104442 0.00531781 0.00971621 0.00652012 0.0126529 0.00346458 0.000596073 0.0109432 0.0120274 0.00175772 0.00109608 0.0134069 0.0129104 0.00408412 0.0133379 0.0029436 0.00645581 0.0144669 0.00352002 0.0107148 0.00088111 0.0084519 0.0152841 0.00695295 0.010453 0.0142266 0.00592079 0.0133673 0.00507231 0.00238011 0.0128742 0.00880729 0.0119687 0.00899395 0.0102211 0.00605196 0.00480573 0.0080748 0.00688147 0.003325 0.0143225 0.0144232 0.00902144 0.00737443 0.00347096 0.00227587 0.00664207 0.00864786 0.00386816 0.00824252 0.0143913 0.0114805 0.0126982 0.0139477 0.00137091 0.0138096 0.00592945 0.000530747 0.00637393 0.0144232 0.00446454 0.00735028 0.00513411 0.0117088 0.00747845 0.0116189 0.0122306 0.0048128 0.000885464 0.0117829 0.00696799 0.00680975 0.00835588 0.0143255 0.0125809 0.0149062 0.00337483 0.0120389 0.0123696 0.00325544 0.00735387 0.00204442 0.0108927 0.00330101 0.014401 0.00800786 0.0126545 0.00612744 0.00723658 0.0143725 0.0103474 0.000471771 0.0069295 0.011839 0.0102578 0.00790487 0.0127943 0.00026438 0.00640004 0.000706841 0.0145357 0.00368238 0.00647114 0.00915142 0.0144973 0.0135796 0.00112303 0.00471039 0.000468658 0.00222515 0.00842297 0.00552384 0.0085144 0.0109798 0.00198555 0.0126486 0.00249904 0.0107972 0.0107695 0.00949678 0.0082373 0.0022954 0.0037132 0.0109188 0.00426286 0.00820171 0.00442288 0.00802972 0.0124874 0.00346998 0.00229533 0.0128675 0.00785592 0.011269 0.0111828 0.0153282 0.00711132 0.00356177 0.000929073 0.00409095 0.00841085 0.013318 0.010695 0.00323788 0.0112531 0.00911038 0.014552 0.00451755 0.00646184 0.00105769 0.00822373 0.00194359 0.000905024 0.0130113 0.00607976 0.00821247 0.00659911 0.0115298 0.0098275 0.00500844 0.00961584 0.00081987 0.00964017 0.00810693 0.0115189 0.0118825 0.0082028 0.00217858 0.00310882 0.00440618 0.0144736 0.0134671 0.00774582 0.00731047 0.00763904 0.0136286 0.000988605 0.00413718 0.00502779 0.00692196 0.0107688 0.0108787 0.00640708 0.00955435 0.0102671 0.0109883 0.00544794 0.0022627 0.00650547 0.0145597 0.00387892 0.000842363 0.00680914 0.0032933 0.008622 0.0042629 0.00391804 0.011316 0.0126683 0.0127559 0.00269418 0.0101001 0.0075216 0.00177355 0.0119113 0.00638915 0.0101489 0.00763803 0.011646 0.00104104 0.00472568 0.000455694 0.0100011 0.0117384 0.000963079 0.00825171 0.00584758 0.0138834 0.00653193 0.00177242 0.0114231 0.00105547 0.0128822 0.00413753 0.00570748 0.00153257 0.00935515 0.00691444 0.0101301 0.00519092 0.00277241 0.00172261 0.00461265 0.0113195 0.00484566 0.00912546 0.00926259 0.00377298 0.0108092 0.0144163 0.00635389 0.00151574 0.00123427 5.35942e-05 0.0137889 0.0144911 0.0101128 0.00539865 0.00695459 0.00208631 0.000364545 0.00403015 0.00863114 0.0116843 0.0128227 0.00494855 0.00964249 0.013519 0.000616427 0.00293212 0.00623972 0.00310216 0.000601794 0.000908302 0.00823655 0.0055953 0.00300341 0.0119248 0.00199644 0.0126038 0.0134439 0.0129899 0.00445896 0.00685716 0.01238 0.00582047 0.00778111 0.0112587 0.00713781 0.0030558 0.00745159 0.0101217 0.000695039 0.00692591 0.00646992 0.00585087 0.00644631 0.00591544 0.00796172 0.0104475 0.00906554 0.0150396 0.00923067 0.000972083 0.0117204 0.00154573 0.00361404 0.00952712 0.00113039 0.00212589 0.00868841 0.00584054 0.0106477 0.00388026 0.00363276 0.00552311 0.000840812 0.0108388 0.00792202 0.010712 0.000511695 0.0128052 0.00510821 0.0153282 0.00801478 0.0118278 0.0125662 0.00573439 0.0153655 0.011464 0.00295158 0.00460212 0.0135841 0.00950264 0.000838549 0.00378602 0.0141523 0.00838557 0.00678246 0.00691085 0.00516709 0.00510728 0.00444245 0.0118508 0.00646728 0.013759 0.00429391 0.00529992 0.00971744 0.00541924 0.000355925 0.00375051 0.00277645 0.0148528 0.00735932 0.00184993 0.0114558 0.0103433 0.014303 0.00766937 0.00539193 0.0100473 0.0110032 0.00428757 0.00706197 0.00546606 0.013003 0.00547107 0.00101032 0.0138642 0.00943291 0.00563095 0.0133002 0.0151634 0.0122635 0.00919075 0.00405248 0.0128019 0.00732678 0.0136467 0.0147456 0.0138656 0.00740889 0.00753514 0.0106287 0.00626991 0.00685862 0.00790011 0.0150813 0.00173109 0.0134322 0.00172507 0.00708167 0.00216925 0.00626679 0.00262626 0.00449877 0.0121512 0.00900841 0.0062369 0.00441068 0.0040851 0.00130074 0.00355596 0.00930857 0.0110189 0.0102538 0.0109147 0.0139134 0.0140258 0.0134363 0.0119348 0.00380782 0.0126268 0.0133527 0.00230327 0.00280122 0.00955862 0.0145022 0.00547435 0.0131131 0.00159002 0.00257608 0.0118737 0.0117313 0.0142079 0.00769934 0.00192528 0.0142345 0.00108664 0.0137172 0.0109837 0.00115381 0.00340192 0.0060966 0.0118143 0.00793311 0.00672138 0.00117914 0.0054251 0.0117839 0.00120039 0.00805291 0.00172928 0.00971092 0.0135048 0.012595 0.00745951 0.00280207 0.00716806 0.0065841 0.00666004 0.00283875 0.0128572 0.0142541 0.00506974 0.00436986 0.00483438 0.0123782 0.00510901 0.00396555 0.0144595 0.00225751 0.00946042 0.00518139 0.00486491 0.00963367 0.0126271 0.00116232 0.00103157 0.0140464 0.0125384 0.0137201 0.0140822 0.0011198 0.00893072 0.012727 0.00542107 0.0118802 0.00312691 0.00218472 0.00296119 0.0137777 0.0111752 0.00977266 0.00788281 0.013861 0.0069451 0.00132918 0.00768603 0.00944267 0.00325923 0.00223748 0.00192392 0.00655049 0.00445349 0.000820398 0.00911987 0.0129553 0.0115897 0.0136015 0.011833 0.00701097 0.0145405 0.0142098 0.000153796 0.00926513 0.00374912 0.0143209 0.00391868 0.00769893 0.00795508 0.00387068 0.0106491 0.00396086 0.00677349 0.0031821 0.0145478 0.014689 0.0053889 0.00166517 0.0137483 0.00914031 0.00468502 0.0112376 0.00910221 0.00768332 0.00836238 0.0129653 0.00313805 0.010802 0.00638341 0.0138083 0.00154906 0.00801792 0.0036266 0.0143722 0.00459364 0.01069 0.00753715 0.0049716 0.0134127 0.00952022 0.0100291 0.00403312 0.0115968 0.0113211 0.0107233 0.0150992 0.00321297 0.00464868 0.00312059 0.00870708 0.00914681 0.00874213 0.00944346 0.00624945 0.0125239 0.0121352 0.0122995 0.000709191 0.00121681 0.00379222 0.000323684 0.0122498 0.00765752 0.00446909 0.00641417 0.00962816 0.00221139 0.0119869 0.0118793 0.00476597 0.00391628 0.0100375 0.0032072 0.00981489 0.00958156 0.00149809 0.00515553 0.0110583 0.0149783 0.00988326 9.61791e-05 0.00120907 0.0035721 0.0108501 0.00376661 0.0133897 0.0129507 0.0132919 0.00979129 0.011978 0.00217816 0.00560597 0.00778648 0.00523067 0.00870393 0.0142124 0.0100765 0.0139645 0.00294316 0.00920676 0.00239347 0.000918997 0.00482947 0.00315684 0.0113171 0.011057 0.00220569 0.00968696 0.0133506 0.00881869 0.0117118 0.00939076 0.00392036 0.00687357 0.00794686 0.00312245 0.00115116 0.0113184 0.00522118</DataArray>
</Points><Verts>
<DataArray type="Int64" Name="connectivity" format="ascii">0 1 2 3 4 5 6 7 8 9 10 11 12 13 14 15 16 17 18 19 20 21 22 23 24 25 26 27 28 29 30 31 32 33 34 35 36 37 38 39 40 41 42 43 44 45 46 47 48 49 50 51 52 53 54 55 56 57 58 59 60 61 62 63 64 65 66 67 68 69 70 71 72 73 74 75 76 77 78 79 80 81 82 83 84 85 86 87 88 89 90 91 92 93 94 95 96 97 98 99 100 101 102 103 104 105 106 107 108 109 110 111 112 113 114 115 116 117 118 119 120 121 122 123 124 125 126 127 128 129 130 131 132 133 134 135 136 137 138 139 140 141 142 143 144 145 146 147 148 149 150 151 152 153 154 155 156 157 158 159 160 161 162 163 164 165 166 167 168 169 170 171 172 173 174 175 176 177 178 179 180 181 182 183 184 185 186 187 188 189 190 191 192 193 194 195 196 197 198 199 200 201 202 203 204 205 206 207 208 209 210 211 212 213 214 215 216 217 218 219 220 221 222 223 224 225 226 227 228 229 230 231 232 233 234 235 236 237 238 239 240 241 242 243 244 245 246 247 248 249 250 251 252 253 254 255 256 257 258 259 260 261 262 263 264 265 266 267 268 269 270 271 272 273 274 275 276 277 278 279 280 281 282 283 284 285 286 287 288 289 290 291 292 293 294 295 296 297 298 299 300 301 302 303 304 305 306 307 308 309 310 311 312 313 314 315 316 317 318 319 320 321 322 323 324 325 326 327 328 329 330 331 332 333 334 335 336 337 338 339 340 341 342 343 344 345 346 347 348 349 350 351 352 353 354 355 356 357 358 359 360 361 362 363 364 365 366 367 368 369 370 371 372 373 374 375 376 377 378 379 380 381 382 383 384 385 386 387 388 389 390 391 392 393 394 395 396 397 398 399 400 401 402 403 404 405 406 407 408 409 410 411 412 413 414 415 416 417 418 419 420 421 422 423 424 425 426 427 428 429 430 431 432 433 434 435 436 437 438 439 440 441 442 443 444 445 446 447 448 449 450 451 452 453 454 455 456 457 458 459 460 461 462 463 464 465 466 467 468 469 470 471 472 473 474 475 476 477 478 479 480 481 482 483 484 485 486 487 488 489 490 491 492 493 494 495 496 497 498 499</DataArray>
<DataArray type="Int64" Name="offsets" format="ascii">1 2 3 4 5 6 7 8 9 10 11 12 13 14 15 16 17 18 19 20 21 22 23 24 25 26 27 28 29 30 31 32 33 34 35 36 37 38 39 40 41 42 43 44 45 46 47 48 49 50 51 52 53 54 55 56 57 58 59 60 61 62 63 64 65 66 67 68 69 70 71 72 73 74 75 76 77 78 79 80 81 82 83 84 85 86 87 88 89 90 91 92 93 94 95 96 97 98 99 100 101 102 103 104 105 106 107 108 109 110 111 112 113 114 115 116 117 118 119 120 121 122 123 124 125 126 127 128 129 130 131 132 133 134 135 136 137 138 139 140 141 142 143 144 145 146 147 148 149 150 151 152 153 154 155 156 157 158 159 160 161 162 163 164 165 166 167 168 169 170 171 172 173 174 175 176 177 178 179 180 181 182 183 184 185 186 187 188 189 190 191 192 193 194 195 196 197 198 199 200 201 202 203 204 205 206 207 208 209 210 211 212 213 214 215 216 217 218 219 220 221 222 223 224 225 226 227 228 229 230 231 232 233 234 235 236 237 238 239 240 241 242 243 244 245 246 247 248 249 250 251 252 253 254 255 256 257 258 259 260 261 262 263 264 265 266 267 268 269 270 271 272 273 274 275 276 277 278 279 280 281 282 283 284 285 286 287 288 289 290 291 292 293 294 295 296 297 298 299 300 301 302 303 304 305 306 307 308 309 310 311 312 313 314 315 316 317 318 319 320 321 322 323 324 325 326 327 328 329 330 331 332 333 334 335 336 337 338 339 340 341 342 343 344 345 346 347 348 349 350 351 352 353 354 355 356 357 358 359 360 361 362 363 364 365 366 367 368 369 370 371 372 373 374 375 376 377 378 379 380 381 382 383 384 385 386 387 388 389 390 391 392 393 394 395 396 397 398 399 400 401 402 403 404 405 406 407 408 409 410 411 412 413 414 415 416 417 418 419 420 421 422 423 424 425 426 427 428 429 430 431 432 433 434 435 436 437 438 439 440 441 442 443 444 445 446 447 448 449 450 451 452 453 454 455 456 457 458 459 460 461 462 463 464 465 466 467 468 469 470 471 472 473 474 475 476 477 478 479 480 481 482 483 484 485 486 487 488 489 490 491 492 493 494 495 496 497 498 499 500</DataArray>
</Verts></Piece></PolyData></VTKFile>