<?xml version="1.0"?>
<VTKFile type="PolyData" version="0.1" byte_order="LittleEndian">
<PolyData>
<Piece NumberOfPoints="500" NumberOfVerts="500" NumberOfLines="0" NumberOfStrips="0" NumberOfPolys="0">
<PointData>
<DataArray type="Int64" Name="id" format="ascii">1 2 3 4 5 6 7 8 9 10 11 12 13 14 15 16 17 18 19 20 21 22 23 24 25 26 27 28 29 30 31 32 33 34 35 36 37 38 39 40 41 42 43 44 45 46 47 48 49 50 51 52 53 54 55 56 57 58 59 60 61 62 63 64 65 66 67 68 69 70 71 72 73 74 75 76 77 78 79 80 81 82 83 84 85 86 87 88 89 90 91 92 93 94 95 96 97 98 99 100 101 102 103 104 105 106 107 108 109 110 111 112 113 114 115 116 117 118 119 120 121 122 123 124 125 126 127 128 129 130 131 132 133 134 135 136 137 138 139 140 141 142 143 144 145 146 147 148 149 150 151 152 153 154 155 156 157 158 159 160 161 162 163 164 165 166 167 168 169 170 171 172 173 174 175 176 177 178 179 180 181 182 183 184 185 186 187 188 189 190 191 192 193 194 195 196 197 198 199 200 201 202 203 204 205 206 207 208 209 210 211 212 213 214 215 216 217 218 219 220 221 222 223 224 225 226 227 228 229 230 231 232 233 234 235 236 237 238 239 240 241 242 243 244 245 246 247 248 249 250 251 252 253 254 255 256 257 258 259 260 261 262 263 264 265 266 267 268 269 270 271 272 273 274 275 276 277 278 279 280 281 282 283 284 285 286 287 288 289 290 291 292 293 294 295 296 297 298 299 300 301 302 303 304 305 306 307 308 309 310 311 312 313 314 315 316 317 318 319 320 321 322 323 324 325 326 327 328 329 330 331 332 333 334 335 336 337 338 339 340 341 342 343 344 345 346 347 348 349 350 351 352 353 354 355 356 357 358 359 360 361 362 363 364 365 366 367 368 369 370 371 372 373 374 375 376 377 378 379 380 381 382 383 384 385 386 387 388 389 390 391 392 393 394 395 396 397 398 399 400 401 402 403 404 405 406 407 408 409 410 411 412 413 414 415 416 417 418 419 420 421 422 423 424 425 426 427 428 429 430 431 432 433 434 435 436 437 438 439 440 441 442 443 444 445 446 447 448 449 450 451 452 453 454 455 456 457 458 459 460 461 462 463 464 465 466 467 468 469 470 471 472 473 474 475 476 477 478 479 480 481 482 483 484 485 486 487 488 489 490 491 492 493 494 495 496 497 498 499 500</DataArray>
<DataArray type="Int32" Name="type" format="ascii">1 1 1 1 1 1 1 1 1 1 1 1 1 1 1 1 1 1 1 1 1 1 1 1 1 1 1 1 1 1 1 1 1 1 1 1 1 1 1 1 1 1 1 1 1 1 1 1 1 1 1 1 1 1 1 1 1 1 1 1 1 1 1 1 1 1 1 1 1 1 1 1 1 1 1 1 1 1 1 1 1 1 1 1 1 1 1 1 1 1 1 1 1 1 1 1 1 1 1 1 2 2 2 2 2 2 2 2 2 2 2 2 2 2 2 2 2 2 2 2 2 2 2 2 2 2 2 2 2 2 2 2 2 2 2 2 2 2 2 2 2 2 2 2 2 2 2 2 2 2 2 2 2 2 2 2 2 2 2 2 2 2 2 2 2 2 2 2 2 2 2 2 2 2 2 2 2 2 2 2 2 2 2 2 2 2 2 2 2 2 2 2 2 2 2 2 2 2 2 2 2 2 2 2 2 2 2 2 2 2 2 2 2 2 2 2 2 2 2 2 2 2 2 2 2 2 2 2 2 2 2 2 2 2 2 2 2 2 2 2 2 2 2 2 2 2 2 2 2 2 2 2 2 2 2 2 2 2 2 2 2 2 2 2 2 2 2 2 2 2 2 2 2 2 2 2 2 2 2 2 2 2 2 2 2 2 2 2 2 2 2 2 2 2 2 2 2 2 2 2 2 2 2 2 2 2 2 2 2 2 2 2 2 2 2 2 2 2 2 2 2 2 2 2 2 2 2 2 2 2 2 2 2 2 2 2 2 2 2 2 2 2 2 2 2 2 2 2 2 2 2 2 2 2 2 2 2 2 2 2 2 2 2 2 2 2 2 2 2 2 2 2 2 2 2 2 2 2 2 2 2 2 2 2 2 2 2 2 2 2 2 2 2 2 2 2 2 2 2 2 3 3 3 3 3 3 3 3 3 3 3 3 3 3 3 3 3 3 3 3 3 3 3 3 3 3 3 3 3 3 3 3 3 3 3 3 3 3 3 3 3 3 3 3 3 3 3 3 3 3 3 3 3 3 3 3 3 3 3 3 3 3 3 3 3 3 3 3 3 3 3 3 3 3 3 3 3 3 3 3 3 3 3 3 3 3 3 3 3 3 3 3 3 3 3 3 3 3 3 3</DataArray>
<DataArray type="Float64" Name="radius" format="ascii">0.00075 0.00075 0.00075 0.00075 0.00075 0.00075 0.00075 0.00075 0.00075 0.00075 0.00075 0.00075 0.00075 0.00075 0.00075 0.00075 0.00075 0.00075 0.00075 0.00075 0.00075 0.00075 0.00075 0.00075 0.00075 0.00075 0.00075 0.00075 0.00075 0.00075 0.00075 0.00075 0.00075 0.00075 0.00075 0.00075 0.00075 0.00075 0.00075 0.00075 0.00075 0.00075 0.00075 0.00075 0.00075 0.00075 0.00075 0.00075 0.00075 0.00075 0.00075 0.00075 0.00075 0.00075 0.00075 0.00075 0.00075 0.00075 0.00075 0.00075 0.00075 0.00075 0.00075 0.00075 0.00075 0.00075 0.00075 0.00075 0.00075 0.00075 0.00075 0.00075 0.00075 0.00075 0.00075 0.00075 0.00075 0.00075 0.00075 0.00075 0.00075 0.00075 0.00075 0.00075 0.00075 0.00075 0.00075 0.00075 0.00075 0.00075 0.00075 0.00075 0.00075 0.00075 0.00075 0.00075 0.00075 0.00075 0.00075 0.00075 0.001 0.001 0.001 0.001 0.001 0.001 0.001 0.001 0.001 0.001 0.001 0.001 0.001 0.001 0.001 0.001 0.001 0.001 0.001 0.001 0.001 0.001 0.001 0.001 0.001 0.001 0.001 0.001 0.001 0.001 0.001 0.001 0.001 0.001 0.001 0.001 0.001 0.001 0.001 0.001 0.001 0.001 0.001 0.001 0.001 0.001 0.001 0.001 0.001 0.001 0.001 0.001 0.001 0.001 0.001 0.001 0.001 0.001 0.001 0.001 0.001 0.001 0.001 0.001 0.001 0.001 0.001 0.001 0.001 0.001 0.001 0.001 0.001 0.001 0.001 0.001 0.001 0.001 0.001 0.001 0.001 0.001 0.001 0.001 0.001 0.001 0.001 0.001 0.001 0.001 0.001 0.001 0.001 0.001 0.001 0.001 0.001 0.001 0.001 0.001 0.001 0.001 0.001 0.001 0.001 0.001 0.001 0.001 0.001 0.001 0.001 0.001 0.001 0.001 0.001 0.001 0.001 0.001 0.001 0.001 0.001 0.001 0.001 0.001 0.001 0.001 0.001 0.001 0.001 0.001 0.001 0.001 0.001 0.001 0.001 0.001 0.001 0.001 0.001 0.001 0.001 0.001 0.001 0.001 0.001 0.001 0.001 0.001 0.001 0.001 0.001 0.001 0.001 0.001 0.001 0.001 0.001 0.001 0.001 0.001 0.001 0.001 0.001 0.001 0.001 0.001 0.001 0.001 0.001 0.001 0.001 0.001 0.001 0.001 0.001 0.001 0.001 0.001 0.001 0.001 0.001 0.001 0.001 0.001 0.001 0.001 0.001 0.001 0.001 0.001 0.001 0.001 0.001 0.001 0.001 0.001 0.001 0.001 0.001 0.001 0.001 0.001 0.001 0.001 0.001 0.001 0.001 0.001 0.001 0.001 0.001 0.001 0.001 0.001 0.001 0.001 0.001 0.001 0.001 0.001 0.001 0.001 0.001 0.001 0.001 0.001 0.001 0.001 0.001 0.001 0.001 0.001 0.001 0.001 0.001 0.001 0.001 0.001 0.001 0.001 0.001 0.001 0.001 0.001 0.001 0.001 0.001 0.001 0.001 0.001 0.001 0.001 0.001 0.001 0.001 0.001 0.001 0.001 0.001 0.001 0.001 0.001 0.001 0.001 0.001 0.001 0.001 0.001 0.001 0.001 0.001 0.001 0.001 0.001 0.001 0.001 0.001 0.001 0.001 0.001 0.001 0.001 0.001 0.001 0.001 0.001 0.001 0.001 0.001 0.001 0.001 0.001 0.001 0.001 0.001 0.001 0.001 0.001 0.001 0.001 0.00125 0.00125 0.00125 0.00125 0.00125 0.00125 0.00125 0.00125 0.00125 0.00125 0.00125 0.00125 0.00125 0.00125 0.00125 0.00125 0.00125 0.00125 0.00125 0.00125 0.00125 0.00125 0.00125 0.00125 0.00125 0.00125 0.00125 0.00125 0.00125 0.00125 0.00125 0.00125 0.00125 0.00125 0.00125 0.00125 0.00125 0.00125 0.00125 0.00125 0.00125 0.00125 0.00125 0.00125 0.00125 0.00125 0.00125 0.00125 0.00125 0.00125 0.00125 0.00125 0.00125 0.00125 0.00125 0.00125 0.00125 0.00125 0.00125 0.00125 0.00125 0.00125 0.00125 0.00125 0.00125 0.00125 0.00125 0.00125 0.00125 0.00125 0.00125 0.00125 0.00125 0.00125 0.00125 0.00125 0.00125 0.00125 0.00125 0.00125 0.00125 0.00125 0.00125 0.00125 0.00125 0.00125 0.00125 0.00125 0.00125 0.00125 0.00125 0.00125 0.00125 0.00125 0.00125 0.00125 0.00125 0.00125 0.00125 0.00125</DataArray>
<DataArray type="Float64" Name="diameter" format="ascii">0.0015 0.0015 0.0015 0.0015 0.0015 0.0015 0.0015 0.0015 0.0015 0.0015 0.0015 0.0015 0.0015 0.0015 0.0015 0.0015 0.0015 0.0015 0.0015 0.0015 0.0015 0.0015 0.0015 0.0015 0.0015 0.0015 0.0015 0.0015 0.0015 0.0015 0.0015 0.0015 0.0015 0.0015 0.0015 0.0015 0.0015 0.0015 0.0015 0.0015 0.0015 0.0015 0.0015 0.0015 0.0015 0.0015 0.0015 0.0015 0.0015 0.0015 0.0015 0.0015 0.0015 0.0015 0.0015 0.0015 0.0015 0.0015 0.0015 0.0015 0.0015 0.0015 0.0015 0.0015 0.0015 0.0015 0.0015 0.0015 0.0015 0.0015 0.0015 0.0015 0.0015 0.0015 0.0015 0.0015 0.0015 0.0015 0.0015 0.0015 0.0015 0.0015 0.0015 0.0015 0.0015 0.0015 0.0015 0.0015 0.0015 0.0015 0.0015 0.0015 0.0015 0.0015 0.0015 0.0015 0.0015 0.0015 0.0015 0.0015 0.002 0.002 0.002 0.002 0.002 0.002 0.002 0.002 0.002 0.002 0.002 0.002 0.002 0.002 0.002 0.002 0.002 0.002 0.002 0.002 0.002 0.002 0.002 0.002 0.002 0.002 0.002 0.002 0.002 0.002 0.002 0.002 0.002 0.002 0.002 0.002 0.002 0.002 0.002 0.002 0.002 0.002 0.002 0.002 0.002 0.002 0.002 0.002 0.002 0.002 0.002 0.002 0.002 0.002 0.002 0.002 0.002 0.002 0.002 0.002 0.002 0.002 0.002 0.002 0.002 0.002 0.002 0.002 0.002 0.002 0.002 0.002 0.002 0.002 0.002 0.002 0.002 0.002 0.002 0.002 0.002 0.002 0.002 0.002 0.002 0.002 0.002 0.002 0.002 0.002 0.002 0.002 0.002 0.002 0.002 0.002 0.002 0.002 0.002 0.002 0.002 0.002 0.002 0.002 0.002 0.002 0.002 0.002 0.002 0.002 0.002 0.002 0.002 0.002 0.002 0.002 0.002 0.002 0.002 0.002 0.002 0.002 0.002 0.002 0.002 0.002 0.002 0.002 0.002 0.002 0.002 0.002 0.002 0.002 0.002 0.002 0.002 0.002 0.002 0.002 0.002 0.002 0.002 0.002 0.002 0.002 0.002 0.002 0.002 0.002 0.002 0.002 0.002 0.002 0.002 0.002 0.002 0.002 0.002 0.002 0.002 0.002 0.002 0.002 0.002 0.002 0.002 0.002 0.002 0.002 0.002 0.002 0.002 0.002 0.002 0.002 0.002 0.002 0.002 0.002 0.002 0.002 0.002 0.002 0.002 0.002 0.002 0.002 0.002 0.002 0.002 0.002 0.002 0.002 0.002 0.002 0.002 0.002 0.002 0.002 0.002 0.002 0.002 0.002 0.002 0.002 0.002 0.002 0.002 0.002 0.002 0.002 0.002 0.002 0.002 0.002 0.002 0.002 0.002 0.002 0.002 0.002 0.002 0.002 0.002 0.002 0.002 0.002 0.002 0.002 0.002 0.002 0.002 0.002 0.002 0.002 0.002 0.002 0.002 0.002 0.002 0.002 0.002 0.002 0.002 0.002 0.002 0.002 0.002 0.002 0.002 0.002 0.002 0.002 0.002 0.002 0.002 0.002 0.002 0.002 0.002 0.002 0.002 0.002 0.002 0.002 0.002 0.002 0.002 0.002 0.002 0.002 0.002 0.002 0.002 0.002 0.002 0.002 0.002 0.002 0.002 0.002 0.002 0.002 0.002 0.002 0.002 0.002 0.002 0.002 0.002 0.002 0.002 0.002 0.002 0.002 0.002 0.002 0.002 0.002 0.0025 0.0025 0.0025 0.0025 0.0025 0.0025 0.0025 0.0025 0.0025 0.0025 0.0025 0.0025 0.0025 0.0025 0.0025 0.0025 0.0025 0.0025 0.0025 0.0025 0.0025 0.0025 0.0025 0.0025 0.0025 0.0025 0.0025 0.0025 0.0025 0.0025 0.0025 0.0025 0.0025 0.0025 0.0025 0.0025 0.0025 0.0025 0.0025 0.0025 0.0025 0.0025 0.0025 0.0025 0.0025 0.0025 0.0025 0.0025 0.0025 0.0025 0.0025 0.0025 0.0025 0.0025 0.0025 0.0025 0.0025 0.0025 0.0025 0.0025 0.0025 0.0025 0.0025 0.0025 0.0025 0.0025 0.0025 0.0025 0.0025 0.0025 0.0025 0.0025 0.0025 0.0025 0.0025 0.0025 0.0025 0.0025 0.0025 0.0025 0.0025 0.0025 0.0025 0.0025 0.0025 0.0025 0.0025 0.0025 0.0025 0.0025 0.0025 0.0025 0.0025 0.0025 0.0025 0.0025 0.0025 0.0025 0.0025 0.0025</DataArray>
<DataArray type="Float64" Name="conductivity" format="ascii">1.0 1.0 1.0 1.0 1.0 1.0 1.0 1.0 1.0 1.0 1.0 1.0 1.0 1.0 1.0 1.0 1.0 1.0 1.0 1.0 1.0 1.0 1.0 1.0 1.0 1.0 1.0 1.0 1.0 1.0 1.0 1.0 1.0 1.0 1.0 1.0 1.0 1.0 1.0 1.0 1.0 1.0 1.0 1.0 1.0 1.0 1.0 1.0 1.0 1.0 1.0 1.0 1.0 1.0 1.0 1.0 1.0 1.0 1.0 1.0 1.0 1.0 1.0 1.0 1.0 1.0 1.0 1.0 1.0 1.0 1.0 1.0 1.0 1.0 1.0 1.0 1.0 1.0 1.0 1.0 1.0 1.0 1.0 1.0 1.0 1.0 1.0 1.0 1.0 1.0 1.0 1.0 1.0 1.0 1.0 1.0 1.0 1.0 1.0 1.0 1.0 1.0 1.0 1.0 1.0 1.0 1.0 1.0 1.0 1.0 1.0 1.0 1.0 1.0 1.0 1.0 1.0 1.0 1.0 1.0 1.0 1.0 1.0 1.0 1.0 1.0 1.0 1.0 1.0 1.0 1.0 1.0 1.0 1.0 1.0 1.0 1.0 1.0 1.0 1.0 1.0 1.0 1.0 1.0 1.0 1.0 1.0 1.0 1.0 1.0 1.0 1.0 1.0 1.0 1.0 1.0 1.0 1.0 1.0 1.0 1.0 1.0 1.0 1.0 1.0 1.0 1.0 1.0 1.0 1.0 1.0 1.0 1.0 1.0 1.0 1.0 1.0 1.0 1.0 1.0 1.0 1.0 1.0 1.0 1.0 1.0 1.0 1.0 1.0 1.0 1.0 1.0 1.0 1.0 1.0 1.0 1.0 1.0 1.0 1.0 1.0 1.0 1.0 1.0 1.0 1.0 1.0 1.0 1.0 1.0 1.0 1.0 1.0 1.0 1.0 1.0 1.0 1.0 1.0 1.0 1.0 1.0 1.0 1.0 1.0 1.0 1.0 1.0 1.0 1.0 1.0 1.0 1.0 1.0 1.0 1.0 1.0 1.0 1.0 1.0 1.0 1.0 1.0 1.0 1.0 1.0 1.0 1.0 1.0 1.0 1.0 1.0 1.0 1.0 1.0 1.0 1.0 1.0 1.0 1.0 1.0 1.0 1.0 1.0 1.0 1.0 1.0 1.0 1.0 1.0 1.0 1.0 1.0 1.0 1.0 1.0 1.0 1.0 1.0 1.0 1.0 1.0 1.0 1.0 1.0 1.0 1.0 1.0 1.0 1.0 1.0 1.0 1.0 1.0 1.0 1.0 1.0 1.0 1.0 1.0 1.0 1.0 1.0 1.0 1.0 1.0 1.0 1.0 1.0 1.0 1.0 1.0 1.0 1.0 1.0 1.0 1.0 1.0 1.0 1.0 1.0 1.0 1.0 1.0 1.0 1.0 1.0 1.0 1.0 1.0 1.0 1.0 1.0 1.0 1.0 1.0 1.0 1.0 1.0 1.0 1.0 1.0 1.0 1.0 1.0 1.0 1.0 1.0 1.0 1.0 1.0 1.0 1.0 1.0 1.0 1.0 1.0 1.0 1.0 1.0 1.0 1.0 1.0 1.0 1.0 1.0 1.0 1.0 1.0 1.0 1.0 1.0 1.0 1.0 1.0 1.0 1.0 1.0 1.0 1.0 1.0 1.0 1.0 1.0 1.0 1.0 1.0 1.0 1.0 1.0 1.0 1.0 1.0 1.0 1.0 1.0 1.0 1.0 1.0 1.0 1.0 1.0 1.0 1.0 1.0 1.0 1.0 1.0 1.0 1.0 1.0 1.0 1.0 1.0 1.0 1.0 1.0 1.0 1.0 1.0 1.0 1.0 1.0 1.0 1.0 1.0 1.0 1.0 1.0 1.0 1.0 1.0 1.0 1.0 1.0 1.0 1.0 1.0 1.0 1.0 1.0 1.0 1.0 1.0 1.0 1.0 1.0 1.0 1.0 1.0 1.0 1.0 1.0 1.0 1.0 1.0 1.0 1.0 1.0 1.0 1.0 1.0 1.0 1.0 1.0 1.0 1.0 1.0 1.0 1.0 1.0 1.0 1.0 1.0 1.0 1.0 1.0 1.0 1.0 1.0 1.0 1.0 1.0 1.0 1.0 1.0 1.0 1.0 1.0 1.0 1.0 1.0 1.0 1.0 1.0 1.0 1.0 1.0 1.0 1.0</DataArray>
<DataArray type="Float64" Name="temperature" format="ascii">300.65286518215817 300.3155693871608 300.533229878342 300.95917320879835 300.5646168303153 300.8450061486187 300.2884789896024 300.7799007051263 300.04296706898236 300.15764562942195 300.4094799738277 300.13935907094594 300.95102054879095 300.954293921292 300.5404885202393 300.7983101333897 300.9436384835492 300.58281742987685 300.6379556903839 300.0754202603803 300.9601919633272 300.84606914131257 300.7361480488378 300.17644616588535 300.8935112788674 300.6611244782903 300.2201879953194 300.0600166800314 300.43480756794565 300.15357062646837 300.42244871725495 300.0478285210959 300.36793285607195 300.05470551968693 300.09174931771395 300.3201346391928 300.0513185077066 300.05003304013 300.73111821761415 300.143250091966 300.7311529088114 300.4441684263759 300.14543941371375 300.04989121035754 300.9531777848364 300.33357188007426 300.0422308755202 300.5628729040152 300.2526131162477 300.9305537036118 300.6115043057996 300.6947417488991 300.56875621641734 300.49237255930075 300.1363527226426 300.0935553312104 300.4685288108213 301.0 300.9494934976836 300.5499647287543 300.23856819008313 300.5167703169305 300.06674878849645 300.91462588230746 300.3688900842966 300.299548718925 300.02679778365086 300.4719155890791 300.89175287462695 nan 300.41315732751565 300.4655233822225 300.0440865041682 300.7671129277808 300.0503816317959 300.41954607477476 300.1587757740765 300.9251859533863 300.7093250318148 300.74934194378187 300.9651924432545 300.83217849378167 300.0506662183705 300.8064567051311 300.62938583689015 300.31444624189294 300.3229178357419 300.23137495249324 300.18614120387326 300.2089924456917 300.9293996441703 300.74779814135036 300.0355403542665 300.42701218558585 300.03746277617006 300.31887049902065 300.94205291708494 300.69287370715836 300.8017731160468 300.2298491907494 300.33183281314683 300.06989067471056 300.7526129494451 300.1839429630831 300.07399657761533 300.3573437235729 300.7428153859613 300.0973727701997 300.0926878233046 300.93176680683337 300.34590636494676 300.92527481139473 300.67651496653383 300.06397340456937 300.5777337849113 300.1427636473056 300.39419784950235 300.74874641643623 300.2370696561481 300.9373977325866 300.75637812004527 300.2459400171271 300.6351194681373 300.7341752790055 300.6199752033012 300.30053037109707 300.7194258154056 300.94149890026006 300.86569531510014 300.2051509018065 300.6519044385908 300.79519870039644 300.52402211912914 300.310386315153 300.3671084209537 300.65188198789593 300.75176625843125 300.3336270704362 300.72537580751987 300.5903854121011 300.44243875709367 300.25789186451766 300.0645546827597 300.75667422803735 300.5748932108892 300.5986249063215 300.62630182993064 300.75615054227416 300.57161213198907 300.4402576871714 300.0492350531032 300.6803260211036 300.16234337120443 300.8357022201299 300.811151944207 300.0613135592091 300.3927126450648 300.0622296171125 300.3324482812763 300.44059025586944 300.6251619726671 300.40466603664584 300.42003910902406 300.567784591644 300.57295119810374 300.9421537377681 300.5443885269303 300.3126725080295 300.376575318661 300.5883594155172 300.2882124937006 300.39384799165975 300.8773616760699 300.46542896776225 300.6346360231881 300.46498699764356 300.4802904033806 300.06664173163773 300.86145483644293 300.06110682415266 300.057250370027 300.7306871737097 300.1671763596101 300.09521360963646 300.2146556831818 300.14526650825667 300.0731225169264 300.8241073476857 300.937159728693 300.75246598779626 300.2499913867829 300.19097906630407 300.4904939522658 300.6778364267457 300.2234538542704 300.7872982568258 300.2177532460569 300.2029481812499 300.3801102617301 300.77607596050746 300.7376090592714 300.0478285210953 300.82149230043484 300.6950120857597 300.9367926234357 300.5174333177008 300.6550523679679 300.6430254931737 300.44204478935893 300.5387893240261 300.40003976986856 300.8959169695428 300.4871978091563 300.9371969066515 300.20910648718706 300.57264738467507 300.33650044874844 300.77869743712483 300.81033850189635 300.8858358906527 300.24380283273655 300.26020963011445 300.19912608663043 300.5327171980596 300.4693781703181 300.7608192396041 300.07003803054147 300.3590950529465 300.53770633165294 300.4060463658065 300.31850355634526 300.0705246029167 300.93287273569507 300.08304997681597 300.86447042367826 300.7200626041778 300.94180520701946 300.3522757075086 300.6171677547096 300.42101458420103 300.6636895660529 300.23208904460085 300.2043651673296 300.40714709173005 300.14683562852645 300.61843830812046 300.9166035258454 300.19211712287444 300.0534794511739 300.93128767526423 300.48160109831485 300.30774702263113 300.8196738334618 300.7743353383956 300.1748221840931 300.7036643470788 300.83657417222736 300.04849962212216 300.14143671021645 300.1590015074916 300.4123022072016 300.9372393448272 300.2820063276639 300.31035013329574 300.69728552626475 300.53920482457806 300.35401776076225 300.0641098557907 300.35677689289173 300.5967478056609 300.56118420458273 300.47899164786 300.50724371501667 300.05597085662623 300.8931852579561 300.6733545853526 300.85682529458416 300.74219153069254 300.5888559509089 300.3515616044049 300.71440134480065 300.52201229675705 300.34281773625696 300.84132673618325 300.9432074203794 300.5829661337419 300.8926027741887 300.56392553097913 300.23811490646716 300.2169964155414 300.7629172521719 300.07081885267195 300.4214085034014 300.05950883744737 300.8744917429008 300.37148419142284 300.7160902451276 300.96488345297473 300.0615910246904 300.04548625703154 300.132851834253 300.58930482569184 300.62386853888125 300.379101400181 300.75541468830113 300.22071461813016 300.8700164011427 300.2724201114872 300.5807432556896 300.64868464433397 300.072336282013 300.137051331617 300.87608586810484 300.13074136068605 300.5460717444677 300.28038392182884 300.188338565867 300.134397797171 300.05124869658505 300.170493726929 300.7521746710958 300.22653095150645 300.6372624805523 300.5990113796977 300.6472693191159 300.74448608553 300.19963002805036 300.25613633623016 300.6589367318629 300.1673775535839 300.71493167622276 300.8251021107014 300.47069968089886 300.70570128361084 300.4358885835122 300.3964033983119 300.63168703769657 300.71001716629684 300.7912663236366 300.93298852148666 300.45826934032294 300.8437144159775 300.9401113989069 300.64145893185344 300.0929973867558 300.3151068316862 300.92764191313836 300.76996234789834 300.5500627018715 300.8401486995926 300.4526193167217 300.8245182885578 300.5565867829113 300.7182993206767 300.5605720100824 300.59359954694185 300.32077624881833 300.5132458860359 300.04719818132025 300.39289503228105 300.9363735040861 300.2673931032416 300.6469861868726 300.78687471620043 300.0478285210959 300.4822753479065 300.56099174713654 300.64150581448035 300.0906286358927 300.37040606468537 300.3384350123127 300.6440919858959 300.88584880735857 300.18285772011086 300.4671652856634 300.7292949668864 300.6317176020641 300.6945272640466 300.5086581850291 300.2673369201291 300.4235755585173 300.57745793503295 300.4836051095736 300.29224295943305 300.39146406222824 300.34098618621147 300.731174988961 300.94675487153006 300.15767119092305 300.8848044624578 300.5229198552426 300.38520749163445 300.9288540760352 300.8112894549085 300.8370264346007 300.95557460279343 300.5200243990961 300.81814202225337 300.6051421723806 300.4301169977679 300.12648076759456 300.2517317412675 300.7120155145923 300.827343405671 300.75541468830113 300.07128837212326 300.7601453310135 300.937559066856 300.48466863661486 300.08421126325413 300.50830556920096 300.5083217524157 300.27504840668547 300.47326015518456 300.9350351559787 300.4760163791451 300.9212106172541 300.69750151045605 300.334642567132 300.0629008748708 300.1865602455549 300.7231271233031 300.94992612026107 300.5796826570038 300.56872701557387 300.1907562536099 300.8532734539118 300.7859237415377 300.36154309715135 300.56004225674974 300.6033683100705 300.4032258629841 300.1474405166943 300.35686735593805 300.59675550248795 300.31759857112877 300.21161941725353 300.92146302410794 300.3084915461282 300.2446511255473 300.7518373808699 300.29670899067816 300.7341706726521 300.69122385853143 300.4986708735051 300.2118297101987 300.18714600681335 300.3456063915358 300.1825336713847 300.35167551178404 300.2517760878425 300.67615444730393 300.4558073385229 300.4447337716604 300.79052354834994 300.25530190180484 300.8668723923526 300.0825847916221 300.38719765234083 300.94535356222116 300.4709655485636 300.1504255441307 300.3488537020871 300.4143604757095 300.60993795043134 300.3491256413845 300.4644048717755 300.41101676073237 300.7666161042092 300.9116997209962 300.768712933407 300.79766991913027 300.2638147534215 300.78261768008474 300.6937700680693 300.7647911667972 300.93107356356745 300.800419004887 300.58108925076885 300.29361165407005 300.15437079269043 300.3330542036261 300.05958630868446 300.13380183736524 300.83115466183784 300.61224404449365 300.50673496288977 300.28144368038994 300.87284160056765 300.18160089478994 300.4187030583444 300.2221719210592 300.33654527254913 300.23757215453503 300.5171973819359 300.885706325312 300.39222545929465 300.8597385146252 300.8790966118741 300.11069324322546</DataArray>
<DataArray type="Float64" Name="g_hot" format="ascii">0.0 0.0 0.0 0.00036642598161156626 0.0 0.0 0.0 0.0 0.0 0.0 0.0 0.0 0.0004933457205652037 0.0006482360681109931 0.0 0.0 0.0006252487504985517 0.0 0.0 0.0 0.0002963983805623774 0.0 0.0 0.0 0.0 0.0 0.0 0.0 0.0 0.0 0.0 0.0 0.0 0.0 0.0 0.0 0.0 0.0 0.0 0.0 0.0 0.0 0.0 0.0 0.0004489320661302777 0.0 0.0 0.0 0.0 0.0006499184564235733 0.0 0.0 0.0 0.0 0.0 0.0 0.0 2.4494897427831784e-07 0.0005337752335955651 0.0 0.0 0.0 0.0 0.0 0.0 0.0 0.0 0.0 0.0 0.0 0.0 0.0 0.0 0.0 0.0 0.0 0.0 0.0004995998398718718 0.0 0.0 0.00027959077237991965 0.0 0.0 0.0 0.0 0.0 0.0 0.0 0.0 0.0 0.0 0.0 0.0 0.0 0.0 0.0 0.0006083913214371158 0.0 0.0 0.0 0.0 0.0 0.0 0.0 0.0 0.0 0.0 0.0 0.0 0.0 0.0 0.00047821752372743514 0.0 0.0 0.0 0.0 0.0 0.0 0.0 0.0006293838256580795 0.0 0.0 0.0 0.0 0.0 0.0 0.0 0.0006704625269170531 0.0 0.0 0.0 0.0 0.0 0.0 0.0 0.0 0.0 0.0 0.0 0.0 0.0 0.0 0.0 0.0 0.0 0.0 0.0 0.0 0.0 0.0 0.0 0.0 0.0 0.0 0.0 0.0 0.0 0.0 0.0 0.0 0.0 0.0 0.0 0.0 0.0 0.0004858641785519902 0.0 0.0 0.0 0.0 0.0 0.0 0.0 0.0 0.0 0.0 0.0 0.0 0.0 0.0 0.0 0.0 0.0 0.0 0.0 0.0 0.0 0.0 0.0007637512684113854 0.0 0.0 0.0 0.0 0.0 0.0 0.0 0.0 0.0 0.0 0.0 0.0 0.0 0.0 0.0 0.0006884213825848237 0.0 0.0 0.0 0.0 0.0 0.0 0.0 0.0 0.0007303369085565922 0.0 0.0 0.0 0.0 0.0 0.0 0.0 0.0 0.0 0.0 0.0 0.0 0.0 0.0 0.0 0.0 0.0 0.0 0.0004835038779575612 0.0 0.0 0.0 0.0004595998259355632 0.0 0.0 0.0 0.0 0.0 0.0 0.0 0.0 0.0 0.00037974728438792065 0.0 0.0 0.0 0.0 0.0 0.0 0.0 0.0 0.0 0.0 0.0 0.0 0.0 0.0 0.0002584569596664011 0.0 0.0 0.0 0.0 0.0 0.0 0.0 0.0 0.0 0.0 0.0 0.0 0.0 0.0 0.0 0.0 0.0 0.0 0.0 0.0 0.0 0.0 0.00045342695111781807 0.0 0.0001383907511360485 0.0 0.0 0.0 0.0 0.0 0.0 0.0 0.0 0.0 0.0 0.00042412733936873244 0.0 0.0 0.0 0.0 0.0 0.0 0.0 0.0 0.0 0.0 0.0 0.0 0.0 0.0 0.0 0.0 0.0 0.0 0.0 0.0 0.0 0.0 0.0 0.0 0.0 0.0 0.0 0.0 0.0 0.0 0.0 0.0 0.0 0.0 0.0 0.0 0.0 0.0 0.0 0.0 0.0 0.0006678263247282187 0.0 0.0 0.0006808876559315787 0.0 0.0 0.0 0.0007909032810653906 0.0 0.0 0.0 0.0 0.0 0.0 0.0 0.0 0.0 0.0 0.0 0.0 0.0 0.000594572115054179 0.0 0.0 0.0 0.0 0.0 0.0 0.0 0.0 0.0 0.0 0.0 0.0 0.0 0.0 0.0 0.0 0.0 0.0 0.0 0.0 0.0 0.0 0.0 0.0 0.0 0.0 0.00042086102219141214 0.0 0.0 0.0 0.0 0.0006709456013716759 0.0 0.0 0.000345514109697419 0.0 0.0 0.0 0.0 0.0 0.0 0.0 0.0 0.0 0.0 0.0 0.000714072825417688 0.0 0.0 0.0 0.0 0.0 0.0 0.000691303117308175 0.0 0.0007314027618214192 0.0 0.0 0.0 0.0 0.0 0.0005928743543112652 0.0 0.0 0.0 0.0 0.0 0.0 0.0 0.0 0.0 0.0 0.0 0.0 0.0 0.0 0.00048275252459205277 0.0 0.0 0.0 0.0 0.0 0.0 0.0 0.0 0.0 0.0 0.0 0.0 0.0 0.0 0.0 0.0 0.0 0.0 0.0 0.0 0.0 0.00048072861366887676 0.0 0.0 0.0 0.0 0.0 0.0 0.0 0.0 0.0 0.00044615019892408394 0.0 0.0 0.0 0.0 0.0 0.0 0.0006380830666927307 0.0 0.0 0.0 0.0 0.0 0.0 0.0 0.0 0.0 0.0 0.0 0.0 0.0 0.0 0.0 0.0 0.0 0.0 0.0 0.0 0.0 0.0 0.0</DataArray>
<DataArray type="Float64" Name="g_cold" format="ascii">0.0 0.0 0.0 0.0 0.0 0.0 0.0 0.0 0.00044620223951847855 0.0 0.0 0.0 0.0 0.0 0.0 0.0 0.0 0.0 0.0 0.0 0.0 0.0 0.0 0.0 0.0 0.0 0.0 0.00041157798598966046 0.0 0.0 0.0 0.0 0.0 0.00032893227046202733 0.0 0.0 0.00038170202848728137 0.0006526074153358256 0.0 0.0 0.0 0.0 0.0 0.0006888370188595443 0.0 0.0 0.0002596082405304231 0.0 0.0 0.0 0.0 0.0 0.0 0.0 0.0 0.0 0.0 0.0 0.0 0.0 0.0 0.0 0.0003096715010318264 0.0 0.0 0.0 0.00026018539265551673 0.0 0.0 0.0 0.0 0.0 0.0005069481616016625 0.0 0.0005473540340139114 0.0 0.0 0.0 0.0 0.0 0.0 0.0 0.0002780223705950758 0.0 0.0 0.0 0.0 0.0 0.0 0.0 0.0 0.0 0.0005060597183646466 0.0 0.000178875483371266 0.0 0.0 0.0 0.0 0.0 0.0 0.0005870791412308924 0.0 0.0 0.00036147187728564743 0.0 0.0 0.0 0.0 0.0 0.0 0.0 0.0 0.0005175537827785633 0.0 0.0 0.0 0.0 0.0 0.0 0.0 0.0 0.0 0.0 0.0 0.0 0.0 0.0 0.0 0.0 0.0 0.0 0.0 0.0 0.0 0.0 0.0 0.0 0.0 0.0 0.0 0.0 0.000719348259237765 0.0 0.0 0.0 0.0 0.0 0.0 0.0 0.0005163931816633595 0.0 0.0 0.0 0.0 0.0006473499193391502 0.0 0.00021227792647471625 0.0 0.0 0.0 0.0 0.0 0.0 0.0 0.0 0.0 0.0 0.0 0.0 0.0 0.0 0.0 0.0 0.0 0.0 0.0 0.0005293976936750007 0.0 0.00034505350029873577 0.0007317526344799908 0.0 0.0 0.0 0.0 0.0 0.0003871200305698572 0.0 0.0 0.0 0.0 0.0 0.0 0.0 0.0 0.0 0.0 0.0 0.0 0.0 0.0 0.0004744069119104449 0.0 0.0 0.0 0.0 0.0 0.0 0.0 0.0 0.0 0.0 0.0 0.0 0.0 0.0 0.0 0.0 0.0 0.0 0.0 0.0 0.0 0.0 0.0 0.0 0.0006263081654173104 0.0 0.0 0.0 0.0 0.0005074070536250029 0.0 0.00014374254091394548 0.0 0.0 0.0 0.0 0.0 0.0 0.0 0.0 0.0 0.0 0.0 0.0 0.0 0.0 0.000684588867911538 0.0 0.0 0.0 0.0 0.0 0.0 0.0 0.0 0.0003912312846238169 0.0 0.0 0.0 0.0 0.0 0.0 0.0 0.0 0.0 0.0003392077800823644 0.0 0.0 0.0 0.0 0.0 0.0 0.0 0.0 0.0 0.0 0.0 0.0 0.0 0.0 0.0 0.0 0.0 0.0 0.0 0.0 0.0 0.0 0.0 0.000703606365852667 0.0 0.0005140641186354168 0.0 0.0 0.0 0.0 0.0005641470713106701 0.00043343040741092856 0.0 0.0 0.0 0.0 0.0 0.0 0.0 0.0 0.0 0.0 0.0003771762427147245 0.0 0.0 0.0 0.0 0.0 0.0 0.0 0.0006298110177413529 0.0 0.0 0.0 0.0 0.0 0.0 0.0 0.0 0.0 0.0 0.0 0.0 0.0 0.0 0.0 0.0 0.0 0.0 0.0 0.0 0.0 0.0 0.0 0.0 0.0 0.0 0.0 0.0 0.0 0.0 0.0 0.0 0.0 0.0 0.0 0.0 0.0 0.0 0.0 0.0004756699675913937 0.0 0.0 0.0 0.0 0.0 0.0 0.0 0.0 0.0 0.0 0.0 0.0 0.0 0.0 0.0 0.0 0.0 0.0 0.0 0.0 0.0 0.0 0.0 0.0 0.0 0.0 0.0 0.0 0.0 0.0 0.0 0.0 0.0 0.0 0.0 0.0 0.0 0.0 0.0 0.0 0.0 0.0 0.0 0.0 0.0 0.0 0.0007374465387982369 0.0 0.0 0.0 0.0007581737252012216 0.0 0.0 0.0 0.0 0.0 0.0 0.0 0.0 0.0 0.0007754530273237089 0.0 0.0 0.0 0.0 0.0 0.0 0.0 0.0 0.0 0.0 0.0 0.0 0.0 0.0 0.0 0.0 0.0 0.0 0.0 0.0 0.0 0.0 0.0 0.0 0.0 0.0 0.0 0.0 0.0 0.0 0.0 0.0 0.0 0.0 0.0 0.0 0.0 0.0009299609656246338 0.0 0.0 0.0 0.0 0.0 0.0 0.0 0.0 0.0 0.0 0.0 0.0 0.0 0.0 0.0 0.0 0.0 0.0 0.0 0.0 0.0 0.0 0.0 0.0 0.0007663728841663836 0.0 0.0 0.0 0.0 0.0 0.0 0.0 0.0 0.0 0.0 0.0 0.0 0.0 0.0 0.0 0.0 0.0</DataArray>
</PointData><Points>
<DataArray type="Float64" Name="Points" format="ascii" NumberOfComponents="3">0.00607539 0.00679226 0.00539122 0.00149024 0.00581491 0.0104894 0.0140294 0.00424724 0.00688484 0.00799383 0.00871752 0.000705244 0.0106095 0.00249412 0.00642111 0.00574238 0.00865494 0.00244507 0.00598027 0.00364413 0.0107661 0.00588324 0.00731666 0.00289054 0.0107719 0.00914809 0.014687 0.00285051 0.00318146 0.01316 0.0138602 0.0105147 0.00882241 0.00585256 0.00197604 0.0129501 0.00668484 0.00574064 0.00066887 0.0121966 0.00272697 0.00060993 0.00234639 0.00670094 0.00675562 0.0105842 0.00323844 0.00266462 0.00384865 0.00994931 0.000619688 0.00528098 0.0078841 0.00630885 0.00241125 0.00986786 0.00569115 0.0145574 0.00424819 0.0144015 0.00811814 0.01018 0.000720716 0.00401915 0.00948568 0.0018673 0.00891797 0.00600958 0.00456897 0.0112688 0.0069425 0.0125607 0.00895925 0.012132 0.00232793 0.00950138 0.00468582 0.00544605 0.00651576 0.0065343 0.0117463 0.00872999 0.00989983 0.0146771 0.00349295 0.00477765 0.00864359 0.00343389 0.00947553 0.0132246 0.00924498 0.00374643 0.00896995 0.00738553 0.00119594 0.013225 0.00937943 0.00916483 0.00977745 0.00739742 0.00421604 0.0146567 0.0117015 0.014386 0.0140299 0.00493633 0.00364971 0.0097932 0.00250762 0.00225679 0.0146692 0.010479 0.0140513 0.0147626 0.0092632 0.0147494 0.00430434 0.0137967 0.00149897 0.0132449 0.0119142 0.0151596 0.00437985 0.00787734 0.0067332 0.0085292 0.0114234 0.00923476 0.0129496 0.0142235 0.0121135 0.0147788 0.00485587 0.00443636 0.00068282 0.0125525 0.0127527 0.0104899 0.0042438 0.0117898 0.0146431 0.0118151 0.0109919 0.00696361 0.00284605 0.00165466 0.0114247 0.000916077 0.00512779 0.000609202 0.0045924 0.00972165 0.00555036 0.0134492 0.00405203 0.00433689 0.00117243 0.00137557 0.00673313 0.0116654 0.0152482 0.00794606 0.0106476 0.0104769 0.0131448 0.00817526 0.00546383 0.0145117 0.00611697 0.00464675 0.00872408 0.00608336 0.0104088 0.00075 0.00409756 0.00725433 0.000655028 0.0023648 0.0123777 0.00650728 0.00156766 0.00877202 0.0115758 0.00307924 0.0142752 0.00741178 0.000979625 0.00850509 0.0146526 0.00569912 0.000462717 0.0011052 0.00912127 0.0137484 0.00960135 0.00347277 0.0142705 0.0109844 0.00171272 0.00412678 0.0146432 0.0135219 0.00193652 0.00797525 0.00439655 0.0130904 0.000975234 0.0112036 0.00225412 0.0114277 0.0120275 0.00395444 0.00898643 0.0144463 0.00351461 0.00798204 0.00314751 0.00382419 0.0147063 0.000521343 0.00788966 0.00315247 0.00887304 0.00376238 0.0147205 0.00508717 0.00364859 0.0083036 0.00720279 0.00655857 0.0130618 0.00105986 0.000662196 0.0006668 0.0126113 0.0138763 0.00440025 0.000792354 0.0119039 0.0034981 0.00202392 0.00612818 0.000723943 0.00716674 0.00563195 0.00257893 0.00482809 0.0104351 0.0146464 0.00150856 0.0114638 0.00229876 0.00162385 0.00662829 0.00555675 0.00285441 0.0129482 0.0111079 0.00646963 0.0135378 0.0109422 0.00880234 0.013923 0.0122469 3.96556e-05 0.00625623 0.012852 0.0061693 0.000414962 0.0128239 0.0109268 0.00219484 0.00106632 0.00515242 0.015198 0.00422625 0.0148141 0.0151395 0.014706 0.0131 0.00696161 0.00855122 0.0114434 0.00365476 0.0146313 0.00925731 0.000792968 0.0107524 0.0136052 0.0026773 0.00062662 0.00565794 0.00285351 0.0052245 0.00547005 0.0011979 0.00339892 0.00873178 7.18069e-05 0.0125965 0.00332117 0.00405306 0.010019 0.0065188 0.00839051 0.0144568 0.000174113 0.00283328 0.00320817 0.00975939 0.0092363 0.0124287 0.011771 0.0104891 0.0144033 0.0105736 0.010927 0.0100025 0.0107071 0.000607339 0.003501 0.0148676 0.00774939 0.0143645 0.0142465 0.00591211 0.0140632 0.00589499 0.00710444 0.00114879 0.0144938 0.0125585 0.0103693 0.00592949 0.0141912 0.000942827 0.0063948 0.00524642 0.00522426 0.00292414 0.0135663 0.0144376 0.0137965 0.0027346 0.0061054 0.00620856 0.0138537 0.0135944 0.00035645 0.000646039 0.00902529 0.0131466 0.00914377 0.00398927 0.00480891 0.0047009 0.0113988 0.00507205 0.00878956 0.000900969 0.00717418 0.00660623 0.00397661 0.0115104 0.012056 0.0117416 0.00079264 0.000369278 0.00536481 0.00528223 0.00618288 0.00396078 0.00757073 0.0149229 0.00576712 0.00827226 0.0131248 0.0108958 0.000617085 0.00644941 0.00422873 0.0077038 0.0138268 0.00088762 0.0131697 0.00956822 0.00208568 0.0023806 0.01523 0.0123741 0.0152632 0.00208936 0.0050048 0.0150034 0.00921416 0.00273399 0.0153219 0.0130979 0.00702246 0.015129 0.00138894 0.0106933 0.00338584 0.0138859 0.00934699 0.0141461 0.00807365 0.00532744 0.00397581 0.0121973 0.00353009 0.00803939 0.00702778 0.010163 0.00829712 0.0114458 0.00443095 0.00126882 0.0138473 0.00594832 0.00491834 0.014211 0.00814338 0.00588674 0.00852358 0.0114412 0.0100714 0.00264291 0.0145 0.00218738 0.00233841 0.00320856 0.00757895 0.00944018 0.00612554 0.0105379 0.0105303 0.00585475 0.00422419 0.000387897 0.00572874 0.00292737 0.00536045 0.003963 0.00159165 0.0109355 0.00667666 0.00456813 0.00876622 0.0083155 0.0145561 0.0105624 0.0144373 0.003515 0.0109723 0.0049477 0.0153522 0.0093073 0.0127918 0.00487169 0.00246782 0.00246315 0.00873575 0.00609348 0.0028947 0.00637501 0.00623761 0.0144754 0.0147526 0.00233696 0.00908325 0.0126743 0.00481874 0.0143819 0.0118191 0.00114343 0.0101672 0.00484696 0.00194782 0.00861029 0.00741097 0.00763509 0.00560698 0.0125791 0.00901082 0.00895595 0.00169926 0.0147858 0.00832168 0.0094698 0.0151027 0.00646499 0.00465999 0.0111545 0.0063915 0.00590617 0.0122644 0.000940984 0.0123885 0.00156833 0.00684037 0.0121122 0.00381103 0.0106619 0.0102011 0.00215464 0.00997023 0.00649971 0.0109507 0.00602459 8.13702e-05 0.00329756 0.011013 0.00666201 0.00131922 0.00904682 0.00288363 0.0139019 0.00108259 0.00317955 0.0102793 0.00779309 0.0149702 0.0063632 0.00588892 0.000124501 0.00487725 0.00813646 0.0152559 0.0068442 0.00816808 0.0010597 0.0101758 0.0144407 0.00700069 0.012978 0.00242384 0.0136538 0.002775 0.0144004 0.000779133 0.00570903 0.0145045 0.0115829 0.00236578 0.00375752 0.00704337 0.00489268 0.0131249 0.00415418 0.00247236 0.0141488 0.014783 0.000146373 0.0127369 0.00996248 0.0144219 0.0133081 0.00802256 0.00718578 0.0144081 0.0132739 0.00486282 0.00259658 0.0042561 0.014971 0.000854171 0.0100693 0.0109278 0.00393022 0.0133143 0.0125977 0.0119869 0.00205943 0.0133424 0.0126482 0.00374513 0.000406272 0.00801039 0.00861077 0.000840003 0.00473938 0.0128325 0.000406028 0.012376 0.00353004 0.00377305 0.00307918 0.0043541 0.0103056 0.0121294 0.0126495 0.00605393 0.0123962 0.00740919 0.0127512 0.00921572 0.00915529 0.00167224 0.00309075 0.00393028 0.0139969 0.00401748 0.00713581 0.0153193 0.0144269 0.0114403 0.00914472 0.00281193 0.00341773 0.00913177 0.00452802 0.0116341 0.00996874 0.000881519 0.0152161 0.00971988 0.00766541 0.000486376 0.012347 0.00507476 0.0146204 0.00448616 0.00546627 0.00199941 0.00135838 0.00830171 0.00310005 0.00529155 0.00719383 0.0141709 0.00797178 0.00935235 0.00976742 0.00337406 0.0011585 0.013419 0.000240224 0.00787082 0.0150737 0.0090537 0.000866652 0.00195193 0.00299445 0.0117182 0.0151164 0.0112755 0.00652611 0.00638136 0.00616202 0.00959631 0.00872465 0.00955281 0.0035058 0.00435031 0.000157723 0.0027232 0.00432076 0.011315 0.00149917 0.00807657 0.00585839 0.0117625 0.00486798 0.00660491 0.0114124 0.00630637 0.0101197 0.0122873 0.0110439 0.00402159 0.00697564 0.00506421 0.0106465 0.00814377 0.0148519 0.0110787 0.00285167 0.0130539 0.000690971 0.0144687 0.0147755 0.00965921 0.00993437 0.00648788 0.00482532 0.00703205 0.00561265 0.0124423 0.00877662 0.00874496 0.00336308 0.0104407 0.000414716 0.00301974 0.014435 0.012239 0.00113018 0.000941556 0.00448544 0.00680444 0.0143758 0.00658472 0.00149776 0.00212827 0.0067481 0.000484619 0.00421367 0.00795754 0.0119188 0.000947192 0.00448698 0.00569677 0.00973162 0.00986433 0.01228 0.00561023 0.0122594 0.00555426 0.0088999 0.00182278 0.00197374 0.00504228 0.00725205 0.0146204 0.0121526 0.00092787 0.00138221 0.0120671 0.0105405 0.0128175 0.0095057 0.0133374 0.0143946 0.0135331 0.011864 0.00532912 0.00589607 0.0132044 0.00584453 0.000963948 0.0149362 0.00258243 0.0127666 0.00377715 0.000514191 0.0144878 0.00939229 0.0106789 0.00173092 0.00486577 0.00536557 0.00786375 0.000433959 0.0150769 0.0110798 0.00794318 0.00791706 0.0027331 0.00705966 0.00243753 0.00369211 0.0116873 0.00422744 0.0127785 0.00163724 0.0108783 0.00452183 0.000285364 0.0125984 0.00208086 0.001135 0.0141567 0.0144089 0.00506874 0.00918044 0.0135116 0.00184047 0.00891214 0.0132559 0.00184054 0.00548924 0.00880799 0.00785695 0.00702792 0.0009833 0.0152076 0.00573153 0.0110478 0.00118998 0.00998191 0.0105181 0.014565 0.000488317 0.00419775 0.00124312 0.00537173 0.00664681 0.00451728 0.00767029 0.00986101 0.010818 0.000459106 0.0143994 0.0136374 0.000826229 0.009668 0.00823907 0.0115722 0.00628904 0.0130683 0.00676374 0.00630154 0.0128032 0.0034528 0.0076192 0.00163878 0.00913126 0.00746235 0.00889286 0.000802093 0.014261 0.00247562 0.00150179 0.0010105 0.0024492 0.0126219 0.00489686 0.00820859 0.00311557 0.00231486 0.00693601 0.0101578 0.00419442 0.0117125 0.0151128 0.00622271 0.0091178 0.00538617 0.0102763 0.0080882 0.0133617 0.00457642 0.00020938 0.0150312 0.00705239 0.0111243 0.014756 0.0100516 0.00190463 0.0152701 0.00195021 0.00858778 0.00183319 0.000948601 0.0135108 0.0143549 0.00645274 0.0117345 0.012902 0.000995212 0.00831212 0.00403679 0.006517 0.0119319 0.0139659 0.0123015 0.0106687 0.00558336 0.0118022 0.000674742 0.000899415 0.00306838 0.00551094 0.00429016 0.0144944 0.0120691 0.0108719 0.00873989 0.00296646 0.0105623 0.0144367 0.00706887 0.00948763 0.00191238 0.0107004 0.00621795 0.00973315 0.00329754 0.00720364 0.00436879 0.0127676 0.0146903 0.000955029 0.000735238 0.0121735 0.0144502 0.00563893 0.00117094 0.0144176 0.00395075 0.00428928 0.0133566 0.00819413 0.0011843 0.00657694 0.0121117 0.0131113 0.0058347 0.00281581 0.00676473 0.00989842 0.00978609 0.00299837 0.00470415 0.00246622 0.01025 0.0120323 0.00566975 0.0053011 0.0019373 0.0102642 0.0136717 0.0113589 0.00791459 0.0059184 0.00627448 0.0104968 0.0140479 0.00515521 0.00196684 0.00717244 0.0144062 0.00526425 0.00558093 0.0130744 0.00355531 0.00309663 0.00125337 0.00811973 0.00890938 0.0134564 0.00962644 0.00538543 0.0070551 0.0150539 0.0108343 0.0114893 0.00735752 0.0126629 0.0124635 0.00328096 0.0120296 0.0132361 0.00339311 0.00839302 0.0144698 0.0057114 0.00742013 0.0129696 0.00620648 0.01194 0.0037954 0.00772183 0.00771192 0.0119861 0.00617176 0.0127114 0.00553547 0.01399 0.0126145 0.00577972 0.0129979 0.000805923 0.00521446 0.0146327 0.00521043 0.00376094 0.0127007 0.0108652 0.0126797 0.0103515 0.00382456 0.0112904 0.0146831 0.0141156 0.00492414 0.0055864 0.0035919 0.0127817 0.0119223 0.0105447 0.00452425 0.00954035 0.0132776 0.00337141 0.0112157 0.00258746 0.0082731 0.011211 0.0125173 0.00424896 0.00192045 0.00737731 0.00824591 0.0105534 0.00804262 0.00927686 0.01043 0.00120582 0.00533443 0.0135149 0.00237889 0.00417686 0.00198641 0.00713738 0.00306054 0.00442357 0.00148839 0.000888502 0.00161131 0.0128973 0.00794303 0.0118988 0.00616344 0.00259481 0.00734562 0.000348086 0.000884098 0.00424952 0.0128553 0.00560809 0.0147705 0.0135471 0.0143685 0.00726796 0.00464391 0.0105155 0.00167066 0.0125675 0.000843618 0.00416555 0.00830568 0.00301498 0.00569707 0.0093921 0.0067877 0.00766705 0.0111352 0.00266865 0.00817139 0.0140634 0.00808668 0.00623219 0.0150571 0.00256402 0.00454689 0.00251744 0.00673626 0.000791493 0.0144939 0.00387165 0.00290513 0.00148535 0.00660666 0.00853508 0.0134227 0.00638612 0.00786656 0.0016056 0.0104793 0.0064872 0.0133465 0.0073152 0.01076 0.00528444 0.0144272 0.00233117 0.00900378 0.00928503 0.00249763 0.0108497 0.000911621 0.00965257 0.0119065 0.0114317 0.0030226 0.0143458 0.00568564 0.0138369 0.0141208 0.003114 0.00770105 0.00252635 0.0143172 0.0137647 0.00563893 0.00772132 0.000229826 0.00804683 0.00666681 0.00770891 0.00256426 0.00542668 0.00284285 0.00548543 0.014355 0.00532203 8.41597e-06 0.00960384 0.00335521 0.00217301 0.00989558 0.0102803 0.00631212 0.00546378 0.014364 0.00735256 0.00105382 0.000996764 0.01125 0.0128214 0.00317724 0.00290011 0.00807727 0.0127582 0.00557857 0.00426021 0.0120291 0.00336225 0.00539971 0.0120973 0.00737969 0.00425398 0.0137936 0.00810126 0.00746735 0.003938 0.00297579 0.0115776 0.00381806 0.00693736 0.00819685 0.00487401 0.00426476 0.00609149 0.00659681 0.0152246 0.00779365 0.00171993 0.0116913 0.0110957 0.0128092 0.0025478 0.00931364 0.00851659 0.0114416 0.0100705 0.00632003 0.0139185 0.00406178 0.0141079 0.0107455 0.000955719 0.00242145 0.00167032 0.0130843 0.0141694 0.00124325 0.00120659 0.0106527 0.00100276 0.00727347 0.00237147 0.0111805 0.00931465 0.0032705 0.00496705 0.000887458 0.0129842 0.00290809 0.00238016 0.000569228 0.00203879 0.00149169 0.000622483 0.0107552 0.000970155 0.014865 0.00142743 0.00719306 0.00505184 0.0135154 0.00253366 0.0057041 0.0145039 0.00594182 0.010528 0.00466616 0.00870399 0.0126204 0.0124685 0.0140298 0.00739107 0.00303625 0.0120022 0.00401141 0.00216805 0.00448215 0.000370821 0.00603301 0.00209248 0.0104475 0.00491275 0.00372429 0.0082682 0.0134302 0.0142294 0.00486634 0.0102991 0.0033429 0.00973833 0.0133954 0.00114802 0.0106113 0.00965805 0.00784208 0.0123152 0.00704323 0.0142356 0.00640139 0.00704229 0.00747139 0.0112013 0.00684114 0.00750121 0.0098297 0.00745402 0.0113052 0.00914099 0.00225174 0.00806007 0.0137856 0.0128144 0.00115442 0.00925651 0.0116049 0.00812156 0.00831006 0.00487465 0.00114301 0.00113244 0.00434141 0.00445949 0.0125594 0.00703965 0.0104385 0.0103213 0.0122222 0.0142409 0.00429687 0.000957949 0.0124946 0.0133128 0.0121297 0.00387543 0.00992399 0.00866966 0.0011797 0.00344451 0.00845146 0.0065151 0.0134476 0.00996215 0.00643966 0.00953074 0.00223396 0.0125238 0.0147311 0.0038821 0.00140766 0.00216611 0.0132309 0.00289834 0.0140603 0.00435988 0.00968527 0.000524963 0.00325497 0.00672988 0.00612805 0.00122579 0.0061246 0.00949183 0.000130218 0.00894488 0.0118366 0.00210414 0.0133212 0.00135411 0.0134663 0.0100509 0.00277041 0.00359504 0.00603011 0.0130682 0.0109068 0.0106005 0.00167177 0.0070048 0.0122842 0.0122225 0.00780686 0.00120339 0.0136244 0.0144372 0.0109374 0.0137692 0.00434047 0.0120722 0.0099988 0.00770824 0.00356333 0.0047151 0.0128088 0.0107101 0.00258507 0.000295157 0.00399022 0.00572787 0.00844131 0.00453402 0.0134722 0.0120354 0.00770315 0.0142618 0.00750098 0.0120611 0.00418723 0.0139954 0.0127576 0.000781022 0.00762729 0.0101265 0.000645147 0.00446408 0.0127929 0.0041424 0.0100796 0.0100102 0.0107275 0.000363065 0.0118739 0.0150629 0.0100049 0.00475304 0.0086363 0.00838321 0.00817677 0.00801305 0.00494886 0.00850915 0.0114876 0.0140733 0.00278118 0.00350916 0.00837489 0.0116218 0.008439 0.0149795 0.00259205 0.00675671 0.0107337 0.0142936 0.0013596 0.00336519 0.00922808 0.010253 0.000386007 0.00120378 0.00372073 0.0124292 0.00779608 0.00873987 0.0109823 0.0130482 0.00635759 0.0110301 0.010236 0.0147823 0.0140638 0.00882267 0.00436875 0.00633361 0.00594134 0.00743457 0.0148893 0.00999036 0.00721159 0.0103469 0.00807194 0.000235121 0.0114449 0.00891905 0.00560331 0.00402616 0.00370227 0.00637274 0.00341169 0.00121019 0.00802251 0.00437102 0.00408155 0.00245443 0.0098718 0.00280099 0.00808488 0.00962179 0.0111205 0.0128523 0.000723253 0.00293194 0.00143911 0.00837452 0.00481 0.0140249 0.00727946 0.0032499 0.00157413 0.00799594 0.00116857 0.0116272 0.0113114 0.00247078 0.0116313 0.00866133 0.00591582 0.00570693 0.00174812 0.0108613 0.00920567 0.00458417 0.0130632 0.0114897 0.00915935 0.0109173 0.000902292 0.000913855 0.0142381 0.0132966 0.00907906 0.0135663 0.00387612 0.00638259 0.00231648 0.00937074 0.00824179 0.00583309 0.00683303 0.00286057 0.00768509 0.0132919 0.00217992 0.0113592 0.0152071 0.0147487 0.00152421 0.00539791 0.0119663 0.0128389 0.0124574 0.0137804 0.00887514 0.00271148 0.00498373 0.0118036 0.00241542 0.000277507 0.0101886 0.0153302 0.0132881 0.0122819 0.010603 0.0134602 0.00736035 0.0101893 0.00632024 0.00131599 0.00651711 0.00842311 0.0094191 0.00168404 0.0039278 0.00184435 0.0116419 0.00433572 0.00136481 0.0100212 0.00762411 0.01383</DataArray>
</Points><Verts>
<DataArray type="Int64" Name="connectivity" format="ascii">0 1 2 3 4 5 6 7 8 9 10 11 12 13 14 15 16 17 18 19 20 21 22 23 24 25 26 27 28 29 30 31 32 33 34 35 36 37 38 39 40 41 42 43 44 45 46 47 48 49 50 51 52 53 54 55 56 57 58 59 60 61 62 63 64 65 66 67 68 69 70 71 72 73 74 75 76 77 78 79 80 81 82 83 84 85 86 87 88 89 90 91 92 93 94 95 96 97 98 99 100 101 102 103 104 105 106 107 108 109 110 111 112 113 114 115 116 117 118 119 120 121 122 123 124 125 126 127 128 129 130 131 132 133 134 135 136 137 138 139 140 141 142 143 144 145 146 147 148 149 150 151 152 153 154 155 156 157 158 159 160 161 162 163 164 165 166 167 168 169 170 171 172 173 174 175 176 177 178 179 180 181 182 183 184 185 186 187 188 189 190 191 192 193 194 195 196 197 198 199 200 201 202 203 204 205 206 207 208 209 210 211 212 213 214 215 216 217 218 219 220 221 222 223 224 225 226 227 228 229 230 231 232 233 234 235 236 237 238 239 240 241 242 243 244 245 246 247 248 249 250 251 252 253 254 255 256 257 258 259 260 261 262 263 264 265 266 267 268 269 270 271 272 273 274 275 276 277 278 279 280 281 282 283 284 285 286 287 288 289 290 291 292 293 294 295 296 297 298 299 300 301 302 303 304 305 306 307 308 309 310 311 312 313 314 315 316 317 318 319 320 321 322 323 324 325 326 327 328 329 330 331 332 333 334 335 336 337 338 339 340 341 342 343 344 345 346 347 348 349 350 351 352 353 354 355 356 357 358 359 360 361 362 363 364 365 366 367 368 369 370 371 372 373 374 375 376 377 378 379 380 381 382 383 384 385 386 387 388 389 390 391 392 393 394 395 396 397 398 399 400 401 402 403 404 405 406 407 408 409 410 411 412 413 414 415 416 417 418 419 420 421 422 423 424 425 426 427 428 429 430 431 432 433 434 435 436 437 438 439 440 441 442 443 444 445 446 447 448 449 450 451 452 453 454 455 456 457 458 459 460 461 462 463 464 465 466 467 468 469 470 471 472 473 474 475 476 477 478 479 480 481 482 483 484 485 486 487 488 489 490 491 492 493 494 495 496 497 498 499</DataArray>
<DataArray type="Int64" Name="offsets" format="ascii">1 2 3 4 5 6 7 8 9 10 11 12 13 14 15 16 17 18 19 20 21 22 23 24 25 26 27 28 29 30 31 32 33 34 35 36 37 38 39 40 41 42 43 44 45 46 47 48 49 50 51 52 53 54 55 56 57 58 59 60 61 62 63 64 65 66 67 68 69 70 71 72 73 74 75 76 77 78 79 80 81 82 83 84 85 86 87 88 89 90 91 92 93 94 95 96 97 98 99 100 101 102 103 104 105 106 107 108 109 110 111 112 113 114 115 116 117 118 119 120 121 122 123 124 125 126 127 128 129 130 131 132 133 134 135 136 137 138 139 140 141 142 143 144 145 146 147 148 149 150 151 152 153 154 155 156 157 158 159 160 161 162 163 164 165 166 167 168 169 170 171 172 173 174 175 176 177 178 179 180 181 182 183 184 185 186 187 188 189 190 191 192 193 194 195 196 197 198 199 200 201 202 203 204 205 206 207 208 209 210 211 212 213 214 215 216 217 218 219 220 221 222 223 224 225 226 227 228 229 230 231 232 233 234 235 236 237 238 239 240 241 242 243 244 245 246 247 248 249 250 251 252 253 254 255 256 257 258 259 260 261 262 263 264 265 266 267 268 269 270 271 272 273 274 275 276 277 278 279 280 281 282 283 284 285 286 287 288 289 290 291 292 293 294 295 296 297 298 299 300 301 302 303 304 305 306 307 308 309 310 311 312 313 314 315 316 317 318 319 320 321 322 323 324 325 326 327 328 329 330 331 332 333 334 335 336 337 338 339 340 341 342 343 344 345 346 347 348 349 350 351 352 353 354 355 356 357 358 359 360 361 362 363 364 365 366 367 368 369 370 371 372 373 374 375 376 377 378 379 380 381 382 383 384 385 386 387 388 389 390 391 392 393 394 395 396 397 398 399 400 401 402 403 404 405 406 407 408 409 410 411 412 413 414 415 416 417 418 419 420 421 422 423 424 425 426 427 428 429 430 431 432 433 434 435 436 437 438 439 440 441 442 443 444 445 446 447 448 449 450 451 452 453 454 455 456 457 458 459 460 461 462 463 464 465 466 467 468 469 470 471 472 473 474 475 476 477 478 479 480 481 482 483 484 485 486 487 488 489 490 491 492 493 494 495 496 497 498 499 500</DataArray>
</Verts></Piece></PolyData></VTKFile>