<?xml version="1.0"?>
<VTKFile type="PolyData" version="0.1" byte_order="LittleEndian">
<PolyData>
<Piece NumberOfPoints="500" NumberOfVerts="500" NumberOfLines="0" NumberOfStrips="0" NumberOfPolys="0">
<PointData>
<DataArray type="Int64" Name="id" format="ascii">1 2 3 4 5 6 7 8 9 10 11 12 13 14 15 16 17 18 19 20 21 22 23 24 25 26 27 28 29 30 31 32 33 34 35 36 37 38 39 40 41 42 43 44 45 46 47 48 49 50 51 52 53 54 55 56 57 58 59 60 61 62 63 64 65 66 67 68 69 70 71 72 73 74 75 76 77 78 79 80 81 82 83 84 85 86 87 88 89 90 91 92 93 94 95 96 97 98 99 100 101 102 103 104 105 106 107 108 109 110 111 112 113 114 115 116 117 118 119 120 121 122 123 124 125 126 127 128 129 130 131 132 133 134 135 136 137 138 139 140 141 142 143 144 145 146 147 148 149 150 151 152 153 154 155 156 157 158 159 160 161 162 163 164 165 166 167 168 169 170 171 172 173 174 175 176 177 178 179 180 181 182 183 184 185 186 187 188 189 190 191 192 193 194 195 196 197 198 199 200 201 202 203 204 205 206 207 208 209 210 211 212 213 214 215 216 217 218 219 220 221 222 223 224 225 226 227 228 229 230 231 232 233 234 235 236 237 238 239 240 241 242 243 244 245 246 247 248 249 250 251 252 253 254 255 256 257 258 259 260 261 262 263 264 265 266 267 268 269 270 271 272 273 274 275 276 277 278 279 280 281 282 283 284 285 286 287 288 289 290 291 292 293 294 295 296 297 298 299 300 301 302 303 304 305 306 307 308 309 310 311 312 313 314 315 316 317 318 319 320 321 322 323 324 325 326 327 328 329 330 331 332 333 334 335 336 337 338 339 340 341 342 343 344 345 346 347 348 349 350 351 352 353 354 355 356 357 358 359 360 361 362 363 364 365 366 367 368 369 370 371 372 373 374 375 376 377 378 379 380 381 382 383 384 385 386 387 388 389 390 391 392 393 394 395 396 397 398 399 400 401 402 403 404 405 406 407 408 409 410 411 412 413 414 415 416 417 418 419 420 421 422 423 424 425 426 427 428 429 430 431 432 433 434 435 436 437 438 439 440 441 442 443 444 445 446 447 448 449 450 451 452 453 454 455 456 457 458 459 460 461 462 463 464 465 466 467 468 469 470 471 472 473 474 475 476 477 478 479 480 481 482 483 484 485 486 487 488 489 490 491 492 493 494 495 496 497 498 499 500</DataArray>
<DataArray type="Int32" Name="type" format="ascii">1 1 1 1 1 1 1 1 1 1 1 1 1 1 1 1 1 1 1 1 1 1 1 1 1 1 1 1 1 1 1 1 1 1 1 1 1 1 1 1 1 1 1 1 1 1 1 1 1 1 1 1 1 1 1 1 1 1 1 1 1 1 1 1 1 1 1 1 1 1 1 1 1 1 1 1 1 1 1 1 1 1 1 1 1 1 1 1 1 1 1 1 1 1 1 1 1 1 1 1 2 2 2 2 2 2 2 2 2 2 2 2 2 2 2 2 2 2 2 2 2 2 2 2 2 2 2 2 2 2 2 2 2 2 2 2 2 2 2 2 2 2 2 2 2 2 2 2 2 2 2 2 2 2 2 2 2 2 2 2 2 2 2 2 2 2 2 2 2 2 2 2 2 2 2 2 2 2 2 2 2 2 2 2 2 2 2 2 2 2 2 2 2 2 2 2 2 2 2 2 2 2 2 2 2 2 2 2 2 2 2 2 2 2 2 2 2 2 2 2 2 2 2 2 2 2 2 2 2 2 2 2 2 2 2 2 2 2 2 2 2 2 2 2 2 2 2 2 2 2 2 2 2 2 2 2 2 2 2 2 2 2 2 2 2 2 2 2 2 2 2 2 2 2 2 2 2 2 2 2 2 2 2 2 2 2 2 2 2 2 2 2 2 2 2 2 2 2 2 2 2 2 2 2 2 2 2 2 2 2 2 2 2 2 2 2 2 2 2 2 2 2 2 2 2 2 2 2 2 2 2 2 2 2 2 2 2 2 2 2 2 2 2 2 2 2 2 2 2 2 2 2 2 2 2 2 2 2 2 2 2 2 2 2 2 2 2 2 2 2 2 2 2 2 2 2 2 2 2 2 2 2 2 2 2 2 2 2 2 2 2 2 2 2 2 2 2 2 2 2 3 3 3 3 3 3 3 3 3 3 3 3 3 3 3 3 3 3 3 3 3 3 3 3 3 3 3 3 3 3 3 3 3 3 3 3 3 3 3 3 3 3 3 3 3 3 3 3 3 3 3 3 3 3 3 3 3 3 3 3 3 3 3 3 3 3 3 3 3 3 3 3 3 3 3 3 3 3 3 3 3 3 3 3 3 3 3 3 3 3 3 3 3 3 3 3 3 3 3 3</DataArray>
<DataArray type="Float64" Name="radius" format="ascii">0.00075 0.00075 0.00075 0.00075 0.00075 0.00075 0.00075 0.00075 0.00075 0.00075 0.00075 0.00075 0.00075 0.00075 0.00075 0.00075 0.00075 0.00075 0.00075 0.00075 0.00075 0.00075 0.00075 0.00075 0.00075 0.00075 0.00075 0.00075 0.00075 0.00075 0.00075 0.00075 0.00075 0.00075 0.00075 0.00075 0.00075 0.00075 0.00075 0.00075 0.00075 0.00075 0.00075 0.00075 0.00075 0.00075 0.00075 0.00075 0.00075 0.00075 0.00075 0.00075 0.00075 0.00075 0.00075 0.00075 0.00075 0.00075 0.00075 0.00075 0.00075 0.00075 0.00075 0.00075 0.00075 0.00075 0.00075 0.00075 0.00075 0.00075 0.00075 0.00075 0.00075 0.00075 0.00075 0.00075 0.00075 0.00075 0.00075 0.00075 0.00075 0.00075 0.00075 0.00075 0.00075 0.00075 0.00075 0.00075 0.00075 0.00075 0.00075 0.00075 0.00075 0.00075 0.00075 0.00075 0.00075 0.00075 0.00075 0.00075 0.001 0.001 0.001 0.001 0.001 0.001 0.001 0.001 0.001 0.001 0.001 0.001 0.001 0.001 0.001 0.001 0.001 0.001 0.001 0.001 0.001 0.001 0.001 0.001 0.001 0.001 0.001 0.001 0.001 0.001 0.001 0.001 0.001 0.001 0.001 0.001 0.001 0.001 0.001 0.001 0.001 0.001 0.001 0.001 0.001 0.001 0.001 0.001 0.001 0.001 0.001 0.001 0.001 0.001 0.001 0.001 0.001 0.001 0.001 0.001 0.001 0.001 0.001 0.001 0.001 0.001 0.001 0.001 0.001 0.001 0.001 0.001 0.001 0.001 0.001 0.001 0.001 0.001 0.001 0.001 0.001 0.001 0.001 0.001 0.001 0.001 0.001 0.001 0.001 0.001 0.001 0.001 0.001 0.001 0.001 0.001 0.001 0.001 0.001 0.001 0.001 0.001 0.001 0.001 0.001 0.001 0.001 0.001 0.001 0.001 0.001 0.001 0.001 0.001 0.001 0.001 0.001 0.001 0.001 0.001 0.001 0.001 0.001 0.001 0.001 0.001 0.001 0.001 0.001 0.001 0.001 0.001 0.001 0.001 0.001 0.001 0.001 0.001 0.001 0.001 0.001 0.001 0.001 0.001 0.001 0.001 0.001 0.001 0.001 0.001 0.001 0.001 0.001 0.001 0.001 0.001 0.001 0.001 0.001 0.001 0.001 0.001 0.001 0.001 0.001 0.001 0.001 0.001 0.001 0.001 0.001 0.001 0.001 0.001 0.001 0.001 0.001 0.001 0.001 0.001 0.001 0.001 0.001 0.001 0.001 0.001 0.001 0.001 0.001 0.001 0.001 0.001 0.001 0.001 0.001 0.001 0.001 0.001 0.001 0.001 0.001 0.001 0.001 0.001 0.001 0.001 0.001 0.001 0.001 0.001 0.001 0.001 0.001 0.001 0.001 0.001 0.001 0.001 0.001 0.001 0.001 0.001 0.001 0.001 0.001 0.001 0.001 0.001 0.001 0.001 0.001 0.001 0.001 0.001 0.001 0.001 0.001 0.001 0.001 0.001 0.001 0.001 0.001 0.001 0.001 0.001 0.001 0.001 0.001 0.001 0.001 0.001 0.001 0.001 0.001 0.001 0.001 0.001 0.001 0.001 0.001 0.001 0.001 0.001 0.001 0.001 0.001 0.001 0.001 0.001 0.001 0.001 0.001 0.001 0.001 0.001 0.001 0.001 0.001 0.001 0.001 0.001 0.001 0.001 0.001 0.001 0.001 0.001 0.001 0.001 0.001 0.001 0.001 0.001 0.001 0.001 0.001 0.001 0.001 0.001 0.00125 0.00125 0.00125 0.00125 0.00125 0.00125 0.00125 0.00125 0.00125 0.00125 0.00125 0.00125 0.00125 0.00125 0.00125 0.00125 0.00125 0.00125 0.00125 0.00125 0.00125 0.00125 0.00125 0.00125 0.00125 0.00125 0.00125 0.00125 0.00125 0.00125 0.00125 0.00125 0.00125 0.00125 0.00125 0.00125 0.00125 0.00125 0.00125 0.00125 0.00125 0.00125 0.00125 0.00125 0.00125 0.00125 0.00125 0.00125 0.00125 0.00125 0.00125 0.00125 0.00125 0.00125 0.00125 0.00125 0.00125 0.00125 0.00125 0.00125 0.00125 0.00125 0.00125 0.00125 0.00125 0.00125 0.00125 0.00125 0.00125 0.00125 0.00125 0.00125 0.00125 0.00125 0.00125 0.00125 0.00125 0.00125 0.00125 0.00125 0.00125 0.00125 0.00125 0.00125 0.00125 0.00125 0.00125 0.00125 0.00125 0.00125 0.00125 0.00125 0.00125 0.00125 0.00125 0.00125 0.00125 0.00125 0.00125 0.00125</DataArray>
<DataArray type="Float64" Name="diameter" format="ascii">0.0015 0.0015 0.0015 0.0015 0.0015 0.0015 0.0015 0.0015 0.0015 0.0015 0.0015 0.0015 0.0015 0.0015 0.0015 0.0015 0.0015 0.0015 0.0015 0.0015 0.0015 0.0015 0.0015 0.0015 0.0015 0.0015 0.0015 0.0015 0.0015 0.0015 0.0015 0.0015 0.0015 0.0015 0.0015 0.0015 0.0015 0.0015 0.0015 0.0015 0.0015 0.0015 0.0015 0.0015 0.0015 0.0015 0.0015 0.0015 0.0015 0.0015 0.0015 0.0015 0.0015 0.0015 0.0015 0.0015 0.0015 0.0015 0.0015 0.0015 0.0015 0.0015 0.0015 0.0015 0.0015 0.0015 0.0015 0.0015 0.0015 0.0015 0.0015 0.0015 0.0015 0.0015 0.0015 0.0015 0.0015 0.0015 0.0015 0.0015 0.0015 0.0015 0.0015 0.0015 0.0015 0.0015 0.0015 0.0015 0.0015 0.0015 0.0015 0.0015 0.0015 0.0015 0.0015 0.0015 0.0015 0.0015 0.0015 0.0015 0.002 0.002 0.002 0.002 0.002 0.002 0.002 0.002 0.002 0.002 0.002 0.002 0.002 0.002 0.002 0.002 0.002 0.002 0.002 0.002 0.002 0.002 0.002 0.002 0.002 0.002 0.002 0.002 0.002 0.002 0.002 0.002 0.002 0.002 0.002 0.002 0.002 0.002 0.002 0.002 0.002 0.002 0.002 0.002 0.002 0.002 0.002 0.002 0.002 0.002 0.002 0.002 0.002 0.002 0.002 0.002 0.002 0.002 0.002 0.002 0.002 0.002 0.002 0.002 0.002 0.002 0.002 0.002 0.002 0.002 0.002 0.002 0.002 0.002 0.002 0.002 0.002 0.002 0.002 0.002 0.002 0.002 0.002 0.002 0.002 0.002 0.002 0.002 0.002 0.002 0.002 0.002 0.002 0.002 0.002 0.002 0.002 0.002 0.002 0.002 0.002 0.002 0.002 0.002 0.002 0.002 0.002 0.002 0.002 0.002 0.002 0.002 0.002 0.002 0.002 0.002 0.002 0.002 0.002 0.002 0.002 0.002 0.002 0.002 0.002 0.002 0.002 0.002 0.002 0.002 0.002 0.002 0.002 0.002 0.002 0.002 0.002 0.002 0.002 0.002 0.002 0.002 0.002 0.002 0.002 0.002 0.002 0.002 0.002 0.002 0.002 0.002 0.002 0.002 0.002 0.002 0.002 0.002 0.002 0.002 0.002 0.002 0.002 0.002 0.002 0.002 0.002 0.002 0.002 0.002 0.002 0.002 0.002 0.002 0.002 0.002 0.002 0.002 0.002 0.002 0.002 0.002 0.002 0.002 0.002 0.002 0.002 0.002 0.002 0.002 0.002 0.002 0.002 0.002 0.002 0.002 0.002 0.002 0.002 0.002 0.002 0.002 0.002 0.002 0.002 0.002 0.002 0.002 0.002 0.002 0.002 0.002 0.002 0.002 0.002 0.002 0.002 0.002 0.002 0.002 0.002 0.002 0.002 0.002 0.002 0.002 0.002 0.002 0.002 0.002 0.002 0.002 0.002 0.002 0.002 0.002 0.002 0.002 0.002 0.002 0.002 0.002 0.002 0.002 0.002 0.002 0.002 0.002 0.002 0.002 0.002 0.002 0.002 0.002 0.002 0.002 0.002 0.002 0.002 0.002 0.002 0.002 0.002 0.002 0.002 0.002 0.002 0.002 0.002 0.002 0.002 0.002 0.002 0.002 0.002 0.002 0.002 0.002 0.002 0.002 0.002 0.002 0.002 0.002 0.002 0.002 0.002 0.002 0.002 0.002 0.002 0.002 0.002 0.002 0.002 0.002 0.002 0.002 0.002 0.002 0.0025 0.0025 0.0025 0.0025 0.0025 0.0025 0.0025 0.0025 0.0025 0.0025 0.0025 0.0025 0.0025 0.0025 0.0025 0.0025 0.0025 0.0025 0.0025 0.0025 0.0025 0.0025 0.0025 0.0025 0.0025 0.0025 0.0025 0.0025 0.0025 0.0025 0.0025 0.0025 0.0025 0.0025 0.0025 0.0025 0.0025 0.0025 0.0025 0.0025 0.0025 0.0025 0.0025 0.0025 0.0025 0.0025 0.0025 0.0025 0.0025 0.0025 0.0025 0.0025 0.0025 0.0025 0.0025 0.0025 0.0025 0.0025 0.0025 0.0025 0.0025 0.0025 0.0025 0.0025 0.0025 0.0025 0.0025 0.0025 0.0025 0.0025 0.0025 0.0025 0.0025 0.0025 0.0025 0.0025 0.0025 0.0025 0.0025 0.0025 0.0025 0.0025 0.0025 0.0025 0.0025 0.0025 0.0025 0.0025 0.0025 0.0025 0.0025 0.0025 0.0025 0.0025 0.0025 0.0025 0.0025 0.0025 0.0025 0.0025</DataArray>
<DataArray type="Float64" Name="conductivity" format="ascii">1.0 1.0 1.0 1.0 1.0 1.0 1.0 1.0 1.0 1.0 1.0 1.0 1.0 1.0 1.0 1.0 1.0 1.0 1.0 1.0 1.0 1.0 1.0 1.0 1.0 1.0 1.0 1.0 1.0 1.0 1.0 1.0 1.0 1.0 1.0 1.0 1.0 1.0 1.0 1.0 1.0 1.0 1.0 1.0 1.0 1.0 1.0 1.0 1.0 1.0 1.0 1.0 1.0 1.0 1.0 1.0 1.0 1.0 1.0 1.0 1.0 1.0 1.0 1.0 1.0 1.0 1.0 1.0 1.0 1.0 1.0 1.0 1.0 1.0 1.0 1.0 1.0 1.0 1.0 1.0 1.0 1.0 1.0 1.0 1.0 1.0 1.0 1.0 1.0 1.0 1.0 1.0 1.0 1.0 1.0 1.0 1.0 1.0 1.0 1.0 1.0 1.0 1.0 1.0 1.0 1.0 1.0 1.0 1.0 1.0 1.0 1.0 1.0 1.0 1.0 1.0 1.0 1.0 1.0 1.0 1.0 1.0 1.0 1.0 1.0 1.0 1.0 1.0 1.0 1.0 1.0 1.0 1.0 1.0 1.0 1.0 1.0 1.0 1.0 1.0 1.0 1.0 1.0 1.0 1.0 1.0 1.0 1.0 1.0 1.0 1.0 1.0 1.0 1.0 1.0 1.0 1.0 1.0 1.0 1.0 1.0 1.0 1.0 1.0 1.0 1.0 1.0 1.0 1.0 1.0 1.0 1.0 1.0 1.0 1.0 1.0 1.0 1.0 1.0 1.0 1.0 1.0 1.0 1.0 1.0 1.0 1.0 1.0 1.0 1.0 1.0 1.0 1.0 1.0 1.0 1.0 1.0 1.0 1.0 1.0 1.0 1.0 1.0 1.0 1.0 1.0 1.0 1.0 1.0 1.0 1.0 1.0 1.0 1.0 1.0 1.0 1.0 1.0 1.0 1.0 1.0 1.0 1.0 1.0 1.0 1.0 1.0 1.0 1.0 1.0 1.0 1.0 1.0 1.0 1.0 1.0 1.0 1.0 1.0 1.0 1.0 1.0 1.0 1.0 1.0 1.0 1.0 1.0 1.0 1.0 1.0 1.0 1.0 1.0 1.0 1.0 1.0 1.0 1.0 1.0 1.0 1.0 1.0 1.0 1.0 1.0 1.0 1.0 1.0 1.0 1.0 1.0 1.0 1.0 1.0 1.0 1.0 1.0 1.0 1.0 1.0 1.0 1.0 1.0 1.0 1.0 1.0 1.0 1.0 1.0 1.0 1.0 1.0 1.0 1.0 1.0 1.0 1.0 1.0 1.0 1.0 1.0 1.0 1.0 1.0 1.0 1.0 1.0 1.0 1.0 1.0 1.0 1.0 1.0 1.0 1.0 1.0 1.0 1.0 1.0 1.0 1.0 1.0 1.0 1.0 1.0 1.0 1.0 1.0 1.0 1.0 1.0 1.0 1.0 1.0 1.0 1.0 1.0 1.0 1.0 1.0 1.0 1.0 1.0 1.0 1.0 1.0 1.0 1.0 1.0 1.0 1.0 1.0 1.0 1.0 1.0 1.0 1.0 1.0 1.0 1.0 1.0 1.0 1.0 1.0 1.0 1.0 1.0 1.0 1.0 1.0 1.0 1.0 1.0 1.0 1.0 1.0 1.0 1.0 1.0 1.0 1.0 1.0 1.0 1.0 1.0 1.0 1.0 1.0 1.0 1.0 1.0 1.0 1.0 1.0 1.0 1.0 1.0 1.0 1.0 1.0 1.0 1.0 1.0 1.0 1.0 1.0 1.0 1.0 1.0 1.0 1.0 1.0 1.0 1.0 1.0 1.0 1.0 1.0 1.0 1.0 1.0 1.0 1.0 1.0 1.0 1.0 1.0 1.0 1.0 1.0 1.0 1.0 1.0 1.0 1.0 1.0 1.0 1.0 1.0 1.0 1.0 1.0 1.0 1.0 1.0 1.0 1.0 1.0 1.0 1.0 1.0 1.0 1.0 1.0 1.0 1.0 1.0 1.0 1.0 1.0 1.0 1.0 1.0 1.0 1.0 1.0 1.0 1.0 1.0 1.0 1.0 1.0 1.0 1.0 1.0 1.0 1.0 1.0 1.0 1.0 1.0 1.0 1.0 1.0 1.0 1.0 1.0 1.0 1.0 1.0 1.0 1.0 1.0 1.0 1.0 1.0 1.0 1.0 1.0</DataArray>
<DataArray type="Float64" Name="temperature" format="ascii">300.2857695095188 300.18348700942454 300.8558286514552 nan 300.77714236915125 300.1571909433184 300.5665262726003 300.6108783114872 300.8316891649998 300.78246146996867 300.3278979019079 300.96150588728284 300.15541510932184 300.96019065615405 300.9074484502991 300.82216063233 300.65039801482556 300.811727366849 300.08947970952084 300.0809829340999 300.7824404775971 300.330647541182 300.3280000544337 300.19126709544156 300.4658627512243 300.52714464409496 300.1734308361524 300.85567530217367 300.95541916363686 300.515938430737 300.23245875615544 300.14145248010925 300.371157147169 300.9557707827677 300.8325211067481 300.0447362340213 300.5595507474215 300.95692218925876 300.6662996920824 300.6519688359057 300.6622733808908 300.20512292581304 300.2955556116824 300.0585065999161 300.84374200703957 300.678680534881 300.35932799523937 300.2878652861667 300.04644555371493 300.20841058878375 nan 300.2401557415319 300.18053763644946 300.13190089670206 300.2638104764402 300.03405639332345 300.5867969257649 300.82835152082424 300.9568971520734 300.1845434808347 300.83303035333296 300.5030666496341 300.8466048203163 300.3410511491091 300.2365763142591 nan 300.58388038370117 300.4436753678078 300.95065142010446 300.95843388336806 300.0515665778307 300.63571567486883 300.0809829340999 300.6294110774351 300.5732978229296 300.1990437565038 300.9438320142931 300.52069550996356 nan 300.72869823749045 300.94582896457746 300.7256501381472 300.69681439941684 300.49950246524463 300.0453569050436 300.1571909433184 300.7276758557263 300.6142222906343 300.26315748212375 300.5136213364415 300.0463409850316 300.8299404076473 300.3042058888963 300.955492130724 300.6920016036836 300.77743368277936 300.75347012101474 300.0660440684971 300.60277983010235 nan 300.05107562733644 300.09190050864936 300.81844970117635 300.0674266123044 300.8544469285914 300.77764557738516 300.7514548702301 300.721150262879 300.3376622939768 300.1278803092793 300.4248380839399 300.06690699551865 300.95016973449606 300.6872357562452 300.57606418289447 300.7560252517938 300.7121461246569 300.3610940777332 300.93665543208976 300.6780207935425 300.19211206011573 300.73565082955014 300.50438156269695 300.14413438619147 300.3575795422316 300.26670891348743 300.06148674610006 300.40916610174565 300.3529271298628 300.46625828711564 300.50565225543943 300.6793412858372 300.93578903683397 300.423448107848 300.52319705308827 300.8956539921641 300.13201383666626 300.78837749124375 300.5245316798525 300.0488609417092 300.57481306692665 300.8050699251647 300.5166623967045 300.22217562513106 300.94836861092324 300.5378354953718 300.915814342119 300.2999349498011 300.93214019418645 300.47976433741695 300.52069550996356 300.0488142579609 300.71987515325344 300.4938291801812 300.8360239185493 300.32179365082027 300.1762314985519 300.4659441432144 300.0678185549985 300.4762549523537 300.3102678337229 300.15664137078636 300.95435711064147 300.18299691165 300.94641481903545 300.2819424621309 300.6266120346877 300.5326051273946 300.7623212938615 300.3601497766019 300.06116577441117 300.4175778689583 300.6499038299208 300.30066251442213 300.5886803722974 300.82701241999985 300.57286236027295 300.75892965348066 300.6050926042964 300.3657587360563 300.05869027321836 300.9378396631443 300.6937568173205 300.95760537159026 300.9027419747117 300.8163495885657 300.86740768526045 300.2799868118205 300.40718483579326 300.78299729019716 300.1766314595004 300.9404656987389 300.50228797798667 300.1699654083254 300.5839749567395 300.56091329794685 300.1217732891989 300.77383050817525 300.50100001033786 300.43660777092686 300.261764451737 300.5716356371502 300.75608729409964 300.16800602038023 300.3466832072542 300.68647085921583 300.34266418176975 300.1709419707324 300.06752243075357 300.5534398179948 300.3995175860186 300.5809028822748 300.2616299059123 300.8285559769692 300.28135125982794 300.8397508263449 300.1758300022796 300.2647343550005 300.64180345319915 300.7462507498447 300.18785957434125 300.4490176357876 300.5696403778207 300.8339038267994 300.50502180570527 300.0616965055038 300.19282267401485 300.8222555872099 300.9388270433683 300.356776558844 300.06277514430957 300.8773504225026 300.55131306920214 300.3017410980213 300.262937163498 300.5238553018333 300.24417759121167 300.31081034607496 300.6176211721795 300.30595772355076 300.94369858402916 300.076416011529 300.2701719133287 300.8706342274278 300.62888833644075 300.9354083007243 300.6397841352551 300.7948785543698 300.93356910346733 300.34384220228935 300.0559543930354 300.9500998985237 300.4378467262899 nan 300.3490634558832 300.2153579864409 300.6840420628065 300.2307362239733 300.3457787328706 300.89103483382735 300.5158679385538 300.0789073788123 300.7779554699651 300.8826108437722 300.0808396274378 300.15008496403425 300.5856540244879 300.1283708725489 300.7769913589102 300.0651742293609 300.9413408712301 300.157889355809 300.595271661759 300.2434454823018 300.50228797798667 300.2698220434066 300.94343921776965 300.4977286850101 300.43167504358945 300.93644057288293 300.9397653021197 300.38479071455396 300.0633342372027 300.85862963145075 300.1452732968893 300.7027495456812 300.20037677222945 300.8285171147594 300.76793820177693 300.4724306722516 300.88009144035357 300.2000996773458 300.7225153464876 300.67641765160863 300.150354657359 300.8386539925539 300.59726987935795 300.0791133642427 300.38407070745484 300.27112776211237 300.06039078376017 300.3906777788269 300.5065003525108 300.313065218902 300.6461680556252 300.61701183964277 300.69511569541737 300.22847867547034 300.9403307903267 300.783421081545 300.5262487641289 300.4411441484505 300.8259602161791 300.16667816761145 nan 300.6195465058676 300.0707332355984 300.51031364520094 300.25146998144726 300.3733781975203 300.2327283344628 300.47222840855966 300.06971895090453 300.49008023087566 300.05586397306934 300.20024153696465 300.2951713695862 300.41756792642093 300.9398377542957 300.1583708368693 300.08448884769535 300.7054252219558 300.2467188604733 300.56640509501426 300.459010612743 300.758054040159 300.40631224753207 300.739152181528 300.631255629607 300.93505072530263 300.9295017552011 300.5633822856398 300.28336747117464 300.1888923274245 300.1184539545727 300.7742412384343 300.2276914314256 300.83551760143126 300.62070785202144 300.9420294506201 300.1157151704021 300.08982522903773 300.19106029643325 300.47723982062416 300.9442735643088 300.7459523991106 300.4569160374002 300.32201088384073 300.4549001151345 300.8651758666876 300.6060015267486 300.7384349139437 300.0747773665387 300.94939037050847 300.5300371500796 300.7915112660319 300.2062875221344 300.68005343565034 300.9167256675016 300.1640745246972 300.4266083683809 300.0897960109839 300.3950097388592 300.7718766925055 300.23192479079665 300.2659102682379 300.37798834517855 300.28594963844057 300.69384344048365 300.677521633426 300.07305584809603 300.21660555646844 300.9276213916487 300.9561769279513 300.18544304634355 300.311679710075 300.5245577245505 300.44370872237295 300.15264460864546 300.2282699498431 300.75592815863047 300.852113449134 300.7426123762127 300.35296324218956 300.05802204356854 300.05063434032076 300.38855985451494 300.48338972613743 300.54841157673377 300.0570142631293 300.1430286325438 300.9204402777988 300.51516343959287 300.3951358342474 300.60673111327753 300.97286692618684 300.26443135202214 300.333774669537 300.1417637542581 300.3640945522259 300.1811590284355 300.82576013149344 300.7176589212665 300.74990619217317 300.08527433687004 300.5631387984581 300.2481458189582 300.935143167177 300.2521070504731 300.2805821461811 300.638270103196 300.46485688427924 300.2742156843673 300.5740725856174 300.2269768002313 300.69153428661286 300.77699636635174 300.57350191394846 300.82528855403524 300.838939069691 300.1602464913364 300.687368764447 300.3129155679417 300.645948812743 300.43913985556554 300.6115076706636 300.77781018451 300.38234108598533 300.4116183704988 300.7574629009018 300.8341436513146 300.35976386383913 300.2715910648112 300.84000414684 300.51980243914403 300.2743725722637 300.8888918144989 300.54152085382356 300.9181410895592 300.72370536012625 300.5046074823581 300.66194498422 300.20920693523016 300.408652997065 300.4739231258442 300.5777459110981 300.73823574868993 300.19134767134994 300.0794181790498 300.7087236863656 300.25778126165585 300.13097624899694 300.71188828590726 300.7841184154324 300.6433312088672 300.1976790851338 300.14186889170776 300.38154098731525 300.0958777478729 300.38479367088155 300.8222863939505 300.9341421260087 300.53036435753125 300.93582267197706 300.3360639652124 300.6307363579072 300.32887551666977 300.8247909022432 300.71062946356835 300.3360153333231 300.47253130992067 300.66340735367123 300.92106675323924 300.62332363685897 300.5732978229296 300.9269023055021 300.6050182025314 300.4273455734903 300.3950485012874 300.8403069791053 300.2878429236046 300.583915836861 300.3392287629844 300.17225525959356 300.4580753759287 300.4397727121646 300.5002851303603 300.2448948842759 300.7255613645234 300.1836675286545</DataArray>
<DataArray type="Float64" Name="g_hot" format="ascii">0.0 0.0 0.0 0.0 0.0 0.0 0.0 0.0 0.0 0.0 0.0 0.00042377942375721855 0.0 0.00048630545956219746 0.0 0.0 0.0 0.0 0.0 0.0 0.0 0.0 0.0 0.0 0.0 0.0 0.0 0.0 0.0005285877410610278 0.0 0.0 0.0 0.0 0.0004108211289600378 0.0 0.0 0.0 0.00035784773298150145 0.0 0.0 0.0 0.0 0.0 0.0 0.0 0.0 0.0 0.0 0.0 0.0 0.0 0.0 0.0 0.0 0.0 0.0 0.0 0.0 0.00037217737706636615 0.0 0.0 0.0 0.0 0.0 0.0 0.0 0.0 0.0 0.0006310847803583922 0.0006857718279427934 0.0 0.0 0.0 0.0 0.0 0.0 0.00028119566141745486 0.0 0.0 0.0 0.0007324527288501287 0.0 0.0 0.0 0.0 0.0 0.0 0.0 0.0 0.0 0.0 0.0 0.0 0.0005792408825350641 0.0 0.0 0.0 0.0 0.0 0.0 0.0 0.0 0.0 0.0 0.0 0.0 0.0 0.0 0.0 0.0 0.0 0.0 0.0006367291417863644 0.0 0.0 0.0 0.0 0.0 0.0005444814046411504 0.0 0.0 0.0 0.0 0.0 0.0 0.0 0.0 0.0 0.0 0.0 0.0 0.0 0.0004109598520537016 0.0 0.0 0.0 0.0 0.0 0.0 0.0 0.0 0.0 0.0 0.0 0.00034789078746066276 0.0 0.0006626039541083347 0.0 0.0003122627099094608 0.0 0.0 0.0 0.0 0.0 0.0 0.0 0.0 0.0 0.0 0.0 0.0 0.0 0.0004410940942701454 0.0 0.0005450651337225673 0.0 0.0 0.0 0.0 0.0 0.0 0.0 0.0 0.0 0.0 0.0 0.0 0.0 0.0 0.0 0.0 0.00021786234185833877 0.0 0.0002903446228191592 0.0 0.0 0.0 0.0 0.0 0.0 0.0 0.00027448861542876376 0.0 0.0 0.0 0.0 0.0 0.0 0.0 0.0 0.0 0.0 0.0 0.0 0.0 0.0 0.0 0.0 0.0 0.0 0.0 0.0 0.0 0.0 0.0 0.0 0.0 0.0 0.0 0.0 0.0 0.0 0.0 0.0 0.0 0.0 0.0 0.0 0.0005929114605065414 0.0 0.0 0.0 0.0 0.0 0.0 0.0 0.0 0.0 0.0 0.0 0.000598952418811378 0.0 0.0 0.0 0.0 0.0005456519036895228 0.0 0.0 0.00068523280715389 0.0 0.0 0.00031789306378088837 0.0 0.0 0.0 0.0 0.0 0.0 0.0 0.0 0.0 0.0 0.0 0.0 0.0 0.0 0.0 0.0 0.0 0.0 0.0005193804000922636 0.0 0.0 0.0 0.0 0.0 0.0005210259110639316 0.0 0.0 0.0005531039685267138 0.0008357056898214827 0.0 0.0 0.0 0.0 0.0 0.0 0.0 0.0 0.0 0.0 0.0 0.0 0.0 0.0 0.0 0.0 0.0 0.0 0.0 0.0 0.0 0.0 0.0 0.0 0.0 0.0 0.0 0.0003884533434017529 0.0 0.0 0.0 0.0 0.0 0.0 0.0 0.0 0.0 0.0 0.0 0.0 0.0 0.0 0.0 0.0 0.0 0.0 0.0 0.0005252580318281672 0.0 0.0 0.0 0.0 0.0 0.0 0.0 0.0 0.0 0.0 0.0004675767316708566 0.000570918558114903 0.0 0.0 0.0 0.0 0.0 0.0 0.0 0.0 0.0004630550723186173 0.0 0.0 0.0 0.0 0.00045391629184244996 0.0 0.0 0.0 0.0 0.0 0.0 0.0 0.0 0.0003111848325352633 0.0 0.0 0.0 0.0 0.0 0.0 0.0 0.0 0.0 0.0 0.0 0.0 0.0 0.0 0.0 0.0 0.0 0.0 0.0002716468295415952 0.0002459512146747799 0.0 0.0 0.0 0.0 0.0 0.0 0.0 0.0 0.0 0.0 0.0 0.0 0.0 0.0 0.0 0.0 0.0 0.00078679730553682 0.0 0.0 0.0 0.0002448468909339072 0.0 0.0 0.0 0.0 0.0 0.0 0.0 0.0 0.0 0.0 0.0 0.000889044430835715 0.0 0.0 0.0 0.0 0.0 0.0 0.0 0.0 0.0 0.0 0.0 0.0 0.0 0.0 0.0 0.0 0.0 0.0 0.0 0.0 0.0 0.0 0.0 0.0 0.0 0.0 0.0 0.0 0.0 0.0 0.00012806248474865769 0.0 0.0 0.0 0.0 0.0 0.0 0.0 0.0 0.0 0.0 0.0 0.0 0.0 0.0 0.0 0.0 0.0 0.0 0.0 0.0 0.0 0.0 0.0009051519209502901 0.0 0.0004039801975344832 0.0 0.0 0.0 0.0 0.0 0.0 0.0 0.0 0.0007086254299698822 0.0 0.0 0.0006518818911428667 0.0 0.0 0.0 0.0 0.0 0.0 0.0 0.0 0.0 0.0 0.0 0.0 0.0 0.0</DataArray>
<DataArray type="Float64" Name="g_cold" format="ascii">0.0 0.0 0.0 0.0 0.0 0.0 0.0 0.0 0.0 0.0 0.0 0.0 0.0 0.0 0.0 0.0 0.0 0.0 0.0 0.0 0.0 0.0 0.0 0.0 0.0 0.0 0.0 0.0 0.0 0.0 0.0 0.0 0.0 0.0 0.0 0.00037093993927764994 0.0 0.0 0.0 0.0 0.0 0.0 0.0 0.0007280085429109349 0.0 0.0 0.0 0.0 0.0006558173820136994 0.0 0.0 0.0 0.0 0.0 0.0 0.0003569263769341021 0.0 0.0 0.0 0.0 0.0 0.0 0.0 0.0 0.0 0.0 0.0 0.0 0.0 0.0 0.0003028141980675665 0.0 0.0 0.0 0.0 0.0 0.0 0.0 0.0 0.0 0.0 0.0 0.0 0.0 0.0005549742683686373 0.0 0.0 0.0 0.0 0.0 0.0003125642950679175 0.0 0.0 0.0 0.0 0.0 0.0 0.00035439587829333603 0.0 0.0 0.0003547702327822855 0.0 0.0 0.0006405169147402753 0.0 0.0 0.0 0.0 0.0 0.0 0.0 0.0005877600854671891 0.0 0.0 0.0 0.0 0.0 0.0 0.0 0.0 0.0 0.0 0.0 0.0 0.0 0.0 0.0003102610482616313 0.0 0.0 0.0 0.0 0.0 0.0 0.0 0.0 0.0 0.0 0.0 0.0 0.0005788453317324099 0.0 0.0 0.0 0.0 0.0 0.0 0.0 0.0 0.0 0.0 0.0 0.0006259887523497522 0.0 0.0 0.0 0.0 0.0 0.0 0.0002840104189433933 0.0 0.0 0.0 0.0 0.0 0.0 0.0 0.0 0.0 0.0 0.0 0.0005704926976468718 0.0 0.0 0.0 0.0 0.0 0.0 0.0 0.0 0.0 0.0004868900472061457 0.0 0.0 0.0 0.0 0.0 0.0 0.0 0.0 0.0 0.0 0.0 0.0 0.0 0.0 0.0 0.0 0.0 0.0 0.0 0.0 0.0 0.0 0.0 0.0 0.0 0.0 0.0 0.0005290197709617272 0.0 0.0 0.0 0.0 0.0 0.0 0.0 0.0 0.0 0.0 0.0 0.0 0.0 0.0 0.0 0.0 0.000676654947568116 0.0 0.0 0.0 0.0 0.0006163293908847779 0.0 0.0 0.0 0.0 0.0 0.0 0.0 0.0 0.0 0.0 0.0006224643910043351 0.0 0.0 0.0 0.0 0.0 0.0 0.0 0.0 0.0005402424622966955 0.0 0.0 0.0 0.0 0.0 0.0 0.0 0.0 0.0 0.0 0.0007182352804397723 0.0 0.0 0.0008771897845212318 0.0 0.0 0.0 0.0 0.0006892473562288106 0.0 0.0 0.0 0.0 0.0 0.0 0.0 0.0 0.0 0.0 0.0 0.0 0.000719348259237765 0.0 0.0 0.0 0.0 0.0 0.0 0.0 0.0 0.0 0.0 0.0 0.0 0.0 0.0 0.0005530478442851004 0.0 0.0 0.0004727175880675483 0.0 0.0 0.0 0.0 0.0 0.0 0.0 0.0 0.0 0.0 0.0 0.0 0.0 0.0 0.0 0.0006420762556491271 0.0 0.0 0.0 0.0 0.0 0.00045897921311145116 0.0 0.0006562483661453222 0.0 0.0 0.0 0.0 0.0 0.0 0.0 0.0 0.0 0.0 0.0 0.0 0.0 0.0 0.0 0.0 0.0 0.0 0.0 0.0 0.0 0.0 0.0 0.0 0.0 0.0 0.0 0.0 0.0 0.0 0.0 0.0 0.0 0.0 0.0 0.0 0.0 0.0008009131776094098 0.0 0.0 0.0 0.0 0.0 0.0 0.0 0.0 0.00027687888700368213 0.0 0.0 0.0 0.0 0.0 0.0 0.0 0.0 0.0006608039936837526 0.0 0.0 0.0 0.0 0.0 0.0 0.0 0.0 0.0 0.0 0.0 0.0 0.0 0.00034965971753750033 0.0002558552678144595 0.0 0.0 0.0 0.0006701208234851433 0.0 0.0 0.0 0.0 0.0 0.0 0.0 0.0 0.0 0.0 0.0 0.0 0.0 0.0 0.0008478368932675087 0.0 0.0 0.0 0.0 0.0 0.0 0.0 0.0 0.0 0.0 0.0 0.0 0.0 0.0 0.0 0.0 0.0 0.0 0.0 0.0 0.0 0.0 0.0 0.0 0.0 0.0 0.0 0.0 0.0 0.0 0.0 0.0 0.0 0.0 0.0 0.0 0.0 0.0 0.0 0.0 0.0 0.0 0.0 0.0004932822696849111 0.0 0.0 0.0 0.0 0.0 0.0 0.0 0.0 0.0 0.00036514024372218964 0.0 0.0 0.0 0.0 0.0 0.0 0.0 0.0 0.0 0.0 0.0 0.0 0.0 0.0 0.0 0.0 0.0 0.0 0.0 0.0 0.0 0.0 0.0 0.0 0.0 0.0 0.0 0.0 0.0 0.0 0.0</DataArray>
</PointData><Points>
<DataArray type="Float64" Name="Points" format="ascii" NumberOfComponents="3">0.00642808 0.00850785 0.0115569 0.0120993 0.00865447 0.0127393 0.0038046 0.0107001 0.00256378 0.000882812 0.00667697 0.00411837 0.0143451 0.0094767 0.00275256 0.0151944 0.00208165 0.0146206 0.007736 0.0137346 0.00683211 0.00651416 0.00667835 0.00581867 0.00398258 0.00278295 0.00234325 0.00675508 0.0147449 0.00334001 0.0082447 0.00308038 0.0102432 0.00471972 0.00882049 0.000690137 0.00888319 0.0084004 0.013332 0.0146381 0.00632593 0.000671169 0.00343829 0.00039352 0.00114378 0.0138119 0.00618114 0.00212578 0.00114487 0.00491132 0.00496572 0.0047474 0.00718742 0.00263053 0.00906804 0.0109464 0.0142583 0.0093147 0.00643334 0.0146206 0.00538414 0.0145883 0.0032387 1.95902e-05 0.00795921 0.0102128 0.00304871 0.00577446 0.0100454 0.0117395 0.00256314 0.0125983 0.0116455 0.0062419 0.00848989 0.0125226 0.00613472 0.00736303 0.00519271 0.00279148 0.0127897 0.00712106 0.00778574 0.00212049 0.0147217 0.00314671 0.000656865 0.0060996 0.0026863 0.0076389 0.00687267 0.00686366 0.0118414 0.00104496 0.00610336 0.0132362 0.00872168 0.000245843 0.00957164 0.0113902 0.0148176 0.000693742 0.0109401 0.00598879 0.00207743 0.000591021 0.00369357 0.0146665 0.00884155 0.000201353 0.00577441 0.00476023 0.000881586 0.000707315 0.00663215 0.00466229 0.00508471 0.0137217 0.000933779 0.0052833 0.0152175 0.00973284 0.00518296 0.0121289 0.00392921 0.0121523 0.00747626 0.00212588 0.0110825 0.00959909 0.0146924 0.0147973 0.00880302 0.00231363 0.00266004 0.0108399 0.00979099 0.00501462 0.0152443 0.0149189 0.00987744 7.34972e-05 0.00202894 0.0107569 0.0136284 0.00513488 0.014764 0.00342795 0.00320626 0.0117655 0.00933445 0.00381482 0.0146206 0.00313421 0.0152634 0.0115823 0.0030031 0.00418865 0.0129802 0.0124763 0.00736174 0.0132726 0.00776602 0.00353625 0.0115583 0.0124548 0.00797211 0.0146631 0.0050941 0.0111239 0.00699144 0.00716683 0.0110802 0.003366 0.00950464 0.0150695 0.000703828 0.00441645 0.0039621 0.0126031 0.0118346 0.00377227 0.00248707 0.01049 0.00556438 0.00784145 0.00320212 0.0120724 0.00255199 0.0119568 0.000804158 0.0105054 0.0126913 0.00525232 0.0117669 0.00786966 0.00306976 0.0146206 0.0132544 0.00572846 0.00619181 0.00476754 0.003067 0.0083478 0.0054026 0.00607702 0.000617244 0.0109845 0.0115551 0.000593239 0.0109032 0.0140394 0.0146512 0.00263439 0.0140451 0.00553218 0.0103195 0.00534655 0.0143771 0.000451424 0.00223555 0.00662947 0.00388685 0.00795318 0.00474142 0.00407759 0.0149831 0.0126492 0.000105943 0.00989516 0.000723643 0.0102795 0.00804677 0.00930903 0.00550008 0.00208333 0.00276184 0.00743566 0.00555285 0.00430443 0.0135132 0.012432 0.000571171 0.014937 0.00408346 0.00404732 0.0033397 0.000505694 0.00463436 0.00626333 0.00123138 0.00766311 0.0110366 0.0124823 0.0147233 0.000708179 0.00126421 0.0137264 0.000336763 0.0015382 0.00441614 0.00658132 0.0141706 0.00595027 0.00298775 0.0138353 0.0114749 0.00632399 0.00685793 0.00754821 0.0051708 0.00588628 0.0146532 0.0120489 0.0023727 0.00237373 0.00648743 0.00570669 0.0105456 0.00545978 0.014784 0.00063816 0.0121974 0.00963872 0.00462546 0.0117894 0.00120062 0.00318993 0.015149 0.00272339 0.003847 0.0121834 0.0133123 0.0146625 0.00288108 0.0121096 0.00625359 0.00160417 0.00798898 0.00430431 0.0149719 0.00873799 0.0144021 0.0127055 0.00193101 0.014197 0.00349233 0.000608479 0.00286218 0.00630069 0.00889598 0.0144732 0.0152 0.00324794 0.002258 0.0109769 0.0088394 0.00329251 0.00359955 0.00444787 0.00414164 0.000612879 0.0107583 0.00411286 0.00459402 0.00248742 0.01045 0.0115632 0.0128513 0.0131418 0.00314374 0.0135208 0.00857812 0.0116673 0.00645984 0.014457 0.0131763 0.00988071 0.000898644 0.00426811 0.0144943 0.00480766 0.0103971 0.000461611 0.00653278 0.00513577 0.000655356 0.00398782 0.00602244 0.0136649 0.00441463 0.00895987 0.00900926 0.010238 0.0145113 0.0112857 0.000925885 0.0145774 0.002348 0.00540449 0.0113308 0.000629478 0.0126435 0.0146804 0.0150619 0.00401224 0.000169673 0.00386857 0.00771047 0.01291 0.00518871 0.01337 0.00291804 0.0148848 0.0098456 0.00612427 0.00316257 0.0113999 0.0119344 0.0153665 0.0143947 0.00849873 0.0039622 0.00877454 0.00414308 0.0108907 0.00987264 0.0133251 0.0013226 0.00832908 0.00903643 0.0146671 0.00725954 0.00990198 0.00386862 0.0051087 0.00632861 0.00218587 0.000957778 0.0151681 0.00243641 0.00905256 0.002795 0.00216464 0.00708972 0.00160235 0.0106514 0.00111056 0.0146434 0.00736965 0.0130213 0.00773052 0.00657398 0.0029983 7.4763e-05 0.00778924 0.00720976 0.0135822 0.0067614 0.0144544 0.00943146 0.00825565 0.00655298 0.0124094 0.00534538 0.00267498 0.00108485 0.0109495 0.00743019 0.0150143 0.00165537 0.0124054 0.0113198 0.00435086 0.000969743 0.00383769 0.00376969 0.00689636 0.0126742 0.00594535 0.000890239 0.00710293 0.010668 0.0111149 0.00709037 0.0146145 0.000975623 0.00729476 0.00549434 0.00804527 0.0104842 0.00724447 0.00776731 0.0151685 0.00536127 0.0144686 0.00157987 0.01251 0.0044061 0.00728531 0.00377232 0.00725612 0.01118 0.0151628 0.00247191 0.00576489 0.00726877 0.0106202 0.00191343 0.0115388 0.012716 0.00907702 0.00590861 0.00849641 0.00221881 0.0049519 0.0143908 0.00727229 0.0152879 0.00772848 0.0135199 0.013753 0.0105038 0.00275783 0.00989707 0.0127836 0.00797877 0.00864595 0.000951359 0.00724534 0.00889501 0.0128746 0.0034855 0.00210203 0.000925726 0.0122499 0.00246253 0.0108017 0.00385908 0.0108002 0.0058059 0.00218061 0.0152605 0.00718053 0.000828803 0.00498506 0.00335809 0.00474007 0.00600619 0.00963439 0.00361209 0.0102634 0.014452 0.0051907 0.0015143 0.00886946 0.0071332 0.000289692 0.00540535 0.00990878 0.00355141 0.0107222 0.00511724 0.00951737 0.0063381 0.0128122 0.0112068 0.0021899 0.0093738 0.00623714 0.00657983 0.00856074 0.00385222 0.00367811 0.0122758 0.00402915 0.00589032 0.00337737 0.00876701 0.00936048 0.00277602 0.00828761 0.0144299 0.000762585 0.012471 0.000988134 0.00803015 0.014161 0.00469963 0.010837 0.00238834 0.000978925 0.0130514 0.00315822 0.00121424 0.00226883 0.00200538 0.00263243 0.0143459 0.0130042 0.00186624 0.0113945 0.00918114 0.0110881 0.00340058 0.00207828 0.00890818 0.00510559 0.00374798 0.00314021 0.015285 0.0111339 0.0128545 0.00506782 0.011307 0.000981164 0.00458494 0.0121472 0.00832696 0.00973389 0.011808 0.0129043 0.00756106 0.0104983 0.00655701 0.0143108 0.0093607 0.00678585 0.0135592 0.0139428 0.0140031 0.0126963 0.00955662 0.00300749 0.0142843 0.0111854 0.0077088 0.00481986 0.0145587 0.0085124 0.00832651 0.0120425 0.01158 0.000972221 0.00881564 0.00581637 0.0142295 0.0115992 0.00344742 0.00235943 5.7767e-05 0.013031 0.00941113 0.00185581 0.00988635 0.0104228 0.000101749 0.0046259 0.0135229 0.00702473 0.0101026 0.0112957 0.00589602 0.0126544 0.0049364 0.00756964 0.0144406 0.0136205 0.0073143 0.00685831 0.0112442 0.0151231 0.00936431 0.00904781 0.00434845 0.00675362 0.0135002 0.0149674 0.0120801 0.00522462 0.00873684 0.00237263 0.014913 0.0104445 0.0111223 0.00735115 0.00306813 0.00234091 0.00785714 0.0071001 0.0131874 0.0105215 0.00201599 0.0115062 0.00951605 0.00182187 0.00539654 0.0109243 0.00459243 0.00368263 0.0068158 0.0024706 0.0130554 0.00983209 0.000706351 0.00837825 0.00691204 0.00192774 0.00631137 0.00157798 0.0117964 0.00265549 0.0107588 0.0118515 0.00812805 0.0121495 0.00959194 0.0144851 0.0148463 0.013001 0.0128949 0.00950729 0.00531824 0.0027431 0.0019295 0.00880535 0.000912114 0.00570029 0.00429995 0.0099142 0.0108048 0.00177202 0.0144656 0.00922304 0.00722764 0.00160011 0.0036402 0.0141124 0.00692016 0.0140646 0.00305028 0.0105996 0.0082748 0.00793143 0.0115784 0.00347083 0.00594539 0.00734052 0.00825001 0.0104969 0.0127088 0.00156243 0.0136422 0.0104332 0.015059 0.0112615 0.00591321 0.00956266 0.0105886 0.0112571 0.00305434 0.0118805 0.000910314 0.00746183 0.00136169 0.0144675 0.0152293 0.0140733 0.0112791 0.0130288 0.0142907 0.00127578 0.00810737 0.00319921 0.00549928 0.00160414 0.00270943 0.000925566 0.00916124 0.0131605 0.00583499 0.00330325 0.0140446 0.00321184 0.00976117 0.00555904 0.000882614 0.00271373 0.0120634 0.00967147 0.00340822 0.00643307 0.0144436 0.000830039 0.00455496 0.000974736 0.0144266 0.0079746 0.00875573 0.00438449 0.00399901 0.00101316 0.00471216 0.000186015 0.0101438 0.0132016 0.00778606 0.0117859 0.00659062 0.00956595 0.00478995 0.00249126 0.00181977 0.0122781 0.0153403 0.0062501 0.010101 0.00712619 0.0112387 0.00157061 0.0139359 0.00478882 0.00740067 0.00174303 0.014408 0.0144996 0.0102437 0.00703721 0.00327557 0.0121004 0.0125843 0.00108456 0.0149747 0.011962 0.014563 0.00809245 0.0125786 0.0133384 0.00488023 0.00535711 0.00573052 0.00503906 0.00972852 0.0133084 0.00547346 0.0105125 0.00304888 0.00497608 0.00301259 0.0144894 0.00595218 0.00766262 0.000932561 0.0108569 0.00800966 0.0136238 0.0108148 0.00508339 0.00629971 0.000196574 0.00341294 0.0117453 0.00647781 0.0117068 0.00785461 0.000306731 0.0122418 0.0112997 0.00626685 0.012874 0.000932133 0.00801185 0.0070882 0.00753446 0.00885139 0.0103862 0.00889722 0.00644745 0.00414381 0.000923519 0.00437708 0.0132627 0.000825399 0.0121924 0.0130429 0.00909328 0.0081805 0.00930076 0.0145 0.00010095 0.00615217 0.00208788 0.00105243 0.0127564 0.0138245 0.0124649 0.00288382 0.00443676 0.00963464 0.00696761 0.0126039 0.00721568 0.0127384 0.0028088 0.00114143 0.00918656 0.00303807 0.00887705 0.00858119 0.00832694 0.0059249 0.000529775 0.0019021 0.0137409 0.00336556 0.0124953 0.00951325 0.00989527 0.00399816 0.00557679 0.0110766 0.0048687 0.00129943 0.00838052 0.013152 0.0107286 0.0117364 0.0026946 0.0131264 0.0108219 0.00615458 0.00363212 0.0149047 0.0144471 0.00145257 0.00825758 0.00934563 0.00422143 0.00494412 0.0112467 0.0138264 0.00348605 0.0144265 0.0139652 0.011549 0.00961442 0.00185408 0.0127452 0.00742254 0.00178307 0.00675792 0.0103862 0.00163981 0.0111401 0.00566453 0.0141364 0.00420809 0.00555102 0.0137886 0.0100446 0.00452193 0.0112751 0.007498 0.0117824 0.0036057 0.0100285 0.000962276 0.00690513 0.00912511 0.00303531 0.0127891 0.0124106 0.00728079 0.0124525 0.010881 0.00851007 0.00832534 0.0100535 0.0025497 0.00503467 0.0135817 0.0126119 0.00409996 0.0101143 0.00801869 0.00765947 0.00548718 0.0060739 0.0138295 0.000428952 0.0144737 0.013972 0.00284911 0.00740244 0.00318581 0.0121342 0.0115247 0.00678456 0.0090854 0.0100989 0.00669621 0.012899 0.0119763 0.0149282 0.00619856 0.00822222 0.0101396 0.00961159 0.0144233 0.00136078 0.00911386 0.00767383 0.000723907 0.00711535 0.0144783 0.000743884 0.00697877 0.0118942 0.00607853 0.0144862 0.0111045 0.00953731 0.0142388 0.00907011 0.00178944 0.000732597 0.000931026 0.00248377 0.00684551 0.0127929 0.00541111 0.0113932 0.0143195 0.012919 0.00787954 0.00441347 0.00522488 0.000662569 0.0118927 0.00163158 0.00715132 0.00648452 0.0115077 0.00159732 0.00886629 0.00344688 0.0124205 0.0041732 0.00575756 0.0103835 0.00910492 0.0120023 0.011198 0.00403426 0.011473 0.00151206 0.00528904 0.00137881 0.00697169 0.000945343 0.00308473 0.00564611 0.000918513 0.012188 0.00235102 0.00687822 0.00377408 0.00683166 0.0111036 0.00114172 0.00272986 0.0132811 0.00801187 0.0143065 0.0142808 0.00926058 0.000847095 0.00340809 0.00988211 0.00886937 0.0121369 0.000113101 0.0105971 0.00228405 0.0151459 0.000223727 0.00585751 0.00820256 0.0129883 0.000946395 0.00654092 0.013051 0.0140637 0.00412831 0.00467065 0.014135 0.0104415 0.00430726 0.0123536 0.0026358 0.00762499 0.008011 0.00619018 0.00963994 0.00094849 0.0044679 0.00606557 0.00387406 0.00724754 0.00954615 0.00832247 0.00315879 0.00122249 0.0106055 0.00182052 0.00317139 0.00835747 0.00448001 0.0146813 0.00193932 0.00931009 0.0100658 0.00589331 0.00431948 0.00961847 0.00434437 0.00485628 0.0132784 0.014531 0.00751908 0.00646591 0.000975791 0.00594435 0.0135187 0.00737792 0.0087166 0.00827627 0.0030866 0.0014984 0.013833 0.0123168 0.00981007 0.0057611 0.00472362 0.00394017 0.00738058 0.0011107 0.00394746 0.00815388 0.0128663 0.0141554 0.0132524 0.00879329 0.00955411 0.0130539 0.0143898 0.0101984 0.00474927 0.00934072 0.000121854 0.0130619 0.00335798 2.60976e-05 0.00873801 0.0117312 0.00973717 0.00701289 0.0106164 0.0105315 0.00993773 0.00969085 0.00961837 0.0133659 0.0114878 0.00228035 0.00975156 0.00448468 0.0102341 0.00818274 0.00486369 0.00215448 0.00130828 0.0144798 0.0130697 0.00150111 0.0123103 0.0146052 0.00152366 0.000981552 0.014226 0.00472482 0.000984877 0.010313 0.014209 0.0130172 0.00797642 0.0141781 0.0109786 0.0046864 0.00198534 0.00709852 0.0130235 0.0147931 0.00869147 0.000808613 0.00451802 0.0132018 0.00677204 0.00487074 0.0120359 0.0135226 0.00390524 0.00318762 0.00778184 0.00489267 0.00217096 0.00669537 0.00331126 0.00402918 0.00618524 0.0120356 0.0100569 0.00736227 0.0111036 0.0144012 0.00295663 0.00310211 0.014387 0.000399955 0.00428455 0.00965483 0.0151214 0.00100641 0.00765941 0.0140254 0.0139836 0.00703447 0.00665553 0.00664819 0.0144829 0.00412599 0.00137665 0.0135511 0.0107826 0.00871986 0.00112619 0.00862737 0.012094 0.00754645 0.0136999 0.00490313 0.00957165 0.000514979 0.013522 0.00595212 0.0147025 0.00818492 0.00123801 0.0020278 0.00498529 0.0115158 0.00184386 0.00287322 0.0104712 0.0129791 0.0116038 0.0140791 0.013205 0.0096047 0.0101858 0.0153472 0.0150174 0.0132677 0.0024157 0.0064872 0.00284784 0.00145271 0.0146741 0.00409171 0.00381303 0.00231532 0.00419777 0.00120988 0.0102617 0.0142644 0.00523691 6.61534e-05 0.00651573 0.00516618 0.0113635 0.0119059 0.00896488 0.00348371 0.00109192 0.00242373 0.00847047 0.0113119 0.00471875 0.00913109 0.0110649 0.00469688 0.012697 0.00585677 0.00803 0.00191715 0.00813368 0.0135119 0.0119519 0.0117016 0.00303804 0.00891027 0.00633279 0.0145916 0.00535797 0.0119365 0.0120184 0.00601219 0.00474831 0.0125849 0.0131023 0.00308891 0.0125685 0.000175611 0.0066453 0.000463604 0.000912022 0.00263857 0.00848536 0.0144564 0.00259723 0.00928815 0.000585868 0.0135475 0.010859 0.0133967 0.00462973 0.011457 0.0116409 0.0106625 0.00291337 0.00617532 0.00523942 0.00735919 0.0135396 0.00900875 0.0110383 0.0114554 0.00601515 0.00718199 0.00127438 0.00348071 0.00938518 0.0122062 0.00975363 0.00154428 0.00102557 0.00893272 0.0105076 0.00253317 0.00351957 0.0025344 0.00410395 0.00231367 0.00688078 0.000682455 0.0098464 0.00164589 0.0106312 0.0108291 0.00507167 0.0126107 0.00275389 0.0105831 0.00973625 0.0076542 0.00968499 0.000123742 0.0112359 0.010259 0.0134597 0.00144291 0.00189843 0.00440958 0.00657596 0.00239954 0.0139779 0.00124672 0.0125441 0.0151916 0.00423498 0.0101882 0.00279413 0.00767581 0.00828353 0.00727223 0.00496835 0.0052169 0.00630149 0.0126848 0.000643536 0.0121825 0.00913069 0.000523529 0.0143598 0.00817114 0.00696398 0.00848199 0.00652405 0.00153948 0.00316581 0.00432922 0.0136924 0.00967478 0.0128075 0.00647195 0.0044645 0.0141693 0.00892523 0.0119805 0.00400558 0.00112582 0.000460802 0.0112606 0.00592822 0.0151778 0.0141206 0.0142849 0.00590684 0.00397972 0.0136803 0.00170308 0.00316899 0.00176818 0.00115621 0.00558012 0.00897892 0.00281207 0.0128746 0.00311149 0.0130622 0.0135005 0.00355988 0.00416661 0.00930964 0.0115183 0.00376227 0.0141473 0.00771188 0.00720945 0.00962506 0.0124304 0.0075211 0.00234208 0.000117658 0.0146009 0.00108614 0.0110317 0.0137621 0.00714598 0.00827436 0.0011181 0.00121736 0.0044427 0.0133303 0.0102963 0.00713026 0.0123607 0.00565307 0.00841102 0.00514422 0.0106263 0.00316401 0.00880036 0.00268753 0.00582758 0.00764958 0.00422724 0.011654 0.00590038 0.0103722 0.0122638 0.0081329 0.00856628 0.0136709 0.012812 0.00521727 0.012492 0.000992949 0.00114957 0.00543986 0.0033053 0.00565962 0.00481886 0.00737393 0.00641349 0.0093063 0.0111171 0.00116501 0.0119684 0.00855953 0.00616842 0.00538035 0.00823318 0.00863834 0.0153591 0.00988822 0.00913232 0.00581236 0.00563355 0.00235906 0.0116199 0.0141183 0.0112712 0.0153506 0.00587782 0.00611766 0.0139369 0.000871264 0.0103387 0.00860279 0.00512653 0.0132643 0.00531052 0.00490225 0.0078544 0.00170255 0.0056747 0.00857904 0.0119457 0.00436912 0.00802844 0.00734542 0.000502808 0.0122207 0.0149617 0.00820167 0.00403522 0.0113447 0.0104497 0.0127523</DataArray>
</Points><Verts>
<DataArray type="Int64" Name="connectivity" format="ascii">0 1 2 3 4 5 6 7 8 9 10 11 12 13 14 15 16 17 18 19 20 21 22 23 24 25 26 27 28 29 30 31 32 33 34 35 36 37 38 39 40 41 42 43 44 45 46 47 48 49 50 51 52 53 54 55 56 57 58 59 60 61 62 63 64 65 66 67 68 69 70 71 72 73 74 75 76 77 78 79 80 81 82 83 84 85 86 87 88 89 90 91 92 93 94 95 96 97 98 99 100 101 102 103 104 105 106 107 108 109 110 111 112 113 114 115 116 117 118 119 120 121 122 123 124 125 126 127 128 129 130 131 132 133 134 135 136 137 138 139 140 141 142 143 144 145 146 147 148 149 150 151 152 153 154 155 156 157 158 159 160 161 162 163 164 165 166 167 168 169 170 171 172 173 174 175 176 177 178 179 180 181 182 183 184 185 186 187 188 189 190 191 192 193 194 195 196 197 198 199 200 201 202 203 204 205 206 207 208 209 210 211 212 213 214 215 216 217 218 219 220 221 222 223 224 225 226 227 228 229 230 231 232 233 234 235 236 237 238 239 240 241 242 243 244 245 246 247 248 249 250 251 252 253 254 255 256 257 258 259 260 261 262 263 264 265 266 267 268 269 270 271 272 273 274 275 276 277 278 279 280 281 282 283 284 285 286 287 288 289 290 291 292 293 294 295 296 297 298 299 300 301 302 303 304 305 306 307 308 309 310 311 312 313 314 315 316 317 318 319 320 321 322 323 324 325 326 327 328 329 330 331 332 333 334 335 336 337 338 339 340 341 342 343 344 345 346 347 348 349 350 351 352 353 354 355 356 357 358 359 360 361 362 363 364 365 366 367 368 369 370 371 372 373 374 375 376 377 378 379 380 381 382 383 384 385 386 387 388 389 390 391 392 393 394 395 396 397 398 399 400 401 402 403 404 405 406 407 408 409 410 411 412 413 414 415 416 417 418 419 420 421 422 423 424 425 426 427 428 429 430 431 432 433 434 435 436 437 438 439 440 441 442 443 444 445 446 447 448 449 450 451 452 453 454 455 456 457 458 459 460 461 462 463 464 465 466 467 468 469 470 471 472 473 474 475 476 477 478 479 480 481 482 483 484 485 486 487 488 489 490 491 492 493 494 495 496 497 498 499</DataArray>
<DataArray type="Int64" Name="offsets" format="ascii">1 2 3 4 5 6 7 8 9 10 11 12 13 14 15 16 17 18 19 20 21 22 23 24 25 26 27 28 29 30 31 32 33 34 35 36 37 38 39 40 41 42 43 44 45 46 47 48 49 50 51 52 53 54 55 56 57 58 59 60 61 62 63 64 65 66 67 68 69 70 71 72 73 74 75 76 77 78 79 80 81 82 83 84 85 86 87 88 89 90 91 92 93 94 95 96 97 98 99 100 101 102 103 104 105 106 107 108 109 110 111 112 113 114 115 116 117 118 119 120 121 122 123 124 125 126 127 128 129 130 131 132 133 134 135 136 137 138 139 140 141 142 143 144 145 146 147 148 149 150 151 152 153 154 155 156 157 158 159 160 161 162 163 164 165 166 167 168 169 170 171 172 173 174 175 176 177 178 179 180 181 182 183 184 185 186 187 188 189 190 191 192 193 194 195 196 197 198 199 200 201 202 203 204 205 206 207 208 209 210 211 212 213 214 215 216 217 218 219 220 221 222 223 224 225 226 227 228 229 230 231 232 233 234 235 236 237 238 239 240 241 242 243 244 245 246 247 248 249 250 251 252 253 254 255 256 257 258 259 260 261 262 263 264 265 266 267 268 269 270 271 272 273 274 275 276 277 278 279 280 281 282 283 284 285 286 287 288 289 290 291 292 293 294 295 296 297 298 299 300 301 302 303 304 305 306 307 308 309 310 311 312 313 314 315 316 317 318 319 320 321 322 323 324 325 326 327 328 329 330 331 332 333 334 335 336 337 338 339 340 341 342 343 344 345 346 347 348 349 350 351 352 353 354 355 356 357 358 359 360 361 362 363 364 365 366 367 368 369 370 371 372 373 374 375 376 377 378 379 380 381 382 383 384 385 386 387 388 389 390 391 392 393 394 395 396 397 398 399 400 401 402 403 404 405 406 407 408 409 410 411 412 413 414 415 416 417 418 419 420 421 422 423 424 425 426 427 428 429 430 431 432 433 434 435 436 437 438 439 440 441 442 443 444 445 446 447 448 449 450 451 452 453 454 455 456 457 458 459 460 461 462 463 464 465 466 467 468 469 470 471 472 473 474 475 476 477 478 479 480 481 482 483 484 485 486 487 488 489 490 491 492 493 494 495 496 497 498 499 500</DataArray>
</Verts></Piece></PolyData></VTKFile>