<?xml version="1.0"?>
<VTKFile type="PolyData" version="0.1" byte_order="LittleEndian">
<PolyData>
<Piece NumberOfPoints="500" NumberOfVerts="500" NumberOfLines="0" NumberOfStrips="0" NumberOfPolys="0">
<PointData>
<DataArray type="Int64" Name="id" format="ascii">1 2 3 4 5 6 7 8 9 10 11 12 13 14 15 16 17 18 19 20 21 22 23 24 25 26 27 28 29 30 31 32 33 34 35 36 37 38 39 40 41 42 43 44 45 46 47 48 49 50 51 52 53 54 55 56 57 58 59 60 61 62 63 64 65 66 67 68 69 70 71 72 73 74 75 76 77 78 79 80 81 82 83 84 85 86 87 88 89 90 91 92 93 94 95 96 97 98 99 100 101 102 103 104 105 106 107 108 109 110 111 112 113 114 115 116 117 118 119 120 121 122 123 124 125 126 127 128 129 130 131 132 133 134 135 136 137 138 139 140 141 142 143 144 145 146 147 148 149 150 151 152 153 154 155 156 157 158 159 160 161 162 163 164 165 166 167 168 169 170 171 172 173 174 175 176 177 178 179 180 181 182 183 184 185 186 187 188 189 190 191 192 193 194 195 196 197 198 199 200 201 202 203 204 205 206 207 208 209 210 211 212 213 214 215 216 217 218 219 220 221 222 223 224 225 226 227 228 229 230 231 232 233 234 235 236 237 238 239 240 241 242 243 244 245 246 247 248 249 250 251 252 253 254 255 256 257 258 259 260 261 262 263 264 265 266 267 268 269 270 271 272 273 274 275 276 277 278 279 280 281 282 283 284 285 286 287 288 289 290 291 292 293 294 295 296 297 298 299 300 301 302 303 304 305 306 307 308 309 310 311 312 313 314 315 316 317 318 319 320 321 322 323 324 325 326 327 328 329 330 331 332 333 334 335 336 337 338 339 340 341 342 343 344 345 346 347 348 349 350 351 352 353 354 355 356 357 358 359 360 361 362 363 364 365 366 367 368 369 370 371 372 373 374 375 376 377 378 379 380 381 382 383 384 385 386 387 388 389 390 391 392 393 394 395 396 397 398 399 400 401 402 403 404 405 406 407 408 409 410 411 412 413 414 415 416 417 418 419 420 421 422 423 424 425 426 427 428 429 430 431 432 433 434 435 436 437 438 439 440 441 442 443 444 445 446 447 448 449 450 451 452 453 454 455 456 457 458 459 460 461 462 463 464 465 466 467 468 469 470 471 472 473 474 475 476 477 478 479 480 481 482 483 484 485 486 487 488 489 490 491 492 493 494 495 496 497 498 499 500</DataArray>
<DataArray type="Int32" Name="type" format="ascii">1 1 1 1 1 1 1 1 1 1 1 1 1 1 1 1 1 1 1 1 1 1 1 1 1 1 1 1 1 1 1 1 1 1 1 1 1 1 1 1 1 1 1 1 1 1 1 1 1 1 1 1 1 1 1 1 1 1 1 1 1 1 1 1 1 1 1 1 1 1 1 1 1 1 1 1 1 1 1 1 1 1 1 1 1 1 1 1 1 1 1 1 1 1 1 1 1 1 1 1 2 2 2 2 2 2 2 2 2 2 2 2 2 2 2 2 2 2 2 2 2 2 2 2 2 2 2 2 2 2 2 2 2 2 2 2 2 2 2 2 2 2 2 2 2 2 2 2 2 2 2 2 2 2 2 2 2 2 2 2 2 2 2 2 2 2 2 2 2 2 2 2 2 2 2 2 2 2 2 2 2 2 2 2 2 2 2 2 2 2 2 2 2 2 2 2 2 2 2 2 2 2 2 2 2 2 2 2 2 2 2 2 2 2 2 2 2 2 2 2 2 2 2 2 2 2 2 2 2 2 2 2 2 2 2 2 2 2 2 2 2 2 2 2 2 2 2 2 2 2 2 2 2 2 2 2 2 2 2 2 2 2 2 2 2 2 2 2 2 2 2 2 2 2 2 2 2 2 2 2 2 2 2 2 2 2 2 2 2 2 2 2 2 2 2 2 2 2 2 2 2 2 2 2 2 2 2 2 2 2 2 2 2 2 2 2 2 2 2 2 2 2 2 2 2 2 2 2 2 2 2 2 2 2 2 2 2 2 2 2 2 2 2 2 2 2 2 2 2 2 2 2 2 2 2 2 2 2 2 2 2 2 2 2 2 2 2 2 2 2 2 2 2 2 2 2 2 2 2 2 2 2 2 2 2 2 2 2 2 2 2 2 2 2 2 2 2 2 2 2 3 3 3 3 3 3 3 3 3 3 3 3 3 3 3 3 3 3 3 3 3 3 3 3 3 3 3 3 3 3 3 3 3 3 3 3 3 3 3 3 3 3 3 3 3 3 3 3 3 3 3 3 3 3 3 3 3 3 3 3 3 3 3 3 3 3 3 3 3 3 3 3 3 3 3 3 3 3 3 3 3 3 3 3 3 3 3 3 3 3 3 3 3 3 3 3 3 3 3 3</DataArray>
<DataArray type="Float64" Name="radius" format="ascii">0.00075 0.00075 0.00075 0.00075 0.00075 0.00075 0.00075 0.00075 0.00075 0.00075 0.00075 0.00075 0.00075 0.00075 0.00075 0.00075 0.00075 0.00075 0.00075 0.00075 0.00075 0.00075 0.00075 0.00075 0.00075 0.00075 0.00075 0.00075 0.00075 0.00075 0.00075 0.00075 0.00075 0.00075 0.00075 0.00075 0.00075 0.00075 0.00075 0.00075 0.00075 0.00075 0.00075 0.00075 0.00075 0.00075 0.00075 0.00075 0.00075 0.00075 0.00075 0.00075 0.00075 0.00075 0.00075 0.00075 0.00075 0.00075 0.00075 0.00075 0.00075 0.00075 0.00075 0.00075 0.00075 0.00075 0.00075 0.00075 0.00075 0.00075 0.00075 0.00075 0.00075 0.00075 0.00075 0.00075 0.00075 0.00075 0.00075 0.00075 0.00075 0.00075 0.00075 0.00075 0.00075 0.00075 0.00075 0.00075 0.00075 0.00075 0.00075 0.00075 0.00075 0.00075 0.00075 0.00075 0.00075 0.00075 0.00075 0.00075 0.001 0.001 0.001 0.001 0.001 0.001 0.001 0.001 0.001 0.001 0.001 0.001 0.001 0.001 0.001 0.001 0.001 0.001 0.001 0.001 0.001 0.001 0.001 0.001 0.001 0.001 0.001 0.001 0.001 0.001 0.001 0.001 0.001 0.001 0.001 0.001 0.001 0.001 0.001 0.001 0.001 0.001 0.001 0.001 0.001 0.001 0.001 0.001 0.001 0.001 0.001 0.001 0.001 0.001 0.001 0.001 0.001 0.001 0.001 0.001 0.001 0.001 0.001 0.001 0.001 0.001 0.001 0.001 0.001 0.001 0.001 0.001 0.001 0.001 0.001 0.001 0.001 0.001 0.001 0.001 0.001 0.001 0.001 0.001 0.001 0.001 0.001 0.001 0.001 0.001 0.001 0.001 0.001 0.001 0.001 0.001 0.001 0.001 0.001 0.001 0.001 0.001 0.001 0.001 0.001 0.001 0.001 0.001 0.001 0.001 0.001 0.001 0.001 0.001 0.001 0.001 0.001 0.001 0.001 0.001 0.001 0.001 0.001 0.001 0.001 0.001 0.001 0.001 0.001 0.001 0.001 0.001 0.001 0.001 0.001 0.001 0.001 0.001 0.001 0.001 0.001 0.001 0.001 0.001 0.001 0.001 0.001 0.001 0.001 0.001 0.001 0.001 0.001 0.001 0.001 0.001 0.001 0.001 0.001 0.001 0.001 0.001 0.001 0.001 0.001 0.001 0.001 0.001 0.001 0.001 0.001 0.001 0.001 0.001 0.001 0.001 0.001 0.001 0.001 0.001 0.001 0.001 0.001 0.001 0.001 0.001 0.001 0.001 0.001 0.001 0.001 0.001 0.001 0.001 0.001 0.001 0.001 0.001 0.001 0.001 0.001 0.001 0.001 0.001 0.001 0.001 0.001 0.001 0.001 0.001 0.001 0.001 0.001 0.001 0.001 0.001 0.001 0.001 0.001 0.001 0.001 0.001 0.001 0.001 0.001 0.001 0.001 0.001 0.001 0.001 0.001 0.001 0.001 0.001 0.001 0.001 0.001 0.001 0.001 0.001 0.001 0.001 0.001 0.001 0.001 0.001 0.001 0.001 0.001 0.001 0.001 0.001 0.001 0.001 0.001 0.001 0.001 0.001 0.001 0.001 0.001 0.001 0.001 0.001 0.001 0.001 0.001 0.001 0.001 0.001 0.001 0.001 0.001 0.001 0.001 0.001 0.001 0.001 0.001 0.001 0.001 0.001 0.001 0.001 0.001 0.001 0.001 0.001 0.001 0.001 0.001 0.001 0.001 0.001 0.001 0.001 0.001 0.001 0.001 0.001 0.00125 0.00125 0.00125 0.00125 0.00125 0.00125 0.00125 0.00125 0.00125 0.00125 0.00125 0.00125 0.00125 0.00125 0.00125 0.00125 0.00125 0.00125 0.00125 0.00125 0.00125 0.00125 0.00125 0.00125 0.00125 0.00125 0.00125 0.00125 0.00125 0.00125 0.00125 0.00125 0.00125 0.00125 0.00125 0.00125 0.00125 0.00125 0.00125 0.00125 0.00125 0.00125 0.00125 0.00125 0.00125 0.00125 0.00125 0.00125 0.00125 0.00125 0.00125 0.00125 0.00125 0.00125 0.00125 0.00125 0.00125 0.00125 0.00125 0.00125 0.00125 0.00125 0.00125 0.00125 0.00125 0.00125 0.00125 0.00125 0.00125 0.00125 0.00125 0.00125 0.00125 0.00125 0.00125 0.00125 0.00125 0.00125 0.00125 0.00125 0.00125 0.00125 0.00125 0.00125 0.00125 0.00125 0.00125 0.00125 0.00125 0.00125 0.00125 0.00125 0.00125 0.00125 0.00125 0.00125 0.00125 0.00125 0.00125 0.00125</DataArray>
<DataArray type="Float64" Name="diameter" format="ascii">0.0015 0.0015 0.0015 0.0015 0.0015 0.0015 0.0015 0.0015 0.0015 0.0015 0.0015 0.0015 0.0015 0.0015 0.0015 0.0015 0.0015 0.0015 0.0015 0.0015 0.0015 0.0015 0.0015 0.0015 0.0015 0.0015 0.0015 0.0015 0.0015 0.0015 0.0015 0.0015 0.0015 0.0015 0.0015 0.0015 0.0015 0.0015 0.0015 0.0015 0.0015 0.0015 0.0015 0.0015 0.0015 0.0015 0.0015 0.0015 0.0015 0.0015 0.0015 0.0015 0.0015 0.0015 0.0015 0.0015 0.0015 0.0015 0.0015 0.0015 0.0015 0.0015 0.0015 0.0015 0.0015 0.0015 0.0015 0.0015 0.0015 0.0015 0.0015 0.0015 0.0015 0.0015 0.0015 0.0015 0.0015 0.0015 0.0015 0.0015 0.0015 0.0015 0.0015 0.0015 0.0015 0.0015 0.0015 0.0015 0.0015 0.0015 0.0015 0.0015 0.0015 0.0015 0.0015 0.0015 0.0015 0.0015 0.0015 0.0015 0.002 0.002 0.002 0.002 0.002 0.002 0.002 0.002 0.002 0.002 0.002 0.002 0.002 0.002 0.002 0.002 0.002 0.002 0.002 0.002 0.002 0.002 0.002 0.002 0.002 0.002 0.002 0.002 0.002 0.002 0.002 0.002 0.002 0.002 0.002 0.002 0.002 0.002 0.002 0.002 0.002 0.002 0.002 0.002 0.002 0.002 0.002 0.002 0.002 0.002 0.002 0.002 0.002 0.002 0.002 0.002 0.002 0.002 0.002 0.002 0.002 0.002 0.002 0.002 0.002 0.002 0.002 0.002 0.002 0.002 0.002 0.002 0.002 0.002 0.002 0.002 0.002 0.002 0.002 0.002 0.002 0.002 0.002 0.002 0.002 0.002 0.002 0.002 0.002 0.002 0.002 0.002 0.002 0.002 0.002 0.002 0.002 0.002 0.002 0.002 0.002 0.002 0.002 0.002 0.002 0.002 0.002 0.002 0.002 0.002 0.002 0.002 0.002 0.002 0.002 0.002 0.002 0.002 0.002 0.002 0.002 0.002 0.002 0.002 0.002 0.002 0.002 0.002 0.002 0.002 0.002 0.002 0.002 0.002 0.002 0.002 0.002 0.002 0.002 0.002 0.002 0.002 0.002 0.002 0.002 0.002 0.002 0.002 0.002 0.002 0.002 0.002 0.002 0.002 0.002 0.002 0.002 0.002 0.002 0.002 0.002 0.002 0.002 0.002 0.002 0.002 0.002 0.002 0.002 0.002 0.002 0.002 0.002 0.002 0.002 0.002 0.002 0.002 0.002 0.002 0.002 0.002 0.002 0.002 0.002 0.002 0.002 0.002 0.002 0.002 0.002 0.002 0.002 0.002 0.002 0.002 0.002 0.002 0.002 0.002 0.002 0.002 0.002 0.002 0.002 0.002 0.002 0.002 0.002 0.002 0.002 0.002 0.002 0.002 0.002 0.002 0.002 0.002 0.002 0.002 0.002 0.002 0.002 0.002 0.002 0.002 0.002 0.002 0.002 0.002 0.002 0.002 0.002 0.002 0.002 0.002 0.002 0.002 0.002 0.002 0.002 0.002 0.002 0.002 0.002 0.002 0.002 0.002 0.002 0.002 0.002 0.002 0.002 0.002 0.002 0.002 0.002 0.002 0.002 0.002 0.002 0.002 0.002 0.002 0.002 0.002 0.002 0.002 0.002 0.002 0.002 0.002 0.002 0.002 0.002 0.002 0.002 0.002 0.002 0.002 0.002 0.002 0.002 0.002 0.002 0.002 0.002 0.002 0.002 0.002 0.002 0.002 0.002 0.002 0.002 0.002 0.002 0.002 0.002 0.002 0.0025 0.0025 0.0025 0.0025 0.0025 0.0025 0.0025 0.0025 0.0025 0.0025 0.0025 0.0025 0.0025 0.0025 0.0025 0.0025 0.0025 0.0025 0.0025 0.0025 0.0025 0.0025 0.0025 0.0025 0.0025 0.0025 0.0025 0.0025 0.0025 0.0025 0.0025 0.0025 0.0025 0.0025 0.0025 0.0025 0.0025 0.0025 0.0025 0.0025 0.0025 0.0025 0.0025 0.0025 0.0025 0.0025 0.0025 0.0025 0.0025 0.0025 0.0025 0.0025 0.0025 0.0025 0.0025 0.0025 0.0025 0.0025 0.0025 0.0025 0.0025 0.0025 0.0025 0.0025 0.0025 0.0025 0.0025 0.0025 0.0025 0.0025 0.0025 0.0025 0.0025 0.0025 0.0025 0.0025 0.0025 0.0025 0.0025 0.0025 0.0025 0.0025 0.0025 0.0025 0.0025 0.0025 0.0025 0.0025 0.0025 0.0025 0.0025 0.0025 0.0025 0.0025 0.0025 0.0025 0.0025 0.0025 0.0025 0.0025</DataArray>
<DataArray type="Float64" Name="conductivity" format="ascii">1.0 1.0 1.0 1.0 1.0 1.0 1.0 1.0 1.0 1.0 1.0 1.0 1.0 1.0 1.0 1.0 1.0 1.0 1.0 1.0 1.0 1.0 1.0 1.0 1.0 1.0 1.0 1.0 1.0 1.0 1.0 1.0 1.0 1.0 1.0 1.0 1.0 1.0 1.0 1.0 1.0 1.0 1.0 1.0 1.0 1.0 1.0 1.0 1.0 1.0 1.0 1.0 1.0 1.0 1.0 1.0 1.0 1.0 1.0 1.0 1.0 1.0 1.0 1.0 1.0 1.0 1.0 1.0 1.0 1.0 1.0 1.0 1.0 1.0 1.0 1.0 1.0 1.0 1.0 1.0 1.0 1.0 1.0 1.0 1.0 1.0 1.0 1.0 1.0 1.0 1.0 1.0 1.0 1.0 1.0 1.0 1.0 1.0 1.0 1.0 1.0 1.0 1.0 1.0 1.0 1.0 1.0 1.0 1.0 1.0 1.0 1.0 1.0 1.0 1.0 1.0 1.0 1.0 1.0 1.0 1.0 1.0 1.0 1.0 1.0 1.0 1.0 1.0 1.0 1.0 1.0 1.0 1.0 1.0 1.0 1.0 1.0 1.0 1.0 1.0 1.0 1.0 1.0 1.0 1.0 1.0 1.0 1.0 1.0 1.0 1.0 1.0 1.0 1.0 1.0 1.0 1.0 1.0 1.0 1.0 1.0 1.0 1.0 1.0 1.0 1.0 1.0 1.0 1.0 1.0 1.0 1.0 1.0 1.0 1.0 1.0 1.0 1.0 1.0 1.0 1.0 1.0 1.0 1.0 1.0 1.0 1.0 1.0 1.0 1.0 1.0 1.0 1.0 1.0 1.0 1.0 1.0 1.0 1.0 1.0 1.0 1.0 1.0 1.0 1.0 1.0 1.0 1.0 1.0 1.0 1.0 1.0 1.0 1.0 1.0 1.0 1.0 1.0 1.0 1.0 1.0 1.0 1.0 1.0 1.0 1.0 1.0 1.0 1.0 1.0 1.0 1.0 1.0 1.0 1.0 1.0 1.0 1.0 1.0 1.0 1.0 1.0 1.0 1.0 1.0 1.0 1.0 1.0 1.0 1.0 1.0 1.0 1.0 1.0 1.0 1.0 1.0 1.0 1.0 1.0 1.0 1.0 1.0 1.0 1.0 1.0 1.0 1.0 1.0 1.0 1.0 1.0 1.0 1.0 1.0 1.0 1.0 1.0 1.0 1.0 1.0 1.0 1.0 1.0 1.0 1.0 1.0 1.0 1.0 1.0 1.0 1.0 1.0 1.0 1.0 1.0 1.0 1.0 1.0 1.0 1.0 1.0 1.0 1.0 1.0 1.0 1.0 1.0 1.0 1.0 1.0 1.0 1.0 1.0 1.0 1.0 1.0 1.0 1.0 1.0 1.0 1.0 1.0 1.0 1.0 1.0 1.0 1.0 1.0 1.0 1.0 1.0 1.0 1.0 1.0 1.0 1.0 1.0 1.0 1.0 1.0 1.0 1.0 1.0 1.0 1.0 1.0 1.0 1.0 1.0 1.0 1.0 1.0 1.0 1.0 1.0 1.0 1.0 1.0 1.0 1.0 1.0 1.0 1.0 1.0 1.0 1.0 1.0 1.0 1.0 1.0 1.0 1.0 1.0 1.0 1.0 1.0 1.0 1.0 1.0 1.0 1.0 1.0 1.0 1.0 1.0 1.0 1.0 1.0 1.0 1.0 1.0 1.0 1.0 1.0 1.0 1.0 1.0 1.0 1.0 1.0 1.0 1.0 1.0 1.0 1.0 1.0 1.0 1.0 1.0 1.0 1.0 1.0 1.0 1.0 1.0 1.0 1.0 1.0 1.0 1.0 1.0 1.0 1.0 1.0 1.0 1.0 1.0 1.0 1.0 1.0 1.0 1.0 1.0 1.0 1.0 1.0 1.0 1.0 1.0 1.0 1.0 1.0 1.0 1.0 1.0 1.0 1.0 1.0 1.0 1.0 1.0 1.0 1.0 1.0 1.0 1.0 1.0 1.0 1.0 1.0 1.0 1.0 1.0 1.0 1.0 1.0 1.0 1.0 1.0 1.0 1.0 1.0 1.0 1.0 1.0 1.0 1.0 1.0 1.0 1.0 1.0 1.0 1.0 1.0 1.0 1.0 1.0 1.0 1.0 1.0 1.0 1.0 1.0 1.0 1.0 1.0 1.0 1.0 1.0</DataArray>
<DataArray type="Float64" Name="temperature" format="ascii">300.9378611006358 300.65379742212525 300.5550259572491 300.6227994137721 300.81449302205226 300.83498312906613 300.81136964748566 nan 300.72927447560414 300.75887368870326 300.9543413702163 300.5588374955246 300.62207230999326 300.73545240046434 300.62797479248997 300.78191563242217 300.7772686958925 300.69446386915547 300.8392612504979 300.508172583006 300.6400348788432 300.65531298453965 300.6774602867015 300.6609420609418 300.66576217256596 300.6252196396704 nan 300.71124850958444 300.9447877688034 300.55066505445484 300.58695435711843 300.7406187794164 300.83482074168614 300.548666548743 300.9057647697404 300.54247681540267 300.87535074874256 300.5073101569663 300.76103611492715 300.72827174275153 300.7057168191848 300.65531298453965 300.64865772833656 300.96125745310394 300.6328537902978 300.72905263397695 300.9549331910696 300.7603591339162 300.8560913249022 300.57386072697545 300.7002344860487 300.6782764054227 300.49959448147837 300.36621289293504 300.54962681710157 300.145832491214 300.35157465843406 300.27637077722375 300.3231754171369 300.45937736848606 300.2054367125034 300.57697453681084 300.34952386893383 300.3545146027147 300.52480757360644 300.2534047446436 300.1745475475133 300.12274757075664 300.4259316004461 300.31111386703435 300.4621330206943 300.05186925975613 300.2378324163757 300.0490131545293 300.137249983167 300.44014396255335 300.3041553112712 300.4794842433774 300.54572822352264 300.05477348754664 300.20068101763945 300.17686085879086 300.2822117425834 300.38449054188345 nan 300.3988034331966 300.20830365491065 300.3139612055424 300.3229151718642 300.11963405192466 300.3317219929986 300.21061512755864 300.077747777096 300.1775954532704 300.3763302905186 300.39135425801067 300.1923439796208 300.50814402743123 300.4388823926386 nan 300.19379154855454 300.2701679714603 300.4423079897072 300.13950097346054 300.4335165501708 300.42421676728185 300.6242141074489 300.7866088839795 300.7015042526428 nan nan 300.64961232558494 300.60293789271236 300.63642118950116 300.5696840168195 300.73240978894376 300.54570598769754 300.7109964235273 300.5304899731683 300.9509642250718 300.80906770246276 300.6301935604911 300.55595405809316 300.6776900741149 300.56814929971597 300.59804447403013 300.6995150484723 300.72553040485764 300.8093200296553 300.9254017869514 300.8499892697997 300.82953777244114 300.94252407766083 300.65030764923324 300.9440698615676 300.86929432408823 300.5489741520214 300.9308950649887 300.81536511684214 300.9358797857499 300.606516712118 300.85315886914873 300.7698424881618 300.469443294336 300.4274606133317 300.8818879857108 300.6971964809309 300.7740947908574 300.9298429586947 300.6471161325759 300.76118248399695 300.66029779467806 300.46768137901313 300.7431963203897 300.50819416571176 300.94295127436715 300.9340311505755 300.94111833602165 300.64980255645037 300.9385947240808 300.65740118774823 300.80774624726956 300.61979217606984 300.72974706720726 300.66034464225424 300.8446886601452 300.8117538913721 300.5720577691518 300.85861590322065 300.9285449864342 300.4848398756317 300.7497089775847 300.38940580149074 300.22594884841254 300.1888901701573 300.0655749800152 300.18921678886164 300.4531489916109 300.3928623361786 300.29014719446945 300.1739899140254 300.1253694531037 300.1855972455543 300.2363177557928 300.0645225855112 300.36687698242497 300.4826730228483 300.23877735145237 300.36376428992844 300.2924488773779 300.2679902803043 300.15347368083985 300.355105203285 300.1797987163236 300.44927207856534 300.38761427188933 300.44329028603414 300.1963449890808 300.4600046247658 300.22691225561647 300.3036655929179 300.15373409302043 300.3573492068941 300.13123360597035 300.2910746814825 300.4650143638105 300.2550218891325 300.1973898581528 300.3946540531007 300.064994818322 300.35698183556036 300.1755041308037 300.433064840569 300.40013229075845 300.3868316386585 300.2547494344227 300.0657267169139 300.13354420091775 300.4385916341105 300.06656676442003 300.1509987280145 300.28073463202253 300.39677123209975 300.0887955964155 300.0632118470219 300.37766770312317 300.2533656316077 300.06634409875653 300.50060445274175 300.0510609925317 300.39123238367347 300.50207837579615 300.27120481225967 300.55963395465176 300.85434678621306 300.6688840033266 300.8178613805888 300.6729932619793 300.9526646047305 300.9363548962418 300.7776027408648 300.6139178077696 300.6069774576407 300.6722028051404 300.70393948756583 300.7661484303155 300.76109547341196 300.65727929790614 300.60559968315647 300.68437611473837 300.5892010870008 300.8235625931399 300.769706414844 300.8985198123604 300.6656922011214 300.67542381355304 300.93900818474424 300.77672449247694 300.56395369211043 300.7787711950907 300.63137140610047 300.9594968175883 300.6025607860576 300.7489551999153 300.67208497636625 300.5465158549191 300.9428449572417 300.57355546017266 300.8511497741896 300.9348267062818 300.8412532399515 300.7961225424096 300.69813053179024 300.7158852751755 300.89281610319506 300.79164677723634 300.8592574102904 300.575204761693 300.7196453833456 300.5850627137635 300.59506805787544 300.763415274295 300.9295774065525 300.86063346402244 300.6174281282763 300.715252695411 300.80877486538196 300.55491451403736 300.676863727085 300.74607812129176 300.3197640553011 300.0641161556538 300.55453975241085 300.23637359203406 300.336848841082 300.3472572661406 300.52042179346927 300.2760282854443 300.5383563093607 300.1263517343767 300.3842633948917 300.3785382914491 300.261846346107 300.3698350126141 300.4853745733675 300.3728684962668 300.37245886559936 300.17020145522685 300.19490690317724 300.06112422073994 300.1236159411317 300.18108278269574 300.54123496555275 300.48422412609796 300.51035080389767 300.06054439130185 300.25280248572074 300.06335449480065 300.56823272056454 300.4794046537968 300.2155486302948 300.25835392612635 300.3960607667391 300.51409732624535 300.1932029314545 300.2852746188488 300.2880431027737 300.4300055975948 300.4731422146481 300.53284614825463 300.4054913602552 300.0542399199376 300.5780548245816 300.1657164733766 300.44942031172843 300.4748223225022 300.2772885574224 300.3526690469945 300.3568476402306 300.16624890744765 300.0945950568278 300.1603189660933 300.43002686379134 300.05736276052704 300.29408489969967 300.2576183966494 300.4537965174894 300.2031017251266 300.2740133754082 300.05106372199185 300.0609947396967 300.0681267553388 300.3568606646353 300.072330601413 300.06400813087663 300.1872362017189 300.06095436897886 300.06796419803845 300.5536877456716 300.360068830563 300.1156644285159 300.4296040065527 300.24754811834174 300.2108493979931 300.0531411558295 300.21159534823204 300.0559071642076 300.6635244497144 300.69500567001194 300.7581081492127 300.9393613435924 300.92925044248807 300.72547804637645 300.93038600661487 300.9450666725263 300.750693075405 300.9335593361189 300.7005934206843 300.6518324814899 300.92351340684235 300.65039955686075 300.73298334029914 300.94641575819605 300.76552791093894 300.59962109357474 300.55687653953765 300.92767532717795 300.7029400663383 300.8012195465801 300.92484542913365 300.63029508342095 300.9171223670667 300.5319604243998 300.6270949044746 300.5780756022356 300.7930664365321 300.6946207409333 300.89496377007004 300.6528264402233 300.7050524202939 300.6586959401292 300.8409317356434 300.91785973204406 300.5614162149996 300.92469784436355 300.58318822693684 300.7185157451242 300.8762926677671 300.70838417026954 300.5478115106995 300.82621322326156 300.6242306385919 300.7885365860948 300.80110292939645 300.67085272101895 300.7322637452175 300.8603470627286 300.65038925197075 300.9317922596814 300.60966600295455 300.82536277480926 300.6435729820896 300.85831932212324 300.84629972675555 300.9139872314905 300.9182597372085 300.72768993069593 300.8304539800038 300.88965766233366 300.71374958271355 300.0789844761128 300.3130787889928 300.0783921923408 300.4389497742047 300.0722868139463 300.5497368386201 300.16953213121553 300.48698975333195 300.16489039938534 300.2367868534552 300.1977969107922 300.39365940630375 300.48108559318604 300.31203348896156 300.5525322586745 300.3201424005148 300.4813584313335 300.32542068754117 300.47279415262835 300.2450762944716 300.35779624173523 300.2052776169481 300.08178733015626 300.2409717133079 300.17355507779087 300.076541587664 300.061580908997 300.0881862952358 300.41766578239253 300.12427953199074 300.26143493621464 300.26827392744127 300.34336624171397 300.52108096490724 300.28628394103544 nan 300.06563068148 300.3185380626049 300.1856890208262 300.19831158148975 300.23634518441133 300.4305678959611 300.45923857582113 300.4395494711104 300.0729664436887 300.0657300919177 300.34471231698734 300.3322277012496 300.38100095090954 300.23274178651474 300.3093216295199 300.33243984869944 300.35138261951784 300.0829609141362 300.1439888627411 300.34008463298835 300.56507963563394 300.46606729487155 300.32535796850885 300.5432023602274 300.5417040825433 300.1302172641016 300.3393376896336 300.35830313402175 300.17660251964764 300.57483896558364 300.28120317049667 300.4832390181985 300.43384059832346 300.3409927387488</DataArray>
<DataArray type="Float64" Name="g_hot" format="ascii">0.0004374997142856212 0.0 0.0 0.0 0.0 0.0 0.0 0.0 0.0 0.0 0.00033980435547532374 0.0 0.0 0.0 0.0 0.0 0.0 0.0 0.0 0.0 0.0 0.0 0.0 0.0 0.0 0.0 0.0 0.0 0.00010053357648069666 0.0 0.0 0.0 0.0 0.0 0.0 0.0 0.0 0.0 0.0 0.0 0.0 0.0 0.0 1.6792855623743285e-05 0.0 0.0 0.0003669741135284613 0.0 0.0 0.0 0.0 0.0 0.0 0.0 0.0 0.0 0.0 0.0 0.0 0.0 0.0 0.0 0.0 0.0 0.0 0.0 0.0 0.0 0.0 0.0 0.0 0.0 0.0 0.0 0.0 0.0 0.0 0.0 0.0 0.0 0.0 0.0 0.0 0.0 0.0 0.0 0.0 0.0 0.0 0.0 0.0 0.0 0.0 0.0 0.0 0.0 0.0 0.0 0.0 0.0 0.0 0.0 0.0 0.0 0.0 0.0 0.0 0.0 0.0 0.0 0.0 0.0 0.0 0.0 0.0 0.0 0.0 0.0 0.0 0.0004648053355976025 0.0 0.0 0.0 0.0 0.0 0.0 0.0 0.0 0.0 0.0005144006220836051 0.0 0.0 0.0006260351427835342 0.0 0.0005652150033394374 0.0 0.0 0.0005039404726750969 0.0 0.0007186876929515353 0.0 0.0 0.0 0.0 0.0 0.0 0.0 0.0 0.0005392179522234029 0.0 0.0 0.0 0.0 0.0 0.0 0.0006560274384505575 0.0005793168390440591 0.0004015868523744273 0.0 0.00046972758062519584 0.0 0.0 0.0 0.0 0.0 0.0 0.0 0.0 0.0 0.0008235387058299083 0.0 0.0 0.0 0.0 0.0 0.0 0.0 0.0 0.0 0.0 0.0 0.0 0.0 0.0 0.0 0.0 0.0 0.0 0.0 0.0 0.0 0.0 0.0 0.0 0.0 0.0 0.0 0.0 0.0 0.0 0.0 0.0 0.0 0.0 0.0 0.0 0.0 0.0 0.0 0.0 0.0 0.0 0.0 0.0 0.0 0.0 0.0 0.0 0.0 0.0 0.0 0.0 0.0 0.0 0.0 0.0 0.0 0.0 0.0 0.0 0.0 0.0 0.0 0.0 0.0 0.0 0.0 0.0 0.00048412808222618133 0.00049885067906138 0.0 0.0 0.0 0.0 0.0 0.0 0.0 0.0 0.0 0.0 0.0 0.0 0.0 0.0 0.0 0.0 0.0006551335741663682 0.0 0.0 0.0 0.0 0.00025775181861628144 0.0 0.0 0.0 0.0 0.0002227554713132771 0.0 0.0 0.0006921040384219702 0.0 0.0 0.0 0.0 0.0 0.0 0.0 0.0 0.0 0.0 0.0 0.0 0.0005934340738447704 0.0 0.0 0.0 0.0 0.0 0.0 0.0 0.0 0.0 0.0 0.0 0.0 0.0 0.0 0.0 0.0 0.0 0.0 0.0 0.0 0.0 0.0 0.0 0.0 0.0 0.0 0.0 0.0 0.0 0.0 0.0 0.0 0.0 0.0 0.0 0.0 0.0 0.0 0.0 0.0 0.0 0.0 0.0 0.0 0.0 0.0 0.0 0.0 0.0 0.0 0.0 0.0 0.0 0.0 0.0 0.0 0.0 0.0 0.0 0.0 0.0 0.0 0.0 0.0 0.0 0.0 0.0 0.0 0.0 0.0 0.0 0.0 0.0 0.0 0.0 0.0 0.0 0.0 0.0 0.0 0.0 0.0 0.0 0.0 0.0 0.0 0.0 0.0005107523861911954 0.0005843492106608856 0.0 0.0009289585566643971 0.000602089694314726 0.0 0.0008010218473924417 0.0 0.0 0.0007842576107376964 0.0 0.0 0.0008986278428804663 0.0 0.0 0.0 0.0008336306136413179 0.0 0.0 0.0006610718569111833 0.0 0.0006198774072346888 0.0 0.0 0.0 0.0 0.0 0.0 0.0 0.0 0.0 0.0 0.0010340212763768454 0.0 0.0005953570357357008 0.0 0.0 0.0 0.0 0.0 0.0 0.0 0.0 0.0 0.0 0.0 0.0 0.0 0.0006218520724416698 0.0 0.0 0.0 0.0 0.0 0.000617535424085129 0.0008676981041814024 0.0 0.0 0.0 0.0 0.0 0.0 0.0 0.0 0.0 0.0 0.0 0.0 0.0 0.0 0.0 0.0 0.0 0.0 0.0 0.0 0.0 0.0 0.0 0.0 0.0 0.0 0.0 0.0 0.0 0.0 0.0 0.0 0.0 0.0 0.0 0.0 0.0 0.0 0.0 0.0 0.0 0.0 0.0 0.0 0.0 0.0 0.0 0.0 0.0 0.0 0.0 0.0 0.0 0.0 0.0 0.0 0.0 0.0 0.0 0.0 0.0 0.0 0.0 0.0 0.0 0.0 0.0 0.0 0.0 0.0 0.0 0.0 0.0 0.0</DataArray>
<DataArray type="Float64" Name="g_cold" format="ascii">0.0 0.0 0.0 0.0 0.0 0.0 0.0 0.0 0.0 0.0 0.0 0.0 0.0 0.0 0.0 0.0 0.0 0.0 0.0 0.0 0.0 0.0 0.0 0.0 0.0 0.0 0.0 0.0 0.0 0.0 0.0 0.0 0.0 0.0 0.0 0.0 0.0 0.0 0.0 0.0 0.0 0.0 0.0 0.0 0.0 0.0 0.0 0.0 0.0 0.0 0.0 0.0 0.0 0.0 0.0 0.0 0.0 0.0 0.0 0.0 0.0 0.0 0.0 0.0 0.0 0.0 0.0 0.0 0.0 0.0 0.0 0.0003210863412717884 0.0 0.0003414622066222065 0.0 0.0 0.0 0.0 0.0 0.0004967861094588932 0.0 0.0 0.0 0.0 0.0 0.0 0.0 0.0 0.0 0.0 0.0 0.0 0.0 0.0 0.0 0.0 0.0 0.0 0.0 0.0 0.0 0.0 0.0 0.0 0.0 0.0 0.0 0.0 0.0 0.0 0.0 0.0 0.0 0.0 0.0 0.0 0.0 0.0 0.0 0.0 0.0 0.0 0.0 0.0 0.0 0.0 0.0 0.0 0.0 0.0 0.0 0.0 0.0 0.0 0.0 0.0 0.0 0.0 0.0 0.0 0.0 0.0 0.0 0.0 0.0 0.0 0.0 0.0 0.0 0.0 0.0 0.0 0.0 0.0 0.0 0.0 0.0 0.0 0.0 0.0 0.0 0.0 0.0 0.0 0.0 0.0 0.0 0.0 0.0 0.0 0.0 0.0 0.0 0.0 0.0 0.0006214997329592386 0.0 0.0 0.0 0.0 0.0 0.0 0.0 0.0 0.0005771151688080999 0.0 0.0 0.0 0.0 0.0 0.0 0.0 0.0 0.0 0.0 0.0 0.0 0.0 0.0 0.0 0.0 0.0 0.0 0.0 0.0 0.0 0.0 0.0 0.0 0.0008320227869886771 0.0 0.0 0.0 0.0 0.0 0.0 0.0006996155501905333 0.0 0.0 0.0005022568248101857 0.0 0.0 0.0 0.0 0.0007824716723744119 0.0 0.0 0.00040726148610985703 0.0 0.00040232066572375483 0.0 0.0 0.0 0.0 0.0 0.0 0.0 0.0 0.0 0.0 0.0 0.0 0.0 0.0 0.0 0.0 0.0 0.0 0.0 0.0 0.0 0.0 0.0 0.0 0.0 0.0 0.0 0.0 0.0 0.0 0.0 0.0 0.0 0.0 0.0 0.0 0.0 0.0 0.0 0.0 0.0 0.0 0.0 0.0 0.0 0.0 0.0 0.0 0.0 0.0 0.0 0.0 0.0 0.0 0.0 0.0 0.0 0.0 0.0 0.0 0.0 0.00037611423539717494 0.0 0.0 0.0 0.0 0.0 0.0 0.0 0.0 0.0 0.0 0.0 0.0 0.0 0.0 0.0 0.0 0.0 0.0007501079376119133 0.0 0.0 0.0 0.0 0.0 0.0003647765316853728 0.0 0.0005167803383144574 0.0 0.0 0.0 0.0 0.0 0.0 0.0 0.0 0.0 0.0 0.0 0.0 0.0 0.0005468655392949982 0.0 0.0 0.0 0.0 0.0 0.0 0.0 0.0 0.0 0.0 0.0 0.0008844557185458176 0.0 0.0 0.0 0.0 0.0 0.0006473499193391502 0.000571193415638171 0.0 0.0 0.0007599091511940144 0.0006479675285601893 0.0 0.00029233870436259554 0.0003777061265963372 0.0 0.0 0.0 0.0 0.0 0.0 0.0006796042363525995 0.0 0.0007604353477241853 0.0 0.0 0.0 0.0 0.0 0.0 0.0 0.0 0.0 0.0 0.0 0.0 0.0 0.0 0.0 0.0 0.0 0.0 0.0 0.0 0.0 0.0 0.0 0.0 0.0 0.0 0.0 0.0 0.0 0.0 0.0 0.0 0.0 0.0 0.0 0.0 0.0 0.0 0.0 0.0 0.0 0.0 0.0 0.0 0.0 0.0 0.0 0.0 0.0 0.0 0.0 0.0 0.0 0.0 0.0 0.0 0.0 0.0 0.0 0.0 0.0 0.0 0.0 0.0007367682115736921 0.0 0.0006766294388995342 0.0 0.0009264596038605814 0.0 0.0 0.0 0.0 0.0 0.0 0.0 0.0 0.0 0.0 0.0 0.0 0.0 0.0 0.0 0.0 0.0 0.0007680022119665437 0.0 0.0 0.0006448468016401298 0.0007175147368420374 0.0008819452350262444 0.0 0.0 0.0 0.0 0.0 0.0 0.0 0.0 0.0008445871166348081 0.0 0.0 0.0 0.0 0.0 0.0 0.0 0.0008187352426673123 0.000669199071715956 0.0 0.0 0.0 0.0 0.0 0.0 0.0 0.0007394777870805174 0.0 0.0 0.0 0.0 0.0 0.0 0.0 0.0 0.0 0.0 0.0 0.0 0.0 0.0 0.0 0.0</DataArray>
</PointData><Points>
<DataArray type="Float64" Name="Points" format="ascii" NumberOfComponents="3">0.00550689 0.00349668 0.000686198 0.00249395 0.00585537 0.00482392 0.0041066 0.00328575 0.006116 0.00561151 0.00647095 0.00526389 2.42939e-05 0.00156594 0.00236242 0.00179908 0.00665713 0.00211948 0.00133805 0.00105984 0.0024456 0.00214207 0.00261392 0.0015091 0.00554388 0.00605261 0.00382144 0.00313501 0.00307318 0.00298214 0.0038531 0.00235394 0.000711511 0.00170073 0.00522778 0.00593541 0.0071411 0.00473506 0.00571942 0.0033139 0.00564192 0.00358773 0.00581798 0.0017131 0.00532974 0.00258733 0.00540315 0.00230476 0.00371979 0.0044434 0.0024888 0.00139097 0.00506449 0.00438947 0.00363331 0.00202692 0.00210854 0.00547363 0.00431059 0.00734205 0.0069116 0.00247756 0.00517251 0.00376651 0.00341335 0.00466333 0.00566928 0.00385805 0.00452799 0.0028411 0.0022776 0.00479037 0.00395633 0.00598947 0.00485175 0.00577934 0.00503363 0.00534765 0.00222341 0.00433104 0.000865445 0.0042801 0.00180751 0.00403021 0.0049168 0.00559251 0.000746631 0.0043407 0.00081113 0.0069584 0.00323104 0.00112408 0.00606413 0.00208365 0.00638867 0.00353942 0.00613784 0.00589434 0.00243719 0.00437971 0.00468808 0.00654191 0.00408069 0.00382328 0.0010165 0.000648104 0.00614414 0.00638396 0.00350936 0.00520477 0.0011384 0.00128945 0.00263205 0.00705594 0.00468373 0.00488099 0.0035498 0.00299235 0.00426512 0.00377243 0.00124165 0.00689749 0.00467173 0.00459491 0.0032944 0.00341849 0.00492991 0.00269759 0.00492854 0.00221262 0.00585074 0.000749906 0.00446763 0.00140979 0.00544735 0.00634032 0.00202916 0.00382219 0.00705685 0.00356821 0.00070511 0.00613246 0.00335497 0.00326221 0.000859128 0.00331936 0.00101654 0.00196974 0.00662513 0.00595458 0.00312921 0.00100357 0.00417749 0.0044334 0.00463656 0.00494686 0.00285917 0.00463886 0.00717933 0.00224499 0.00602247 0.00984185 0.00217056 0.00153604 0.00689481 0.00267088 0.00498028 0.0133956 0.00231302 0.00208493 0.00995972 0.00409134 0.00455158 0.0115774 0.00079249 0.00557602 0.0107359 0.00347473 0.0035988 0.00789535 0.0061913 0.00576354 0.0126624 0.00318038 0.00514828 0.0058573 0.00243443 0.00355989 0.00995527 0.00374239 0.0042062 0.010179 0.00271112 0.00298466 0.00685241 0.00718322 0.00654246 0.0120025 0.00186262 0.00364748 0.01329 0.00407076 0.00489165 0.0136487 0.00246311 0.00500609 0.00882307 0.00607948 0.00211658 0.0106307 0.00383811 0.00604449 0.00809802 0.00650129 0.000548744 0.014655 0.00288205 0.00509096 0.0120454 0.00375956 0.00679939 0.0146595 0.00615564 0.00296774 0.0139927 0.00469309 0.00303903 0.00816763 0.0033453 0.00146348 0.0107647 0.00320836 0.000655687 0.00785389 0.00523722 0.001872 0.00664445 0.0031499 0.00462909 0.0147029 0.00614279 0.00260323 0.0125672 0.00507859 0.00372488 0.0132502 0.00701172 0.00332778 0.0108136 0.00579781 0.0040555 0.00973329 0.00189002 0.00259356 0.0143588 0.00420675 0.00683232 0.0094255 0.0043409 0.00218392 0.0122015 0.00336505 0.0029206 0.0109103 0.00206618 0.00486939 0.0105402 0.00521997 0.00457387 0.0143828 0.00495642 0.00511542 0.0103778 0.00626942 0.00435055 0.0128169 0.00247239 0.00612882 0.0143322 0.00184576 0.00687912 0.0129793 0.00723671 0.00400854 0.00962651 0.00356587 0.00558509 0.0094607 0.00288105 0.00196297 0.0123841 0.00394098 0.00221464 0.00713954 0.0025793 0.00647648 0.0085953 0.00337431 0.00222301 0.0143338 0.00349438 0.00343213 0.0129404 0.00549768 0.00371292 0.0114357 0.00189414 0.0035208 0.00832031 0.00512582 0.00171795 0.0136687 0.00454722 0.0045732 0.00868955 0.00338694 0.00210725 0.00871892 0.00564376 0.0139408 0.00505524 0.0014785 0.00832182 0.00260598 0.004669 0.00736679 0.00419267 0.00435486 0.00952824 0.00266932 0.00602008 0.0106068 0.00292852 0.0036382 0.0133115 0.00495927 0.00562036 0.000245854 0.00610147 0.00745116 0.00925433 0.00532742 0.00448759 0.00861317 0.00631525 0.00296046 0.00780181 0.00358274 0.00338553 0.0148693 0.00659845 0.00592233 0.000422719 0.00418585 0.00259807 0.00843522 0.00689015 0.00341844 0.00998628 0.000945989 0.00512033 0.00137358 0.00266168 0.00200901 0.0124504 0.00551338 0.00665526 0.00796492 0.00644584 0.00518719 0.0120419 0.00479259 0.00417995 0.00634827 0.00649208 0.00292068 0.0100645 0.00619603 0.00248616 0.014625 0.00425626 0.00408533 0.0141499 0.00320158 0.00550421 0.00771997 0.0025297 0.015198 0.00879237 0.000933848 0.00323857 0.00751304 0.00169857 0.00290152 0.000536442 0.00257866 0.00626471 0.000394324 0.00090202 0.00167457 0.0107169 0.00489772 0.00542765 0.0103481 0.000920133 0.00443025 0.0153537 0.00152027 0.00459132 0.0132962 0.00660491 0.00472339 0.00850045 0.000936511 0.00173921 0.0143355 0.00259254 0.00245518 0.0124237 0.000870872 0.00487193 0.0104525 0.00590612 0.000990653 0.0127461 0.00195513 0.000694662 0.0113931 0.00327687 0.00312294 0.0109931 0.00786704 0.00433211 0.00960194 0.00840004 0.0063825 0.00246836 0.0017547 0.00566444 0.00896825 0.00454793 0.00558199 0.0128664 0.00310081 0.00592708 0.0137259 0.000927311 0.006592 0.0109205 0.00534099 0.0041128 0.0115878 0.0032861 0.00198444 0.00880895 0.005006 0.00158941 0.00975002 0.00781982 0.00723415 0.00911615 0.00348012 0.00197719 0.0124807 0.0075854 0.00396855 0.0135807 0.000892407 0.00262031 0.014977 0.000916098 0.00638669 0.00670426 0.000959682 0.00347765 0.0114149 0.00508477 0.00145657 0.0103353 0.000944839 0.00417452 0.015254 0.00484684 0.00588877 0.0147066 0.00257328 0.00323351 0.00751739 0.00540983 0.00237807 0.00976905 0.00339288 0.0038128 0.00945952 0.00461609 0.00260923 0.0111784 0.00222973 0.00441928 0.00608606 0.00234575 0.0062542 0.0123542 0.0064365 0.00483284 0.0120362 0.00156416 0.0016153 0.00807563 0.000830446 0.00551207 0.00820059 0.00790648 0.00243615 0.0126361 0.00354801 0.00274349 0.0118322 0.00960017 0.00514563 0.0141863 0.0114768 0.00327331 0.00977703 0.0129013 0.00247294 0.0116802 0.0144672 0.000895667 0.0143074 0.0121816 0.00561151 0.0125904 0.00816894 0.00111091 0.0111171 0.00906271 0.00548946 0.0119861 0.0107566 0.00384559 0.000568991 0.0127041 0.00514602 0.0061911 0.0138844 0.0054494 0.0110859 0.0124353 0.00219134 0.00822193 0.0120913 0.00367205 0.0139743 0.0144539 0.00556864 0.0138778 0.00956007 0.00565231 0.0107524 0.00757463 0.00228446 0.000390167 0.0116318 0.00466319 0.00835851 0.0098249 0.00364968 0.00609395 0.0109984 0.00488553 0.000928784 0.0112255 0.00659043 0.0126699 0.012827 0.00286391 0.00756216 0.0100168 0.00734726 0.0109571 0.0124358 0.00371072 0.012813 0.00825338 0.00463099 0.000764512 0.00939229 0.00434558 0.0146718 0.00826079 0.00348534 0.00644053 0.0129185 0.001543 0.00169206 0.00844973 0.00383857 0.0124039 0.0116383 0.00453515 0.0102526 0.0107538 0.00125487 0.00930691 0.0131188 0.00687684 0.0120782 0.00949811 0.00398549 0.0116106 0.013439 0.0018653 0.00661493 0.0113342 0.00244177 0.0142657 0.00829864 0.00330563 0.014246 0.0116456 0.00516824 0.00919381 0.0124956 0.00272771 0.00973349 0.0094295 0.00224975 0.00984401 0.0145437 0.0047209 0.00276063 0.00992216 0.00226809 0.0126573 0.012806 0.00545427 0.00624021 0.00861104 0.00280749 0.000380307 0.00950131 0.0036072 0.0138469 0.00983508 0.006386 0.00995776 0.0111527 0.00185329 0.0134416 0.014493 0.00482232 0.0132905 0.0131115 0.00364877 0.00777059 0.00824814 0.00561309 0.0121207 0.0144337 0.00244963 0.0147904 0.0132769 0.00208788 0.0130251 0.0109315 0.00143792 0.00827659 0.00903511 0.00250377 0.00790481 0.0142206 0.00387311 0.000554317 0.0145237 0.00594262 0.0101888 0.00934363 0.00271519 0.0108187 0.011325 0.00542424 0.0146565 0.0144121 0.00152566 0.00710478 0.00749418 0.00530093 0.00802233 0.0144111 0.00450492 0.011367 0.00920312 0.00598883 0.0142874 0.00739128 0.00374384 0.00866361 0.0113834 0.000616326 0.00399673 0.00635507 0.014642 0.00267487 0.00135665 0.014153 0.00681157 0.00461387 0.00742918 0.00414606 0.00250186 0.0116425 0.00352485 0.00467782 0.0115956 0.00410723 0.000941405 0.0125469 0.00243534 0.000937787 0.0147669 0.00368308 0.00301526 0.013256 0.00476577 0.00535655 0.00231819 0.00375046 0.00540204 0.0135259 0.00309897 0.00445234 0.0101447 0.00626016 0.00431082 0.00159263 0.00397684 0.00245966 0.0111896 0.00239542 0.00306397 0.0118598 0.00599608 0.00505566 0.00986114 0.00124449 0.00591023 0.00975062 0.0028557 0.00438878 0.01485 0.000141972 0.00573865 0.00540987 0.00438292 0.00210051 0.000666639 0.00565416 0.00299115 0.00831154 0.00266515 0.00155708 0.000652224 0.00355145 0.00450193 0.0120396 0.00160581 0.00463893 0.00768304 0.00513206 0.0008927 0.013916 0.00191452 0.0030243 0.011942 0.00257805 0.00630703 0.014065 0.00549547 0.00303463 0.0103998 0.00474591 0.0054587 0.0102022 0.00276631 0.000983391 0.0113428 0.000156712 0.00572291 0.0105171 0.00418446 0.00323314 0.0150858 0.0019423 0.00453804 0.0152214 0.00193525 0.00647175 0.00927088 0.00106333 0.000987595 0.00814283 0.00332684 0.00618653 0.0102956 0.00659398 0.00249306 0.0104218 0.00562223 0.000880248 0.0127819 0.00343304 0.0025316 0.0123781 0.00086897 0.00288935 0.00741908 0.00375601 0.00439731 0.0080184 0.00197629 0.00420482 0.0136595 0.000957123 0.00132237 0.00850193 0.00671286 0.00331727 0.00921254 0.0046225 0.00193656 0.00592328 0.00329795 0.00617406 0.00890834 0.00486732 0.0040678 0.0101005 0.00303272 0.0062614 0.00922973 0.00617795 0.00595745 0.0122887 0.0049298 0.00356385 0.0135454 0.00417609 0.000911959 0.015298 0.00472588 0.00145825 0.00735845 0.00640055 0.00556112 0.00171505 0.00228648 0.00349782 0.0104481 0.000546897 0.00276551 0.0133803 0.00134466 0.00629287 0.0150454 0.00514322 0.00463921 0.00706957 0.00549461 0.00381479 0.00892694 0.00285422 0.0102595 0.0153069 0.0018157 0.014406 0.0119138 0.00443533 0.00667265 0.0135163 0.00118581 0.0118229 0.0119666 0.00459867 0.0103937 0.00859595 0.00494187 0.00947844 0.0145425 0.0045199 0.00752635 0.0102644 0.00445689 0.0112253 0.00596853 0.00587271 0.00680406 0.00754539 0.00157682 0.0138615 0.013359 0.00375319 0.00924678 0.0101689 0.00396273 0.00940609 0.0020758 0.00369375 0.0116541 0.0103622 0.00583162 0.00961346 0.00137916 0.00527051 0.00761013 0.0101179 0.00171272 0.00916193 0.0140311 0.00172703 0.00953916 0.00163051 0.00123065 0.0132459 0.000523567 0.00277245 0.0128203 0.0136303 0.00278126 0.0145113 0.00777266 0.00570661 0.0134156 0.0118224 0.000913144 0.0127025 0.011925 0.00635487 0.00698626 0.00942254 0.00385748 0.00773685 0.0088342 0.00142201 0.00744304 0.0109361 0.000576794 0.0144039 0.014891 0.00584454 0.0119288 0.0115425 0.00597328 0.0144374 0.0137905 0.00322004 0.00635161 0.0130228 0.0023803 0.00794966 0.0091712 0.00323761 0.0121803 5.48773e-05 0.000821465 0.0120065 0.000821959 0.00470507 0.0093237 0.0101807 0.00560533 0.00749669 0.013354 0.00278135 0.0127024 0.0148588 0.00244252 0.0111882 0.000250513 0.00412795 0.0112412 0.0077918 0.00311853 0.00834715 0.0134602 0.00048378 0.00828805 0.00819969 0.00502586 0.00700857 0.00821753 0.0014506 0.0092194 0.00957438 0.0061284 0.0144454 0.0143842 0.00596018 0.00627858 0.00756938 0.00337546 0.0131489 0.0111477 0.00304345 0.00803134 0.0153675 0.00290284 0.00813872 0.0134248 0.00445678 0.011517 0.01301 0.00622487 0.0103682 0.000806314 0.0028681 0.00986283 0.0105445 0.00237956 0.0130966 0.0125912 0.00431798 0.0141866 0.0114696 0.00497232 0.0127713 0.0133343 0.0055653 0.00855316 0.0151011 0.00398761 0.0145662 0.0130644 0.00267668 0.0108079 0.00754495 0.00457587 0.0117344 0.00671874 0.00480399 0.00827677 0.0146333 0.00421624 0.0128649 0.00146955 0.00195753 0.0113603 0.00884136 0.00365499 0.0144754 0.0093784 0.00173494 0.0144522 0.0129685 0.000962183 0.0143384 0.0144777 0.00508248 0.0100249 0.00682491 0.00441587 0.014515 0.00148972 0.00470095 0.0144756 0.00950228 0.00496203 0.0129358 0.0106732 0.00420135 0.014392 0.00729556 0.00732275 0.0144063 0.0071229 0.00180934 0.00663761 0.0114896 0.00278583 0.00991674 0.0139797 0.00561908 0.0141586 0.0116254 0.00486107 0.00853649 0.00124925 0.00524275 0.0125171 0.0130962 0.00609655 0.0124864 0.0117368 0.00248918 0.0144861 0.0116804 0.00331426 0.0119383 0.0103137 0.00792974 0.0145152 0.0132729 0.000112687 0.00460416 0.0106922 0.007991 0.00484918 0.0103604 0.0103756 0.0038368 0.000581356 0.00645643 0.000934783 0.0110253 0.00746543 0.000914634 0.00666804 0.00736595 0.00403058 0.0078398 0.0106795 0.000784259 0.00942579 0.0092672 0.000909372 0.00872273 0.012378 0.00353635 0.0113609 0.00961836 0.000839591 0.00949173 0.000952957 0.00414294 0.0095692 0.00985213 0.00542353 0.014834 0.012815 0.000846235 0.0139221 0.00863387 0.00493677 0.00722783 0.0143659 0.00390681 0.0122199 0.0121278 0.000798117 0.0106086 0.0122913 0.00347158 0.00785634 0.0132441 0.00581836 0.0119612 0.0105134 0.00716012 0.0124554 0.0139978 0.000826265 0.0088783 0.00839685 0.00426246 0.0146309 0.0126337 0.00270099 0.0142575 0.0146048 0.000890746 0.0124734 0.00766453 0.00556783 0.000826753 0.00157863 0.000903938 0.0136613 0.00894955 0.00686641 0.013888 0.0131555 0.00549963 0.000533971 0.010151 0.00629491 0.00906343 0.0143338 0.00330307 0.00699579 0.0125286 0.00433931 0.000708514 0.01507 0.0011872 0.00955336 0.0148107 0.00515429 0.00821013 0.0108382 0.00457133 0.0099272 0.0128128 0.00531978 0.0109517 0.0086338 0.00273717 0.0114223 0.000540981 0.00103616 0.000206758 0.00800877 0.00608716 0.00867428 0.00718723 0.00117911 0.00882915 0.00815255 0.00649621 0.000245622 0.00939612 0.00394187 0.0124261 0.0059906 0.00169436 0.0152092 4.1469e-05 0.00353832 0.0099705 0.011232 0.00696161 0.00868276 0.0103394 0.00260597 0.0140053 0.0107202 0.0055212 0.0132777 0.0142924 0.0027546 0.0148344 0.00747267 0.00264417 0.000428368 0.0132731 0.00439748 0.0129536 0.0121543 0.00390938 0.00732996 0.012393 0.00191011 0.0118051 0.00978982 0.00519802 0.0130901 0.0082705 0.00117266 0.00769143 2.87285e-05 0.00574883 0.0116779 0.0109676 0.00235501 0.00149237 0.00091399 0.00518646 0.014748 0.0107669 0.00158044 0.0107256 0.0138129 0.00197968 0.00847946 0.0143992 0.00117373 0.00985726 0.0117956 0.00109942 0.0133502 0.00978192 0.00333575 0.00752037 0.000754775 0.00258906 0.00691007 0.00881079 0.00131709 0.0114124 0.0142856 0.00415337 0.000414601 0.0109652 0.0142292 2.69741e-05 0.0132678 0.0104445 0.00753677 0.0141543 0.0142122 0.00607424 0.00187391 0.00840978 0.00784831 0.0118059 0.0142923 0.0100177 0.0144228 0.00720706 0.00884276 4.55432e-05 0.0127172 0.0137234 0.0113471 0.00784564 0.0140303 0.0147639 0.012746 0.0130757 0.0106725 0.0118092 0.0146439 0.00905744 0.0126353 0.00676024 0.00822546 0.0097384 0.00753778 0.00676231 0.00798747 0.0108659 0.011259 0.0107344 0.013001 0.014645 0.00662837 0.0128084 0.0127629 0.0103367 0.000141591 0.00027069 0.00783099 0.0132766 0.00828608 0.0108946 0.00819572 0.0126046 0.00780329 0.0112654 0.00669916 0.0115973 0.00802975 0.0102599 0.00967924 0.00913674 0.0129533 0.012307 0.00864166 0.00939466 0.0142386 0.000664174 0.0115122 0.0119648 0.00719365 0.00847032 0.0125301 0.00618894 0.0100052 0.0142038 0.000497835 0.00663433 0.0142236 0.0132421 0.00994916 0.0142762 0.014891 0.00921022 0.00870052 0.0122769 0.012054 0.0135245 0.00537068 0.00720536 0.0115956 0.010175 0.00136039 0.0113075 0.0068 0.00585944 0.0101926 0.00771821 0.0102894 0.00720679 0.00715342 0.0135789 0.0110086 0.0113018 0.0141158 0.0118061 0.0123507 0.0142329 0.0142633 0.00100868 0.00951586 0.0107396 0.00952476 0.00789509 0.0126001 0.0116084 0.00904377 0.0127428 0.00768599 0.00181977 0.0116558 0.014227 0.0136583 0.00840087 0.0078481 0.0149638 0.0081765 0.0125271 0.00757593 0.00873234 0.00999275 0.0139587 0.0142547 0.0144214 0.0129272 0.0142102 0.0125518 0.0102078 0.00950759 3.52536e-05 0.00733108 0.0104712 0.00924117 0.00762647 0.00936513 0.00906052 0.010029 0.0117812 0.0138485 0.0150226 0.0103719 0.00898234 0.0124593 0.0100091 0.00935402 0.0148382 0.0100723 0.000487048 0.0150457 0.01423 0.0101187 0.0111473 0.013615 0.0146414 0.0110982 0.0100804 0.00135964 0.0142485 0.00642244 0.0148551 0.0069214 0.00813757 0.0110015 0.00870647 0.0104428 0.0111456 0.00842479 0.00703801 0.0117725 0.012726 0.00724992 0.0129773 0.00756246 0.0141152 0.000799686 0.000139169 0.0101034 0.0116504 0.000247567 0.00982538 0.00635496 0.000150096 0.0126338 0.000104595 0.0122813 0.00662167 0.00890359 0.00615051 0.0112315 0.0114166 0.000946551 0.00761475 0.0099601 0.00974874 0.00861431 0.00664752 0.000316691 0.0101581</DataArray>
</Points><Verts>
<DataArray type="Int64" Name="connectivity" format="ascii">0 1 2 3 4 5 6 7 8 9 10 11 12 13 14 15 16 17 18 19 20 21 22 23 24 25 26 27 28 29 30 31 32 33 34 35 36 37 38 39 40 41 42 43 44 45 46 47 48 49 50 51 52 53 54 55 56 57 58 59 60 61 62 63 64 65 66 67 68 69 70 71 72 73 74 75 76 77 78 79 80 81 82 83 84 85 86 87 88 89 90 91 92 93 94 95 96 97 98 99 100 101 102 103 104 105 106 107 108 109 110 111 112 113 114 115 116 117 118 119 120 121 122 123 124 125 126 127 128 129 130 131 132 133 134 135 136 137 138 139 140 141 142 143 144 145 146 147 148 149 150 151 152 153 154 155 156 157 158 159 160 161 162 163 164 165 166 167 168 169 170 171 172 173 174 175 176 177 178 179 180 181 182 183 184 185 186 187 188 189 190 191 192 193 194 195 196 197 198 199 200 201 202 203 204 205 206 207 208 209 210 211 212 213 214 215 216 217 218 219 220 221 222 223 224 225 226 227 228 229 230 231 232 233 234 235 236 237 238 239 240 241 242 243 244 245 246 247 248 249 250 251 252 253 254 255 256 257 258 259 260 261 262 263 264 265 266 267 268 269 270 271 272 273 274 275 276 277 278 279 280 281 282 283 284 285 286 287 288 289 290 291 292 293 294 295 296 297 298 299 300 301 302 303 304 305 306 307 308 309 310 311 312 313 314 315 316 317 318 319 320 321 322 323 324 325 326 327 328 329 330 331 332 333 334 335 336 337 338 339 340 341 342 343 344 345 346 347 348 349 350 351 352 353 354 355 356 357 358 359 360 361 362 363 364 365 366 367 368 369 370 371 372 373 374 375 376 377 378 379 380 381 382 383 384 385 386 387 388 389 390 391 392 393 394 395 396 397 398 399 400 401 402 403 404 405 406 407 408 409 410 411 412 413 414 415 416 417 418 419 420 421 422 423 424 425 426 427 428 429 430 431 432 433 434 435 436 437 438 439 440 441 442 443 444 445 446 447 448 449 450 451 452 453 454 455 456 457 458 459 460 461 462 463 464 465 466 467 468 469 470 471 472 473 474 475 476 477 478 479 480 481 482 483 484 485 486 487 488 489 490 491 492 493 494 495 496 497 498 499</DataArray>
<DataArray type="Int64" Name="offsets" format="ascii">1 2 3 4 5 6 7 8 9 10 11 12 13 14 15 16 17 18 19 20 21 22 23 24 25 26 27 28 29 30 31 32 33 34 35 36 37 38 39 40 41 42 43 44 45 46 47 48 49 50 51 52 53 54 55 56 57 58 59 60 61 62 63 64 65 66 67 68 69 70 71 72 73 74 75 76 77 78 79 80 81 82 83 84 85 86 87 88 89 90 91 92 93 94 95 96 97 98 99 100 101 102 103 104 105 106 107 108 109 110 111 112 113 114 115 116 117 118 119 120 121 122 123 124 125 126 127 128 129 130 131 132 133 134 135 136 137 138 139 140 141 142 143 144 145 146 147 148 149 150 151 152 153 154 155 156 157 158 159 160 161 162 163 164 165 166 167 168 169 170 171 172 173 174 175 176 177 178 179 180 181 182 183 184 185 186 187 188 189 190 191 192 193 194 195 196 197 198 199 200 201 202 203 204 205 206 207 208 209 210 211 212 213 214 215 216 217 218 219 220 221 222 223 224 225 226 227 228 229 230 231 232 233 234 235 236 237 238 239 240 241 242 243 244 245 246 247 248 249 250 251 252 253 254 255 256 257 258 259 260 261 262 263 264 265 266 267 268 269 270 271 272 273 274 275 276 277 278 279 280 281 282 283 284 285 286 287 288 289 290 291 292 293 294 295 296 297 298 299 300 301 302 303 304 305 306 307 308 309 310 311 312 313 314 315 316 317 318 319 320 321 322 323 324 325 326 327 328 329 330 331 332 333 334 335 336 337 338 339 340 341 342 343 344 345 346 347 348 349 350 351 352 353 354 355 356 357 358 359 360 361 362 363 364 365 366 367 368 369 370 371 372 373 374 375 376 377 378 379 380 381 382 383 384 385 386 387 388 389 390 391 392 393 394 395 396 397 398 399 400 401 402 403 404 405 406 407 408 409 410 411 412 413 414 415 416 417 418 419 420 421 422 423 424 425 426 427 428 429 430 431 432 433 434 435 436 437 438 439 440 441 442 443 444 445 446 447 448 449 450 451 452 453 454 455 456 457 458 459 460 461 462 463 464 465 466 467 468 469 470 471 472 473 474 475 476 477 478 479 480 481 482 483 484 485 486 487 488 489 490 491 492 493 494 495 496 497 498 499 500</DataArray>
</Verts></Piece></PolyData></VTKFile>