<?xml version="1.0"?>
<VTKFile type="PolyData" version="0.1" byte_order="LittleEndian">
<PolyData>
<Piece NumberOfPoints="500" NumberOfVerts="500" NumberOfLines="0" NumberOfStrips="0" NumberOfPolys="0">
<PointData>
<DataArray type="Int64" Name="id" format="ascii">1 2 3 4 5 6 7 8 9 10 11 12 13 14 15 16 17 18 19 20 21 22 23 24 25 26 27 28 29 30 31 32 33 34 35 36 37 38 39 40 41 42 43 44 45 46 47 48 49 50 51 52 53 54 55 56 57 58 59 60 61 62 63 64 65 66 67 68 69 70 71 72 73 74 75 76 77 78 79 80 81 82 83 84 85 86 87 88 89 90 91 92 93 94 95 96 97 98 99 100 101 102 103 104 105 106 107 108 109 110 111 112 113 114 115 116 117 118 119 120 121 122 123 124 125 126 127 128 129 130 131 132 133 134 135 136 137 138 139 140 141 142 143 144 145 146 147 148 149 150 151 152 153 154 155 156 157 158 159 160 161 162 163 164 165 166 167 168 169 170 171 172 173 174 175 176 177 178 179 180 181 182 183 184 185 186 187 188 189 190 191 192 193 194 195 196 197 198 199 200 201 202 203 204 205 206 207 208 209 210 211 212 213 214 215 216 217 218 219 220 221 222 223 224 225 226 227 228 229 230 231 232 233 234 235 236 237 238 239 240 241 242 243 244 245 246 247 248 249 250 251 252 253 254 255 256 257 258 259 260 261 262 263 264 265 266 267 268 269 270 271 272 273 274 275 276 277 278 279 280 281 282 283 284 285 286 287 288 289 290 291 292 293 294 295 296 297 298 299 300 301 302 303 304 305 306 307 308 309 310 311 312 313 314 315 316 317 318 319 320 321 322 323 324 325 326 327 328 329 330 331 332 333 334 335 336 337 338 339 340 341 342 343 344 345 346 347 348 349 350 351 352 353 354 355 356 357 358 359 360 361 362 363 364 365 366 367 368 369 370 371 372 373 374 375 376 377 378 379 380 381 382 383 384 385 386 387 388 389 390 391 392 393 394 395 396 397 398 399 400 401 402 403 404 405 406 407 408 409 410 411 412 413 414 415 416 417 418 419 420 421 422 423 424 425 426 427 428 429 430 431 432 433 434 435 436 437 438 439 440 441 442 443 444 445 446 447 448 449 450 451 452 453 454 455 456 457 458 459 460 461 462 463 464 465 466 467 468 469 470 471 472 473 474 475 476 477 478 479 480 481 482 483 484 485 486 487 488 489 490 491 492 493 494 495 496 497 498 499 500</DataArray>
<DataArray type="Int32" Name="type" format="ascii">1 1 1 1 1 1 1 1 1 1 1 1 1 1 1 1 1 1 1 1 1 1 1 1 1 1 1 1 1 1 1 1 1 1 1 1 1 1 1 1 1 1 1 1 1 1 1 1 1 1 1 1 1 1 1 1 1 1 1 1 1 1 1 1 1 1 1 1 1 1 1 1 1 1 1 1 1 1 1 1 1 1 1 1 1 1 1 1 1 1 1 1 1 1 1 1 1 1 1 1 2 2 2 2 2 2 2 2 2 2 2 2 2 2 2 2 2 2 2 2 2 2 2 2 2 2 2 2 2 2 2 2 2 2 2 2 2 2 2 2 2 2 2 2 2 2 2 2 2 2 2 2 2 2 2 2 2 2 2 2 2 2 2 2 2 2 2 2 2 2 2 2 2 2 2 2 2 2 2 2 2 2 2 2 2 2 2 2 2 2 2 2 2 2 2 2 2 2 2 2 2 2 2 2 2 2 2 2 2 2 2 2 2 2 2 2 2 2 2 2 2 2 2 2 2 2 2 2 2 2 2 2 2 2 2 2 2 2 2 2 2 2 2 2 2 2 2 2 2 2 2 2 2 2 2 2 2 2 2 2 2 2 2 2 2 2 2 2 2 2 2 2 2 2 2 2 2 2 2 2 2 2 2 2 2 2 2 2 2 2 2 2 2 2 2 2 2 2 2 2 2 2 2 2 2 2 2 2 2 2 2 2 2 2 2 2 2 2 2 2 2 2 2 2 2 2 2 2 2 2 2 2 2 2 2 2 2 2 2 2 2 2 2 2 2 2 2 2 2 2 2 2 2 2 2 2 2 2 2 2 2 2 2 2 2 2 2 2 2 2 2 2 2 2 2 2 2 2 2 2 2 2 2 2 2 2 2 2 2 2 2 2 2 2 2 2 2 2 2 2 3 3 3 3 3 3 3 3 3 3 3 3 3 3 3 3 3 3 3 3 3 3 3 3 3 3 3 3 3 3 3 3 3 3 3 3 3 3 3 3 3 3 3 3 3 3 3 3 3 3 3 3 3 3 3 3 3 3 3 3 3 3 3 3 3 3 3 3 3 3 3 3 3 3 3 3 3 3 3 3 3 3 3 3 3 3 3 3 3 3 3 3 3 3 3 3 3 3 3 3</DataArray>
<DataArray type="Float64" Name="radius" format="ascii">0.00075 0.00075 0.00075 0.00075 0.00075 0.00075 0.00075 0.00075 0.00075 0.00075 0.00075 0.00075 0.00075 0.00075 0.00075 0.00075 0.00075 0.00075 0.00075 0.00075 0.00075 0.00075 0.00075 0.00075 0.00075 0.00075 0.00075 0.00075 0.00075 0.00075 0.00075 0.00075 0.00075 0.00075 0.00075 0.00075 0.00075 0.00075 0.00075 0.00075 0.00075 0.00075 0.00075 0.00075 0.00075 0.00075 0.00075 0.00075 0.00075 0.00075 0.00075 0.00075 0.00075 0.00075 0.00075 0.00075 0.00075 0.00075 0.00075 0.00075 0.00075 0.00075 0.00075 0.00075 0.00075 0.00075 0.00075 0.00075 0.00075 0.00075 0.00075 0.00075 0.00075 0.00075 0.00075 0.00075 0.00075 0.00075 0.00075 0.00075 0.00075 0.00075 0.00075 0.00075 0.00075 0.00075 0.00075 0.00075 0.00075 0.00075 0.00075 0.00075 0.00075 0.00075 0.00075 0.00075 0.00075 0.00075 0.00075 0.00075 0.001 0.001 0.001 0.001 0.001 0.001 0.001 0.001 0.001 0.001 0.001 0.001 0.001 0.001 0.001 0.001 0.001 0.001 0.001 0.001 0.001 0.001 0.001 0.001 0.001 0.001 0.001 0.001 0.001 0.001 0.001 0.001 0.001 0.001 0.001 0.001 0.001 0.001 0.001 0.001 0.001 0.001 0.001 0.001 0.001 0.001 0.001 0.001 0.001 0.001 0.001 0.001 0.001 0.001 0.001 0.001 0.001 0.001 0.001 0.001 0.001 0.001 0.001 0.001 0.001 0.001 0.001 0.001 0.001 0.001 0.001 0.001 0.001 0.001 0.001 0.001 0.001 0.001 0.001 0.001 0.001 0.001 0.001 0.001 0.001 0.001 0.001 0.001 0.001 0.001 0.001 0.001 0.001 0.001 0.001 0.001 0.001 0.001 0.001 0.001 0.001 0.001 0.001 0.001 0.001 0.001 0.001 0.001 0.001 0.001 0.001 0.001 0.001 0.001 0.001 0.001 0.001 0.001 0.001 0.001 0.001 0.001 0.001 0.001 0.001 0.001 0.001 0.001 0.001 0.001 0.001 0.001 0.001 0.001 0.001 0.001 0.001 0.001 0.001 0.001 0.001 0.001 0.001 0.001 0.001 0.001 0.001 0.001 0.001 0.001 0.001 0.001 0.001 0.001 0.001 0.001 0.001 0.001 0.001 0.001 0.001 0.001 0.001 0.001 0.001 0.001 0.001 0.001 0.001 0.001 0.001 0.001 0.001 0.001 0.001 0.001 0.001 0.001 0.001 0.001 0.001 0.001 0.001 0.001 0.001 0.001 0.001 0.001 0.001 0.001 0.001 0.001 0.001 0.001 0.001 0.001 0.001 0.001 0.001 0.001 0.001 0.001 0.001 0.001 0.001 0.001 0.001 0.001 0.001 0.001 0.001 0.001 0.001 0.001 0.001 0.001 0.001 0.001 0.001 0.001 0.001 0.001 0.001 0.001 0.001 0.001 0.001 0.001 0.001 0.001 0.001 0.001 0.001 0.001 0.001 0.001 0.001 0.001 0.001 0.001 0.001 0.001 0.001 0.001 0.001 0.001 0.001 0.001 0.001 0.001 0.001 0.001 0.001 0.001 0.001 0.001 0.001 0.001 0.001 0.001 0.001 0.001 0.001 0.001 0.001 0.001 0.001 0.001 0.001 0.001 0.001 0.001 0.001 0.001 0.001 0.001 0.001 0.001 0.001 0.001 0.001 0.001 0.001 0.001 0.001 0.001 0.001 0.001 0.001 0.001 0.001 0.001 0.001 0.001 0.001 0.001 0.001 0.001 0.001 0.001 0.00125 0.00125 0.00125 0.00125 0.00125 0.00125 0.00125 0.00125 0.00125 0.00125 0.00125 0.00125 0.00125 0.00125 0.00125 0.00125 0.00125 0.00125 0.00125 0.00125 0.00125 0.00125 0.00125 0.00125 0.00125 0.00125 0.00125 0.00125 0.00125 0.00125 0.00125 0.00125 0.00125 0.00125 0.00125 0.00125 0.00125 0.00125 0.00125 0.00125 0.00125 0.00125 0.00125 0.00125 0.00125 0.00125 0.00125 0.00125 0.00125 0.00125 0.00125 0.00125 0.00125 0.00125 0.00125 0.00125 0.00125 0.00125 0.00125 0.00125 0.00125 0.00125 0.00125 0.00125 0.00125 0.00125 0.00125 0.00125 0.00125 0.00125 0.00125 0.00125 0.00125 0.00125 0.00125 0.00125 0.00125 0.00125 0.00125 0.00125 0.00125 0.00125 0.00125 0.00125 0.00125 0.00125 0.00125 0.00125 0.00125 0.00125 0.00125 0.00125 0.00125 0.00125 0.00125 0.00125 0.00125 0.00125 0.00125 0.00125</DataArray>
<DataArray type="Float64" Name="diameter" format="ascii">0.0015 0.0015 0.0015 0.0015 0.0015 0.0015 0.0015 0.0015 0.0015 0.0015 0.0015 0.0015 0.0015 0.0015 0.0015 0.0015 0.0015 0.0015 0.0015 0.0015 0.0015 0.0015 0.0015 0.0015 0.0015 0.0015 0.0015 0.0015 0.0015 0.0015 0.0015 0.0015 0.0015 0.0015 0.0015 0.0015 0.0015 0.0015 0.0015 0.0015 0.0015 0.0015 0.0015 0.0015 0.0015 0.0015 0.0015 0.0015 0.0015 0.0015 0.0015 0.0015 0.0015 0.0015 0.0015 0.0015 0.0015 0.0015 0.0015 0.0015 0.0015 0.0015 0.0015 0.0015 0.0015 0.0015 0.0015 0.0015 0.0015 0.0015 0.0015 0.0015 0.0015 0.0015 0.0015 0.0015 0.0015 0.0015 0.0015 0.0015 0.0015 0.0015 0.0015 0.0015 0.0015 0.0015 0.0015 0.0015 0.0015 0.0015 0.0015 0.0015 0.0015 0.0015 0.0015 0.0015 0.0015 0.0015 0.0015 0.0015 0.002 0.002 0.002 0.002 0.002 0.002 0.002 0.002 0.002 0.002 0.002 0.002 0.002 0.002 0.002 0.002 0.002 0.002 0.002 0.002 0.002 0.002 0.002 0.002 0.002 0.002 0.002 0.002 0.002 0.002 0.002 0.002 0.002 0.002 0.002 0.002 0.002 0.002 0.002 0.002 0.002 0.002 0.002 0.002 0.002 0.002 0.002 0.002 0.002 0.002 0.002 0.002 0.002 0.002 0.002 0.002 0.002 0.002 0.002 0.002 0.002 0.002 0.002 0.002 0.002 0.002 0.002 0.002 0.002 0.002 0.002 0.002 0.002 0.002 0.002 0.002 0.002 0.002 0.002 0.002 0.002 0.002 0.002 0.002 0.002 0.002 0.002 0.002 0.002 0.002 0.002 0.002 0.002 0.002 0.002 0.002 0.002 0.002 0.002 0.002 0.002 0.002 0.002 0.002 0.002 0.002 0.002 0.002 0.002 0.002 0.002 0.002 0.002 0.002 0.002 0.002 0.002 0.002 0.002 0.002 0.002 0.002 0.002 0.002 0.002 0.002 0.002 0.002 0.002 0.002 0.002 0.002 0.002 0.002 0.002 0.002 0.002 0.002 0.002 0.002 0.002 0.002 0.002 0.002 0.002 0.002 0.002 0.002 0.002 0.002 0.002 0.002 0.002 0.002 0.002 0.002 0.002 0.002 0.002 0.002 0.002 0.002 0.002 0.002 0.002 0.002 0.002 0.002 0.002 0.002 0.002 0.002 0.002 0.002 0.002 0.002 0.002 0.002 0.002 0.002 0.002 0.002 0.002 0.002 0.002 0.002 0.002 0.002 0.002 0.002 0.002 0.002 0.002 0.002 0.002 0.002 0.002 0.002 0.002 0.002 0.002 0.002 0.002 0.002 0.002 0.002 0.002 0.002 0.002 0.002 0.002 0.002 0.002 0.002 0.002 0.002 0.002 0.002 0.002 0.002 0.002 0.002 0.002 0.002 0.002 0.002 0.002 0.002 0.002 0.002 0.002 0.002 0.002 0.002 0.002 0.002 0.002 0.002 0.002 0.002 0.002 0.002 0.002 0.002 0.002 0.002 0.002 0.002 0.002 0.002 0.002 0.002 0.002 0.002 0.002 0.002 0.002 0.002 0.002 0.002 0.002 0.002 0.002 0.002 0.002 0.002 0.002 0.002 0.002 0.002 0.002 0.002 0.002 0.002 0.002 0.002 0.002 0.002 0.002 0.002 0.002 0.002 0.002 0.002 0.002 0.002 0.002 0.002 0.002 0.002 0.002 0.002 0.002 0.002 0.002 0.002 0.002 0.002 0.002 0.002 0.0025 0.0025 0.0025 0.0025 0.0025 0.0025 0.0025 0.0025 0.0025 0.0025 0.0025 0.0025 0.0025 0.0025 0.0025 0.0025 0.0025 0.0025 0.0025 0.0025 0.0025 0.0025 0.0025 0.0025 0.0025 0.0025 0.0025 0.0025 0.0025 0.0025 0.0025 0.0025 0.0025 0.0025 0.0025 0.0025 0.0025 0.0025 0.0025 0.0025 0.0025 0.0025 0.0025 0.0025 0.0025 0.0025 0.0025 0.0025 0.0025 0.0025 0.0025 0.0025 0.0025 0.0025 0.0025 0.0025 0.0025 0.0025 0.0025 0.0025 0.0025 0.0025 0.0025 0.0025 0.0025 0.0025 0.0025 0.0025 0.0025 0.0025 0.0025 0.0025 0.0025 0.0025 0.0025 0.0025 0.0025 0.0025 0.0025 0.0025 0.0025 0.0025 0.0025 0.0025 0.0025 0.0025 0.0025 0.0025 0.0025 0.0025 0.0025 0.0025 0.0025 0.0025 0.0025 0.0025 0.0025 0.0025 0.0025 0.0025</DataArray>
<DataArray type="Float64" Name="conductivity" format="ascii">1.0 1.0 1.0 1.0 1.0 1.0 1.0 1.0 1.0 1.0 1.0 1.0 1.0 1.0 1.0 1.0 1.0 1.0 1.0 1.0 1.0 1.0 1.0 1.0 1.0 1.0 1.0 1.0 1.0 1.0 1.0 1.0 1.0 1.0 1.0 1.0 1.0 1.0 1.0 1.0 1.0 1.0 1.0 1.0 1.0 1.0 1.0 1.0 1.0 1.0 1.0 1.0 1.0 1.0 1.0 1.0 1.0 1.0 1.0 1.0 1.0 1.0 1.0 1.0 1.0 1.0 1.0 1.0 1.0 1.0 1.0 1.0 1.0 1.0 1.0 1.0 1.0 1.0 1.0 1.0 1.0 1.0 1.0 1.0 1.0 1.0 1.0 1.0 1.0 1.0 1.0 1.0 1.0 1.0 1.0 1.0 1.0 1.0 1.0 1.0 1.0 1.0 1.0 1.0 1.0 1.0 1.0 1.0 1.0 1.0 1.0 1.0 1.0 1.0 1.0 1.0 1.0 1.0 1.0 1.0 1.0 1.0 1.0 1.0 1.0 1.0 1.0 1.0 1.0 1.0 1.0 1.0 1.0 1.0 1.0 1.0 1.0 1.0 1.0 1.0 1.0 1.0 1.0 1.0 1.0 1.0 1.0 1.0 1.0 1.0 1.0 1.0 1.0 1.0 1.0 1.0 1.0 1.0 1.0 1.0 1.0 1.0 1.0 1.0 1.0 1.0 1.0 1.0 1.0 1.0 1.0 1.0 1.0 1.0 1.0 1.0 1.0 1.0 1.0 1.0 1.0 1.0 1.0 1.0 1.0 1.0 1.0 1.0 1.0 1.0 1.0 1.0 1.0 1.0 1.0 1.0 1.0 1.0 1.0 1.0 1.0 1.0 1.0 1.0 1.0 1.0 1.0 1.0 1.0 1.0 1.0 1.0 1.0 1.0 1.0 1.0 1.0 1.0 1.0 1.0 1.0 1.0 1.0 1.0 1.0 1.0 1.0 1.0 1.0 1.0 1.0 1.0 1.0 1.0 1.0 1.0 1.0 1.0 1.0 1.0 1.0 1.0 1.0 1.0 1.0 1.0 1.0 1.0 1.0 1.0 1.0 1.0 1.0 1.0 1.0 1.0 1.0 1.0 1.0 1.0 1.0 1.0 1.0 1.0 1.0 1.0 1.0 1.0 1.0 1.0 1.0 1.0 1.0 1.0 1.0 1.0 1.0 1.0 1.0 1.0 1.0 1.0 1.0 1.0 1.0 1.0 1.0 1.0 1.0 1.0 1.0 1.0 1.0 1.0 1.0 1.0 1.0 1.0 1.0 1.0 1.0 1.0 1.0 1.0 1.0 1.0 1.0 1.0 1.0 1.0 1.0 1.0 1.0 1.0 1.0 1.0 1.0 1.0 1.0 1.0 1.0 1.0 1.0 1.0 1.0 1.0 1.0 1.0 1.0 1.0 1.0 1.0 1.0 1.0 1.0 1.0 1.0 1.0 1.0 1.0 1.0 1.0 1.0 1.0 1.0 1.0 1.0 1.0 1.0 1.0 1.0 1.0 1.0 1.0 1.0 1.0 1.0 1.0 1.0 1.0 1.0 1.0 1.0 1.0 1.0 1.0 1.0 1.0 1.0 1.0 1.0 1.0 1.0 1.0 1.0 1.0 1.0 1.0 1.0 1.0 1.0 1.0 1.0 1.0 1.0 1.0 1.0 1.0 1.0 1.0 1.0 1.0 1.0 1.0 1.0 1.0 1.0 1.0 1.0 1.0 1.0 1.0 1.0 1.0 1.0 1.0 1.0 1.0 1.0 1.0 1.0 1.0 1.0 1.0 1.0 1.0 1.0 1.0 1.0 1.0 1.0 1.0 1.0 1.0 1.0 1.0 1.0 1.0 1.0 1.0 1.0 1.0 1.0 1.0 1.0 1.0 1.0 1.0 1.0 1.0 1.0 1.0 1.0 1.0 1.0 1.0 1.0 1.0 1.0 1.0 1.0 1.0 1.0 1.0 1.0 1.0 1.0 1.0 1.0 1.0 1.0 1.0 1.0 1.0 1.0 1.0 1.0 1.0 1.0 1.0 1.0 1.0 1.0 1.0 1.0 1.0 1.0 1.0 1.0 1.0 1.0 1.0 1.0 1.0 1.0 1.0 1.0 1.0 1.0 1.0 1.0 1.0 1.0 1.0 1.0 1.0 1.0 1.0 1.0 1.0</DataArray>
<DataArray type="Float64" Name="temperature" format="ascii">300.9516485177698 300.84074902845447 300.54389811956605 300.9497472360392 300.5293127313538 nan 300.6421802136686 300.66296501465433 300.6660457669308 300.79075123527264 300.7320952914595 300.88859965474614 300.96090752068744 300.84006837926887 300.5948354132572 300.9356120783677 300.80751882250746 300.6159409778244 300.7524519157239 300.7865405862987 300.7418522959224 300.8444620373125 300.8420116220714 300.78483598258424 300.64089235962257 300.8495373612021 300.54227331453797 300.8884920140469 300.7077383526076 300.6370428207691 300.8953708347643 300.54831814031337 300.86067305163647 300.893097762017 300.7712865195861 300.66406673463024 300.81318181163465 300.85586203741593 300.7691024677048 300.7102486960781 300.68586610331016 300.54567261736594 300.5614213719616 300.78980903479373 300.7007561975523 300.81829855134043 300.7102197951544 300.7423239787957 300.57649779685494 300.6835859820086 300.658055111399 300.95072404417755 300.9187597730871 300.812584091953 300.6565604204265 300.751714850991 300.7072947610331 nan 300.7874842406561 300.893097762017 300.6407499338708 300.5983001944593 300.8426055602355 300.7981545389198 300.94247820849625 300.59190418633074 300.9463881242216 300.6320500802948 300.5931559585499 300.6348755421992 300.3137086081442 300.3685893134472 300.1354991612402 nan 300.3043610262822 300.49144302215313 300.41178781947133 300.1223327574214 300.20236104142356 300.4126561761615 300.0658095200307 300.4840566226117 300.0710605740832 300.1009641685984 300.32770163550845 300.2094237286781 300.1516298952283 300.2542758548622 300.37005974892827 300.3237650628175 300.15893591080453 300.4865255997735 300.25790810418493 300.3721096898564 300.17735439274065 300.4416757984421 300.33816679314856 300.4097286660584 300.1548399536968 300.18823093057256 300.0635485917341 300.45067832946285 300.34601740917066 300.0620119936185 300.23665927668947 300.2187273779017 300.0763725578076 300.16397290797704 300.45104508242304 300.4424237582731 300.51975851468404 300.2291186047202 300.21170799500266 300.57251017785364 300.50048569828976 300.2915997090005 300.4056000644031 300.2872402456975 300.1311002570816 300.1613002385293 300.50995798378835 300.07409875069646 300.33750610021366 300.5033281301721 300.4758652782077 300.4318825518459 300.3816233427659 300.21002214878587 300.2833134169294 300.3565017649417 300.3654692650037 300.39015841067766 300.18578860526 300.3739590832146 300.5727769907817 300.626692961634 300.76253673991437 300.7392755963126 300.81525314843606 300.6467830596279 300.6257410187558 300.8458578249675 300.74609382209445 300.94580961342115 300.7448297382777 300.74361710810837 300.50948551926524 300.8213051713707 300.72473820163134 300.56757825953775 300.6238456521835 300.69737885343636 300.59623372035804 nan 300.79408107020004 300.57260293913856 300.5853921188087 300.85213042572735 300.74395652521844 300.9449998033575 300.65532267533143 300.64831848119 300.52339897077803 300.4957890762326 300.57636953710335 300.94743951370367 300.6410964907822 300.90127610683214 300.5588649227999 300.9310211242629 300.6112621339015 nan 300.68762561656496 300.9324127753781 300.85927687829695 300.7218427029242 300.6153754361608 300.7732689044187 300.8944688876003 300.6465454511252 300.94890040235356 300.8507443414713 300.55418680901784 300.80409184384746 300.67960986695914 300.6540861417565 300.94663375415615 300.94932036357085 300.59087062143834 300.622233347546 300.9376038191547 300.9328870438471 300.84909248832327 300.71358015703896 300.75932512807526 300.69652499256443 300.81461500117143 300.8789347618573 300.51538900604197 300.93356517779904 300.1707089225338 300.24803535230274 300.2779339990398 300.40946856145547 300.1291190107733 300.06003067104086 300.2754505653728 300.4167516960052 300.2380602720362 300.0754166593092 300.06413795681755 300.3906121334812 300.3073020244844 300.403056888341 300.35546452236576 300.46750368756216 300.4200771542454 300.44795745774684 300.24204135991 300.1484934137079 300.0960970524129 300.4672556419429 300.3201423879193 300.2441365468401 300.2917756289032 300.51960060387034 300.2460820573118 300.4438567372259 300.15517825782 300.439626126406 300.3508499763238 300.49665362921473 300.2593428763662 300.317269334453 300.09422970508786 300.1928812749556 300.1745089824082 300.1783887617286 300.164209349873 300.1563597536401 300.3449724988925 300.4858041541137 300.22302023573275 300.4484433410628 300.06590417322815 300.3538408458432 300.4381498776968 300.0711475413705 300.1742995789154 300.2769927509037 300.37130795693656 300.26012791327764 300.0852048916242 300.32448619180127 300.4521095613507 300.4592665305617 300.383120026872 300.09847460810477 300.232249021376 300.25151290416136 300.727314513638 300.5603860640608 300.6917129080429 300.87424917380906 300.73026927583305 300.58509452439773 300.59162773510167 300.65696823365386 300.6348491245501 300.81086703902247 300.94269452131493 300.67106768381325 300.55429390998347 300.8262257366529 300.8495424999127 300.81075853691266 300.77208099296035 300.55325889920675 300.92945395766264 300.93715774248 300.7603936216393 300.6598461118593 300.54982987984135 300.56281705996423 300.652749585601 300.8283093252859 300.62610893893367 300.8562974529587 300.690862370474 300.61693960902574 300.9353237047602 300.6635618788489 300.6193455829556 300.8952340679494 300.6864573868574 300.89415030147825 300.57066886656935 300.7709966296502 300.4461339275457 300.7795125137292 300.94367867529405 300.83985972171547 300.94368949680603 300.80854767710616 300.67870528195203 300.4758697891285 300.70019757186355 300.75735523789103 300.852532062097 300.74175574255037 300.5249835031816 300.94425688895285 300.8339711975347 300.84595681072165 300.6809317995089 300.9325178351606 300.81244173142915 300.95787560633954 300.55753578618845 300.7441809096752 300.26246822768843 300.44146128738373 300.3243565196598 300.42252145713513 300.21730007196396 300.4117073475769 300.19572338984733 300.4830859370353 300.0837024517522 300.31402757387366 300.1837648341515 300.1605516997377 300.0806454709734 300.47891976070065 300.2763812657583 300.38486817236947 300.1690916541928 300.47483039145544 300.34580716554615 300.50727365611107 300.1421660375781 300.19874733431857 300.08863637841495 300.23596594907605 300.3009501072785 300.37961675865466 300.2717187985219 300.3662877767607 300.16581387661006 300.14424702888084 300.07841786905794 300.3361564900755 300.4441230911873 300.35156089370946 300.283611526807 300.266691010513 300.3789810233066 300.2203839174744 300.1701388232487 300.2819600997904 300.38682509345506 300.46189994576235 300.06873217227655 300.2936218751744 300.14656005961086 300.2494223346406 300.31993543588527 300.4788277646792 nan 300.0672373291093 300.28233993323136 300.0745690764818 300.2823788163859 300.2818504493514 300.21119984230427 300.48712507064334 300.3675294395006 300.3668125980584 300.39571983079696 300.2307166526721 300.5081807523076 300.72409725247314 300.926054388616 300.80896350296774 300.84918819448524 300.5535517820472 300.6526814249758 300.9143836419946 300.84452023871984 300.7935935958795 300.6814569439502 300.7474632699008 300.70478436300397 300.56603378247036 300.9320586984998 300.5709870854436 300.5577431632081 300.87230011629686 300.8521374518846 300.6940423812257 300.654945378803 300.8638076201667 300.69225326186825 300.69086630186285 300.7138759808396 300.62567532586706 300.58512405431753 300.92360749011675 300.75896630629836 300.5863238075249 300.9261237660312 300.74794404934664 300.58331180867606 300.60394758160203 300.5844278199081 300.73005123359394 300.9158114056095 300.8145683762067 300.93396581323844 300.923140347466 300.5642156555384 300.76411425941257 300.80575542928386 300.9243009157281 300.61146725328945 300.66802390589993 300.8523306688405 300.7968074241984 300.9307152907183 300.71931641259187 300.7262011339567 300.687666192432 300.57344092979565 300.67759247421805 300.79210678580336 300.73351971350485 300.9200886359675 300.8125891369612 300.62260521883076 300.92334120357515 300.63487067955714 300.46442855658967 300.0875573053455 300.1121685864185 300.1898438867585 300.1947399372496 300.21853714211693 300.0740788602559 300.5505714780902 300.4760583669631 300.34897050940833 300.0801858422565 300.4834577110683 300.26735684069035 300.2076981859315 300.4427455087631 300.10888685650946 300.2828195421964 300.30308643681605 300.36579870936015 300.13969702817053 300.409798725355 300.34154714325336 300.2595222011179 300.09095843125044 300.3781281032509 300.0887815046478 300.1549558443371 300.13735004986165 300.28453309834504 300.4546784585552 300.43446909494224 300.4416975939713 300.1989913641313 300.0773426965752 300.4497272402207 300.4879388470422 300.0899061236125 300.4645526326533 300.1330647346091 300.45490023374845 300.3022041853286 300.1962791586293 300.22942845352776 300.495865644669 300.5357097298218 300.0861798476734 300.08354354588715 300.1785483447537 300.2108624439454 300.5154571343184 300.1575760346562 300.33915684105136 300.52832162208836 300.3382761008818 300.3658593812506 300.2466354805768 300.56247296705845 300.17755473087254 300.3282806046259</DataArray>
<DataArray type="Float64" Name="g_hot" format="ascii">0.0002643066400982009 0.0 0.0 0.00042420749639769456 0.0 0.0 0.0 0.0 0.0 0.0 0.0 0.0 0.0002791719899989967 0.0 0.0 0.0 0.0 0.0 0.0 0.0 0.0 0.0 0.0 0.0 0.0 0.0 0.0 0.0 0.0 0.0 0.0 0.0 0.0 0.0 0.0 0.0 0.0 0.0 0.0 0.0 0.0 0.0 0.0 0.0 0.0 0.0 0.0 0.0 0.0 0.0 0.0 0.00041696402722537113 0.0 0.0 0.0 0.0 0.0 0.0 0.0 0.0 0.0 0.0 0.0 0.0 0.0004833166663793004 0.0 0.0002726041085530446 0.0 0.0 0.0 0.0 0.0 0.0 0.0 0.0 0.0 0.0 0.0 0.0 0.0 0.0 0.0 0.0 0.0 0.0 0.0 0.0 0.0 0.0 0.0 0.0 0.0 0.0 0.0 0.0 0.0 0.0 0.0 0.0 0.0 0.0 0.0 0.0 0.0 0.0 0.0 0.0 0.0 0.0 0.0 0.0 0.0 0.0 0.0 0.0 0.0 0.0 0.0 0.0 0.0 0.0 0.0 0.0 0.0 0.0 0.0 0.0 0.0 0.0 0.0 0.0 0.0 0.0 0.0 0.0 0.0 0.0 0.0 0.0 0.0 0.0 0.0 0.0 0.0004555041163370535 0.0 0.0 0.0 0.0 0.0 0.0 0.0 0.0 0.0 0.0 0.0 0.0 0.0 0.0 0.0 0.0007414796018772195 0.0 0.0 0.0 0.0 0.0 0.0005440955798386897 0.0 0.0 0.0 0.0008203706479390886 0.0 0.0 0.0 0.0008522323626805074 0.0 0.0 0.0 0.0 0.0 0.0 0.00012157302332343236 0.0 0.0 0.0 0.0 0.0 0.000647175401263058 0.0006171774461206438 0.0 0.0 0.0005749191247471249 0.0002740218969352633 0.0 0.0 0.0 0.0 0.0 0.0 0.0 0.0006643794096749237 0.0 0.0 0.0 0.0 0.0 0.0 0.0 0.0 0.0 0.0 0.0 0.0 0.0 0.0 0.0 0.0 0.0 0.0 0.0 0.0 0.0 0.0 0.0 0.0 0.0 0.0 0.0 0.0 0.0 0.0 0.0 0.0 0.0 0.0 0.0 0.0 0.0 0.0 0.0 0.0 0.0 0.0 0.0 0.0 0.0 0.0 0.0 0.0 0.0 0.0 0.0 0.0 0.0 0.0 0.0 0.0 0.0 0.0 0.0 0.0 0.0 0.0 0.0 0.0 0.0 0.0 0.0 0.0 0.0 0.0 0.0006206061553030232 0.0 0.0 0.0 0.0 0.0 0.0 0.0 0.0006929271245953647 0.0005732364259186606 0.0 0.0 0.0 0.0 0.0 0.0 0.0 0.0 0.0 0.0 0.0007635286504120198 0.0 0.0 0.0 0.0 0.0 0.0 0.0 0.0 0.0 0.0007333948459049872 0.0 0.0007066257849809899 0.0 0.0 0.0 0.0 0.0 0.0 0.0 0.0 0.00044556481010061817 0.0 0.0 0.0 0.000624698327194815 0.0 0.000517037716225809 0.0 0.0 0.0 0.0 0.0 0.0 0.0 0.0 0.0 0.0 0.0 0.0 0.0 0.0 0.0 0.0 0.0 0.0 0.0 0.0 0.0 0.0 0.0 0.0 0.0 0.0 0.0 0.0 0.0 0.0 0.0 0.0 0.0 0.0 0.0 0.0 0.0 0.0 0.0 0.0 0.0 0.0 0.0 0.0 0.0 0.0 0.0 0.0 0.0 0.0 0.0 0.0 0.0 0.0 0.0 0.0 0.0 0.0 0.0 0.0 0.0 0.0 0.0 0.0 0.0008927664868262025 0.0 0.0 0.0 0.0 0.0005237709423020717 0.0 0.0 0.0 0.0 0.0 0.0 0.0001894623973246398 0.0 0.0 0.0 0.0 0.0 0.0 0.0 0.0 0.0 0.0 0.0 0.0 0.0008793179174792242 0.0 0.0 0.000638631349058281 0.0 0.0 0.0 0.0 0.0 0.0009060629117230216 0.0 0.000415571895103603 0.0007567694497005016 0.0 0.0 0.0 0.000758122681364962 0.0 0.0 0.0 0.0 0.0009628603221651621 0.0 0.0 0.0 0.0 0.0 0.0 0.0 0.0009448809448814177 0.0 0.0 0.0005388413495640444 0.0 0.0 0.0 0.0 0.0 0.0 0.0 0.0 0.0 0.0 0.0 0.0 0.0 0.0 0.0 0.0 0.0 0.0 0.0 0.0 0.0 0.0 0.0 0.0 0.0 0.0 0.0 0.0 0.0 0.0 0.0 0.0 0.0 0.0 0.0 0.0 0.0 0.0 0.0 0.0 0.0 0.0 0.0 0.0 0.0 0.0 0.0 0.0 0.0 0.0 0.0 0.0 0.0 0.0 0.0 0.0 0.0 0.0 0.0 0.0</DataArray>
<DataArray type="Float64" Name="g_cold" format="ascii">0.0 0.0 0.0 0.0 0.0 0.0 0.0 0.0 0.0 0.0 0.0 0.0 0.0 0.0 0.0 0.0 0.0 0.0 0.0 0.0 0.0 0.0 0.0 0.0 0.0 0.0 0.0 0.0 0.0 0.0 0.0 0.0 0.0 0.0 0.0 0.0 0.0 0.0 0.0 0.0 0.0 0.0 0.0 0.0 0.0 0.0 0.0 0.0 0.0 0.0 0.0 0.0 0.0 0.0 0.0 0.0 0.0 0.0 0.0 0.0 0.0 0.0 0.0 0.0 0.0 0.0 0.0 0.0 0.0 0.0 0.0 0.0 0.0 0.0 0.0 0.0 0.0 0.0 0.0 0.0 0.0004581445607570868 0.0 0.0003352557807873048 0.0 0.0 0.0 0.0 0.0 0.0 0.0 0.0 0.0 0.0 0.0 0.0 0.0 0.0 0.0 0.0 0.0 0.0008394414321847602 0.0 0.0 0.00048359271920533285 0.0 0.0 0.00026657441375421475 0.0 0.0 0.0 0.0 0.0 0.0 0.0 0.0 0.0 0.0 0.0 0.0 0.0 0.0 0.0008286506610559103 0.0 0.0 0.0 0.0 0.0 0.0 0.0 0.0 0.0 0.0 0.0 0.0 0.0 0.0 0.0 0.0 0.0 0.0 0.0 0.0 0.0 0.0 0.0 0.0 0.0 0.0 0.0 0.0 0.0 0.0 0.0 0.0 0.0 0.0 0.0 0.0 0.0 0.0 0.0 0.0 0.0 0.0 0.0 0.0 0.0 0.0 0.0 0.0 0.0 0.0 0.0 0.0 0.0 0.0 0.0 0.0 0.0 0.0 0.0 0.0 0.0 0.0 0.0 0.0 0.0 0.0 0.0 0.0 0.0 0.0 0.0 0.0 0.0 0.0 0.0 0.0 0.0 0.0 0.0 0.0 0.0 0.0 0.0 0.0007007581023922642 0.0 0.0 0.0 0.00036147187728564743 0.0007237830600866578 0.0 0.0 0.0 0.0 0.0 0.0 0.0 0.0 0.0 0.0 0.0 0.0 0.0 0.0 0.0 0.0 0.0 0.0 0.0 0.0 0.0 0.0 0.0 0.0 0.0 0.0 0.0 0.0 0.0 0.0 0.0 0.0 0.0 0.0006915648328742576 0.0 0.0 0.0007814486023203346 0.0 0.0 0.0 0.0 0.0007412569851734331 0.0 0.0 0.0 0.0 0.0 0.0 0.0 0.0 0.0 0.0 0.0 0.0 0.0 0.0 0.0 0.0 0.0 0.0 0.0 0.0 0.0 0.0 0.0 0.0 0.0 0.0 0.0 0.0 0.0 0.0 0.0 0.0 0.0 0.0 0.0 0.0 0.0 0.0 0.0 0.0 0.0 0.0 0.0 0.0 0.0 0.0 0.0 0.0 0.0 0.0 0.0 0.0 0.0 0.0 0.0 0.0 0.0 0.0 0.0 0.0 0.0 0.0 0.0 0.0 0.0 0.0 0.0 0.0 0.0 0.0 0.0 0.0 0.0 0.0 0.0 0.0008300975352742573 0.0 0.0 0.0 0.0008876158617715249 0.0 0.0 0.0 0.0 0.0 0.0 0.0 0.0 0.0 0.000730932225359096 0.0 0.0 0.0 0.0 0.0 0.0 0.0 0.0005598766989868457 0.0 0.0 0.0 0.0 0.0 0.0 0.0 0.0 0.0 0.0 0.0 0.0003907197436378208 0.0 0.0 0.0 0.0 0.0 0.0 0.0006476587975689066 0.0 0.000794394057170878 0.0 0.0 0.0 0.0 0.0 0.0 0.0 0.0 0.0 0.0 0.0 0.0 0.0 0.0 0.0 0.0 0.0 0.0 0.0 0.0 0.0 0.0 0.0 0.0 0.0 0.0 0.0 0.0 0.0 0.0 0.0 0.0 0.0 0.0 0.0 0.0 0.0 0.0 0.0 0.0 0.0 0.0 0.0 0.0 0.0 0.0 0.0 0.0 0.0 0.0 0.0 0.0 0.0 0.0 0.0 0.0 0.0 0.0 0.0 0.0 0.0 0.0 0.0 0.0 0.0 0.0 0.0 0.0 0.0 0.0 0.0009598580090750423 0.0 0.0 0.0 0.0 0.0007917243191828207 0.0 0.0 0.0 0.0009076493803146135 0.0 0.0 0.0 0.0 0.0 0.0 0.0 0.0 0.0 0.0 0.0 0.0 0.0010697323953145937 0.0 0.0005008267141292534 0.0 0.0 0.0 0.0 0.0 0.0 0.0 0.0006836134855205116 0.0 0.0 0.0009832738161801638 0.0 0.0 0.0 0.0 0.0 0.0 0.0 0.0 0.00047783616186460775 0.0005867941696928358 0.0 0.0 0.0 0.0 0.0 0.0 0.0 0.0 0.0 0.0 0.0 0.0</DataArray>
</PointData><Points>
<DataArray type="Float64" Name="Points" format="ascii" NumberOfComponents="3">0.0011707 0.00511052 0.000726714 0.00682956 0.00395168 0.0019128 0.00344407 0.00137597 0.00702864 0.00379403 0.00436476 0.000690016 0.00628875 0.00663954 0.00724597 0.00542279 0.00680687 0.00141509 0.00404529 0.00458572 0.00550295 0.00256822 0.00185237 0.00540656 0.000740444 0.00561481 0.00518617 0.0037849 0.00384102 0.00271738 0.0010634 0.00688146 0.00446362 0.00136381 0.00400063 0.00166595 0.00180116 0.0029669 0.000724021 0.00285347 0.00194218 0.0021302 0.00515781 0.00388396 0.00614525 0.00439855 0.00238369 0.001787 0.00219297 0.00549159 0.00280579 0.00141109 0.00219405 0.00611624 0.00279567 0.00445008 0.00364297 0.00657539 0.00315625 0.00310777 0.00614882 0.00494256 0.00385241 0.00417694 0.00499294 0.00190663 0.00276292 0.00450743 0.00186774 0.0037867 0.00244212 0.00315535 0.00513715 0.00270404 0.00535036 0.00592388 0.00278187 0.00166533 0.00334507 0.00422073 0.00719383 0.00666115 0.0049784 0.000832305 0.00569894 0.00246102 0.00403909 0.00603666 0.00111207 0.00593149 0.00514995 0.00373308 0.000801508 0.00228033 0.00509546 0.00687752 0.0014567 0.00233273 0.00226515 0.00279029 0.00552338 0.00076022 0.00511477 0.00321219 0.00288116 0.00387528 0.0021753 0.00484406 0.00351676 0.00601883 0.0026573 0.0029903 0.00719235 0.0019787 0.0050585 0.00173411 0.00296705 0.00505141 0.0057516 0.00432738 0.00623812 0.00369021 0.00455737 0.00618351 0.00256406 0.00668012 0.00597012 0.00526271 0.00695189 0.00498613 0.00577743 0.00284157 0.00289932 0.00316402 0.00435227 0.0064113 0.00170331 0.00258678 0.00366126 0.00537321 0.00433115 0.00479755 0.00450517 0.00355692 0.00455066 0.00499305 0.00683327 0.0042939 0.00353752 0.00449492 0.00233097 0.00324931 0.00568384 0.00284111 0.00193883 0.000692047 0.00320316 0.00319229 0.00135556 0.00622494 0.00654224 0.00265633 0.00648516 0.00245198 0.00527826 0.00274193 0.00641659 0.00382049 0.00197388 0.00535377 0.00445731 0.0040045 0.00634479 0.00125722 0.00241118 0.00322744 0.00293495 0.00172597 0.00615287 0.00160933 0.000977101 0.000911616 0.00545079 0.00443702 0.00126193 0.00603096 0.00561194 0.00474941 0.00194474 0.00170942 0.00703751 0.00312605 0.00243152 0.00701389 0.000672135 0.00188511 0.00601158 0.00583302 0.000323769 0.00273242 0.000725229 0.00634732 0.00449835 0.00574789 0.00217128 0.00731696 0.00538021 0.00258048 0.00464355 0.00556401 0.00453461 0.00191424 0.0111223 0.00353546 0.00135252 0.0103632 0.0045999 0.00528853 0.0136847 0.00217832 0.00686735 0.0128385 0.00467253 0.00419829 0.0110359 0.0072877 0.00593717 0.00805869 0.00464089 0.00120988 0.00938556 0.00284042 0.00729213 0.014276 0.00494062 0.00455944 0.0124385 0.00435703 0.00687876 0.00928385 0.00145594 0.00708937 0.0146906 0.00587305 0.00579836 0.00838813 0.00360872 0.00484254 0.0146581 0.00564652 0.00211842 0.0143288 0.00164471 0.00457336 0.0103152 0.00718678 0.00427955 0.0126152 0.00138808 0.015197 0.0138185 0.00223355 0.00409084 0.0115971 0.00712973 0.0058333 0.0100266 0.00514102 0.00550627 0.0107058 0.00196848 0.00116962 0.0135393 0.00482817 0.00669996 0.00792395 0.00470613 0.00231828 0.0124863 0.00227713 0.00190508 0.0102162 0.00357693 0.00171218 0.0130554 0.00303034 0.00339469 0.00880031 0.00408372 0.0063961 0.0105598 0.00524266 0.0152823 0.00960948 0.00605772 0.00493369 0.013339 0.00178176 0.00362604 0.0129601 0.00399246 0.00186836 0.0145468 0.00710799 0.00456736 0.0089545 0.00357848 0.00304545 0.0103741 0.00481632 0.0036413 0.0144291 0.00567325 0.00610861 0.0121082 0.00849744 0.00525546 0.0125753 0.000851763 0.00328753 0.0143884 0.00710458 0.00632546 0.0132729 0.00198132 0.0046344 0.00845073 0.00458323 0.00278487 0.00880242 0.00507721 0.00157563 0.00747549 0.00280501 0.00261203 0.0120275 0.00104019 0.00216431 0.0125441 0.00388317 0.00286776 0.00643502 0.00575946 0.00382595 0.00773708 0.00577752 0.00304296 0.0114438 0.0063902 0.00292149 0.00959416 0.00662637 0.0047182 0.0111098 0.00663465 0.00339992 0.0138561 0.00341431 0.0041004 0.0131237 0.00229923 0.00267082 0.00746956 0.00581121 0.00614364 0.0145423 0.00333322 0.00488549 0.0102589 0.00155176 0.00643669 0.00746675 0.00370366 0.0054593 0.00828345 0.00508948 0.00460041 0.0093519 0.00222954 0.00617771 0.00949663 0.00375294 0.00581914 0.0122878 0.0029563 0.00730875 0.0113204 0.00589556 0.00134181 0.0104678 0.0077656 0.00155249 0.0103037 0.00143241 0.00313414 0.00952206 0.00661049 0.0018539 0.0126613 0.00593466 0.00696661 0.00987621 0.00526479 0.0112222 0.00640163 0.00370291 0.0104493 0.00562724 0.00529349 0.00897474 0.0035077 0.00272268 0.00816306 0.00378704 0.00144722 0.0138203 0.00239112 0.00481115 0.0144793 0.00489786 0.00608571 0.0127769 0.00554103 0.0029872 0.00916906 0.00213399 0.00372771 0.0138531 0.00342931 0.00411023 0.000875164 0.000948129 0.00224951 0.015109 0.0037907 0.0018791 0.0104386 0.00415748 0.00346296 0.0151969 0.00770206 0.00286447 0.0112032 0.00267008 0.00213218 0.0132529 0.00405469 0.00511542 0.0151873 0.006662 0.00127243 0.0105323 0.00595712 0.00691907 0.00923618 0.00440752 0.00655459 0.00977958 0.00621386 0.00653555 0.010541 0.00289201 0.00570021 7.76042e-05 0.0030827 0.00297485 0.0119873 0.00661088 0.00444535 0.0132218 0.00628442 0.00442039 0.0146395 0.00192439 0.0023473 0.00168708 0.00372602 0.00408177 0.0131248 0.000862552 0.00698457 0.0144149 0.00494817 0.00332438 0.0120479 0.00474202 0.00196209 0.0108308 0.0077125 0.00592487 0.00872856 0.00750834 0.0026995 0.0139362 0.00645978 0.00576999 0.00942623 0.00092599 0.00500334 0.00904777 0.00537484 0.00541868 0.0119487 0.00152864 0.00440248 0.00784218 0.00675571 0.0149371 0.0134765 0.000831748 0.00310902 0.00867446 0.00560978 0.000525141 0.00878184 0.00404723 0.00397185 0.00703135 0.00473897 0.00577767 0.0138114 0.000818425 0.00465499 0.0103072 0.00224847 0.00511956 0.0126352 0.00388728 0.00530401 0.00638175 0.00590996 0.00382826 0.000623709 0.00317225 0.00134796 0.00781193 0.00169731 0.00712276 0.0112209 0.0053118 0.00173901 0.0115725 0.000996305 0.0023245 0.000299638 0.00199677 0.00210799 0.000514871 0.00654096 0.00444802 0.00741462 0.00280678 0.00525513 0.0107791 0.00445958 0.00335473 0.000425609 0.0051186 0.00122562 0.00133281 0.000895291 0.00159134 0.00962106 0.000904773 0.00344293 0.00620025 0.00644121 0.00672128 0.00783746 0.00584935 0.00364312 0.0112715 0.000917367 0.00423925 0.00817806 0.000981228 4.48756e-05 0.0149418 0.00193624 0.00585506 0.00724045 0.0041921 0.00365219 0.00984248 0.00381899 0.00506675 0.000992623 0.00454736 0.0060604 0.0135231 0.0025013 0.00666417 0.00843233 0.0023315 0.00605981 0.0128694 0.00744439 0.00250825 0.0141056 0.00088965 0.00295098 0.0112106 0.0129235 0.0048244 0.0112618 0.0119632 0.00548211 0.0151516 0.0113389 0.00567234 0.0122863 0.00915335 0.00331812 0.000266324 0.0137777 0.00111172 0.00875979 0.0144934 0.00182772 0.0106391 0.0114077 0.00689966 0.00930795 0.00896955 0.00203742 0.000697943 0.0119258 0.00212754 0.0121799 0.0144033 0.00497702 0.0119273 0.0145016 0.0033064 0.0105209 0.0094709 0.00749512 0.0102192 0.0106434 0.00667672 0.0138941 0.00918894 0.00242464 0.000163893 0.0101693 0.00709027 0.00750106 0.00843372 0.00016801 0.0112923 0.00846213 0.00311064 0.00728365 0.0082707 0.00469865 0.00775278 0.0118786 0.00441766 0.00698774 0.0136062 0.00205995 0.010287 0.0142869 0.00311038 0.00143628 0.00871652 0.00469255 0.0128511 0.0105487 0.00384444 0.0140224 0.0117648 0.00638811 0.0135524 0.0112028 0.00381422 0.0105406 0.00754801 0.00171268 0.00847756 0.0120604 0.00306325 0.0134397 0.00839677 0.00632039 0.00811927 0.0134906 0.0013482 0.00774675 0.00879523 0.0019984 0.00908447 0.010179 0.00434647 0.012254 0.00791536 0.00323198 0.0118458 0.0111642 0.00645264 0.0117209 0.0106886 0.00397203 0.0103312 0.0143661 0.00498491 0.00941463 0.0127855 0.00530378 0.0141661 0.0128656 0.00228793 0.0143858 0.0127367 0.00328473 0.0085585 0.013212 0.00523954 0.000677534 0.0134468 0.00714634 0.0151888 0.0104643 0.00280408 0.00910984 0.0081229 0.00646498 0.010388 0.0121456 0.00492193 0.0140962 0.00837211 0.00273796 0.0139536 0.0144902 0.00384501 0.0143877 0.00994073 0.000964634 0.00954925 0.00859036 0.00461833 0.0144913 0.0145233 0.00411137 0.0126906 0.013055 0.00223161 0.0134397 0.0110687 0.00169377 0.0116267 0.00967871 0.000823635 0.0122402 0.0117675 0.00476127 0.00861434 0.014508 0.00384724 0.00848007 0.0103051 0.00452694 0.00844688 0.00858962 0.0056202 0.0105558 0.00816 0.00155741 0.0135747 0.00940106 0.00614671 0.0133954 0.0143624 0.00393807 0.000611289 0.0119421 0.00349769 0.00980044 0.0116479 0.000548399 0.00108297 0.00389784 0.00946043 0.0048416 0.0067642 0.00899496 0.0051403 0.00459255 0.0125247 5.49085e-06 0.00148338 0.0122929 0.00281879 0.00402692 0.0151608 0.00191201 0.00635102 0.0122582 0.00502918 0.00672192 0.0110614 0.00457309 0.0053416 0.0077191 0.00351014 0.00557748 0.00905314 0.00146862 0.00281189 0.00957421 0.00532821 0.000903712 0.00960191 0.0033701 0.00513905 0.0107523 0.00622953 0.00673989 0.000377213 0.00610556 0.00297322 0.00928843 0.00377996 0.00252641 0.00928833 0.00569472 0.00272336 0.0112535 0.000871386 0.00292963 0.0151627 0.00701699 0.00668121 0.0138078 0.00130177 0.000879963 0.0110067 0.00656694 0.00091785 0.0107648 0.00478944 0.00346979 0.00694762 0.0058941 0.00511462 0.0075611 0.00468358 0.00703912 0.0141708 0.00334606 0.00715627 0.0136121 0.00321666 0.00533547 0.0139667 0.00549135 0.00270771 0.0113738 0.00260039 0.00558774 0.0153517 0.00318868 0.00231321 0.0150963 0.00446206 0.00463744 0.000765868 0.00391224 0.00616403 0.0120416 0.00270175 0.000854256 0.00933357 0.00145381 0.00488897 0.0140816 0.00490977 0.00614503 0.0150977 0.00676716 0.00128897 0.0137017 0.0149528 0.00453234 0.0083678 0.000857822 0.00107273 0.00897248 0.00298347 0.00694755 0.0138795 0.00372766 0.00344299 0.0111716 0.0044529 0.00866155 0.00111397 0.00434177 0.0033338 0.0140837 0.00318496 0.000865533 0.0149857 0.00131859 0.00231257 0.0131562 0.00733283 0.00087517 0.0121435 0.00610867 0.00297098 0.0142487 0.00152212 0.00469534 0.0118938 0.00651189 0.00823478 0.00105294 0.00285164 0.0045668 0.0104459 0.00252384 0.00360299 0.0132316 0.00241463 0.00231263 0.0130675 0.000852748 0.00332624 0.0135949 0.00616739 0.00746916 0.0103425 0.00356832 0.000950368 0.0116922 0.0035389 0.00243865 0.0076989 0.00249733 0.00196093 0.0128514 0.00497609 0.00459209 0.00822397 0.00396195 0.000902438 0.007401 0.00527948 0.00279735 0.0147414 0.00494391 0.000933168 0.0108126 0.00359323 0.00701068 0.0082418 0.00292195 0.00383004 0.0152043 0.00627832 0.0115894 0.00882078 0.0013396 0.00861891 0.0148449 0.00816561 0.0107141 0.00830048 0.00315535 0.00948273 0.0146388 0.00374902 0.0124985 0.0104539 0.000325942 0.00945686 0.000238218 0.000490563 0.0128011 0.00997621 0.00291257 0.00861685 0.000657196 0.00109363 0.0145429 0.00117083 0.00728034 0.010666 0.0129987 0.00604738 0.0129174 0.0130355 0.00326474 0.0132658 0.0117596 0.00309814 0.0145676 0.000386063 0.00376124 0.0080336 0.0133839 0.0029176 0.0113978 0.012683 0.00370005 0.00987335 0.0111047 0.00322874 0.0128464 0.0115028 0.00176021 0.00856987 0.0109579 0.00422171 0.0105768 0.0153218 0.00552158 0.00779171 0.0148011 0.00217653 0.013565 0.0131028 0.00145473 0.0126457 0.0132129 0.00176661 0.0145042 0.0123842 0.00446837 0.0118567 0.0143428 0.0046883 0.0108008 0.00828984 0.00703131 0.00991494 0.00973075 0.00319856 0.0115965 0.000659361 0.00136292 0.0100288 0.0147573 0.00538275 0.0133675 0.0118693 0.00478461 0.0136612 0.00743169 0.00176539 0.014449 0.0090499 0.00459055 0.010432 0.0137655 0.00481088 0.00877984 0.00960321 0.00181809 0.0103479 0.00946024 0.00620843 0.0112433 0.0105107 0.000720346 0.0117155 0.0124801 0.00725132 0.0099063 0.0103391 0.00488998 0.0124083 0.00990609 0.00687804 0.01301 0.00207001 0.00574656 0.0114178 0.0122759 0.0054662 0.00987122 0.000686784 0.00198909 0.00815714 0.00867261 0.00619078 0.0144088 0.0134066 0.00629914 0.0111578 0.0140254 0.000188289 0.0137962 0.0115138 0.00619653 0.0116648 0.0003715 0.00563588 0.0098039 0.00883177 0.00539094 0.00851889 0.00855655 0.00375569 0.0143676 0.0106108 0.00593469 0.0144755 0.000435341 0.00315467 0.0111385 0.0135555 0.00458318 0.0145284 0.014678 0.00147746 0.0114418 0.00778333 0.00316772 0.0114166 0.00829656 0.00728812 0.0122228 0.0125129 0.0032891 0.00805 0.011491 0.00225467 0.010561 0.0148174 0.00331675 0.00957953 0.0103916 0.00584209 0.00964457 0.000782605 0.004729 0.012171 0.00735197 0.00279899 0.00788263 0.00825582 0.0105605 0.00394566 0.0101431 0.0127092 0.000800742 0.0136985 0.011205 0.00300752 0.00909827 0.0107271 0.0022615 0.00692381 0.0145761 0.00688904 0.0115557 0.013727 0.00528046 0.00887622 0.0143181 0.000931416 0.00969123 0.00745865 0.00209316 0.00888796 0.00896215 0.00303493 0.0126075 0.0104874 0.00529546 0.0101503 0.0100872 0.00404578 0.0139469 0.00867778 0.0047584 0.0148665 0.0115372 0.00671125 0.0108352 0.0145302 0.000991026 0.0101744 0.0144328 0.00653684 0.0133082 0.01258 0.00691551 0.0104063 0.00910804 0.00135654 0.0116506 0.0078225 0.0020951 0.00868971 0.00887219 0.00488879 0.0116331 0.000536014 0.00499873 0.01107 0.0110992 0.00169783 0.0108182 0.0066544 0.00457727 0.0148271 0.0106248 0.00479047 0.00721792 0.00109848 0.00425242 0.00868181 0.00672036 0.00609242 0.0102641 0.00122605 0.00689336 0.0104371 0.00134728 0.00109536 0.0119542 0.00882991 0.00392122 0.0078885 0.00115519 0.00652779 0.0149448 0.0112878 0.00116843 0.00975525 0.0150236 0.00373614 0.0129972 0.0146506 0.00650595 0.0111639 0.0118793 0.00631586 0.0079663 0.0126963 0.00664107 0.00811194 0.00711213 0.00378661 0.00627456 0.000523119 0.00108581 0.0137793 0.00766218 0.00285174 0.00753351 0.0117752 0.00121546 0.012523 0.0050378 0.00113546 0.0127776 0.00786595 0.00641356 0.0119305 0.014158 0.00320543 0.00769132 0.0148031 0.00268428 0.0149507 0.00889781 0.00113505 0.00909159 0.0106684 0.00598173 0.00957139 0.0130018 0.00498252 0.0128412 0.00961052 0.00175484 0.00929503 0.0129788 0.00260713 0.0128574 0.0124137 0.00106458 0.00731839 0.0125537 0.0037968 0.0114409 0.0118472 0.00393012 0.0135289 0.0127815 0.00488477 0.012889 0.00163571 0.00672226 0.0144647 0.00654281 0.00477441 0.000666986 0.0119486 0.00316235 0.000306725 0.0143036 0.00420613 0.00826281 0.00911777 0.00107144 0.0141116 0.0133757 0.00272953 0.00110378 0.0126618 0.00579861 0.00753281 0.00674216 0.00119193 0.0105651 0.00867453 0.00580362 0.00976583 0.00736625 0.00826983 0.00819323 0.0132201 0.0143049 0.0134194 0.0100432 0.0140288 0.00875053 0.00160659 0.0127024 0.0134521 0.00841451 0.0122717 0.00898189 0.00938943 0.0120256 0.00649177 0.0103061 0.014246 0.00821784 0.00881385 0.00715772 0.00864394 0.0145659 0.00822989 0.010886 0.0101649 0.0100633 9.23684e-05 0.0112713 0.0142854 0.00962136 0.011859 0.00813095 0.006704 0.00834729 0.0113491 0.0109854 0.0139244 0.0121297 0.012368 0.00877975 0.00862619 0.0111692 0.0012831 0.0138857 0.0125308 9.84514e-05 0.0111088 0.0106251 0.00789361 0.0106994 0.0151364 0.0127678 0.00995075 0.0095858 0.0149816 0.0137191 0.00750121 0.011365 0.00876615 0.00914214 0.0117354 0.0105408 0.00890636 0.0141742 0.0110331 0.0110796 0.0104953 0.0143495 0.0134253 0.00174752 0.00964013 0.00839458 0.00837744 0.0141708 0.000528769 0.0134774 0.013563 0.00879381 0.0108573 0.0139498 0.000508171 0.0147401 0.0110272 0.00670507 0.000658951 0.00854846 0.0131131 0.0129386 0.00895162 0.0124687 0.0152476 0.00873081 0.000102384 0.00965062 0.012644 0.0133789 0.0124557 0.0142141 0.00135744 0.0153596 0.00840772 0.0103414 0.00967531 0.00783284 0.012726 0.0075413 0.014314 0.0145454 0.0076373 0.00868762 0.00177615 0.00528751 0.0140528 0.0108792 0.0136831 0.00846012 0.0131797 0.0100118 0.0104969 0.0138824 0.0139419 0.0123004 0.00765098 0.012218 0.0123166 0.0145701 0.00054902 0.0079303 0.00127338 0.0085069 0.00670354 0.0121959 0.0145292 0.0141663 0.0105769 0.0128057 0.0141895 0.00732694 0.0149755 0.0127582 0.0141477 0.0115687 0.0120817 0.012638 0.0108701 0.00780219 0.0153456 0.00737856 0.0134381 0.0114781 0.0124298 0.0104178 0.0144772 0.00946496 0.00711557 0.00530814 0.00998231 0.0102567 0.00887213 0.00909691 0.00963201 0.0117675 0.0108743 0.0121862 0.0150618 0.0137019 0.00737186 0.0111174 0.00860364 0.01293 7.11348e-05 0.0102409 0.0103326</DataArray>
</Points><Verts>
<DataArray type="Int64" Name="connectivity" format="ascii">0 1 2 3 4 5 6 7 8 9 10 11 12 13 14 15 16 17 18 19 20 21 22 23 24 25 26 27 28 29 30 31 32 33 34 35 36 37 38 39 40 41 42 43 44 45 46 47 48 49 50 51 52 53 54 55 56 57 58 59 60 61 62 63 64 65 66 67 68 69 70 71 72 73 74 75 76 77 78 79 80 81 82 83 84 85 86 87 88 89 90 91 92 93 94 95 96 97 98 99 100 101 102 103 104 105 106 107 108 109 110 111 112 113 114 115 116 117 118 119 120 121 122 123 124 125 126 127 128 129 130 131 132 133 134 135 136 137 138 139 140 141 142 143 144 145 146 147 148 149 150 151 152 153 154 155 156 157 158 159 160 161 162 163 164 165 166 167 168 169 170 171 172 173 174 175 176 177 178 179 180 181 182 183 184 185 186 187 188 189 190 191 192 193 194 195 196 197 198 199 200 201 202 203 204 205 206 207 208 209 210 211 212 213 214 215 216 217 218 219 220 221 222 223 224 225 226 227 228 229 230 231 232 233 234 235 236 237 238 239 240 241 242 243 244 245 246 247 248 249 250 251 252 253 254 255 256 257 258 259 260 261 262 263 264 265 266 267 268 269 270 271 272 273 274 275 276 277 278 279 280 281 282 283 284 285 286 287 288 289 290 291 292 293 294 295 296 297 298 299 300 301 302 303 304 305 306 307 308 309 310 311 312 313 314 315 316 317 318 319 320 321 322 323 324 325 326 327 328 329 330 331 332 333 334 335 336 337 338 339 340 341 342 343 344 345 346 347 348 349 350 351 352 353 354 355 356 357 358 359 360 361 362 363 364 365 366 367 368 369 370 371 372 373 374 375 376 377 378 379 380 381 382 383 384 385 386 387 388 389 390 391 392 393 394 395 396 397 398 399 400 401 402 403 404 405 406 407 408 409 410 411 412 413 414 415 416 417 418 419 420 421 422 423 424 425 426 427 428 429 430 431 432 433 434 435 436 437 438 439 440 441 442 443 444 445 446 447 448 449 450 451 452 453 454 455 456 457 458 459 460 461 462 463 464 465 466 467 468 469 470 471 472 473 474 475 476 477 478 479 480 481 482 483 484 485 486 487 488 489 490 491 492 493 494 495 496 497 498 499</DataArray>
<DataArray type="Int64" Name="offsets" format="ascii">1 2 3 4 5 6 7 8 9 10 11 12 13 14 15 16 17 18 19 20 21 22 23 24 25 26 27 28 29 30 31 32 33 34 35 36 37 38 39 40 41 42 43 44 45 46 47 48 49 50 51 52 53 54 55 56 57 58 59 60 61 62 63 64 65 66 67 68 69 70 71 72 73 74 75 76 77 78 79 80 81 82 83 84 85 86 87 88 89 90 91 92 93 94 95 96 97 98 99 100 101 102 103 104 105 106 107 108 109 110 111 112 113 114 115 116 117 118 119 120 121 122 123 124 125 126 127 128 129 130 131 132 133 134 135 136 137 138 139 140 141 142 143 144 145 146 147 148 149 150 151 152 153 154 155 156 157 158 159 160 161 162 163 164 165 166 167 168 169 170 171 172 173 174 175 176 177 178 179 180 181 182 183 184 185 186 187 188 189 190 191 192 193 194 195 196 197 198 199 200 201 202 203 204 205 206 207 208 209 210 211 212 213 214 215 216 217 218 219 220 221 222 223 224 225 226 227 228 229 230 231 232 233 234 235 236 237 238 239 240 241 242 243 244 245 246 247 248 249 250 251 252 253 254 255 256 257 258 259 260 261 262 263 264 265 266 267 268 269 270 271 272 273 274 275 276 277 278 279 280 281 282 283 284 285 286 287 288 289 290 291 292 293 294 295 296 297 298 299 300 301 302 303 304 305 306 307 308 309 310 311 312 313 314 315 316 317 318 319 320 321 322 323 324 325 326 327 328 329 330 331 332 333 334 335 336 337 338 339 340 341 342 343 344 345 346 347 348 349 350 351 352 353 354 355 356 357 358 359 360 361 362 363 364 365 366 367 368 369 370 371 372 373 374 375 376 377 378 379 380 381 382 383 384 385 386 387 388 389 390 391 392 393 394 395 396 397 398 399 400 401 402 403 404 405 406 407 408 409 410 411 412 413 414 415 416 417 418 419 420 421 422 423 424 425 426 427 428 429 430 431 432 433 434 435 436 437 438 439 440 441 442 443 444 445 446 447 448 449 450 451 452 453 454 455 456 457 458 459 460 461 462 463 464 465 466 467 468 469 470 471 472 473 474 475 476 477 478 479 480 481 482 483 484 485 486 487 488 489 490 491 492 493 494 495 496 497 498 499 500</DataArray>
</Verts></Piece></PolyData></VTKFile>