<?xml version="1.0"?>
<VTKFile type="PolyData" version="0.1" byte_order="LittleEndian">
<PolyData>
<Piece NumberOfPoints="500" NumberOfVerts="500" NumberOfLines="0" NumberOfStrips="0" NumberOfPolys="0">
<PointData>
<DataArray type="Int64" Name="id" format="ascii">1 2 3 4 5 6 7 8 9 10 11 12 13 14 15 16 17 18 19 20 21 22 23 24 25 26 27 28 29 30 31 32 33 34 35 36 37 38 39 40 41 42 43 44 45 46 47 48 49 50 51 52 53 54 55 56 57 58 59 60 61 62 63 64 65 66 67 68 69 70 71 72 73 74 75 76 77 78 79 80 81 82 83 84 85 86 87 88 89 90 91 92 93 94 95 96 97 98 99 100 101 102 103 104 105 106 107 108 109 110 111 112 113 114 115 116 117 118 119 120 121 122 123 124 125 126 127 128 129 130 131 132 133 134 135 136 137 138 139 140 141 142 143 144 145 146 147 148 149 150 151 152 153 154 155 156 157 158 159 160 161 162 163 164 165 166 167 168 169 170 171 172 173 174 175 176 177 178 179 180 181 182 183 184 185 186 187 188 189 190 191 192 193 194 195 196 197 198 199 200 201 202 203 204 205 206 207 208 209 210 211 212 213 214 215 216 217 218 219 220 221 222 223 224 225 226 227 228 229 230 231 232 233 234 235 236 237 238 239 240 241 242 243 244 245 246 247 248 249 250 251 252 253 254 255 256 257 258 259 260 261 262 263 264 265 266 267 268 269 270 271 272 273 274 275 276 277 278 279 280 281 282 283 284 285 286 287 288 289 290 291 292 293 294 295 296 297 298 299 300 301 302 303 304 305 306 307 308 309 310 311 312 313 314 315 316 317 318 319 320 321 322 323 324 325 326 327 328 329 330 331 332 333 334 335 336 337 338 339 340 341 342 343 344 345 346 347 348 349 350 351 352 353 354 355 356 357 358 359 360 361 362 363 364 365 366 367 368 369 370 371 372 373 374 375 376 377 378 379 380 381 382 383 384 385 386 387 388 389 390 391 392 393 394 395 396 397 398 399 400 401 402 403 404 405 406 407 408 409 410 411 412 413 414 415 416 417 418 419 420 421 422 423 424 425 426 427 428 429 430 431 432 433 434 435 436 437 438 439 440 441 442 443 444 445 446 447 448 449 450 451 452 453 454 455 456 457 458 459 460 461 462 463 464 465 466 467 468 469 470 471 472 473 474 475 476 477 478 479 480 481 482 483 484 485 486 487 488 489 490 491 492 493 494 495 496 497 498 499 500</DataArray>
<DataArray type="Int32" Name="type" format="ascii">1 1 1 1 1 1 1 1 1 1 1 1 1 1 1 1 1 1 1 1 1 1 1 1 1 1 1 1 1 1 1 1 1 1 1 1 1 1 1 1 1 1 1 1 1 1 1 1 1 1 1 1 1 1 1 1 1 1 1 1 1 1 1 1 1 1 1 1 1 1 1 1 1 1 1 1 1 1 1 1 1 1 1 1 1 1 1 1 1 1 1 1 1 1 1 1 1 1 1 1 2 2 2 2 2 2 2 2 2 2 2 2 2 2 2 2 2 2 2 2 2 2 2 2 2 2 2 2 2 2 2 2 2 2 2 2 2 2 2 2 2 2 2 2 2 2 2 2 2 2 2 2 2 2 2 2 2 2 2 2 2 2 2 2 2 2 2 2 2 2 2 2 2 2 2 2 2 2 2 2 2 2 2 2 2 2 2 2 2 2 2 2 2 2 2 2 2 2 2 2 2 2 2 2 2 2 2 2 2 2 2 2 2 2 2 2 2 2 2 2 2 2 2 2 2 2 2 2 2 2 2 2 2 2 2 2 2 2 2 2 2 2 2 2 2 2 2 2 2 2 2 2 2 2 2 2 2 2 2 2 2 2 2 2 2 2 2 2 2 2 2 2 2 2 2 2 2 2 2 2 2 2 2 2 2 2 2 2 2 2 2 2 2 2 2 2 2 2 2 2 2 2 2 2 2 2 2 2 2 2 2 2 2 2 2 2 2 2 2 2 2 2 2 2 2 2 2 2 2 2 2 2 2 2 2 2 2 2 2 2 2 2 2 2 2 2 2 2 2 2 2 2 2 2 2 2 2 2 2 2 2 2 2 2 2 2 2 2 2 2 2 2 2 2 2 2 2 2 2 2 2 2 2 2 2 2 2 2 2 2 2 2 2 2 2 2 2 2 2 2 3 3 3 3 3 3 3 3 3 3 3 3 3 3 3 3 3 3 3 3 3 3 3 3 3 3 3 3 3 3 3 3 3 3 3 3 3 3 3 3 3 3 3 3 3 3 3 3 3 3 3 3 3 3 3 3 3 3 3 3 3 3 3 3 3 3 3 3 3 3 3 3 3 3 3 3 3 3 3 3 3 3 3 3 3 3 3 3 3 3 3 3 3 3 3 3 3 3 3 3</DataArray>
<DataArray type="Float64" Name="radius" format="ascii">0.00075 0.00075 0.00075 0.00075 0.00075 0.00075 0.00075 0.00075 0.00075 0.00075 0.00075 0.00075 0.00075 0.00075 0.00075 0.00075 0.00075 0.00075 0.00075 0.00075 0.00075 0.00075 0.00075 0.00075 0.00075 0.00075 0.00075 0.00075 0.00075 0.00075 0.00075 0.00075 0.00075 0.00075 0.00075 0.00075 0.00075 0.00075 0.00075 0.00075 0.00075 0.00075 0.00075 0.00075 0.00075 0.00075 0.00075 0.00075 0.00075 0.00075 0.00075 0.00075 0.00075 0.00075 0.00075 0.00075 0.00075 0.00075 0.00075 0.00075 0.00075 0.00075 0.00075 0.00075 0.00075 0.00075 0.00075 0.00075 0.00075 0.00075 0.00075 0.00075 0.00075 0.00075 0.00075 0.00075 0.00075 0.00075 0.00075 0.00075 0.00075 0.00075 0.00075 0.00075 0.00075 0.00075 0.00075 0.00075 0.00075 0.00075 0.00075 0.00075 0.00075 0.00075 0.00075 0.00075 0.00075 0.00075 0.00075 0.00075 0.001 0.001 0.001 0.001 0.001 0.001 0.001 0.001 0.001 0.001 0.001 0.001 0.001 0.001 0.001 0.001 0.001 0.001 0.001 0.001 0.001 0.001 0.001 0.001 0.001 0.001 0.001 0.001 0.001 0.001 0.001 0.001 0.001 0.001 0.001 0.001 0.001 0.001 0.001 0.001 0.001 0.001 0.001 0.001 0.001 0.001 0.001 0.001 0.001 0.001 0.001 0.001 0.001 0.001 0.001 0.001 0.001 0.001 0.001 0.001 0.001 0.001 0.001 0.001 0.001 0.001 0.001 0.001 0.001 0.001 0.001 0.001 0.001 0.001 0.001 0.001 0.001 0.001 0.001 0.001 0.001 0.001 0.001 0.001 0.001 0.001 0.001 0.001 0.001 0.001 0.001 0.001 0.001 0.001 0.001 0.001 0.001 0.001 0.001 0.001 0.001 0.001 0.001 0.001 0.001 0.001 0.001 0.001 0.001 0.001 0.001 0.001 0.001 0.001 0.001 0.001 0.001 0.001 0.001 0.001 0.001 0.001 0.001 0.001 0.001 0.001 0.001 0.001 0.001 0.001 0.001 0.001 0.001 0.001 0.001 0.001 0.001 0.001 0.001 0.001 0.001 0.001 0.001 0.001 0.001 0.001 0.001 0.001 0.001 0.001 0.001 0.001 0.001 0.001 0.001 0.001 0.001 0.001 0.001 0.001 0.001 0.001 0.001 0.001 0.001 0.001 0.001 0.001 0.001 0.001 0.001 0.001 0.001 0.001 0.001 0.001 0.001 0.001 0.001 0.001 0.001 0.001 0.001 0.001 0.001 0.001 0.001 0.001 0.001 0.001 0.001 0.001 0.001 0.001 0.001 0.001 0.001 0.001 0.001 0.001 0.001 0.001 0.001 0.001 0.001 0.001 0.001 0.001 0.001 0.001 0.001 0.001 0.001 0.001 0.001 0.001 0.001 0.001 0.001 0.001 0.001 0.001 0.001 0.001 0.001 0.001 0.001 0.001 0.001 0.001 0.001 0.001 0.001 0.001 0.001 0.001 0.001 0.001 0.001 0.001 0.001 0.001 0.001 0.001 0.001 0.001 0.001 0.001 0.001 0.001 0.001 0.001 0.001 0.001 0.001 0.001 0.001 0.001 0.001 0.001 0.001 0.001 0.001 0.001 0.001 0.001 0.001 0.001 0.001 0.001 0.001 0.001 0.001 0.001 0.001 0.001 0.001 0.001 0.001 0.001 0.001 0.001 0.001 0.001 0.001 0.001 0.001 0.001 0.001 0.001 0.001 0.001 0.001 0.001 0.001 0.001 0.001 0.001 0.001 0.001 0.00125 0.00125 0.00125 0.00125 0.00125 0.00125 0.00125 0.00125 0.00125 0.00125 0.00125 0.00125 0.00125 0.00125 0.00125 0.00125 0.00125 0.00125 0.00125 0.00125 0.00125 0.00125 0.00125 0.00125 0.00125 0.00125 0.00125 0.00125 0.00125 0.00125 0.00125 0.00125 0.00125 0.00125 0.00125 0.00125 0.00125 0.00125 0.00125 0.00125 0.00125 0.00125 0.00125 0.00125 0.00125 0.00125 0.00125 0.00125 0.00125 0.00125 0.00125 0.00125 0.00125 0.00125 0.00125 0.00125 0.00125 0.00125 0.00125 0.00125 0.00125 0.00125 0.00125 0.00125 0.00125 0.00125 0.00125 0.00125 0.00125 0.00125 0.00125 0.00125 0.00125 0.00125 0.00125 0.00125 0.00125 0.00125 0.00125 0.00125 0.00125 0.00125 0.00125 0.00125 0.00125 0.00125 0.00125 0.00125 0.00125 0.00125 0.00125 0.00125 0.00125 0.00125 0.00125 0.00125 0.00125 0.00125 0.00125 0.00125</DataArray>
<DataArray type="Float64" Name="diameter" format="ascii">0.0015 0.0015 0.0015 0.0015 0.0015 0.0015 0.0015 0.0015 0.0015 0.0015 0.0015 0.0015 0.0015 0.0015 0.0015 0.0015 0.0015 0.0015 0.0015 0.0015 0.0015 0.0015 0.0015 0.0015 0.0015 0.0015 0.0015 0.0015 0.0015 0.0015 0.0015 0.0015 0.0015 0.0015 0.0015 0.0015 0.0015 0.0015 0.0015 0.0015 0.0015 0.0015 0.0015 0.0015 0.0015 0.0015 0.0015 0.0015 0.0015 0.0015 0.0015 0.0015 0.0015 0.0015 0.0015 0.0015 0.0015 0.0015 0.0015 0.0015 0.0015 0.0015 0.0015 0.0015 0.0015 0.0015 0.0015 0.0015 0.0015 0.0015 0.0015 0.0015 0.0015 0.0015 0.0015 0.0015 0.0015 0.0015 0.0015 0.0015 0.0015 0.0015 0.0015 0.0015 0.0015 0.0015 0.0015 0.0015 0.0015 0.0015 0.0015 0.0015 0.0015 0.0015 0.0015 0.0015 0.0015 0.0015 0.0015 0.0015 0.002 0.002 0.002 0.002 0.002 0.002 0.002 0.002 0.002 0.002 0.002 0.002 0.002 0.002 0.002 0.002 0.002 0.002 0.002 0.002 0.002 0.002 0.002 0.002 0.002 0.002 0.002 0.002 0.002 0.002 0.002 0.002 0.002 0.002 0.002 0.002 0.002 0.002 0.002 0.002 0.002 0.002 0.002 0.002 0.002 0.002 0.002 0.002 0.002 0.002 0.002 0.002 0.002 0.002 0.002 0.002 0.002 0.002 0.002 0.002 0.002 0.002 0.002 0.002 0.002 0.002 0.002 0.002 0.002 0.002 0.002 0.002 0.002 0.002 0.002 0.002 0.002 0.002 0.002 0.002 0.002 0.002 0.002 0.002 0.002 0.002 0.002 0.002 0.002 0.002 0.002 0.002 0.002 0.002 0.002 0.002 0.002 0.002 0.002 0.002 0.002 0.002 0.002 0.002 0.002 0.002 0.002 0.002 0.002 0.002 0.002 0.002 0.002 0.002 0.002 0.002 0.002 0.002 0.002 0.002 0.002 0.002 0.002 0.002 0.002 0.002 0.002 0.002 0.002 0.002 0.002 0.002 0.002 0.002 0.002 0.002 0.002 0.002 0.002 0.002 0.002 0.002 0.002 0.002 0.002 0.002 0.002 0.002 0.002 0.002 0.002 0.002 0.002 0.002 0.002 0.002 0.002 0.002 0.002 0.002 0.002 0.002 0.002 0.002 0.002 0.002 0.002 0.002 0.002 0.002 0.002 0.002 0.002 0.002 0.002 0.002 0.002 0.002 0.002 0.002 0.002 0.002 0.002 0.002 0.002 0.002 0.002 0.002 0.002 0.002 0.002 0.002 0.002 0.002 0.002 0.002 0.002 0.002 0.002 0.002 0.002 0.002 0.002 0.002 0.002 0.002 0.002 0.002 0.002 0.002 0.002 0.002 0.002 0.002 0.002 0.002 0.002 0.002 0.002 0.002 0.002 0.002 0.002 0.002 0.002 0.002 0.002 0.002 0.002 0.002 0.002 0.002 0.002 0.002 0.002 0.002 0.002 0.002 0.002 0.002 0.002 0.002 0.002 0.002 0.002 0.002 0.002 0.002 0.002 0.002 0.002 0.002 0.002 0.002 0.002 0.002 0.002 0.002 0.002 0.002 0.002 0.002 0.002 0.002 0.002 0.002 0.002 0.002 0.002 0.002 0.002 0.002 0.002 0.002 0.002 0.002 0.002 0.002 0.002 0.002 0.002 0.002 0.002 0.002 0.002 0.002 0.002 0.002 0.002 0.002 0.002 0.002 0.002 0.002 0.002 0.002 0.002 0.002 0.002 0.002 0.0025 0.0025 0.0025 0.0025 0.0025 0.0025 0.0025 0.0025 0.0025 0.0025 0.0025 0.0025 0.0025 0.0025 0.0025 0.0025 0.0025 0.0025 0.0025 0.0025 0.0025 0.0025 0.0025 0.0025 0.0025 0.0025 0.0025 0.0025 0.0025 0.0025 0.0025 0.0025 0.0025 0.0025 0.0025 0.0025 0.0025 0.0025 0.0025 0.0025 0.0025 0.0025 0.0025 0.0025 0.0025 0.0025 0.0025 0.0025 0.0025 0.0025 0.0025 0.0025 0.0025 0.0025 0.0025 0.0025 0.0025 0.0025 0.0025 0.0025 0.0025 0.0025 0.0025 0.0025 0.0025 0.0025 0.0025 0.0025 0.0025 0.0025 0.0025 0.0025 0.0025 0.0025 0.0025 0.0025 0.0025 0.0025 0.0025 0.0025 0.0025 0.0025 0.0025 0.0025 0.0025 0.0025 0.0025 0.0025 0.0025 0.0025 0.0025 0.0025 0.0025 0.0025 0.0025 0.0025 0.0025 0.0025 0.0025 0.0025</DataArray>
<DataArray type="Float64" Name="conductivity" format="ascii">1.0 1.0 1.0 1.0 1.0 1.0 1.0 1.0 1.0 1.0 1.0 1.0 1.0 1.0 1.0 1.0 1.0 1.0 1.0 1.0 1.0 1.0 1.0 1.0 1.0 1.0 1.0 1.0 1.0 1.0 1.0 1.0 1.0 1.0 1.0 1.0 1.0 1.0 1.0 1.0 1.0 1.0 1.0 1.0 1.0 1.0 1.0 1.0 1.0 1.0 1.0 1.0 1.0 1.0 1.0 1.0 1.0 1.0 1.0 1.0 1.0 1.0 1.0 1.0 1.0 1.0 1.0 1.0 1.0 1.0 1.0 1.0 1.0 1.0 1.0 1.0 1.0 1.0 1.0 1.0 1.0 1.0 1.0 1.0 1.0 1.0 1.0 1.0 1.0 1.0 1.0 1.0 1.0 1.0 1.0 1.0 1.0 1.0 1.0 1.0 1.0 1.0 1.0 1.0 1.0 1.0 1.0 1.0 1.0 1.0 1.0 1.0 1.0 1.0 1.0 1.0 1.0 1.0 1.0 1.0 1.0 1.0 1.0 1.0 1.0 1.0 1.0 1.0 1.0 1.0 1.0 1.0 1.0 1.0 1.0 1.0 1.0 1.0 1.0 1.0 1.0 1.0 1.0 1.0 1.0 1.0 1.0 1.0 1.0 1.0 1.0 1.0 1.0 1.0 1.0 1.0 1.0 1.0 1.0 1.0 1.0 1.0 1.0 1.0 1.0 1.0 1.0 1.0 1.0 1.0 1.0 1.0 1.0 1.0 1.0 1.0 1.0 1.0 1.0 1.0 1.0 1.0 1.0 1.0 1.0 1.0 1.0 1.0 1.0 1.0 1.0 1.0 1.0 1.0 1.0 1.0 1.0 1.0 1.0 1.0 1.0 1.0 1.0 1.0 1.0 1.0 1.0 1.0 1.0 1.0 1.0 1.0 1.0 1.0 1.0 1.0 1.0 1.0 1.0 1.0 1.0 1.0 1.0 1.0 1.0 1.0 1.0 1.0 1.0 1.0 1.0 1.0 1.0 1.0 1.0 1.0 1.0 1.0 1.0 1.0 1.0 1.0 1.0 1.0 1.0 1.0 1.0 1.0 1.0 1.0 1.0 1.0 1.0 1.0 1.0 1.0 1.0 1.0 1.0 1.0 1.0 1.0 1.0 1.0 1.0 1.0 1.0 1.0 1.0 1.0 1.0 1.0 1.0 1.0 1.0 1.0 1.0 1.0 1.0 1.0 1.0 1.0 1.0 1.0 1.0 1.0 1.0 1.0 1.0 1.0 1.0 1.0 1.0 1.0 1.0 1.0 1.0 1.0 1.0 1.0 1.0 1.0 1.0 1.0 1.0 1.0 1.0 1.0 1.0 1.0 1.0 1.0 1.0 1.0 1.0 1.0 1.0 1.0 1.0 1.0 1.0 1.0 1.0 1.0 1.0 1.0 1.0 1.0 1.0 1.0 1.0 1.0 1.0 1.0 1.0 1.0 1.0 1.0 1.0 1.0 1.0 1.0 1.0 1.0 1.0 1.0 1.0 1.0 1.0 1.0 1.0 1.0 1.0 1.0 1.0 1.0 1.0 1.0 1.0 1.0 1.0 1.0 1.0 1.0 1.0 1.0 1.0 1.0 1.0 1.0 1.0 1.0 1.0 1.0 1.0 1.0 1.0 1.0 1.0 1.0 1.0 1.0 1.0 1.0 1.0 1.0 1.0 1.0 1.0 1.0 1.0 1.0 1.0 1.0 1.0 1.0 1.0 1.0 1.0 1.0 1.0 1.0 1.0 1.0 1.0 1.0 1.0 1.0 1.0 1.0 1.0 1.0 1.0 1.0 1.0 1.0 1.0 1.0 1.0 1.0 1.0 1.0 1.0 1.0 1.0 1.0 1.0 1.0 1.0 1.0 1.0 1.0 1.0 1.0 1.0 1.0 1.0 1.0 1.0 1.0 1.0 1.0 1.0 1.0 1.0 1.0 1.0 1.0 1.0 1.0 1.0 1.0 1.0 1.0 1.0 1.0 1.0 1.0 1.0 1.0 1.0 1.0 1.0 1.0 1.0 1.0 1.0 1.0 1.0 1.0 1.0 1.0 1.0 1.0 1.0 1.0 1.0 1.0 1.0 1.0 1.0 1.0 1.0 1.0 1.0 1.0 1.0 1.0 1.0 1.0 1.0 1.0 1.0 1.0 1.0 1.0 1.0 1.0 1.0 1.0</DataArray>
<DataArray type="Float64" Name="temperature" format="ascii">300.58379626095643 300.57123137390477 300.76764025652955 300.94383592861874 300.94177658056395 300.837920327045 300.8543009740326 nan 300.87403218206526 300.77182247361867 300.804556460668 300.83312237832416 300.94806071299945 300.7749198141175 300.7357410023913 300.48151977964585 300.9005348980712 300.787331697427 300.7968445508856 300.57650202304364 300.624191890958 300.68292738278535 300.9499053026412 300.8669476907512 300.9509531116713 300.96074173662294 300.79493667876795 300.62523201328327 300.8693873844185 300.65830383800903 300.6650618766981 300.6331103950778 300.5086714816922 300.73270936229136 300.73652934064563 300.9558475545872 300.64498189697264 300.82160580194204 300.954553681023 300.48778317404265 300.71189473292316 300.6397203672991 300.9628243823468 300.5849894724485 300.55805711442054 300.77063248622824 300.8522334381194 300.7131180660676 300.66936336616516 300.73005610837515 300.6331103950778 300.76035381340307 300.6319878449435 300.77057229271634 300.70373448241895 300.8757442251391 300.6608997892488 300.58888095201695 300.4893767398413 300.26481320261234 300.1449493105033 300.381736385939 300.3210497677271 300.27124049708215 300.2080784270131 300.4461087908549 300.0655199183109 300.37218895151227 300.1009442416612 300.05076977310136 300.2312564701036 300.3264922224653 300.2787772522716 300.44080350977134 300.43224744548553 300.58379626095643 300.18721819545203 300.12367258504736 300.3257956708178 300.21215922586214 300.2609102773842 300.45134053598696 300.3538604804291 300.15721883229844 300.3929218498198 300.1009442416612 300.1599635262834 300.4056137091911 300.3566739025657 300.4289479683418 300.269819474575 300.3030052896406 300.1417307577949 300.2286506325877 300.1023986903471 300.46228205253243 300.36165064911165 300.4379828485201 300.54523197831907 300.0555033792342 300.2840393777032 300.4332938356348 300.26585429206955 300.18261585426166 300.47349948004154 300.22409401765253 300.3062184314715 300.13788764418825 300.212515583825 300.41963369722157 300.5339730019351 300.34102801256 300.45161942305515 300.35063885902355 300.57854675140703 300.7279375128953 300.52331192534 300.9358286905394 300.83167056385514 300.68511722650027 300.5211475291317 300.9428625691645 300.6735811865519 300.65255725855667 300.7754371988636 300.83787691611934 300.64877334793186 300.81672565204235 300.5322577977379 300.9442761587729 300.85078321403785 300.6181881665131 300.8190426014006 300.5441646235375 300.94415369153137 300.68970379534227 300.8673483432642 300.76350482254895 300.7471735653162 300.64658887274413 300.9207917044771 300.76496070981386 300.5210523342878 300.6983300455279 300.8529854736298 300.4841480305843 300.9293963331386 300.9283784459391 300.9381768943971 300.93507467908773 300.5367587589392 300.81879983065187 300.77815600331826 300.8187312480918 300.567257254665 300.56663270688 300.83749221062357 nan 300.7645907405535 300.88233126482555 300.5801819189511 300.683105254503 300.58416596608606 300.94070261709766 300.6798924911757 300.9478403902251 300.72825527288137 300.7406841296094 300.53533497412525 300.62703164393093 300.8030841645169 300.83774633477026 300.5892022458785 300.31346441026255 300.20837032389954 300.3548893643319 300.4847956909997 300.29092921270825 300.3878339035664 300.07406654436784 300.3837993238555 300.21415564444254 300.18886968361073 300.2923212740924 300.40206202236027 300.1594670520821 300.1464283760157 300.41512700753503 300.43074983720385 300.2737221119733 300.2873233600303 300.47054459486424 300.2626703860094 300.05810604745557 300.1901383226457 300.19516298688853 300.3049488101656 300.4357889102374 300.44702323425776 300.3678734644851 300.3797023090005 300.49204831363323 300.2028022323196 300.19515425773125 300.1715593694793 300.076064130435 300.25779005642005 300.08141427940905 300.0581924595397 300.40712287920473 300.18193151424333 300.3733932412837 300.2911899577691 300.392178795083 300.3305099781659 300.443580857988 300.1010120953472 300.067534662778 300.16181222156587 300.2954945881926 300.1070504444874 300.07025467806784 300.47072417370754 300.31131620787596 300.39933717290876 300.1854953977735 300.26151692549814 300.47771536364365 300.39727060697646 300.2360767162535 300.2445379103857 300.3617108580272 300.9440809008106 300.72025930809167 300.551816966403 300.7369485174234 300.57906096168733 300.64496864266056 300.73872431159714 300.69353845543134 300.84333230533275 300.80633979334283 300.6177003204726 300.562555319475 nan 300.94077789564216 300.6424541808044 300.93210889767147 300.54882841358545 300.92713603784796 300.70754184607006 300.8464276812225 300.85902725168773 300.53474910622475 300.6174324480223 300.67382422275927 300.51677826311425 300.7019905188632 300.9306190732994 300.60484374273534 300.63449026380647 300.77129473038576 300.5453102024218 300.52066091824724 300.77342093439665 300.7844817050375 300.6650029079588 300.5174939601568 300.72219249609986 300.54309246367666 300.6607076426952 300.6575835939753 300.6217722644111 300.62784962140023 300.86933902426637 300.7995557955598 300.59766885897693 300.503076931957 300.94252546619714 300.9306190732994 300.7315868261244 300.6940343925486 300.6812204767351 300.6173181655844 300.7502018948038 300.67479849467605 300.77174523418887 300.634853365435 300.9205093678022 300.8452928174867 300.72282969386754 300.69178562843763 300.88423201833984 300.71577940085405 300.7917895440408 300.5181844523271 300.93586763620345 300.7667866312999 300.7413268529342 300.61776454267897 300.62784962140023 300.5747965813415 300.8116171001904 300.64319818274424 300.926386268556 300.8528386845941 300.54233362073893 300.92003720606397 300.56346502347344 300.76881698823087 nan 300.76757068355874 300.5100804649083 300.049250047352 300.0704838080105 300.2384866883011 300.3065720498617 300.4913296814937 300.16576690020645 300.07463887650476 300.05417918282296 300.48738816115815 300.2575520934072 300.1354859599079 300.31772253835896 300.1856118929212 300.24630926308515 300.39784215607204 300.32403827309037 300.38396976290585 300.33884134963193 300.27868554005033 300.46037090387796 300.36345549772375 300.3588266071787 300.37420452270834 300.40483722378883 300.074650629043 300.5146731602746 300.14540999808594 300.3997048275031 300.2617381037451 300.4365434079274 300.1521224194903 300.1816496149359 300.3349970026661 300.07446784220815 300.3659076522373 300.22037686794357 300.3065720498617 300.44638124824985 300.47067808672 300.05240040648886 300.3653628537404 300.45427765636884 300.1742213672847 300.1302731380827 300.3444575568922 300.27273141449945 300.333332203594 300.16754208860124 300.05308238214315 300.0690245197141 300.32130779479314 300.3388827502323 300.3539351255706 300.1770947679156 300.06038755625764 300.2370966622291 300.41875765255986 300.418184842247 300.1800787102288 300.7706328843266 300.9310895480794 300.81022585875553 300.67371019805665 300.69260728452616 300.7995748100304 300.84362663387753 300.83247350912376 300.7963812004364 300.7711425417096 300.5387571939729 300.79476031779706 300.9272320488964 300.63647171266325 300.5577364995398 300.70892151181806 300.75038120456543 300.5635199553985 300.78177302273014 300.79454352605734 300.8859853784553 300.69777119384094 300.92753492521575 300.578568191941 300.9259865545137 300.85721657586504 300.7187019534379 300.5190834443864 300.9306043361836 300.7689573637979 300.6942919279767 300.91328776593235 300.6521962926042 300.81705509428684 300.7578605488137 300.5969897991008 300.8475802199245 300.9144625218043 300.80077345687255 300.70098192979344 300.58884580598897 300.79756148726125 300.6229638194159 300.9273935001658 300.6663866693186 300.91516447249904 300.6129836370597 300.81305226326697 300.7181356090881 300.5827790587508 300.71861831136226 300.5834285054653 300.63684515111277 300.6762017790859 300.5430208614996 300.15970817265463 300.3169019773984 300.12152156176626 300.2172248312333 300.09652412852535 300.4885282411284 300.35112943693883 300.45530975572524 300.09039335789424 300.3275614082422 300.401921780841 300.61644669710427 300.439902248524 300.21259227254103 300.52808686000895 300.24760384329835 300.587512748977 300.429761924133 300.3519118684924 300.43933188585595 300.1322132579914 300.2770917869736 300.08064996495136 300.23310998726583 300.29244505483604 300.2228385394669 300.59217441318816 300.06872124813043 300.3383781130443 300.29841967179675 300.08063274919726 300.1960394025182 300.3874053559151 300.4300488498343 300.43993558560476 300.28015872972685 300.4654651582589 300.15472376838693 300.2745680500517 300.33617685416243 300.26326780811644 300.2866823115563 300.51118788193736 300.57928772331394 300.46072155370933 300.15699868175705 300.255968453976 300.0973559626971 300.61295763937824 300.37311495477877 300.3362185820863 300.31261845450246 300.0881153078983 300.2158723743995 300.09598913285026 300.3374951275871 300.58282575048895 300.502634971788 300.46745529334015 300.24600716838523 300.2065704114191 300.3898255811904 300.4750614308914 300.09007633641073 300.432968239479 300.23950635586027 300.37027580651187 300.26916503512996 300.4674503721912 300.2330397594083 300.5449449839061 300.0896979618125 300.23299230387744</DataArray>
<DataArray type="Float64" Name="g_hot" format="ascii">0.0 0.0 0.0 0.0004384620850199024 0.0004390979389612301 0.0 0.0 0.0 0.0 0.0 0.0 0.0 0.0002504176511350592 0.0 0.0 0.0 0.0 0.0 0.0 0.0 0.0 0.0 0.0003888020061676636 0.0 0.0003508845964131227 0.0003279344446684428 0.0 0.0 0.0 0.0 0.0 0.0 0.0 0.0 0.0 0.0003919336678572026 0.0 0.0 0.0003079301868930684 0.0 0.0 0.0 0.00022814469093099715 0.0 0.0 0.0 0.0 0.0 0.0 0.0 0.0 0.0 0.0 0.0 0.0 0.0 0.0 0.0 0.0 0.0 0.0 0.0 0.0 0.0 0.0 0.0 0.0 0.0 0.0 0.0 0.0 0.0 0.0 0.0 0.0 0.0 0.0 0.0 0.0 0.0 0.0 0.0 0.0 0.0 0.0 0.0 0.0 0.0 0.0 0.0 0.0 0.0 0.0 0.0 0.0 0.0 0.0 0.0 0.0 0.0 0.0 0.0 0.0 0.0 0.0 0.0 0.0 0.0 0.0 0.0 0.0 0.0 0.0 0.0 0.0 0.0 0.0 0.0007557618672571408 0.0 0.0 0.0 0.00049218289283558 0.0 0.0 0.0 0.0 0.0 0.0 0.0 0.0008097456390743949 0.0 0.0 0.0 0.0 0.0007456165234220605 0.0 0.0 0.0 0.0 0.0 0.0004218435729035111 0.0 0.0 0.0 0.0 0.0 0.0009746158217472155 0.0005939898989040136 0.0007337956118702264 0.0007907414242342436 0.0 0.0 0.0 0.0 0.0 0.0 0.0 0.0 0.0 0.0 0.0 0.0 0.0 0.0006013318551349164 0.0 0.0005443785447645784 0.0 0.0 0.0 0.0 0.0 0.0 0.0 0.0 0.0 0.0 0.0 0.0 0.0 0.0 0.0 0.0 0.0 0.0 0.0 0.0 0.0 0.0 0.0 0.0 0.0 0.0 0.0 0.0 0.0 0.0 0.0 0.0 0.0 0.0 0.0 0.0 0.0 0.0 0.0 0.0 0.0 0.0 0.0 0.0 0.0 0.0 0.0 0.0 0.0 0.0 0.0 0.0 0.0 0.0 0.0 0.0 0.0 0.0 0.0 0.0 0.0 0.0 0.0 0.0 0.0 0.0 0.0008178508421466595 0.0 0.0 0.0 0.0 0.0 0.0 0.0 0.0 0.0 0.0 0.0 0.0 0.0005260380214395156 0.0 0.0004642327002700264 0.0 0.0004005296493394717 0.0 0.0 0.0 0.0 0.0 0.0 0.0 0.0 0.0008188333163715311 0.0 0.0 0.0 0.0 0.0 0.0 0.0 0.0 0.0 0.0 0.0 0.0 0.0 0.0 0.0 0.0 0.0 0.0 0.0 0.0005624091037669997 0.0 0.0 0.0 0.0 0.0 0.0 0.0 0.0 0.0 0.0002498719672152119 0.0 0.0 0.0 0.0 0.0 0.0 0.0 0.0006160064934722685 0.0 0.0 0.0 0.0 0.0 0.0 0.0 0.0006918207860421659 0.0 0.0 0.00027067323473147463 0.0 0.0 0.0 0.0 0.0 0.0 0.0 0.0 0.0 0.0 0.0 0.0 0.0 0.0 0.0 0.0 0.0 0.0 0.0 0.0 0.0 0.0 0.0 0.0 0.0 0.0 0.0 0.0 0.0 0.0 0.0 0.0 0.0 0.0 0.0 0.0 0.0 0.0 0.0 0.0 0.0 0.0 0.0 0.0 0.0 0.0 0.0 0.0 0.0 0.0 0.0 0.0 0.0 0.0 0.0 0.0 0.0 0.0 0.0 0.0 0.0 0.0 0.0 0.0 0.0 0.0007204359791126481 0.0 0.0 0.0 0.0 0.0 0.0 0.0 0.0 0.0 0.0 0.0008228365572821861 0.0 0.0 0.0 0.0 0.0 0.0 0.0 0.0 0.0 0.00041516743610259217 0.0 0.0007370861550727975 0.0 0.0 0.0 0.000855190037360118 0.0 0.0 0.000524213696883246 0.0 0.0 0.0 0.0 0.0 0.0008983039574665136 0.0 0.0 0.0 0.0 0.0 0.0007444461028173902 0.0 0.0008275566445869429 0.0 0.0 0.0 0.0 0.0 0.0 0.0 0.0 0.0 0.0 0.0 0.0 0.0 0.0 0.0 0.0 0.0 0.0 0.0 0.0 0.0 0.0 0.0 0.0 0.0 0.0 0.0 0.0 0.0 0.0 0.0 0.0 0.0 0.0 0.0 0.0 0.0 0.0 0.0 0.0 0.0 0.0 0.0 0.0 0.0 0.0 0.0 0.0 0.0 0.0 0.0 0.0 0.0 0.0 0.0 0.0 0.0 0.0 0.0 0.0 0.0 0.0 0.0 0.0 0.0 0.0 0.0 0.0 0.0 0.0 0.0 0.0 0.0 0.0 0.0 0.0 0.0 0.0 0.0 0.0 0.0 0.0</DataArray>
<DataArray type="Float64" Name="g_cold" format="ascii">0.0 0.0 0.0 0.0 0.0 0.0 0.0 0.0 0.0 0.0 0.0 0.0 0.0 0.0 0.0 0.0 0.0 0.0 0.0 0.0 0.0 0.0 0.0 0.0 0.0 0.0 0.0 0.0 0.0 0.0 0.0 0.0 0.0 0.0 0.0 0.0 0.0 0.0 0.0 0.0 0.0 0.0 0.0 0.0 0.0 0.0 0.0 0.0 0.0 0.0 0.0 0.0 0.0 0.0 0.0 0.0 0.0 0.0 0.0 0.0 0.0 0.0 0.0 0.0 0.0 0.0 0.0005685916272258211 0.0 0.0 0.0004742324731092372 0.0 0.0 0.0 0.0 0.0 0.0 0.0 0.0 0.0 0.0 0.0 0.0 0.0 0.0 0.0 0.0 0.0 0.0 0.0 0.0 0.0 0.0 0.0 0.0 0.0 0.0 0.0 0.0 0.0 0.0002968104421197205 0.0 0.0 0.0 0.0 0.0 0.0 0.0 0.0 0.0 0.0 0.0 0.0 0.0 0.0 0.0 0.0 0.0 0.0 0.0 0.0 0.0 0.0 0.0 0.0 0.0 0.0 0.0 0.0 0.0 0.0 0.0 0.0 0.0 0.0 0.0 0.0 0.0 0.0 0.0 0.0 0.0 0.0 0.0 0.0 0.0 0.0 0.0 0.0 0.0 0.0 0.0 0.0 0.0 0.0 0.0 0.0 0.0 0.0 0.0 0.0 0.0 0.0 0.0 0.0 0.0 0.0 0.0 0.0 0.0 0.0 0.0 0.0 0.0 0.0 0.0 0.0 0.0 0.0 0.0 0.0005417212549535055 0.0 0.0 0.0 0.0 0.0 0.0 0.0 0.0 0.0 0.0 0.0 0.0 0.0 0.000590137202748995 0.0 0.0 0.0 0.0 0.0 0.0 0.0 0.0 0.0 0.0 0.0 0.00037504922086095086 0.0 0.0005544924869359377 0.00040726148610985703 0.0 0.0 0.0 0.0 0.0 0.0 0.0 0.0 0.0007067261973836817 0.0 0.0 0.0 0.0006355013124049371 0.0 0.0 0.0 0.0 0.0 0.0 0.0 0.0 0.0 0.0 0.0 0.0 0.0 0.0 0.0 0.0 0.0 0.0 0.0 0.0 0.0 0.0 0.0 0.0 0.0 0.0 0.0 0.0 0.0 0.0 0.0 0.0 0.0 0.0 0.0 0.0 0.0 0.0 0.0 0.0 0.0 0.0 0.0 0.0 0.0 0.0 0.0 0.0 0.0 0.0 0.0 0.0 0.0 0.0 0.0 0.0 0.0 0.0 0.0 0.0 0.0 0.0 0.0 0.0 0.0 0.0 0.0 0.0 0.0 0.0 0.0 0.0 0.0 0.0 0.0 0.0 0.0 0.0 0.0 0.0 0.0 0.0 0.0 0.0 0.0 0.0 0.0 0.0 0.0 0.0 0.0 0.0003296390724237678 0.0005244634573241487 0.0 0.0 0.0 0.0 0.000933521246715044 0.00043435229718328736 0.0 0.0 0.0 0.0 0.0 0.0 0.0 0.0 0.0 0.0 0.0 0.0 0.0 0.0 0.0 0.0 0.0006981847306181943 0.0 0.0 0.0 0.0 0.0 0.0 0.0 0.0 0.0006704192106946252 0.0 0.0 0.0 0.0 0.0 0.0006976115810882194 0.0 0.0 0.0 0.0 0.0 0.0 0.0 0.0 0.0005406125396884612 0.0009350197420741485 0.0 0.0 0.0 0.0 0.00032165496742379894 0.0 0.0 0.0 0.0 0.0 0.0 0.0 0.0 0.0 0.0 0.0 0.0 0.0 0.0 0.0 0.0 0.0 0.0 0.0 0.0 0.0 0.0 0.0 0.0 0.0 0.0 0.0 0.0 0.0 0.0 0.0 0.0 0.0 0.0 0.0 0.0 0.0 0.0 0.0 0.0 0.0 0.0 0.0 0.0 0.0 0.0 0.0 0.0 0.0 0.0 0.0 0.0 0.0 0.0 0.0 0.0 0.0 0.0 0.0 0.0 0.0 0.0 0.0 0.0010694986664720537 0.0 0.0 0.0 0.0005213706911454665 0.0 0.0 0.0 0.0 0.0 0.0 0.0 0.0 0.0 0.0 0.0 0.0 0.0 0.0008422157666450425 0.0 0.0 0.0 0.0 0.0006263604374363831 0.0 0.0 0.0009021238260823736 0.0 0.0 0.0 0.0 0.0 0.0 0.0 0.0 0.0 0.0 0.0 0.0 0.0 0.0 0.0 0.0 0.0007154211330296993 0.0 0.0 0.0 0.0 0.0011008303218868495 0.0 0.00075784391373521 0.0 0.0 0.0 0.0 0.0 0.0 0.0 0.0 0.0009658299009584996 0.0 0.0 0.0 0.0 0.0 0.0 0.0 0.0008926518904844695 0.0</DataArray>
</PointData><Points>
<DataArray type="Float64" Name="Points" format="ascii" NumberOfComponents="3">0.00366944 0.000470931 0.00666665 0.00578145 0.00467051 0.00629545 0.001751 0.00642906 0.0037142 0.00557271 0.00445477 0.000685917 0.00183206 0.0055522 0.000685731 0.00576255 0.00686073 0.00242845 0.0028048 0.00196979 0.0021297 0.00374628 0.00656828 0.00320902 0.00477786 0.00499636 0.00175177 0.00544001 0.00254523 0.00305913 0.00552297 0.00547853 0.00287247 0.0035554 0.00496706 0.00245345 0.00228467 0.000778919 0.000729097 0.00275021 0.00369305 0.00345048 0.00622761 0.00893846 0.00421957 0.00496917 0.00541691 0.00775063 0.00416487 0.00733988 0.000781637 0.00383707 0.00278756 0.00295935 0.000824099 0.00186506 0.00345623 0.00462302 0.00547643 0.00630245 0.00243676 0.00666104 0.00589304 0.00565763 0.00305307 0.00437199 0.00309381 0.00200106 0.000699611 0.00167841 0.00494925 0.00198654 0.00473002 0.00599859 0.00070896 0.00240708 0.00329471 0.000714153 0.00620247 0.00374995 0.00274672 0.00458451 0.00111028 0.00566601 0.00269831 0.00394547 0.00198324 0.00597642 0.00433971 0.00490476 0.00445311 0.00604776 0.00474212 0.00325307 0.00293117 0.00593822 0.00404294 0.00422473 0.00688685 0.00563096 0.00649716 0.00389849 0.0021893 0.00145485 0.00378474 0.00464825 0.00136576 0.000698796 0.00454974 0.00463405 0.00514373 0.00480584 0.0036672 0.00233214 0.00407041 0.00418449 0.000718393 0.0025811 0.00347024 0.00719103 0.00404444 0.00354033 0.00415729 0.00315173 0.00428673 0.0050097 0.000991352 0.00374311 0.00073265 0.00254897 0.00527953 0.00594121 0.00109119 0.0043924 0.00685899 0.0023501 0.00512665 0.00331874 0.00498372 0.00236159 0.00168084 0.00505661 0.00448871 0.00379242 0.00459023 0.00207244 0.00453637 0.00373246 0.00510232 0.00387228 0.00465256 0.00319589 0.00546775 0.00145415 0.00416532 0.00400986 0.00676195 0.00327625 0.00541674 0.00566789 0.00784411 0.0034864 0.00319055 0.00236471 0.0042585 0.00370868 0.00303156 0.00153688 0.00295912 0.00597986 0.0047205 0.00207476 0.0039517 0.00590028 0.00107084 0.0034061 0.00787922 0.00260881 0.00581559 0.0113615 0.00385955 0.00257592 0.0136951 0.00249711 0.00457153 0.00972632 0.00654532 0.0011856 0.0103844 0.00281255 0.00436102 0.0113974 0.0012593 0.00594823 0.0121984 0.00519393 0.00241209 0.008486 0.00471455 0.00219908 0.0147284 0.00295215 0.00220701 0.00959101 0.00362784 0.00562755 0.0146206 0.00173811 0.0032097 0.0146956 0.00542596 0.00202307 0.0119405 0.00538123 0.00572677 0.0105422 0.00622856 0.00492806 0.0113377 0.00387253 0.00308816 0.00784807 0.00195078 0.00615476 0.00883712 0.00395976 0.00193467 0.00681895 0.00520461 0.0047677 0.0127617 0.00127252 0.00604289 0.0136457 0.00563927 0.00430189 0.0102357 0.00264022 0.00335146 0.0124715 0.00350683 0.00729453 0.0115167 0.00456492 0.00691828 0.00816202 0.00643993 0.0067352 0.0104416 0.000934931 0.00287176 0.0130233 0.00481482 0.00591964 0.00919723 0.00497851 0.00546468 0.0139888 0.000158826 0.00401923 0.0131061 0.00263714 0.00343344 0.00882758 0.0020821 0.00325175 0.0101765 0.00394221 0.00169723 0.00835174 0.00149027 0.00377653 0.0117125 0.00163826 0.00485313 0.0108509 0.00182344 0.0042919 0.0132473 0.00578335 0.00370591 0.0120309 0.00296558 0.00389389 0.0143585 0.00509419 0.00131354 0.00757874 0.00317104 0.0058722 0.00998965 0.00344905 0.00612202 0.00855544 0.00373581 0.00646752 0.00671589 0.0043641 0.0042775 0.01465 0.00183451 0.00218047 0.0114743 0.00562562 0.00398589 0.00865939 0.00440943 0.00467188 0.0112547 0.00350882 0.00479014 0.0130179 0.00252536 0.00508435 0.0075975 0.00425412 0.00310114 0.0121945 0.00604792 0.002773 0.0106456 0.00227524 0.00212195 0.0135512 0.00456702 0.00626744 0.0122496 0.00388113 0.00455255 0.00877323 0.00545549 0.0031117 0.00696944 0.0042636 0.00317551 0.0100336 0.00239334 0.00202352 0.00797318 0.00476983 0.00718839 0.0103726 0.00259132 0.0143906 0.00580712 0.00328903 0.0130953 0.00397243 0.00501016 0.0113593 0.00714011 0.00228304 0.00803389 0.000857206 0.00335047 0.0105468 0.00224964 0.00542535 0.000587188 0.00429682 0.00294648 0.0127828 0.00687239 0.00432909 0.0116158 0.000939439 0.00620106 0.0142229 0.00488908 0.00430301 0.0144772 0.00481447 0.00604007 0.0144873 0.00296167 0.0017631 0.00938757 0.00199862 0.00356986 0.00942064 0.00500638 0.00751931 0.0119472 0.00256874 0.00216158 0.00930134 0.00720574 0.00590257 0.000213679 0.000836078 0.00172812 0.00063637 0.00235653 0.00167637 0.00929146 0.00535061 0.00259126 0.00779917 0.00274409 0.00576803 0.00966174 0.00716284 0.00720794 0.0103483 0.000861014 0.00141638 0.0129734 0.0043902 0.00305271 0.00632205 0.00156815 0.00212689 0.0116653 0.00323423 0.00614252 0.0126645 0.00377003 0.00319712 0.000705191 0.00501535 0.0152785 0.00761056 0.000955512 0.0038018 0.00114615 0.00323768 0.000934031 0.00603246 0.00713376 0.00258886 0.00766711 0.00460223 0.000585006 0.0124561 0.00251583 0.00251721 0.00715618 0.00761096 0.000264354 0.00949975 0.000762531 0.00553556 0.00833298 0.000911794 0.00462037 0.0141594 0.000865386 0.0027212 0.0145016 0.000843682 0.0043597 0.0142582 0.00667705 0.00269172 0.0131191 0.00212856 0.00463623 0.0114355 0.00337997 0.00465095 0.0131662 0.00257921 0.00219293 0.001309 0.00631781 0.00594973 0.0131552 0.00643233 0.00441678 0.00797202 0.00237309 0.00179993 0.0113253 0.00102501 0.00481993 0.00952649 0.00347025 0.00572876 0.0107624 0.00198586 0.0034132 0.0106136 0.00647951 0.00455758 0.00777836 0.00473402 0.00439705 0.0124432 0.00568079 0.00106238 0.0133923 0.0009096 0.00327488 0.0113182 0.00468362 0.00384654 0.00924903 0.000925913 0.00274957 0.0149425 0.00371131 0.00227344 0.0098482 0.00368116 0.00510453 0.00781496 0.00687343 0.00498411 0.0106082 0.0053567 0.00556289 0.000963225 0.00247785 0.00379798 0.0148398 0.00231428 0.00333642 0.00806874 0.00626156 0.00148262 0.0153631 0.0107595 0.00134173 0.0101439 0.0125238 0.000951075 0.00910014 0.0103543 0.00400753 0.00912804 0.00789581 0.00231489 0.0137423 0.0113891 0.00416517 0.0138961 0.00962788 0.00495548 0.0152238 0.014444 0.00505489 0.0120095 0.00993003 0.00311327 0.0107393 0.0125524 0.00165923 0.0141052 0.0131391 0.00278963 0.00873315 0.0111687 0.00550651 0.00980234 0.00925661 0.00698917 0.000299211 0.0132981 0.00544248 0.00140015 0.0134553 0.00223104 0.00981794 0.00910154 0.00144498 0.0118293 0.00942827 0.00665023 0.0151528 0.011471 0.00442522 0.0106911 0.011096 0.00283708 0.0145578 0.00775766 0.00111278 0.00833443 0.0121173 0.00332029 0.000834293 0.0144577 0.0054739 0.0144476 0.0127986 0.00385393 0.0134308 0.0126255 0.00344061 0.0151986 0.0107898 0.00398609 0.010928 0.00875683 0.00311557 0.0126145 0.00882109 0.00595046 0.0152074 0.00967159 0.00384943 0.00938234 0.0098493 0.00231572 0.0112203 0.00785005 0.00268507 0.00890698 0.0130007 0.00469148 0.0116956 0.0127779 0.00605649 0.0104482 0.0134668 0.00366321 0.0104202 0.0144058 0.00616029 0.0111842 0.0116683 0.00554087 0.012013 0.0144475 0.0032561 0.0142611 0.0144121 0.00342205 0.00766717 0.00918862 0.00269955 0.00658929 0.0128642 0.00480249 0.00132654 0.0097222 0.00217771 0.0105967 0.0108431 0.00222899 0.0141651 0.00951726 0.000639354 0.0135149 0.0104042 0.0045511 0.015295 0.00830831 0.00344971 0.0123524 0.0142267 0.00542507 0.00699841 0.0144955 0.004154 0.0077511 0.0133558 0.00355582 0.00172117 0.0111214 0.00191649 0.0111513 0.0141111 0.00497291 0.00905312 0.0144716 0.00147994 0.0132345 0.00802318 0.00538351 0.0137964 0.0110359 0.00614858 0.0133987 0.00932192 0.00315506 0.0152745 0.0127156 0.00331165 0.0121809 0.0112324 0.00478249 0.0129927 0.00801522 0.00287908 0.000577227 0.00913794 0.00482688 0.000512197 0.0118353 0.00436664 0.00920053 0.0121799 0.00183305 0.00740591 0.0102648 0.0105762 0.00600345 0.00083278 0.0085727 0.000954238 0.00371991 0.0125506 0.00592507 0.00687224 0.0138644 0.00186108 0.00373884 0.0148198 0.00690722 0.00622771 0.0127967 0.00115104 0.00518254 0.0126978 0.0033941 0.00366537 0.0142243 0.00710519 0.00444611 0.00119152 0.00667294 0.00208604 0.000313572 0.00513955 0.00292455 0.00600926 0.00188524 0.00559096 0.0145143 0.00300638 0.00670588 0.0112923 0.00788371 0.00101527 0.0144733 0.00390721 0.000930821 0.0104271 0.0019418 0.00528653 0.000751966 0.00154404 0.000946122 0.00572441 0.000224754 0.00645432 0.00733811 0.00337156 0.000959894 0.00682469 0.00182393 0.00379258 0.0148882 0.00240424 0.00216596 0.00671406 0.00503504 0.00178645 0.0100601 0.00213175 0.00719646 0.00587621 0.00644528 0.00561243 0.0109437 0.00354087 0.00442631 0.00699238 0.00440308 0.00741088 0.00950257 0.00677094 0.00404919 0.0119471 0.0046144 0.000832378 0.0102125 0.00428781 0.00609915 0.0016731 0.00262725 0.00496941 0.0111297 0.00301122 0.00255228 0.007323 0.0026099 0.00685507 0.000733576 0.00217845 0.00699596 0.00823085 0.00501993 0.00288763 0.011878 0.00479143 0.00265704 0.00719158 0.00040665 0.00507761 0.00892982 0.0055509 0.00748214 0.0140691 0.00493803 0.0039756 0.0108378 0.00540062 0.00750773 0.0126604 0.00625673 0.00504483 0.0152026 0.00205037 0.00512595 0.00773543 0.00453039 0.00570935 0.000308803 0.0039398 0.00547561 0.00137238 0.00294403 0.00222072 0.00791676 0.00192986 0.00214396 0.0141749 0.00511038 0.00590423 0.0142895 0.00586121 0.00771706 0.0136147 0.0152856 0.000920924 0.0133575 0.00600193 0.00112486 0.00912899 0.00282833 0.00344908 0.00694441 0.00551392 0.0042525 0.0110443 0.00554901 0.00419672 0.0120582 0.004593 0.00556406 0.0128951 0.00624032 0.00315101 0.00926143 0.0049035 0.00453388 0.00725695 0.00730089 0.00375739 0.0132059 0.00305006 0.00539909 0.000147997 0.00550139 0.000984391 0.0120946 0.00153628 0.00188497 0.00741789 0.00364077 0.00392059 0.0107076 0.000190476 0.00454062 0.008359 0.00703625 0.00151196 0.0116819 0.00171199 0.00382432 0.0129191 0.00786773 0.00223034 0.0130547 0.00209557 0.00758181 0.00651799 0.00668516 0.000905134 0.0099982 0.00437356 0.0027958 0.0152985 0.00340932 0.0037031 0.00865804 0.00138611 0.00563991 0.000903309 0.0058206 0.00514524 0.0116264 0.00303798 0.0065688 0.00973924 0.00609272 0.00240452 0.0089161 0.00315516 0.00532731 0.0136563 0.00181371 0.000880346 0.0129125 0.00330909 0.0018307 0.0130705 0.00413556 0.00714699 0.00877587 0.00509294 0.000981684 0.0116609 0.00115733 0.0067113 0.0101785 0.00144607 0.00270868 0.00964141 0.00272023 0.00124811 0.0131914 0.000235131 0.00284417 0.00778012 0.000841737 0.00715926 0.00654613 0.0048767 0.0143978 0.0142147 0.00437975 0.0144394 0.00702753 0.00166886 0.0119499 0.0125585 0.00135809 0.0103451 0.0105387 0.00366488 0.00826533 0.00989455 0.00379615 0.0132605 0.00948029 0.00497434 0.0145885 0.00812448 0.0037023 0.0144178 0.00645769 0.00624469 0.00747278 8.6961e-06 0.00246912 0.011775 0.00547441 0.00337156 0.0137071 0.00767553 0.00428174 0.0107532 0.0117324 0.00327234 0.0127593 0.0137438 0.00449053 0.0121546 0.0145643 0.00671786 0.00941852 0.0110545 0.00612533 0.0106193 0.0114413 0.00458871 0.00967478 0.00815833 0.00160333 0.0102813 0.00940272 0.00621722 0.0116518 0.0147536 0.00141981 0.00817787 0.0141343 0.00243245 0.00972231 0.0144211 0.00493047 0.0100311 0.0097778 0.0054931 0.00933007 0.00721384 0.00298798 0.0091964 0.0152782 0.000515223 0.0144925 0.00883313 0.00364977 0.00733024 0.0120441 0.00166669 0.0138058 0.00653885 0.00550991 0.00928525 0.000162503 0.0048029 0.0116243 0.0128072 0.00351739 0.00884524 0.0109639 0.00522412 0.0135625 0.0130019 0.00602705 0.0134367 0.0109825 0.00285717 0.0104089 0.000710054 0.00472505 0.014483 0.000752711 0.00591898 0.00999697 0.00732844 0.0036583 0.0125369 0.0114511 0.00181941 0.00874483 0.0064966 0.00132546 0.00849512 0.0146541 0.00403715 0.00833047 0.012338 0.00446445 0.0144923 0.00915216 0.00325587 0.00991909 0.0086308 0.00205507 0.00843608 0.00852721 0.00507222 0.0129157 0.00707111 0.00225419 0.0138558 0.0127005 0.00372234 0.0106695 0.0135503 0.00244397 0.011548 0.0101081 0.00446988 0.0111349 0.0137907 0.00291857 0.013249 8.57222e-05 0.00286382 0.0144437 0.0138441 0.00178442 0.0145892 0.013128 0.00591751 0.01096 0.000338251 0.00356263 0.0102026 0.00811628 0.00613703 0.0101619 0.0149223 0.00564991 0.0132327 0.0130277 0.0153264 0.0143965 0.0119212 0.00505648 0.0120259 0.00109959 0.00464029 0.0088018 0.00816663 0.00460955 0.00892214 0.0136596 0.000990936 0.0128472 0.0102295 0.0078545 0.00275444 0.0084105 0.00882759 0.000870243 0.00932966 0.0125175 0.00266805 0.0148241 0.0128984 0.00442098 0.0110178 0.00982361 0.00466687 0.0151322 0.0006071 0.002972 0.00955185 0.00942053 0.00225453 0.0091529 0.000544887 0.00145682 0.0153141 0.00972122 0.00245086 0.0102675 0.0111605 0.0035914 0.000565403 0.000354355 0.00690979 0.0146528 0.00676662 0.00257973 0.0111546 0.000249481 0.000830735 0.00690592 0.0118585 0.00544997 0.0141687 0.000946152 0.00643263 0.00629939 0.0107588 0.00405667 0.00820809 0.0126753 0.00426418 0.00115686 0.00773546 0.00624896 0.0116347 0.0123231 0.00290255 0.00120119 0.0142226 0.00292881 0.0123134 0.0114524 0.00114913 0.00875027 0.0147075 0.00477442 0.00851349 0.0130673 0.000956909 0.0100729 0.000259513 0.00625108 0.00766469 0.0150293 0.000864176 0.0151035 0.0144722 0.00175213 0.0121731 0.014418 0.00399545 0.00763295 0.012517 0.00711935 0.00979811 0.0110684 0.00110373 0.00828293 0.0103259 0.00366929 0.000119754 0.0109067 0.00410837 0.0145028 0.011677 0.00119504 0.00916354 0.00868626 0.00500254 0.00822439 0.0143232 0.0027509 0.000660034 0.0080941 0.00371508 0.0014234 0.0114201 0.00597474 0.00693064 0.00892168 0.00240657 0.0108802 0.0131212 0.00108861 0.0106043 0.0147918 0.00261889 0.0103632 0.013276 0.00442784 0.00691409 0.00838279 0.0059281 0.0135318 0.0133278 0.00268495 0.0124568 0.0130977 0.00564053 0.00623524 0.0127751 0.00113916 0.0141287 0.0148906 0.0047313 0.0135266 0.0095067 0.00111303 0.00995828 0.0113967 0.00581314 0.0116683 0.00986683 0.00256479 0.0138435 0.00911241 0.00380848 0.00929409 0.0136682 0.00655789 0.0118366 0.00793123 0.00408673 0.000525552 0.0136627 0.00617154 0.00103817 0.000240895 0.00479257 0.013037 0.0113055 0.00418794 0.00797789 0.0103499 0.00681999 0.0145523 0.0143584 0.0130598 0.00949855 0.0109528 0.0108233 0.0144503 0.00764549 0.0140144 0.0127944 0.0113185 0.0122659 0.00824319 0.00668703 0.0143494 0.00695965 0.0144502 0.00775701 0.0150341 0.0109966 0.0102594 0.000699942 0.00779799 0.00838517 0.00963215 0.0125941 0.014175 0.00751422 0.0123779 0.0105607 0.00937483 0.00928907 0.00912958 0.00829909 0.00652498 0.00566643 0.0125234 0.012798 0.00860929 0.000912975 0.000682676 0.0126726 0.0114742 0.014498 0.0073794 0.00884593 7.62026e-05 0.0120069 0.0149418 0.00927708 0.00600209 0.00659273 0.0114339 0.00852828 0.008066 0.0146204 0.00994276 0.00615282 0.00787564 0.0088473 0.0121983 0.0132064 0.0137452 0.00616276 0.00838439 0.011438 0.0138653 0.0115293 0.0142625 0.000834479 0.0121481 0.0120516 0.0139971 0.0130174 0.0109939 0.0112117 0.0070221 0.0125841 0.0143716 0.0116897 0.00623969 0.01213 0.00854339 0.0141991 0.0125723 0.0100284 0.0103688 0.0146497 0.000625688 0.0108766 0.00154874 0.00782244 0.0142834 0.00675834 0.00628533 0.0125321 0.0143153 0.00877061 0.0096477 0.000255253 0.014879 0.00882111 0.0149091 0.0126064 0.00854669 0.0115934 0.0127965 0.010922 0.00946189 0.000108586 0.00824563 0.0108503 0.0151875 0.0137928 0.0130409 0.0080965 0.0117725 0.0104952 0.0147651 0.0102568 0.012613 0.0148698 0.0116813 0.0150335 0.00691897 0.0115208 0.0138444 0.0142741 0.00715203 0.0121908 0.0104404 0.00634222 0.00909755 0.0124014 0.00865308 0.00686335 0.00844322 0.0137168 0.009422 0.0131524 0.0118102 0.0114036 0.0109292 0.014223 0.010722 0.00688647 0.00592292 0.00100938 0.00169558 0.00953593 0.00736665 0.0100076 0.0102437 0.00853535 0.00808845 0.0109623 0.00666479 0.0138719 0.014363 0.00933485 0.00826755 0.0131557 0.00880213 0.000985239 0.0142355 0.011096 0.00819403 0.0104058 0.0128406 0.00806684 0.00639048 0.00827351 0.00758088 0.00781345 0.0134998 0.0106392 0.00826385 0.0110223 0.00969618 0.0122368 0.00748356 0.0123154 0.0129704 0.0110152 0.0110624 0.00901587 0.0106286 0.00742746 0.00826266 0.000498175 0.0127897 0.0143072 0.0125461 0.00629427 0.00895738 0.009017 0.00240563 0.0121149 0.0131769 0.0149757 0.00931721 0.0109976 0.00122112 0.0118017 0.000411323 0.0102244 0.0080913 0.0146409 0.00970802 0.0121312 0.0101827 0.00929987 0.00693469 0.000149829 0.00983017 0.01428 0.0080958 0.0101579 0.0125847</DataArray>
</Points><Verts>
<DataArray type="Int64" Name="connectivity" format="ascii">0 1 2 3 4 5 6 7 8 9 10 11 12 13 14 15 16 17 18 19 20 21 22 23 24 25 26 27 28 29 30 31 32 33 34 35 36 37 38 39 40 41 42 43 44 45 46 47 48 49 50 51 52 53 54 55 56 57 58 59 60 61 62 63 64 65 66 67 68 69 70 71 72 73 74 75 76 77 78 79 80 81 82 83 84 85 86 87 88 89 90 91 92 93 94 95 96 97 98 99 100 101 102 103 104 105 106 107 108 109 110 111 112 113 114 115 116 117 118 119 120 121 122 123 124 125 126 127 128 129 130 131 132 133 134 135 136 137 138 139 140 141 142 143 144 145 146 147 148 149 150 151 152 153 154 155 156 157 158 159 160 161 162 163 164 165 166 167 168 169 170 171 172 173 174 175 176 177 178 179 180 181 182 183 184 185 186 187 188 189 190 191 192 193 194 195 196 197 198 199 200 201 202 203 204 205 206 207 208 209 210 211 212 213 214 215 216 217 218 219 220 221 222 223 224 225 226 227 228 229 230 231 232 233 234 235 236 237 238 239 240 241 242 243 244 245 246 247 248 249 250 251 252 253 254 255 256 257 258 259 260 261 262 263 264 265 266 267 268 269 270 271 272 273 274 275 276 277 278 279 280 281 282 283 284 285 286 287 288 289 290 291 292 293 294 295 296 297 298 299 300 301 302 303 304 305 306 307 308 309 310 311 312 313 314 315 316 317 318 319 320 321 322 323 324 325 326 327 328 329 330 331 332 333 334 335 336 337 338 339 340 341 342 343 344 345 346 347 348 349 350 351 352 353 354 355 356 357 358 359 360 361 362 363 364 365 366 367 368 369 370 371 372 373 374 375 376 377 378 379 380 381 382 383 384 385 386 387 388 389 390 391 392 393 394 395 396 397 398 399 400 401 402 403 404 405 406 407 408 409 410 411 412 413 414 415 416 417 418 419 420 421 422 423 424 425 426 427 428 429 430 431 432 433 434 435 436 437 438 439 440 441 442 443 444 445 446 447 448 449 450 451 452 453 454 455 456 457 458 459 460 461 462 463 464 465 466 467 468 469 470 471 472 473 474 475 476 477 478 479 480 481 482 483 484 485 486 487 488 489 490 491 492 493 494 495 496 497 498 499</DataArray>
<DataArray type="Int64" Name="offsets" format="ascii">1 2 3 4 5 6 7 8 9 10 11 12 13 14 15 16 17 18 19 20 21 22 23 24 25 26 27 28 29 30 31 32 33 34 35 36 37 38 39 40 41 42 43 44 45 46 47 48 49 50 51 52 53 54 55 56 57 58 59 60 61 62 63 64 65 66 67 68 69 70 71 72 73 74 75 76 77 78 79 80 81 82 83 84 85 86 87 88 89 90 91 92 93 94 95 96 97 98 99 100 101 102 103 104 105 106 107 108 109 110 111 112 113 114 115 116 117 118 119 120 121 122 123 124 125 126 127 128 129 130 131 132 133 134 135 136 137 138 139 140 141 142 143 144 145 146 147 148 149 150 151 152 153 154 155 156 157 158 159 160 161 162 163 164 165 166 167 168 169 170 171 172 173 174 175 176 177 178 179 180 181 182 183 184 185 186 187 188 189 190 191 192 193 194 195 196 197 198 199 200 201 202 203 204 205 206 207 208 209 210 211 212 213 214 215 216 217 218 219 220 221 222 223 224 225 226 227 228 229 230 231 232 233 234 235 236 237 238 239 240 241 242 243 244 245 246 247 248 249 250 251 252 253 254 255 256 257 258 259 260 261 262 263 264 265 266 267 268 269 270 271 272 273 274 275 276 277 278 279 280 281 282 283 284 285 286 287 288 289 290 291 292 293 294 295 296 297 298 299 300 301 302 303 304 305 306 307 308 309 310 311 312 313 314 315 316 317 318 319 320 321 322 323 324 325 326 327 328 329 330 331 332 333 334 335 336 337 338 339 340 341 342 343 344 345 346 347 348 349 350 351 352 353 354 355 356 357 358 359 360 361 362 363 364 365 366 367 368 369 370 371 372 373 374 375 376 377 378 379 380 381 382 383 384 385 386 387 388 389 390 391 392 393 394 395 396 397 398 399 400 401 402 403 404 405 406 407 408 409 410 411 412 413 414 415 416 417 418 419 420 421 422 423 424 425 426 427 428 429 430 431 432 433 434 435 436 437 438 439 440 441 442 443 444 445 446 447 448 449 450 451 452 453 454 455 456 457 458 459 460 461 462 463 464 465 466 467 468 469 470 471 472 473 474 475 476 477 478 479 480 481 482 483 484 485 486 487 488 489 490 491 492 493 494 495 496 497 498 499 500</DataArray>
</Verts></Piece></PolyData></VTKFile>