<?xml version="1.0"?>
<VTKFile type="PolyData" version="0.1" byte_order="LittleEndian">
<PolyData>
<Piece NumberOfPoints="500" NumberOfVerts="500" NumberOfLines="0" NumberOfStrips="0" NumberOfPolys="0">
<PointData>
<DataArray type="Int64" Name="id" format="ascii">1 2 3 4 5 6 7 8 9 10 11 12 13 14 15 16 17 18 19 20 21 22 23 24 25 26 27 28 29 30 31 32 33 34 35 36 37 38 39 40 41 42 43 44 45 46 47 48 49 50 51 52 53 54 55 56 57 58 59 60 61 62 63 64 65 66 67 68 69 70 71 72 73 74 75 76 77 78 79 80 81 82 83 84 85 86 87 88 89 90 91 92 93 94 95 96 97 98 99 100 101 102 103 104 105 106 107 108 109 110 111 112 113 114 115 116 117 118 119 120 121 122 123 124 125 126 127 128 129 130 131 132 133 134 135 136 137 138 139 140 141 142 143 144 145 146 147 148 149 150 151 152 153 154 155 156 157 158 159 160 161 162 163 164 165 166 167 168 169 170 171 172 173 174 175 176 177 178 179 180 181 182 183 184 185 186 187 188 189 190 191 192 193 194 195 196 197 198 199 200 201 202 203 204 205 206 207 208 209 210 211 212 213 214 215 216 217 218 219 220 221 222 223 224 225 226 227 228 229 230 231 232 233 234 235 236 237 238 239 240 241 242 243 244 245 246 247 248 249 250 251 252 253 254 255 256 257 258 259 260 261 262 263 264 265 266 267 268 269 270 271 272 273 274 275 276 277 278 279 280 281 282 283 284 285 286 287 288 289 290 291 292 293 294 295 296 297 298 299 300 301 302 303 304 305 306 307 308 309 310 311 312 313 314 315 316 317 318 319 320 321 322 323 324 325 326 327 328 329 330 331 332 333 334 335 336 337 338 339 340 341 342 343 344 345 346 347 348 349 350 351 352 353 354 355 356 357 358 359 360 361 362 363 364 365 366 367 368 369 370 371 372 373 374 375 376 377 378 379 380 381 382 383 384 385 386 387 388 389 390 391 392 393 394 395 396 397 398 399 400 401 402 403 404 405 406 407 408 409 410 411 412 413 414 415 416 417 418 419 420 421 422 423 424 425 426 427 428 429 430 431 432 433 434 435 436 437 438 439 440 441 442 443 444 445 446 447 448 449 450 451 452 453 454 455 456 457 458 459 460 461 462 463 464 465 466 467 468 469 470 471 472 473 474 475 476 477 478 479 480 481 482 483 484 485 486 487 488 489 490 491 492 493 494 495 496 497 498 499 500</DataArray>
<DataArray type="Int32" Name="type" format="ascii">1 1 1 1 1 1 1 1 1 1 1 1 1 1 1 1 1 1 1 1 1 1 1 1 1 1 1 1 1 1 1 1 1 1 1 1 1 1 1 1 1 1 1 1 1 1 1 1 1 1 1 1 1 1 1 1 1 1 1 1 1 1 1 1 1 1 1 1 1 1 1 1 1 1 1 1 1 1 1 1 1 1 1 1 1 1 1 1 1 1 1 1 1 1 1 1 1 1 1 1 2 2 2 2 2 2 2 2 2 2 2 2 2 2 2 2 2 2 2 2 2 2 2 2 2 2 2 2 2 2 2 2 2 2 2 2 2 2 2 2 2 2 2 2 2 2 2 2 2 2 2 2 2 2 2 2 2 2 2 2 2 2 2 2 2 2 2 2 2 2 2 2 2 2 2 2 2 2 2 2 2 2 2 2 2 2 2 2 2 2 2 2 2 2 2 2 2 2 2 2 2 2 2 2 2 2 2 2 2 2 2 2 2 2 2 2 2 2 2 2 2 2 2 2 2 2 2 2 2 2 2 2 2 2 2 2 2 2 2 2 2 2 2 2 2 2 2 2 2 2 2 2 2 2 2 2 2 2 2 2 2 2 2 2 2 2 2 2 2 2 2 2 2 2 2 2 2 2 2 2 2 2 2 2 2 2 2 2 2 2 2 2 2 2 2 2 2 2 2 2 2 2 2 2 2 2 2 2 2 2 2 2 2 2 2 2 2 2 2 2 2 2 2 2 2 2 2 2 2 2 2 2 2 2 2 2 2 2 2 2 2 2 2 2 2 2 2 2 2 2 2 2 2 2 2 2 2 2 2 2 2 2 2 2 2 2 2 2 2 2 2 2 2 2 2 2 2 2 2 2 2 2 2 2 2 2 2 2 2 2 2 2 2 2 2 2 2 2 2 2 3 3 3 3 3 3 3 3 3 3 3 3 3 3 3 3 3 3 3 3 3 3 3 3 3 3 3 3 3 3 3 3 3 3 3 3 3 3 3 3 3 3 3 3 3 3 3 3 3 3 3 3 3 3 3 3 3 3 3 3 3 3 3 3 3 3 3 3 3 3 3 3 3 3 3 3 3 3 3 3 3 3 3 3 3 3 3 3 3 3 3 3 3 3 3 3 3 3 3 3</DataArray>
<DataArray type="Float64" Name="radius" format="ascii">0.00075 0.00075 0.00075 0.00075 0.00075 0.00075 0.00075 0.00075 0.00075 0.00075 0.00075 0.00075 0.00075 0.00075 0.00075 0.00075 0.00075 0.00075 0.00075 0.00075 0.00075 0.00075 0.00075 0.00075 0.00075 0.00075 0.00075 0.00075 0.00075 0.00075 0.00075 0.00075 0.00075 0.00075 0.00075 0.00075 0.00075 0.00075 0.00075 0.00075 0.00075 0.00075 0.00075 0.00075 0.00075 0.00075 0.00075 0.00075 0.00075 0.00075 0.00075 0.00075 0.00075 0.00075 0.00075 0.00075 0.00075 0.00075 0.00075 0.00075 0.00075 0.00075 0.00075 0.00075 0.00075 0.00075 0.00075 0.00075 0.00075 0.00075 0.00075 0.00075 0.00075 0.00075 0.00075 0.00075 0.00075 0.00075 0.00075 0.00075 0.00075 0.00075 0.00075 0.00075 0.00075 0.00075 0.00075 0.00075 0.00075 0.00075 0.00075 0.00075 0.00075 0.00075 0.00075 0.00075 0.00075 0.00075 0.00075 0.00075 0.001 0.001 0.001 0.001 0.001 0.001 0.001 0.001 0.001 0.001 0.001 0.001 0.001 0.001 0.001 0.001 0.001 0.001 0.001 0.001 0.001 0.001 0.001 0.001 0.001 0.001 0.001 0.001 0.001 0.001 0.001 0.001 0.001 0.001 0.001 0.001 0.001 0.001 0.001 0.001 0.001 0.001 0.001 0.001 0.001 0.001 0.001 0.001 0.001 0.001 0.001 0.001 0.001 0.001 0.001 0.001 0.001 0.001 0.001 0.001 0.001 0.001 0.001 0.001 0.001 0.001 0.001 0.001 0.001 0.001 0.001 0.001 0.001 0.001 0.001 0.001 0.001 0.001 0.001 0.001 0.001 0.001 0.001 0.001 0.001 0.001 0.001 0.001 0.001 0.001 0.001 0.001 0.001 0.001 0.001 0.001 0.001 0.001 0.001 0.001 0.001 0.001 0.001 0.001 0.001 0.001 0.001 0.001 0.001 0.001 0.001 0.001 0.001 0.001 0.001 0.001 0.001 0.001 0.001 0.001 0.001 0.001 0.001 0.001 0.001 0.001 0.001 0.001 0.001 0.001 0.001 0.001 0.001 0.001 0.001 0.001 0.001 0.001 0.001 0.001 0.001 0.001 0.001 0.001 0.001 0.001 0.001 0.001 0.001 0.001 0.001 0.001 0.001 0.001 0.001 0.001 0.001 0.001 0.001 0.001 0.001 0.001 0.001 0.001 0.001 0.001 0.001 0.001 0.001 0.001 0.001 0.001 0.001 0.001 0.001 0.001 0.001 0.001 0.001 0.001 0.001 0.001 0.001 0.001 0.001 0.001 0.001 0.001 0.001 0.001 0.001 0.001 0.001 0.001 0.001 0.001 0.001 0.001 0.001 0.001 0.001 0.001 0.001 0.001 0.001 0.001 0.001 0.001 0.001 0.001 0.001 0.001 0.001 0.001 0.001 0.001 0.001 0.001 0.001 0.001 0.001 0.001 0.001 0.001 0.001 0.001 0.001 0.001 0.001 0.001 0.001 0.001 0.001 0.001 0.001 0.001 0.001 0.001 0.001 0.001 0.001 0.001 0.001 0.001 0.001 0.001 0.001 0.001 0.001 0.001 0.001 0.001 0.001 0.001 0.001 0.001 0.001 0.001 0.001 0.001 0.001 0.001 0.001 0.001 0.001 0.001 0.001 0.001 0.001 0.001 0.001 0.001 0.001 0.001 0.001 0.001 0.001 0.001 0.001 0.001 0.001 0.001 0.001 0.001 0.001 0.001 0.001 0.001 0.001 0.001 0.001 0.001 0.001 0.001 0.001 0.001 0.001 0.001 0.001 0.001 0.00125 0.00125 0.00125 0.00125 0.00125 0.00125 0.00125 0.00125 0.00125 0.00125 0.00125 0.00125 0.00125 0.00125 0.00125 0.00125 0.00125 0.00125 0.00125 0.00125 0.00125 0.00125 0.00125 0.00125 0.00125 0.00125 0.00125 0.00125 0.00125 0.00125 0.00125 0.00125 0.00125 0.00125 0.00125 0.00125 0.00125 0.00125 0.00125 0.00125 0.00125 0.00125 0.00125 0.00125 0.00125 0.00125 0.00125 0.00125 0.00125 0.00125 0.00125 0.00125 0.00125 0.00125 0.00125 0.00125 0.00125 0.00125 0.00125 0.00125 0.00125 0.00125 0.00125 0.00125 0.00125 0.00125 0.00125 0.00125 0.00125 0.00125 0.00125 0.00125 0.00125 0.00125 0.00125 0.00125 0.00125 0.00125 0.00125 0.00125 0.00125 0.00125 0.00125 0.00125 0.00125 0.00125 0.00125 0.00125 0.00125 0.00125 0.00125 0.00125 0.00125 0.00125 0.00125 0.00125 0.00125 0.00125 0.00125 0.00125</DataArray>
<DataArray type="Float64" Name="diameter" format="ascii">0.0015 0.0015 0.0015 0.0015 0.0015 0.0015 0.0015 0.0015 0.0015 0.0015 0.0015 0.0015 0.0015 0.0015 0.0015 0.0015 0.0015 0.0015 0.0015 0.0015 0.0015 0.0015 0.0015 0.0015 0.0015 0.0015 0.0015 0.0015 0.0015 0.0015 0.0015 0.0015 0.0015 0.0015 0.0015 0.0015 0.0015 0.0015 0.0015 0.0015 0.0015 0.0015 0.0015 0.0015 0.0015 0.0015 0.0015 0.0015 0.0015 0.0015 0.0015 0.0015 0.0015 0.0015 0.0015 0.0015 0.0015 0.0015 0.0015 0.0015 0.0015 0.0015 0.0015 0.0015 0.0015 0.0015 0.0015 0.0015 0.0015 0.0015 0.0015 0.0015 0.0015 0.0015 0.0015 0.0015 0.0015 0.0015 0.0015 0.0015 0.0015 0.0015 0.0015 0.0015 0.0015 0.0015 0.0015 0.0015 0.0015 0.0015 0.0015 0.0015 0.0015 0.0015 0.0015 0.0015 0.0015 0.0015 0.0015 0.0015 0.002 0.002 0.002 0.002 0.002 0.002 0.002 0.002 0.002 0.002 0.002 0.002 0.002 0.002 0.002 0.002 0.002 0.002 0.002 0.002 0.002 0.002 0.002 0.002 0.002 0.002 0.002 0.002 0.002 0.002 0.002 0.002 0.002 0.002 0.002 0.002 0.002 0.002 0.002 0.002 0.002 0.002 0.002 0.002 0.002 0.002 0.002 0.002 0.002 0.002 0.002 0.002 0.002 0.002 0.002 0.002 0.002 0.002 0.002 0.002 0.002 0.002 0.002 0.002 0.002 0.002 0.002 0.002 0.002 0.002 0.002 0.002 0.002 0.002 0.002 0.002 0.002 0.002 0.002 0.002 0.002 0.002 0.002 0.002 0.002 0.002 0.002 0.002 0.002 0.002 0.002 0.002 0.002 0.002 0.002 0.002 0.002 0.002 0.002 0.002 0.002 0.002 0.002 0.002 0.002 0.002 0.002 0.002 0.002 0.002 0.002 0.002 0.002 0.002 0.002 0.002 0.002 0.002 0.002 0.002 0.002 0.002 0.002 0.002 0.002 0.002 0.002 0.002 0.002 0.002 0.002 0.002 0.002 0.002 0.002 0.002 0.002 0.002 0.002 0.002 0.002 0.002 0.002 0.002 0.002 0.002 0.002 0.002 0.002 0.002 0.002 0.002 0.002 0.002 0.002 0.002 0.002 0.002 0.002 0.002 0.002 0.002 0.002 0.002 0.002 0.002 0.002 0.002 0.002 0.002 0.002 0.002 0.002 0.002 0.002 0.002 0.002 0.002 0.002 0.002 0.002 0.002 0.002 0.002 0.002 0.002 0.002 0.002 0.002 0.002 0.002 0.002 0.002 0.002 0.002 0.002 0.002 0.002 0.002 0.002 0.002 0.002 0.002 0.002 0.002 0.002 0.002 0.002 0.002 0.002 0.002 0.002 0.002 0.002 0.002 0.002 0.002 0.002 0.002 0.002 0.002 0.002 0.002 0.002 0.002 0.002 0.002 0.002 0.002 0.002 0.002 0.002 0.002 0.002 0.002 0.002 0.002 0.002 0.002 0.002 0.002 0.002 0.002 0.002 0.002 0.002 0.002 0.002 0.002 0.002 0.002 0.002 0.002 0.002 0.002 0.002 0.002 0.002 0.002 0.002 0.002 0.002 0.002 0.002 0.002 0.002 0.002 0.002 0.002 0.002 0.002 0.002 0.002 0.002 0.002 0.002 0.002 0.002 0.002 0.002 0.002 0.002 0.002 0.002 0.002 0.002 0.002 0.002 0.002 0.002 0.002 0.002 0.002 0.002 0.002 0.002 0.002 0.002 0.002 0.002 0.0025 0.0025 0.0025 0.0025 0.0025 0.0025 0.0025 0.0025 0.0025 0.0025 0.0025 0.0025 0.0025 0.0025 0.0025 0.0025 0.0025 0.0025 0.0025 0.0025 0.0025 0.0025 0.0025 0.0025 0.0025 0.0025 0.0025 0.0025 0.0025 0.0025 0.0025 0.0025 0.0025 0.0025 0.0025 0.0025 0.0025 0.0025 0.0025 0.0025 0.0025 0.0025 0.0025 0.0025 0.0025 0.0025 0.0025 0.0025 0.0025 0.0025 0.0025 0.0025 0.0025 0.0025 0.0025 0.0025 0.0025 0.0025 0.0025 0.0025 0.0025 0.0025 0.0025 0.0025 0.0025 0.0025 0.0025 0.0025 0.0025 0.0025 0.0025 0.0025 0.0025 0.0025 0.0025 0.0025 0.0025 0.0025 0.0025 0.0025 0.0025 0.0025 0.0025 0.0025 0.0025 0.0025 0.0025 0.0025 0.0025 0.0025 0.0025 0.0025 0.0025 0.0025 0.0025 0.0025 0.0025 0.0025 0.0025 0.0025</DataArray>
<DataArray type="Float64" Name="conductivity" format="ascii">1.0 1.0 1.0 1.0 1.0 1.0 1.0 1.0 1.0 1.0 1.0 1.0 1.0 10.0 1.0 1.0 1.0 10.0 1.0 1.0 1.0 1.0 1.0 1.0 1.0 10.0 1.0 10.0 1.0 1.0 1.0 10.0 1.0 1.0 1.0 1.0 1.0 1.0 1.0 1.0 1.0 1.0 1.0 1.0 1.0 1.0 10.0 1.0 1.0 1.0 1.0 1.0 1.0 1.0 10.0 10.0 1.0 1.0 1.0 1.0 1.0 1.0 1.0 1.0 10.0 1.0 1.0 1.0 1.0 1.0 1.0 1.0 1.0 1.0 1.0 1.0 1.0 1.0 1.0 1.0 1.0 1.0 1.0 1.0 1.0 1.0 1.0 1.0 1.0 1.0 10.0 1.0 1.0 1.0 1.0 1.0 1.0 1.0 1.0 1.0 1.0 1.0 10.0 1.0 1.0 1.0 1.0 1.0 1.0 1.0 1.0 1.0 1.0 1.0 1.0 1.0 1.0 10.0 1.0 1.0 1.0 1.0 1.0 1.0 1.0 1.0 1.0 1.0 1.0 1.0 1.0 1.0 1.0 1.0 1.0 1.0 1.0 1.0 1.0 1.0 1.0 1.0 10.0 10.0 1.0 1.0 1.0 1.0 1.0 1.0 1.0 1.0 1.0 1.0 10.0 1.0 1.0 10.0 1.0 1.0 1.0 1.0 1.0 1.0 1.0 1.0 1.0 1.0 10.0 10.0 1.0 1.0 1.0 1.0 1.0 1.0 1.0 1.0 1.0 1.0 1.0 1.0 1.0 1.0 1.0 1.0 10.0 1.0 1.0 1.0 10.0 1.0 10.0 1.0 1.0 1.0 1.0 1.0 1.0 1.0 1.0 1.0 10.0 1.0 1.0 1.0 1.0 1.0 1.0 1.0 1.0 1.0 1.0 1.0 1.0 1.0 1.0 1.0 1.0 1.0 1.0 1.0 1.0 1.0 1.0 1.0 1.0 1.0 10.0 1.0 1.0 1.0 1.0 1.0 1.0 1.0 1.0 1.0 1.0 10.0 1.0 1.0 10.0 1.0 1.0 1.0 1.0 1.0 1.0 1.0 10.0 1.0 1.0 1.0 1.0 1.0 1.0 1.0 1.0 1.0 1.0 1.0 1.0 1.0 1.0 1.0 1.0 1.0 10.0 1.0 1.0 1.0 1.0 1.0 1.0 1.0 1.0 1.0 1.0 1.0 1.0 1.0 1.0 1.0 1.0 10.0 1.0 1.0 1.0 1.0 1.0 1.0 1.0 1.0 10.0 1.0 1.0 1.0 1.0 1.0 1.0 1.0 1.0 1.0 10.0 1.0 1.0 1.0 1.0 1.0 10.0 1.0 1.0 1.0 1.0 1.0 1.0 1.0 1.0 1.0 1.0 1.0 1.0 1.0 1.0 1.0 1.0 1.0 1.0 10.0 1.0 1.0 1.0 1.0 1.0 1.0 1.0 1.0 1.0 1.0 1.0 1.0 10.0 1.0 1.0 1.0 1.0 1.0 1.0 1.0 1.0 1.0 10.0 1.0 1.0 1.0 1.0 1.0 1.0 1.0 1.0 1.0 1.0 1.0 1.0 1.0 1.0 1.0 1.0 1.0 1.0 10.0 10.0 1.0 1.0 1.0 10.0 1.0 10.0 1.0 1.0 1.0 1.0 1.0 1.0 10.0 1.0 10.0 1.0 1.0 1.0 1.0 1.0 1.0 1.0 1.0 1.0 1.0 1.0 1.0 1.0 10.0 1.0 1.0 1.0 1.0 1.0 1.0 1.0 1.0 1.0 1.0 10.0 1.0 1.0 1.0 1.0 10.0 1.0 1.0 1.0 1.0 1.0 1.0 1.0 1.0 1.0 1.0 1.0 1.0 1.0 1.0 1.0 1.0 1.0 1.0 1.0 10.0 1.0 1.0 1.0 10.0 1.0 1.0 1.0 1.0 1.0 1.0 10.0 1.0 1.0 1.0 1.0 1.0 1.0 1.0 1.0 1.0 1.0 1.0 1.0 1.0 1.0 1.0 1.0 1.0 1.0 1.0 1.0 1.0 1.0 1.0 1.0 1.0 1.0 1.0 1.0 1.0 1.0 1.0 1.0 10.0 1.0 10.0 10.0 1.0 1.0 1.0 1.0 1.0 1.0 1.0 1.0 1.0 10.0 1.0 1.0 1.0 1.0 1.0</DataArray>
<DataArray type="Float64" Name="temperature" format="ascii">300.1673076572 300.52519148004353 300.0446187098351 300.3056241215895 300.89925398973094 300.0330557616697 300.0306223305749 300.4971966900001 300.43467115490233 300.02297057851456 300.50253564896894 300.5542784295855 300.5438375256655 300.4230222747327 300.82722486216585 300.0559207901106 300.12862117889273 300.52877917808803 300.71373303276505 300.2342785509465 300.1433843225372 300.12838392339955 300.88571763736076 300.380988231338 300.59812124575336 300.70318956354544 300.2722867540619 300.6336079280641 300.389336995402 300.3776875719783 300.0559207901106 300.3623540740116 300.14658184286145 nan 300.3254343415249 300.54791033002766 300.8571547147596 nan 300.4088509739338 300.43046775712514 300.69531582532704 300.4343648118647 300.58247872408697 300.9415405867898 300.4019703352094 300.30582143248233 300.4541245122904 300.47879126955166 300.5203991055074 300.90813627579365 300.0765763989205 300.5571305970368 300.0661120858705 300.40859289780957 300.0355616979309 300.8242339173893 300.32929651109123 300.03428053417747 300.3812690024733 300.3324104760802 300.4987494749007 300.4587087029048 300.323585620639 300.8166233128172 300.9775187866213 300.4360440688682 300.6701705628111 300.03696148706507 300.13617916002545 300.3101760706268 300.26877072391466 300.1346660665881 300.3087127067438 300.84264385173526 300.7012428721483 300.57809221247845 300.9417213158249 300.84278518103577 300.2177967329286 300.23876339828746 300.40092117787526 300.0939455271252 300.4424636080479 300.6197249119592 300.147567440736 300.5538293581038 300.328021948055 300.8271252333609 300.25719602796653 300.71802599691256 300.0324327249735 300.5441720502666 300.48479941467116 300.1436262833478 300.7788340785694 300.59873725258603 300.1860416753329 300.4905772379019 300.413702497427 300.78512601529513 300.0629330232317 300.3759996856562 300.0525701369578 300.0443279126492 300.21581670383273 nan 300.93662971165526 300.4560494651215 300.81767412322597 300.7922249180954 300.71629793003814 300.54571376651114 300.36518264272513 300.2915868403748 300.2352813932317 300.4641442557828 300.059198533468 300.16084399168153 300.18477528157985 300.6445299193437 300.8262610286875 300.17346468298695 300.9288094399326 300.8330749618596 300.46741023252366 300.11916048431806 300.8943955381645 300.0442154708059 300.45241835523206 300.4146017130384 300.70442372570807 300.73045158037496 300.2827286515134 300.27426793199 300.7288834907389 300.3899778487258 300.4595564184524 300.4137507074066 300.92063566491163 300.1305973189601 300.7377370366398 300.0479567622458 300.95610342558024 300.48696477324427 300.4735815744881 300.3874791713587 300.09399198950064 300.9404892241569 300.87610062736275 300.041499732708 300.55019161079395 300.60559457224593 300.4237678112974 300.77710556927127 300.88920667208436 300.5692185767641 300.3472917482325 300.2518778221698 300.3251194282108 300.18091147394887 300.83424850725123 300.1442245819636 300.1339897464093 300.6636445727971 300.63478143207993 300.6976721715076 300.23370103294405 300.73035126922787 300.54086395715143 300.02708480405784 300.3677300663047 300.1912974815741 300.36967830320344 300.4288618726947 300.90424007405176 300.06247376473215 300.89816875657783 300.1704386110384 300.3166381696109 300.4336923620265 300.04848892437525 300.47625359128426 300.39514419130614 300.15245988364353 300.59986770628035 300.882327648554 300.3582121016401 300.05575985328824 300.16633810878193 300.86220330252684 300.11622270969247 300.62397880851694 300.29571437950545 300.7923929896717 300.0744589388483 300.8102046776012 300.2620508944457 300.7312188956444 300.70211807767174 300.03702294804833 300.6883502206711 300.15563126903277 300.6716020886175 300.5174953099857 300.73702774104163 300.19854454052347 300.4852471562882 300.58162090640735 300.8378246326144 300.8119034534765 300.6692132389913 300.0469091108762 300.0607361780215 300.2272389578559 300.38845983781874 300.3559406771508 300.81720508342687 300.1624050029542 300.5846619960057 300.8036291997739 300.3123381092083 300.23732305124673 300.5324670886656 300.04985229333255 300.23477720404253 300.30926182987855 300.9373852366495 300.6328452783373 300.2165072797569 300.4598889108011 300.5358366236468 300.65287236758934 300.34352116001145 300.2524582880881 300.24495255024556 300.09810425517657 300.04722379057495 300.50401715867406 300.51134846461395 300.165067576167 300.0498550584361 nan 300.1991198835924 300.0567545707006 300.6583956009482 300.1246516434204 300.1862772225759 300.653817733711 300.39673602718466 300.88195958166483 300.520725609097 300.2159174570623 300.3263844588409 300.33044535905776 300.2306369236587 300.54855237104346 300.9391545938123 300.9375905656404 300.6032623388922 300.5860105633335 300.9440702743961 300.11579356863825 300.63091827948637 300.6170842089017 300.2657075121835 300.3091090205436 300.4510613025041 300.34692241000374 300.5025240295633 300.45394672461106 300.15865949195614 300.1158224210668 300.04807236927235 300.0736144381978 300.47461835163375 300.93095845208643 300.37134540245523 300.7449736121513 300.3269868300167 300.7311728373118 300.5678875862427 300.1841016605096 nan 300.3445098201476 300.72118127279987 300.4298697253952 300.8932350850408 300.311385906447 300.26223046639427 300.91384457466927 300.47488331080723 300.49795283914244 300.43279532579027 300.5827192106237 300.14606230802053 300.19192999210287 300.5717646600581 300.1444462072121 300.36633381669867 300.3546755466362 300.7211554766805 300.6411614569022 300.6734858423041 300.4685806874873 300.0836015914913 300.39499323913446 300.9381641297918 300.62580611919316 300.92081126712003 300.6796635074072 300.0175868628663 300.28126147449893 300.53170641390483 300.3949383447424 300.05143782461045 300.0602679221952 300.7221972399951 300.9404447840682 300.32043526712187 300.70733838424906 300.1979418427069 300.4785234440094 300.92628506879254 300.0501235624885 300.2429490023712 300.5230257544103 300.2533517267615 300.1550788966876 300.88964510744387 300.32221401094466 300.29261514124596 300.2418187457765 300.6132703369601 300.6758899883382 300.13095902454546 300.11492472044085 300.3971005522935 300.9335772554225 300.3396378552984 300.12995160896924 300.75417844702736 300.67666259068017 300.2376266265392 300.7092030191786 300.12318232145117 300.5089230081356 300.7952032132752 300.05453248341223 300.14344990921654 300.0473566560628 300.3104544305606 300.4914944016333 300.9460201327207 300.77942116701337 300.097362216475 300.5732155475987 300.05294044677794 300.8720860178301 300.18120538828566 300.486244759676 300.66048594607275 300.474552001862 300.32299941198073 300.241250578878 300.23914914668535 300.0473434485701 300.58975882380645 300.3765744074562 300.299937362944 300.5593306066236 300.48033359528716 300.8651235916619 300.3380143902181 300.6105725200204 300.59472832420846 300.79792865343023 300.1656864405895 300.05422784695065 300.60730969576946 300.3958134520616 300.13817781144843 300.9439640578588 300.38554495441343 300.3268862013291 300.5693503555382 300.0251504779735 300.05248508244324 300.59101697018787 300.82334274178567 300.25897662697344 300.629715446802 300.1639436609095 300.9291146459289 300.9149952177045 300.0609510850296 300.0726934639917 300.9228181309599 300.03972670707003 300.3315507888696 300.66748069688913 300.4941950827476 300.2545010208163 300.9159465805077 300.7763816075842 300.919754863011 300.7654841924734 300.82619613746135 300.3944708158226 300.4788200261853 300.82919247008635 300.2879806875849 300.62823777454065 300.93795481028604 300.2260133282824 300.7326562417346 300.69873143922655 300.42662562071064 300.05296942960575 300.80293140692805 300.3008412051596 300.9209787900018 300.2876470686792 300.5373366179332 300.41417928550175 300.18007346714455 300.5013237786727 300.13421118867615 300.3489407380725 300.32498199887766 300.20614381530737 300.8879614509693 300.6427988762742 300.2613314430166 300.75648444384854 300.06449016288786 300.2322357537085 300.6314591228284 300.33716880018875 300.91145190546774 300.2307512303967 300.1481984991742 300.3804903131117 300.2562073455864 300.5892359138841 300.06730686333196 300.91730089119653 300.1621259743974 300.7522943135031 300.2319464007525 300.92060643434166 300.81379359912415 300.9307208945886 300.42806701175596 300.0735113847033 300.2702814410445 300.32127154931686 300.55834365729777 300.09487579693416 300.41154051074363 300.57203022729186 300.1687149394921 300.892946437851 300.14998654668017 300.5393924415161 300.305649342331 300.1356655506059 300.13382348234825 300.30291537814315 300.9366132456618 300.1321503539288 300.9204481646163 300.68164304558604 300.6980008305623 300.3616465485157 300.92488677061584 300.5024319619203 300.46924547970445 300.267569293424 300.087819701715 300.07680645713504 300.8614929350256 300.7858957990509 300.9029941402739 300.2826484293712 300.64569447415033 300.7440363041479 300.59373872059507 300.7003971983145 300.52689413006334 300.7636831297086 300.74066418194593 300.62445958563023 300.227988103063 300.32779410178443 300.811108830595 300.3020487582694 300.9173005078637 300.6638597748031 300.8387571506507 300.93141637661256</DataArray>
<DataArray type="Float64" Name="g_hot" format="ascii">0.0 0.0 0.0 0.0 0.0 0.0 0.0 0.0 0.0 0.0 0.0 0.0 0.0 0.0 0.0 0.0 0.0 0.0 0.0 0.0 0.0 0.0 0.0 0.0 0.0 0.0 0.0 0.0 0.0 0.0 0.0 0.0 0.0 0.0 0.0 0.0 0.0 0.0 0.0 0.0 0.0 0.0 0.0 0.0005918749868004222 0.0 0.0 0.0 0.0 0.0 0.0 0.0 0.0 0.0 0.0 0.0 0.0 0.0 0.0 0.0 0.0 0.0 0.0 0.0 0.0 0.0060370605430126335 0.0 0.0 0.0 0.0 0.0 0.0 0.0 0.0 0.0 0.0 0.0 0.00029007068104170753 0.0 0.0 0.0 0.0 0.0 0.0 0.0 0.0 0.0 0.0 0.0 0.0 0.0 0.0 0.0 0.0 0.0 0.0 0.0 0.0 0.0 0.0 0.0 0.0 0.0 0.0 0.0 0.0 0.0 0.0008022692814759892 0.0 0.0 0.0 0.0 0.0 0.0 0.0 0.0 0.0 0.0 0.0 0.0 0.0 0.0 0.0 0.0005697824146110512 0.0 0.0 0.0 0.0 0.0 0.0 0.0 0.0 0.0 0.0 0.0 0.0 0.0 0.0 0.0 0.0006516348670843207 0.0 0.0 0.0 0.003377454662908152 0.0 0.0 0.0 0.0 0.0005245455175673511 0.0 0.0 0.0 0.0 0.0 0.0 0.0 0.0 0.0 0.0 0.0 0.0 0.0 0.0 0.0 0.0 0.0 0.0 0.0 0.0 0.0 0.0 0.0 0.0 0.0 0.0 0.0 0.0 0.0 0.0 0.0 0.0 0.0 0.0 0.0 0.0 0.0 0.0 0.0 0.0 0.0 0.0 0.0 0.0 0.0 0.0 0.0 0.0 0.0 0.0 0.0 0.0 0.0 0.0 0.0 0.0 0.0 0.0 0.0 0.0 0.0 0.0 0.0 0.0 0.0 0.0 0.0 0.0 0.0 0.0 0.0 0.0 0.0 0.0 0.0 0.0 0.0 0.0 0.0004337326365400695 0.0 0.0 0.0 0.0 0.0 0.0 0.0 0.0 0.0 0.0 0.0 0.0 0.0 0.0 0.0 0.0 0.0 0.0 0.0 0.0 0.0 0.0 0.0 0.0 0.0 0.0 0.0 0.0 0.0 0.0005518115620390715 0.00026887915501206175 0.0 0.0 0.0006966118000723215 0.0 0.0 0.0 0.0 0.0 0.0 0.0 0.0 0.0 0.0 0.0 0.0 0.0 0.0 0.0 0.0 0.0 0.0 0.0 0.0 0.0 0.0 0.0 0.0 0.0 0.0 0.0 0.0 0.0 0.0 0.0 0.0 0.0 0.0 0.0 0.0 0.0 0.0 0.0 0.0 0.0 0.0 0.0 0.0 0.0 0.0004984977432245807 0.0 0.0007024072892560272 0.0 0.0 0.0 0.0 0.0 0.0 0.0 0.0 0.0005277878361614638 0.0 0.0 0.0 0.0 0.0006006596373987518 0.0 0.0 0.0 0.0 0.0 0.0 0.0 0.0 0.0 0.0 0.0 0.0 0.0 0.0 0.0005813639135687731 0.0 0.0 0.0 0.0 0.0 0.0 0.0 0.0 0.0 0.0 0.0 0.0 0.0 0.0 0.008311101010094872 0.0 0.0 0.0 0.0 0.0 0.0 0.0 0.0 0.0 0.0 0.0 0.0 0.0 0.0 0.0 0.0 0.0 0.0 0.0 0.0 0.0 0.0 0.0 0.0 0.0 0.0 0.0 0.0 0.00046427578011350103 0.0 0.0 0.0 0.0 0.0 0.0 0.0 0.0 0.0 0.0 0.0006522974781493486 0.0005684012667121704 0.0 0.0 0.0 0.0 0.0 0.0 0.0 0.0 0.0 0.0 0.0007336893075410057 0.0 0.0 0.0 0.0 0.0 0.0 0.0 0.00897886407069402 0.0 0.0 0.0 0.0 0.0 0.0 0.0 0.0006320601237224191 0.0 0.0 0.0 0.0 0.0 0.0 0.0 0.0 0.0 0.0 0.0 0.0 0.0 0.0 0.0 0.0 0.0 0.0004656178690729132 0.0 0.0 0.0 0.0 0.0 0.0 0.0007485986908885163 0.0 0.0 0.0 0.0006579893616161286 0.0 0.0009662039122255718 0.0 0.0 0.0 0.0 0.0 0.0 0.0 0.0 0.0 0.0 0.0 0.0 0.0 0.0 0.0 0.0 0.00045099889135118707 0.0 0.0005108326536156431 0.0 0.0 0.0 0.0008327064308626419 0.0 0.0 0.0 0.0 0.0 0.0 0.0 0.0006940821277053603 0.0 0.0 0.0 0.0 0.0 0.0 0.0 0.0 0.0 0.0 0.0 0.0 0.0 0.0009024688360270396 0.0 0.0 0.000615792172733626</DataArray>
<DataArray type="Float64" Name="g_cold" format="ascii">0.0 0.0 0.00022626630007870047 0.0 0.0 0.00034755782044330744 0.00031160301434887076 0.0 0.0 0.00039407669120528505 0.0 0.0 0.0 0.0 0.0 0.00018302032278221333 0.0 0.0 0.0 0.0 0.0 0.0 0.0 0.0 0.0 0.0 0.0 0.0 0.0 0.0 0.0 0.0 0.0 0.0 0.0 0.0 0.0 0.0 0.0 0.0 0.0 0.0 0.0 0.0 0.0 0.0 0.0 0.0 0.0 0.0 0.0 0.0 0.0 0.0 0.0061741107744460386 0.0 0.0 0.00032480215293514405 0.0 0.0 0.0 0.0 0.0 0.0 0.0 0.0 0.0 0.000689054742782678 0.0 0.0 0.0 0.0 0.0 0.0 0.0 0.0 0.0 0.0 0.0 0.0 0.0 0.0 0.0 0.0 0.0 0.0 0.0 0.0 0.0 0.0 0.00395596307555194 0.0 0.0 0.0 0.0 0.0 0.0 0.0 0.0 0.0 0.0004905730506952141 0.0 0.006124229895002327 0.0005293976936750007 0.0 0.0 0.0 0.0 0.0 0.0 0.0 0.0 0.0 0.0 0.0 0.0 0.0002658230954383115 0.0 0.0 0.0 0.0 0.0 0.0 0.0 0.0 0.0 0.0 0.000650124540429291 0.0 0.0 0.0 0.0 0.0 0.0 0.0 0.0 0.0 0.0 0.0 0.0 0.0 0.00046804050900365305 0.0 0.0 0.0 0.0 0.0 0.0 0.0 0.0005271260931394027 0.0 0.0 0.0 0.0 0.0 0.0 0.0 0.0 0.0 0.0 0.0 0.0 0.0 0.0 0.0 0.0 0.0 0.0 0.0 0.00519097214467969 0.0 0.0 0.0 0.0 0.0 0.00030896912154517505 0.0 0.0 0.0 0.0 0.0005026548697350969 0.0 0.0 0.0 0.0 0.0 0.0 0.000558445984915643 0.0 0.0 0.0 0.0 0.0 0.0 0.0 0.0 0.0 0.0 0.0 0.0005144530280486309 0.0 0.0 0.0 0.0 0.0 0.0 0.0 0.0 0.0 0.0 0.0 0.0005194823558778511 0.0006298110177413529 0.0 0.0 0.0 0.0 0.0 0.0 0.0 0.0 0.0 0.0 0.0005002618495032453 0.0 0.0 0.0 0.0 0.0 0.0 0.0 0.0 0.0 0.0 0.0 0.0 0.00025032362666835436 0.0 0.0 0.0 0.0004528376288123576 0.0 0.0 0.0005497835192768188 0.0 0.0 0.0 0.0 0.0 0.0 0.0 0.0 0.0 0.0 0.0 0.0 0.0 0.0 0.0 0.0 0.0 0.0 0.0 0.0 0.0 0.0 0.0 0.0 0.0 0.0 0.0 0.0 0.0005771151688080999 0.0 0.0 0.0 0.0 0.0 0.0 0.0 0.0 0.0 0.0 0.0 0.0 0.0 0.0 0.0 0.0 0.0 0.0 0.0 0.0 0.0 0.0 0.0 0.0 0.0 0.0 0.0 0.0 0.0 0.0 0.0 0.0 0.0 0.0 0.0 0.0 0.0 0.008078749396214769 0.0 0.0 0.0 0.00045679526931482654 0.0007501079376119133 0.0 0.0 0.0 0.0 0.0 0.0 0.0 0.0006317134778270907 0.0 0.0 0.0 0.0 0.0 0.0 0.0 0.0 0.0 0.0 0.0 0.0 0.0 0.0 0.0 0.0 0.0 0.0 0.0 0.0 0.0 0.0 0.0 0.0 0.0 0.0005301527308883781 0.0 0.0 0.0 0.0 0.0 0.0 0.0005925047831607824 0.0 0.0 0.0 0.0 0.0 0.0 0.0 0.0 0.0004727175880675483 0.0 0.0 0.0 0.0 0.0 0.0 0.0 0.0 0.0 0.0 0.0 0.0005694400039235023 0.0 0.0 0.0 0.0 0.0 0.0 0.0 0.00783748631940367 0.0007134857518327869 0.0 0.0 0.0 0.0 0.0 0.0 0.0 0.0 0.0007010434494868379 0.0 0.00058468959120922 0.0 0.0 0.0 0.0 0.0 0.0 0.0 0.0 0.0 0.0 0.0 0.0 0.0 0.0 0.0 0.0 0.0 0.0 0.0 0.00793931607624673 0.0 0.0 0.0 0.0 0.0 0.0 0.0 0.0 0.0 0.0 0.0 0.0 0.0 0.0 0.0 0.0 0.0007371074532152706 0.0 0.0 0.0 0.0 0.0 0.0 0.0 0.0 0.0 0.0008113737718126614 0.0 0.0 0.0 0.0 0.0 0.0 0.0 0.0 0.0006382220597766137 0.0 0.0 0.0 0.0 0.0 0.0 0.0 0.0 0.0 0.0 0.0 0.0 0.0 0.0 0.0 0.0 0.0 0.0 0.0 0.0 0.0 0.0 0.0 0.0 0.0 0.0007108638389913377 0.0 0.0 0.0 0.0 0.0 0.0 0.0 0.0 0.0 0.0 0.0 0.0 0.0 0.0 0.0 0.0 0.0 0.0 0.0 0.0</DataArray>
</PointData><Points>
<DataArray type="Float64" Name="Points" format="ascii" NumberOfComponents="3">0.0153486 0.0102396 0.0123436 0.00526612 0.0143938 0.00668311 0.0015672 0.0131597 0.0146377 0.00999458 0.00113472 0.00944923 0.00928481 0.00176466 0.00149975 0.0121023 0.0090092 0.0146609 0.00111338 0.00184047 0.014653 0.011869 0.00174644 0.00644736 0.0107321 0.00258223 0.00698757 0.00671024 0.00902743 0.0146724 0.00608027 0.00738984 0.00687552 0.0118054 0.0144122 0.00708916 0.00240753 0.0142308 0.00635499 0.00987772 0.00370547 0.00736107 1.65985e-05 0.00438167 0.00213117 0.000541365 0.00928478 0.0146318 0.0142853 0.00662991 0.0133666 0.0094891 0.00201548 0.00499725 0.00999643 0.00677516 0.00402516 0.0122819 0.00905169 0.0114118 0.0129044 0.0115506 0.0130535 0.000828119 0.000136638 0.0129331 0.00420396 0.012976 0.00142036 0.00909208 0.00176237 0.00768661 0.00925546 0.0067989 0.00538431 0.0125551 0.0139975 0.00482362 0.0119244 0.0134355 0.011061 0.0126454 0.0135879 0.00618766 0.0114146 0.00291316 0.00823984 0.0106528 0.00156436 0.00818475 0.00204005 0.00923041 0.0146005 0.00046256 0.00301017 0.00820784 0.000864512 0.00590688 0.0129225 0.0019406 0.00598922 0.0146176 0.0110367 0.00388139 0.0093764 0.00050488 0.00703557 0.00624387 0.0017877 0.0114908 0.00242982 0.00694256 0.00385039 0.00917725 0.0134982 0.0109293 0.00812318 0.00700756 0.00491465 0.00805517 0.0124663 0.00509952 0.00370978 0.00976456 0.00882884 0.0077924 0.0116553 0.000465408 0.00574228 0.00668315 0.00144821 0.000633228 0.00375417 0.00460973 0.00861407 0.0141098 0.00640558 0.00961235 0.00103711 0.00407995 0.00675743 0.00620322 0.0125122 0.00738092 0.00227716 0.0118834 0.00668384 0.00600185 0.00240046 0.00142779 0.00836584 0.00148936 0.0137295 0.011373 0.0131125 0.00660351 0.00645977 0.00279255 0.0145948 0.0136838 0.00738808 0.0082535 0.0151704 0.00236019 0.0147477 0.0016377 0.00112179 0.00255957 0.011642 0.0101147 0.0101582 0.0118976 0.006135 0.0146558 0.000262572 0.00148328 0.00837752 0.00734129 0.011382 0.00870452 0.0127071 0.0105871 0.00696638 0.00452987 0.0152968 0.00757785 0.00256934 0.0132441 0.00969301 0.000925316 0.00957299 0.00233219 0.00201073 0.00553128 0.000628513 0.0130754 0.0139879 0.00842134 0.00920726 3.93217e-05 0.00390447 0.00767708 0.00217064 0.0147789 0.0101123 0.000629817 0.013238 0.00855049 0.00120549 0.00909799 0.00801698 0.00861241 0.0109109 0.0140345 0.0107244 0.0127216 0.0138727 0.00520246 0.0104578 0.000745156 0.00796273 0.00262699 0.00803858 0.00922626 0.00305022 0.00783985 0.0066119 0.00555275 0.00988321 0.000647694 0.000721953 0.00666077 0.00101672 0.00195043 0.00505049 0.00857716 0.0120261 0.0150284 0.0003116 0.0109042 0.0135183 0.00956019 0.00850375 0.0111573 0.00538703 0.0136602 0.0108841 0.00792292 0.00811984 0.00204015 0.001451 0.0052922 0.00327132 0.010941 0.0125152 0.00646263 0.00157699 0.006324 0.00119953 0.0145861 0.00942132 0.00259358 0.000125626 0.00259793 0.0130616 0.00611955 0.0112727 0.0145896 0.0101101 0.00380902 0.00275862 0.00453676 0.0146728 0.00847575 0.00784811 0.00603836 0.0051474 0.0116151 0.00696548 0.000264797 0.0114388 0.0130018 0.0150535 0.00691228 0.00304034 0.00457465 0.00780321 0.00632637 0.00375076 0.00721844 0.0123298 0.008596 0.00609581 0.00677496 0.0120936 0.00163847 0.00789071 0.00716873 0.00605124 0.00261354 0.000247721 0.00641811 0.0144308 0.00309402 0.00272585 0.00949494 0.000870692 0.0045641 0.0144644 0.0153188 0.0126625 0.0144407 0.013414 0.0044499 0.0121839 0.00644014 0.00214044 0.0119268 0.00554576 0.00846332 0.000839091 0.00434784 0.0103591 0.00771598 0.0120673 0.0035224 0.00302792 0.007218 0.0115391 0.00263729 0.00707673 0.0132177 0.0036433 0.000887011 0.0052705 0.00552041 0.000385644 0.0108322 0.00913127 0.002376 0.0146124 0.010657 0.0147707 0.00587993 0.0119649 0.00116653 0.000248928 0.00770986 0.00335451 0.0011388 0.0143883 0.00802149 0.0136317 0.0115733 0.0135467 0.00749125 0.0121126 0.00788563 0.0146637 0.00449433 0.00300475 0.0126469 0.00244603 0.00551038 0.000193278 0.0123506 0.00651061 0.015104 0.000918837 0.0104086 0.00643115 0.00240851 0.00803012 0.0112866 0.00712907 0.0126906 0.00931031 0.0130658 0.0136442 0.00698098 0.00135459 0.00614702 0.010572 0.0144763 3.46826e-05 0.00992712 0.00746553 0.00897495 5.40133e-05 0.00769147 0.00112265 0.00916302 0.00384325 0.00682598 0.00526733 0.00407929 0.00821564 0.0149291 0.0094341 0.00596955 0.000636167 0.010557 0.00460998 0.00467774 0.00415243 0.0103861 0.00503616 0.00827921 0.00767645 0.00737492 0.00744794 0.0108114 0.0152196 0.00816243 0.00214493 0.0132244 0.000893843 0.0103115 0.00653467 0.0131652 0.00062275 0.00519854 0.00349011 0.00668069 0.00477291 0.0144254 0.00356461 0.00530755 0.000971482 0.00923665 0.00322447 0.00599881 0.00605086 0.00375021 0.00726297 0.00765235 0.00244764 0.00835558 0.00553643 0.00358944 0.0135066 0.00499799 0.00368639 0.000931213 0.00966971 0.00944868 0.00105723 0.00473722 0.0122875 0.0144401 0.00285297 0.00377461 0.00600539 0.00256651 0.00804436 0.00550332 0.00595248 0.00634115 0.00815811 0.00438839 0.00714471 0.0035017 0.00375196 0.00413026 0.0024455 0.0130911 0.0119945 0.00623744 0.00466342 0.00579947 0.00941853 0.0149355 0.00386567 0.0110607 0.00620192 0.00233403 0.00964688 0.00989067 0.012604 0.0114439 0.00380763 0.00221863 0.00255163 0.0125627 0.0060441 0.0129981 0.00196709 0.00722748 0.013244 0.0139952 0.0114578 0.00464797 0.00710933 0.000980264 0.00497748 0.012425 0.000921857 0.0042645 0.012651 0.00128714 0.0111185 0.00834797 0.00664884 0.00350222 0.014064 0.0014028 0.00657433 0.00684089 0.0123963 0.014438 0.00702395 0.00555058 0.00961226 0.00766036 0.00370837 0.0122813 0.00847306 0.00419297 0.00816946 0.0113774 0.0041081 0.00693719 0.0117323 0.00697224 0.00105765 0.00958587 0.0089138 0.0143945 0.0100984 0.00381055 0.00100382 0.00163329 0.0104747 0.0125467 0.0123666 0.00559209 0.00981637 0.00565544 0.00874617 0.00810905 0.00488134 0.00885577 0.0144338 0.0102969 0.00103628 0.0066543 0.0121296 0.00687908 0.00849013 0.0112976 0.0117482 0.0125535 0.00362234 0.00198278 0.00545843 0.0081318 0.00824641 0.00117964 0.0124287 0.00428353 0.00841653 0.00367098 0.0105169 0.0144486 0.00896445 0.0107753 0.0124501 0.00173579 0.00459043 0.00196659 0.00224412 0.00415124 0.0130933 0.0152658 0.00947348 0.00526168 0.000130045 0.00557449 0.0102229 0.0138314 0.00570298 0.00285196 0.0134329 0.0140008 0.0141018 0.0115811 0.00163573 0.0027031 0.00788761 0.00294092 0.0104617 0.0108441 0.0049835 0.00356731 0.00598048 0.0117729 0.00414084 0.00492043 0.000104423 0.0144368 0.0120278 0.00678938 0.00352259 0.0142893 0.0124847 0.0128352 0.0144312 0.0153381 0.00507436 0.00689028 0.00576707 0.00664587 0.00885051 0.0121699 0.00319263 0.00910831 0.00145795 0.0120769 0.00292381 0.00703758 0.00710943 0.0103415 0.0127714 0.00535073 0.00769193 0.0147256 0.00248624 0.0109767 0.00849522 0.00220497 0.00427875 0.00866609 0.00487637 0.00791916 0.00791884 0.0144381 0.00343029 0.00738803 0.0144698 0.00121498 0.00673165 0.0114686 0.00775332 0.0131311 0.00764113 0.00670782 0.000474275 0.00877507 0.000188496 0.0110279 0.00247512 0.00952033 0.00803005 0.0127247 0.00393701 0.0147811 0.0057769 0.00988633 0.0106944 0.00255716 0.0114154 0.0120561 0.0102338 0.00405859 0.00332257 0.0114223 0.0140674 0.0133788 0.00723346 0.00671084 0.000918967 0.0144332 0.00717184 0.00733044 0.0116845 0.014388 0.00982033 0.0100191 0.0140814 0.00517734 0.000952969 0.0104887 0.000829647 0.00455374 0.00121221 0.00480609 0.011581 0.00976593 0.0105226 0.00743497 0.0112425 0.0114017 0.00650677 0.00920862 0.00535279 0.00456381 0.00125152 0.00885797 0.00931557 0.00277594 0.00784324 0.0111126 0.00207861 0.00313268 0.0113362 0.00247417 0.0119146 0.0136837 0.0143384 0.0109769 0.0143863 0.00980171 0.0073182 0.00695147 0.00346107 0.00893277 0.00689295 0.00013095 0.00386518 0.0128704 0.0131435 0.00727658 0.0144219 0.0116917 0.0111957 0.00100093 0.0121222 0.00273695 0.0123316 0.0063895 0.0066611 0.0144462 0.00699307 0.00771328 0.00456424 0.00179503 0.0141454 0.0132532 0.0031335 0.0131139 0.0122579 0.014561 0.00601959 0.0046736 0.00433469 0.00736447 0.00829755 0.0103367 0.0128286 0.00101671 0.013189 0.00300368 0.00590076 0.0125938 0.0106869 0.0116185 0.010242 0.0128323 0.00886896 0.0130167 0.0110777 0.00977267 0.00958862 0.00910755 0.0112324 0.00450527 0.0104941 0.00577002 0.0108053 0.00205166 0.000923876 0.00820679 0.000596175 0.000981926 0.000356429 0.00136864 0.00552862 0.0112089 0.00958091 0.00588379 0.00306455 0.0033865 0.000878683 0.0116835 0.00141944 0.013806 0.00601822 0.0147514 0.00474514 0.00488646 0.00345258 0.00558728 0.00631146 0.0119816 0.00996341 0.0109127 0.0085422 0.00990116 0.00554049 0.00130326 0.00760843 0.0105507 0.00651845 0.00943322 0.00224932 0.00530156 0.00686717 0.00631435 0.0105618 0.00761167 0.0125621 0.013166 0.0125539 0.0048922 0.0109588 0.0130586 0.0152112 0.0147564 0.0144539 0.00485064 0.0138416 0.0133341 0.0146456 0.00517135 0.00650049 0.00434051 0.00706233 0.00108022 0.0143623 0.0121269 0.00893026 0.0140587 0.00360548 0.00294147 0.0099428 0.0109526 0.00928911 0.00295719 0.00111458 0.00386686 0.0132134 0.00979868 0.00560001 0.0141406 0.00928317 0.0117879 0.00179232 0.0012124 0.00937196 0.00906767 0.00863574 0.00935665 0.0127709 0.0126568 0.00379471 0.0133204 0.00274453 0.00778056 0.00929695 0.014418 0.00133739 0.00432826 0.00166205 0.0106352 0.00644117 0.00915279 0.0111228 0.00800216 0.0129386 0.00100756 0.0129399 0.000237953 0.00813466 0.00984837 0.00503392 0.00629402 0.00129889 0.00838279 0.00733574 0.00963535 0.0109535 0.00558164 2.44753e-05 0.00194654 0.0131345 0.00117094 0.0126331 0.0122848 0.0151886 0.0112151 0.00609208 0.00784771 0.00882487 0.012719 0.00880932 0.00624958 0.00857866 0.000872929 0.0127286 0.00939715 0.0147171 0.00840553 0.00379187 0.0140686 0.013377 0.0052579 0.00459639 0.0135371 0.00448032 0.000245202 0.0122543 0.00759479 0.00672031 0.0135267 0.0129133 0.00772744 0.00945319 0.0082673 0.0146668 0.00341406 0.000937875 0.0103713 0.00800719 0.00515988 0.0139205 0.0122292 0.000876656 0.010051 0.00227449 0.00345823 0.0132932 0.000565661 0.0145338 0.000601735 0.0139655 0.0108949 0.01052 0.0145903 0.00600404 0.00412339 0.00110397 0.00886668 0.0123916 0.0106907 0.0144228 0.00243888 0.00287291 0.0145113 0.00122156 0.00192236 0.00388018 0.00297585 0.00146217 0.00093036 0.000114888 0.00744721 0.0100332 0.00242728 0.0148095 0.00469962 0.0139971 0.00243437 0.0118515 0.0149413 0.00312171 0.00681076 0.0091516 0.011314 0.000909802 0.0140043 0.0090488 0.0144704 0.0103964 0.0107681 0.0111436 0.00750539 0.00278551 0.00645921 0.000993703 0.00867188 0.0112546 0.0153355 0.0140726 0.0126842 0.000446424 0.0123726 0.00110564 0.000896318 0.00296225 0.00983093 0.00662621 0.0139323 0.0089874 0.0135283 0.0142585 0.0112482 0.00515661 0.000876717 0.0056449 0.00942635 0.013709 0.00395119 0.00613562 0.00809624 0.0131871 0.00735217 0.0118358 0.012505 0.00517395 0.00385498 0.0089787 0.0151626 0.0100646 0.000915504 0.00311871 0.0117482 0.00918001 0.00375373 0.00287977 0.0131896 0.00925443 0.00810723 0.00273991 0.000552867 0.0111559 0.0043247 0.000439489 0.0017736 0.0112538 0.0102891 0.00935576 0.00382494 0.00475659 0.00651099 0.0134744 0.00316184 0.000728348 0.00686216 0.00994371 0.000563877 0.00245812 0.00807308 0.0105261 0.0142541 0.0108194 0.00948687 0.0126905 0.000945682 0.0109312 0.0144409 0.00426029 0.0151013 0.0102759 0.00181124 0.0132134 0.00762017 0.00242491 0.00721216 0.000827314 0.00141266 0.0134246 0.00270396 0.00524378 0.00172016 0.0134735 0.00598849 0.0131524 0.00582001 0.00163745 0.00022795 0.0144584 0.0145975 0.00852935 0.0019473 0.00279072 0.00579316 0.0122552 0.0127292 0.00529555 0.00625836 0.00866282 0.00852882 0.0045189 0.00842177 0.00949936 0.00641444 0.00443221 0.0104068 0.00959159 0.0116886 0.00510188 0.0114819 0.00786231 0.00100995 0.0106685 0.00322545 0.0135731 0.0144265 0.00888491 0.000487458 0.00554631 0.00313377 0.00878054 0.00880823 0.0116697 0.00170435 0.00949332 0.00786535 0.00451558 0.00566684 0.00959845 0.0132834 0.00708136 0.00546281 0.00329967 0.00275441 0.00974463 0.00289627 0.00879783 0.0135902 0.00443037 0.00469132 0.0112689 0.00595494 0.00517181 0.00343631 0.0142537 0.00320013 0.0103664 0.00256296 0.0129538 0.00442375 0.00486337 0.0144517 0.0131083 0.0151519 0.00634209 0.0135321 0.00572351 0.00796562 0.00655556 0.0101564 0.0126873 0.000868167 0.00843389 0.000946112 0.014846 0.00858721 0.00869122 0.0131033 0.0129878 0.00998857 0.0064823 0.0113227 0.00590426 0.00636653 0.0142786 0.0145242 0.00902812 0.00014053 0.0144979 0.0140489 0.00182636 0.00464818 0.00709947 0.00449155 0.00233685 0.00227017 0.0120674 0.0108716 0.0133861 0.00745659 0.0048272 0.00450164 0.00479017 0.0125053 0.00708466 0.00667395 0.000893627 0.0098952 0.00751971 0.00091923 0.00872958 0.012477 0.014259 0.00983426 0.00183124 0.0144935 0.00486826 0.00127576 0.00103317 0.0111045 0.00763609 0.0144561 0.00625622 0.0101186 0.00942711 0.00137202 0.0131942 0.00461515 0.00402929 0.00277514 0.00746911 0.0103698 0.00270005 0.0108443 0.000446294 0.00635401 0.00134377 0.00314938 0.00890264 0.00298454 0.00587357 0.0122507 0.00114234 0.00422476 0.0111463 0.00309329 0.0134424 0.0107753 0.00239017 0.00292616 0.0147691 0.00856127 0.00167084 0.00224708 0.00704068 0.0123298 0.0132325 0.00179141 0.00259075 0.00997488 0.0105949 7.94774e-05 0.00343842 0.00472341 0.0141951 0.0149763 0.00108876 0.00444909 0.0118166 0.01119 0.0112575 0.0145841 0.00352793 0.00672808 0.00309407 0.00446567 0.012169 0.0123566 0.008173 0.0115829 0.00376957 0.0142467 0.00907101 0.00396551 0.00288193 0.0142318 0.00172902 0.00966919 0.0116988 7.09532e-05 0.0011701 0.00602912 0.00412609 0.0109517 0.011963 0.00756614 0.00648659 0.000102377 0.00660374 0.00801827 0.011678 0.0151357 0.0123851 0.00384937 0.0130422 0.00698835 3.89826e-05 0.0081579 0.0131157 0.00702203 0.00774524 0.00951469 0.00463773 0.0131935 0.00918635 0.00586722 0.013836 0.0110639 0.0147325 0.00148578 0.00250492 0.0113748 0.0111483 0.00431186 0.00911104 0.00703365 0.010864 0.00233194 0.00378077 0.00393233 0.0102229 0.0109504 0.0142293 0.00527029 0.0064194 0.0114068 0.00543637 0.00644766 0.00525081 0.0144972 0.0040673 0.00900414 0.00122558 0.0152343 0.00120664 0.00979045 0.0151005 0.0108447 0.00203847 0.00163647 0.0127775 0.00134192 0.00469062 0.00861409 0.00812002 0.0104816 0.0104423 0.000441058 0.0142181 0.00625604 0.0113114 0.0131876 0.0142523 0.00362933 0.01481 0.00113792 0.0099113 0.00454078 0.0124573 0.0149033 0.0128536 0.00328258 0.00831361 0.0127719 0.00968534 0.00883329 0.00559434 0.00116341 0.00627104 0.00766247 0.00255371 0.00453165 0.0101919 0.00106329 0.00210716 0.0103908 0.00796065 0.00860925 0.00366028 0.0142021 0.00912662 0.00472819 0.0101733 0.0131232 0.00808398 0.00997873 0.00621372 0.00910416 0.0060357 0.013544 0.00258217 0.0139382 0.0115988 0.00971266 0.00823224 0.00815076 0.012743 0.00551166 0.00346379 0.0152139 0.0123922 0.00118261 0.00257528 0.00142881 0.0140251 0.000389447 0.0125822 0.00437907 0.00514183 0.00691744 0.00298729 0.00479725 0.0103195 0.00758076 0.000102665 0.012649 0.0095243 0.0140859 0.0129982 0.0119893 0.0149699 0.00993372 0.0119794 0.00480724 0.00120932 0.00322235 0.00900388 0.012948 0.00695193 0.0100389 0.00119781 0.00100782 0.00713125 0.00444529 0.0124292 0.00901704 0.00372708 0.00222607 0.0068572 0.00922678 0.00216632 0.0101455 0.00111132 0.0142883 0.00822166 0.00666016 0.00706248 0.0150516 0.00675009 0.0150678 0.0116817 0.010994 0.00827758 0.0059851 0.013551 0.0139858 0.00493453 0.0142217 0.00527784 0.00552292 0.00227463 0.01353 0.0147092 0.00328388 0.00781505 0.0028999 0.00115365 0.0126495 0.0034564 0.010404 0.00303286 0.00596703 0.00502295 0.00807139 0.00149959 0.00315444 0.00191973 0.010102 0.00565831 0.00587002 0.0096328 0.00375021 0.011211 0.00300662 0.00507968 0.000642298 0.0152045 0.0036321 0.00549793 0.00117291 0.00348423 0.00312836 0.0120017 0.00494277 0.0114549 0.00729191 0.0115536 0.0146181 0.0146208 0.00931495 0.00249635 0.00648285 0.0027378 0.00470474 0.00835048 0.0101584 0.0126813 0.00893403 0.00108711 0.00792443 0.0105839 0.00442117 0.00550478 0.0141784 0.00255213 0.0129207 0.00223621 0.00117416</DataArray>
</Points><Verts>
<DataArray type="Int64" Name="connectivity" format="ascii">0 1 2 3 4 5 6 7 8 9 10 11 12 13 14 15 16 17 18 19 20 21 22 23 24 25 26 27 28 29 30 31 32 33 34 35 36 37 38 39 40 41 42 43 44 45 46 47 48 49 50 51 52 53 54 55 56 57 58 59 60 61 62 63 64 65 66 67 68 69 70 71 72 73 74 75 76 77 78 79 80 81 82 83 84 85 86 87 88 89 90 91 92 93 94 95 96 97 98 99 100 101 102 103 104 105 106 107 108 109 110 111 112 113 114 115 116 117 118 119 120 121 122 123 124 125 126 127 128 129 130 131 132 133 134 135 136 137 138 139 140 141 142 143 144 145 146 147 148 149 150 151 152 153 154 155 156 157 158 159 160 161 162 163 164 165 166 167 168 169 170 171 172 173 174 175 176 177 178 179 180 181 182 183 184 185 186 187 188 189 190 191 192 193 194 195 196 197 198 199 200 201 202 203 204 205 206 207 208 209 210 211 212 213 214 215 216 217 218 219 220 221 222 223 224 225 226 227 228 229 230 231 232 233 234 235 236 237 238 239 240 241 242 243 244 245 246 247 248 249 250 251 252 253 254 255 256 257 258 259 260 261 262 263 264 265 266 267 268 269 270 271 272 273 274 275 276 277 278 279 280 281 282 283 284 285 286 287 288 289 290 291 292 293 294 295 296 297 298 299 300 301 302 303 304 305 306 307 308 309 310 311 312 313 314 315 316 317 318 319 320 321 322 323 324 325 326 327 328 329 330 331 332 333 334 335 336 337 338 339 340 341 342 343 344 345 346 347 348 349 350 351 352 353 354 355 356 357 358 359 360 361 362 363 364 365 366 367 368 369 370 371 372 373 374 375 376 377 378 379 380 381 382 383 384 385 386 387 388 389 390 391 392 393 394 395 396 397 398 399 400 401 402 403 404 405 406 407 408 409 410 411 412 413 414 415 416 417 418 419 420 421 422 423 424 425 426 427 428 429 430 431 432 433 434 435 436 437 438 439 440 441 442 443 444 445 446 447 448 449 450 451 452 453 454 455 456 457 458 459 460 461 462 463 464 465 466 467 468 469 470 471 472 473 474 475 476 477 478 479 480 481 482 483 484 485 486 487 488 489 490 491 492 493 494 495 496 497 498 499</DataArray>
<DataArray type="Int64" Name="offsets" format="ascii">1 2 3 4 5 6 7 8 9 10 11 12 13 14 15 16 17 18 19 20 21 22 23 24 25 26 27 28 29 30 31 32 33 34 35 36 37 38 39 40 41 42 43 44 45 46 47 48 49 50 51 52 53 54 55 56 57 58 59 60 61 62 63 64 65 66 67 68 69 70 71 72 73 74 75 76 77 78 79 80 81 82 83 84 85 86 87 88 89 90 91 92 93 94 95 96 97 98 99 100 101 102 103 104 105 106 107 108 109 110 111 112 113 114 115 116 117 118 119 120 121 122 123 124 125 126 127 128 129 130 131 132 133 134 135 136 137 138 139 140 141 142 143 144 145 146 147 148 149 150 151 152 153 154 155 156 157 158 159 160 161 162 163 164 165 166 167 168 169 170 171 172 173 174 175 176 177 178 179 180 181 182 183 184 185 186 187 188 189 190 191 192 193 194 195 196 197 198 199 200 201 202 203 204 205 206 207 208 209 210 211 212 213 214 215 216 217 218 219 220 221 222 223 224 225 226 227 228 229 230 231 232 233 234 235 236 237 238 239 240 241 242 243 244 245 246 247 248 249 250 251 252 253 254 255 256 257 258 259 260 261 262 263 264 265 266 267 268 269 270 271 272 273 274 275 276 277 278 279 280 281 282 283 284 285 286 287 288 289 290 291 292 293 294 295 296 297 298 299 300 301 302 303 304 305 306 307 308 309 310 311 312 313 314 315 316 317 318 319 320 321 322 323 324 325 326 327 328 329 330 331 332 333 334 335 336 337 338 339 340 341 342 343 344 345 346 347 348 349 350 351 352 353 354 355 356 357 358 359 360 361 362 363 364 365 366 367 368 369 370 371 372 373 374 375 376 377 378 379 380 381 382 383 384 385 386 387 388 389 390 391 392 393 394 395 396 397 398 399 400 401 402 403 404 405 406 407 408 409 410 411 412 413 414 415 416 417 418 419 420 421 422 423 424 425 426 427 428 429 430 431 432 433 434 435 436 437 438 439 440 441 442 443 444 445 446 447 448 449 450 451 452 453 454 455 456 457 458 459 460 461 462 463 464 465 466 467 468 469 470 471 472 473 474 475 476 477 478 479 480 481 482 483 484 485 486 487 488 489 490 491 492 493 494 495 496 497 498 499 500</DataArray>
</Verts></Piece></PolyData></VTKFile>