<?xml version="1.0"?>
<VTKFile type="PolyData" version="0.1" byte_order="LittleEndian">
<PolyData>
<Piece NumberOfPoints="500" NumberOfVerts="500" NumberOfLines="0" NumberOfStrips="0" NumberOfPolys="0">
<PointData>
<DataArray type="Int64" Name="id" format="ascii">1 2 3 4 5 6 7 8 9 10 11 12 13 14 15 16 17 18 19 20 21 22 23 24 25 26 27 28 29 30 31 32 33 34 35 36 37 38 39 40 41 42 43 44 45 46 47 48 49 50 51 52 53 54 55 56 57 58 59 60 61 62 63 64 65 66 67 68 69 70 71 72 73 74 75 76 77 78 79 80 81 82 83 84 85 86 87 88 89 90 91 92 93 94 95 96 97 98 99 100 101 102 103 104 105 106 107 108 109 110 111 112 113 114 115 116 117 118 119 120 121 122 123 124 125 126 127 128 129 130 131 132 133 134 135 136 137 138 139 140 141 142 143 144 145 146 147 148 149 150 151 152 153 154 155 156 157 158 159 160 161 162 163 164 165 166 167 168 169 170 171 172 173 174 175 176 177 178 179 180 181 182 183 184 185 186 187 188 189 190 191 192 193 194 195 196 197 198 199 200 201 202 203 204 205 206 207 208 209 210 211 212 213 214 215 216 217 218 219 220 221 222 223 224 225 226 227 228 229 230 231 232 233 234 235 236 237 238 239 240 241 242 243 244 245 246 247 248 249 250 251 252 253 254 255 256 257 258 259 260 261 262 263 264 265 266 267 268 269 270 271 272 273 274 275 276 277 278 279 280 281 282 283 284 285 286 287 288 289 290 291 292 293 294 295 296 297 298 299 300 301 302 303 304 305 306 307 308 309 310 311 312 313 314 315 316 317 318 319 320 321 322 323 324 325 326 327 328 329 330 331 332 333 334 335 336 337 338 339 340 341 342 343 344 345 346 347 348 349 350 351 352 353 354 355 356 357 358 359 360 361 362 363 364 365 366 367 368 369 370 371 372 373 374 375 376 377 378 379 380 381 382 383 384 385 386 387 388 389 390 391 392 393 394 395 396 397 398 399 400 401 402 403 404 405 406 407 408 409 410 411 412 413 414 415 416 417 418 419 420 421 422 423 424 425 426 427 428 429 430 431 432 433 434 435 436 437 438 439 440 441 442 443 444 445 446 447 448 449 450 451 452 453 454 455 456 457 458 459 460 461 462 463 464 465 466 467 468 469 470 471 472 473 474 475 476 477 478 479 480 481 482 483 484 485 486 487 488 489 490 491 492 493 494 495 496 497 498 499 500</DataArray>
<DataArray type="Int32" Name="type" format="ascii">1 1 1 1 1 1 1 1 1 1 1 1 1 1 1 1 1 1 1 1 1 1 1 1 1 1 1 1 1 1 1 1 1 1 1 1 1 1 1 1 1 1 1 1 1 1 1 1 1 1 1 1 1 1 1 1 1 1 1 1 1 1 1 1 1 1 1 1 1 1 1 1 1 1 1 1 1 1 1 1 1 1 1 1 1 1 1 1 1 1 1 1 1 1 1 1 1 1 1 1 2 2 2 2 2 2 2 2 2 2 2 2 2 2 2 2 2 2 2 2 2 2 2 2 2 2 2 2 2 2 2 2 2 2 2 2 2 2 2 2 2 2 2 2 2 2 2 2 2 2 2 2 2 2 2 2 2 2 2 2 2 2 2 2 2 2 2 2 2 2 2 2 2 2 2 2 2 2 2 2 2 2 2 2 2 2 2 2 2 2 2 2 2 2 2 2 2 2 2 2 2 2 2 2 2 2 2 2 2 2 2 2 2 2 2 2 2 2 2 2 2 2 2 2 2 2 2 2 2 2 2 2 2 2 2 2 2 2 2 2 2 2 2 2 2 2 2 2 2 2 2 2 2 2 2 2 2 2 2 2 2 2 2 2 2 2 2 2 2 2 2 2 2 2 2 2 2 2 2 2 2 2 2 2 2 2 2 2 2 2 2 2 2 2 2 2 2 2 2 2 2 2 2 2 2 2 2 2 2 2 2 2 2 2 2 2 2 2 2 2 2 2 2 2 2 2 2 2 2 2 2 2 2 2 2 2 2 2 2 2 2 2 2 2 2 2 2 2 2 2 2 2 2 2 2 2 2 2 2 2 2 2 2 2 2 2 2 2 2 2 2 2 2 2 2 2 2 2 2 2 2 2 2 2 2 2 2 2 2 2 2 2 2 2 2 2 2 2 2 2 3 3 3 3 3 3 3 3 3 3 3 3 3 3 3 3 3 3 3 3 3 3 3 3 3 3 3 3 3 3 3 3 3 3 3 3 3 3 3 3 3 3 3 3 3 3 3 3 3 3 3 3 3 3 3 3 3 3 3 3 3 3 3 3 3 3 3 3 3 3 3 3 3 3 3 3 3 3 3 3 3 3 3 3 3 3 3 3 3 3 3 3 3 3 3 3 3 3 3 3</DataArray>
<DataArray type="Float64" Name="radius" format="ascii">0.00075 0.00075 0.00075 0.00075 0.00075 0.00075 0.00075 0.00075 0.00075 0.00075 0.00075 0.00075 0.00075 0.00075 0.00075 0.00075 0.00075 0.00075 0.00075 0.00075 0.00075 0.00075 0.00075 0.00075 0.00075 0.00075 0.00075 0.00075 0.00075 0.00075 0.00075 0.00075 0.00075 0.00075 0.00075 0.00075 0.00075 0.00075 0.00075 0.00075 0.00075 0.00075 0.00075 0.00075 0.00075 0.00075 0.00075 0.00075 0.00075 0.00075 0.00075 0.00075 0.00075 0.00075 0.00075 0.00075 0.00075 0.00075 0.00075 0.00075 0.00075 0.00075 0.00075 0.00075 0.00075 0.00075 0.00075 0.00075 0.00075 0.00075 0.00075 0.00075 0.00075 0.00075 0.00075 0.00075 0.00075 0.00075 0.00075 0.00075 0.00075 0.00075 0.00075 0.00075 0.00075 0.00075 0.00075 0.00075 0.00075 0.00075 0.00075 0.00075 0.00075 0.00075 0.00075 0.00075 0.00075 0.00075 0.00075 0.00075 0.001 0.001 0.001 0.001 0.001 0.001 0.001 0.001 0.001 0.001 0.001 0.001 0.001 0.001 0.001 0.001 0.001 0.001 0.001 0.001 0.001 0.001 0.001 0.001 0.001 0.001 0.001 0.001 0.001 0.001 0.001 0.001 0.001 0.001 0.001 0.001 0.001 0.001 0.001 0.001 0.001 0.001 0.001 0.001 0.001 0.001 0.001 0.001 0.001 0.001 0.001 0.001 0.001 0.001 0.001 0.001 0.001 0.001 0.001 0.001 0.001 0.001 0.001 0.001 0.001 0.001 0.001 0.001 0.001 0.001 0.001 0.001 0.001 0.001 0.001 0.001 0.001 0.001 0.001 0.001 0.001 0.001 0.001 0.001 0.001 0.001 0.001 0.001 0.001 0.001 0.001 0.001 0.001 0.001 0.001 0.001 0.001 0.001 0.001 0.001 0.001 0.001 0.001 0.001 0.001 0.001 0.001 0.001 0.001 0.001 0.001 0.001 0.001 0.001 0.001 0.001 0.001 0.001 0.001 0.001 0.001 0.001 0.001 0.001 0.001 0.001 0.001 0.001 0.001 0.001 0.001 0.001 0.001 0.001 0.001 0.001 0.001 0.001 0.001 0.001 0.001 0.001 0.001 0.001 0.001 0.001 0.001 0.001 0.001 0.001 0.001 0.001 0.001 0.001 0.001 0.001 0.001 0.001 0.001 0.001 0.001 0.001 0.001 0.001 0.001 0.001 0.001 0.001 0.001 0.001 0.001 0.001 0.001 0.001 0.001 0.001 0.001 0.001 0.001 0.001 0.001 0.001 0.001 0.001 0.001 0.001 0.001 0.001 0.001 0.001 0.001 0.001 0.001 0.001 0.001 0.001 0.001 0.001 0.001 0.001 0.001 0.001 0.001 0.001 0.001 0.001 0.001 0.001 0.001 0.001 0.001 0.001 0.001 0.001 0.001 0.001 0.001 0.001 0.001 0.001 0.001 0.001 0.001 0.001 0.001 0.001 0.001 0.001 0.001 0.001 0.001 0.001 0.001 0.001 0.001 0.001 0.001 0.001 0.001 0.001 0.001 0.001 0.001 0.001 0.001 0.001 0.001 0.001 0.001 0.001 0.001 0.001 0.001 0.001 0.001 0.001 0.001 0.001 0.001 0.001 0.001 0.001 0.001 0.001 0.001 0.001 0.001 0.001 0.001 0.001 0.001 0.001 0.001 0.001 0.001 0.001 0.001 0.001 0.001 0.001 0.001 0.001 0.001 0.001 0.001 0.001 0.001 0.001 0.001 0.001 0.001 0.001 0.001 0.001 0.001 0.001 0.001 0.001 0.001 0.001 0.00125 0.00125 0.00125 0.00125 0.00125 0.00125 0.00125 0.00125 0.00125 0.00125 0.00125 0.00125 0.00125 0.00125 0.00125 0.00125 0.00125 0.00125 0.00125 0.00125 0.00125 0.00125 0.00125 0.00125 0.00125 0.00125 0.00125 0.00125 0.00125 0.00125 0.00125 0.00125 0.00125 0.00125 0.00125 0.00125 0.00125 0.00125 0.00125 0.00125 0.00125 0.00125 0.00125 0.00125 0.00125 0.00125 0.00125 0.00125 0.00125 0.00125 0.00125 0.00125 0.00125 0.00125 0.00125 0.00125 0.00125 0.00125 0.00125 0.00125 0.00125 0.00125 0.00125 0.00125 0.00125 0.00125 0.00125 0.00125 0.00125 0.00125 0.00125 0.00125 0.00125 0.00125 0.00125 0.00125 0.00125 0.00125 0.00125 0.00125 0.00125 0.00125 0.00125 0.00125 0.00125 0.00125 0.00125 0.00125 0.00125 0.00125 0.00125 0.00125 0.00125 0.00125 0.00125 0.00125 0.00125 0.00125 0.00125 0.00125</DataArray>
<DataArray type="Float64" Name="diameter" format="ascii">0.0015 0.0015 0.0015 0.0015 0.0015 0.0015 0.0015 0.0015 0.0015 0.0015 0.0015 0.0015 0.0015 0.0015 0.0015 0.0015 0.0015 0.0015 0.0015 0.0015 0.0015 0.0015 0.0015 0.0015 0.0015 0.0015 0.0015 0.0015 0.0015 0.0015 0.0015 0.0015 0.0015 0.0015 0.0015 0.0015 0.0015 0.0015 0.0015 0.0015 0.0015 0.0015 0.0015 0.0015 0.0015 0.0015 0.0015 0.0015 0.0015 0.0015 0.0015 0.0015 0.0015 0.0015 0.0015 0.0015 0.0015 0.0015 0.0015 0.0015 0.0015 0.0015 0.0015 0.0015 0.0015 0.0015 0.0015 0.0015 0.0015 0.0015 0.0015 0.0015 0.0015 0.0015 0.0015 0.0015 0.0015 0.0015 0.0015 0.0015 0.0015 0.0015 0.0015 0.0015 0.0015 0.0015 0.0015 0.0015 0.0015 0.0015 0.0015 0.0015 0.0015 0.0015 0.0015 0.0015 0.0015 0.0015 0.0015 0.0015 0.002 0.002 0.002 0.002 0.002 0.002 0.002 0.002 0.002 0.002 0.002 0.002 0.002 0.002 0.002 0.002 0.002 0.002 0.002 0.002 0.002 0.002 0.002 0.002 0.002 0.002 0.002 0.002 0.002 0.002 0.002 0.002 0.002 0.002 0.002 0.002 0.002 0.002 0.002 0.002 0.002 0.002 0.002 0.002 0.002 0.002 0.002 0.002 0.002 0.002 0.002 0.002 0.002 0.002 0.002 0.002 0.002 0.002 0.002 0.002 0.002 0.002 0.002 0.002 0.002 0.002 0.002 0.002 0.002 0.002 0.002 0.002 0.002 0.002 0.002 0.002 0.002 0.002 0.002 0.002 0.002 0.002 0.002 0.002 0.002 0.002 0.002 0.002 0.002 0.002 0.002 0.002 0.002 0.002 0.002 0.002 0.002 0.002 0.002 0.002 0.002 0.002 0.002 0.002 0.002 0.002 0.002 0.002 0.002 0.002 0.002 0.002 0.002 0.002 0.002 0.002 0.002 0.002 0.002 0.002 0.002 0.002 0.002 0.002 0.002 0.002 0.002 0.002 0.002 0.002 0.002 0.002 0.002 0.002 0.002 0.002 0.002 0.002 0.002 0.002 0.002 0.002 0.002 0.002 0.002 0.002 0.002 0.002 0.002 0.002 0.002 0.002 0.002 0.002 0.002 0.002 0.002 0.002 0.002 0.002 0.002 0.002 0.002 0.002 0.002 0.002 0.002 0.002 0.002 0.002 0.002 0.002 0.002 0.002 0.002 0.002 0.002 0.002 0.002 0.002 0.002 0.002 0.002 0.002 0.002 0.002 0.002 0.002 0.002 0.002 0.002 0.002 0.002 0.002 0.002 0.002 0.002 0.002 0.002 0.002 0.002 0.002 0.002 0.002 0.002 0.002 0.002 0.002 0.002 0.002 0.002 0.002 0.002 0.002 0.002 0.002 0.002 0.002 0.002 0.002 0.002 0.002 0.002 0.002 0.002 0.002 0.002 0.002 0.002 0.002 0.002 0.002 0.002 0.002 0.002 0.002 0.002 0.002 0.002 0.002 0.002 0.002 0.002 0.002 0.002 0.002 0.002 0.002 0.002 0.002 0.002 0.002 0.002 0.002 0.002 0.002 0.002 0.002 0.002 0.002 0.002 0.002 0.002 0.002 0.002 0.002 0.002 0.002 0.002 0.002 0.002 0.002 0.002 0.002 0.002 0.002 0.002 0.002 0.002 0.002 0.002 0.002 0.002 0.002 0.002 0.002 0.002 0.002 0.002 0.002 0.002 0.002 0.002 0.002 0.002 0.002 0.002 0.002 0.002 0.002 0.0025 0.0025 0.0025 0.0025 0.0025 0.0025 0.0025 0.0025 0.0025 0.0025 0.0025 0.0025 0.0025 0.0025 0.0025 0.0025 0.0025 0.0025 0.0025 0.0025 0.0025 0.0025 0.0025 0.0025 0.0025 0.0025 0.0025 0.0025 0.0025 0.0025 0.0025 0.0025 0.0025 0.0025 0.0025 0.0025 0.0025 0.0025 0.0025 0.0025 0.0025 0.0025 0.0025 0.0025 0.0025 0.0025 0.0025 0.0025 0.0025 0.0025 0.0025 0.0025 0.0025 0.0025 0.0025 0.0025 0.0025 0.0025 0.0025 0.0025 0.0025 0.0025 0.0025 0.0025 0.0025 0.0025 0.0025 0.0025 0.0025 0.0025 0.0025 0.0025 0.0025 0.0025 0.0025 0.0025 0.0025 0.0025 0.0025 0.0025 0.0025 0.0025 0.0025 0.0025 0.0025 0.0025 0.0025 0.0025 0.0025 0.0025 0.0025 0.0025 0.0025 0.0025 0.0025 0.0025 0.0025 0.0025 0.0025 0.0025</DataArray>
<DataArray type="Float64" Name="conductivity" format="ascii">1.0 1.0 1.0 1.0 1.0 1.0 1.0 1.0 1.0 1.0 1.0 1.0 1.0 1.0 1.0 10.0 1.0 10.0 1.0 1.0 10.0 1.0 1.0 1.0 1.0 1.0 1.0 1.0 1.0 1.0 1.0 10.0 1.0 1.0 1.0 1.0 1.0 1.0 1.0 1.0 10.0 1.0 1.0 1.0 1.0 1.0 1.0 1.0 10.0 1.0 1.0 1.0 1.0 1.0 1.0 1.0 1.0 1.0 1.0 1.0 1.0 1.0 1.0 1.0 1.0 1.0 1.0 1.0 1.0 1.0 10.0 1.0 1.0 1.0 1.0 1.0 1.0 1.0 1.0 1.0 10.0 1.0 1.0 1.0 1.0 1.0 1.0 10.0 1.0 1.0 1.0 1.0 1.0 10.0 1.0 1.0 1.0 1.0 1.0 1.0 1.0 1.0 1.0 1.0 1.0 1.0 1.0 10.0 1.0 1.0 1.0 1.0 1.0 1.0 1.0 1.0 10.0 1.0 10.0 1.0 1.0 1.0 1.0 1.0 1.0 1.0 1.0 1.0 1.0 1.0 1.0 1.0 10.0 1.0 1.0 1.0 1.0 1.0 1.0 1.0 1.0 1.0 1.0 1.0 1.0 1.0 10.0 1.0 1.0 1.0 1.0 1.0 1.0 1.0 1.0 1.0 1.0 1.0 1.0 1.0 1.0 10.0 1.0 1.0 1.0 1.0 1.0 1.0 1.0 1.0 1.0 1.0 1.0 1.0 1.0 1.0 1.0 1.0 1.0 1.0 1.0 1.0 1.0 1.0 1.0 1.0 1.0 10.0 1.0 1.0 1.0 1.0 1.0 1.0 10.0 1.0 1.0 1.0 1.0 1.0 1.0 10.0 1.0 1.0 1.0 1.0 1.0 1.0 1.0 1.0 1.0 1.0 1.0 1.0 1.0 10.0 1.0 1.0 1.0 1.0 1.0 1.0 1.0 1.0 1.0 10.0 1.0 1.0 1.0 1.0 1.0 1.0 1.0 1.0 1.0 1.0 1.0 1.0 1.0 1.0 1.0 1.0 1.0 1.0 1.0 1.0 10.0 1.0 1.0 1.0 1.0 1.0 1.0 1.0 1.0 1.0 1.0 1.0 1.0 1.0 1.0 1.0 1.0 1.0 1.0 1.0 1.0 1.0 1.0 1.0 1.0 1.0 1.0 1.0 1.0 1.0 1.0 1.0 10.0 1.0 10.0 1.0 1.0 1.0 1.0 1.0 1.0 1.0 1.0 1.0 1.0 1.0 1.0 1.0 10.0 1.0 1.0 1.0 10.0 1.0 1.0 1.0 1.0 10.0 1.0 1.0 1.0 1.0 1.0 1.0 1.0 1.0 1.0 1.0 1.0 1.0 1.0 1.0 1.0 1.0 1.0 1.0 10.0 10.0 10.0 10.0 1.0 1.0 1.0 1.0 1.0 1.0 1.0 10.0 1.0 1.0 1.0 1.0 1.0 1.0 10.0 1.0 1.0 1.0 1.0 1.0 1.0 10.0 1.0 1.0 1.0 1.0 1.0 10.0 1.0 10.0 1.0 1.0 1.0 10.0 1.0 1.0 1.0 1.0 1.0 1.0 1.0 1.0 1.0 1.0 1.0 10.0 1.0 1.0 1.0 1.0 1.0 10.0 1.0 1.0 1.0 1.0 1.0 1.0 10.0 1.0 1.0 1.0 1.0 1.0 1.0 1.0 1.0 1.0 1.0 1.0 1.0 1.0 1.0 1.0 1.0 1.0 10.0 1.0 1.0 1.0 1.0 1.0 1.0 1.0 1.0 10.0 1.0 1.0 10.0 1.0 1.0 1.0 10.0 1.0 1.0 1.0 1.0 1.0 1.0 1.0 1.0 1.0 1.0 1.0 1.0 1.0 10.0 10.0 1.0 1.0 1.0 10.0 1.0 1.0 1.0 1.0 1.0 10.0 1.0 1.0 1.0 1.0 1.0 1.0 1.0 1.0 1.0 1.0 1.0 1.0 1.0 1.0 1.0 1.0 1.0 1.0 1.0 1.0 1.0 1.0 1.0 1.0 1.0 1.0 1.0 1.0 1.0 1.0 1.0 10.0 1.0 1.0 1.0 1.0 1.0 1.0 1.0 1.0 1.0 1.0 1.0 1.0 1.0 1.0 1.0 1.0 1.0 1.0 1.0 1.0 1.0 1.0 1.0 10.0</DataArray>
<DataArray type="Float64" Name="temperature" format="ascii">300.26513643296323 300.1471618464029 300.8603934877533 nan 300.81437068061507 300.1447082896601 300.5566779541448 300.6011350776354 300.8415578338928 300.79455421233735 300.31656384784367 300.9573238055661 300.1304970553485 300.96966826594166 300.9239830720768 300.9181902600494 300.6641123601935 300.744542889159 300.05751700524934 300.06601501523403 300.81636545581785 300.30780574826963 300.2875088691726 300.17513850154705 300.4497112459534 300.5205283621031 300.16399904214074 300.84965225514827 300.95963880202015 300.5168011029762 300.2131493530401 300.11426572517274 300.356529169522 300.95835998228847 300.85867668308003 300.0386392913136 300.5509387888255 300.9679876994628 300.6812153574093 300.6522409472042 300.65713397729877 300.18296572287386 300.2854981586192 300.0513831995865 300.8727700529874 300.6611774423643 300.3451130860965 300.2719435498308 300.0111041978865 300.1956201374041 nan 300.2291289109412 300.16410607546703 300.10852178611503 300.25135345971177 300.02864276292456 300.58005812650794 300.8243390250555 300.9604570600625 300.1707736001754 300.8587356777624 300.4931179250387 300.85939286927953 300.32415977165783 300.2030477436021 nan 300.588810550709 300.4387299084616 300.94003523148507 300.9633280642639 300.0372548459842 300.64447667462673 300.06601501523403 300.633697437456 300.56257073877384 300.188937241182 300.94629065296823 300.5029698023513 nan 300.7347684998499 300.9810683122629 300.74976965650126 300.7110009187514 300.5000941198511 300.04225927287297 300.1447082896601 300.737074827043 300.63462011708975 300.24915392635523 300.5001519586656 300.042422478749 300.84260516516883 300.2890838511456 300.972367805945 300.68642750642994 300.7858576575787 300.7663843655747 300.0578416579582 300.6069664839307 nan 300.04213202752385 300.0805209882866 300.85610029167617 300.0619938637161 300.8630137716314 300.7878695809571 300.73405537489265 300.7624057035271 300.3289913873954 300.12737648807865 300.41695075295354 300.05236680795275 300.9571960845693 300.7069872317021 300.5677678017681 300.78885579877584 300.7211136390938 300.3378668655786 300.9582385093892 300.6846272158482 300.18020862483854 300.7425939401984 300.5031740515271 300.0972916979456 300.34739667503595 300.2561195084994 300.0525875383146 300.3991470105157 300.3312846192935 300.4552863666523 300.4918600980918 300.6930929279377 300.9654919382376 300.41458475901175 300.5251462177424 300.902819630352 300.1247040191772 300.7859878280586 300.5220207584859 300.0361474783666 300.55325229936375 300.86352063182767 300.50105465283923 300.20681349503286 300.9555475519888 300.5440909981763 300.9740428561474 300.28699854818035 300.9416538597839 300.4701619757254 300.5029698023513 300.03294580454315 300.7385390102839 300.48925111324655 300.84139521800313 300.3017070851665 300.14091551505277 300.4530711895523 300.0603146308928 300.47150947143285 300.28799812005354 300.1413658776646 300.95314204134456 300.1675233266182 300.9510882552639 300.26607619522383 300.61839409519666 300.53182071579266 300.7865628691809 300.3424588711211 300.0692940665566 300.41317455186174 300.6500359443176 300.2853564534521 300.5737532834378 300.84145253359134 300.56708196845045 300.8053241944588 300.6072841523969 300.34306672590714 300.0601353733461 300.9465738877184 300.63791091496705 300.96201591249684 300.91340315929847 300.8343275185501 300.90047891799725 300.1890772748905 300.3995648766252 300.78836740263375 300.13134354167596 300.9261379929026 300.49074445482836 300.1363823662133 300.5502776267558 300.55166346974113 300.1090127580952 300.7924032064112 300.4842478902512 300.43705820267917 300.25665677766625 300.57055373083006 300.7782524536287 300.15802474850346 300.3343530791558 300.67663525406545 300.31765013290374 300.13948740451906 300.06226754232176 300.54656527138036 300.38061094042865 300.5816822507743 300.2438539990331 300.8062936245979 300.2422672216785 300.90140630824584 300.1565989649873 300.25061951411044 300.6449112874127 300.76738483986026 300.17875282498983 300.43686784589335 300.5738694713008 300.8534477456824 300.4598378547925 300.0452814872015 300.1700104365262 300.8395311477184 300.9394420560886 300.34556736288425 300.05666375903263 300.8814343366608 300.5544530150298 300.2843444840219 300.23832931566847 300.5317306622765 300.22923868064464 300.2952358530647 300.6238332018661 300.28536525780123 300.9494497181268 300.0723715712951 300.25148952449103 300.88704109707436 300.6389133852386 300.9418749624025 300.5519754809036 300.83332582075855 300.93972584895204 300.32366509073046 300.05144961120794 300.95655370947156 300.41912941541494 nan 300.3419943913004 300.18723276041277 300.6663615174089 300.21886194479345 300.30679539033315 300.8856707207831 300.51152698409425 300.07163725343605 300.78553125323754 300.90854608147185 300.0674632308704 300.1231807751728 300.60105324483436 300.1231098727103 300.78185312959516 300.0610123951932 300.9358985174951 300.11342708255165 300.59752911286665 300.22437426973926 300.49074445482836 300.2406612161761 300.93820551273814 300.4821133861661 300.40352246417694 300.9382527089951 300.9520458311226 300.3333381324758 300.0534681143462 300.89325651725244 300.12662095194713 300.71219461514613 300.16862401997025 300.8248826477625 300.7947673934754 300.4422530970262 300.9159308451942 300.1809613805367 300.699222881539 300.6582151759503 300.1212630798858 300.8307807634876 300.5812857818165 300.07299028376485 300.3554247122421 300.2492815409208 300.04500977348494 300.3597584505497 300.4998141686589 300.2550188442433 300.67138479511505 300.6234783859613 300.69141597647445 300.18553519331624 300.93861883254516 300.7693573185754 300.50358769771924 300.3986136407668 300.8164886922325 300.15494224906666 nan 300.61881987682574 300.06366369637914 300.5050854887381 300.23194415927827 300.3537519779851 300.2205007729892 300.45790046516936 300.0358635444847 300.4613129567144 300.04571167618 300.1741393175497 300.2846981394748 300.39233342314236 300.9462269664909 300.14327169843176 300.07604770878316 300.72321897399866 300.2380820602597 300.57547079935324 300.4473621352731 300.7842462827059 300.3869522460425 300.7294809245793 300.6280066222738 300.9303877610474 300.95363860475356 300.5592751139402 300.2465053944306 300.1726434530194 300.0995084759976 300.78710376981667 300.1833652170376 300.86965914061756 300.62267586809173 300.9427680009611 300.0993598497386 300.0823623221732 300.17178979382476 300.4638102327347 300.9386543108183 300.7024440821182 300.42994609169625 300.31150911831537 300.4508965073669 300.9064323317675 300.57257376080594 300.73572798517444 300.06687796314003 300.9505098324465 300.5438738902852 300.78934490323167 300.1908781230643 300.6880073385232 300.90083136961266 300.156027133767 300.40786217279043 300.06393850141757 300.3798867700518 300.794887101684 300.1877017350436 300.23590700817186 300.3161086171142 300.27259763523665 300.7088242693076 300.6716488622342 300.0682654015339 300.20146185647707 300.9325116022523 300.96835329222796 300.1742036434987 300.29778029316003 300.529893431026 300.42346753456536 300.131841216185 300.2152827253501 300.784210537016 300.8660125617269 300.793217210365 300.34175934008715 300.0464735054685 300.0468372478796 300.3634469576279 300.4763248012508 300.54217294709645 300.0514167941801 300.13543350050827 300.9326653658208 300.48596494298323 300.3752245157882 300.6096817617124 300.9762636754355 300.2382371570715 300.31858557063794 300.1194537487811 300.29800734799045 300.1666145087418 300.818730442706 300.73187718627804 300.7642454567896 300.04864933060185 300.57643918568084 300.2330672601222 300.94420145055716 300.212213788211 300.2528382911921 300.64364496057095 300.4593226467314 300.2473854157998 300.5487847983312 300.195269216659 300.7141300961326 300.7796272973706 300.5649719525057 300.8356063481758 300.8386059521704 300.15243472382343 300.6390674523942 300.2707144656348 300.6611525055901 300.438230498213 300.5791907690259 300.81955506397213 300.35850374629854 300.40286578297537 300.77220265009925 300.8512384069459 300.3511953769102 300.23513629672664 300.84727875380275 300.48191571440736 300.26109636065587 300.89440545089326 300.5505809501177 300.93484293592877 300.72374923369375 300.4982790339329 300.6554760471381 300.19051920947953 300.39058403261095 300.46527753996656 300.55892397113325 300.75315371348086 300.15537557984123 300.0734370824457 300.6471972418559 300.2443122075207 300.12197529670163 300.7583366253771 300.7947152684812 300.6510103245261 300.1846179718778 300.12635718134345 300.3665730095961 300.08045721421183 300.3657958999722 300.874368630743 300.9437216208307 300.5078154684495 300.9454795191016 300.3245899014041 300.59833041792774 300.31435549016766 300.8248837479808 300.69083716646486 300.3102785897722 300.44162786704226 300.6679011861109 300.9269751061608 300.63991625235246 300.56257073877384 300.92459054662265 300.59342741487103 300.4095370750678 300.37182276558656 300.8023771093615 300.26256756647143 300.5915552714198 300.32418646661245 300.1561872915159 300.45363309614726 300.39780823995676 300.49212346273805 300.23542298850083 300.7402449858719 300.1449926131016</DataArray>
<DataArray type="Float64" Name="g_hot" format="ascii">0.0 0.0 0.0 0.0 0.0 0.0 0.0 0.0 0.0 0.0 0.0 0.00042377942375721855 0.0 0.00048630545956219746 0.0 0.0 0.0 0.0 0.0 0.0 0.0 0.0 0.0 0.0 0.0 0.0 0.0 0.0 0.0005285877410610278 0.0 0.0 0.0 0.0 0.0004108211289600378 0.0 0.0 0.0 0.00035784773298150145 0.0 0.0 0.0 0.0 0.0 0.0 0.0 0.0 0.0 0.0 0.0 0.0 0.0 0.0 0.0 0.0 0.0 0.0 0.0 0.0 0.00037217737706636615 0.0 0.0 0.0 0.0 0.0 0.0 0.0 0.0 0.0 0.0006310847803583922 0.0006857718279427934 0.0 0.0 0.0 0.0 0.0 0.0 0.00028119566141745486 0.0 0.0 0.0 0.007324527288501286 0.0 0.0 0.0 0.0 0.0 0.0 0.0 0.0 0.0 0.0 0.0 0.0 0.005792408825350641 0.0 0.0 0.0 0.0 0.0 0.0 0.0 0.0 0.0 0.0 0.0 0.0 0.0 0.0 0.0 0.0 0.0 0.0 0.0006367291417863644 0.0 0.0 0.0 0.0 0.0 0.005444814046411504 0.0 0.0 0.0 0.0 0.0 0.0 0.0 0.0 0.0 0.0 0.0 0.0 0.0 0.004109598520537016 0.0 0.0 0.0 0.0 0.0 0.0 0.0 0.0 0.0 0.0 0.0 0.00034789078746066276 0.0 0.006626039541083347 0.0 0.0003122627099094608 0.0 0.0 0.0 0.0 0.0 0.0 0.0 0.0 0.0 0.0 0.0 0.0 0.0 0.0004410940942701454 0.0 0.0005450651337225673 0.0 0.0 0.0 0.0 0.0 0.0 0.0 0.0 0.0 0.0 0.0 0.0 0.0 0.0 0.0 0.0 0.00021786234185833877 0.0 0.0002903446228191592 0.0 0.0 0.0 0.0 0.0 0.0 0.0 0.00027448861542876376 0.0 0.0 0.0 0.0 0.0 0.0 0.0 0.0 0.0 0.0 0.0 0.0 0.0 0.0 0.0 0.0 0.0 0.0 0.0 0.0 0.0 0.0 0.0 0.0 0.0 0.0 0.0 0.0 0.0 0.0 0.0 0.0 0.0 0.0 0.0 0.0 0.0005929114605065414 0.0 0.0 0.0 0.0 0.0 0.0 0.0 0.0 0.0 0.0 0.0 0.000598952418811378 0.0 0.0 0.0 0.0 0.0005456519036895228 0.0 0.0 0.00068523280715389 0.0 0.0 0.00031789306378088837 0.0 0.0 0.0 0.0 0.0 0.0 0.0 0.0 0.0 0.0 0.0 0.0 0.0 0.0 0.0 0.0 0.0 0.0 0.0005193804000922636 0.0 0.0 0.0 0.0 0.0 0.0005210259110639316 0.0 0.0 0.0005531039685267138 0.008357056898214827 0.0 0.0 0.0 0.0 0.0 0.0 0.0 0.0 0.0 0.0 0.0 0.0 0.0 0.0 0.0 0.0 0.0 0.0 0.0 0.0 0.0 0.0 0.0 0.0 0.0 0.0 0.0 0.0003884533434017529 0.0 0.0 0.0 0.0 0.0 0.0 0.0 0.0 0.0 0.0 0.0 0.0 0.0 0.0 0.0 0.0 0.0 0.0 0.0 0.0005252580318281672 0.0 0.0 0.0 0.0 0.0 0.0 0.0 0.0 0.0 0.0 0.0004675767316708566 0.00570918558114903 0.0 0.0 0.0 0.0 0.0 0.0 0.0 0.0 0.0004630550723186173 0.0 0.0 0.0 0.0 0.00045391629184244996 0.0 0.0 0.0 0.0 0.0 0.0 0.0 0.0 0.0003111848325352633 0.0 0.0 0.0 0.0 0.0 0.0 0.0 0.0 0.0 0.0 0.0 0.0 0.0 0.0 0.0 0.0 0.0 0.0 0.0002716468295415952 0.0002459512146747799 0.0 0.0 0.0 0.0 0.0 0.0 0.0 0.0 0.0 0.0 0.0 0.0 0.0 0.0 0.0 0.0 0.0 0.00078679730553682 0.0 0.0 0.0 0.0002448468909339072 0.0 0.0 0.0 0.0 0.0 0.0 0.0 0.0 0.0 0.0 0.0 0.000889044430835715 0.0 0.0 0.0 0.0 0.0 0.0 0.0 0.0 0.0 0.0 0.0 0.0 0.0 0.0 0.0 0.0 0.0 0.0 0.0 0.0 0.0 0.0 0.0 0.0 0.0 0.0 0.0 0.0 0.0 0.0 0.00012806248474865769 0.0 0.0 0.0 0.0 0.0 0.0 0.0 0.0 0.0 0.0 0.0 0.0 0.0 0.0 0.0 0.0 0.0 0.0 0.0 0.0 0.0 0.0 0.0009051519209502901 0.0 0.0004039801975344832 0.0 0.0 0.0 0.0 0.0 0.0 0.0 0.0 0.0007086254299698822 0.0 0.0 0.0006518818911428667 0.0 0.0 0.0 0.0 0.0 0.0 0.0 0.0 0.0 0.0 0.0 0.0 0.0 0.0</DataArray>
<DataArray type="Float64" Name="g_cold" format="ascii">0.0 0.0 0.0 0.0 0.0 0.0 0.0 0.0 0.0 0.0 0.0 0.0 0.0 0.0 0.0 0.0 0.0 0.0 0.0 0.0 0.0 0.0 0.0 0.0 0.0 0.0 0.0 0.0 0.0 0.0 0.0 0.0 0.0 0.0 0.0 0.00037093993927764994 0.0 0.0 0.0 0.0 0.0 0.0 0.0 0.0007280085429109349 0.0 0.0 0.0 0.0 0.0065581738201369935 0.0 0.0 0.0 0.0 0.0 0.0 0.0003569263769341021 0.0 0.0 0.0 0.0 0.0 0.0 0.0 0.0 0.0 0.0 0.0 0.0 0.0 0.0 0.003028141980675665 0.0 0.0 0.0 0.0 0.0 0.0 0.0 0.0 0.0 0.0 0.0 0.0 0.0 0.0005549742683686373 0.0 0.0 0.0 0.0 0.0 0.0003125642950679175 0.0 0.0 0.0 0.0 0.0 0.0 0.00035439587829333603 0.0 0.0 0.0003547702327822855 0.0 0.0 0.0006405169147402753 0.0 0.0 0.0 0.0 0.0 0.0 0.0 0.0005877600854671891 0.0 0.0 0.0 0.0 0.0 0.0 0.0 0.0 0.0 0.0 0.0 0.0 0.0 0.0 0.0003102610482616313 0.0 0.0 0.0 0.0 0.0 0.0 0.0 0.0 0.0 0.0 0.0 0.0 0.0005788453317324099 0.0 0.0 0.0 0.0 0.0 0.0 0.0 0.0 0.0 0.0 0.0 0.0006259887523497522 0.0 0.0 0.0 0.0 0.0 0.0 0.0002840104189433933 0.0 0.0 0.0 0.0 0.0 0.0 0.0 0.0 0.0 0.0 0.0 0.0005704926976468718 0.0 0.0 0.0 0.0 0.0 0.0 0.0 0.0 0.0 0.0004868900472061457 0.0 0.0 0.0 0.0 0.0 0.0 0.0 0.0 0.0 0.0 0.0 0.0 0.0 0.0 0.0 0.0 0.0 0.0 0.0 0.0 0.0 0.0 0.0 0.0 0.0 0.0 0.0 0.0005290197709617272 0.0 0.0 0.0 0.0 0.0 0.0 0.0 0.0 0.0 0.0 0.0 0.0 0.0 0.0 0.0 0.0 0.0067665494756811604 0.0 0.0 0.0 0.0 0.0006163293908847779 0.0 0.0 0.0 0.0 0.0 0.0 0.0 0.0 0.0 0.0 0.0006224643910043351 0.0 0.0 0.0 0.0 0.0 0.0 0.0 0.0 0.0005402424622966955 0.0 0.0 0.0 0.0 0.0 0.0 0.0 0.0 0.0 0.0 0.0007182352804397723 0.0 0.0 0.0008771897845212318 0.0 0.0 0.0 0.0 0.0006892473562288106 0.0 0.0 0.0 0.0 0.0 0.0 0.0 0.0 0.0 0.0 0.0 0.0 0.000719348259237765 0.0 0.0 0.0 0.0 0.0 0.0 0.0 0.0 0.0 0.0 0.0 0.0 0.0 0.0 0.0005530478442851004 0.0 0.0 0.0004727175880675483 0.0 0.0 0.0 0.0 0.0 0.0 0.0 0.0 0.0 0.0 0.0 0.0 0.0 0.0 0.0 0.0006420762556491271 0.0 0.0 0.0 0.0 0.0 0.004589792131114511 0.0 0.006562483661453222 0.0 0.0 0.0 0.0 0.0 0.0 0.0 0.0 0.0 0.0 0.0 0.0 0.0 0.0 0.0 0.0 0.0 0.0 0.0 0.0 0.0 0.0 0.0 0.0 0.0 0.0 0.0 0.0 0.0 0.0 0.0 0.0 0.0 0.0 0.0 0.0 0.0 0.0008009131776094098 0.0 0.0 0.0 0.0 0.0 0.0 0.0 0.0 0.0027687888700368216 0.0 0.0 0.0 0.0 0.0 0.0 0.0 0.0 0.0006608039936837526 0.0 0.0 0.0 0.0 0.0 0.0 0.0 0.0 0.0 0.0 0.0 0.0 0.0 0.00034965971753750033 0.0002558552678144595 0.0 0.0 0.0 0.0006701208234851433 0.0 0.0 0.0 0.0 0.0 0.0 0.0 0.0 0.0 0.0 0.0 0.0 0.0 0.0 0.008478368932675086 0.0 0.0 0.0 0.0 0.0 0.0 0.0 0.0 0.0 0.0 0.0 0.0 0.0 0.0 0.0 0.0 0.0 0.0 0.0 0.0 0.0 0.0 0.0 0.0 0.0 0.0 0.0 0.0 0.0 0.0 0.0 0.0 0.0 0.0 0.0 0.0 0.0 0.0 0.0 0.0 0.0 0.0 0.0 0.0004932822696849111 0.0 0.0 0.0 0.0 0.0 0.0 0.0 0.0 0.0 0.00036514024372218964 0.0 0.0 0.0 0.0 0.0 0.0 0.0 0.0 0.0 0.0 0.0 0.0 0.0 0.0 0.0 0.0 0.0 0.0 0.0 0.0 0.0 0.0 0.0 0.0 0.0 0.0 0.0 0.0 0.0 0.0 0.0</DataArray>
</PointData><Points>
<DataArray type="Float64" Name="Points" format="ascii" NumberOfComponents="3">0.00642808 0.00850785 0.0115569 0.0120993 0.00865447 0.0127393 0.0038046 0.0107001 0.00256378 0.000882812 0.00667697 0.00411837 0.0143451 0.0094767 0.00275256 0.0151944 0.00208165 0.0146206 0.007736 0.0137346 0.00683211 0.00651416 0.00667835 0.00581867 0.00398258 0.00278295 0.00234325 0.00675508 0.0147449 0.00334001 0.0082447 0.00308038 0.0102432 0.00471972 0.00882049 0.000690137 0.00888319 0.0084004 0.013332 0.0146381 0.00632593 0.000671169 0.00343829 0.00039352 0.00114378 0.0138119 0.00618114 0.00212578 0.00114487 0.00491132 0.00496572 0.0047474 0.00718742 0.00263053 0.00906804 0.0109464 0.0142583 0.0093147 0.00643334 0.0146206 0.00538414 0.0145883 0.0032387 1.95902e-05 0.00795921 0.0102128 0.00304871 0.00577446 0.0100454 0.0117395 0.00256314 0.0125983 0.0116455 0.0062419 0.00848989 0.0125226 0.00613472 0.00736303 0.00519271 0.00279148 0.0127897 0.00712106 0.00778574 0.00212049 0.0147217 0.00314671 0.000656865 0.0060996 0.0026863 0.0076389 0.00687267 0.00686366 0.0118414 0.00104496 0.00610336 0.0132362 0.00872168 0.000245843 0.00957164 0.0113902 0.0148176 0.000693742 0.0109401 0.00598879 0.00207743 0.000591021 0.00369357 0.0146665 0.00884155 0.000201353 0.00577441 0.00476023 0.000881586 0.000707315 0.00663215 0.00466229 0.00508471 0.0137217 0.000933779 0.0052833 0.0152175 0.00973284 0.00518296 0.0121289 0.00392921 0.0121523 0.00747626 0.00212588 0.0110825 0.00959909 0.0146924 0.0147973 0.00880302 0.00231363 0.00266004 0.0108399 0.00979099 0.00501462 0.0152443 0.0149189 0.00987744 7.34972e-05 0.00202894 0.0107569 0.0136284 0.00513488 0.014764 0.00342795 0.00320626 0.0117655 0.00933445 0.00381482 0.0146206 0.00313421 0.0152634 0.0115823 0.0030031 0.00418865 0.0129802 0.0124763 0.00736174 0.0132726 0.00776602 0.00353625 0.0115583 0.0124548 0.00797211 0.0146631 0.0050941 0.0111239 0.00699144 0.00716683 0.0110802 0.003366 0.00950464 0.0150695 0.000703828 0.00441645 0.0039621 0.0126031 0.0118346 0.00377227 0.00248707 0.01049 0.00556438 0.00784145 0.00320212 0.0120724 0.00255199 0.0119568 0.000804158 0.0105054 0.0126913 0.00525232 0.0117669 0.00786966 0.00306976 0.0146206 0.0132544 0.00572846 0.00619181 0.00476754 0.003067 0.0083478 0.0054026 0.00607702 0.000617244 0.0109845 0.0115551 0.000593239 0.0109032 0.0140394 0.0146512 0.00263439 0.0140451 0.00553218 0.0103195 0.00534655 0.0143771 0.000451424 0.00223555 0.00662947 0.00388685 0.00795318 0.00474142 0.00407759 0.0149831 0.0126492 0.000105943 0.00989516 0.000723643 0.0102795 0.00804677 0.00930903 0.00550008 0.00208333 0.00276184 0.00743566 0.00555285 0.00430443 0.0135132 0.012432 0.000571171 0.014937 0.00408346 0.00404732 0.0033397 0.000505694 0.00463436 0.00626333 0.00123138 0.00766311 0.0110366 0.0124823 0.0147233 0.000708179 0.00126421 0.0137264 0.000336763 0.0015382 0.00441614 0.00658132 0.0141706 0.00595027 0.00298775 0.0138353 0.0114749 0.00632399 0.00685793 0.00754821 0.0051708 0.00588628 0.0146532 0.0120489 0.0023727 0.00237373 0.00648743 0.00570669 0.0105456 0.00545978 0.014784 0.00063816 0.0121974 0.00963872 0.00462546 0.0117894 0.00120062 0.00318993 0.015149 0.00272339 0.003847 0.0121834 0.0133123 0.0146625 0.00288108 0.0121096 0.00625359 0.00160417 0.00798898 0.00430431 0.0149719 0.00873799 0.0144021 0.0127055 0.00193101 0.014197 0.00349233 0.000608479 0.00286218 0.00630069 0.00889598 0.0144732 0.0152 0.00324794 0.002258 0.0109769 0.0088394 0.00329251 0.00359955 0.00444787 0.00414164 0.000612879 0.0107583 0.00411286 0.00459402 0.00248742 0.01045 0.0115632 0.0128513 0.0131418 0.00314374 0.0135208 0.00857812 0.0116673 0.00645984 0.014457 0.0131763 0.00988071 0.000898644 0.00426811 0.0144943 0.00480766 0.0103971 0.000461611 0.00653278 0.00513577 0.000655356 0.00398782 0.00602244 0.0136649 0.00441463 0.00895987 0.00900926 0.010238 0.0145113 0.0112857 0.000925885 0.0145774 0.002348 0.00540449 0.0113308 0.000629478 0.0126435 0.0146804 0.0150619 0.00401224 0.000169673 0.00386857 0.00771047 0.01291 0.00518871 0.01337 0.00291804 0.0148848 0.0098456 0.00612427 0.00316257 0.0113999 0.0119344 0.0153665 0.0143947 0.00849873 0.0039622 0.00877454 0.00414308 0.0108907 0.00987264 0.0133251 0.0013226 0.00832908 0.00903643 0.0146671 0.00725954 0.00990198 0.00386862 0.0051087 0.00632861 0.00218587 0.000957778 0.0151681 0.00243641 0.00905256 0.002795 0.00216464 0.00708972 0.00160235 0.0106514 0.00111056 0.0146434 0.00736965 0.0130213 0.00773052 0.00657398 0.0029983 7.4763e-05 0.00778924 0.00720976 0.0135822 0.0067614 0.0144544 0.00943146 0.00825565 0.00655298 0.0124094 0.00534538 0.00267498 0.00108485 0.0109495 0.00743019 0.0150143 0.00165537 0.0124054 0.0113198 0.00435086 0.000969743 0.00383769 0.00376969 0.00689636 0.0126742 0.00594535 0.000890239 0.00710293 0.010668 0.0111149 0.00709037 0.0146145 0.000975623 0.00729476 0.00549434 0.00804527 0.0104842 0.00724447 0.00776731 0.0151685 0.00536127 0.0144686 0.00157987 0.01251 0.0044061 0.00728531 0.00377232 0.00725612 0.01118 0.0151628 0.00247191 0.00576489 0.00726877 0.0106202 0.00191343 0.0115388 0.012716 0.00907702 0.00590861 0.00849641 0.00221881 0.0049519 0.0143908 0.00727229 0.0152879 0.00772848 0.0135199 0.013753 0.0105038 0.00275783 0.00989707 0.0127836 0.00797877 0.00864595 0.000951359 0.00724534 0.00889501 0.0128746 0.0034855 0.00210203 0.000925726 0.0122499 0.00246253 0.0108017 0.00385908 0.0108002 0.0058059 0.00218061 0.0152605 0.00718053 0.000828803 0.00498506 0.00335809 0.00474007 0.00600619 0.00963439 0.00361209 0.0102634 0.014452 0.0051907 0.0015143 0.00886946 0.0071332 0.000289692 0.00540535 0.00990878 0.00355141 0.0107222 0.00511724 0.00951737 0.0063381 0.0128122 0.0112068 0.0021899 0.0093738 0.00623714 0.00657983 0.00856074 0.00385222 0.00367811 0.0122758 0.00402915 0.00589032 0.00337737 0.00876701 0.00936048 0.00277602 0.00828761 0.0144299 0.000762585 0.012471 0.000988134 0.00803015 0.014161 0.00469963 0.010837 0.00238834 0.000978925 0.0130514 0.00315822 0.00121424 0.00226883 0.00200538 0.00263243 0.0143459 0.0130042 0.00186624 0.0113945 0.00918114 0.0110881 0.00340058 0.00207828 0.00890818 0.00510559 0.00374798 0.00314021 0.015285 0.0111339 0.0128545 0.00506782 0.011307 0.000981164 0.00458494 0.0121472 0.00832696 0.00973389 0.011808 0.0129043 0.00756106 0.0104983 0.00655701 0.0143108 0.0093607 0.00678585 0.0135592 0.0139428 0.0140031 0.0126963 0.00955662 0.00300749 0.0142843 0.0111854 0.0077088 0.00481986 0.0145587 0.0085124 0.00832651 0.0120425 0.01158 0.000972221 0.00881564 0.00581637 0.0142295 0.0115992 0.00344742 0.00235943 5.7767e-05 0.013031 0.00941113 0.00185581 0.00988635 0.0104228 0.000101749 0.0046259 0.0135229 0.00702473 0.0101026 0.0112957 0.00589602 0.0126544 0.0049364 0.00756964 0.0144406 0.0136205 0.0073143 0.00685831 0.0112442 0.0151231 0.00936431 0.00904781 0.00434845 0.00675362 0.0135002 0.0149674 0.0120801 0.00522462 0.00873684 0.00237263 0.014913 0.0104445 0.0111223 0.00735115 0.00306813 0.00234091 0.00785714 0.0071001 0.0131874 0.0105215 0.00201599 0.0115062 0.00951605 0.00182187 0.00539654 0.0109243 0.00459243 0.00368263 0.0068158 0.0024706 0.0130554 0.00983209 0.000706351 0.00837825 0.00691204 0.00192774 0.00631137 0.00157798 0.0117964 0.00265549 0.0107588 0.0118515 0.00812805 0.0121495 0.00959194 0.0144851 0.0148463 0.013001 0.0128949 0.00950729 0.00531824 0.0027431 0.0019295 0.00880535 0.000912114 0.00570029 0.00429995 0.0099142 0.0108048 0.00177202 0.0144656 0.00922304 0.00722764 0.00160011 0.0036402 0.0141124 0.00692016 0.0140646 0.00305028 0.0105996 0.0082748 0.00793143 0.0115784 0.00347083 0.00594539 0.00734052 0.00825001 0.0104969 0.0127088 0.00156243 0.0136422 0.0104332 0.015059 0.0112615 0.00591321 0.00956266 0.0105886 0.0112571 0.00305434 0.0118805 0.000910314 0.00746183 0.00136169 0.0144675 0.0152293 0.0140733 0.0112791 0.0130288 0.0142907 0.00127578 0.00810737 0.00319921 0.00549928 0.00160414 0.00270943 0.000925566 0.00916124 0.0131605 0.00583499 0.00330325 0.0140446 0.00321184 0.00976117 0.00555904 0.000882614 0.00271373 0.0120634 0.00967147 0.00340822 0.00643307 0.0144436 0.000830039 0.00455496 0.000974736 0.0144266 0.0079746 0.00875573 0.00438449 0.00399901 0.00101316 0.00471216 0.000186015 0.0101438 0.0132016 0.00778606 0.0117859 0.00659062 0.00956595 0.00478995 0.00249126 0.00181977 0.0122781 0.0153403 0.0062501 0.010101 0.00712619 0.0112387 0.00157061 0.0139359 0.00478882 0.00740067 0.00174303 0.014408 0.0144996 0.0102437 0.00703721 0.00327557 0.0121004 0.0125843 0.00108456 0.0149747 0.011962 0.014563 0.00809245 0.0125786 0.0133384 0.00488023 0.00535711 0.00573052 0.00503906 0.00972852 0.0133084 0.00547346 0.0105125 0.00304888 0.00497608 0.00301259 0.0144894 0.00595218 0.00766262 0.000932561 0.0108569 0.00800966 0.0136238 0.0108148 0.00508339 0.00629971 0.000196574 0.00341294 0.0117453 0.00647781 0.0117068 0.00785461 0.000306731 0.0122418 0.0112997 0.00626685 0.012874 0.000932133 0.00801185 0.0070882 0.00753446 0.00885139 0.0103862 0.00889722 0.00644745 0.00414381 0.000923519 0.00437708 0.0132627 0.000825399 0.0121924 0.0130429 0.00909328 0.0081805 0.00930076 0.0145 0.00010095 0.00615217 0.00208788 0.00105243 0.0127564 0.0138245 0.0124649 0.00288382 0.00443676 0.00963464 0.00696761 0.0126039 0.00721568 0.0127384 0.0028088 0.00114143 0.00918656 0.00303807 0.00887705 0.00858119 0.00832694 0.0059249 0.000529775 0.0019021 0.0137409 0.00336556 0.0124953 0.00951325 0.00989527 0.00399816 0.00557679 0.0110766 0.0048687 0.00129943 0.00838052 0.013152 0.0107286 0.0117364 0.0026946 0.0131264 0.0108219 0.00615458 0.00363212 0.0149047 0.0144471 0.00145257 0.00825758 0.00934563 0.00422143 0.00494412 0.0112467 0.0138264 0.00348605 0.0144265 0.0139652 0.011549 0.00961442 0.00185408 0.0127452 0.00742254 0.00178307 0.00675792 0.0103862 0.00163981 0.0111401 0.00566453 0.0141364 0.00420809 0.00555102 0.0137886 0.0100446 0.00452193 0.0112751 0.007498 0.0117824 0.0036057 0.0100285 0.000962276 0.00690513 0.00912511 0.00303531 0.0127891 0.0124106 0.00728079 0.0124525 0.010881 0.00851007 0.00832534 0.0100535 0.0025497 0.00503467 0.0135817 0.0126119 0.00409996 0.0101143 0.00801869 0.00765947 0.00548718 0.0060739 0.0138295 0.000428952 0.0144737 0.013972 0.00284911 0.00740244 0.00318581 0.0121342 0.0115247 0.00678456 0.0090854 0.0100989 0.00669621 0.012899 0.0119763 0.0149282 0.00619856 0.00822222 0.0101396 0.00961159 0.0144233 0.00136078 0.00911386 0.00767383 0.000723907 0.00711535 0.0144783 0.000743884 0.00697877 0.0118942 0.00607853 0.0144862 0.0111045 0.00953731 0.0142388 0.00907011 0.00178944 0.000732597 0.000931026 0.00248377 0.00684551 0.0127929 0.00541111 0.0113932 0.0143195 0.012919 0.00787954 0.00441347 0.00522488 0.000662569 0.0118927 0.00163158 0.00715132 0.00648452 0.0115077 0.00159732 0.00886629 0.00344688 0.0124205 0.0041732 0.00575756 0.0103835 0.00910492 0.0120023 0.011198 0.00403426 0.011473 0.00151206 0.00528904 0.00137881 0.00697169 0.000945343 0.00308473 0.00564611 0.000918513 0.012188 0.00235102 0.00687822 0.00377408 0.00683166 0.0111036 0.00114172 0.00272986 0.0132811 0.00801187 0.0143065 0.0142808 0.00926058 0.000847095 0.00340809 0.00988211 0.00886937 0.0121369 0.000113101 0.0105971 0.00228405 0.0151459 0.000223727 0.00585751 0.00820256 0.0129883 0.000946395 0.00654092 0.013051 0.0140637 0.00412831 0.00467065 0.014135 0.0104415 0.00430726 0.0123536 0.0026358 0.00762499 0.008011 0.00619018 0.00963994 0.00094849 0.0044679 0.00606557 0.00387406 0.00724754 0.00954615 0.00832247 0.00315879 0.00122249 0.0106055 0.00182052 0.00317139 0.00835747 0.00448001 0.0146813 0.00193932 0.00931009 0.0100658 0.00589331 0.00431948 0.00961847 0.00434437 0.00485628 0.0132784 0.014531 0.00751908 0.00646591 0.000975791 0.00594435 0.0135187 0.00737792 0.0087166 0.00827627 0.0030866 0.0014984 0.013833 0.0123168 0.00981007 0.0057611 0.00472362 0.00394017 0.00738058 0.0011107 0.00394746 0.00815388 0.0128663 0.0141554 0.0132524 0.00879329 0.00955411 0.0130539 0.0143898 0.0101984 0.00474927 0.00934072 0.000121854 0.0130619 0.00335798 2.60976e-05 0.00873801 0.0117312 0.00973717 0.00701289 0.0106164 0.0105315 0.00993773 0.00969085 0.00961837 0.0133659 0.0114878 0.00228035 0.00975156 0.00448468 0.0102341 0.00818274 0.00486369 0.00215448 0.00130828 0.0144798 0.0130697 0.00150111 0.0123103 0.0146052 0.00152366 0.000981552 0.014226 0.00472482 0.000984877 0.010313 0.014209 0.0130172 0.00797642 0.0141781 0.0109786 0.0046864 0.00198534 0.00709852 0.0130235 0.0147931 0.00869147 0.000808613 0.00451802 0.0132018 0.00677204 0.00487074 0.0120359 0.0135226 0.00390524 0.00318762 0.00778184 0.00489267 0.00217096 0.00669537 0.00331126 0.00402918 0.00618524 0.0120356 0.0100569 0.00736227 0.0111036 0.0144012 0.00295663 0.00310211 0.014387 0.000399955 0.00428455 0.00965483 0.0151214 0.00100641 0.00765941 0.0140254 0.0139836 0.00703447 0.00665553 0.00664819 0.0144829 0.00412599 0.00137665 0.0135511 0.0107826 0.00871986 0.00112619 0.00862737 0.012094 0.00754645 0.0136999 0.00490313 0.00957165 0.000514979 0.013522 0.00595212 0.0147025 0.00818492 0.00123801 0.0020278 0.00498529 0.0115158 0.00184386 0.00287322 0.0104712 0.0129791 0.0116038 0.0140791 0.013205 0.0096047 0.0101858 0.0153472 0.0150174 0.0132677 0.0024157 0.0064872 0.00284784 0.00145271 0.0146741 0.00409171 0.00381303 0.00231532 0.00419777 0.00120988 0.0102617 0.0142644 0.00523691 6.61534e-05 0.00651573 0.00516618 0.0113635 0.0119059 0.00896488 0.00348371 0.00109192 0.00242373 0.00847047 0.0113119 0.00471875 0.00913109 0.0110649 0.00469688 0.012697 0.00585677 0.00803 0.00191715 0.00813368 0.0135119 0.0119519 0.0117016 0.00303804 0.00891027 0.00633279 0.0145916 0.00535797 0.0119365 0.0120184 0.00601219 0.00474831 0.0125849 0.0131023 0.00308891 0.0125685 0.000175611 0.0066453 0.000463604 0.000912022 0.00263857 0.00848536 0.0144564 0.00259723 0.00928815 0.000585868 0.0135475 0.010859 0.0133967 0.00462973 0.011457 0.0116409 0.0106625 0.00291337 0.00617532 0.00523942 0.00735919 0.0135396 0.00900875 0.0110383 0.0114554 0.00601515 0.00718199 0.00127438 0.00348071 0.00938518 0.0122062 0.00975363 0.00154428 0.00102557 0.00893272 0.0105076 0.00253317 0.00351957 0.0025344 0.00410395 0.00231367 0.00688078 0.000682455 0.0098464 0.00164589 0.0106312 0.0108291 0.00507167 0.0126107 0.00275389 0.0105831 0.00973625 0.0076542 0.00968499 0.000123742 0.0112359 0.010259 0.0134597 0.00144291 0.00189843 0.00440958 0.00657596 0.00239954 0.0139779 0.00124672 0.0125441 0.0151916 0.00423498 0.0101882 0.00279413 0.00767581 0.00828353 0.00727223 0.00496835 0.0052169 0.00630149 0.0126848 0.000643536 0.0121825 0.00913069 0.000523529 0.0143598 0.00817114 0.00696398 0.00848199 0.00652405 0.00153948 0.00316581 0.00432922 0.0136924 0.00967478 0.0128075 0.00647195 0.0044645 0.0141693 0.00892523 0.0119805 0.00400558 0.00112582 0.000460802 0.0112606 0.00592822 0.0151778 0.0141206 0.0142849 0.00590684 0.00397972 0.0136803 0.00170308 0.00316899 0.00176818 0.00115621 0.00558012 0.00897892 0.00281207 0.0128746 0.00311149 0.0130622 0.0135005 0.00355988 0.00416661 0.00930964 0.0115183 0.00376227 0.0141473 0.00771188 0.00720945 0.00962506 0.0124304 0.0075211 0.00234208 0.000117658 0.0146009 0.00108614 0.0110317 0.0137621 0.00714598 0.00827436 0.0011181 0.00121736 0.0044427 0.0133303 0.0102963 0.00713026 0.0123607 0.00565307 0.00841102 0.00514422 0.0106263 0.00316401 0.00880036 0.00268753 0.00582758 0.00764958 0.00422724 0.011654 0.00590038 0.0103722 0.0122638 0.0081329 0.00856628 0.0136709 0.012812 0.00521727 0.012492 0.000992949 0.00114957 0.00543986 0.0033053 0.00565962 0.00481886 0.00737393 0.00641349 0.0093063 0.0111171 0.00116501 0.0119684 0.00855953 0.00616842 0.00538035 0.00823318 0.00863834 0.0153591 0.00988822 0.00913232 0.00581236 0.00563355 0.00235906 0.0116199 0.0141183 0.0112712 0.0153506 0.00587782 0.00611766 0.0139369 0.000871264 0.0103387 0.00860279 0.00512653 0.0132643 0.00531052 0.00490225 0.0078544 0.00170255 0.0056747 0.00857904 0.0119457 0.00436912 0.00802844 0.00734542 0.000502808 0.0122207 0.0149617 0.00820167 0.00403522 0.0113447 0.0104497 0.0127523</DataArray>
</Points><Verts>
<DataArray type="Int64" Name="connectivity" format="ascii">0 1 2 3 4 5 6 7 8 9 10 11 12 13 14 15 16 17 18 19 20 21 22 23 24 25 26 27 28 29 30 31 32 33 34 35 36 37 38 39 40 41 42 43 44 45 46 47 48 49 50 51 52 53 54 55 56 57 58 59 60 61 62 63 64 65 66 67 68 69 70 71 72 73 74 75 76 77 78 79 80 81 82 83 84 85 86 87 88 89 90 91 92 93 94 95 96 97 98 99 100 101 102 103 104 105 106 107 108 109 110 111 112 113 114 115 116 117 118 119 120 121 122 123 124 125 126 127 128 129 130 131 132 133 134 135 136 137 138 139 140 141 142 143 144 145 146 147 148 149 150 151 152 153 154 155 156 157 158 159 160 161 162 163 164 165 166 167 168 169 170 171 172 173 174 175 176 177 178 179 180 181 182 183 184 185 186 187 188 189 190 191 192 193 194 195 196 197 198 199 200 201 202 203 204 205 206 207 208 209 210 211 212 213 214 215 216 217 218 219 220 221 222 223 224 225 226 227 228 229 230 231 232 233 234 235 236 237 238 239 240 241 242 243 244 245 246 247 248 249 250 251 252 253 254 255 256 257 258 259 260 261 262 263 264 265 266 267 268 269 270 271 272 273 274 275 276 277 278 279 280 281 282 283 284 285 286 287 288 289 290 291 292 293 294 295 296 297 298 299 300 301 302 303 304 305 306 307 308 309 310 311 312 313 314 315 316 317 318 319 320 321 322 323 324 325 326 327 328 329 330 331 332 333 334 335 336 337 338 339 340 341 342 343 344 345 346 347 348 349 350 351 352 353 354 355 356 357 358 359 360 361 362 363 364 365 366 367 368 369 370 371 372 373 374 375 376 377 378 379 380 381 382 383 384 385 386 387 388 389 390 391 392 393 394 395 396 397 398 399 400 401 402 403 404 405 406 407 408 409 410 411 412 413 414 415 416 417 418 419 420 421 422 423 424 425 426 427 428 429 430 431 432 433 434 435 436 437 438 439 440 441 442 443 444 445 446 447 448 449 450 451 452 453 454 455 456 457 458 459 460 461 462 463 464 465 466 467 468 469 470 471 472 473 474 475 476 477 478 479 480 481 482 483 484 485 486 487 488 489 490 491 492 493 494 495 496 497 498 499</DataArray>
<DataArray type="Int64" Name="offsets" format="ascii">1 2 3 4 5 6 7 8 9 10 11 12 13 14 15 16 17 18 19 20 21 22 23 24 25 26 27 28 29 30 31 32 33 34 35 36 37 38 39 40 41 42 43 44 45 46 47 48 49 50 51 52 53 54 55 56 57 58 59 60 61 62 63 64 65 66 67 68 69 70 71 72 73 74 75 76 77 78 79 80 81 82 83 84 85 86 87 88 89 90 91 92 93 94 95 96 97 98 99 100 101 102 103 104 105 106 107 108 109 110 111 112 113 114 115 116 117 118 119 120 121 122 123 124 125 126 127 128 129 130 131 132 133 134 135 136 137 138 139 140 141 142 143 144 145 146 147 148 149 150 151 152 153 154 155 156 157 158 159 160 161 162 163 164 165 166 167 168 169 170 171 172 173 174 175 176 177 178 179 180 181 182 183 184 185 186 187 188 189 190 191 192 193 194 195 196 197 198 199 200 201 202 203 204 205 206 207 208 209 210 211 212 213 214 215 216 217 218 219 220 221 222 223 224 225 226 227 228 229 230 231 232 233 234 235 236 237 238 239 240 241 242 243 244 245 246 247 248 249 250 251 252 253 254 255 256 257 258 259 260 261 262 263 264 265 266 267 268 269 270 271 272 273 274 275 276 277 278 279 280 281 282 283 284 285 286 287 288 289 290 291 292 293 294 295 296 297 298 299 300 301 302 303 304 305 306 307 308 309 310 311 312 313 314 315 316 317 318 319 320 321 322 323 324 325 326 327 328 329 330 331 332 333 334 335 336 337 338 339 340 341 342 343 344 345 346 347 348 349 350 351 352 353 354 355 356 357 358 359 360 361 362 363 364 365 366 367 368 369 370 371 372 373 374 375 376 377 378 379 380 381 382 383 384 385 386 387 388 389 390 391 392 393 394 395 396 397 398 399 400 401 402 403 404 405 406 407 408 409 410 411 412 413 414 415 416 417 418 419 420 421 422 423 424 425 426 427 428 429 430 431 432 433 434 435 436 437 438 439 440 441 442 443 444 445 446 447 448 449 450 451 452 453 454 455 456 457 458 459 460 461 462 463 464 465 466 467 468 469 470 471 472 473 474 475 476 477 478 479 480 481 482 483 484 485 486 487 488 489 490 491 492 493 494 495 496 497 498 499 500</DataArray>
</Verts></Piece></PolyData></VTKFile>